M48
; DRILL file {KiCad 7.0.8} date 2024 May 28, Tuesday 19:10:26
; FORMAT={-:-/ absolute / inch / decimal}
; #@! TF.CreationDate,2024-05-28T19:10:26-07:00
; #@! TF.GenerationSoftware,Kicad,Pcbnew,7.0.8
; #@! TF.FileFunction,Plated,1,2,PTH
FMAT,2
INCH
; #@! TA.AperFunction,Plated,PTH,ViaDrill
T1C0.0118
; #@! TA.AperFunction,Plated,PTH,ViaDrill
T2C0.0138
; #@! TA.AperFunction,Plated,PTH,ViaDrill
T3C0.0157
; #@! TA.AperFunction,Plated,PTH,ComponentDrill
T4C0.0256
; #@! TA.AperFunction,Plated,PTH,ComponentDrill
T5C0.0276
; #@! TA.AperFunction,Plated,PTH,ComponentDrill
T6C0.0295
; #@! TA.AperFunction,Plated,PTH,ComponentDrill
T7C0.0354
; #@! TA.AperFunction,Plated,PTH,ComponentDrill
T8C0.0394
%
G90
G05
T1
X0.5634Y0.685
X1.152Y1.4213
X1.4709Y0.5874
T2
X0.75Y1.7748
X0.8618Y1.2882
X0.8634Y1.4606
X0.8913Y2.0437
X1.0697Y0.9634
X1.0728Y0.8543
X1.1024Y1.0955
X1.1311Y2.3756
X1.1732Y1.5394
X1.1969Y1.0091
X1.2136Y1.1339
X1.2362Y1.0094
X1.2795Y0.4203
X1.289Y0.8547
X1.2913Y1.6799
X1.2941Y0.9642
X1.3311Y1.6803
X1.4996Y1.4976
X1.4996Y1.2929
X1.5004Y1.5516
X1.615Y2.3398
X1.6768Y1.811
X1.9642Y2.4165
T3
X0.9787Y2.5453
X1.1303Y1.3898
X1.1311Y1.3382
X1.1311Y1.289
X1.1311Y1.289
X1.1343Y1.7228
X1.1732Y1.7201
X1.1811Y1.3898
X1.1819Y1.339
X1.1819Y1.2866
X1.1821Y0.3524
X1.2319Y1.3894
X1.2319Y1.339
X1.2323Y1.287
X1.3783Y2.5437
T6
X0.6378Y0.2508
X0.6878Y0.2508
X0.7378Y0.2508
T7
X1.2185Y0.1614
X1.3185Y0.1614
T8
X0.1969Y2.185
X0.1969Y2.085
X0.1969Y1.985
X0.1969Y1.885
X0.1969Y1.785
X0.1969Y1.685
X0.1969Y1.585
X0.1969Y1.485
X0.1969Y1.385
X0.1969Y1.285
X0.1969Y1.185
X0.1969Y1.085
X0.1969Y0.985
X0.1969Y0.885
X0.1969Y0.785
X0.1969Y0.685
X0.1969Y0.585
X0.1969Y0.485
X0.5673Y2.5358
X0.5673Y2.4358
X2.1654Y2.185
X2.1654Y2.085
X2.1654Y1.985
X2.1654Y1.885
X2.1654Y1.785
X2.1654Y1.685
X2.1654Y1.585
X2.1654Y1.485
X2.1654Y1.385
X2.1654Y1.285
X2.1654Y1.185
X2.1654Y1.085
X2.1654Y0.985
X2.1654Y0.885
X2.1654Y0.785
X2.1654Y0.685
X2.1654Y0.585
X2.1654Y0.485
T4
G00X1.0868Y2.4533
M15
G01X1.0868Y2.4376
M16
G05
G00X1.2774Y2.4533
M15
G01X1.2774Y2.4376
M16
G05
T5
G00X1.0746Y2.5734
M15
G01X1.0746Y2.5537
M16
G05
G00X1.2896Y2.5734
M15
G01X1.2896Y2.5537
M16
G05
T0
M30
