%TF.GenerationSoftware,KiCad,Pcbnew,7.0.8*%
%TF.CreationDate,2024-05-28T19:10:26-07:00*%
%TF.ProjectId,BroncoSpaceRP2040,42726f6e-636f-4537-9061-636552503230,rev?*%
%TF.SameCoordinates,Original*%
%TF.FileFunction,Copper,L1,Top*%
%TF.FilePolarity,Positive*%
%FSLAX46Y46*%
G04 Gerber Fmt 4.6, Leading zero omitted, Abs format (unit mm)*
G04 Created by KiCad (PCBNEW 7.0.8) date 2024-05-28 19:10:26*
%MOMM*%
%LPD*%
G01*
G04 APERTURE LIST*
G04 Aperture macros list*
%AMRoundRect*
0 Rectangle with rounded corners*
0 $1 Rounding radius*
0 $2 $3 $4 $5 $6 $7 $8 $9 X,Y pos of 4 corners*
0 Add a 4 corners polygon primitive as box body*
4,1,4,$2,$3,$4,$5,$6,$7,$8,$9,$2,$3,0*
0 Add four circle primitives for the rounded corners*
1,1,$1+$1,$2,$3*
1,1,$1+$1,$4,$5*
1,1,$1+$1,$6,$7*
1,1,$1+$1,$8,$9*
0 Add four rect primitives between the rounded corners*
20,1,$1+$1,$2,$3,$4,$5,0*
20,1,$1+$1,$4,$5,$6,$7,0*
20,1,$1+$1,$6,$7,$8,$9,0*
20,1,$1+$1,$8,$9,$2,$3,0*%
G04 Aperture macros list end*
%TA.AperFunction,SMDPad,CuDef*%
%ADD10RoundRect,0.140000X-0.140000X-0.170000X0.140000X-0.170000X0.140000X0.170000X-0.140000X0.170000X0*%
%TD*%
%TA.AperFunction,SMDPad,CuDef*%
%ADD11RoundRect,0.135000X-0.185000X0.135000X-0.185000X-0.135000X0.185000X-0.135000X0.185000X0.135000X0*%
%TD*%
%TA.AperFunction,SMDPad,CuDef*%
%ADD12RoundRect,0.140000X-0.170000X0.140000X-0.170000X-0.140000X0.170000X-0.140000X0.170000X0.140000X0*%
%TD*%
%TA.AperFunction,SMDPad,CuDef*%
%ADD13RoundRect,0.140000X0.140000X0.170000X-0.140000X0.170000X-0.140000X-0.170000X0.140000X-0.170000X0*%
%TD*%
%TA.AperFunction,SMDPad,CuDef*%
%ADD14RoundRect,0.140000X0.170000X-0.140000X0.170000X0.140000X-0.170000X0.140000X-0.170000X-0.140000X0*%
%TD*%
%TA.AperFunction,SMDPad,CuDef*%
%ADD15RoundRect,0.250000X-0.250000X-0.475000X0.250000X-0.475000X0.250000X0.475000X-0.250000X0.475000X0*%
%TD*%
%TA.AperFunction,ComponentPad*%
%ADD16R,1.700000X1.700000*%
%TD*%
%TA.AperFunction,ComponentPad*%
%ADD17O,1.700000X1.700000*%
%TD*%
%TA.AperFunction,SMDPad,CuDef*%
%ADD18RoundRect,0.135000X-0.135000X-0.185000X0.135000X-0.185000X0.135000X0.185000X-0.135000X0.185000X0*%
%TD*%
%TA.AperFunction,SMDPad,CuDef*%
%ADD19RoundRect,0.150000X-0.650000X-0.150000X0.650000X-0.150000X0.650000X0.150000X-0.650000X0.150000X0*%
%TD*%
%TA.AperFunction,SMDPad,CuDef*%
%ADD20RoundRect,0.062500X-0.425000X-0.062500X0.425000X-0.062500X0.425000X0.062500X-0.425000X0.062500X0*%
%TD*%
%TA.AperFunction,SMDPad,CuDef*%
%ADD21RoundRect,0.062500X-0.062500X-0.425000X0.062500X-0.425000X0.062500X0.425000X-0.062500X0.425000X0*%
%TD*%
%TA.AperFunction,SMDPad,CuDef*%
%ADD22R,0.400000X1.650000*%
%TD*%
%TA.AperFunction,SMDPad,CuDef*%
%ADD23R,1.825000X0.700000*%
%TD*%
%TA.AperFunction,SMDPad,CuDef*%
%ADD24R,2.000000X1.500000*%
%TD*%
%TA.AperFunction,SMDPad,CuDef*%
%ADD25R,1.350000X2.000000*%
%TD*%
%TA.AperFunction,ComponentPad*%
%ADD26O,1.350000X1.700000*%
%TD*%
%TA.AperFunction,ComponentPad*%
%ADD27O,1.100000X1.500000*%
%TD*%
%TA.AperFunction,SMDPad,CuDef*%
%ADD28R,1.430000X2.500000*%
%TD*%
%TA.AperFunction,ComponentPad*%
%ADD29R,1.800000X1.800000*%
%TD*%
%TA.AperFunction,ComponentPad*%
%ADD30C,1.800000*%
%TD*%
%TA.AperFunction,SMDPad,CuDef*%
%ADD31R,1.400000X1.200000*%
%TD*%
%TA.AperFunction,SMDPad,CuDef*%
%ADD32RoundRect,0.135000X0.185000X-0.135000X0.185000X0.135000X-0.185000X0.135000X-0.185000X-0.135000X0*%
%TD*%
%TA.AperFunction,SMDPad,CuDef*%
%ADD33R,1.500000X2.000000*%
%TD*%
%TA.AperFunction,SMDPad,CuDef*%
%ADD34R,3.800000X2.000000*%
%TD*%
%TA.AperFunction,ComponentPad*%
%ADD35R,1.050000X1.500000*%
%TD*%
%TA.AperFunction,ComponentPad*%
%ADD36O,1.050000X1.500000*%
%TD*%
%TA.AperFunction,SMDPad,CuDef*%
%ADD37RoundRect,0.050000X-0.387500X-0.050000X0.387500X-0.050000X0.387500X0.050000X-0.387500X0.050000X0*%
%TD*%
%TA.AperFunction,SMDPad,CuDef*%
%ADD38RoundRect,0.050000X-0.050000X-0.387500X0.050000X-0.387500X0.050000X0.387500X-0.050000X0.387500X0*%
%TD*%
%TA.AperFunction,SMDPad,CuDef*%
%ADD39R,3.200000X3.200000*%
%TD*%
%TA.AperFunction,ViaPad*%
%ADD40C,0.600000*%
%TD*%
%TA.AperFunction,ViaPad*%
%ADD41C,0.800000*%
%TD*%
%TA.AperFunction,ViaPad*%
%ADD42C,0.500000*%
%TD*%
%TA.AperFunction,Conductor*%
%ADD43C,0.250000*%
%TD*%
%TA.AperFunction,Conductor*%
%ADD44C,0.200000*%
%TD*%
%TA.AperFunction,Conductor*%
%ADD45C,0.800000*%
%TD*%
G04 APERTURE END LIST*
D10*
%TO.P,C16,1*%
%TO.N,+3V3*%
X47410000Y61380000D03*
%TO.P,C16,2*%
%TO.N,GND*%
X48370000Y61380000D03*
%TD*%
D11*
%TO.P,R7,1*%
%TO.N,/GPIO14*%
X39275000Y10020000D03*
%TO.P,R7,2*%
%TO.N,+3V3*%
X39275000Y9000000D03*
%TD*%
D12*
%TO.P,C17,1*%
%TO.N,Net-(Q1-E)*%
X22112500Y12430000D03*
%TO.P,C17,2*%
%TO.N,Net-(Q1-B)*%
X22112500Y11470000D03*
%TD*%
D11*
%TO.P,R5,1*%
%TO.N,/XOUT*%
X29400000Y27572500D03*
%TO.P,R5,2*%
%TO.N,Net-(C14-Pad1)*%
X29400000Y26552500D03*
%TD*%
%TO.P,R4,1*%
%TO.N,Net-(J2-Pin_1)*%
X15540000Y52870000D03*
%TO.P,R4,2*%
%TO.N,/QSPI_SS*%
X15540000Y51850000D03*
%TD*%
D13*
%TO.P,C8,1*%
%TO.N,+3V3*%
X24042500Y37100000D03*
%TO.P,C8,2*%
%TO.N,GND*%
X23082500Y37100000D03*
%TD*%
D14*
%TO.P,C3,1*%
%TO.N,+1V1*%
X32800000Y40457500D03*
%TO.P,C3,2*%
%TO.N,GND*%
X32800000Y41417500D03*
%TD*%
D15*
%TO.P,C2,1*%
%TO.N,+3V3*%
X39050000Y46000000D03*
%TO.P,C2,2*%
%TO.N,GND*%
X40950000Y46000000D03*
%TD*%
D13*
%TO.P,C15,1*%
%TO.N,/XIN*%
X29230000Y24500000D03*
%TO.P,C15,2*%
%TO.N,GND*%
X28270000Y24500000D03*
%TD*%
D10*
%TO.P,C10,1*%
%TO.N,+3V3*%
X36005000Y39425000D03*
%TO.P,C10,2*%
%TO.N,GND*%
X36965000Y39425000D03*
%TD*%
%TO.P,C14,1*%
%TO.N,Net-(C14-Pad1)*%
X30870000Y24500000D03*
%TO.P,C14,2*%
%TO.N,GND*%
X31830000Y24500000D03*
%TD*%
D16*
%TO.P,J4,1,Pin_1*%
%TO.N,/GPIO_ADC3*%
X55000000Y55500000D03*
D17*
%TO.P,J4,2,Pin_2*%
%TO.N,/GPIO_ADC2*%
X55000000Y52960000D03*
%TO.P,J4,3,Pin_3*%
%TO.N,/GPIO_ADC1*%
X55000000Y50420000D03*
%TO.P,J4,4,Pin_4*%
%TO.N,/GPIO_ADC0*%
X55000000Y47880000D03*
%TO.P,J4,5,Pin_5*%
%TO.N,/GPIO25*%
X55000000Y45340000D03*
%TO.P,J4,6,Pin_6*%
%TO.N,/GPIO24*%
X55000000Y42800000D03*
%TO.P,J4,7,Pin_7*%
%TO.N,/GPIO23*%
X55000000Y40260000D03*
%TO.P,J4,8,Pin_8*%
%TO.N,/GPIO22*%
X55000000Y37720000D03*
%TO.P,J4,9,Pin_9*%
%TO.N,/GPIO21*%
X55000000Y35180000D03*
%TO.P,J4,10,Pin_10*%
%TO.N,/GPIO20*%
X55000000Y32640000D03*
%TO.P,J4,11,Pin_11*%
%TO.N,/GPIO19*%
X55000000Y30100000D03*
%TO.P,J4,12,Pin_12*%
%TO.N,/GPIO18*%
X55000000Y27560000D03*
%TO.P,J4,13,Pin_13*%
%TO.N,/GPIO17*%
X55000000Y25020000D03*
%TO.P,J4,14,Pin_14*%
%TO.N,/GPIO16*%
X55000000Y22480000D03*
%TO.P,J4,15,Pin_15*%
%TO.N,/RUN*%
X55000000Y19940000D03*
%TO.P,J4,16,Pin_16*%
%TO.N,/SWD*%
X55000000Y17400000D03*
%TO.P,J4,17,Pin_17*%
%TO.N,/SWCLK*%
X55000000Y14860000D03*
%TO.P,J4,18,Pin_18*%
%TO.N,GND*%
X55000000Y12320000D03*
%TD*%
D18*
%TO.P,R_Limit1,1*%
%TO.N,Net-(D1-A)*%
X38127500Y4080000D03*
%TO.P,R_Limit1,2*%
%TO.N,+3V3*%
X39147500Y4080000D03*
%TD*%
D12*
%TO.P,C5,1*%
%TO.N,+1V1*%
X31400000Y27542500D03*
%TO.P,C5,2*%
%TO.N,GND*%
X31400000Y26582500D03*
%TD*%
D16*
%TO.P,J2,1,Pin_1*%
%TO.N,Net-(J2-Pin_1)*%
X14410000Y61870000D03*
D17*
%TO.P,J2,2,Pin_2*%
%TO.N,GND*%
X14410000Y64410000D03*
%TD*%
D11*
%TO.P,R10,1*%
%TO.N,/LED_ALERT*%
X26070000Y9400000D03*
%TO.P,R10,2*%
%TO.N,+3V3*%
X26070000Y8380000D03*
%TD*%
D10*
%TO.P,C11,1*%
%TO.N,+3V3*%
X36005000Y38025000D03*
%TO.P,C11,2*%
%TO.N,GND*%
X36965000Y38025000D03*
%TD*%
D19*
%TO.P,U3,1,~{CS}*%
%TO.N,/QSPI_SS*%
X17400000Y48905000D03*
%TO.P,U3,2,DO(IO1)*%
%TO.N,/QSPI_SD1*%
X17400000Y47635000D03*
%TO.P,U3,3,IO2*%
%TO.N,/QSPI_SD2*%
X17400000Y46365000D03*
%TO.P,U3,4,GND*%
%TO.N,GND*%
X17400000Y45095000D03*
%TO.P,U3,5,DI(IO0)*%
%TO.N,/QSPI_SD0*%
X24600000Y45095000D03*
%TO.P,U3,6,CLK*%
%TO.N,/QSPI_SCLK*%
X24600000Y46365000D03*
%TO.P,U3,7,IO3*%
%TO.N,/QSPI_SD3*%
X24600000Y47635000D03*
%TO.P,U3,8,VCC*%
%TO.N,+3V3*%
X24600000Y48905000D03*
%TD*%
D20*
%TO.P,U4,1,V+*%
%TO.N,+3V3*%
X29112500Y12450000D03*
%TO.P,U4,2,D+*%
%TO.N,Net-(Q1-E)*%
X29112500Y11950000D03*
%TO.P,U4,3,D-*%
%TO.N,Net-(Q1-B)*%
X29112500Y11450000D03*
%TO.P,U4,4,~{THERM}*%
%TO.N,/LED_ALERT*%
X29112500Y10950000D03*
D21*
%TO.P,U4,5,A0*%
%TO.N,GND*%
X30000000Y10812500D03*
D20*
%TO.P,U4,6,GND*%
X30887500Y10950000D03*
%TO.P,U4,7,~{ALERT/THERM2}*%
%TO.N,unconnected-(U4-~{ALERT{slash}THERM2}-Pad7)*%
X30887500Y11450000D03*
%TO.P,U4,8,SDA*%
%TO.N,/GPIO14*%
X30887500Y11950000D03*
%TO.P,U4,9,SCL*%
%TO.N,/GPIO15*%
X30887500Y12450000D03*
D21*
%TO.P,U4,10,A1*%
%TO.N,+3V3*%
X30000000Y12587500D03*
%TD*%
D16*
%TO.P,J3,1,Pin_1*%
%TO.N,+3V3*%
X5000000Y55500000D03*
D17*
%TO.P,J3,2,Pin_2*%
%TO.N,/GPIO0*%
X5000000Y52960000D03*
%TO.P,J3,3,Pin_3*%
%TO.N,/GPIO1*%
X5000000Y50420000D03*
%TO.P,J3,4,Pin_4*%
%TO.N,/GPIO2*%
X5000000Y47880000D03*
%TO.P,J3,5,Pin_5*%
%TO.N,/GPIO3*%
X5000000Y45340000D03*
%TO.P,J3,6,Pin_6*%
%TO.N,/GPIO4*%
X5000000Y42800000D03*
%TO.P,J3,7,Pin_7*%
%TO.N,/GPIO5*%
X5000000Y40260000D03*
%TO.P,J3,8,Pin_8*%
%TO.N,/GPIO6*%
X5000000Y37720000D03*
%TO.P,J3,9,Pin_9*%
%TO.N,/GPIO7*%
X5000000Y35180000D03*
%TO.P,J3,10,Pin_10*%
%TO.N,/GPIO8*%
X5000000Y32640000D03*
%TO.P,J3,11,Pin_11*%
%TO.N,/GPIO9*%
X5000000Y30100000D03*
%TO.P,J3,12,Pin_12*%
%TO.N,/GPIO10*%
X5000000Y27560000D03*
%TO.P,J3,13,Pin_13*%
%TO.N,/GPIO11*%
X5000000Y25020000D03*
%TO.P,J3,14,Pin_14*%
%TO.N,/GPIO12*%
X5000000Y22480000D03*
%TO.P,J3,15,Pin_15*%
%TO.N,/GPIO13*%
X5000000Y19940000D03*
%TO.P,J3,16,Pin_16*%
%TO.N,/GPIO14*%
X5000000Y17400000D03*
%TO.P,J3,17,Pin_17*%
%TO.N,/GPIO15*%
X5000000Y14860000D03*
%TO.P,J3,18,Pin_18*%
%TO.N,GND*%
X5000000Y12320000D03*
%TD*%
D22*
%TO.P,J1,1,VBUS*%
%TO.N,VBUS*%
X31325000Y62235000D03*
%TO.P,J1,2,D-*%
%TO.N,/USB_D-*%
X30675000Y62235000D03*
%TO.P,J1,3,D+*%
%TO.N,/USB_D+*%
X30025000Y62235000D03*
%TO.P,J1,4,ID*%
%TO.N,unconnected-(J1-ID-Pad4)*%
X29375000Y62235000D03*
%TO.P,J1,5,GND*%
%TO.N,GND*%
X28725000Y62235000D03*
D23*
%TO.P,J1,6,Shield*%
X32975000Y63435000D03*
D24*
X32875000Y62135000D03*
D25*
X32755000Y64185000D03*
D26*
X32755000Y65115000D03*
D27*
X32445000Y62115000D03*
D28*
X30985000Y65385000D03*
X29065000Y65385000D03*
D27*
X27605000Y62115000D03*
D26*
X27295000Y65115000D03*
D25*
X27275000Y64185000D03*
D24*
X27125000Y62115000D03*
D23*
X27025000Y63435000D03*
%TD*%
D29*
%TO.P,D1,1,K*%
%TO.N,/LED_ALERT*%
X30950000Y4100000D03*
D30*
%TO.P,D1,2,A*%
%TO.N,Net-(D1-A)*%
X33490000Y4100000D03*
%TD*%
D11*
%TO.P,R2,1*%
%TO.N,/USB_D-*%
X31800000Y41447500D03*
%TO.P,R2,2*%
%TO.N,Net-(U1-USB_DM)*%
X31800000Y40427500D03*
%TD*%
D13*
%TO.P,C13,1*%
%TO.N,+3V3*%
X24042500Y32725000D03*
%TO.P,C13,2*%
%TO.N,GND*%
X23082500Y32725000D03*
%TD*%
D11*
%TO.P,R1,1*%
%TO.N,/USB_D+*%
X30800000Y41447500D03*
%TO.P,R1,2*%
%TO.N,Net-(U1-USB_DP)*%
X30800000Y40427500D03*
%TD*%
D31*
%TO.P,Y1,1,1*%
%TO.N,/XIN*%
X28900000Y20850000D03*
%TO.P,Y1,2,2*%
%TO.N,GND*%
X31100000Y20850000D03*
%TO.P,Y1,3,3*%
%TO.N,Net-(C14-Pad1)*%
X31100000Y22550000D03*
%TO.P,Y1,4,4*%
%TO.N,GND*%
X28900000Y22550000D03*
%TD*%
D12*
%TO.P,C9,1*%
%TO.N,+3V3*%
X30400000Y27542500D03*
%TO.P,C9,2*%
%TO.N,GND*%
X30400000Y26582500D03*
%TD*%
D10*
%TO.P,C12,1*%
%TO.N,+3V3*%
X36005000Y32825000D03*
%TO.P,C12,2*%
%TO.N,GND*%
X36965000Y32825000D03*
%TD*%
D32*
%TO.P,R8,1*%
%TO.N,/GPIO15*%
X33887500Y13940000D03*
%TO.P,R8,2*%
%TO.N,+3V3*%
X33887500Y14960000D03*
%TD*%
D15*
%TO.P,C1,1*%
%TO.N,VBUS*%
X37550000Y61000000D03*
%TO.P,C1,2*%
%TO.N,GND*%
X39450000Y61000000D03*
%TD*%
D33*
%TO.P,U2,1,GND*%
%TO.N,GND*%
X40800000Y56650000D03*
%TO.P,U2,2,VO*%
%TO.N,+3V3*%
X38500000Y56650000D03*
D34*
X38500000Y50350000D03*
D33*
%TO.P,U2,3,VI*%
%TO.N,VBUS*%
X36200000Y56650000D03*
%TD*%
D14*
%TO.P,C6,1*%
%TO.N,+3V3*%
X33800000Y40457500D03*
%TO.P,C6,2*%
%TO.N,GND*%
X33800000Y41417500D03*
%TD*%
D35*
%TO.P,Q1,1,E*%
%TO.N,Net-(Q1-E)*%
X16200000Y6370000D03*
D36*
%TO.P,Q1,2,B*%
%TO.N,Net-(Q1-B)*%
X17470000Y6370000D03*
%TO.P,Q1,3,C*%
%TO.N,GND*%
X18740000Y6370000D03*
%TD*%
D37*
%TO.P,U1,1,IOVDD*%
%TO.N,+3V3*%
X26562500Y36600000D03*
%TO.P,U1,2,GPIO0*%
%TO.N,/GPIO0*%
X26562500Y36200000D03*
%TO.P,U1,3,GPIO1*%
%TO.N,/GPIO1*%
X26562500Y35800000D03*
%TO.P,U1,4,GPIO2*%
%TO.N,/GPIO2*%
X26562500Y35400000D03*
%TO.P,U1,5,GPIO3*%
%TO.N,/GPIO3*%
X26562500Y35000000D03*
%TO.P,U1,6,GPIO4*%
%TO.N,/GPIO4*%
X26562500Y34600000D03*
%TO.P,U1,7,GPIO5*%
%TO.N,/GPIO5*%
X26562500Y34200000D03*
%TO.P,U1,8,GPIO6*%
%TO.N,/GPIO6*%
X26562500Y33800000D03*
%TO.P,U1,9,GPIO7*%
%TO.N,/GPIO7*%
X26562500Y33400000D03*
%TO.P,U1,10,IOVDD*%
%TO.N,+3V3*%
X26562500Y33000000D03*
%TO.P,U1,11,GPIO8*%
%TO.N,/GPIO8*%
X26562500Y32600000D03*
%TO.P,U1,12,GPIO9*%
%TO.N,/GPIO9*%
X26562500Y32200000D03*
%TO.P,U1,13,GPIO10*%
%TO.N,/GPIO10*%
X26562500Y31800000D03*
%TO.P,U1,14,GPIO11*%
%TO.N,/GPIO11*%
X26562500Y31400000D03*
D38*
%TO.P,U1,15,GPIO12*%
%TO.N,/GPIO12*%
X27400000Y30562500D03*
%TO.P,U1,16,GPIO13*%
%TO.N,/GPIO13*%
X27800000Y30562500D03*
%TO.P,U1,17,GPIO14*%
%TO.N,/GPIO14*%
X28200000Y30562500D03*
%TO.P,U1,18,GPIO15*%
%TO.N,/GPIO15*%
X28600000Y30562500D03*
%TO.P,U1,19,TESTEN*%
%TO.N,GND*%
X29000000Y30562500D03*
%TO.P,U1,20,XIN*%
%TO.N,/XIN*%
X29400000Y30562500D03*
%TO.P,U1,21,XOUT*%
%TO.N,/XOUT*%
X29800000Y30562500D03*
%TO.P,U1,22,IOVDD*%
%TO.N,+3V3*%
X30200000Y30562500D03*
%TO.P,U1,23,DVDD*%
%TO.N,+1V1*%
X30600000Y30562500D03*
%TO.P,U1,24,SWCLK*%
%TO.N,/SWCLK*%
X31000000Y30562500D03*
%TO.P,U1,25,SWD*%
%TO.N,/SWD*%
X31400000Y30562500D03*
%TO.P,U1,26,RUN*%
%TO.N,/RUN*%
X31800000Y30562500D03*
%TO.P,U1,27,GPIO16*%
%TO.N,/GPIO16*%
X32200000Y30562500D03*
%TO.P,U1,28,GPIO17*%
%TO.N,/GPIO17*%
X32600000Y30562500D03*
D37*
%TO.P,U1,29,GPIO18*%
%TO.N,/GPIO18*%
X33437500Y31400000D03*
%TO.P,U1,30,GPIO19*%
%TO.N,/GPIO19*%
X33437500Y31800000D03*
%TO.P,U1,31,GPIO20*%
%TO.N,/GPIO20*%
X33437500Y32200000D03*
%TO.P,U1,32,GPIO21*%
%TO.N,/GPIO21*%
X33437500Y32600000D03*
%TO.P,U1,33,IOVDD*%
%TO.N,+3V3*%
X33437500Y33000000D03*
%TO.P,U1,34,GPIO22*%
%TO.N,/GPIO22*%
X33437500Y33400000D03*
%TO.P,U1,35,GPIO23*%
%TO.N,/GPIO23*%
X33437500Y33800000D03*
%TO.P,U1,36,GPIO24*%
%TO.N,/GPIO24*%
X33437500Y34200000D03*
%TO.P,U1,37,GPIO25*%
%TO.N,/GPIO25*%
X33437500Y34600000D03*
%TO.P,U1,38,GPIO26_ADC0*%
%TO.N,/GPIO_ADC0*%
X33437500Y35000000D03*
%TO.P,U1,39,GPIO27_ADC1*%
%TO.N,/GPIO_ADC1*%
X33437500Y35400000D03*
%TO.P,U1,40,GPIO28_ADC2*%
%TO.N,/GPIO_ADC2*%
X33437500Y35800000D03*
%TO.P,U1,41,GPIO29_ADC3*%
%TO.N,/GPIO_ADC3*%
X33437500Y36200000D03*
%TO.P,U1,42,IOVDD*%
%TO.N,+3V3*%
X33437500Y36600000D03*
D38*
%TO.P,U1,43,ADC_AVDD*%
X32600000Y37437500D03*
%TO.P,U1,44,VREG_IN*%
X32200000Y37437500D03*
%TO.P,U1,45,VREG_VOUT*%
%TO.N,+1V1*%
X31800000Y37437500D03*
%TO.P,U1,46,USB_DM*%
%TO.N,Net-(U1-USB_DM)*%
X31400000Y37437500D03*
%TO.P,U1,47,USB_DP*%
%TO.N,Net-(U1-USB_DP)*%
X31000000Y37437500D03*
%TO.P,U1,48,USB_VDD*%
%TO.N,+3V3*%
X30600000Y37437500D03*
%TO.P,U1,49,IOVDD*%
X30200000Y37437500D03*
%TO.P,U1,50,DVDD*%
%TO.N,+1V1*%
X29800000Y37437500D03*
%TO.P,U1,51,QSPI_SD3*%
%TO.N,/QSPI_SD3*%
X29400000Y37437500D03*
%TO.P,U1,52,QSPI_SCLK*%
%TO.N,/QSPI_SCLK*%
X29000000Y37437500D03*
%TO.P,U1,53,QSPI_SD0*%
%TO.N,/QSPI_SD0*%
X28600000Y37437500D03*
%TO.P,U1,54,QSPI_SD2*%
%TO.N,/QSPI_SD2*%
X28200000Y37437500D03*
%TO.P,U1,55,QSPI_SD1*%
%TO.N,/QSPI_SD1*%
X27800000Y37437500D03*
%TO.P,U1,56,QSPI_SS*%
%TO.N,/QSPI_SS*%
X27400000Y37437500D03*
D39*
%TO.P,U1,57,GND*%
%TO.N,GND*%
X30000000Y34000000D03*
%TD*%
D11*
%TO.P,R3,1*%
%TO.N,+3V3*%
X17540000Y52870000D03*
%TO.P,R3,2*%
%TO.N,/QSPI_SS*%
X17540000Y51850000D03*
%TD*%
D14*
%TO.P,C7,1*%
%TO.N,+3V3*%
X29800000Y41457500D03*
%TO.P,C7,2*%
%TO.N,GND*%
X29800000Y42417500D03*
%TD*%
%TO.P,C4,1*%
%TO.N,+1V1*%
X28800000Y41457500D03*
%TO.P,C4,2*%
%TO.N,GND*%
X28800000Y42417500D03*
%TD*%
D13*
%TO.P,C18,1*%
%TO.N,+3V3*%
X24880000Y51905000D03*
%TO.P,C18,2*%
%TO.N,GND*%
X23920000Y51905000D03*
%TD*%
D40*
%TO.N,GND*%
X31400000Y25640000D03*
X38090000Y38040000D03*
D41*
X30000000Y35300000D03*
X31290000Y34010000D03*
D40*
X42590000Y46000000D03*
D41*
X28730000Y33990000D03*
D40*
X28730000Y60340000D03*
X22640000Y51910000D03*
X28000000Y27825000D03*
D41*
X28710000Y35300000D03*
D40*
X38090000Y32840000D03*
X19050000Y45080000D03*
D41*
X28810000Y43760000D03*
X28730000Y32740000D03*
D40*
X32740000Y21710000D03*
X30400000Y25630000D03*
X21890000Y32720000D03*
X32500000Y10675000D03*
X33810000Y42680000D03*
X32800000Y42670000D03*
X27170000Y24470000D03*
X32870000Y24490000D03*
D41*
X29800000Y43690000D03*
X31290000Y35290000D03*
D40*
X38110000Y39410000D03*
D41*
X30020000Y34010000D03*
X30025000Y8950000D03*
D40*
X27250000Y21700000D03*
X49890000Y61380000D03*
X41020000Y59430000D03*
X21930000Y37100000D03*
D41*
X28730000Y32740000D03*
X31300000Y32690000D03*
X30020000Y32680000D03*
%TO.N,+3V3*%
X35010000Y64610000D03*
X24860000Y64650000D03*
D40*
%TO.N,+1V1*%
X29800000Y39100000D03*
D42*
X29260000Y36100000D03*
D40*
X30825000Y28800000D03*
D42*
%TO.N,/GPIO14*%
X14310000Y17400000D03*
X37360000Y14920000D03*
%TD*%
D43*
%TO.N,VBUS*%
X31325000Y61410000D02*
X32210000Y60525000D01*
X32210000Y60525000D02*
X32210000Y60380000D01*
X31325000Y62235000D02*
X31325000Y61410000D01*
D44*
%TO.N,GND*%
X30887500Y10950000D02*
X32225000Y10950000D01*
X27200000Y24500000D02*
X27170000Y24470000D01*
X19035000Y45095000D02*
X19050000Y45080000D01*
D43*
X29800000Y42417500D02*
X29800000Y43690000D01*
X30000000Y10812500D02*
X30000000Y8975000D01*
D44*
X23082500Y32725000D02*
X21895000Y32725000D01*
X40800000Y56650000D02*
X40800000Y59210000D01*
X29000000Y29387656D02*
X28000000Y28387656D01*
X29000000Y30562500D02*
X29000000Y29387656D01*
X23082500Y37100000D02*
X21930000Y37100000D01*
D43*
X30985000Y65385000D02*
X32485000Y65385000D01*
D44*
X32225000Y10950000D02*
X32500000Y10675000D01*
D43*
X48370000Y61380000D02*
X49890000Y61380000D01*
D44*
X22645000Y51905000D02*
X22640000Y51910000D01*
D43*
X32485000Y65385000D02*
X32755000Y65115000D01*
X28725000Y60345000D02*
X28730000Y60340000D01*
D44*
X31830000Y24500000D02*
X32860000Y24500000D01*
D43*
X28800000Y43750000D02*
X28810000Y43760000D01*
X33800000Y42670000D02*
X33810000Y42680000D01*
X30000000Y8975000D02*
X30025000Y8950000D01*
X28800000Y42417500D02*
X28800000Y43750000D01*
X40950000Y46000000D02*
X42590000Y46000000D01*
X33800000Y41417500D02*
X33800000Y42670000D01*
X28795000Y65115000D02*
X29065000Y65385000D01*
D44*
X31400000Y26582500D02*
X31400000Y25640000D01*
X32860000Y24500000D02*
X32870000Y24490000D01*
X28270000Y24500000D02*
X27200000Y24500000D01*
X38075000Y38025000D02*
X38090000Y38040000D01*
X36965000Y38025000D02*
X38075000Y38025000D01*
X40800000Y59210000D02*
X41020000Y59430000D01*
X36965000Y39425000D02*
X38095000Y39425000D01*
X17400000Y45095000D02*
X19035000Y45095000D01*
D43*
X28725000Y62235000D02*
X28725000Y60345000D01*
D44*
X38075000Y32825000D02*
X38090000Y32840000D01*
X36965000Y32825000D02*
X38075000Y32825000D01*
X30400000Y26582500D02*
X30400000Y25630000D01*
X32800000Y41417500D02*
X32800000Y42670000D01*
X38095000Y39425000D02*
X38110000Y39410000D01*
X21895000Y32725000D02*
X21890000Y32720000D01*
D43*
X27295000Y65115000D02*
X28795000Y65115000D01*
D44*
X39450000Y61000000D02*
X41020000Y59430000D01*
X28000000Y28387656D02*
X28000000Y27825000D01*
X23920000Y51905000D02*
X22645000Y51905000D01*
%TO.N,+3V3*%
X30600000Y38760000D02*
X30600000Y38540000D01*
X32200000Y37437500D02*
X32200000Y38240000D01*
X36005000Y32825000D02*
X35830000Y33000000D01*
X26562500Y33000000D02*
X27260000Y33000000D01*
X34250000Y36600000D02*
X34480000Y36830000D01*
X33437500Y36600000D02*
X34250000Y36600000D01*
X30600000Y38540000D02*
X30200000Y38140000D01*
X32200000Y38240000D02*
X33480000Y39520000D01*
X25570000Y36600000D02*
X27400000Y36600000D01*
D43*
X39050000Y49800000D02*
X38500000Y50350000D01*
D44*
X24880000Y49185000D02*
X24600000Y48905000D01*
X30200000Y31190000D02*
X30380000Y31370000D01*
X26562500Y36600000D02*
X25570000Y36600000D01*
X30500000Y38970000D02*
X30600000Y38870000D01*
D43*
X39050000Y46000000D02*
X39050000Y49800000D01*
D44*
X24970000Y33000000D02*
X24640000Y32670000D01*
X24880000Y51905000D02*
X24880000Y49185000D01*
X26562500Y33000000D02*
X24970000Y33000000D01*
X33437500Y33000000D02*
X32630000Y33000000D01*
X29800000Y41457500D02*
X29800000Y40170000D01*
D43*
X30000000Y13900000D02*
X30010000Y13910000D01*
D44*
X32860000Y36600000D02*
X33437500Y36600000D01*
D43*
X29112500Y12450000D02*
X27820000Y12450000D01*
D44*
X29800000Y40170000D02*
X30500000Y39470000D01*
X30200000Y30562500D02*
X30200000Y31190000D01*
X30200000Y37437500D02*
X30200000Y38140000D01*
X30400000Y27542500D02*
X30200000Y27742500D01*
D43*
X30000000Y13125000D02*
X30000000Y13900000D01*
D44*
X35830000Y33000000D02*
X33437500Y33000000D01*
X24640000Y32670000D02*
X24585000Y32725000D01*
X30600000Y38870000D02*
X30600000Y38760000D01*
X30500000Y39470000D02*
X30500000Y38970000D01*
X30200000Y37437500D02*
X30200000Y36610000D01*
X24585000Y32725000D02*
X24042500Y32725000D01*
X30000000Y12587500D02*
X30000000Y13125000D01*
X30600000Y38540000D02*
X30600000Y37437500D01*
X30200000Y27742500D02*
X30200000Y30562500D01*
%TO.N,+1V1*%
X29800000Y39100000D02*
X29800000Y37437500D01*
X28800000Y41457500D02*
X28800000Y40180000D01*
X32800000Y40457500D02*
X31800000Y39457500D01*
X31800000Y36750000D02*
X31150000Y36100000D01*
X30600000Y29025000D02*
X30600000Y30562500D01*
X31400000Y28225000D02*
X31400000Y27542500D01*
X31800000Y37437500D02*
X31800000Y36750000D01*
X29800000Y39180000D02*
X29800000Y39100000D01*
X30825000Y28800000D02*
X30600000Y29025000D01*
X30825000Y28800000D02*
X31400000Y28225000D01*
X28800000Y40180000D02*
X29800000Y39180000D01*
X31150000Y36100000D02*
X29260000Y36100000D01*
X31800000Y39457500D02*
X31800000Y37437500D01*
%TO.N,Net-(C14-Pad1)*%
X30674400Y24500000D02*
X30870000Y24500000D01*
X29400000Y26552500D02*
X29400000Y25774400D01*
X30870000Y24500000D02*
X30870000Y22780000D01*
X30870000Y22780000D02*
X31100000Y22550000D01*
X29400000Y25774400D02*
X30674400Y24500000D01*
%TO.N,/XIN*%
X30020000Y23710000D02*
X30020000Y21270000D01*
X28620000Y28445000D02*
X28620000Y25950000D01*
X29063000Y28895448D02*
X29063000Y28888000D01*
X29400000Y30562500D02*
X29400000Y29232448D01*
X30020000Y21270000D02*
X29600000Y20850000D01*
X29230000Y25340000D02*
X29230000Y24500000D01*
X29230000Y24500000D02*
X30020000Y23710000D01*
X29600000Y20850000D02*
X28900000Y20850000D01*
X29063000Y28888000D02*
X28620000Y28445000D01*
X28620000Y25950000D02*
X29230000Y25340000D01*
X29400000Y29232448D02*
X29063000Y28895448D01*
%TO.N,/USB_D-*%
X30952000Y60458000D02*
X30675000Y60735000D01*
D45*
X31800000Y50860000D02*
X30952000Y51708000D01*
X30952000Y51708000D02*
X30952000Y60458000D01*
X30952000Y60458000D02*
X30950000Y60460000D01*
X31800000Y41447500D02*
X31800000Y50860000D01*
D44*
X30675000Y60735000D02*
X30675000Y62235000D01*
D45*
%TO.N,/USB_D+*%
X30020000Y60380000D02*
X30020000Y50730000D01*
D44*
X30025000Y62235000D02*
X30025000Y60655000D01*
X30025000Y60655000D02*
X30020000Y60650000D01*
X30020000Y60650000D02*
X30020000Y60380000D01*
D45*
X30800000Y49950000D02*
X30800000Y41447500D01*
X30020000Y50730000D02*
X30800000Y49950000D01*
D44*
%TO.N,Net-(J2-Pin_1)*%
X15540000Y60740000D02*
X14410000Y61870000D01*
X15540000Y52870000D02*
X15540000Y60740000D01*
%TO.N,/GPIO0*%
X26562500Y36200000D02*
X19997552Y36200000D01*
X12390000Y43807552D02*
X12390000Y45570000D01*
X19997552Y36200000D02*
X12390000Y43807552D01*
X12390000Y45570000D02*
X5000000Y52960000D01*
%TO.N,/GPIO1*%
X19620000Y35800000D02*
X5000000Y50420000D01*
X26562500Y35800000D02*
X19620000Y35800000D01*
%TO.N,/GPIO2*%
X17480000Y35400000D02*
X5000000Y47880000D01*
X26562500Y35400000D02*
X17480000Y35400000D01*
%TO.N,/GPIO3*%
X26562500Y35000000D02*
X15340000Y35000000D01*
X15340000Y35000000D02*
X5000000Y45340000D01*
%TO.N,/GPIO4*%
X26562500Y34600000D02*
X13200000Y34600000D01*
X13200000Y34600000D02*
X5000000Y42800000D01*
%TO.N,/GPIO5*%
X26562500Y34200000D02*
X11060000Y34200000D01*
X11060000Y34200000D02*
X5000000Y40260000D01*
%TO.N,/GPIO6*%
X8920000Y33800000D02*
X5000000Y37720000D01*
X26562500Y33800000D02*
X8920000Y33800000D01*
%TO.N,/GPIO7*%
X6780000Y33400000D02*
X5000000Y35180000D01*
X26562500Y33400000D02*
X6780000Y33400000D01*
%TO.N,/GPIO8*%
X5598568Y32041432D02*
X5000000Y32640000D01*
X25550000Y32600000D02*
X24991432Y32041432D01*
X26562500Y32600000D02*
X25550000Y32600000D01*
X24991432Y32041432D02*
X5598568Y32041432D01*
%TO.N,/GPIO9*%
X23512448Y30100000D02*
X5000000Y30100000D01*
X26562500Y32200000D02*
X25612448Y32200000D01*
X25612448Y32200000D02*
X23512448Y30100000D01*
%TO.N,/GPIO10*%
X26562500Y31800000D02*
X25674896Y31800000D01*
X25674896Y31800000D02*
X21434896Y27560000D01*
X21434896Y27560000D02*
X5000000Y27560000D01*
%TO.N,/GPIO11*%
X26175000Y31400000D02*
X19795000Y25020000D01*
X26562500Y31400000D02*
X26175000Y31400000D01*
X19795000Y25020000D02*
X5000000Y25020000D01*
%TO.N,/GPIO12*%
X27400000Y30562500D02*
X19317500Y22480000D01*
X19317500Y22480000D02*
X5000000Y22480000D01*
%TO.N,/GPIO13*%
X27800000Y29675000D02*
X27750000Y29675000D01*
X27750000Y29675000D02*
X18015000Y19940000D01*
X18015000Y19940000D02*
X5000000Y19940000D01*
X27800000Y30562500D02*
X27800000Y29675000D01*
%TO.N,/GPIO14*%
X37345000Y11950000D02*
X39275000Y10020000D01*
X37360000Y14920000D02*
X37360000Y11965000D01*
X30887500Y11950000D02*
X37345000Y11950000D01*
X37360000Y11965000D02*
X37345000Y11950000D01*
X28200000Y29512552D02*
X16087448Y17400000D01*
X16087448Y17400000D02*
X5000000Y17400000D01*
X28200000Y30562500D02*
X28200000Y29512552D01*
%TO.N,/GPIO15*%
X33128750Y13181250D02*
X32708750Y13181250D01*
X16930000Y16280000D02*
X16189948Y17020052D01*
X32708750Y13181250D02*
X29610000Y16280000D01*
X14009896Y14860000D02*
X5000000Y14860000D01*
X29610000Y16280000D02*
X16930000Y16280000D01*
X28600000Y29450104D02*
X16189948Y17040052D01*
X32397500Y12450000D02*
X33128750Y13181250D01*
X16189948Y17020052D02*
X16189948Y17040052D01*
X30887500Y12450000D02*
X32397500Y12450000D01*
X16189948Y17040052D02*
X14009896Y14860000D01*
X28600000Y30562500D02*
X28600000Y29450104D01*
X33128750Y13181250D02*
X33887500Y13940000D01*
%TO.N,/GPIO_ADC3*%
X44425000Y44215000D02*
X48330000Y48120000D01*
X54360000Y55500000D02*
X55000000Y55500000D01*
X42925000Y36200000D02*
X44425000Y37700000D01*
X48330000Y48120000D02*
X48330000Y49470000D01*
X48330000Y49470000D02*
X54360000Y55500000D01*
X33437500Y36200000D02*
X42925000Y36200000D01*
X44425000Y37700000D02*
X44425000Y44215000D01*
%TO.N,/GPIO_ADC2*%
X33437500Y35800000D02*
X43375000Y35800000D01*
X43375000Y35800000D02*
X44925000Y37350000D01*
X44925000Y37350000D02*
X44925000Y42885000D01*
X44925000Y42885000D02*
X55000000Y52960000D01*
%TO.N,/GPIO_ADC1*%
X45375000Y40795000D02*
X55000000Y50420000D01*
X45375000Y36925000D02*
X45375000Y40795000D01*
X33437500Y35400000D02*
X43850000Y35400000D01*
X43850000Y35400000D02*
X45375000Y36925000D01*
%TO.N,/GPIO_ADC0*%
X45850000Y36200000D02*
X45850000Y40250000D01*
X53480000Y47880000D02*
X55000000Y47880000D01*
X44650000Y35000000D02*
X45850000Y36200000D01*
X33437500Y35000000D02*
X44650000Y35000000D01*
X45850000Y40250000D02*
X53480000Y47880000D01*
%TO.N,/GPIO25*%
X45325000Y34600000D02*
X46500000Y35775000D01*
X46500000Y35775000D02*
X46500000Y39475000D01*
X46500000Y39475000D02*
X52365000Y45340000D01*
X52365000Y45340000D02*
X55000000Y45340000D01*
X33437500Y34600000D02*
X45325000Y34600000D01*
%TO.N,/GPIO24*%
X46400000Y34200000D02*
X55000000Y42800000D01*
X33437500Y34200000D02*
X46400000Y34200000D01*
%TO.N,/GPIO23*%
X33437500Y33800000D02*
X48540000Y33800000D01*
X48540000Y33800000D02*
X55000000Y40260000D01*
%TO.N,/GPIO22*%
X35692744Y33445000D02*
X48905000Y33445000D01*
X53180000Y37720000D02*
X55000000Y37720000D01*
X33437500Y33400000D02*
X35647744Y33400000D01*
X35647744Y33400000D02*
X35692744Y33445000D01*
X48905000Y33445000D02*
X53180000Y37720000D01*
%TO.N,/GPIO21*%
X33437500Y32600000D02*
X34600000Y32600000D01*
X50845000Y31025000D02*
X55000000Y35180000D01*
X36175000Y31025000D02*
X50845000Y31025000D01*
X34600000Y32600000D02*
X36175000Y31025000D01*
%TO.N,/GPIO20*%
X34450000Y32200000D02*
X35975000Y30675000D01*
X53035000Y30675000D02*
X55000000Y32640000D01*
X35975000Y30675000D02*
X53035000Y30675000D01*
X33437500Y32200000D02*
X34450000Y32200000D01*
%TO.N,/GPIO19*%
X34350000Y31800000D02*
X36050000Y30100000D01*
X33437500Y31800000D02*
X34350000Y31800000D01*
X36050000Y30100000D02*
X55000000Y30100000D01*
%TO.N,/GPIO18*%
X33437500Y31400000D02*
X34050000Y31400000D01*
X37890000Y27560000D02*
X55000000Y27560000D01*
X34050000Y31400000D02*
X37890000Y27560000D01*
%TO.N,/GPIO17*%
X38142500Y25020000D02*
X55000000Y25020000D01*
X32600000Y30562500D02*
X38142500Y25020000D01*
%TO.N,/GPIO16*%
X32200000Y30562500D02*
X32200000Y30030026D01*
X32200000Y30030026D02*
X39750026Y22480000D01*
X39750026Y22480000D02*
X55000000Y22480000D01*
%TO.N,/RUN*%
X41722448Y19940000D02*
X41362448Y20300000D01*
X41350000Y20300000D02*
X31800000Y29850000D01*
X31800000Y30030026D02*
X31800000Y30562500D01*
X41362448Y20300000D02*
X41350000Y20300000D01*
X55000000Y19940000D02*
X41722448Y19940000D01*
X31800000Y29850000D02*
X31800000Y30030026D01*
%TO.N,/SWD*%
X43712448Y17400000D02*
X55000000Y17400000D01*
X31400000Y30562500D02*
X31400000Y29712448D01*
X31400000Y29712448D02*
X43712448Y17400000D01*
%TO.N,/SWCLK*%
X55000000Y14860000D02*
X45790000Y14860000D01*
X45790000Y14860000D02*
X31000000Y29650000D01*
X31000000Y29650000D02*
X31000000Y30562500D01*
%TO.N,Net-(U1-USB_DP)*%
X31000000Y40227500D02*
X31000000Y37437500D01*
X30800000Y40427500D02*
X31000000Y40227500D01*
%TO.N,Net-(U1-USB_DM)*%
X31800000Y40427500D02*
X31400000Y40027500D01*
X31400000Y40027500D02*
X31400000Y37437500D01*
%TO.N,/QSPI_SS*%
X15695000Y48905000D02*
X17400000Y48905000D01*
X17540000Y49045000D02*
X17400000Y48905000D01*
X27400000Y37437500D02*
X23167500Y41670000D01*
X13460000Y43970000D02*
X13460000Y46670000D01*
X15760000Y41670000D02*
X13460000Y43970000D01*
X17540000Y51850000D02*
X15540000Y51850000D01*
X17540000Y51850000D02*
X17540000Y49045000D01*
X23167500Y41670000D02*
X15760000Y41670000D01*
X13460000Y46670000D02*
X15695000Y48905000D01*
%TO.N,/XOUT*%
X29800000Y30562500D02*
X29800000Y29170000D01*
X29400000Y28750000D02*
X29400000Y27572500D01*
X29800000Y29170000D02*
X29390000Y28760000D01*
X29390000Y28760000D02*
X29400000Y28750000D01*
%TO.N,/QSPI_SD3*%
X29400000Y37437500D02*
X29400000Y38644400D01*
X29400000Y38644400D02*
X27590000Y40454400D01*
X27590000Y46010000D02*
X25965000Y47635000D01*
X27590000Y40454400D02*
X27590000Y46010000D01*
X25965000Y47635000D02*
X24600000Y47635000D01*
%TO.N,/QSPI_SCLK*%
X25615000Y46365000D02*
X24600000Y46365000D01*
X26770000Y45210000D02*
X25615000Y46365000D01*
X26770000Y40680000D02*
X26770000Y45210000D01*
X29000000Y37437500D02*
X29000000Y38450000D01*
X29000000Y38450000D02*
X26770000Y40680000D01*
%TO.N,/QSPI_SD0*%
X26070000Y40800000D02*
X26070000Y43625000D01*
X26070000Y43625000D02*
X24600000Y45095000D01*
X28600000Y37437500D02*
X28600000Y38270000D01*
X28600000Y38270000D02*
X26070000Y40800000D01*
%TO.N,/QSPI_SD2*%
X20015000Y46365000D02*
X17400000Y46365000D01*
X28200000Y37437500D02*
X28200000Y38180000D01*
X28200000Y38180000D02*
X20015000Y46365000D01*
%TO.N,/QSPI_SD1*%
X14300000Y46190000D02*
X15745000Y47635000D01*
X27800000Y37437500D02*
X27800000Y37969974D01*
X23509974Y42260000D02*
X16390000Y42260000D01*
X15745000Y47635000D02*
X17400000Y47635000D01*
X27800000Y37969974D02*
X23509974Y42260000D01*
X16390000Y42260000D02*
X14300000Y44350000D01*
X14300000Y44350000D02*
X14300000Y46190000D01*
%TO.N,Net-(Q1-E)*%
X24375000Y11950000D02*
X23895000Y12430000D01*
X23895000Y12430000D02*
X22112500Y12430000D01*
X29112500Y11950000D02*
X24375000Y11950000D01*
X16200000Y6517500D02*
X22112500Y12430000D01*
X16200000Y6370000D02*
X16200000Y6517500D01*
%TO.N,Net-(Q1-B)*%
X17470000Y6827500D02*
X22112500Y11470000D01*
X22132500Y11450000D02*
X22112500Y11470000D01*
X17470000Y6370000D02*
X17470000Y6827500D01*
X29112500Y11450000D02*
X22132500Y11450000D01*
D43*
%TO.N,/LED_ALERT*%
X29112500Y10950000D02*
X27620000Y10950000D01*
X27620000Y10950000D02*
X26070000Y9400000D01*
X27620000Y10950000D02*
X27620000Y7430000D01*
X27620000Y7430000D02*
X30950000Y4100000D01*
%TO.N,Net-(D1-A)*%
X38127500Y4080000D02*
X33510000Y4080000D01*
X33510000Y4080000D02*
X33490000Y4100000D01*
%TD*%
%TA.AperFunction,Conductor*%
%TO.N,VBUS*%
G36*
X36952184Y62350315D02*
G01*
X36997939Y62297511D01*
X37007883Y62228353D01*
X36978858Y62164797D01*
X36950242Y62140461D01*
X36831654Y62067316D01*
X36707684Y61943346D01*
X36615643Y61794125D01*
X36615641Y61794120D01*
X36560494Y61627698D01*
X36560493Y61627691D01*
X36550000Y61524987D01*
X36550000Y61250000D01*
X37676000Y61250000D01*
X37743039Y61230315D01*
X37788794Y61177511D01*
X37800000Y61126000D01*
X37800000Y59775001D01*
X37849972Y59775001D01*
X37849986Y59775002D01*
X37952697Y59785495D01*
X38119119Y59840642D01*
X38119124Y59840644D01*
X38268345Y59932685D01*
X38392318Y60056658D01*
X38394165Y60059652D01*
X38395969Y60061276D01*
X38396798Y60062323D01*
X38396976Y60062182D01*
X38446110Y60106379D01*
X38515073Y60117604D01*
X38579156Y60089764D01*
X38605243Y60059659D01*
X38607288Y60056344D01*
X38607289Y60056343D01*
X38713681Y59949951D01*
X38747166Y59888628D01*
X38750000Y59862270D01*
X38750000Y59181324D01*
X38730315Y59114285D01*
X38677511Y59068530D01*
X38623938Y59057341D01*
X37850207Y59070207D01*
X36660000Y59090000D01*
X36660000Y58274000D01*
X36640315Y58206961D01*
X36587511Y58161206D01*
X36536000Y58150000D01*
X36450000Y58150000D01*
X36450000Y55150000D01*
X36536000Y55150000D01*
X36603039Y55130315D01*
X36648794Y55077511D01*
X36660000Y55026000D01*
X36660000Y54204000D01*
X36640315Y54136961D01*
X36587511Y54091206D01*
X36536000Y54080000D01*
X32104000Y54080000D01*
X32036961Y54099685D01*
X31991206Y54152489D01*
X31980000Y54204000D01*
X31980000Y56400000D01*
X34950000Y56400000D01*
X34950000Y55602156D01*
X34956401Y55542628D01*
X34956403Y55542621D01*
X35006645Y55407914D01*
X35006649Y55407907D01*
X35092809Y55292813D01*
X35092812Y55292810D01*
X35207906Y55206650D01*
X35207913Y55206646D01*
X35342620Y55156404D01*
X35342627Y55156402D01*
X35402155Y55150001D01*
X35402172Y55150000D01*
X35950000Y55150000D01*
X35950000Y56400000D01*
X34950000Y56400000D01*
X31980000Y56400000D01*
X31980000Y56900000D01*
X34950000Y56900000D01*
X35950000Y56900000D01*
X35950000Y58150000D01*
X35402155Y58150000D01*
X35342627Y58143599D01*
X35342620Y58143597D01*
X35207913Y58093355D01*
X35207906Y58093351D01*
X35092812Y58007191D01*
X35092809Y58007188D01*
X35006649Y57892094D01*
X35006645Y57892087D01*
X34956403Y57757380D01*
X34956401Y57757373D01*
X34950000Y57697845D01*
X34950000Y56900000D01*
X31980000Y56900000D01*
X31980000Y60516000D01*
X31999685Y60583039D01*
X32052489Y60628794D01*
X32104000Y60640000D01*
X34340000Y60640000D01*
X34360000Y60660000D01*
X34360000Y60750000D01*
X36550001Y60750000D01*
X36550001Y60475014D01*
X36560494Y60372303D01*
X36615641Y60205881D01*
X36615643Y60205876D01*
X36707684Y60056655D01*
X36831654Y59932685D01*
X36980875Y59840644D01*
X36980880Y59840642D01*
X37147302Y59785495D01*
X37147309Y59785494D01*
X37250019Y59775001D01*
X37299999Y59775002D01*
X37300000Y59775002D01*
X37300000Y60750000D01*
X36550001Y60750000D01*
X34360000Y60750000D01*
X34360000Y61230770D01*
X34367819Y61274105D01*
X34369089Y61277512D01*
X34369091Y61277517D01*
X34375500Y61337127D01*
X34375499Y62244139D01*
X34395183Y62311176D01*
X34411836Y62331837D01*
X34413705Y62333705D01*
X34475037Y62367173D01*
X34501363Y62370000D01*
X36885145Y62370000D01*
X36952184Y62350315D01*
G37*
%TD.AperFunction*%
%TD*%
%TA.AperFunction,Conductor*%
%TO.N,GND*%
G36*
X28278691Y26791093D02*
G01*
X28314655Y26741593D01*
X28319500Y26711000D01*
X28319500Y26015165D01*
X28317280Y26001487D01*
X28318494Y26001317D01*
X28317226Y25992234D01*
X28319447Y25944217D01*
X28319500Y25941931D01*
X28319500Y25922158D01*
X28320152Y25918668D01*
X28320943Y25911851D01*
X28322414Y25880013D01*
X28322415Y25880006D01*
X28326384Y25871018D01*
X28333133Y25849227D01*
X28334939Y25839567D01*
X28351717Y25812467D01*
X28354915Y25806400D01*
X28367793Y25777237D01*
X28367794Y25777235D01*
X28374745Y25770284D01*
X28388907Y25752404D01*
X28394081Y25744048D01*
X28419511Y25724844D01*
X28424690Y25720338D01*
X28900504Y25244525D01*
X28928281Y25190008D01*
X28929500Y25174521D01*
X28929500Y25031240D01*
X28910593Y24973049D01*
X28897231Y24959917D01*
X28897804Y24959344D01*
X28890255Y24951796D01*
X28887588Y24950438D01*
X28887303Y24950157D01*
X28884608Y24948269D01*
X28884272Y24948749D01*
X28835737Y24924022D01*
X28775305Y24933597D01*
X28740601Y24963016D01*
X28724644Y24984637D01*
X28724639Y24984642D01*
X28617920Y25063406D01*
X28492727Y25107213D01*
X28463000Y25110000D01*
X28420001Y25110000D01*
X28420000Y25109999D01*
X28420000Y23890002D01*
X28420001Y23890001D01*
X28463004Y23890001D01*
X28492721Y23892787D01*
X28492726Y23892788D01*
X28617920Y23936595D01*
X28724639Y24015359D01*
X28724642Y24015362D01*
X28740600Y24036984D01*
X28790367Y24072577D01*
X28851550Y24072121D01*
X28884570Y24051717D01*
X28884589Y24051744D01*
X28885059Y24051415D01*
X28890257Y24048203D01*
X28891684Y24046776D01*
X29000513Y23996028D01*
X29050099Y23989500D01*
X29274520Y23989501D01*
X29332710Y23970594D01*
X29344524Y23960505D01*
X29686025Y23619004D01*
X29713802Y23564487D01*
X29704231Y23504055D01*
X29660966Y23460790D01*
X29616021Y23450000D01*
X29050001Y23450000D01*
X29050000Y23449999D01*
X29050000Y22499000D01*
X29031093Y22440809D01*
X28981593Y22404845D01*
X28951000Y22400000D01*
X27900002Y22400000D01*
X27900001Y22399999D01*
X27900001Y21905209D01*
X27902909Y21880126D01*
X27948213Y21777523D01*
X28028333Y21697403D01*
X28056110Y21642886D01*
X28046539Y21582454D01*
X28040644Y21572397D01*
X28011134Y21528234D01*
X28011132Y21528228D01*
X27999501Y21469759D01*
X27999500Y21469747D01*
X27999500Y20230254D01*
X27999501Y20230242D01*
X28011132Y20171773D01*
X28011133Y20171769D01*
X28055448Y20105448D01*
X28121769Y20061133D01*
X28166231Y20052289D01*
X28180241Y20049502D01*
X28180246Y20049502D01*
X28180252Y20049500D01*
X28180253Y20049500D01*
X29619747Y20049500D01*
X29619748Y20049500D01*
X29678231Y20061133D01*
X29744552Y20105448D01*
X29788867Y20171769D01*
X29800500Y20230252D01*
X29800500Y20583682D01*
X29819407Y20641873D01*
X29820428Y20643253D01*
X29825168Y20649530D01*
X29829658Y20654689D01*
X29931000Y20756031D01*
X29985513Y20783805D01*
X30045945Y20774234D01*
X30089210Y20730969D01*
X30100000Y20686024D01*
X30100000Y20205211D01*
X30100001Y20205208D01*
X30102909Y20180126D01*
X30148213Y20077523D01*
X30227522Y19998214D01*
X30330127Y19952910D01*
X30355203Y19950001D01*
X30949998Y19950001D01*
X30950000Y19950002D01*
X31250000Y19950002D01*
X31250001Y19950001D01*
X31844790Y19950001D01*
X31844791Y19950002D01*
X31869874Y19952910D01*
X31972477Y19998214D01*
X32051786Y20077523D01*
X32097090Y20180128D01*
X32099999Y20205203D01*
X32100000Y20205205D01*
X32100000Y20699999D01*
X32099999Y20700000D01*
X31250001Y20700000D01*
X31250000Y20699999D01*
X31250000Y19950002D01*
X30950000Y19950002D01*
X30950000Y20901000D01*
X30968907Y20959191D01*
X31018407Y20995155D01*
X31049000Y21000000D01*
X32099998Y21000000D01*
X32099999Y21000001D01*
X32099999Y21494790D01*
X32099998Y21494792D01*
X32097090Y21519875D01*
X32051786Y21622478D01*
X31971666Y21702598D01*
X31943889Y21757115D01*
X31953460Y21817547D01*
X31959343Y21827585D01*
X31988867Y21871769D01*
X32000500Y21930252D01*
X32000500Y23169748D01*
X31988867Y23228231D01*
X31944552Y23294552D01*
X31944548Y23294555D01*
X31878233Y23338866D01*
X31878231Y23338867D01*
X31878228Y23338868D01*
X31878227Y23338868D01*
X31819758Y23350499D01*
X31819748Y23350500D01*
X31819747Y23350500D01*
X31269500Y23350500D01*
X31211309Y23369407D01*
X31175345Y23418907D01*
X31170500Y23449500D01*
X31170500Y23968761D01*
X31189407Y24026952D01*
X31202760Y24040074D01*
X31202187Y24040647D01*
X31208314Y24046776D01*
X31208316Y24046776D01*
X31209737Y24048198D01*
X31212416Y24049563D01*
X31212717Y24049858D01*
X31215412Y24051745D01*
X31215750Y24051262D01*
X31264250Y24075977D01*
X31324682Y24066410D01*
X31359398Y24036986D01*
X31375358Y24015361D01*
X31375360Y24015359D01*
X31482079Y23936595D01*
X31607272Y23892788D01*
X31636999Y23890001D01*
X31680000Y23890002D01*
X31980000Y23890002D01*
X31980001Y23890001D01*
X32023004Y23890001D01*
X32052721Y23892787D01*
X32052726Y23892788D01*
X32177920Y23936595D01*
X32284639Y24015359D01*
X32284641Y24015361D01*
X32363405Y24122080D01*
X32407212Y24247273D01*
X32410000Y24277000D01*
X32410000Y24349999D01*
X32409999Y24350000D01*
X31980001Y24350000D01*
X31980000Y24349999D01*
X31980000Y23890002D01*
X31680000Y23890002D01*
X31680000Y24551000D01*
X31698907Y24609191D01*
X31748407Y24645155D01*
X31779000Y24650000D01*
X32409998Y24650000D01*
X32409999Y24650001D01*
X32409999Y24723004D01*
X32407213Y24752722D01*
X32407212Y24752727D01*
X32363405Y24877921D01*
X32284641Y24984640D01*
X32279395Y24989886D01*
X32281495Y24991987D01*
X32253514Y25031112D01*
X32253972Y25092296D01*
X32290305Y25141526D01*
X32347895Y25160000D01*
X33451000Y25160000D01*
X33509191Y25141093D01*
X33545155Y25091593D01*
X33550000Y25061000D01*
X33550000Y19349000D01*
X33531093Y19290809D01*
X33481593Y19254845D01*
X33451000Y19250000D01*
X25741008Y19250000D01*
X25682817Y19268907D01*
X25671004Y19278996D01*
X25668996Y19281004D01*
X25641219Y19335521D01*
X25640000Y19351008D01*
X25640000Y22700001D01*
X27900000Y22700001D01*
X27900001Y22700000D01*
X28749999Y22700000D01*
X28750000Y22700001D01*
X28750000Y23449999D01*
X28749999Y23450000D01*
X28155210Y23450000D01*
X28155207Y23449999D01*
X28130125Y23447091D01*
X28027522Y23401787D01*
X27948213Y23322478D01*
X27902909Y23219873D01*
X27900000Y23194798D01*
X27900000Y22700001D01*
X25640000Y22700001D01*
X25640000Y24276997D01*
X27690001Y24276997D01*
X27692786Y24247279D01*
X27692787Y24247274D01*
X27736594Y24122080D01*
X27815358Y24015361D01*
X27815360Y24015359D01*
X27922079Y23936595D01*
X28047272Y23892788D01*
X28076999Y23890001D01*
X28120000Y23890002D01*
X28120000Y24349999D01*
X28119999Y24350000D01*
X27690002Y24350000D01*
X27690001Y24349999D01*
X27690001Y24276997D01*
X25640000Y24276997D01*
X25640000Y24650001D01*
X27690000Y24650001D01*
X27690001Y24650000D01*
X28119999Y24650000D01*
X28120000Y24650001D01*
X28120000Y25110001D01*
X28076997Y25110000D01*
X28047278Y25107214D01*
X28047273Y25107213D01*
X27922079Y25063406D01*
X27815360Y24984642D01*
X27815358Y24984640D01*
X27736594Y24877921D01*
X27692787Y24752728D01*
X27690000Y24723001D01*
X27690000Y24650001D01*
X25640000Y24650001D01*
X25640000Y26008992D01*
X25658907Y26067183D01*
X25668996Y26078996D01*
X26371004Y26781004D01*
X26425521Y26808781D01*
X26441008Y26810000D01*
X28220500Y26810000D01*
X28278691Y26791093D01*
G37*
%TD.AperFunction*%
%TD*%
%TA.AperFunction,Conductor*%
%TO.N,+3V3*%
G36*
X30267014Y36929663D02*
G01*
X30297772Y36876771D01*
X30300000Y36855886D01*
X30300000Y36702447D01*
X30351251Y36709914D01*
X30356516Y36712487D01*
X30417098Y36721060D01*
X30443478Y36712490D01*
X30448751Y36709913D01*
X30500000Y36702446D01*
X30500000Y36855886D01*
X30518907Y36914077D01*
X30568407Y36950041D01*
X30629593Y36950041D01*
X30679093Y36914077D01*
X30689563Y36895876D01*
X30691566Y36891341D01*
X30700000Y36851356D01*
X30700000Y36702447D01*
X30751251Y36709914D01*
X30820142Y36743593D01*
X30875037Y36752993D01*
X30880005Y36752417D01*
X30880009Y36752415D01*
X30905135Y36749500D01*
X31064810Y36749501D01*
X31123001Y36730594D01*
X31158965Y36681094D01*
X31158966Y36619909D01*
X31134815Y36580498D01*
X31033815Y36479497D01*
X30979298Y36451719D01*
X30963811Y36450500D01*
X29663759Y36450500D01*
X29605568Y36469407D01*
X29596596Y36477641D01*
X29596480Y36477506D01*
X29591128Y36482144D01*
X29470055Y36559952D01*
X29467044Y36561327D01*
X29465008Y36563196D01*
X29464097Y36563781D01*
X29464198Y36563939D01*
X29421966Y36602698D01*
X29409814Y36662665D01*
X29435231Y36718322D01*
X29488507Y36748409D01*
X29496756Y36749721D01*
X29519991Y36752415D01*
X29560011Y36770087D01*
X29620879Y36776295D01*
X29639989Y36770086D01*
X29680009Y36752415D01*
X29680008Y36752415D01*
X29684478Y36751897D01*
X29705135Y36749500D01*
X29894864Y36749501D01*
X29919991Y36752415D01*
X29919992Y36752416D01*
X29924971Y36752993D01*
X29979856Y36743593D01*
X30048751Y36709913D01*
X30100000Y36702446D01*
X30100000Y36851356D01*
X30108434Y36891341D01*
X30110435Y36895873D01*
X30151233Y36941468D01*
X30211042Y36954375D01*
X30267014Y36929663D01*
G37*
%TD.AperFunction*%
%TA.AperFunction,Conductor*%
G36*
X15606316Y41350052D02*
G01*
X15653033Y41336144D01*
X15701512Y41319500D01*
X15701513Y41319500D01*
X15708732Y41318295D01*
X15716039Y41317385D01*
X15716046Y41317383D01*
X15767231Y41319500D01*
X22981310Y41319500D01*
X23039501Y41300593D01*
X23051314Y41290504D01*
X27020504Y37321315D01*
X27048281Y37266798D01*
X27049500Y37251312D01*
X27049501Y37099001D01*
X27030594Y37040810D01*
X26981094Y37004846D01*
X26950501Y37000000D01*
X26662501Y37000000D01*
X26662500Y36999999D01*
X26662500Y36681227D01*
X26670774Y36664987D01*
X26661203Y36604555D01*
X26617938Y36561290D01*
X26572993Y36550500D01*
X26552007Y36550500D01*
X26493816Y36569407D01*
X26457852Y36618907D01*
X26457852Y36680093D01*
X26462500Y36687678D01*
X26462500Y36999999D01*
X26462499Y37000000D01*
X26141786Y37000000D01*
X26141783Y36999999D01*
X26073749Y36990088D01*
X25968811Y36938786D01*
X25886213Y36856188D01*
X25834912Y36751249D01*
X25825821Y36688851D01*
X25838876Y36657879D01*
X25824961Y36598297D01*
X25778683Y36558272D01*
X25740231Y36550500D01*
X24645382Y36550500D01*
X24587191Y36569407D01*
X24551227Y36618907D01*
X24551227Y36680093D01*
X24565728Y36708289D01*
X24575904Y36722077D01*
X24575904Y36722078D01*
X24619712Y36847273D01*
X24622500Y36877000D01*
X24622500Y36949999D01*
X24622499Y36950000D01*
X23991500Y36950000D01*
X23933309Y36968907D01*
X23897345Y37018407D01*
X23892500Y37049000D01*
X23892500Y37250001D01*
X24192500Y37250001D01*
X24192501Y37250000D01*
X24622498Y37250000D01*
X24622499Y37250001D01*
X24622499Y37323004D01*
X24619713Y37352722D01*
X24619712Y37352727D01*
X24575905Y37477921D01*
X24497141Y37584640D01*
X24497139Y37584642D01*
X24390420Y37663406D01*
X24265227Y37707213D01*
X24235500Y37710000D01*
X24192501Y37710000D01*
X24192500Y37709999D01*
X24192500Y37250001D01*
X23892500Y37250001D01*
X23892500Y37710001D01*
X23849497Y37710000D01*
X23819778Y37707214D01*
X23819773Y37707213D01*
X23694579Y37663406D01*
X23582906Y37580985D01*
X23524858Y37561643D01*
X23466528Y37580114D01*
X23455866Y37589151D01*
X23454893Y37589857D01*
X23454891Y37589859D01*
X23344675Y37646017D01*
X23344676Y37646017D01*
X23253236Y37660500D01*
X22911762Y37660500D01*
X22820325Y37646017D01*
X22820321Y37646016D01*
X22710110Y37589860D01*
X22622639Y37502389D01*
X22618061Y37496087D01*
X22616447Y37497260D01*
X22580479Y37461291D01*
X22535534Y37450500D01*
X22403764Y37450500D01*
X22345573Y37469407D01*
X22325223Y37489231D01*
X22322623Y37492619D01*
X22322621Y37492620D01*
X22322621Y37492621D01*
X22207625Y37580861D01*
X22207621Y37580863D01*
X22073709Y37636330D01*
X22073708Y37636331D01*
X21930000Y37655250D01*
X21786291Y37636331D01*
X21786290Y37636330D01*
X21652378Y37580863D01*
X21652374Y37580861D01*
X21537381Y37492623D01*
X21537377Y37492619D01*
X21449139Y37377626D01*
X21449137Y37377622D01*
X21393670Y37243710D01*
X21393669Y37243709D01*
X21374750Y37100001D01*
X21374750Y37100000D01*
X21393669Y36956292D01*
X21393670Y36956291D01*
X21442658Y36838020D01*
X21449139Y36822375D01*
X21533459Y36712487D01*
X21535546Y36709768D01*
X21555970Y36652092D01*
X21538593Y36593426D01*
X21490051Y36556179D01*
X21457004Y36550500D01*
X20183742Y36550500D01*
X20125551Y36569407D01*
X20113738Y36579496D01*
X15508073Y41185161D01*
X15480296Y41239678D01*
X15489867Y41300110D01*
X15533132Y41343375D01*
X15593564Y41352946D01*
X15606316Y41350052D01*
G37*
%TD.AperFunction*%
%TA.AperFunction,Conductor*%
G36*
X30595445Y37536203D02*
G01*
X30638710Y37492938D01*
X30649500Y37447993D01*
X30649500Y37427007D01*
X30630593Y37368816D01*
X30581093Y37332852D01*
X30519907Y37332852D01*
X30512322Y37337500D01*
X30281226Y37337500D01*
X30264987Y37329226D01*
X30204555Y37338797D01*
X30161290Y37382062D01*
X30150500Y37427007D01*
X30150500Y37438500D01*
X30169407Y37496691D01*
X30218907Y37532655D01*
X30249500Y37537500D01*
X30518774Y37537500D01*
X30535013Y37545774D01*
X30595445Y37536203D01*
G37*
%TD.AperFunction*%
%TA.AperFunction,Conductor*%
G36*
X30482467Y39928192D02*
G01*
X30503482Y39917918D01*
X30564775Y39908988D01*
X30619630Y39881890D01*
X30648081Y39827722D01*
X30649500Y39811023D01*
X30649500Y38259769D01*
X30630593Y38201578D01*
X30581093Y38165614D01*
X30519907Y38165614D01*
X30506043Y38173436D01*
X30453273Y38165747D01*
X30392964Y38176068D01*
X30350240Y38219866D01*
X30340000Y38263713D01*
X30340000Y38980920D01*
X30340424Y38987388D01*
X30344373Y39017379D01*
X30355250Y39100000D01*
X30350928Y39132825D01*
X30340424Y39212614D01*
X30340000Y39219082D01*
X30340000Y39839245D01*
X30358907Y39897436D01*
X30408407Y39933400D01*
X30469593Y39933400D01*
X30482467Y39928192D01*
G37*
%TD.AperFunction*%
%TA.AperFunction,Conductor*%
G36*
X59819191Y67980593D02*
G01*
X59855155Y67931093D01*
X59860000Y67900500D01*
X59860000Y99500D01*
X59841093Y41309D01*
X59791593Y5345D01*
X59761000Y500D01*
X320508Y500D01*
X262317Y19407D01*
X250504Y29496D01*
X228996Y51004D01*
X201219Y105521D01*
X200000Y121008D01*
X200000Y5000000D01*
X3394551Y5000000D01*
X3414316Y4748854D01*
X3473127Y4503887D01*
X3569532Y4271144D01*
X3569535Y4271138D01*
X3701162Y4056344D01*
X3701168Y4056336D01*
X3845205Y3887690D01*
X3864776Y3864776D01*
X3864782Y3864771D01*
X3864785Y3864768D01*
X3890744Y3842597D01*
X4056341Y3701164D01*
X4086617Y3682611D01*
X4271137Y3569536D01*
X4271141Y3569534D01*
X4458943Y3491744D01*
X4503887Y3473128D01*
X4503889Y3473127D01*
X4748852Y3414317D01*
X4937118Y3399500D01*
X4937123Y3399500D01*
X5062877Y3399500D01*
X5062882Y3399500D01*
X5251148Y3414317D01*
X5496111Y3473127D01*
X5728859Y3569534D01*
X5943659Y3701164D01*
X6135224Y3864776D01*
X6298836Y4056341D01*
X6430466Y4271141D01*
X6526873Y4503889D01*
X6585683Y4748852D01*
X6605449Y5000000D01*
X6585683Y5251148D01*
X6526873Y5496111D01*
X6525714Y5498908D01*
X6430467Y5728857D01*
X6430464Y5728863D01*
X6298837Y5943657D01*
X6298836Y5943659D01*
X6164085Y6101432D01*
X6135232Y6135215D01*
X6135229Y6135218D01*
X6135224Y6135224D01*
X6135217Y6135230D01*
X6135214Y6135233D01*
X5943664Y6298832D01*
X5943656Y6298838D01*
X5728862Y6430465D01*
X5728856Y6430468D01*
X5496112Y6526873D01*
X5496113Y6526873D01*
X5251146Y6585684D01*
X5122812Y6595784D01*
X5062882Y6600500D01*
X4937118Y6600500D01*
X4880775Y6596066D01*
X4748853Y6585684D01*
X4503886Y6526873D01*
X4271143Y6430468D01*
X4271137Y6430465D01*
X4056343Y6298838D01*
X4056335Y6298832D01*
X3864785Y6135233D01*
X3864767Y6135215D01*
X3701168Y5943665D01*
X3701162Y5943657D01*
X3569535Y5728863D01*
X3569532Y5728857D01*
X3473127Y5496114D01*
X3414316Y5251147D01*
X3394551Y5000000D01*
X200000Y5000000D01*
X200000Y12320000D01*
X3894785Y12320000D01*
X3913603Y12116917D01*
X3969418Y11920750D01*
X4060327Y11738179D01*
X4183236Y11575421D01*
X4333959Y11438019D01*
X4507363Y11330652D01*
X4697544Y11256976D01*
X4898024Y11219500D01*
X5101976Y11219500D01*
X5302456Y11256976D01*
X5492637Y11330652D01*
X5666041Y11438019D01*
X5816764Y11575421D01*
X5939673Y11738179D01*
X6030582Y11920750D01*
X6086397Y12116917D01*
X6105215Y12320000D01*
X6096703Y12411866D01*
X6110161Y12471553D01*
X6156132Y12511931D01*
X6195281Y12520000D01*
X12109999Y12520000D01*
X12110000Y12520000D01*
X14091769Y14501771D01*
X14118797Y14518639D01*
X14118060Y14520002D01*
X14170340Y14548296D01*
X14216380Y14570802D01*
X14222366Y14575077D01*
X14228152Y14579580D01*
X14245724Y14598668D01*
X14262853Y14617276D01*
X16109947Y16464370D01*
X16164460Y16492144D01*
X16224892Y16482573D01*
X16249951Y16464367D01*
X16649199Y16065119D01*
X16662074Y16049263D01*
X16668563Y16039331D01*
X16695110Y16018668D01*
X16699708Y16014608D01*
X16702689Y16011628D01*
X16702692Y16011626D01*
X16702694Y16011624D01*
X16720441Y15998953D01*
X16760874Y15967483D01*
X16760877Y15967482D01*
X16767352Y15963977D01*
X16773931Y15960761D01*
X16773933Y15960761D01*
X16773934Y15960760D01*
X16823043Y15946140D01*
X16871512Y15929500D01*
X16871516Y15929500D01*
X16878730Y15928296D01*
X16886040Y15927385D01*
X16886047Y15927383D01*
X16937242Y15929500D01*
X29423810Y15929500D01*
X29482001Y15910593D01*
X29493814Y15900504D01*
X32353064Y13041254D01*
X32380841Y12986737D01*
X32371270Y12926305D01*
X32353064Y12901246D01*
X32281314Y12829496D01*
X32226797Y12801719D01*
X32211310Y12800500D01*
X31457451Y12800500D01*
X31415613Y12809775D01*
X31394760Y12819499D01*
X31349179Y12825500D01*
X31349178Y12825500D01*
X30523999Y12825500D01*
X30465808Y12844407D01*
X30429844Y12893907D01*
X30424999Y12924500D01*
X30424999Y13046896D01*
X30424998Y13046902D01*
X30414734Y13117361D01*
X30414733Y13117365D01*
X30361599Y13226052D01*
X30276052Y13311599D01*
X30167360Y13364736D01*
X30125000Y13370908D01*
X30125000Y11804095D01*
X30159238Y11774483D01*
X30156676Y11771521D01*
X30183919Y11743653D01*
X30192804Y11683116D01*
X30184930Y11657873D01*
X30161517Y11607662D01*
X30119789Y11562913D01*
X30071792Y11550500D01*
X29928208Y11550500D01*
X29870017Y11569407D01*
X29838484Y11607660D01*
X29815071Y11657868D01*
X29807614Y11718597D01*
X29837276Y11772111D01*
X29841220Y11773951D01*
X29840761Y11774482D01*
X29875000Y11804094D01*
X29875000Y13370906D01*
X29832634Y13364734D01*
X29723948Y13311600D01*
X29638400Y13226052D01*
X29585266Y13117364D01*
X29575000Y13046898D01*
X29575000Y12974000D01*
X29556093Y12915809D01*
X29506593Y12879845D01*
X29476000Y12875000D01*
X29237501Y12875000D01*
X29237500Y12874999D01*
X29237500Y12424500D01*
X29218593Y12366309D01*
X29169093Y12330345D01*
X29138500Y12325500D01*
X28650826Y12325500D01*
X28650565Y12325466D01*
X28650240Y12325423D01*
X28643784Y12325000D01*
X28321403Y12325000D01*
X28285153Y12303094D01*
X28262639Y12300500D01*
X24561190Y12300500D01*
X24502999Y12319407D01*
X24491186Y12329496D01*
X24245682Y12575000D01*
X28329094Y12575000D01*
X28987499Y12575000D01*
X28987500Y12575001D01*
X28987500Y12874999D01*
X28987499Y12875000D01*
X28653104Y12875000D01*
X28653098Y12874999D01*
X28582639Y12864735D01*
X28582635Y12864734D01*
X28473948Y12811600D01*
X28388400Y12726052D01*
X28335266Y12617366D01*
X28329094Y12575000D01*
X24245682Y12575000D01*
X24175801Y12644881D01*
X24162925Y12660738D01*
X24156437Y12670669D01*
X24129885Y12691335D01*
X24125283Y12695399D01*
X24122307Y12698375D01*
X24104560Y12711046D01*
X24064128Y12742516D01*
X24057677Y12746007D01*
X24051068Y12749239D01*
X24051066Y12749240D01*
X24001954Y12763862D01*
X23953488Y12780500D01*
X23953485Y12780501D01*
X23946260Y12781707D01*
X23938955Y12782617D01*
X23938954Y12782617D01*
X23938952Y12782617D01*
X23887769Y12780500D01*
X22665257Y12780500D01*
X22607066Y12799407D01*
X22595259Y12809491D01*
X22514891Y12889859D01*
X22404675Y12946017D01*
X22404676Y12946017D01*
X22313236Y12960500D01*
X21911762Y12960500D01*
X21820325Y12946017D01*
X21820321Y12946016D01*
X21710110Y12889860D01*
X21622640Y12802390D01*
X21566483Y12692177D01*
X21552000Y12600737D01*
X21552000Y12406190D01*
X21533093Y12347999D01*
X21523004Y12336186D01*
X16586314Y7399496D01*
X16531797Y7371719D01*
X16516310Y7370500D01*
X15650326Y7370500D01*
X15650325Y7370500D01*
X15650315Y7370499D01*
X15577263Y7355967D01*
X15577257Y7355965D01*
X15494400Y7300603D01*
X15494397Y7300600D01*
X15439035Y7217743D01*
X15439033Y7217737D01*
X15424501Y7144685D01*
X15424500Y7144673D01*
X15424500Y5595328D01*
X15424501Y5595316D01*
X15439033Y5522264D01*
X15439035Y5522258D01*
X15494397Y5439401D01*
X15494399Y5439399D01*
X15577260Y5384034D01*
X15632808Y5372985D01*
X15650315Y5369502D01*
X15650320Y5369502D01*
X15650326Y5369500D01*
X15650327Y5369500D01*
X16749673Y5369500D01*
X16749674Y5369500D01*
X16822740Y5384034D01*
X16905601Y5439399D01*
X16920052Y5461028D01*
X16968101Y5498908D01*
X17029239Y5501312D01*
X17055040Y5489854D01*
X17131394Y5441878D01*
X17131395Y5441878D01*
X17131398Y5441876D01*
X17296336Y5384161D01*
X17296340Y5384160D01*
X17296343Y5384159D01*
X17470000Y5364593D01*
X17643657Y5384159D01*
X17801522Y5439399D01*
X17808601Y5441876D01*
X17808602Y5441877D01*
X17808606Y5441878D01*
X17956576Y5534853D01*
X18034998Y5613276D01*
X18089513Y5641051D01*
X18149945Y5631480D01*
X18175000Y5613277D01*
X18253424Y5534853D01*
X18253427Y5534851D01*
X18253426Y5534851D01*
X18315077Y5496114D01*
X18401394Y5441878D01*
X18401395Y5441878D01*
X18401398Y5441876D01*
X18566336Y5384161D01*
X18566340Y5384160D01*
X18566343Y5384159D01*
X18740000Y5364593D01*
X18913657Y5384159D01*
X19071522Y5439399D01*
X19078601Y5441876D01*
X19078602Y5441877D01*
X19078606Y5441878D01*
X19226576Y5534853D01*
X19350147Y5658424D01*
X19443122Y5806394D01*
X19500841Y5971343D01*
X19515500Y6101448D01*
X19515500Y6638552D01*
X19500841Y6768657D01*
X19500839Y6768664D01*
X19443124Y6933602D01*
X19443121Y6933607D01*
X19350149Y7081573D01*
X19350148Y7081574D01*
X19350147Y7081576D01*
X19226576Y7205147D01*
X19226573Y7205149D01*
X19226572Y7205150D01*
X19226573Y7205150D01*
X19078606Y7298122D01*
X19078601Y7298125D01*
X18913663Y7355840D01*
X18913660Y7355841D01*
X18772733Y7371719D01*
X18740797Y7375318D01*
X18685091Y7400621D01*
X18654895Y7453837D01*
X18661746Y7514637D01*
X18681876Y7543696D01*
X19330777Y8192597D01*
X25450000Y8192597D01*
X25452755Y8163217D01*
X25496064Y8039446D01*
X25573934Y7933937D01*
X25573936Y7933935D01*
X25679445Y7856065D01*
X25803216Y7812756D01*
X25832596Y7810001D01*
X25832600Y7810000D01*
X25919999Y7810000D01*
X25920000Y7810001D01*
X26220000Y7810001D01*
X26220001Y7810000D01*
X26307400Y7810000D01*
X26307403Y7810001D01*
X26336783Y7812756D01*
X26460554Y7856065D01*
X26566063Y7933935D01*
X26566065Y7933937D01*
X26643935Y8039446D01*
X26687244Y8163217D01*
X26689999Y8192597D01*
X26690000Y8192600D01*
X26690000Y8229999D01*
X26689999Y8230000D01*
X26220001Y8230000D01*
X26220000Y8229999D01*
X26220000Y7810001D01*
X25920000Y7810001D01*
X25920000Y8229999D01*
X25919999Y8230000D01*
X25450001Y8230000D01*
X25450000Y8229999D01*
X25450000Y8192597D01*
X19330777Y8192597D01*
X22048686Y10910505D01*
X22103203Y10938282D01*
X22118690Y10939501D01*
X22313237Y10939501D01*
X22339832Y10943714D01*
X22404675Y10953983D01*
X22514891Y11010141D01*
X22575255Y11070506D01*
X22629770Y11098281D01*
X22645257Y11099500D01*
X26999455Y11099500D01*
X27057646Y11080593D01*
X27093610Y11031093D01*
X27093610Y10969907D01*
X27069459Y10930497D01*
X26536341Y10397379D01*
X26088458Y9949496D01*
X26033941Y9921719D01*
X26018454Y9920500D01*
X25848418Y9920500D01*
X25773482Y9909582D01*
X25657899Y9853077D01*
X25566923Y9762101D01*
X25515982Y9657900D01*
X25510418Y9646518D01*
X25499500Y9571582D01*
X25499500Y9228418D01*
X25510418Y9153482D01*
X25566924Y9037898D01*
X25610437Y8994385D01*
X25638213Y8939870D01*
X25628642Y8879438D01*
X25599223Y8844730D01*
X25573939Y8826069D01*
X25573934Y8826064D01*
X25496064Y8720555D01*
X25452755Y8596784D01*
X25450000Y8567404D01*
X25450000Y8530001D01*
X25450001Y8530000D01*
X26689999Y8530000D01*
X26690000Y8530001D01*
X26690000Y8567400D01*
X26689999Y8567404D01*
X26687244Y8596784D01*
X26643935Y8720555D01*
X26566065Y8826064D01*
X26566062Y8826067D01*
X26540777Y8844729D01*
X26505186Y8894497D01*
X26505645Y8955681D01*
X26529562Y8994385D01*
X26573076Y9037898D01*
X26629582Y9153482D01*
X26640500Y9228418D01*
X26640500Y9398455D01*
X26659407Y9456646D01*
X26669496Y9468459D01*
X27075496Y9874459D01*
X27130013Y9902236D01*
X27190445Y9892665D01*
X27233710Y9849400D01*
X27244500Y9804455D01*
X27244500Y7479211D01*
X27242393Y7458897D01*
X27239633Y7445734D01*
X27244120Y7409737D01*
X27244500Y7403609D01*
X27244500Y7398886D01*
X27248342Y7375860D01*
X27255134Y7321374D01*
X27255134Y7321373D01*
X27255135Y7321370D01*
X27257371Y7313856D01*
X27259935Y7306388D01*
X27277348Y7274212D01*
X27286055Y7258123D01*
X27310174Y7208789D01*
X27310176Y7208785D01*
X27314736Y7202399D01*
X27319579Y7196177D01*
X27319581Y7196174D01*
X27359971Y7158992D01*
X29770505Y4748458D01*
X29798281Y4693943D01*
X29799500Y4678456D01*
X29799500Y3175328D01*
X29799501Y3175316D01*
X29814033Y3102264D01*
X29814035Y3102258D01*
X29869397Y3019401D01*
X29869400Y3019398D01*
X29952257Y2964036D01*
X29952260Y2964034D01*
X30007808Y2952985D01*
X30025315Y2949502D01*
X30025320Y2949502D01*
X30025326Y2949500D01*
X30025327Y2949500D01*
X31874673Y2949500D01*
X31874674Y2949500D01*
X31947740Y2964034D01*
X32030601Y3019399D01*
X32085966Y3102260D01*
X32100500Y3175326D01*
X32100500Y4100000D01*
X32334571Y4100000D01*
X32338616Y4056341D01*
X32354244Y3887690D01*
X32412595Y3682611D01*
X32507634Y3491745D01*
X32636128Y3321593D01*
X32636135Y3321587D01*
X32793692Y3177953D01*
X32793699Y3177947D01*
X32897389Y3113745D01*
X32974981Y3065702D01*
X33173802Y2988679D01*
X33383390Y2949500D01*
X33596610Y2949500D01*
X33806198Y2988679D01*
X34005019Y3065702D01*
X34186302Y3177948D01*
X34343872Y3321593D01*
X34472366Y3491745D01*
X34527693Y3602858D01*
X34550982Y3649628D01*
X34593845Y3693290D01*
X34639603Y3704500D01*
X37597331Y3704500D01*
X37655522Y3685593D01*
X37667968Y3673044D01*
X37668624Y3673699D01*
X37674423Y3667900D01*
X37674424Y3667898D01*
X37765398Y3576924D01*
X37880982Y3520418D01*
X37955918Y3509500D01*
X37955921Y3509500D01*
X38299078Y3509500D01*
X38299082Y3509500D01*
X38374018Y3520418D01*
X38489602Y3576924D01*
X38533115Y3620438D01*
X38587629Y3648214D01*
X38648061Y3638643D01*
X38682771Y3609223D01*
X38701433Y3583938D01*
X38701436Y3583935D01*
X38806945Y3506065D01*
X38930716Y3462756D01*
X38960096Y3460001D01*
X38960100Y3460000D01*
X38997499Y3460000D01*
X38997500Y3460001D01*
X39297500Y3460001D01*
X39297501Y3460000D01*
X39334900Y3460000D01*
X39334903Y3460001D01*
X39364283Y3462756D01*
X39488054Y3506065D01*
X39593563Y3583935D01*
X39593565Y3583937D01*
X39671435Y3689446D01*
X39714744Y3813217D01*
X39717499Y3842597D01*
X39717500Y3842600D01*
X39717500Y3929999D01*
X39717499Y3930000D01*
X39297501Y3930000D01*
X39297500Y3929999D01*
X39297500Y3460001D01*
X38997500Y3460001D01*
X38997500Y4230001D01*
X39297500Y4230001D01*
X39297501Y4230000D01*
X39717499Y4230000D01*
X39717500Y4230001D01*
X39717500Y4317400D01*
X39717499Y4317404D01*
X39714744Y4346784D01*
X39671435Y4470555D01*
X39593565Y4576064D01*
X39593563Y4576066D01*
X39488054Y4653936D01*
X39364283Y4697245D01*
X39334903Y4700000D01*
X39297501Y4700000D01*
X39297500Y4699999D01*
X39297500Y4230001D01*
X38997500Y4230001D01*
X38997500Y4699999D01*
X38997499Y4700000D01*
X38960096Y4700000D01*
X38930716Y4697245D01*
X38806945Y4653936D01*
X38701436Y4576066D01*
X38701431Y4576061D01*
X38682770Y4550777D01*
X38633001Y4515186D01*
X38571817Y4515646D01*
X38533115Y4539563D01*
X38489602Y4583076D01*
X38374018Y4639582D01*
X38299082Y4650500D01*
X37955918Y4650500D01*
X37880982Y4639582D01*
X37765399Y4583077D01*
X37765398Y4583077D01*
X37765398Y4583076D01*
X37674424Y4492102D01*
X37674423Y4492101D01*
X37668624Y4486301D01*
X37666432Y4488493D01*
X37628692Y4460599D01*
X37597331Y4455500D01*
X34659197Y4455500D01*
X34601006Y4474407D01*
X34570623Y4513880D01*
X34569445Y4513292D01*
X34567405Y4517389D01*
X34472366Y4708255D01*
X34343872Y4878407D01*
X34210492Y5000000D01*
X53394551Y5000000D01*
X53414316Y4748854D01*
X53473127Y4503887D01*
X53569532Y4271144D01*
X53569535Y4271138D01*
X53701162Y4056344D01*
X53701168Y4056336D01*
X53845205Y3887690D01*
X53864776Y3864776D01*
X53864782Y3864771D01*
X53864785Y3864768D01*
X53890744Y3842597D01*
X54056341Y3701164D01*
X54086617Y3682611D01*
X54271137Y3569536D01*
X54271141Y3569534D01*
X54458943Y3491744D01*
X54503887Y3473128D01*
X54503889Y3473127D01*
X54748852Y3414317D01*
X54937118Y3399500D01*
X54937123Y3399500D01*
X55062877Y3399500D01*
X55062882Y3399500D01*
X55251148Y3414317D01*
X55496111Y3473127D01*
X55728859Y3569534D01*
X55943659Y3701164D01*
X56135224Y3864776D01*
X56298836Y4056341D01*
X56430466Y4271141D01*
X56526873Y4503889D01*
X56585683Y4748852D01*
X56605449Y5000000D01*
X56585683Y5251148D01*
X56526873Y5496111D01*
X56525714Y5498908D01*
X56430467Y5728857D01*
X56430464Y5728863D01*
X56298837Y5943657D01*
X56298836Y5943659D01*
X56164085Y6101432D01*
X56135232Y6135215D01*
X56135229Y6135218D01*
X56135224Y6135224D01*
X56135217Y6135230D01*
X56135214Y6135233D01*
X55943664Y6298832D01*
X55943656Y6298838D01*
X55728862Y6430465D01*
X55728856Y6430468D01*
X55496112Y6526873D01*
X55496113Y6526873D01*
X55251146Y6585684D01*
X55122812Y6595784D01*
X55062882Y6600500D01*
X54937118Y6600500D01*
X54880775Y6596066D01*
X54748853Y6585684D01*
X54503886Y6526873D01*
X54271143Y6430468D01*
X54271137Y6430465D01*
X54056343Y6298838D01*
X54056335Y6298832D01*
X53864785Y6135233D01*
X53864767Y6135215D01*
X53701168Y5943665D01*
X53701162Y5943657D01*
X53569535Y5728863D01*
X53569532Y5728857D01*
X53473127Y5496114D01*
X53414316Y5251147D01*
X53394551Y5000000D01*
X34210492Y5000000D01*
X34186307Y5022048D01*
X34186300Y5022054D01*
X34005024Y5134295D01*
X34005019Y5134298D01*
X33806198Y5211321D01*
X33806197Y5211322D01*
X33806195Y5211322D01*
X33596610Y5250500D01*
X33383390Y5250500D01*
X33173804Y5211322D01*
X32974980Y5134298D01*
X32974975Y5134295D01*
X32793699Y5022054D01*
X32793692Y5022048D01*
X32636135Y4878414D01*
X32636131Y4878411D01*
X32636128Y4878407D01*
X32636125Y4878403D01*
X32507635Y4708257D01*
X32507630Y4708248D01*
X32412596Y4517392D01*
X32354244Y4312312D01*
X32334571Y4100000D01*
X32100500Y4100000D01*
X32100500Y5024674D01*
X32085966Y5097740D01*
X32030601Y5180601D01*
X32030599Y5180603D01*
X31947742Y5235965D01*
X31947740Y5235966D01*
X31947737Y5235967D01*
X31947736Y5235967D01*
X31874684Y5250499D01*
X31874674Y5250500D01*
X31874673Y5250500D01*
X30371545Y5250500D01*
X30313354Y5269407D01*
X30301541Y5279496D01*
X28024496Y7556542D01*
X27996719Y7611059D01*
X27995500Y7626546D01*
X27995500Y10475500D01*
X28014407Y10533691D01*
X28063907Y10569655D01*
X28094500Y10574500D01*
X29151589Y10574500D01*
X29151601Y10574501D01*
X29525500Y10574501D01*
X29583691Y10555594D01*
X29619655Y10506094D01*
X29624500Y10475501D01*
X29624500Y9508805D01*
X29605593Y9450614D01*
X29591150Y9434703D01*
X29534516Y9384529D01*
X29444780Y9254524D01*
X29388763Y9106818D01*
X29388762Y9106817D01*
X29369722Y8950002D01*
X29369722Y8949999D01*
X29388762Y8793184D01*
X29388763Y8793182D01*
X29416307Y8720555D01*
X29444780Y8645477D01*
X29534515Y8515472D01*
X29534516Y8515471D01*
X29534517Y8515470D01*
X29652760Y8410717D01*
X29792635Y8337304D01*
X29946015Y8299500D01*
X29946018Y8299500D01*
X30103982Y8299500D01*
X30103985Y8299500D01*
X30257365Y8337304D01*
X30397240Y8410717D01*
X30515483Y8515470D01*
X30605220Y8645477D01*
X30661237Y8793182D01*
X30663594Y8812597D01*
X38655000Y8812597D01*
X38657755Y8783217D01*
X38701064Y8659446D01*
X38778934Y8553937D01*
X38778936Y8553935D01*
X38884445Y8476065D01*
X39008216Y8432756D01*
X39037596Y8430001D01*
X39037600Y8430000D01*
X39124999Y8430000D01*
X39125000Y8430001D01*
X39425000Y8430001D01*
X39425001Y8430000D01*
X39512400Y8430000D01*
X39512403Y8430001D01*
X39541783Y8432756D01*
X39665554Y8476065D01*
X39771063Y8553935D01*
X39771065Y8553937D01*
X39848935Y8659446D01*
X39892244Y8783217D01*
X39894999Y8812597D01*
X39895000Y8812600D01*
X39895000Y8849999D01*
X39894999Y8850000D01*
X39425001Y8850000D01*
X39425000Y8849999D01*
X39425000Y8430001D01*
X39125000Y8430001D01*
X39125000Y8849999D01*
X39124999Y8850000D01*
X38655001Y8850000D01*
X38655000Y8849999D01*
X38655000Y8812597D01*
X30663594Y8812597D01*
X30680278Y8950000D01*
X30674888Y8994387D01*
X30661237Y9106817D01*
X30661237Y9106818D01*
X30605220Y9254523D01*
X30515483Y9384530D01*
X30446025Y9446064D01*
X30408851Y9478997D01*
X30377832Y9531737D01*
X30375500Y9553100D01*
X30375500Y10475501D01*
X30394407Y10533692D01*
X30443907Y10569656D01*
X30474494Y10574501D01*
X31349178Y10574501D01*
X31394760Y10580501D01*
X31394763Y10580503D01*
X31394765Y10580503D01*
X31415610Y10590223D01*
X31457451Y10599500D01*
X31869429Y10599500D01*
X31927620Y10580593D01*
X31959570Y10536617D01*
X31961187Y10537286D01*
X31963669Y10531292D01*
X31963670Y10531291D01*
X32019139Y10397375D01*
X32107379Y10282379D01*
X32222375Y10194139D01*
X32356291Y10138670D01*
X32500000Y10119750D01*
X32643709Y10138670D01*
X32777625Y10194139D01*
X32892621Y10282379D01*
X32980861Y10397375D01*
X33036330Y10531291D01*
X33055250Y10675000D01*
X33036330Y10818709D01*
X32980861Y10952625D01*
X32892621Y11067621D01*
X32777625Y11155861D01*
X32777621Y11155863D01*
X32643709Y11211330D01*
X32643708Y11211331D01*
X32500000Y11230250D01*
X32485950Y11228401D01*
X32425790Y11239554D01*
X32412226Y11248430D01*
X32394128Y11262516D01*
X32387677Y11266007D01*
X32381068Y11269239D01*
X32381066Y11269240D01*
X32331954Y11283862D01*
X32283488Y11300500D01*
X32283485Y11300501D01*
X32276260Y11301707D01*
X32268955Y11302617D01*
X32268954Y11302617D01*
X32268952Y11302617D01*
X32217769Y11300500D01*
X31724500Y11300500D01*
X31666309Y11319407D01*
X31630345Y11368907D01*
X31625500Y11399499D01*
X31625499Y11500499D01*
X31644406Y11558690D01*
X31693905Y11594654D01*
X31724499Y11599500D01*
X37158810Y11599500D01*
X37217001Y11580593D01*
X37228814Y11570504D01*
X38675504Y10123814D01*
X38703281Y10069297D01*
X38704500Y10053810D01*
X38704500Y9848418D01*
X38715418Y9773482D01*
X38771924Y9657898D01*
X38815437Y9614385D01*
X38843213Y9559870D01*
X38833642Y9499438D01*
X38804223Y9464730D01*
X38778939Y9446069D01*
X38778934Y9446064D01*
X38701064Y9340555D01*
X38657755Y9216784D01*
X38655000Y9187404D01*
X38655000Y9150001D01*
X38655001Y9150000D01*
X39894999Y9150000D01*
X39895000Y9150001D01*
X39895000Y9187400D01*
X39894999Y9187404D01*
X39892244Y9216784D01*
X39848935Y9340555D01*
X39771065Y9446064D01*
X39771062Y9446067D01*
X39745777Y9464729D01*
X39710186Y9514497D01*
X39710645Y9575681D01*
X39734562Y9614385D01*
X39778076Y9657898D01*
X39834582Y9773482D01*
X39845500Y9848418D01*
X39845500Y10191582D01*
X39834582Y10266518D01*
X39778076Y10382102D01*
X39687102Y10473076D01*
X39571518Y10529582D01*
X39496582Y10540500D01*
X39496579Y10540500D01*
X39291190Y10540500D01*
X39232999Y10559407D01*
X39221186Y10569496D01*
X37739496Y12051186D01*
X37711719Y12105703D01*
X37710500Y12121190D01*
X37710500Y14523290D01*
X37729407Y14581481D01*
X37734666Y14588104D01*
X37785377Y14646627D01*
X37845165Y14777543D01*
X37851992Y14825029D01*
X37865647Y14919998D01*
X37865647Y14920003D01*
X37845165Y15062457D01*
X37844879Y15063083D01*
X37785377Y15193373D01*
X37691128Y15302143D01*
X37691127Y15302144D01*
X37691126Y15302145D01*
X37570057Y15379951D01*
X37570054Y15379953D01*
X37570053Y15379953D01*
X37570050Y15379954D01*
X37431964Y15420500D01*
X37431961Y15420500D01*
X37288039Y15420500D01*
X37288035Y15420500D01*
X37149949Y15379954D01*
X37149942Y15379951D01*
X37028873Y15302145D01*
X36934622Y15193372D01*
X36874834Y15062457D01*
X36854353Y14920003D01*
X36854353Y14919998D01*
X36874834Y14777544D01*
X36890511Y14743217D01*
X36934623Y14646627D01*
X36985320Y14588120D01*
X37009137Y14531762D01*
X37009500Y14523290D01*
X37009500Y12399500D01*
X36990593Y12341309D01*
X36941093Y12305345D01*
X36910500Y12300500D01*
X32982690Y12300500D01*
X32924499Y12319407D01*
X32888535Y12368907D01*
X32888535Y12430093D01*
X32912686Y12469503D01*
X33330280Y12887099D01*
X33341049Y12895124D01*
X33340531Y12895790D01*
X33347006Y12900830D01*
X33381707Y12938526D01*
X33397126Y12953944D01*
X33833687Y13390504D01*
X33888203Y13418281D01*
X33903690Y13419500D01*
X34109078Y13419500D01*
X34109082Y13419500D01*
X34184018Y13430418D01*
X34299602Y13486924D01*
X34390576Y13577898D01*
X34447082Y13693482D01*
X34458000Y13768418D01*
X34458000Y14111582D01*
X34447082Y14186518D01*
X34390576Y14302102D01*
X34347061Y14345617D01*
X34319286Y14400131D01*
X34328857Y14460563D01*
X34358279Y14495273D01*
X34383560Y14513932D01*
X34383565Y14513937D01*
X34461435Y14619446D01*
X34504744Y14743217D01*
X34507499Y14772597D01*
X34507500Y14772600D01*
X34507500Y14809999D01*
X34507499Y14810000D01*
X33267501Y14810000D01*
X33267500Y14809999D01*
X33267500Y14772597D01*
X33270255Y14743217D01*
X33313564Y14619446D01*
X33391434Y14513937D01*
X33391440Y14513931D01*
X33416721Y14495272D01*
X33452313Y14445504D01*
X33451855Y14384320D01*
X33427936Y14345615D01*
X33384425Y14302104D01*
X33384423Y14302101D01*
X33372728Y14278178D01*
X33327918Y14186518D01*
X33317560Y14115421D01*
X33317000Y14111579D01*
X33317000Y13906190D01*
X33298093Y13847999D01*
X33288004Y13836186D01*
X33012564Y13560746D01*
X32958047Y13532969D01*
X32942560Y13531750D01*
X32894940Y13531750D01*
X32836749Y13550657D01*
X32824936Y13560746D01*
X31275681Y15110001D01*
X33267500Y15110001D01*
X33267501Y15110000D01*
X33737499Y15110000D01*
X33737500Y15110001D01*
X34037500Y15110001D01*
X34037501Y15110000D01*
X34507499Y15110000D01*
X34507500Y15110001D01*
X34507500Y15147400D01*
X34507499Y15147404D01*
X34504744Y15176784D01*
X34461435Y15300555D01*
X34383565Y15406064D01*
X34383563Y15406066D01*
X34278054Y15483936D01*
X34154283Y15527245D01*
X34124903Y15530000D01*
X34037501Y15530000D01*
X34037500Y15529999D01*
X34037500Y15110001D01*
X33737500Y15110001D01*
X33737500Y15529999D01*
X33737499Y15530000D01*
X33650096Y15530000D01*
X33620716Y15527245D01*
X33496945Y15483936D01*
X33391436Y15406066D01*
X33391434Y15406064D01*
X33313564Y15300555D01*
X33270255Y15176784D01*
X33267500Y15147404D01*
X33267500Y15110001D01*
X31275681Y15110001D01*
X29890801Y16494881D01*
X29877925Y16510738D01*
X29871437Y16520669D01*
X29844885Y16541335D01*
X29840283Y16545399D01*
X29837307Y16548375D01*
X29819560Y16561046D01*
X29779128Y16592516D01*
X29772677Y16596007D01*
X29766068Y16599239D01*
X29766066Y16599240D01*
X29716954Y16613862D01*
X29668488Y16630500D01*
X29668485Y16630501D01*
X29661260Y16631707D01*
X29653955Y16632617D01*
X29653954Y16632617D01*
X29653952Y16632617D01*
X29602769Y16630500D01*
X17116189Y16630500D01*
X17057998Y16649407D01*
X17046185Y16659496D01*
X16745633Y16960048D01*
X16717856Y17014565D01*
X16727427Y17074997D01*
X16745633Y17100056D01*
X25215496Y25569919D01*
X25270013Y25597696D01*
X25330445Y25588125D01*
X25373710Y25544860D01*
X25384500Y25499915D01*
X25384500Y19345991D01*
X25384894Y19335963D01*
X25386507Y19315471D01*
X25386507Y19315470D01*
X25413564Y19219532D01*
X25413566Y19219526D01*
X25417474Y19211856D01*
X25441342Y19165012D01*
X25488330Y19100338D01*
X25493887Y19094782D01*
X25501257Y19087969D01*
X25516885Y19074621D01*
X25603865Y19025912D01*
X25662056Y19007005D01*
X25662057Y19007005D01*
X25662060Y19007004D01*
X25741005Y18994500D01*
X25741008Y18994500D01*
X33450996Y18994500D01*
X33451000Y18994500D01*
X33490965Y18997645D01*
X33521559Y19002490D01*
X33541240Y19006405D01*
X33595722Y19031522D01*
X33631773Y19048141D01*
X33681273Y19084105D01*
X33725378Y19124876D01*
X33774088Y19211857D01*
X33792995Y19270048D01*
X33792996Y19270053D01*
X33805500Y19348997D01*
X33805500Y25060996D01*
X33803092Y25091593D01*
X33802355Y25100965D01*
X33797510Y25131558D01*
X33797510Y25131559D01*
X33793595Y25151241D01*
X33751861Y25241769D01*
X33751858Y25241774D01*
X33715898Y25291270D01*
X33715895Y25291273D01*
X33714071Y25293246D01*
X33675124Y25335378D01*
X33588143Y25384088D01*
X33550745Y25396239D01*
X33529947Y25402997D01*
X33451003Y25415500D01*
X33451000Y25415500D01*
X32347895Y25415500D01*
X32324883Y25411900D01*
X32269856Y25403290D01*
X32269853Y25403290D01*
X32269852Y25403289D01*
X32244439Y25395137D01*
X32212264Y25384816D01*
X32158441Y25360369D01*
X32158436Y25360365D01*
X32084733Y25293251D01*
X32048391Y25244009D01*
X32018660Y25191840D01*
X32018658Y25191835D01*
X32007832Y25139459D01*
X31977537Y25086301D01*
X31921781Y25061102D01*
X31910882Y25060500D01*
X31840720Y25060500D01*
X31782529Y25079407D01*
X31746565Y25128907D01*
X31746565Y25190093D01*
X31780453Y25238042D01*
X31788238Y25244016D01*
X31792621Y25247379D01*
X31880861Y25362375D01*
X31936330Y25496291D01*
X31955250Y25640000D01*
X31936330Y25783709D01*
X31880861Y25917625D01*
X31810630Y26009151D01*
X31790207Y26066825D01*
X31807584Y26125491D01*
X31819165Y26139416D01*
X31889859Y26210109D01*
X31946017Y26320325D01*
X31960500Y26411765D01*
X31960499Y26753234D01*
X31960499Y26753238D01*
X31950650Y26815421D01*
X31946017Y26844675D01*
X31889859Y26954891D01*
X31852251Y26992499D01*
X31824476Y27047013D01*
X31834047Y27107445D01*
X31852250Y27132501D01*
X31889859Y27170109D01*
X31938691Y27265946D01*
X31981956Y27309210D01*
X32026900Y27320000D01*
X32793310Y27320000D01*
X32851501Y27301093D01*
X32863314Y27291004D01*
X45509199Y14645119D01*
X45522074Y14629263D01*
X45528563Y14619331D01*
X45555110Y14598668D01*
X45559708Y14594608D01*
X45562689Y14591628D01*
X45562692Y14591626D01*
X45562694Y14591624D01*
X45580441Y14578953D01*
X45620874Y14547483D01*
X45620877Y14547482D01*
X45627352Y14543977D01*
X45641302Y14537158D01*
X45640750Y14536031D01*
X45673455Y14516545D01*
X47690000Y12500000D01*
X53802866Y12500000D01*
X53861057Y12481093D01*
X53897021Y12431593D01*
X53901444Y12391866D01*
X53895248Y12325000D01*
X53894785Y12320000D01*
X53913603Y12116917D01*
X53969418Y11920750D01*
X54060327Y11738179D01*
X54183236Y11575421D01*
X54333959Y11438019D01*
X54507363Y11330652D01*
X54697544Y11256976D01*
X54898024Y11219500D01*
X55101976Y11219500D01*
X55302456Y11256976D01*
X55492637Y11330652D01*
X55666041Y11438019D01*
X55816764Y11575421D01*
X55939673Y11738179D01*
X56030582Y11920750D01*
X56086397Y12116917D01*
X56105215Y12320000D01*
X56086397Y12523083D01*
X56030582Y12719250D01*
X55939673Y12901821D01*
X55816764Y13064579D01*
X55666041Y13201981D01*
X55492637Y13309348D01*
X55302456Y13383024D01*
X55302451Y13383025D01*
X55220807Y13398288D01*
X55167082Y13427567D01*
X55140827Y13482833D01*
X55140000Y13495602D01*
X55140000Y13684400D01*
X55158907Y13742591D01*
X55208407Y13778555D01*
X55220804Y13781713D01*
X55302456Y13796976D01*
X55492637Y13870652D01*
X55666041Y13978019D01*
X55816764Y14115421D01*
X55939673Y14278179D01*
X56030582Y14460750D01*
X56086397Y14656917D01*
X56105215Y14860000D01*
X56086397Y15063083D01*
X56030582Y15259250D01*
X55939673Y15441821D01*
X55816764Y15604579D01*
X55666041Y15741981D01*
X55492637Y15849348D01*
X55302456Y15923024D01*
X55302451Y15923025D01*
X55220807Y15938288D01*
X55167082Y15967567D01*
X55140827Y16022833D01*
X55140000Y16035602D01*
X55140000Y16224400D01*
X55158907Y16282591D01*
X55208407Y16318555D01*
X55220804Y16321713D01*
X55302456Y16336976D01*
X55492637Y16410652D01*
X55666041Y16518019D01*
X55816764Y16655421D01*
X55939673Y16818179D01*
X56030582Y17000750D01*
X56086397Y17196917D01*
X56105215Y17400000D01*
X56086397Y17603083D01*
X56030582Y17799250D01*
X55939673Y17981821D01*
X55816764Y18144579D01*
X55666041Y18281981D01*
X55492637Y18389348D01*
X55302456Y18463024D01*
X55302451Y18463025D01*
X55220807Y18478288D01*
X55167082Y18507567D01*
X55140827Y18562833D01*
X55140000Y18575602D01*
X55140000Y18764400D01*
X55158907Y18822591D01*
X55208407Y18858555D01*
X55220804Y18861713D01*
X55302456Y18876976D01*
X55492637Y18950652D01*
X55666041Y19058019D01*
X55816764Y19195421D01*
X55939673Y19358179D01*
X56030582Y19540750D01*
X56086397Y19736917D01*
X56105215Y19940000D01*
X56086397Y20143083D01*
X56030582Y20339250D01*
X55939673Y20521821D01*
X55816764Y20684579D01*
X55666041Y20821981D01*
X55492637Y20929348D01*
X55302456Y21003024D01*
X55302451Y21003025D01*
X55220807Y21018288D01*
X55167082Y21047567D01*
X55140827Y21102833D01*
X55140000Y21115602D01*
X55140000Y21304400D01*
X55158907Y21362591D01*
X55208407Y21398555D01*
X55220804Y21401713D01*
X55302456Y21416976D01*
X55492637Y21490652D01*
X55666041Y21598019D01*
X55816764Y21735421D01*
X55939673Y21898179D01*
X56030582Y22080750D01*
X56086397Y22276917D01*
X56105215Y22480000D01*
X56086397Y22683083D01*
X56030582Y22879250D01*
X55939673Y23061821D01*
X55816764Y23224579D01*
X55666041Y23361981D01*
X55492637Y23469348D01*
X55302456Y23543024D01*
X55302451Y23543025D01*
X55220807Y23558288D01*
X55167082Y23587567D01*
X55140827Y23642833D01*
X55140000Y23655602D01*
X55140000Y23844400D01*
X55158907Y23902591D01*
X55208407Y23938555D01*
X55220804Y23941713D01*
X55302456Y23956976D01*
X55492637Y24030652D01*
X55666041Y24138019D01*
X55816764Y24275421D01*
X55939673Y24438179D01*
X56030582Y24620750D01*
X56086397Y24816917D01*
X56105215Y25020000D01*
X56086397Y25223083D01*
X56030582Y25419250D01*
X55939673Y25601821D01*
X55816764Y25764579D01*
X55666041Y25901981D01*
X55492637Y26009348D01*
X55302456Y26083024D01*
X55302451Y26083025D01*
X55220807Y26098288D01*
X55167082Y26127567D01*
X55140827Y26182833D01*
X55140000Y26195602D01*
X55140000Y26384400D01*
X55158907Y26442591D01*
X55208407Y26478555D01*
X55220804Y26481713D01*
X55302456Y26496976D01*
X55492637Y26570652D01*
X55666041Y26678019D01*
X55816764Y26815421D01*
X55939673Y26978179D01*
X56030582Y27160750D01*
X56086397Y27356917D01*
X56105215Y27560000D01*
X56086397Y27763083D01*
X56030582Y27959250D01*
X55939673Y28141821D01*
X55816764Y28304579D01*
X55666041Y28441981D01*
X55492637Y28549348D01*
X55302456Y28623024D01*
X55302451Y28623025D01*
X55220807Y28638288D01*
X55167082Y28667567D01*
X55140827Y28722833D01*
X55140000Y28735602D01*
X55140000Y28924400D01*
X55158907Y28982591D01*
X55208407Y29018555D01*
X55220804Y29021713D01*
X55302456Y29036976D01*
X55492637Y29110652D01*
X55666041Y29218019D01*
X55816764Y29355421D01*
X55939673Y29518179D01*
X56030582Y29700750D01*
X56086397Y29896917D01*
X56105215Y30100000D01*
X56086397Y30303083D01*
X56030582Y30499250D01*
X55939673Y30681821D01*
X55816764Y30844579D01*
X55666041Y30981981D01*
X55492637Y31089348D01*
X55302456Y31163024D01*
X55302451Y31163025D01*
X55220807Y31178288D01*
X55167082Y31207567D01*
X55140827Y31262833D01*
X55140000Y31275602D01*
X55140000Y31464400D01*
X55158907Y31522591D01*
X55208407Y31558555D01*
X55220804Y31561713D01*
X55302456Y31576976D01*
X55492637Y31650652D01*
X55666041Y31758019D01*
X55816764Y31895421D01*
X55939673Y32058179D01*
X56030582Y32240750D01*
X56086397Y32436917D01*
X56105215Y32640000D01*
X56086397Y32843083D01*
X56030582Y33039250D01*
X55939673Y33221821D01*
X55816764Y33384579D01*
X55666041Y33521981D01*
X55492637Y33629348D01*
X55302456Y33703024D01*
X55301627Y33703179D01*
X55220807Y33718288D01*
X55167082Y33747567D01*
X55140827Y33802833D01*
X55140000Y33815602D01*
X55140000Y34004400D01*
X55158907Y34062591D01*
X55208407Y34098555D01*
X55220804Y34101713D01*
X55302456Y34116976D01*
X55492637Y34190652D01*
X55666041Y34298019D01*
X55816764Y34435421D01*
X55939673Y34598179D01*
X56030582Y34780750D01*
X56086397Y34976917D01*
X56105215Y35180000D01*
X56086397Y35383083D01*
X56030582Y35579250D01*
X55939673Y35761821D01*
X55816764Y35924579D01*
X55666041Y36061981D01*
X55492637Y36169348D01*
X55302456Y36243024D01*
X55302451Y36243025D01*
X55220807Y36258288D01*
X55167082Y36287567D01*
X55140827Y36342833D01*
X55140000Y36355602D01*
X55140000Y36544400D01*
X55158907Y36602591D01*
X55208407Y36638555D01*
X55220804Y36641713D01*
X55302456Y36656976D01*
X55492637Y36730652D01*
X55666041Y36838019D01*
X55816764Y36975421D01*
X55939673Y37138179D01*
X56030582Y37320750D01*
X56086397Y37516917D01*
X56105215Y37720000D01*
X56086397Y37923083D01*
X56030582Y38119250D01*
X55939673Y38301821D01*
X55816764Y38464579D01*
X55666041Y38601981D01*
X55492637Y38709348D01*
X55302456Y38783024D01*
X55302451Y38783025D01*
X55220807Y38798288D01*
X55167082Y38827567D01*
X55140827Y38882833D01*
X55140000Y38895602D01*
X55140000Y39084400D01*
X55158907Y39142591D01*
X55208407Y39178555D01*
X55220804Y39181713D01*
X55302456Y39196976D01*
X55492637Y39270652D01*
X55666041Y39378019D01*
X55816764Y39515421D01*
X55939673Y39678179D01*
X56030582Y39860750D01*
X56086397Y40056917D01*
X56105215Y40260000D01*
X56086397Y40463083D01*
X56030582Y40659250D01*
X55939673Y40841821D01*
X55816764Y41004579D01*
X55666041Y41141981D01*
X55492637Y41249348D01*
X55302456Y41323024D01*
X55302451Y41323025D01*
X55220807Y41338288D01*
X55167082Y41367567D01*
X55140827Y41422833D01*
X55140000Y41435602D01*
X55140000Y41624400D01*
X55158907Y41682591D01*
X55208407Y41718555D01*
X55220804Y41721713D01*
X55302456Y41736976D01*
X55492637Y41810652D01*
X55666041Y41918019D01*
X55816764Y42055421D01*
X55939673Y42218179D01*
X56030582Y42400750D01*
X56086397Y42596917D01*
X56105215Y42800000D01*
X56086397Y43003083D01*
X56030582Y43199250D01*
X55939673Y43381821D01*
X55816764Y43544579D01*
X55666041Y43681981D01*
X55492637Y43789348D01*
X55302456Y43863024D01*
X55302451Y43863025D01*
X55220807Y43878288D01*
X55167082Y43907567D01*
X55140827Y43962833D01*
X55140000Y43975602D01*
X55140000Y44164400D01*
X55158907Y44222591D01*
X55208407Y44258555D01*
X55220804Y44261713D01*
X55302456Y44276976D01*
X55492637Y44350652D01*
X55666041Y44458019D01*
X55816764Y44595421D01*
X55939673Y44758179D01*
X56030582Y44940750D01*
X56086397Y45136917D01*
X56105215Y45340000D01*
X56086397Y45543083D01*
X56030582Y45739250D01*
X55939673Y45921821D01*
X55816764Y46084579D01*
X55666041Y46221981D01*
X55492637Y46329348D01*
X55302456Y46403024D01*
X55302451Y46403025D01*
X55220807Y46418288D01*
X55167082Y46447567D01*
X55140827Y46502833D01*
X55140000Y46515602D01*
X55140000Y46704400D01*
X55158907Y46762591D01*
X55208407Y46798555D01*
X55220804Y46801713D01*
X55302456Y46816976D01*
X55492637Y46890652D01*
X55666041Y46998019D01*
X55816764Y47135421D01*
X55939673Y47298179D01*
X56030582Y47480750D01*
X56086397Y47676917D01*
X56105215Y47880000D01*
X56086397Y48083083D01*
X56030582Y48279250D01*
X55939673Y48461821D01*
X55816764Y48624579D01*
X55666041Y48761981D01*
X55492637Y48869348D01*
X55302456Y48943024D01*
X55302451Y48943025D01*
X55220807Y48958288D01*
X55167082Y48987567D01*
X55140827Y49042833D01*
X55140000Y49055602D01*
X55140000Y49244400D01*
X55158907Y49302591D01*
X55208407Y49338555D01*
X55220804Y49341713D01*
X55302456Y49356976D01*
X55492637Y49430652D01*
X55666041Y49538019D01*
X55816764Y49675421D01*
X55939673Y49838179D01*
X56030582Y50020750D01*
X56086397Y50216917D01*
X56105215Y50420000D01*
X56086397Y50623083D01*
X56030582Y50819250D01*
X55939673Y51001821D01*
X55816764Y51164579D01*
X55666041Y51301981D01*
X55492637Y51409348D01*
X55302456Y51483024D01*
X55302451Y51483025D01*
X55220807Y51498288D01*
X55167082Y51527567D01*
X55140827Y51582833D01*
X55140000Y51595602D01*
X55140000Y51784400D01*
X55158907Y51842591D01*
X55208407Y51878555D01*
X55220804Y51881713D01*
X55302456Y51896976D01*
X55492637Y51970652D01*
X55666041Y52078019D01*
X55816764Y52215421D01*
X55939673Y52378179D01*
X56030582Y52560750D01*
X56086397Y52756917D01*
X56105215Y52960000D01*
X56086397Y53163083D01*
X56030582Y53359250D01*
X55939673Y53541821D01*
X55816764Y53704579D01*
X55666041Y53841981D01*
X55492637Y53949348D01*
X55302456Y54023024D01*
X55302451Y54023025D01*
X55220807Y54038288D01*
X55167082Y54067567D01*
X55140827Y54122833D01*
X55140000Y54135602D01*
X55140000Y54300500D01*
X55158907Y54358691D01*
X55208407Y54394655D01*
X55239000Y54399500D01*
X55874673Y54399500D01*
X55874674Y54399500D01*
X55947740Y54414034D01*
X56030601Y54469399D01*
X56085966Y54552260D01*
X56100500Y54625326D01*
X56100500Y56374674D01*
X56085966Y56447740D01*
X56030601Y56530601D01*
X56030599Y56530603D01*
X55947742Y56585965D01*
X55947740Y56585966D01*
X55947737Y56585967D01*
X55947736Y56585967D01*
X55874684Y56600499D01*
X55874674Y56600500D01*
X54125326Y56600500D01*
X54125325Y56600500D01*
X54125315Y56600499D01*
X54052263Y56585967D01*
X54052257Y56585965D01*
X53969400Y56530603D01*
X53969397Y56530600D01*
X53914035Y56447743D01*
X53914033Y56447737D01*
X53899501Y56374685D01*
X53899500Y56374673D01*
X53899500Y55576191D01*
X53880593Y55518000D01*
X53870504Y55506187D01*
X48115118Y49750802D01*
X48099265Y49737929D01*
X48089335Y49731441D01*
X48089332Y49731439D01*
X48068664Y49704886D01*
X48064605Y49700288D01*
X48061619Y49697302D01*
X48048955Y49679563D01*
X48017483Y49639126D01*
X48013981Y49632657D01*
X48010758Y49626064D01*
X47996138Y49576955D01*
X47979499Y49528488D01*
X47978293Y49521257D01*
X47977383Y49513953D01*
X47979500Y49462769D01*
X47979500Y48520508D01*
X47960593Y48462317D01*
X47950504Y48450504D01*
X44090000Y44590000D01*
X44090000Y44335158D01*
X44084636Y44303013D01*
X44074499Y44273487D01*
X44073294Y44266264D01*
X44072383Y44258953D01*
X44074500Y44207769D01*
X44074500Y37886190D01*
X44055593Y37827999D01*
X44045504Y37816186D01*
X42948314Y36718996D01*
X42893797Y36691219D01*
X42878310Y36690000D01*
X34256830Y36690000D01*
X34198639Y36708907D01*
X34167889Y36745519D01*
X34113785Y36856189D01*
X34031187Y36938787D01*
X33926248Y36990088D01*
X33858216Y37000000D01*
X33537501Y37000000D01*
X33537500Y36999999D01*
X33537500Y36649500D01*
X33518593Y36591309D01*
X33469093Y36555345D01*
X33438500Y36550500D01*
X33427007Y36550500D01*
X33368816Y36569407D01*
X33332852Y36618907D01*
X33332852Y36680093D01*
X33337500Y36687678D01*
X33337500Y36999999D01*
X33337499Y37000000D01*
X33099000Y37000000D01*
X33040809Y37018907D01*
X33004845Y37068407D01*
X33000000Y37099000D01*
X33000000Y37337499D01*
X32999999Y37337500D01*
X32700001Y37337500D01*
X32700000Y37337499D01*
X32700000Y36701892D01*
X32701891Y36700000D01*
X32855885Y36700000D01*
X32914076Y36681093D01*
X32950040Y36631593D01*
X32950040Y36570407D01*
X32914076Y36520907D01*
X32895878Y36510438D01*
X32891345Y36508437D01*
X32851356Y36500000D01*
X32702446Y36500000D01*
X32709913Y36448747D01*
X32743592Y36379857D01*
X32752992Y36324966D01*
X32749500Y36294870D01*
X32749500Y36105139D01*
X32749501Y36105136D01*
X32752415Y36080009D01*
X32770086Y36039988D01*
X32776294Y35979118D01*
X32770086Y35960013D01*
X32752415Y35919992D01*
X32752414Y35919989D01*
X32749500Y35894870D01*
X32749500Y35705139D01*
X32749501Y35705136D01*
X32752415Y35680009D01*
X32770086Y35639988D01*
X32776294Y35579118D01*
X32770086Y35560013D01*
X32752415Y35519992D01*
X32752414Y35519989D01*
X32749500Y35494870D01*
X32749500Y35305139D01*
X32749501Y35305136D01*
X32752415Y35280009D01*
X32770086Y35239988D01*
X32776294Y35179118D01*
X32770086Y35160013D01*
X32752415Y35119992D01*
X32752414Y35119989D01*
X32749500Y35094870D01*
X32749500Y34905139D01*
X32749501Y34905136D01*
X32752415Y34880009D01*
X32770086Y34839988D01*
X32776294Y34779118D01*
X32770086Y34760013D01*
X32752415Y34719992D01*
X32752414Y34719989D01*
X32749500Y34694870D01*
X32749500Y34505139D01*
X32749501Y34505136D01*
X32752415Y34480009D01*
X32770086Y34439988D01*
X32776294Y34379118D01*
X32770086Y34360013D01*
X32752415Y34319992D01*
X32752414Y34319989D01*
X32749500Y34294870D01*
X32749500Y34105139D01*
X32749501Y34105136D01*
X32752415Y34080009D01*
X32770086Y34039988D01*
X32776294Y33979118D01*
X32770086Y33960013D01*
X32752415Y33919992D01*
X32752414Y33919989D01*
X32749500Y33894870D01*
X32749500Y33705139D01*
X32749501Y33705136D01*
X32752415Y33680009D01*
X32770086Y33639988D01*
X32776294Y33579118D01*
X32770086Y33560013D01*
X32752415Y33519992D01*
X32752414Y33519989D01*
X32749500Y33494870D01*
X32749500Y33305139D01*
X32749501Y33305131D01*
X32752992Y33275026D01*
X32743592Y33220145D01*
X32709912Y33151251D01*
X32702446Y33100000D01*
X32851356Y33100000D01*
X32891322Y33091574D01*
X32893587Y33090574D01*
X32939192Y33049786D01*
X32952111Y32989980D01*
X32927411Y32934002D01*
X32893653Y32909456D01*
X32892362Y32908886D01*
X32891386Y32908455D01*
X32851356Y32900000D01*
X32702446Y32900000D01*
X32709913Y32848747D01*
X32743592Y32779857D01*
X32752992Y32724966D01*
X32749500Y32694870D01*
X32749500Y32505139D01*
X32749501Y32505136D01*
X32752415Y32480009D01*
X32770086Y32439988D01*
X32776294Y32379118D01*
X32770086Y32360013D01*
X32752415Y32319992D01*
X32752414Y32319989D01*
X32749500Y32294870D01*
X32749500Y32105139D01*
X32749501Y32105136D01*
X32752415Y32080009D01*
X32770086Y32039988D01*
X32776294Y31979118D01*
X32770086Y31960013D01*
X32752415Y31919992D01*
X32752414Y31919989D01*
X32749500Y31894870D01*
X32749500Y31705139D01*
X32749501Y31705136D01*
X32752415Y31680009D01*
X32770086Y31639988D01*
X32776294Y31579118D01*
X32770086Y31560013D01*
X32752415Y31519992D01*
X32752414Y31519989D01*
X32749500Y31494870D01*
X32749500Y31349500D01*
X32730593Y31291309D01*
X32681093Y31255345D01*
X32650501Y31250500D01*
X32505138Y31250500D01*
X32505135Y31250499D01*
X32480007Y31247585D01*
X32439986Y31229914D01*
X32379116Y31223706D01*
X32360016Y31229913D01*
X32319991Y31247585D01*
X32319990Y31247586D01*
X32319988Y31247586D01*
X32294868Y31250500D01*
X32105138Y31250500D01*
X32105135Y31250499D01*
X32080007Y31247585D01*
X32039986Y31229914D01*
X31979116Y31223706D01*
X31960016Y31229913D01*
X31919991Y31247585D01*
X31919990Y31247586D01*
X31919988Y31247586D01*
X31894868Y31250500D01*
X31705138Y31250500D01*
X31705135Y31250499D01*
X31680007Y31247585D01*
X31639986Y31229914D01*
X31579116Y31223706D01*
X31560016Y31229913D01*
X31519991Y31247585D01*
X31519990Y31247586D01*
X31519988Y31247586D01*
X31494868Y31250500D01*
X31305138Y31250500D01*
X31305135Y31250499D01*
X31280007Y31247585D01*
X31239986Y31229914D01*
X31179116Y31223706D01*
X31160016Y31229913D01*
X31119991Y31247585D01*
X31119990Y31247586D01*
X31119988Y31247586D01*
X31094868Y31250500D01*
X30905138Y31250500D01*
X30905135Y31250499D01*
X30880007Y31247585D01*
X30839986Y31229914D01*
X30779116Y31223706D01*
X30760016Y31229913D01*
X30719991Y31247585D01*
X30719990Y31247586D01*
X30719988Y31247586D01*
X30694868Y31250500D01*
X30505138Y31250500D01*
X30505130Y31250499D01*
X30475025Y31247008D01*
X30420143Y31256408D01*
X30351246Y31290089D01*
X30300000Y31297557D01*
X30300000Y31148645D01*
X30291566Y31108660D01*
X30290566Y31106395D01*
X30249767Y31060798D01*
X30189958Y31047891D01*
X30133986Y31072603D01*
X30109434Y31106395D01*
X30108434Y31108660D01*
X30100000Y31148645D01*
X30100000Y31297555D01*
X30048751Y31290088D01*
X29979856Y31256407D01*
X29924966Y31247008D01*
X29894868Y31250500D01*
X29705138Y31250500D01*
X29705135Y31250499D01*
X29680007Y31247585D01*
X29639986Y31229914D01*
X29579116Y31223706D01*
X29560016Y31229913D01*
X29519991Y31247585D01*
X29519990Y31247586D01*
X29519988Y31247586D01*
X29494868Y31250500D01*
X29305138Y31250500D01*
X29305135Y31250499D01*
X29280007Y31247585D01*
X29239986Y31229914D01*
X29179116Y31223706D01*
X29160016Y31229913D01*
X29119991Y31247585D01*
X29119990Y31247586D01*
X29119988Y31247586D01*
X29094868Y31250500D01*
X28905138Y31250500D01*
X28905135Y31250499D01*
X28880007Y31247585D01*
X28839986Y31229914D01*
X28779116Y31223706D01*
X28760016Y31229913D01*
X28719991Y31247585D01*
X28719990Y31247586D01*
X28719988Y31247586D01*
X28694868Y31250500D01*
X28505138Y31250500D01*
X28505135Y31250499D01*
X28480007Y31247585D01*
X28439986Y31229914D01*
X28379116Y31223706D01*
X28360016Y31229913D01*
X28319991Y31247585D01*
X28319990Y31247586D01*
X28319988Y31247586D01*
X28294868Y31250500D01*
X28105138Y31250500D01*
X28105135Y31250499D01*
X28080007Y31247585D01*
X28039986Y31229914D01*
X27979116Y31223706D01*
X27960016Y31229913D01*
X27919991Y31247585D01*
X27919990Y31247586D01*
X27919988Y31247586D01*
X27894868Y31250500D01*
X27705138Y31250500D01*
X27705135Y31250499D01*
X27680007Y31247585D01*
X27639986Y31229914D01*
X27579116Y31223706D01*
X27560016Y31229913D01*
X27519991Y31247585D01*
X27519990Y31247586D01*
X27519988Y31247586D01*
X27494869Y31250500D01*
X27349499Y31250500D01*
X27291308Y31269407D01*
X27255344Y31318907D01*
X27250499Y31349496D01*
X27250499Y31494864D01*
X27247585Y31519991D01*
X27235832Y31546608D01*
X27229914Y31560012D01*
X27223705Y31620881D01*
X27229911Y31639983D01*
X27247585Y31680009D01*
X27250500Y31705135D01*
X27250499Y31894864D01*
X27247585Y31919991D01*
X27229914Y31960012D01*
X27223705Y32020881D01*
X27229911Y32039983D01*
X27247585Y32080009D01*
X27250500Y32105135D01*
X27250499Y32294864D01*
X27247585Y32319991D01*
X27229914Y32360012D01*
X27223705Y32420881D01*
X27229911Y32439983D01*
X27247585Y32480009D01*
X27250500Y32505135D01*
X27250499Y32694864D01*
X27247585Y32719991D01*
X27247584Y32719993D01*
X27247007Y32724972D01*
X27256407Y32779858D01*
X27290087Y32848754D01*
X27297554Y32900000D01*
X27148644Y32900000D01*
X27108660Y32908434D01*
X27106392Y32909435D01*
X27060797Y32950233D01*
X27047890Y33010042D01*
X27072602Y33066014D01*
X27106392Y33090565D01*
X27108660Y33091567D01*
X27148644Y33100000D01*
X27297553Y33100000D01*
X27290087Y33151251D01*
X27256407Y33220144D01*
X27247008Y33275035D01*
X27247585Y33280009D01*
X27250500Y33305135D01*
X27250499Y33494864D01*
X27247585Y33519991D01*
X27229914Y33560012D01*
X27223705Y33620881D01*
X27229911Y33639983D01*
X27247585Y33680009D01*
X27250500Y33705135D01*
X27250499Y33894864D01*
X27247585Y33919991D01*
X27229914Y33960012D01*
X27223705Y34020881D01*
X27229911Y34039983D01*
X27247585Y34080009D01*
X27250500Y34105135D01*
X27250499Y34294864D01*
X27247585Y34319991D01*
X27229914Y34360012D01*
X27223705Y34420881D01*
X27229911Y34439983D01*
X27247585Y34480009D01*
X27250500Y34505135D01*
X27250499Y34694864D01*
X27247585Y34719991D01*
X27229914Y34760012D01*
X27223705Y34820881D01*
X27229911Y34839983D01*
X27247585Y34880009D01*
X27250500Y34905135D01*
X27250499Y35094864D01*
X27247585Y35119991D01*
X27229914Y35160012D01*
X27223705Y35220881D01*
X27229911Y35239983D01*
X27247585Y35280009D01*
X27250500Y35305135D01*
X27250499Y35494864D01*
X27247585Y35519991D01*
X27229914Y35560012D01*
X27223705Y35620881D01*
X27229911Y35639983D01*
X27247585Y35680009D01*
X27250500Y35705135D01*
X27250499Y35894864D01*
X27247585Y35919991D01*
X27229914Y35960012D01*
X27223705Y36020881D01*
X27229911Y36039983D01*
X27247585Y36080009D01*
X27250500Y36105135D01*
X27250499Y36294864D01*
X27247585Y36319991D01*
X27247584Y36319993D01*
X27247007Y36324972D01*
X27256407Y36379858D01*
X27290087Y36448754D01*
X27297554Y36500000D01*
X27148644Y36500000D01*
X27108654Y36508437D01*
X27104122Y36510438D01*
X27058529Y36551240D01*
X27045626Y36611050D01*
X27070343Y36667020D01*
X27123238Y36697774D01*
X27144115Y36700000D01*
X27297555Y36700000D01*
X27310753Y36715261D01*
X27363119Y36746907D01*
X27385628Y36749501D01*
X27494864Y36749501D01*
X27519991Y36752415D01*
X27560011Y36770087D01*
X27620879Y36776295D01*
X27639989Y36770086D01*
X27680009Y36752415D01*
X27680008Y36752415D01*
X27684478Y36751897D01*
X27705135Y36749500D01*
X27894864Y36749501D01*
X27919991Y36752415D01*
X27960011Y36770087D01*
X28020879Y36776295D01*
X28039989Y36770086D01*
X28080009Y36752415D01*
X28080008Y36752415D01*
X28084478Y36751897D01*
X28105135Y36749500D01*
X28294864Y36749501D01*
X28319991Y36752415D01*
X28360011Y36770087D01*
X28420879Y36776295D01*
X28439989Y36770086D01*
X28480009Y36752415D01*
X28480008Y36752415D01*
X28484478Y36751897D01*
X28505135Y36749500D01*
X28694864Y36749501D01*
X28719991Y36752415D01*
X28760011Y36770087D01*
X28820879Y36776295D01*
X28839989Y36770086D01*
X28880009Y36752415D01*
X28880008Y36752415D01*
X28884478Y36751897D01*
X28905135Y36749500D01*
X29009902Y36749501D01*
X29068092Y36730594D01*
X29104056Y36681095D01*
X29104057Y36619909D01*
X29068093Y36570409D01*
X29051036Y36560451D01*
X29049948Y36559955D01*
X28928873Y36482145D01*
X28834622Y36373372D01*
X28774834Y36242457D01*
X28754353Y36100003D01*
X28754353Y36099999D01*
X28759588Y36063590D01*
X28749155Y36003301D01*
X28705277Y35960658D01*
X28661596Y35950500D01*
X28631012Y35950500D01*
X28477634Y35912696D01*
X28477633Y35912696D01*
X28361912Y35851961D01*
X28335223Y35842524D01*
X28302260Y35835967D01*
X28302258Y35835966D01*
X28219400Y35780603D01*
X28219397Y35780600D01*
X28164034Y35697742D01*
X28164033Y35697739D01*
X28155845Y35656577D01*
X28140226Y35619658D01*
X28129782Y35604527D01*
X28129780Y35604524D01*
X28073763Y35456818D01*
X28073762Y35456817D01*
X28054722Y35300002D01*
X28054722Y35299999D01*
X28073762Y35143184D01*
X28073763Y35143182D01*
X28129780Y34995477D01*
X28129781Y34995475D01*
X28131973Y34992300D01*
X28149500Y34936059D01*
X28149500Y34311929D01*
X28143067Y34276824D01*
X28093764Y34146821D01*
X28093762Y34146817D01*
X28074722Y33990002D01*
X28074722Y33989999D01*
X28093762Y33833184D01*
X28093763Y33833182D01*
X28143067Y33703179D01*
X28149500Y33668073D01*
X28149500Y33061929D01*
X28143067Y33026824D01*
X28093764Y32896821D01*
X28093762Y32896817D01*
X28074722Y32740002D01*
X28074722Y32739999D01*
X28093762Y32583184D01*
X28093763Y32583182D01*
X28143067Y32453179D01*
X28149500Y32418073D01*
X28149500Y32375328D01*
X28149501Y32375316D01*
X28164033Y32302264D01*
X28164035Y32302258D01*
X28219397Y32219401D01*
X28219399Y32219399D01*
X28302260Y32164034D01*
X28357808Y32152985D01*
X28375315Y32149502D01*
X28375320Y32149502D01*
X28375326Y32149500D01*
X28430943Y32149500D01*
X28476952Y32138159D01*
X28497633Y32127305D01*
X28497635Y32127304D01*
X28651015Y32089500D01*
X28651018Y32089500D01*
X28808982Y32089500D01*
X28808985Y32089500D01*
X28962365Y32127304D01*
X28972258Y32132497D01*
X28983048Y32138159D01*
X29029057Y32149500D01*
X29606624Y32149500D01*
X29652631Y32138161D01*
X29787635Y32067304D01*
X29941015Y32029500D01*
X29941018Y32029500D01*
X30098982Y32029500D01*
X30098985Y32029500D01*
X30252365Y32067304D01*
X30387368Y32138161D01*
X30433376Y32149500D01*
X30905677Y32149500D01*
X30951685Y32138160D01*
X31014606Y32105136D01*
X31067635Y32077304D01*
X31221015Y32039500D01*
X31221018Y32039500D01*
X31378982Y32039500D01*
X31378985Y32039500D01*
X31532365Y32077304D01*
X31672240Y32150717D01*
X31672250Y32150727D01*
X31673572Y32151637D01*
X31691928Y32161627D01*
X31697737Y32164034D01*
X31697740Y32164034D01*
X31780601Y32219399D01*
X31835966Y32302260D01*
X31837310Y32309020D01*
X31852932Y32345945D01*
X31880220Y32385477D01*
X31936237Y32533182D01*
X31955278Y32690000D01*
X31954687Y32694864D01*
X31942584Y32794546D01*
X31936237Y32846818D01*
X31880220Y32994523D01*
X31868023Y33012193D01*
X31850500Y33068430D01*
X31850500Y33646059D01*
X31868027Y33702300D01*
X31869981Y33705131D01*
X31870220Y33705477D01*
X31926237Y33853182D01*
X31941528Y33979118D01*
X31945278Y34009999D01*
X31945278Y34010002D01*
X31932289Y34116978D01*
X31926237Y34166818D01*
X31870220Y34314523D01*
X31870218Y34314526D01*
X31870215Y34314532D01*
X31868022Y34317709D01*
X31850500Y34373943D01*
X31850500Y34926059D01*
X31868027Y34982300D01*
X31870220Y34985477D01*
X31926237Y35133182D01*
X31945278Y35290000D01*
X31943440Y35305135D01*
X31926237Y35446817D01*
X31926237Y35446818D01*
X31870220Y35594523D01*
X31863315Y35604527D01*
X31862570Y35605607D01*
X31846949Y35642529D01*
X31839493Y35680010D01*
X31835966Y35697740D01*
X31780601Y35780601D01*
X31780599Y35780603D01*
X31697742Y35835965D01*
X31697737Y35835967D01*
X31634096Y35848627D01*
X31607406Y35858063D01*
X31592978Y35865635D01*
X31550239Y35909418D01*
X31541397Y35969961D01*
X31568980Y36023299D01*
X32014876Y36469196D01*
X32030731Y36482072D01*
X32040669Y36488563D01*
X32061341Y36515125D01*
X32065399Y36519719D01*
X32068375Y36522694D01*
X32071176Y36526618D01*
X32081039Y36540431D01*
X32112516Y36580873D01*
X32116023Y36587355D01*
X32119239Y36593933D01*
X32119238Y36593933D01*
X32119240Y36593934D01*
X32133861Y36643046D01*
X32140044Y36661059D01*
X32176819Y36709956D01*
X32235314Y36727901D01*
X32293184Y36708036D01*
X32298442Y36703794D01*
X32300000Y36702447D01*
X32351251Y36709914D01*
X32356516Y36712487D01*
X32417098Y36721060D01*
X32443478Y36712490D01*
X32448751Y36709913D01*
X32500000Y36702446D01*
X32500000Y37337499D01*
X32499999Y37337500D01*
X32281226Y37337500D01*
X32264987Y37329226D01*
X32204555Y37338797D01*
X32161290Y37382062D01*
X32150500Y37427007D01*
X32150500Y37447993D01*
X32169407Y37506184D01*
X32218907Y37542148D01*
X32280093Y37542148D01*
X32287678Y37537500D01*
X32499999Y37537500D01*
X32500000Y37537501D01*
X32500000Y38172555D01*
X32448746Y38165087D01*
X32443475Y38162510D01*
X32382892Y38153942D01*
X32356522Y38162511D01*
X32351251Y38165088D01*
X32351245Y38165090D01*
X32299999Y38172557D01*
X32700000Y38172557D01*
X32700000Y37537501D01*
X32700001Y37537500D01*
X32999998Y37537500D01*
X32999999Y37537501D01*
X32999999Y37801997D01*
X35425001Y37801997D01*
X35427786Y37772279D01*
X35427787Y37772274D01*
X35471594Y37647080D01*
X35550358Y37540361D01*
X35550360Y37540359D01*
X35657079Y37461595D01*
X35782272Y37417788D01*
X35811999Y37415001D01*
X35855000Y37415002D01*
X35855000Y37874999D01*
X35854999Y37875000D01*
X35425002Y37875000D01*
X35425001Y37874999D01*
X35425001Y37801997D01*
X32999999Y37801997D01*
X32999999Y37858214D01*
X32999998Y37858217D01*
X32990087Y37926251D01*
X32938785Y38031189D01*
X32856187Y38113787D01*
X32751246Y38165089D01*
X32700000Y38172557D01*
X32299999Y38172557D01*
X32288854Y38174181D01*
X32257877Y38161125D01*
X32198466Y38175001D01*
X35425000Y38175001D01*
X35425001Y38175000D01*
X36056000Y38175000D01*
X36114191Y38156093D01*
X36150155Y38106593D01*
X36155000Y38076000D01*
X36155000Y37415002D01*
X36155001Y37415001D01*
X36198004Y37415001D01*
X36227721Y37417787D01*
X36227726Y37417788D01*
X36352920Y37461595D01*
X36464592Y37544015D01*
X36522640Y37563358D01*
X36580971Y37544888D01*
X36591636Y37535849D01*
X36592605Y37535145D01*
X36592609Y37535141D01*
X36702825Y37478983D01*
X36794265Y37464500D01*
X37135734Y37464501D01*
X37135737Y37464501D01*
X37166711Y37469407D01*
X37227175Y37478983D01*
X37337391Y37535141D01*
X37424859Y37622609D01*
X37424861Y37622615D01*
X37429439Y37628913D01*
X37431052Y37627741D01*
X37467021Y37663709D01*
X37511966Y37674500D01*
X37629251Y37674500D01*
X37687442Y37655593D01*
X37694227Y37649798D01*
X37697378Y37647380D01*
X37697379Y37647379D01*
X37812375Y37559139D01*
X37946291Y37503670D01*
X38090000Y37484750D01*
X38233709Y37503670D01*
X38367625Y37559139D01*
X38482621Y37647379D01*
X38570861Y37762375D01*
X38626330Y37896291D01*
X38645250Y38040000D01*
X38640510Y38076000D01*
X38626330Y38183709D01*
X38570861Y38317625D01*
X38482621Y38432621D01*
X38367625Y38520861D01*
X38367621Y38520863D01*
X38233709Y38576330D01*
X38233708Y38576331D01*
X38090000Y38595250D01*
X37946291Y38576331D01*
X37946290Y38576330D01*
X37812378Y38520863D01*
X37812374Y38520861D01*
X37697374Y38432618D01*
X37683267Y38414232D01*
X37632842Y38379577D01*
X37604726Y38375500D01*
X37511966Y38375500D01*
X37453775Y38394407D01*
X37430395Y38421782D01*
X37429439Y38421087D01*
X37424860Y38427389D01*
X37424859Y38427391D01*
X37337391Y38514859D01*
X37227175Y38571017D01*
X37227176Y38571017D01*
X37135736Y38585500D01*
X36794262Y38585500D01*
X36702825Y38571017D01*
X36702821Y38571016D01*
X36592609Y38514859D01*
X36586304Y38510278D01*
X36585377Y38511554D01*
X36538859Y38487857D01*
X36478428Y38497435D01*
X36464593Y38505986D01*
X36352924Y38588404D01*
X36229603Y38631555D01*
X36180922Y38668621D01*
X36163325Y38727221D01*
X36183533Y38784973D01*
X36229603Y38818445D01*
X36352922Y38861597D01*
X36464592Y38944015D01*
X36522640Y38963358D01*
X36580971Y38944888D01*
X36591636Y38935849D01*
X36592605Y38935145D01*
X36592609Y38935141D01*
X36702825Y38878983D01*
X36794265Y38864500D01*
X37135734Y38864501D01*
X37135737Y38864501D01*
X37162332Y38868714D01*
X37227175Y38878983D01*
X37337391Y38935141D01*
X37424859Y39022609D01*
X37424861Y39022615D01*
X37429439Y39028913D01*
X37431052Y39027741D01*
X37467021Y39063709D01*
X37511966Y39074500D01*
X37624726Y39074500D01*
X37682917Y39055593D01*
X37703267Y39035768D01*
X37717375Y39017383D01*
X37717374Y39017383D01*
X37717378Y39017380D01*
X37717379Y39017379D01*
X37832375Y38929139D01*
X37966291Y38873670D01*
X38110000Y38854750D01*
X38253709Y38873670D01*
X38387625Y38929139D01*
X38502621Y39017379D01*
X38590861Y39132375D01*
X38646330Y39266291D01*
X38665250Y39410000D01*
X38646330Y39553709D01*
X38590861Y39687625D01*
X38502621Y39802621D01*
X38387625Y39890861D01*
X38387621Y39890863D01*
X38253709Y39946330D01*
X38253708Y39946331D01*
X38110000Y39965250D01*
X37966291Y39946331D01*
X37966290Y39946330D01*
X37832378Y39890863D01*
X37832374Y39890861D01*
X37793131Y39860748D01*
X37717379Y39802621D01*
X37717378Y39802620D01*
X37712232Y39798671D01*
X37710992Y39800287D01*
X37664738Y39776719D01*
X37649251Y39775500D01*
X37511966Y39775500D01*
X37453775Y39794407D01*
X37430395Y39821782D01*
X37429439Y39821087D01*
X37424860Y39827389D01*
X37424859Y39827391D01*
X37337391Y39914859D01*
X37227175Y39971017D01*
X37227176Y39971017D01*
X37135736Y39985500D01*
X36794262Y39985500D01*
X36702825Y39971017D01*
X36702821Y39971016D01*
X36592609Y39914859D01*
X36586304Y39910278D01*
X36585377Y39911554D01*
X36538859Y39887857D01*
X36478428Y39897435D01*
X36464593Y39905986D01*
X36352922Y39988405D01*
X36227727Y40032213D01*
X36198000Y40035000D01*
X36155001Y40035000D01*
X36155000Y40034999D01*
X36155000Y39374000D01*
X36136093Y39315809D01*
X36086593Y39279845D01*
X36056000Y39275000D01*
X35425002Y39275000D01*
X35425001Y39274999D01*
X35425001Y39201997D01*
X35427786Y39172279D01*
X35427787Y39172274D01*
X35471594Y39047080D01*
X35550358Y38940361D01*
X35550360Y38940359D01*
X35657079Y38861595D01*
X35780397Y38818444D01*
X35829077Y38781379D01*
X35846674Y38722779D01*
X35826466Y38665027D01*
X35780397Y38631556D01*
X35657079Y38588406D01*
X35550360Y38509642D01*
X35550358Y38509640D01*
X35471594Y38402921D01*
X35427787Y38277728D01*
X35425000Y38248001D01*
X35425000Y38175001D01*
X32198466Y38175001D01*
X32198295Y38175041D01*
X32158272Y38221320D01*
X32150500Y38259770D01*
X32150500Y39271311D01*
X32169407Y39329502D01*
X32179490Y39341309D01*
X32413182Y39575001D01*
X35425000Y39575001D01*
X35425001Y39575000D01*
X35854999Y39575000D01*
X35855000Y39575001D01*
X35855000Y40035001D01*
X35811997Y40035000D01*
X35782278Y40032214D01*
X35782273Y40032213D01*
X35657079Y39988406D01*
X35550360Y39909642D01*
X35550358Y39909640D01*
X35471594Y39802921D01*
X35427787Y39677728D01*
X35425000Y39648001D01*
X35425000Y39575001D01*
X32413182Y39575001D01*
X32736186Y39898006D01*
X32790703Y39925782D01*
X32806190Y39927001D01*
X33000737Y39927001D01*
X33027332Y39931214D01*
X33092175Y39941483D01*
X33202391Y39997641D01*
X33202395Y39997646D01*
X33204227Y39998975D01*
X33206384Y39999677D01*
X33209334Y40001179D01*
X33209571Y40000712D01*
X33262417Y40017885D01*
X33320609Y39998980D01*
X33321209Y39998540D01*
X33422077Y39924096D01*
X33547272Y39880288D01*
X33576999Y39877501D01*
X33649999Y39877502D01*
X33650000Y39877502D01*
X33950000Y39877502D01*
X33950001Y39877501D01*
X34023004Y39877501D01*
X34052721Y39880287D01*
X34052726Y39880288D01*
X34177920Y39924095D01*
X34284639Y40002859D01*
X34284641Y40002861D01*
X34363405Y40109580D01*
X34407212Y40234773D01*
X34410000Y40264500D01*
X34410000Y40307499D01*
X34409999Y40307500D01*
X33950001Y40307500D01*
X33950000Y40307499D01*
X33950000Y39877502D01*
X33650000Y39877502D01*
X33650000Y40508500D01*
X33668907Y40566691D01*
X33718407Y40602655D01*
X33749000Y40607500D01*
X34409998Y40607500D01*
X34409999Y40607501D01*
X34409999Y40650504D01*
X34407213Y40680222D01*
X34407212Y40680227D01*
X34363405Y40805421D01*
X34280985Y40917094D01*
X34261643Y40975142D01*
X34280114Y41033472D01*
X34289144Y41044126D01*
X34289857Y41045106D01*
X34300000Y41065012D01*
X34346017Y41155325D01*
X34360500Y41246765D01*
X34360499Y41588234D01*
X34360499Y41588238D01*
X34353340Y41633434D01*
X34346017Y41679675D01*
X34289859Y41789891D01*
X34204494Y41875256D01*
X34176719Y41929770D01*
X34175500Y41945257D01*
X34175500Y42219251D01*
X34194407Y42277442D01*
X34200199Y42284225D01*
X34202616Y42287376D01*
X34202621Y42287379D01*
X34290861Y42402375D01*
X34346330Y42536291D01*
X34365250Y42680000D01*
X34346330Y42823709D01*
X34290861Y42957625D01*
X34202621Y43072621D01*
X34087625Y43160861D01*
X34087621Y43160863D01*
X33953709Y43216330D01*
X33953708Y43216331D01*
X33810000Y43235250D01*
X33666291Y43216331D01*
X33666290Y43216330D01*
X33532378Y43160863D01*
X33532374Y43160861D01*
X33417381Y43072623D01*
X33417373Y43072615D01*
X33379704Y43023524D01*
X33329279Y42988868D01*
X33268115Y42990471D01*
X33222621Y43023524D01*
X33192621Y43062621D01*
X33077625Y43150861D01*
X33077621Y43150863D01*
X32943709Y43206330D01*
X32943711Y43206330D01*
X32916074Y43209969D01*
X32860850Y43236312D01*
X32831657Y43290084D01*
X32830000Y43308122D01*
X32830000Y45481936D01*
X38250000Y45481936D01*
X38260613Y45393557D01*
X38316080Y45252905D01*
X38407435Y45132436D01*
X38527904Y45041081D01*
X38668556Y44985614D01*
X38756935Y44975001D01*
X38756942Y44975000D01*
X38899999Y44975000D01*
X38900000Y44975001D01*
X39200000Y44975001D01*
X39200001Y44975000D01*
X39343058Y44975000D01*
X39343064Y44975001D01*
X39431443Y44985614D01*
X39572095Y45041081D01*
X39692564Y45132436D01*
X39783919Y45252905D01*
X39839386Y45393557D01*
X39849422Y45477134D01*
X40199500Y45477134D01*
X40199501Y45477130D01*
X40205908Y45417520D01*
X40205909Y45417515D01*
X40256202Y45282671D01*
X40278485Y45252905D01*
X40342454Y45167454D01*
X40342457Y45167452D01*
X40342458Y45167451D01*
X40457670Y45081203D01*
X40592511Y45030911D01*
X40592512Y45030911D01*
X40592517Y45030909D01*
X40652127Y45024500D01*
X41247872Y45024501D01*
X41307483Y45030909D01*
X41374907Y45056057D01*
X41442329Y45081203D01*
X41442329Y45081204D01*
X41442331Y45081204D01*
X41557546Y45167454D01*
X41643796Y45282669D01*
X41694091Y45417517D01*
X41700500Y45477127D01*
X41700500Y45525500D01*
X41719407Y45583691D01*
X41768907Y45619655D01*
X41799500Y45624500D01*
X42141461Y45624500D01*
X42199652Y45605593D01*
X42201685Y45604075D01*
X42312375Y45519139D01*
X42446291Y45463670D01*
X42590000Y45444750D01*
X42733709Y45463670D01*
X42867625Y45519139D01*
X42982621Y45607379D01*
X43070861Y45722375D01*
X43126330Y45856291D01*
X43145250Y46000000D01*
X43144748Y46003810D01*
X43126330Y46143709D01*
X43070861Y46277625D01*
X42982621Y46392621D01*
X42867625Y46480861D01*
X42867621Y46480863D01*
X42733709Y46536330D01*
X42733708Y46536331D01*
X42590000Y46555250D01*
X42446291Y46536331D01*
X42446290Y46536330D01*
X42312378Y46480863D01*
X42312374Y46480861D01*
X42264216Y46443907D01*
X42201726Y46395958D01*
X42144053Y46375534D01*
X42141461Y46375500D01*
X41799499Y46375500D01*
X41741308Y46394407D01*
X41705344Y46443907D01*
X41700499Y46474500D01*
X41700499Y46522867D01*
X41700499Y46522872D01*
X41694091Y46582483D01*
X41678785Y46623520D01*
X41643797Y46717330D01*
X41557549Y46832542D01*
X41557548Y46832543D01*
X41557546Y46832546D01*
X41557398Y46832657D01*
X41442329Y46918798D01*
X41307488Y46969090D01*
X41307483Y46969091D01*
X41307481Y46969092D01*
X41307477Y46969092D01*
X41276249Y46972450D01*
X41247873Y46975500D01*
X41247870Y46975500D01*
X40652133Y46975500D01*
X40652129Y46975500D01*
X40652128Y46975499D01*
X40644949Y46974728D01*
X40592519Y46969092D01*
X40592514Y46969091D01*
X40457670Y46918798D01*
X40342458Y46832550D01*
X40342450Y46832542D01*
X40256202Y46717330D01*
X40205910Y46582489D01*
X40205908Y46582478D01*
X40199500Y46522871D01*
X40199500Y45477134D01*
X39849422Y45477134D01*
X39849999Y45481936D01*
X39850000Y45481942D01*
X39850000Y45849999D01*
X39849999Y45850000D01*
X39200001Y45850000D01*
X39200000Y45849999D01*
X39200000Y44975001D01*
X38900000Y44975001D01*
X38900000Y45849999D01*
X38899999Y45850000D01*
X38250001Y45850000D01*
X38250000Y45849999D01*
X38250000Y45481936D01*
X32830000Y45481936D01*
X32830000Y46150001D01*
X38250000Y46150001D01*
X38250001Y46150000D01*
X38899999Y46150000D01*
X38900000Y46150001D01*
X39200000Y46150001D01*
X39200001Y46150000D01*
X39849999Y46150000D01*
X39850000Y46150001D01*
X39850000Y46518059D01*
X39849999Y46518065D01*
X39839386Y46606444D01*
X39783919Y46747096D01*
X39692564Y46867565D01*
X39572095Y46958920D01*
X39431443Y47014387D01*
X39343064Y47025000D01*
X39200001Y47025000D01*
X39200000Y47024999D01*
X39200000Y46150001D01*
X38900000Y46150001D01*
X38900000Y47024999D01*
X38899999Y47025000D01*
X38756935Y47025000D01*
X38668556Y47014387D01*
X38527904Y46958920D01*
X38407435Y46867565D01*
X38316080Y46747096D01*
X38260613Y46606444D01*
X38250000Y46518065D01*
X38250000Y46150001D01*
X32830000Y46150001D01*
X32830000Y49305209D01*
X36300001Y49305209D01*
X36302909Y49280126D01*
X36348213Y49177523D01*
X36427522Y49098214D01*
X36530127Y49052910D01*
X36555203Y49050001D01*
X38349998Y49050001D01*
X38350000Y49050002D01*
X38650000Y49050002D01*
X38650001Y49050001D01*
X40444790Y49050001D01*
X40444791Y49050002D01*
X40469874Y49052910D01*
X40572477Y49098214D01*
X40651786Y49177523D01*
X40697090Y49280128D01*
X40699999Y49305203D01*
X40700000Y49305205D01*
X40700000Y50199999D01*
X40699999Y50200000D01*
X38650001Y50200000D01*
X38650000Y50199999D01*
X38650000Y49050002D01*
X38350000Y49050002D01*
X38350000Y50199999D01*
X38349999Y50200000D01*
X36300002Y50200000D01*
X36300001Y50199999D01*
X36300001Y49305209D01*
X32830000Y49305209D01*
X32830000Y50500001D01*
X36300000Y50500001D01*
X36300001Y50500000D01*
X38349999Y50500000D01*
X38350000Y50500001D01*
X38650000Y50500001D01*
X38650001Y50500000D01*
X40699998Y50500000D01*
X40699999Y50500001D01*
X40699999Y51394790D01*
X40699998Y51394792D01*
X40697090Y51419875D01*
X40651786Y51522478D01*
X40572477Y51601787D01*
X40469872Y51647091D01*
X40444797Y51650000D01*
X38650001Y51650000D01*
X38650000Y51649999D01*
X38650000Y50500001D01*
X38350000Y50500001D01*
X38350000Y51649999D01*
X38349999Y51650000D01*
X36555210Y51650000D01*
X36555208Y51649999D01*
X36530125Y51647091D01*
X36427522Y51601787D01*
X36348213Y51522478D01*
X36302909Y51419873D01*
X36300000Y51394798D01*
X36300000Y50500001D01*
X32830000Y50500001D01*
X32830000Y50760000D01*
X32008996Y51581004D01*
X31981219Y51635521D01*
X31980000Y51651008D01*
X31980000Y53478077D01*
X31998907Y53536268D01*
X32048407Y53572232D01*
X32093088Y53576069D01*
X32104000Y53574500D01*
X32104002Y53574500D01*
X36535996Y53574500D01*
X36536000Y53574500D01*
X36643456Y53586053D01*
X36694967Y53597259D01*
X36797504Y53631387D01*
X36918543Y53709175D01*
X36971347Y53754930D01*
X37065567Y53863664D01*
X37125338Y53994541D01*
X37145023Y54061580D01*
X37145024Y54061584D01*
X37155666Y54135602D01*
X37165500Y54203995D01*
X37165500Y55025997D01*
X37165500Y55026000D01*
X37153947Y55133456D01*
X37142741Y55184967D01*
X37108613Y55287504D01*
X37086014Y55322668D01*
X37070460Y55381841D01*
X37092658Y55438858D01*
X37114300Y55458507D01*
X37120508Y55462656D01*
X37130601Y55469399D01*
X37185966Y55552260D01*
X37196498Y55605209D01*
X37450001Y55605209D01*
X37452909Y55580126D01*
X37498213Y55477523D01*
X37577522Y55398214D01*
X37680127Y55352910D01*
X37705203Y55350001D01*
X38349998Y55350001D01*
X38350000Y55350002D01*
X38650000Y55350002D01*
X38650001Y55350001D01*
X39294790Y55350001D01*
X39294791Y55350002D01*
X39319874Y55352910D01*
X39422477Y55398214D01*
X39501786Y55477523D01*
X39547090Y55580128D01*
X39549999Y55605203D01*
X39550000Y55605205D01*
X39550000Y56499999D01*
X39549999Y56500000D01*
X38650001Y56500000D01*
X38650000Y56499999D01*
X38650000Y55350002D01*
X38350000Y55350002D01*
X38350000Y56499999D01*
X38349999Y56500000D01*
X37450002Y56500000D01*
X37450001Y56499999D01*
X37450001Y55605209D01*
X37196498Y55605209D01*
X37200500Y55625326D01*
X37200500Y56800001D01*
X37450000Y56800001D01*
X37450001Y56800000D01*
X38349999Y56800000D01*
X38350000Y56800001D01*
X38650000Y56800001D01*
X38650001Y56800000D01*
X39549998Y56800000D01*
X39549999Y56800001D01*
X39549999Y57694790D01*
X39549998Y57694792D01*
X39547090Y57719875D01*
X39501786Y57822478D01*
X39422477Y57901787D01*
X39319872Y57947091D01*
X39294797Y57950000D01*
X38650001Y57950000D01*
X38650000Y57949999D01*
X38650000Y56800001D01*
X38350000Y56800001D01*
X38350000Y57949999D01*
X38349999Y57950000D01*
X37705210Y57950000D01*
X37705207Y57949999D01*
X37680125Y57947091D01*
X37577522Y57901787D01*
X37498213Y57822478D01*
X37452909Y57719873D01*
X37450000Y57694798D01*
X37450000Y56800001D01*
X37200500Y56800001D01*
X37200500Y57674674D01*
X37185966Y57747740D01*
X37130601Y57830601D01*
X37130599Y57830603D01*
X37114760Y57841186D01*
X37076880Y57889236D01*
X37074478Y57950374D01*
X37079703Y57964619D01*
X37125338Y58064541D01*
X37145023Y58131580D01*
X37145024Y58131584D01*
X37152774Y58185490D01*
X37165500Y58273995D01*
X37165500Y58475366D01*
X37184407Y58533557D01*
X37233907Y58569521D01*
X37266141Y58574352D01*
X38615533Y58551911D01*
X38707788Y58560668D01*
X38727274Y58562517D01*
X38727274Y58562518D01*
X38727284Y58562518D01*
X38780857Y58573707D01*
X38887504Y58608711D01*
X39008543Y58686499D01*
X39061347Y58732254D01*
X39155567Y58840988D01*
X39215338Y58971865D01*
X39235023Y59038904D01*
X39235024Y59038908D01*
X39251338Y59152375D01*
X39255500Y59181319D01*
X39255500Y59875807D01*
X39254051Y59902845D01*
X39254051Y59902847D01*
X39252753Y59914920D01*
X39265333Y59974798D01*
X39310706Y60015847D01*
X39351186Y60024501D01*
X39747867Y60024501D01*
X39747872Y60024501D01*
X39807483Y60030909D01*
X39832304Y60040168D01*
X39893434Y60042787D01*
X39936905Y60017413D01*
X40437158Y59517160D01*
X40464935Y59462643D01*
X40465307Y59434237D01*
X40464750Y59430006D01*
X40464750Y59429998D01*
X40472738Y59369317D01*
X40469473Y59328159D01*
X40466140Y59316961D01*
X40449499Y59268488D01*
X40448293Y59261257D01*
X40447383Y59253953D01*
X40449500Y59202769D01*
X40449500Y57999500D01*
X40430593Y57941309D01*
X40381093Y57905345D01*
X40350500Y57900500D01*
X40025326Y57900500D01*
X40025325Y57900500D01*
X40025315Y57900499D01*
X39952263Y57885967D01*
X39952257Y57885965D01*
X39869400Y57830603D01*
X39869397Y57830600D01*
X39814035Y57747743D01*
X39814033Y57747737D01*
X39799501Y57674685D01*
X39799500Y57674673D01*
X39799500Y55625328D01*
X39799501Y55625316D01*
X39814033Y55552264D01*
X39814035Y55552258D01*
X39869397Y55469401D01*
X39869400Y55469398D01*
X39931192Y55428111D01*
X39952260Y55414034D01*
X40007808Y55402985D01*
X40025315Y55399502D01*
X40025320Y55399502D01*
X40025326Y55399500D01*
X40025327Y55399500D01*
X41574673Y55399500D01*
X41574674Y55399500D01*
X41647740Y55414034D01*
X41730601Y55469399D01*
X41785966Y55552260D01*
X41800500Y55625326D01*
X41800500Y57674674D01*
X41785966Y57747740D01*
X41730601Y57830601D01*
X41730599Y57830603D01*
X41647742Y57885965D01*
X41647740Y57885966D01*
X41647737Y57885967D01*
X41647736Y57885967D01*
X41574684Y57900499D01*
X41574674Y57900500D01*
X41574673Y57900500D01*
X41249500Y57900500D01*
X41191309Y57919407D01*
X41155345Y57968907D01*
X41150500Y57999500D01*
X41150500Y58822050D01*
X41169407Y58880241D01*
X41211611Y58913512D01*
X41297625Y58949139D01*
X41412621Y59037379D01*
X41500861Y59152375D01*
X41556330Y59286291D01*
X41575250Y59430000D01*
X41556330Y59573709D01*
X41500861Y59707625D01*
X41412621Y59822621D01*
X41297625Y59910861D01*
X41297621Y59910863D01*
X41163709Y59966330D01*
X41163708Y59966331D01*
X41020000Y59985250D01*
X41019995Y59985250D01*
X41015763Y59984693D01*
X40955603Y59995845D01*
X40932840Y60012842D01*
X40229495Y60716187D01*
X40201718Y60770704D01*
X40200499Y60786191D01*
X40200499Y61156997D01*
X46830001Y61156997D01*
X46832786Y61127279D01*
X46832787Y61127274D01*
X46876594Y61002080D01*
X46955358Y60895361D01*
X46955360Y60895359D01*
X47062079Y60816595D01*
X47187272Y60772788D01*
X47216999Y60770001D01*
X47260000Y60770002D01*
X47560000Y60770002D01*
X47560001Y60770001D01*
X47603004Y60770001D01*
X47632721Y60772787D01*
X47632726Y60772788D01*
X47757920Y60816595D01*
X47869592Y60899015D01*
X47927640Y60918358D01*
X47985971Y60899888D01*
X47996636Y60890849D01*
X47997605Y60890145D01*
X47997609Y60890141D01*
X48107825Y60833983D01*
X48199265Y60819500D01*
X48540734Y60819501D01*
X48540737Y60819501D01*
X48567332Y60823714D01*
X48632175Y60833983D01*
X48742391Y60890141D01*
X48827755Y60975506D01*
X48882270Y61003281D01*
X48897757Y61004500D01*
X49441461Y61004500D01*
X49499652Y60985593D01*
X49501685Y60984075D01*
X49612375Y60899139D01*
X49746291Y60843670D01*
X49890000Y60824750D01*
X50033709Y60843670D01*
X50167625Y60899139D01*
X50282621Y60987379D01*
X50370861Y61102375D01*
X50426330Y61236291D01*
X50445250Y61380000D01*
X50426330Y61523709D01*
X50370861Y61657625D01*
X50282621Y61772621D01*
X50167625Y61860861D01*
X50167621Y61860863D01*
X50033709Y61916330D01*
X50033708Y61916331D01*
X49890000Y61935250D01*
X49746291Y61916331D01*
X49746290Y61916330D01*
X49612378Y61860863D01*
X49612374Y61860861D01*
X49575474Y61832546D01*
X49501726Y61775958D01*
X49444053Y61755534D01*
X49441461Y61755500D01*
X48897757Y61755500D01*
X48839566Y61774407D01*
X48827759Y61784491D01*
X48742391Y61869859D01*
X48632175Y61926017D01*
X48632176Y61926017D01*
X48540736Y61940500D01*
X48199262Y61940500D01*
X48107825Y61926017D01*
X48107821Y61926016D01*
X47997609Y61869859D01*
X47991304Y61865278D01*
X47990377Y61866554D01*
X47943859Y61842857D01*
X47883428Y61852435D01*
X47869593Y61860986D01*
X47757922Y61943405D01*
X47632727Y61987213D01*
X47603000Y61990000D01*
X47560001Y61990000D01*
X47560000Y61989999D01*
X47560000Y60770002D01*
X47260000Y60770002D01*
X47260000Y61229999D01*
X47259999Y61230000D01*
X46830002Y61230000D01*
X46830001Y61229999D01*
X46830001Y61156997D01*
X40200499Y61156997D01*
X40200499Y61522867D01*
X40200499Y61522872D01*
X40199733Y61530001D01*
X46830000Y61530001D01*
X46830001Y61530000D01*
X47259999Y61530000D01*
X47260000Y61530001D01*
X47260000Y61990001D01*
X47216997Y61990000D01*
X47187278Y61987214D01*
X47187273Y61987213D01*
X47062079Y61943406D01*
X46955360Y61864642D01*
X46955358Y61864640D01*
X46876594Y61757921D01*
X46832787Y61632728D01*
X46830000Y61603001D01*
X46830000Y61530001D01*
X40199733Y61530001D01*
X40194091Y61582483D01*
X40166065Y61657626D01*
X40143797Y61717330D01*
X40057549Y61832542D01*
X40057548Y61832543D01*
X40057546Y61832546D01*
X40057541Y61832550D01*
X39942329Y61918798D01*
X39807488Y61969090D01*
X39807483Y61969091D01*
X39807481Y61969092D01*
X39807477Y61969092D01*
X39776249Y61972450D01*
X39747873Y61975500D01*
X39747870Y61975500D01*
X39346427Y61975500D01*
X39288236Y61994407D01*
X39252272Y62043907D01*
X39248435Y62088590D01*
X39255500Y62137726D01*
X39255500Y62245997D01*
X39252797Y62271141D01*
X39243947Y62353456D01*
X39232741Y62404967D01*
X39198613Y62507504D01*
X39120825Y62628543D01*
X39075070Y62681347D01*
X39075062Y62681354D01*
X39075059Y62681357D01*
X38966337Y62775567D01*
X38835464Y62835336D01*
X38835462Y62835337D01*
X38835459Y62835338D01*
X38768420Y62855023D01*
X38768416Y62855024D01*
X38768411Y62855025D01*
X38768406Y62855026D01*
X38626005Y62875500D01*
X38626000Y62875500D01*
X38214855Y62875500D01*
X38138280Y62869667D01*
X38130247Y62868436D01*
X38101155Y62863978D01*
X38101156Y62863978D01*
X38026354Y62846615D01*
X37896612Y62784436D01*
X37896602Y62784430D01*
X37838544Y62745582D01*
X37838532Y62745573D01*
X37731565Y62649364D01*
X37731561Y62649359D01*
X37656027Y62526901D01*
X37643154Y62497273D01*
X37602623Y62451439D01*
X37542891Y62438182D01*
X37486774Y62462566D01*
X37461948Y62501631D01*
X37460701Y62501061D01*
X37457760Y62507500D01*
X37457758Y62507503D01*
X37457758Y62507504D01*
X37379970Y62628543D01*
X37334215Y62681347D01*
X37334207Y62681354D01*
X37334204Y62681357D01*
X37225482Y62775567D01*
X37094609Y62835336D01*
X37094607Y62835337D01*
X37094604Y62835338D01*
X37027565Y62855023D01*
X37027561Y62855024D01*
X37027556Y62855025D01*
X37027551Y62855026D01*
X36885150Y62875500D01*
X36885145Y62875500D01*
X34487841Y62875500D01*
X34478509Y62875001D01*
X34460848Y62874055D01*
X34460847Y62874055D01*
X34460840Y62874055D01*
X34460835Y62874054D01*
X34450152Y62872907D01*
X34421067Y62869784D01*
X34421068Y62869784D01*
X34367731Y62861153D01*
X34367721Y62861150D01*
X34259071Y62820660D01*
X34197941Y62818057D01*
X34146956Y62851882D01*
X34127180Y62904948D01*
X34125977Y62904829D01*
X34125500Y62909660D01*
X34125500Y62909674D01*
X34120272Y62935954D01*
X34124331Y62977147D01*
X34121563Y62977697D01*
X34123464Y62987259D01*
X34123466Y62987260D01*
X34126000Y63000000D01*
X53394551Y63000000D01*
X53414316Y62748854D01*
X53473127Y62503887D01*
X53569532Y62271144D01*
X53569535Y62271138D01*
X53701162Y62056344D01*
X53701168Y62056336D01*
X53860434Y61869859D01*
X53864776Y61864776D01*
X53864782Y61864771D01*
X53864785Y61864768D01*
X53972678Y61772619D01*
X54056341Y61701164D01*
X54056343Y61701163D01*
X54271137Y61569536D01*
X54271143Y61569533D01*
X54503887Y61473128D01*
X54503889Y61473127D01*
X54748852Y61414317D01*
X54937118Y61399500D01*
X54937123Y61399500D01*
X55062877Y61399500D01*
X55062882Y61399500D01*
X55251148Y61414317D01*
X55496111Y61473127D01*
X55728859Y61569534D01*
X55943659Y61701164D01*
X56135224Y61864776D01*
X56298836Y62056341D01*
X56430466Y62271141D01*
X56526873Y62503889D01*
X56585683Y62748852D01*
X56605449Y63000000D01*
X56585683Y63251148D01*
X56526873Y63496111D01*
X56513656Y63528019D01*
X56430467Y63728857D01*
X56430464Y63728863D01*
X56313178Y63920255D01*
X56298836Y63943659D01*
X56289663Y63954399D01*
X56135232Y64135215D01*
X56135229Y64135218D01*
X56135224Y64135224D01*
X56135217Y64135230D01*
X56135214Y64135233D01*
X55943664Y64298832D01*
X55943656Y64298838D01*
X55728862Y64430465D01*
X55728856Y64430468D01*
X55496112Y64526873D01*
X55496113Y64526873D01*
X55251146Y64585684D01*
X55122812Y64595784D01*
X55062882Y64600500D01*
X54937118Y64600500D01*
X54880775Y64596066D01*
X54748853Y64585684D01*
X54503886Y64526873D01*
X54271143Y64430468D01*
X54271137Y64430465D01*
X54056343Y64298838D01*
X54056335Y64298832D01*
X53864785Y64135233D01*
X53864767Y64135215D01*
X53701168Y63943665D01*
X53701162Y63943657D01*
X53569535Y63728863D01*
X53569532Y63728857D01*
X53473127Y63496114D01*
X53414316Y63251147D01*
X53394551Y63000000D01*
X34126000Y63000000D01*
X34138000Y63060326D01*
X34138000Y63809674D01*
X34123466Y63882740D01*
X34123464Y63882743D01*
X34068102Y63965600D01*
X34068099Y63965603D01*
X33985242Y64020965D01*
X33985240Y64020966D01*
X33985237Y64020967D01*
X33985236Y64020967D01*
X33912184Y64035499D01*
X33912174Y64035500D01*
X33912173Y64035500D01*
X33779500Y64035500D01*
X33721309Y64054407D01*
X33685345Y64103907D01*
X33680500Y64134500D01*
X33680500Y65338502D01*
X33680500Y65338504D01*
X33665262Y65483482D01*
X33605144Y65668508D01*
X33605140Y65668514D01*
X33605139Y65668518D01*
X33555166Y65755073D01*
X33507870Y65836992D01*
X33408714Y65947116D01*
X33377696Y65981565D01*
X33377696Y65981566D01*
X33377692Y65981569D01*
X33220299Y66095922D01*
X33220295Y66095924D01*
X33220288Y66095928D01*
X33042577Y66175049D01*
X33042572Y66175051D01*
X33042571Y66175051D01*
X33042568Y66175052D01*
X33042567Y66175052D01*
X33006372Y66182746D01*
X32852274Y66215500D01*
X32657726Y66215500D01*
X32536382Y66189708D01*
X32467432Y66175052D01*
X32467422Y66175049D01*
X32289711Y66095928D01*
X32289704Y66095924D01*
X32132305Y65981567D01*
X32123070Y65971310D01*
X32070081Y65940719D01*
X32009231Y65947116D01*
X31963762Y65988058D01*
X31950500Y66037556D01*
X31950500Y66659673D01*
X31950498Y66659685D01*
X31945000Y66687324D01*
X31935966Y66732740D01*
X31889021Y66803000D01*
X31880602Y66815600D01*
X31880599Y66815603D01*
X31797742Y66870965D01*
X31797740Y66870966D01*
X31797737Y66870967D01*
X31797736Y66870967D01*
X31724684Y66885499D01*
X31724674Y66885500D01*
X30245326Y66885500D01*
X30245325Y66885500D01*
X30245315Y66885499D01*
X30172263Y66870967D01*
X30172257Y66870965D01*
X30081291Y66810184D01*
X30079279Y66813195D01*
X30040487Y66793429D01*
X29980055Y66803000D01*
X29969185Y66810898D01*
X29968709Y66810184D01*
X29877742Y66870965D01*
X29877740Y66870966D01*
X29877737Y66870967D01*
X29877736Y66870967D01*
X29804684Y66885499D01*
X29804674Y66885500D01*
X28325326Y66885500D01*
X28325325Y66885500D01*
X28325315Y66885499D01*
X28252263Y66870967D01*
X28252257Y66870965D01*
X28169400Y66815603D01*
X28169397Y66815600D01*
X28114035Y66732743D01*
X28114033Y66732737D01*
X28099501Y66659685D01*
X28099500Y66659673D01*
X28099500Y66037556D01*
X28080593Y65979365D01*
X28031093Y65943401D01*
X27969907Y65943401D01*
X27926930Y65971310D01*
X27917694Y65981567D01*
X27917693Y65981568D01*
X27917692Y65981569D01*
X27760299Y66095922D01*
X27760295Y66095924D01*
X27760288Y66095928D01*
X27582577Y66175049D01*
X27582572Y66175051D01*
X27582571Y66175051D01*
X27582568Y66175052D01*
X27582567Y66175052D01*
X27546372Y66182746D01*
X27392274Y66215500D01*
X27197726Y66215500D01*
X27076382Y66189708D01*
X27007432Y66175052D01*
X27007422Y66175049D01*
X26829711Y66095928D01*
X26829704Y66095924D01*
X26672303Y65981566D01*
X26672303Y65981565D01*
X26542132Y65836995D01*
X26542128Y65836989D01*
X26444860Y65668518D01*
X26444858Y65668513D01*
X26384738Y65483484D01*
X26369500Y65338506D01*
X26369500Y65315630D01*
X26364901Y65292509D01*
X26365936Y65292303D01*
X26349500Y65209677D01*
X26349500Y64134500D01*
X26330593Y64076309D01*
X26281093Y64040345D01*
X26250500Y64035500D01*
X26087826Y64035500D01*
X26087825Y64035500D01*
X26087815Y64035499D01*
X26014763Y64020967D01*
X26014757Y64020965D01*
X25931900Y63965603D01*
X25931897Y63965600D01*
X25876535Y63882743D01*
X25876533Y63882737D01*
X25862001Y63809685D01*
X25862000Y63809673D01*
X25862000Y63060328D01*
X25862001Y63060316D01*
X25876533Y62987262D01*
X25876781Y62986664D01*
X25876907Y62985384D01*
X25878436Y62977698D01*
X25877678Y62977548D01*
X25882415Y62929465D01*
X25874500Y62889677D01*
X25874500Y61340328D01*
X25874501Y61340316D01*
X25889033Y61267264D01*
X25889035Y61267258D01*
X25944397Y61184401D01*
X25944400Y61184398D01*
X25988915Y61154655D01*
X26027260Y61129034D01*
X26079257Y61118691D01*
X26100315Y61114502D01*
X26100320Y61114502D01*
X26100326Y61114500D01*
X27557260Y61114500D01*
X27562805Y61114190D01*
X27605000Y61109435D01*
X27647194Y61114190D01*
X27652740Y61114500D01*
X28149673Y61114500D01*
X28149674Y61114500D01*
X28149675Y61114501D01*
X28149682Y61114501D01*
X28207487Y61126000D01*
X28222740Y61129034D01*
X28222740Y61129035D01*
X28231184Y61130714D01*
X28291946Y61123524D01*
X28336876Y61081992D01*
X28349500Y61033617D01*
X28349500Y60782024D01*
X28330593Y60723833D01*
X28329042Y60721756D01*
X28249139Y60617626D01*
X28249137Y60617622D01*
X28193670Y60483710D01*
X28193669Y60483709D01*
X28174750Y60340001D01*
X28174750Y60340000D01*
X28193669Y60196292D01*
X28193670Y60196291D01*
X28249139Y60062375D01*
X28264169Y60042787D01*
X28320583Y59969268D01*
X28341007Y59911592D01*
X28323630Y59852926D01*
X28275088Y59815679D01*
X28242041Y59810000D01*
X28150000Y59810000D01*
X27880000Y59540000D01*
X27880000Y59539999D01*
X27880000Y49291008D01*
X27861093Y49232817D01*
X27851004Y49221004D01*
X27418996Y48788996D01*
X27364479Y48761219D01*
X27348992Y48760000D01*
X25619507Y48760000D01*
X25601779Y48755000D01*
X23500001Y48755000D01*
X23492503Y48747502D01*
X23437986Y48719726D01*
X23377554Y48729298D01*
X23352499Y48747501D01*
X23250000Y48850000D01*
X23249999Y48850000D01*
X18549500Y48850000D01*
X18491309Y48868907D01*
X18455345Y48918407D01*
X18450500Y48948999D01*
X18450499Y49055001D01*
X23500000Y49055001D01*
X23500001Y49055000D01*
X24449999Y49055000D01*
X24450000Y49055001D01*
X24750000Y49055001D01*
X24750001Y49055000D01*
X25699998Y49055000D01*
X25699999Y49055001D01*
X25699999Y49109204D01*
X25697149Y49139601D01*
X25697149Y49139603D01*
X25652345Y49267648D01*
X25571792Y49376791D01*
X25571790Y49376793D01*
X25462647Y49457346D01*
X25334601Y49502150D01*
X25304211Y49505000D01*
X24750001Y49505000D01*
X24750000Y49504999D01*
X24750000Y49055001D01*
X24450000Y49055001D01*
X24450000Y49504999D01*
X24449999Y49505000D01*
X23895796Y49505000D01*
X23865399Y49502150D01*
X23865397Y49502150D01*
X23737352Y49457346D01*
X23628209Y49376793D01*
X23628207Y49376791D01*
X23547654Y49267648D01*
X23502850Y49139602D01*
X23500000Y49109212D01*
X23500000Y49055001D01*
X18450499Y49055001D01*
X18450499Y49086521D01*
X18450498Y49086524D01*
X18435647Y49180300D01*
X18435646Y49180302D01*
X18435646Y49180304D01*
X18378050Y49293342D01*
X18288342Y49383050D01*
X18175304Y49440646D01*
X18175305Y49440646D01*
X18081522Y49455500D01*
X18081519Y49455500D01*
X17989500Y49455500D01*
X17931309Y49474407D01*
X17895345Y49523907D01*
X17890500Y49554500D01*
X17890500Y51305010D01*
X17909407Y51363201D01*
X17946021Y51393951D01*
X17947956Y51394898D01*
X17952102Y51396924D01*
X18043076Y51487898D01*
X18099582Y51603482D01*
X18110500Y51678418D01*
X18110500Y51910000D01*
X22084750Y51910000D01*
X22103669Y51766292D01*
X22103670Y51766291D01*
X22153043Y51647091D01*
X22159139Y51632375D01*
X22247379Y51517379D01*
X22362375Y51429139D01*
X22496291Y51373670D01*
X22640000Y51354750D01*
X22783709Y51373670D01*
X22917625Y51429139D01*
X23032621Y51517379D01*
X23032627Y51517388D01*
X23037209Y51521968D01*
X23038511Y51520666D01*
X23081804Y51550422D01*
X23109926Y51554500D01*
X23373034Y51554500D01*
X23431225Y51535593D01*
X23454604Y51508219D01*
X23455561Y51508913D01*
X23460139Y51502612D01*
X23460141Y51502609D01*
X23547609Y51415141D01*
X23657825Y51358983D01*
X23749265Y51344500D01*
X24090734Y51344501D01*
X24090737Y51344501D01*
X24117332Y51348714D01*
X24182175Y51358983D01*
X24292391Y51415141D01*
X24292391Y51415142D01*
X24292394Y51415143D01*
X24298697Y51419722D01*
X24299625Y51418444D01*
X24346120Y51442140D01*
X24406553Y51432574D01*
X24420406Y51424015D01*
X24532079Y51341595D01*
X24657272Y51297788D01*
X24686999Y51295001D01*
X24730000Y51295002D01*
X25030000Y51295002D01*
X25030001Y51295001D01*
X25073004Y51295001D01*
X25102721Y51297787D01*
X25102726Y51297788D01*
X25227920Y51341595D01*
X25334639Y51420359D01*
X25334641Y51420361D01*
X25413405Y51527080D01*
X25457212Y51652273D01*
X25460000Y51682000D01*
X25460000Y51754999D01*
X25459999Y51755000D01*
X25030001Y51755000D01*
X25030000Y51754999D01*
X25030000Y51295002D01*
X24730000Y51295002D01*
X24730000Y52055001D01*
X25030000Y52055001D01*
X25030001Y52055000D01*
X25459998Y52055000D01*
X25459999Y52055001D01*
X25459999Y52128004D01*
X25457213Y52157722D01*
X25457212Y52157727D01*
X25413405Y52282921D01*
X25334641Y52389640D01*
X25334639Y52389642D01*
X25227920Y52468406D01*
X25102727Y52512213D01*
X25073000Y52515000D01*
X25030001Y52515000D01*
X25030000Y52514999D01*
X25030000Y52055001D01*
X24730000Y52055001D01*
X24730000Y52515001D01*
X24686997Y52515000D01*
X24657278Y52512214D01*
X24657273Y52512213D01*
X24532079Y52468406D01*
X24420406Y52385985D01*
X24362358Y52366643D01*
X24304028Y52385114D01*
X24293366Y52394151D01*
X24292393Y52394857D01*
X24292391Y52394859D01*
X24182175Y52451017D01*
X24182176Y52451017D01*
X24090736Y52465500D01*
X23749262Y52465500D01*
X23657825Y52451017D01*
X23657821Y52451016D01*
X23547610Y52394860D01*
X23460139Y52307389D01*
X23455561Y52301087D01*
X23453947Y52302260D01*
X23417979Y52266291D01*
X23373034Y52255500D01*
X23117599Y52255500D01*
X23059408Y52274407D01*
X23039056Y52294235D01*
X23032626Y52302615D01*
X23032624Y52302617D01*
X23032621Y52302621D01*
X22917625Y52390861D01*
X22917621Y52390863D01*
X22783709Y52446330D01*
X22783708Y52446331D01*
X22640000Y52465250D01*
X22496291Y52446331D01*
X22496290Y52446330D01*
X22362378Y52390863D01*
X22362374Y52390861D01*
X22247381Y52302623D01*
X22247377Y52302619D01*
X22159139Y52187626D01*
X22159137Y52187622D01*
X22103670Y52053710D01*
X22103669Y52053709D01*
X22084750Y51910001D01*
X22084750Y51910000D01*
X18110500Y51910000D01*
X18110500Y52021582D01*
X18099582Y52096518D01*
X18043076Y52212102D01*
X17999561Y52255617D01*
X17971786Y52310131D01*
X17981357Y52370563D01*
X18010779Y52405273D01*
X18036060Y52423932D01*
X18036065Y52423937D01*
X18113935Y52529446D01*
X18157244Y52653217D01*
X18159999Y52682597D01*
X18160000Y52682600D01*
X18160000Y52719999D01*
X18159999Y52720000D01*
X16920001Y52720000D01*
X16920000Y52719999D01*
X16920000Y52682597D01*
X16922755Y52653217D01*
X16966064Y52529446D01*
X17043934Y52423937D01*
X17043940Y52423931D01*
X17069221Y52405272D01*
X17104813Y52355504D01*
X17104355Y52294320D01*
X17080437Y52255616D01*
X17054320Y52229498D01*
X16999804Y52201719D01*
X16984315Y52200500D01*
X16095685Y52200500D01*
X16037494Y52219407D01*
X16025687Y52229491D01*
X15965179Y52289999D01*
X15937404Y52344513D01*
X15946975Y52404945D01*
X15965178Y52430001D01*
X16043076Y52507898D01*
X16099582Y52623482D01*
X16110500Y52698418D01*
X16110500Y53020001D01*
X16920000Y53020001D01*
X16920001Y53020000D01*
X17389999Y53020000D01*
X17390000Y53020001D01*
X17690000Y53020001D01*
X17690001Y53020000D01*
X18159999Y53020000D01*
X18160000Y53020001D01*
X18160000Y53057400D01*
X18159999Y53057404D01*
X18157244Y53086784D01*
X18113935Y53210555D01*
X18036065Y53316064D01*
X18036063Y53316066D01*
X17930554Y53393936D01*
X17806783Y53437245D01*
X17777403Y53440000D01*
X17690001Y53440000D01*
X17690000Y53439999D01*
X17690000Y53020001D01*
X17390000Y53020001D01*
X17390000Y53439999D01*
X17389999Y53440000D01*
X17302596Y53440000D01*
X17273216Y53437245D01*
X17149445Y53393936D01*
X17043936Y53316066D01*
X17043934Y53316064D01*
X16966064Y53210555D01*
X16922755Y53086784D01*
X16920000Y53057404D01*
X16920000Y53020001D01*
X16110500Y53020001D01*
X16110500Y53041582D01*
X16099582Y53116518D01*
X16043076Y53232102D01*
X15952102Y53323076D01*
X15946017Y53326051D01*
X15902045Y53368594D01*
X15890500Y53414990D01*
X15890500Y60693387D01*
X15892607Y60713703D01*
X15893690Y60718868D01*
X15895042Y60725315D01*
X15890879Y60758706D01*
X15890500Y60764832D01*
X15890500Y60769046D01*
X15886911Y60790551D01*
X15882647Y60824750D01*
X15880573Y60841393D01*
X15880571Y60841396D01*
X15878477Y60848431D01*
X15876091Y60855384D01*
X15851704Y60900446D01*
X15829198Y60946485D01*
X15824948Y60952438D01*
X15820418Y60958258D01*
X15782724Y60992959D01*
X15539496Y61236186D01*
X15511719Y61290703D01*
X15510500Y61306190D01*
X15510500Y62744673D01*
X15510498Y62744685D01*
X15502591Y62784432D01*
X15495966Y62817740D01*
X15476673Y62846615D01*
X15440602Y62900600D01*
X15440599Y62900603D01*
X15357742Y62955965D01*
X15357740Y62955966D01*
X15357737Y62955967D01*
X15357736Y62955967D01*
X15284684Y62970499D01*
X15284674Y62970500D01*
X13535326Y62970500D01*
X13535325Y62970500D01*
X13535315Y62970499D01*
X13462263Y62955967D01*
X13462257Y62955965D01*
X13379400Y62900603D01*
X13379397Y62900600D01*
X13324035Y62817743D01*
X13324033Y62817737D01*
X13309501Y62744685D01*
X13309500Y62744673D01*
X13309500Y60995328D01*
X13309501Y60995316D01*
X13324033Y60922264D01*
X13324035Y60922258D01*
X13379397Y60839401D01*
X13379400Y60839398D01*
X13401323Y60824750D01*
X13462260Y60784034D01*
X13517808Y60772985D01*
X13535315Y60769502D01*
X13535320Y60769502D01*
X13535326Y60769500D01*
X14973810Y60769500D01*
X15032001Y60750593D01*
X15043814Y60740504D01*
X15160504Y60623814D01*
X15188281Y60569297D01*
X15189500Y60553810D01*
X15189500Y53414990D01*
X15170593Y53356799D01*
X15133982Y53326051D01*
X15131520Y53324848D01*
X15127899Y53323077D01*
X15036923Y53232101D01*
X15026390Y53210555D01*
X14980418Y53116518D01*
X14969500Y53041582D01*
X14969500Y52698418D01*
X14980418Y52623482D01*
X15036924Y52507898D01*
X15114820Y52430002D01*
X15142596Y52375487D01*
X15133025Y52315055D01*
X15114821Y52290000D01*
X15054320Y52229498D01*
X15036923Y52212101D01*
X15024956Y52187622D01*
X14980418Y52096518D01*
X14969500Y52021582D01*
X14969500Y51678418D01*
X14980418Y51603482D01*
X15036924Y51487898D01*
X15127898Y51396924D01*
X15243482Y51340418D01*
X15318418Y51329500D01*
X15318421Y51329500D01*
X15761578Y51329500D01*
X15761582Y51329500D01*
X15836518Y51340418D01*
X15952102Y51396924D01*
X16025683Y51470506D01*
X16080198Y51498281D01*
X16095685Y51499500D01*
X16984315Y51499500D01*
X17042506Y51480593D01*
X17054312Y51470510D01*
X17127898Y51396924D01*
X17127899Y51396924D01*
X17127900Y51396923D01*
X17133979Y51393951D01*
X17177954Y51351409D01*
X17189500Y51305010D01*
X17189500Y49554500D01*
X17170593Y49496309D01*
X17121093Y49460345D01*
X17090500Y49455500D01*
X16718479Y49455500D01*
X16718476Y49455499D01*
X16624700Y49440648D01*
X16624695Y49440646D01*
X16511659Y49383051D01*
X16511658Y49383051D01*
X16511658Y49383050D01*
X16421950Y49293342D01*
X16421949Y49293341D01*
X16416441Y49287832D01*
X16414757Y49289516D01*
X16374601Y49260344D01*
X16344013Y49255500D01*
X15741613Y49255500D01*
X15721298Y49257607D01*
X15709685Y49260042D01*
X15676294Y49255880D01*
X15670169Y49255500D01*
X15665956Y49255500D01*
X15644448Y49251911D01*
X15593607Y49245574D01*
X15586575Y49243481D01*
X15579616Y49241092D01*
X15534555Y49216705D01*
X15488517Y49194199D01*
X15482542Y49189934D01*
X15476744Y49185421D01*
X15442042Y49147725D01*
X13245118Y46950802D01*
X13229265Y46937929D01*
X13219335Y46931441D01*
X13219332Y46931439D01*
X13198664Y46904886D01*
X13194605Y46900288D01*
X13191619Y46897302D01*
X13178955Y46879563D01*
X13147483Y46839126D01*
X13143981Y46832657D01*
X13140758Y46826064D01*
X13126138Y46776955D01*
X13109499Y46728488D01*
X13108293Y46721257D01*
X13107383Y46713953D01*
X13109500Y46662769D01*
X13109500Y46069508D01*
X13090593Y46011317D01*
X13041093Y45975353D01*
X12979907Y45975353D01*
X12940496Y45999504D01*
X6127458Y52812542D01*
X6099681Y52867059D01*
X6098884Y52891681D01*
X6105215Y52960000D01*
X6086397Y53163083D01*
X6030582Y53359250D01*
X5939673Y53541821D01*
X5816764Y53704579D01*
X5666041Y53841981D01*
X5492637Y53949348D01*
X5302456Y54023024D01*
X5302455Y54023025D01*
X5302453Y54023025D01*
X5101976Y54060500D01*
X4898024Y54060500D01*
X4697546Y54023025D01*
X4627632Y53995941D01*
X4507363Y53949348D01*
X4368977Y53863663D01*
X4333959Y53841981D01*
X4183237Y53704580D01*
X4060328Y53541823D01*
X4060323Y53541814D01*
X3969419Y53359253D01*
X3969418Y53359250D01*
X3913603Y53163083D01*
X3894785Y52960000D01*
X3913603Y52756917D01*
X3969418Y52560750D01*
X4060327Y52378179D01*
X4183236Y52215421D01*
X4333959Y52078019D01*
X4507363Y51970652D01*
X4697544Y51896976D01*
X4799193Y51877975D01*
X4852916Y51848699D01*
X4879173Y51793434D01*
X4880000Y51780662D01*
X4880000Y51599340D01*
X4861093Y51541149D01*
X4811593Y51505185D01*
X4799192Y51502026D01*
X4697545Y51483025D01*
X4592009Y51442140D01*
X4507363Y51409348D01*
X4402630Y51344500D01*
X4333959Y51301981D01*
X4183237Y51164580D01*
X4060328Y51001823D01*
X4060323Y51001814D01*
X3969419Y50819253D01*
X3969418Y50819250D01*
X3913603Y50623083D01*
X3894785Y50420000D01*
X3913603Y50216917D01*
X3969418Y50020750D01*
X4060327Y49838179D01*
X4183236Y49675421D01*
X4333959Y49538019D01*
X4507363Y49430652D01*
X4697544Y49356976D01*
X4799193Y49337975D01*
X4852916Y49308699D01*
X4879173Y49253434D01*
X4880000Y49240662D01*
X4880000Y49059340D01*
X4861093Y49001149D01*
X4811593Y48965185D01*
X4799192Y48962026D01*
X4697545Y48943025D01*
X4581040Y48897891D01*
X4507363Y48869348D01*
X4377590Y48788996D01*
X4333959Y48761981D01*
X4183237Y48624580D01*
X4060328Y48461823D01*
X4060323Y48461814D01*
X4019585Y48380000D01*
X3969418Y48279250D01*
X3913603Y48083083D01*
X3894785Y47880000D01*
X3913603Y47676917D01*
X3969418Y47480750D01*
X4060327Y47298179D01*
X4183236Y47135421D01*
X4333959Y46998019D01*
X4507363Y46890652D01*
X4697544Y46816976D01*
X4799193Y46797975D01*
X4852916Y46768699D01*
X4879173Y46713434D01*
X4880000Y46700662D01*
X4880000Y46519340D01*
X4861093Y46461149D01*
X4811593Y46425185D01*
X4799192Y46422026D01*
X4697545Y46403025D01*
X4598372Y46364605D01*
X4507363Y46329348D01*
X4364781Y46241065D01*
X4333959Y46221981D01*
X4183237Y46084580D01*
X4060328Y45921823D01*
X4060323Y45921814D01*
X4024564Y45849999D01*
X3969418Y45739250D01*
X3913603Y45543083D01*
X3894785Y45340000D01*
X3913603Y45136917D01*
X3969418Y44940750D01*
X4060327Y44758179D01*
X4183236Y44595421D01*
X4333959Y44458019D01*
X4507363Y44350652D01*
X4697544Y44276976D01*
X4799193Y44257975D01*
X4852916Y44228699D01*
X4879173Y44173434D01*
X4880000Y44160662D01*
X4880000Y43979340D01*
X4861093Y43921149D01*
X4811593Y43885185D01*
X4799192Y43882026D01*
X4697545Y43863025D01*
X4581040Y43817891D01*
X4507363Y43789348D01*
X4333959Y43681981D01*
X4183237Y43544580D01*
X4060328Y43381823D01*
X4060323Y43381814D01*
X3974755Y43209969D01*
X3969418Y43199250D01*
X3913603Y43003083D01*
X3894785Y42800000D01*
X3913603Y42596917D01*
X3969418Y42400750D01*
X4060327Y42218179D01*
X4183236Y42055421D01*
X4333959Y41918019D01*
X4507363Y41810652D01*
X4697544Y41736976D01*
X4799193Y41717975D01*
X4852916Y41688699D01*
X4879173Y41633434D01*
X4880000Y41620662D01*
X4880000Y41439340D01*
X4861093Y41381149D01*
X4811593Y41345185D01*
X4799192Y41342026D01*
X4697545Y41323025D01*
X4581040Y41277891D01*
X4507363Y41249348D01*
X4333959Y41141981D01*
X4183236Y41004579D01*
X4167547Y40983803D01*
X4060328Y40841823D01*
X4060323Y40841814D01*
X3969419Y40659253D01*
X3969418Y40659250D01*
X3913603Y40463083D01*
X3894785Y40260000D01*
X3913603Y40056917D01*
X3969418Y39860750D01*
X4060327Y39678179D01*
X4183236Y39515421D01*
X4333959Y39378019D01*
X4507363Y39270652D01*
X4697544Y39196976D01*
X4799193Y39177975D01*
X4852916Y39148699D01*
X4879173Y39093434D01*
X4880000Y39080662D01*
X4880000Y38899340D01*
X4861093Y38841149D01*
X4811593Y38805185D01*
X4799192Y38802026D01*
X4697545Y38783025D01*
X4581040Y38737891D01*
X4507363Y38709348D01*
X4333959Y38601981D01*
X4183236Y38464579D01*
X4150917Y38421782D01*
X4060328Y38301823D01*
X4060323Y38301814D01*
X3986692Y38153942D01*
X3969418Y38119250D01*
X3913603Y37923083D01*
X3894785Y37720000D01*
X3913603Y37516917D01*
X3969418Y37320750D01*
X4060327Y37138179D01*
X4183236Y36975421D01*
X4333959Y36838019D01*
X4507363Y36730652D01*
X4697544Y36656976D01*
X4799193Y36637975D01*
X4852916Y36608699D01*
X4879173Y36553434D01*
X4880000Y36540662D01*
X4880000Y36359340D01*
X4861093Y36301149D01*
X4811593Y36265185D01*
X4799192Y36262026D01*
X4697545Y36243025D01*
X4581040Y36197891D01*
X4507363Y36169348D01*
X4363079Y36080011D01*
X4333959Y36061981D01*
X4243063Y35979118D01*
X4183236Y35924579D01*
X4171787Y35909418D01*
X4060328Y35761823D01*
X4060323Y35761814D01*
X3977023Y35594523D01*
X3969418Y35579250D01*
X3913603Y35383083D01*
X3894785Y35180000D01*
X3913603Y34976917D01*
X3969418Y34780750D01*
X4060327Y34598179D01*
X4183236Y34435421D01*
X4333959Y34298019D01*
X4507363Y34190652D01*
X4697544Y34116976D01*
X4799193Y34097975D01*
X4852916Y34068699D01*
X4879173Y34013434D01*
X4880000Y34000662D01*
X4880000Y33819340D01*
X4861093Y33761149D01*
X4811593Y33725185D01*
X4799192Y33722026D01*
X4697545Y33703025D01*
X4630130Y33676908D01*
X4507363Y33629348D01*
X4333959Y33521981D01*
X4183237Y33384580D01*
X4060328Y33221823D01*
X4060323Y33221814D01*
X3971676Y33043785D01*
X3969418Y33039250D01*
X3913603Y32843083D01*
X3894785Y32640000D01*
X3913603Y32436917D01*
X3969418Y32240750D01*
X4060327Y32058179D01*
X4183236Y31895421D01*
X4333959Y31758019D01*
X4507363Y31650652D01*
X4697544Y31576976D01*
X4799193Y31557975D01*
X4852916Y31528699D01*
X4879173Y31473434D01*
X4880000Y31460662D01*
X4880000Y31279340D01*
X4861093Y31221149D01*
X4811593Y31185185D01*
X4799192Y31182026D01*
X4697545Y31163025D01*
X4593623Y31122765D01*
X4507363Y31089348D01*
X4354766Y30994864D01*
X4333959Y30981981D01*
X4183237Y30844580D01*
X4060328Y30681823D01*
X4060323Y30681814D01*
X3969419Y30499253D01*
X3969418Y30499250D01*
X3913603Y30303083D01*
X3894785Y30100000D01*
X3913603Y29896917D01*
X3969418Y29700750D01*
X4060327Y29518179D01*
X4183236Y29355421D01*
X4333959Y29218019D01*
X4507363Y29110652D01*
X4697544Y29036976D01*
X4799193Y29017975D01*
X4852916Y28988699D01*
X4879173Y28933434D01*
X4880000Y28920662D01*
X4880000Y28739340D01*
X4861093Y28681149D01*
X4811593Y28645185D01*
X4799192Y28642026D01*
X4697545Y28623025D01*
X4581040Y28577891D01*
X4507363Y28549348D01*
X4333959Y28441981D01*
X4183237Y28304580D01*
X4060328Y28141823D01*
X4060323Y28141814D01*
X3969419Y27959253D01*
X3969418Y27959250D01*
X3913603Y27763083D01*
X3894785Y27560000D01*
X3913603Y27356917D01*
X3969418Y27160750D01*
X4060327Y26978179D01*
X4183236Y26815421D01*
X4333959Y26678019D01*
X4507363Y26570652D01*
X4697544Y26496976D01*
X4799193Y26477975D01*
X4852916Y26448699D01*
X4879173Y26393434D01*
X4880000Y26380662D01*
X4880000Y26199340D01*
X4861093Y26141149D01*
X4811593Y26105185D01*
X4799192Y26102026D01*
X4697545Y26083025D01*
X4625055Y26054942D01*
X4507363Y26009348D01*
X4359227Y25917626D01*
X4333959Y25901981D01*
X4183237Y25764580D01*
X4060328Y25601823D01*
X4060323Y25601814D01*
X3969419Y25419253D01*
X3969418Y25419250D01*
X3913603Y25223083D01*
X3894785Y25020000D01*
X3913603Y24816917D01*
X3969418Y24620750D01*
X4060327Y24438179D01*
X4183236Y24275421D01*
X4333959Y24138019D01*
X4507363Y24030652D01*
X4697544Y23956976D01*
X4799193Y23937975D01*
X4852916Y23908699D01*
X4879173Y23853434D01*
X4880000Y23840662D01*
X4880000Y23659340D01*
X4861093Y23601149D01*
X4811593Y23565185D01*
X4799192Y23562026D01*
X4697545Y23543025D01*
X4581040Y23497891D01*
X4507363Y23469348D01*
X4333959Y23361981D01*
X4183237Y23224580D01*
X4060328Y23061823D01*
X4060323Y23061814D01*
X4007386Y22955501D01*
X3969418Y22879250D01*
X3913603Y22683083D01*
X3894785Y22480000D01*
X3913603Y22276917D01*
X3969418Y22080750D01*
X4060327Y21898179D01*
X4183236Y21735421D01*
X4333959Y21598019D01*
X4507363Y21490652D01*
X4697544Y21416976D01*
X4799193Y21397975D01*
X4852916Y21368699D01*
X4879173Y21313434D01*
X4880000Y21300662D01*
X4880000Y21119340D01*
X4861093Y21061149D01*
X4811593Y21025185D01*
X4799192Y21022026D01*
X4697545Y21003025D01*
X4581040Y20957891D01*
X4507363Y20929348D01*
X4333959Y20821981D01*
X4183237Y20684580D01*
X4060328Y20521823D01*
X4060323Y20521814D01*
X3969419Y20339253D01*
X3969418Y20339250D01*
X3913603Y20143083D01*
X3894785Y19940000D01*
X3913603Y19736917D01*
X3969418Y19540750D01*
X4060327Y19358179D01*
X4183236Y19195421D01*
X4333959Y19058019D01*
X4507363Y18950652D01*
X4697544Y18876976D01*
X4799193Y18857975D01*
X4852916Y18828699D01*
X4879173Y18773434D01*
X4880000Y18760662D01*
X4880000Y18579340D01*
X4861093Y18521149D01*
X4811593Y18485185D01*
X4799192Y18482026D01*
X4697545Y18463025D01*
X4581040Y18417891D01*
X4507363Y18389348D01*
X4333959Y18281981D01*
X4183237Y18144580D01*
X4060328Y17981823D01*
X4060323Y17981814D01*
X3969419Y17799253D01*
X3969418Y17799250D01*
X3913603Y17603083D01*
X3894785Y17400000D01*
X3913603Y17196917D01*
X3969418Y17000750D01*
X4060327Y16818179D01*
X4183236Y16655421D01*
X4333959Y16518019D01*
X4507363Y16410652D01*
X4697544Y16336976D01*
X4799193Y16317975D01*
X4852916Y16288699D01*
X4879173Y16233434D01*
X4880000Y16220662D01*
X4880000Y16039340D01*
X4861093Y15981149D01*
X4811593Y15945185D01*
X4799192Y15942026D01*
X4697545Y15923025D01*
X4581040Y15877891D01*
X4507363Y15849348D01*
X4333959Y15741981D01*
X4183237Y15604580D01*
X4060328Y15441823D01*
X4060323Y15441814D01*
X3990777Y15302145D01*
X3969418Y15259250D01*
X3913603Y15063083D01*
X3894785Y14860000D01*
X3913603Y14656917D01*
X3969418Y14460750D01*
X4060327Y14278179D01*
X4183236Y14115421D01*
X4333959Y13978019D01*
X4507363Y13870652D01*
X4697544Y13796976D01*
X4799193Y13777975D01*
X4852916Y13748699D01*
X4879173Y13693434D01*
X4880000Y13680662D01*
X4880000Y13499340D01*
X4861093Y13441149D01*
X4811593Y13405185D01*
X4799192Y13402026D01*
X4697545Y13383025D01*
X4581040Y13337891D01*
X4507363Y13309348D01*
X4372835Y13226052D01*
X4333959Y13201981D01*
X4241140Y13117365D01*
X4183236Y13064579D01*
X4165622Y13041254D01*
X4060328Y12901823D01*
X4060323Y12901814D01*
X3969419Y12719253D01*
X3969418Y12719250D01*
X3913603Y12523083D01*
X3894785Y12320000D01*
X200000Y12320000D01*
X200000Y55650001D01*
X3850000Y55650001D01*
X3850001Y55650000D01*
X4522935Y55650000D01*
X4500000Y55571889D01*
X4500000Y55428111D01*
X4522935Y55350000D01*
X3850002Y55350000D01*
X3850001Y55349999D01*
X3850001Y54605209D01*
X3852909Y54580126D01*
X3898213Y54477523D01*
X3977522Y54398214D01*
X4080127Y54352910D01*
X4105203Y54350001D01*
X4849998Y54350001D01*
X4850000Y54350002D01*
X4850000Y55018830D01*
X4857685Y55015320D01*
X4964237Y55000000D01*
X5035763Y55000000D01*
X5142315Y55015320D01*
X5150000Y55018830D01*
X5150000Y54350002D01*
X5150001Y54350001D01*
X5894790Y54350001D01*
X5894791Y54350002D01*
X5919874Y54352910D01*
X6022477Y54398214D01*
X6101786Y54477523D01*
X6147090Y54580128D01*
X6149999Y54605203D01*
X6150000Y54605205D01*
X6150000Y55349999D01*
X6149999Y55350000D01*
X5477065Y55350000D01*
X5500000Y55428111D01*
X5500000Y55571889D01*
X5477065Y55650000D01*
X6149998Y55650000D01*
X6149999Y55650001D01*
X6149999Y56394790D01*
X6149998Y56394792D01*
X6147090Y56419875D01*
X6101786Y56522478D01*
X6022477Y56601787D01*
X5919872Y56647091D01*
X5894797Y56650000D01*
X5150001Y56650000D01*
X5150000Y56649999D01*
X5150000Y55981171D01*
X5142315Y55984680D01*
X5035763Y56000000D01*
X4964237Y56000000D01*
X4857685Y55984680D01*
X4850000Y55981171D01*
X4850000Y56649999D01*
X4849999Y56650000D01*
X4105210Y56650000D01*
X4105207Y56649999D01*
X4080125Y56647091D01*
X3977522Y56601787D01*
X3898213Y56522478D01*
X3852909Y56419873D01*
X3850000Y56394798D01*
X3850000Y55650001D01*
X200000Y55650001D01*
X200000Y63000000D01*
X3394551Y63000000D01*
X3414316Y62748854D01*
X3473127Y62503887D01*
X3569532Y62271144D01*
X3569535Y62271138D01*
X3701162Y62056344D01*
X3701168Y62056336D01*
X3860434Y61869859D01*
X3864776Y61864776D01*
X3864782Y61864771D01*
X3864785Y61864768D01*
X3972678Y61772619D01*
X4056341Y61701164D01*
X4056343Y61701163D01*
X4271137Y61569536D01*
X4271143Y61569533D01*
X4503887Y61473128D01*
X4503889Y61473127D01*
X4748852Y61414317D01*
X4937118Y61399500D01*
X4937123Y61399500D01*
X5062877Y61399500D01*
X5062882Y61399500D01*
X5251148Y61414317D01*
X5496111Y61473127D01*
X5728859Y61569534D01*
X5943659Y61701164D01*
X6135224Y61864776D01*
X6298836Y62056341D01*
X6430466Y62271141D01*
X6526873Y62503889D01*
X6585683Y62748852D01*
X6605449Y63000000D01*
X6585683Y63251148D01*
X6526873Y63496111D01*
X6513656Y63528019D01*
X6430467Y63728857D01*
X6430464Y63728863D01*
X6313178Y63920255D01*
X6298836Y63943659D01*
X6289663Y63954399D01*
X6135232Y64135215D01*
X6135229Y64135218D01*
X6135224Y64135224D01*
X6135217Y64135230D01*
X6135214Y64135233D01*
X5943664Y64298832D01*
X5943656Y64298838D01*
X5762258Y64410000D01*
X13304785Y64410000D01*
X13323603Y64206917D01*
X13376511Y64020966D01*
X13379419Y64010748D01*
X13443160Y63882737D01*
X13470327Y63828179D01*
X13593236Y63665421D01*
X13743959Y63528019D01*
X13917363Y63420652D01*
X14107544Y63346976D01*
X14308024Y63309500D01*
X14511976Y63309500D01*
X14712456Y63346976D01*
X14902637Y63420652D01*
X15076041Y63528019D01*
X15226764Y63665421D01*
X15349673Y63828179D01*
X15440582Y64010750D01*
X15496397Y64206917D01*
X15515215Y64410000D01*
X15496397Y64613083D01*
X15440582Y64809250D01*
X15349673Y64991821D01*
X15226764Y65154579D01*
X15076041Y65291981D01*
X14902637Y65399348D01*
X14712456Y65473024D01*
X14712455Y65473025D01*
X14712453Y65473025D01*
X14511976Y65510500D01*
X14308024Y65510500D01*
X14107546Y65473025D01*
X14037632Y65445941D01*
X13917363Y65399348D01*
X13782154Y65315630D01*
X13743959Y65291981D01*
X13593237Y65154580D01*
X13470328Y64991823D01*
X13470323Y64991814D01*
X13379419Y64809253D01*
X13379418Y64809250D01*
X13323603Y64613083D01*
X13304785Y64410000D01*
X5762258Y64410000D01*
X5728862Y64430465D01*
X5728856Y64430468D01*
X5496112Y64526873D01*
X5496113Y64526873D01*
X5251146Y64585684D01*
X5122812Y64595784D01*
X5062882Y64600500D01*
X4937118Y64600500D01*
X4880775Y64596066D01*
X4748853Y64585684D01*
X4503886Y64526873D01*
X4271143Y64430468D01*
X4271137Y64430465D01*
X4056343Y64298838D01*
X4056335Y64298832D01*
X3864785Y64135233D01*
X3864767Y64135215D01*
X3701168Y63943665D01*
X3701162Y63943657D01*
X3569535Y63728863D01*
X3569532Y63728857D01*
X3473127Y63496114D01*
X3414316Y63251147D01*
X3394551Y63000000D01*
X200000Y63000000D01*
X200000Y67818992D01*
X218907Y67877183D01*
X228996Y67888996D01*
X310504Y67970504D01*
X365021Y67998281D01*
X380508Y67999500D01*
X59761000Y67999500D01*
X59819191Y67980593D01*
G37*
%TD.AperFunction*%
%TD*%
%TA.AperFunction,Conductor*%
%TO.N,+3V3*%
G36*
X29673649Y36767923D02*
G01*
X29757436Y36657434D01*
X29802443Y36623304D01*
X29843966Y36567112D01*
X29848518Y36497390D01*
X29814653Y36436276D01*
X29753124Y36403173D01*
X29727518Y36400500D01*
X29652343Y36400500D01*
X29585304Y36420185D01*
X29558631Y36443296D01*
X29558050Y36443966D01*
X29558049Y36443967D01*
X29449069Y36514004D01*
X29449065Y36514006D01*
X29449064Y36514006D01*
X29324774Y36550500D01*
X29324772Y36550500D01*
X29195228Y36550500D01*
X29195226Y36550500D01*
X29070935Y36514006D01*
X29070932Y36514005D01*
X29070931Y36514004D01*
X29046657Y36498404D01*
X28961950Y36443967D01*
X28877118Y36346063D01*
X28877117Y36346062D01*
X28823302Y36228226D01*
X28808508Y36125326D01*
X28804867Y36100000D01*
X28807792Y36079658D01*
X28812666Y36045757D01*
X28802722Y35976598D01*
X28756967Y35923795D01*
X28706114Y35905171D01*
X28553238Y35885044D01*
X28553237Y35885044D01*
X28407159Y35824536D01*
X28397221Y35816911D01*
X28345932Y35793674D01*
X28321770Y35788868D01*
X28321769Y35788868D01*
X28255447Y35744553D01*
X28211132Y35678231D01*
X28205510Y35649970D01*
X28187805Y35610877D01*
X28189529Y35609881D01*
X28185463Y35602839D01*
X28124956Y35456763D01*
X28124955Y35456761D01*
X28104318Y35300002D01*
X28104318Y35299999D01*
X28124955Y35143240D01*
X28124957Y35143235D01*
X28188574Y34989649D01*
X28186340Y34988724D01*
X28199500Y34939622D01*
X28199500Y34303109D01*
X28190061Y34255657D01*
X28144957Y34146766D01*
X28144955Y34146761D01*
X28124318Y33990002D01*
X28124318Y33989999D01*
X28144955Y33833240D01*
X28144956Y33833238D01*
X28190061Y33724346D01*
X28199500Y33676893D01*
X28199500Y33053109D01*
X28190061Y33005657D01*
X28144957Y32896766D01*
X28144955Y32896761D01*
X28124318Y32740002D01*
X28124318Y32739999D01*
X28144955Y32583240D01*
X28144956Y32583238D01*
X28190061Y32474346D01*
X28199500Y32426893D01*
X28199500Y32380248D01*
X28211131Y32321771D01*
X28211132Y32321770D01*
X28255447Y32255448D01*
X28321769Y32211133D01*
X28321770Y32211132D01*
X28380247Y32199501D01*
X28380250Y32199500D01*
X28380252Y32199500D01*
X28441034Y32199500D01*
X28488486Y32190061D01*
X28490401Y32189268D01*
X28573238Y32154956D01*
X28651619Y32144637D01*
X28729999Y32134318D01*
X28730000Y32134318D01*
X28730001Y32134318D01*
X28782254Y32141198D01*
X28886762Y32154956D01*
X28969599Y32189268D01*
X28971514Y32190061D01*
X29018966Y32199500D01*
X29617678Y32199500D01*
X29684717Y32179815D01*
X29693165Y32173875D01*
X29717157Y32155465D01*
X29717158Y32155465D01*
X29717159Y32155464D01*
X29863238Y32094956D01*
X29941619Y32084637D01*
X30019999Y32074318D01*
X30020000Y32074318D01*
X30020001Y32074318D01*
X30072254Y32081198D01*
X30176762Y32094956D01*
X30322841Y32155464D01*
X30346835Y32173875D01*
X30412004Y32199070D01*
X30422322Y32199500D01*
X30910710Y32199500D01*
X30977749Y32179815D01*
X30986187Y32173884D01*
X30997159Y32165464D01*
X31143238Y32104956D01*
X31219188Y32094957D01*
X31299999Y32084318D01*
X31300000Y32084318D01*
X31300001Y32084318D01*
X31380804Y32094956D01*
X31456762Y32104956D01*
X31602841Y32165464D01*
X31633863Y32189269D01*
X31667712Y32204605D01*
X31666945Y32206458D01*
X31678227Y32211133D01*
X31678231Y32211133D01*
X31744552Y32255448D01*
X31788867Y32321769D01*
X31788867Y32321774D01*
X31793541Y32333054D01*
X31794518Y32332650D01*
X31811545Y32370230D01*
X31824536Y32387159D01*
X31885044Y32533238D01*
X31905682Y32690000D01*
X31899099Y32740000D01*
X31885044Y32846761D01*
X31885044Y32846762D01*
X31824536Y32992841D01*
X31824534Y32992844D01*
X31820472Y32999881D01*
X31822213Y33000887D01*
X31800930Y33055943D01*
X31800500Y33066258D01*
X31800500Y33649622D01*
X31813659Y33698724D01*
X31811426Y33699649D01*
X31843054Y33776008D01*
X31875044Y33853238D01*
X31893049Y33990002D01*
X31895682Y34009999D01*
X31895682Y34010002D01*
X31877677Y34146762D01*
X31875044Y34166762D01*
X31814536Y34312841D01*
X31814535Y34312842D01*
X31811426Y34320349D01*
X31813655Y34321273D01*
X31800500Y34370378D01*
X31800500Y34929622D01*
X31813659Y34978724D01*
X31811426Y34979649D01*
X31850786Y35074674D01*
X31875044Y35133238D01*
X31895682Y35290000D01*
X31894365Y35300000D01*
X31875044Y35446761D01*
X31875044Y35446762D01*
X31814536Y35592841D01*
X31814533Y35592844D01*
X31814533Y35592846D01*
X31811522Y35598063D01*
X31797294Y35635866D01*
X31788867Y35678231D01*
X31757399Y35725326D01*
X31744552Y35744553D01*
X31678230Y35788868D01*
X31678229Y35788869D01*
X31635865Y35797295D01*
X31598051Y35811528D01*
X31592836Y35814539D01*
X31549802Y35832365D01*
X31495399Y35876206D01*
X31473335Y35942501D01*
X31490615Y36010200D01*
X31509571Y36034602D01*
X31946500Y36471531D01*
X32007821Y36505014D01*
X32048965Y36506963D01*
X32106941Y36500000D01*
X32293059Y36500000D01*
X32375944Y36509954D01*
X32444853Y36498404D01*
X32496578Y36451432D01*
X32507343Y36425812D01*
X32507698Y36425951D01*
X32566079Y36277905D01*
X32657436Y36157434D01*
X32750000Y36087241D01*
X32750000Y33512762D01*
X32657437Y33442568D01*
X32566079Y33322096D01*
X32510613Y33181444D01*
X32500000Y33093054D01*
X32500000Y32906947D01*
X32510613Y32818557D01*
X32566079Y32677905D01*
X32657436Y32557434D01*
X32750000Y32487241D01*
X32750000Y31231627D01*
X32736583Y31220000D01*
X30742291Y31220000D01*
X30726350Y31232079D01*
X30642566Y31342564D01*
X30522095Y31433921D01*
X30381443Y31489387D01*
X30293054Y31500000D01*
X30106946Y31500000D01*
X30018556Y31489387D01*
X29877904Y31433921D01*
X29757432Y31342563D01*
X29673648Y31232078D01*
X29657303Y31220000D01*
X27258091Y31220000D01*
X27257461Y31220185D01*
X27240000Y31240337D01*
X27240000Y32479658D01*
X27342563Y32557434D01*
X27433920Y32677905D01*
X27489386Y32818557D01*
X27500000Y32906947D01*
X27500000Y33093054D01*
X27489386Y33181444D01*
X27433920Y33322096D01*
X27342564Y33442565D01*
X27240000Y33520343D01*
X27240000Y36079658D01*
X27342563Y36157434D01*
X27433920Y36277905D01*
X27489386Y36418557D01*
X27500000Y36506947D01*
X27500000Y36693226D01*
X27519685Y36760265D01*
X27530920Y36770000D01*
X29670908Y36770000D01*
X29673649Y36767923D01*
G37*
%TD.AperFunction*%
%TD*%
M02*
