%TF.GenerationSoftware,KiCad,Pcbnew,7.0.8*%
%TF.CreationDate,2024-05-28T19:10:26-07:00*%
%TF.ProjectId,BroncoSpaceRP2040,42726f6e-636f-4537-9061-636552503230,rev?*%
%TF.SameCoordinates,Original*%
%TF.FileFunction,Copper,L2,Bot*%
%TF.FilePolarity,Positive*%
%FSLAX46Y46*%
G04 Gerber Fmt 4.6, Leading zero omitted, Abs format (unit mm)*
G04 Created by KiCad (PCBNEW 7.0.8) date 2024-05-28 19:10:26*
%MOMM*%
%LPD*%
G01*
G04 APERTURE LIST*
%TA.AperFunction,ComponentPad*%
%ADD10R,1.700000X1.700000*%
%TD*%
%TA.AperFunction,ComponentPad*%
%ADD11O,1.700000X1.700000*%
%TD*%
%TA.AperFunction,ComponentPad*%
%ADD12O,1.350000X1.700000*%
%TD*%
%TA.AperFunction,ComponentPad*%
%ADD13O,1.100000X1.500000*%
%TD*%
%TA.AperFunction,ComponentPad*%
%ADD14R,1.800000X1.800000*%
%TD*%
%TA.AperFunction,ComponentPad*%
%ADD15C,1.800000*%
%TD*%
%TA.AperFunction,ComponentPad*%
%ADD16R,1.050000X1.500000*%
%TD*%
%TA.AperFunction,ComponentPad*%
%ADD17O,1.050000X1.500000*%
%TD*%
%TA.AperFunction,ViaPad*%
%ADD18C,0.600000*%
%TD*%
%TA.AperFunction,ViaPad*%
%ADD19C,0.800000*%
%TD*%
%TA.AperFunction,ViaPad*%
%ADD20C,0.500000*%
%TD*%
%TA.AperFunction,Conductor*%
%ADD21C,0.250000*%
%TD*%
%TA.AperFunction,Conductor*%
%ADD22C,0.400000*%
%TD*%
%TA.AperFunction,Conductor*%
%ADD23C,0.200000*%
%TD*%
G04 APERTURE END LIST*
D10*
%TO.P,J4,1,Pin_1*%
%TO.N,/GPIO_ADC3*%
X55000000Y55500000D03*
D11*
%TO.P,J4,2,Pin_2*%
%TO.N,/GPIO_ADC2*%
X55000000Y52960000D03*
%TO.P,J4,3,Pin_3*%
%TO.N,/GPIO_ADC1*%
X55000000Y50420000D03*
%TO.P,J4,4,Pin_4*%
%TO.N,/GPIO_ADC0*%
X55000000Y47880000D03*
%TO.P,J4,5,Pin_5*%
%TO.N,/GPIO25*%
X55000000Y45340000D03*
%TO.P,J4,6,Pin_6*%
%TO.N,/GPIO24*%
X55000000Y42800000D03*
%TO.P,J4,7,Pin_7*%
%TO.N,/GPIO23*%
X55000000Y40260000D03*
%TO.P,J4,8,Pin_8*%
%TO.N,/GPIO22*%
X55000000Y37720000D03*
%TO.P,J4,9,Pin_9*%
%TO.N,/GPIO21*%
X55000000Y35180000D03*
%TO.P,J4,10,Pin_10*%
%TO.N,/GPIO20*%
X55000000Y32640000D03*
%TO.P,J4,11,Pin_11*%
%TO.N,/GPIO19*%
X55000000Y30100000D03*
%TO.P,J4,12,Pin_12*%
%TO.N,/GPIO18*%
X55000000Y27560000D03*
%TO.P,J4,13,Pin_13*%
%TO.N,/GPIO17*%
X55000000Y25020000D03*
%TO.P,J4,14,Pin_14*%
%TO.N,/GPIO16*%
X55000000Y22480000D03*
%TO.P,J4,15,Pin_15*%
%TO.N,/RUN*%
X55000000Y19940000D03*
%TO.P,J4,16,Pin_16*%
%TO.N,/SWD*%
X55000000Y17400000D03*
%TO.P,J4,17,Pin_17*%
%TO.N,/SWCLK*%
X55000000Y14860000D03*
%TO.P,J4,18,Pin_18*%
%TO.N,GND*%
X55000000Y12320000D03*
%TD*%
D10*
%TO.P,J2,1,Pin_1*%
%TO.N,Net-(J2-Pin_1)*%
X14410000Y61870000D03*
D11*
%TO.P,J2,2,Pin_2*%
%TO.N,GND*%
X14410000Y64410000D03*
%TD*%
D10*
%TO.P,J3,1,Pin_1*%
%TO.N,+3V3*%
X5000000Y55500000D03*
D11*
%TO.P,J3,2,Pin_2*%
%TO.N,/GPIO0*%
X5000000Y52960000D03*
%TO.P,J3,3,Pin_3*%
%TO.N,/GPIO1*%
X5000000Y50420000D03*
%TO.P,J3,4,Pin_4*%
%TO.N,/GPIO2*%
X5000000Y47880000D03*
%TO.P,J3,5,Pin_5*%
%TO.N,/GPIO3*%
X5000000Y45340000D03*
%TO.P,J3,6,Pin_6*%
%TO.N,/GPIO4*%
X5000000Y42800000D03*
%TO.P,J3,7,Pin_7*%
%TO.N,/GPIO5*%
X5000000Y40260000D03*
%TO.P,J3,8,Pin_8*%
%TO.N,/GPIO6*%
X5000000Y37720000D03*
%TO.P,J3,9,Pin_9*%
%TO.N,/GPIO7*%
X5000000Y35180000D03*
%TO.P,J3,10,Pin_10*%
%TO.N,/GPIO8*%
X5000000Y32640000D03*
%TO.P,J3,11,Pin_11*%
%TO.N,/GPIO9*%
X5000000Y30100000D03*
%TO.P,J3,12,Pin_12*%
%TO.N,/GPIO10*%
X5000000Y27560000D03*
%TO.P,J3,13,Pin_13*%
%TO.N,/GPIO11*%
X5000000Y25020000D03*
%TO.P,J3,14,Pin_14*%
%TO.N,/GPIO12*%
X5000000Y22480000D03*
%TO.P,J3,15,Pin_15*%
%TO.N,/GPIO13*%
X5000000Y19940000D03*
%TO.P,J3,16,Pin_16*%
%TO.N,/GPIO14*%
X5000000Y17400000D03*
%TO.P,J3,17,Pin_17*%
%TO.N,/GPIO15*%
X5000000Y14860000D03*
%TO.P,J3,18,Pin_18*%
%TO.N,GND*%
X5000000Y12320000D03*
%TD*%
D12*
%TO.P,J1,6,Shield*%
%TO.N,GND*%
X32755000Y65115000D03*
D13*
X32445000Y62115000D03*
X27605000Y62115000D03*
D12*
X27295000Y65115000D03*
%TD*%
D14*
%TO.P,D1,1,K*%
%TO.N,/LED_ALERT*%
X30950000Y4100000D03*
D15*
%TO.P,D1,2,A*%
%TO.N,Net-(D1-A)*%
X33490000Y4100000D03*
%TD*%
D16*
%TO.P,Q1,1,E*%
%TO.N,Net-(Q1-E)*%
X16200000Y6370000D03*
D17*
%TO.P,Q1,2,B*%
%TO.N,Net-(Q1-B)*%
X17470000Y6370000D03*
%TO.P,Q1,3,C*%
%TO.N,GND*%
X18740000Y6370000D03*
%TD*%
D18*
%TO.N,GND*%
X31400000Y25640000D03*
X38090000Y38040000D03*
D19*
X30000000Y35300000D03*
X31290000Y34010000D03*
D18*
X42590000Y46000000D03*
D19*
X28730000Y33990000D03*
D18*
X28730000Y60340000D03*
X22640000Y51910000D03*
X28000000Y27825000D03*
D19*
X28710000Y35300000D03*
D18*
X38090000Y32840000D03*
X19050000Y45080000D03*
D19*
X28810000Y43760000D03*
X28730000Y32740000D03*
D18*
X32740000Y21710000D03*
X30400000Y25630000D03*
X21890000Y32720000D03*
X32500000Y10675000D03*
X33810000Y42680000D03*
X32800000Y42670000D03*
X27170000Y24470000D03*
X32870000Y24490000D03*
D19*
X29800000Y43690000D03*
X31290000Y35290000D03*
D18*
X38110000Y39410000D03*
D19*
X30020000Y34010000D03*
X30025000Y8950000D03*
D18*
X27250000Y21700000D03*
X49890000Y61380000D03*
X41020000Y59430000D03*
X21930000Y37100000D03*
D19*
X28730000Y32740000D03*
X31300000Y32690000D03*
X30020000Y32680000D03*
%TO.N,+3V3*%
X35010000Y64610000D03*
X24860000Y64650000D03*
D18*
%TO.N,+1V1*%
X29800000Y39100000D03*
D20*
X29260000Y36100000D03*
D18*
X30825000Y28800000D03*
D20*
%TO.N,/GPIO14*%
X14310000Y17400000D03*
X37360000Y14920000D03*
%TD*%
D21*
%TO.N,+3V3*%
X25460000Y64050000D02*
X24860000Y64650000D01*
X25780000Y63330000D02*
X25460000Y63650000D01*
X35010000Y64610000D02*
X35010000Y64120000D01*
X35010000Y64120000D02*
X34220000Y63330000D01*
X34220000Y63330000D02*
X25780000Y63330000D01*
X25460000Y63650000D02*
X25460000Y64050000D01*
D22*
%TO.N,+1V1*%
X30600000Y31820500D02*
X30600000Y29025000D01*
D23*
X29800000Y37150000D02*
X29800000Y39100000D01*
X27920000Y35580000D02*
X27920000Y32510000D01*
X30680000Y31900500D02*
X30600000Y31820500D01*
X28529500Y31900500D02*
X30680000Y31900500D01*
X30600000Y29025000D02*
X30825000Y28800000D01*
X29800000Y36100000D02*
X29260000Y36100000D01*
X27920000Y32510000D02*
X28529500Y31900500D01*
X29260000Y36100000D02*
X28440000Y36100000D01*
X28440000Y36100000D02*
X27920000Y35580000D01*
D22*
X29800000Y36100000D02*
X29800000Y37150000D01*
D23*
%TO.N,/GPIO14*%
X34880000Y17400000D02*
X37360000Y14920000D01*
X14310000Y17400000D02*
X34880000Y17400000D01*
%TD*%
%TA.AperFunction,Conductor*%
%TO.N,GND*%
G36*
X59958691Y67763093D02*
G01*
X59994655Y67713593D01*
X59999500Y67683000D01*
X59999500Y99500D01*
X59980593Y41309D01*
X59931093Y5345D01*
X59900500Y500D01*
X119000Y500D01*
X60809Y19407D01*
X24845Y68907D01*
X20000Y99500D01*
X20000Y3180254D01*
X29849500Y3180254D01*
X29849501Y3180242D01*
X29861132Y3121773D01*
X29861134Y3121767D01*
X29868561Y3110652D01*
X29905448Y3055448D01*
X29971769Y3011133D01*
X30016231Y3002289D01*
X30030241Y2999502D01*
X30030246Y2999502D01*
X30030252Y2999500D01*
X30030253Y2999500D01*
X31869747Y2999500D01*
X31869748Y2999500D01*
X31928231Y3011133D01*
X31994552Y3055448D01*
X32038867Y3121769D01*
X32050500Y3180252D01*
X32050500Y4100000D01*
X32384785Y4100000D01*
X32403603Y3896917D01*
X32459418Y3700750D01*
X32550327Y3518179D01*
X32673236Y3355421D01*
X32823959Y3218019D01*
X32997363Y3110652D01*
X33187544Y3036976D01*
X33388024Y2999500D01*
X33591976Y2999500D01*
X33792456Y3036976D01*
X33982637Y3110652D01*
X34156041Y3218019D01*
X34306764Y3355421D01*
X34429673Y3518179D01*
X34520582Y3700750D01*
X34576397Y3896917D01*
X34595215Y4100000D01*
X34576397Y4303083D01*
X34520582Y4499250D01*
X34429673Y4681821D01*
X34306764Y4844579D01*
X34156041Y4981981D01*
X34126939Y5000000D01*
X53394551Y5000000D01*
X53414316Y4748854D01*
X53473127Y4503887D01*
X53569532Y4271144D01*
X53569535Y4271138D01*
X53701162Y4056344D01*
X53701164Y4056341D01*
X53864776Y3864776D01*
X54056341Y3701164D01*
X54056343Y3701163D01*
X54271137Y3569536D01*
X54271143Y3569533D01*
X54503887Y3473128D01*
X54503889Y3473127D01*
X54748852Y3414317D01*
X54937118Y3399500D01*
X54937123Y3399500D01*
X55062877Y3399500D01*
X55062882Y3399500D01*
X55251148Y3414317D01*
X55496111Y3473127D01*
X55728859Y3569534D01*
X55943659Y3701164D01*
X56135224Y3864776D01*
X56298836Y4056341D01*
X56430466Y4271141D01*
X56526873Y4503889D01*
X56585683Y4748852D01*
X56605449Y5000000D01*
X56585683Y5251148D01*
X56526873Y5496111D01*
X56520116Y5512423D01*
X56430467Y5728857D01*
X56430464Y5728863D01*
X56298837Y5943657D01*
X56298836Y5943659D01*
X56241822Y6010414D01*
X56135232Y6135215D01*
X56135229Y6135218D01*
X56135224Y6135224D01*
X56135217Y6135230D01*
X56135214Y6135233D01*
X55943664Y6298832D01*
X55943656Y6298838D01*
X55728862Y6430465D01*
X55728856Y6430468D01*
X55496112Y6526873D01*
X55496113Y6526873D01*
X55251146Y6585684D01*
X55122812Y6595784D01*
X55062882Y6600500D01*
X54937118Y6600500D01*
X54880775Y6596066D01*
X54748853Y6585684D01*
X54503886Y6526873D01*
X54271143Y6430468D01*
X54271137Y6430465D01*
X54056343Y6298838D01*
X54056335Y6298832D01*
X53864785Y6135233D01*
X53864767Y6135215D01*
X53701168Y5943665D01*
X53701162Y5943657D01*
X53569535Y5728863D01*
X53569532Y5728857D01*
X53473127Y5496114D01*
X53414316Y5251147D01*
X53394551Y5000000D01*
X34126939Y5000000D01*
X33982637Y5089348D01*
X33792456Y5163024D01*
X33792455Y5163025D01*
X33792453Y5163025D01*
X33591976Y5200500D01*
X33388024Y5200500D01*
X33187546Y5163025D01*
X33139862Y5144552D01*
X32997363Y5089348D01*
X32853061Y5000000D01*
X32823959Y4981981D01*
X32673237Y4844580D01*
X32550328Y4681823D01*
X32550323Y4681814D01*
X32459419Y4499253D01*
X32459418Y4499250D01*
X32403603Y4303083D01*
X32384785Y4100000D01*
X32050500Y4100000D01*
X32050500Y5019748D01*
X32038867Y5078231D01*
X31994552Y5144552D01*
X31994548Y5144555D01*
X31928233Y5188866D01*
X31928231Y5188867D01*
X31928228Y5188868D01*
X31928227Y5188868D01*
X31869758Y5200499D01*
X31869748Y5200500D01*
X30030252Y5200500D01*
X30030251Y5200500D01*
X30030241Y5200499D01*
X29971772Y5188868D01*
X29971766Y5188866D01*
X29905451Y5144555D01*
X29905445Y5144549D01*
X29861134Y5078234D01*
X29861132Y5078228D01*
X29849501Y5019759D01*
X29849500Y5019747D01*
X29849500Y3180254D01*
X20000Y3180254D01*
X20000Y5000000D01*
X3394551Y5000000D01*
X3414316Y4748854D01*
X3473127Y4503887D01*
X3569532Y4271144D01*
X3569535Y4271138D01*
X3701162Y4056344D01*
X3701164Y4056341D01*
X3864776Y3864776D01*
X4056341Y3701164D01*
X4056343Y3701163D01*
X4271137Y3569536D01*
X4271143Y3569533D01*
X4503887Y3473128D01*
X4503889Y3473127D01*
X4748852Y3414317D01*
X4937118Y3399500D01*
X4937123Y3399500D01*
X5062877Y3399500D01*
X5062882Y3399500D01*
X5251148Y3414317D01*
X5496111Y3473127D01*
X5728859Y3569534D01*
X5943659Y3701164D01*
X6135224Y3864776D01*
X6298836Y4056341D01*
X6430466Y4271141D01*
X6526873Y4503889D01*
X6585683Y4748852D01*
X6605449Y5000000D01*
X6585683Y5251148D01*
X6526873Y5496111D01*
X6520116Y5512423D01*
X6483736Y5600254D01*
X15474500Y5600254D01*
X15474501Y5600242D01*
X15486132Y5541773D01*
X15486134Y5541767D01*
X15505742Y5512422D01*
X15530448Y5475448D01*
X15596769Y5431133D01*
X15641231Y5422289D01*
X15655241Y5419502D01*
X15655246Y5419502D01*
X15655252Y5419500D01*
X15655253Y5419500D01*
X16744747Y5419500D01*
X16744748Y5419500D01*
X16803231Y5431133D01*
X16869552Y5475448D01*
X16904100Y5527153D01*
X16952147Y5565030D01*
X17013285Y5567432D01*
X17035913Y5557885D01*
X17180683Y5474301D01*
X17180686Y5474301D01*
X17180688Y5474299D01*
X17297353Y5439372D01*
X17343157Y5425659D01*
X17343158Y5425659D01*
X17343161Y5425658D01*
X17427816Y5420728D01*
X17512467Y5415797D01*
X17512467Y5415798D01*
X17512471Y5415797D01*
X17679492Y5445247D01*
X17835219Y5512421D01*
X17971258Y5613698D01*
X17971257Y5613698D01*
X17975883Y5617141D01*
X17976635Y5616131D01*
X18026313Y5639656D01*
X18086442Y5628338D01*
X18110834Y5609549D01*
X18202755Y5512510D01*
X18202754Y5512510D01*
X18351285Y5411804D01*
X18517988Y5345384D01*
X18517987Y5345384D01*
X18590000Y5333580D01*
X18590000Y6025013D01*
X18677424Y5995000D01*
X18771073Y5995000D01*
X18863446Y6010414D01*
X18890000Y6024785D01*
X18890000Y5330440D01*
X19047164Y5374076D01*
X19205711Y5458132D01*
X19342476Y5574301D01*
X19342481Y5574306D01*
X19451073Y5717157D01*
X19526423Y5880023D01*
X19565000Y6055280D01*
X19565000Y6219999D01*
X19564999Y6220000D01*
X19083693Y6220000D01*
X19108551Y6276670D01*
X19118886Y6401395D01*
X19088852Y6520000D01*
X19564999Y6520000D01*
X19565000Y6520001D01*
X19565000Y6639733D01*
X19550462Y6773399D01*
X19493165Y6943449D01*
X19493162Y6943455D01*
X19400652Y7097211D01*
X19400648Y7097215D01*
X19277244Y7227491D01*
X19277245Y7227491D01*
X19128714Y7328197D01*
X18962016Y7394615D01*
X18890000Y7406422D01*
X18890000Y6714988D01*
X18802576Y6745000D01*
X18708927Y6745000D01*
X18616554Y6729586D01*
X18590000Y6715216D01*
X18590000Y7409562D01*
X18589999Y7409563D01*
X18432838Y7365926D01*
X18432830Y7365923D01*
X18274288Y7281869D01*
X18137520Y7165698D01*
X18114281Y7135126D01*
X18064013Y7100243D01*
X18002842Y7101570D01*
X17967530Y7123029D01*
X17906191Y7180899D01*
X17906183Y7180906D01*
X17759316Y7265700D01*
X17596842Y7314342D01*
X17596834Y7314343D01*
X17427532Y7324204D01*
X17260513Y7294755D01*
X17260508Y7294754D01*
X17260508Y7294753D01*
X17218997Y7276848D01*
X17104780Y7227579D01*
X17104779Y7227579D01*
X17047750Y7185122D01*
X16989783Y7165540D01*
X16931376Y7183769D01*
X16906317Y7209530D01*
X16869552Y7264552D01*
X16867834Y7265700D01*
X16803233Y7308866D01*
X16803231Y7308867D01*
X16803228Y7308868D01*
X16803227Y7308868D01*
X16744758Y7320499D01*
X16744748Y7320500D01*
X15655252Y7320500D01*
X15655251Y7320500D01*
X15655241Y7320499D01*
X15596772Y7308868D01*
X15596766Y7308866D01*
X15530451Y7264555D01*
X15530445Y7264549D01*
X15486134Y7198234D01*
X15486132Y7198228D01*
X15474501Y7139759D01*
X15474500Y7139747D01*
X15474500Y5600254D01*
X6483736Y5600254D01*
X6430467Y5728857D01*
X6430464Y5728863D01*
X6298837Y5943657D01*
X6298836Y5943659D01*
X6241822Y6010414D01*
X6135232Y6135215D01*
X6135229Y6135218D01*
X6135224Y6135224D01*
X6135217Y6135230D01*
X6135214Y6135233D01*
X5943664Y6298832D01*
X5943656Y6298838D01*
X5728862Y6430465D01*
X5728856Y6430468D01*
X5496112Y6526873D01*
X5496113Y6526873D01*
X5251146Y6585684D01*
X5122812Y6595784D01*
X5062882Y6600500D01*
X4937118Y6600500D01*
X4880775Y6596066D01*
X4748853Y6585684D01*
X4503886Y6526873D01*
X4271143Y6430468D01*
X4271137Y6430465D01*
X4056343Y6298838D01*
X4056335Y6298832D01*
X3864785Y6135233D01*
X3864767Y6135215D01*
X3701168Y5943665D01*
X3701162Y5943657D01*
X3569535Y5728863D01*
X3569532Y5728857D01*
X3473127Y5496114D01*
X3414316Y5251147D01*
X3394551Y5000000D01*
X20000Y5000000D01*
X20000Y12170000D01*
X3858973Y12170000D01*
X3864738Y12107784D01*
X3923064Y11902790D01*
X4018057Y11712017D01*
X4018062Y11712008D01*
X4146496Y11541936D01*
X4146506Y11541925D01*
X4303995Y11398353D01*
X4303994Y11398353D01*
X4485206Y11286153D01*
X4683941Y11209162D01*
X4849999Y11178120D01*
X4850000Y11178120D01*
X4850000Y11838830D01*
X4857685Y11835320D01*
X4964237Y11820000D01*
X5035763Y11820000D01*
X5142315Y11835320D01*
X5150000Y11838830D01*
X5150000Y11178120D01*
X5316058Y11209162D01*
X5514793Y11286153D01*
X5696004Y11398353D01*
X5853493Y11541925D01*
X5853503Y11541936D01*
X5981937Y11712008D01*
X5981942Y11712017D01*
X6076935Y11902790D01*
X6135261Y12107784D01*
X6141027Y12170000D01*
X53858973Y12170000D01*
X53864738Y12107784D01*
X53923064Y11902790D01*
X54018057Y11712017D01*
X54018062Y11712008D01*
X54146496Y11541936D01*
X54146506Y11541925D01*
X54303995Y11398353D01*
X54303994Y11398353D01*
X54485206Y11286153D01*
X54683941Y11209162D01*
X54849999Y11178120D01*
X54850000Y11178120D01*
X54850000Y11838830D01*
X54857685Y11835320D01*
X54964237Y11820000D01*
X55035763Y11820000D01*
X55142315Y11835320D01*
X55150000Y11838830D01*
X55150000Y11178120D01*
X55316058Y11209162D01*
X55514793Y11286153D01*
X55696004Y11398353D01*
X55853493Y11541925D01*
X55853503Y11541936D01*
X55981937Y11712008D01*
X55981942Y11712017D01*
X56076935Y11902790D01*
X56135261Y12107784D01*
X56141027Y12170000D01*
X55477065Y12170000D01*
X55500000Y12248111D01*
X55500000Y12391889D01*
X55477065Y12470000D01*
X56141026Y12470000D01*
X56135261Y12532217D01*
X56076935Y12737211D01*
X55981942Y12927984D01*
X55981937Y12927993D01*
X55853503Y13098065D01*
X55853493Y13098076D01*
X55696004Y13241648D01*
X55696005Y13241648D01*
X55514793Y13353848D01*
X55316061Y13430838D01*
X55316055Y13430840D01*
X55150000Y13461882D01*
X55150000Y12801171D01*
X55142315Y12804680D01*
X55035763Y12820000D01*
X54964237Y12820000D01*
X54857685Y12804680D01*
X54850000Y12801171D01*
X54850000Y13461881D01*
X54849999Y13461882D01*
X54683944Y13430840D01*
X54683938Y13430838D01*
X54485206Y13353848D01*
X54303995Y13241648D01*
X54146506Y13098076D01*
X54146496Y13098065D01*
X54018062Y12927993D01*
X54018057Y12927984D01*
X53923064Y12737211D01*
X53864738Y12532217D01*
X53858973Y12470000D01*
X54522935Y12470000D01*
X54500000Y12391889D01*
X54500000Y12248111D01*
X54522935Y12170000D01*
X53858973Y12170000D01*
X6141027Y12170000D01*
X5477065Y12170000D01*
X5500000Y12248111D01*
X5500000Y12391889D01*
X5477065Y12470000D01*
X6141026Y12470000D01*
X6135261Y12532217D01*
X6076935Y12737211D01*
X5981942Y12927984D01*
X5981937Y12927993D01*
X5853503Y13098065D01*
X5853493Y13098076D01*
X5696004Y13241648D01*
X5696005Y13241648D01*
X5514793Y13353848D01*
X5316061Y13430838D01*
X5316055Y13430840D01*
X5150000Y13461882D01*
X5150000Y12801171D01*
X5142315Y12804680D01*
X5035763Y12820000D01*
X4964237Y12820000D01*
X4857685Y12804680D01*
X4850000Y12801171D01*
X4850000Y13461881D01*
X4849999Y13461882D01*
X4683944Y13430840D01*
X4683938Y13430838D01*
X4485206Y13353848D01*
X4303995Y13241648D01*
X4146506Y13098076D01*
X4146496Y13098065D01*
X4018062Y12927993D01*
X4018057Y12927984D01*
X3923064Y12737211D01*
X3864738Y12532217D01*
X3858973Y12470000D01*
X4522935Y12470000D01*
X4500000Y12391889D01*
X4500000Y12248111D01*
X4522935Y12170000D01*
X3858973Y12170000D01*
X20000Y12170000D01*
X20000Y14859997D01*
X3944417Y14859997D01*
X3964698Y14654071D01*
X3964699Y14654066D01*
X4024768Y14456046D01*
X4122316Y14273548D01*
X4253585Y14113596D01*
X4253590Y14113590D01*
X4253595Y14113586D01*
X4413547Y13982317D01*
X4413548Y13982317D01*
X4413550Y13982315D01*
X4596046Y13884768D01*
X4733997Y13842922D01*
X4794065Y13824700D01*
X4794070Y13824699D01*
X4999997Y13804417D01*
X5000000Y13804417D01*
X5000003Y13804417D01*
X5205929Y13824699D01*
X5205934Y13824700D01*
X5403954Y13884768D01*
X5586450Y13982315D01*
X5746410Y14113590D01*
X5877685Y14273550D01*
X5975232Y14456046D01*
X6035300Y14654066D01*
X6035301Y14654071D01*
X6055583Y14859997D01*
X6055583Y14860004D01*
X6035301Y15065930D01*
X6035300Y15065935D01*
X6004927Y15166062D01*
X5975232Y15263954D01*
X5877685Y15446450D01*
X5746410Y15606410D01*
X5746404Y15606415D01*
X5586452Y15737684D01*
X5403954Y15835232D01*
X5205934Y15895301D01*
X5205929Y15895302D01*
X5000003Y15915583D01*
X4999997Y15915583D01*
X4794070Y15895302D01*
X4794065Y15895301D01*
X4596045Y15835232D01*
X4413547Y15737684D01*
X4253595Y15606415D01*
X4253585Y15606405D01*
X4122316Y15446453D01*
X4024768Y15263955D01*
X3964699Y15065935D01*
X3964698Y15065930D01*
X3944417Y14860004D01*
X3944417Y14859997D01*
X20000Y14859997D01*
X20000Y17399997D01*
X3944417Y17399997D01*
X3964698Y17194071D01*
X3964699Y17194066D01*
X4024768Y16996046D01*
X4122316Y16813548D01*
X4253585Y16653596D01*
X4253590Y16653590D01*
X4253595Y16653586D01*
X4413547Y16522317D01*
X4413548Y16522317D01*
X4413550Y16522315D01*
X4596046Y16424768D01*
X4733997Y16382922D01*
X4794065Y16364700D01*
X4794070Y16364699D01*
X4999997Y16344417D01*
X5000000Y16344417D01*
X5000003Y16344417D01*
X5205929Y16364699D01*
X5205934Y16364700D01*
X5403954Y16424768D01*
X5586450Y16522315D01*
X5746410Y16653590D01*
X5877685Y16813550D01*
X5975232Y16996046D01*
X6035300Y17194066D01*
X6035301Y17194071D01*
X6055583Y17399997D01*
X6055583Y17399998D01*
X13854867Y17399998D01*
X13873302Y17271775D01*
X13908789Y17194071D01*
X13927118Y17153937D01*
X13976517Y17096927D01*
X14011952Y17056032D01*
X14120926Y16985999D01*
X14120931Y16985996D01*
X14245228Y16949500D01*
X14245230Y16949500D01*
X14374770Y16949500D01*
X14374772Y16949500D01*
X14499069Y16985996D01*
X14608049Y17056033D01*
X14616105Y17065330D01*
X14668500Y17096927D01*
X14690925Y17099500D01*
X34714521Y17099500D01*
X34772712Y17080593D01*
X34784525Y17070504D01*
X36876503Y14978525D01*
X36904280Y14924008D01*
X36904491Y14922610D01*
X36923302Y14791775D01*
X36977117Y14673939D01*
X36977118Y14673937D01*
X37061951Y14576033D01*
X37061952Y14576032D01*
X37170926Y14505999D01*
X37170931Y14505996D01*
X37295228Y14469500D01*
X37295230Y14469500D01*
X37424770Y14469500D01*
X37424772Y14469500D01*
X37549069Y14505996D01*
X37658049Y14576033D01*
X37742882Y14673937D01*
X37796697Y14791774D01*
X37806506Y14859997D01*
X53944417Y14859997D01*
X53964698Y14654071D01*
X53964699Y14654066D01*
X54024768Y14456046D01*
X54122316Y14273548D01*
X54253585Y14113596D01*
X54253590Y14113590D01*
X54253595Y14113586D01*
X54413547Y13982317D01*
X54413548Y13982317D01*
X54413550Y13982315D01*
X54596046Y13884768D01*
X54733997Y13842922D01*
X54794065Y13824700D01*
X54794070Y13824699D01*
X54999997Y13804417D01*
X55000000Y13804417D01*
X55000003Y13804417D01*
X55205929Y13824699D01*
X55205934Y13824700D01*
X55403954Y13884768D01*
X55586450Y13982315D01*
X55746410Y14113590D01*
X55877685Y14273550D01*
X55975232Y14456046D01*
X56035300Y14654066D01*
X56035301Y14654071D01*
X56055583Y14859997D01*
X56055583Y14860004D01*
X56035301Y15065930D01*
X56035300Y15065935D01*
X56004927Y15166062D01*
X55975232Y15263954D01*
X55877685Y15446450D01*
X55746410Y15606410D01*
X55746404Y15606415D01*
X55586452Y15737684D01*
X55403954Y15835232D01*
X55205934Y15895301D01*
X55205929Y15895302D01*
X55000003Y15915583D01*
X54999997Y15915583D01*
X54794070Y15895302D01*
X54794065Y15895301D01*
X54596045Y15835232D01*
X54413547Y15737684D01*
X54253595Y15606415D01*
X54253585Y15606405D01*
X54122316Y15446453D01*
X54024768Y15263955D01*
X53964699Y15065935D01*
X53964698Y15065930D01*
X53944417Y14860004D01*
X53944417Y14859997D01*
X37806506Y14859997D01*
X37815133Y14920000D01*
X37806718Y14978525D01*
X37796697Y15048226D01*
X37742882Y15166062D01*
X37742882Y15166063D01*
X37658049Y15263967D01*
X37658048Y15263968D01*
X37658047Y15263969D01*
X37549073Y15334002D01*
X37549070Y15334004D01*
X37549069Y15334004D01*
X37549066Y15334005D01*
X37424774Y15370500D01*
X37424772Y15370500D01*
X37375479Y15370500D01*
X37317288Y15389407D01*
X37305475Y15399496D01*
X35304974Y17399997D01*
X53944417Y17399997D01*
X53964698Y17194071D01*
X53964699Y17194066D01*
X54024768Y16996046D01*
X54122316Y16813548D01*
X54253585Y16653596D01*
X54253590Y16653590D01*
X54253595Y16653586D01*
X54413547Y16522317D01*
X54413548Y16522317D01*
X54413550Y16522315D01*
X54596046Y16424768D01*
X54733997Y16382922D01*
X54794065Y16364700D01*
X54794070Y16364699D01*
X54999997Y16344417D01*
X55000000Y16344417D01*
X55000003Y16344417D01*
X55205929Y16364699D01*
X55205934Y16364700D01*
X55403954Y16424768D01*
X55586450Y16522315D01*
X55746410Y16653590D01*
X55877685Y16813550D01*
X55975232Y16996046D01*
X56035300Y17194066D01*
X56035301Y17194071D01*
X56055583Y17399997D01*
X56055583Y17400004D01*
X56035301Y17605930D01*
X56035300Y17605935D01*
X56005134Y17705379D01*
X55975232Y17803954D01*
X55877685Y17986450D01*
X55746410Y18146410D01*
X55746404Y18146415D01*
X55586452Y18277684D01*
X55403954Y18375232D01*
X55205934Y18435301D01*
X55205929Y18435302D01*
X55000003Y18455583D01*
X54999997Y18455583D01*
X54794070Y18435302D01*
X54794065Y18435301D01*
X54596045Y18375232D01*
X54413547Y18277684D01*
X54253595Y18146415D01*
X54253585Y18146405D01*
X54122316Y17986453D01*
X54024768Y17803955D01*
X53964699Y17605935D01*
X53964698Y17605930D01*
X53944417Y17400004D01*
X53944417Y17399997D01*
X35304974Y17399997D01*
X35138565Y17566406D01*
X35130479Y17577656D01*
X35129487Y17576906D01*
X35123958Y17584228D01*
X35088428Y17616618D01*
X35086775Y17618196D01*
X35072797Y17632174D01*
X35069859Y17634187D01*
X35064496Y17638436D01*
X35040933Y17659916D01*
X35031762Y17663469D01*
X35011586Y17674105D01*
X35003484Y17679655D01*
X35003479Y17679657D01*
X34972457Y17686954D01*
X34965902Y17688984D01*
X34936177Y17700499D01*
X34936174Y17700500D01*
X34936173Y17700500D01*
X34936172Y17700500D01*
X34926348Y17700500D01*
X34903683Y17703130D01*
X34894119Y17705379D01*
X34894118Y17705379D01*
X34862547Y17700975D01*
X34855701Y17700500D01*
X14690925Y17700500D01*
X14632734Y17719407D01*
X14616105Y17734670D01*
X14608049Y17743967D01*
X14608048Y17743968D01*
X14499073Y17814002D01*
X14499070Y17814004D01*
X14499069Y17814004D01*
X14499066Y17814005D01*
X14374774Y17850500D01*
X14374772Y17850500D01*
X14245228Y17850500D01*
X14245225Y17850500D01*
X14120933Y17814005D01*
X14120926Y17814002D01*
X14011952Y17743969D01*
X13927117Y17646062D01*
X13873302Y17528226D01*
X13854867Y17400003D01*
X13854867Y17399998D01*
X6055583Y17399998D01*
X6055583Y17400004D01*
X6035301Y17605930D01*
X6035300Y17605935D01*
X6005134Y17705379D01*
X5975232Y17803954D01*
X5877685Y17986450D01*
X5746410Y18146410D01*
X5746404Y18146415D01*
X5586452Y18277684D01*
X5403954Y18375232D01*
X5205934Y18435301D01*
X5205929Y18435302D01*
X5000003Y18455583D01*
X4999997Y18455583D01*
X4794070Y18435302D01*
X4794065Y18435301D01*
X4596045Y18375232D01*
X4413547Y18277684D01*
X4253595Y18146415D01*
X4253585Y18146405D01*
X4122316Y17986453D01*
X4024768Y17803955D01*
X3964699Y17605935D01*
X3964698Y17605930D01*
X3944417Y17400004D01*
X3944417Y17399997D01*
X20000Y17399997D01*
X20000Y19939997D01*
X3944417Y19939997D01*
X3964698Y19734071D01*
X3964699Y19734066D01*
X4024768Y19536046D01*
X4122316Y19353548D01*
X4253585Y19193596D01*
X4253590Y19193590D01*
X4253595Y19193586D01*
X4413547Y19062317D01*
X4413548Y19062317D01*
X4413550Y19062315D01*
X4596046Y18964768D01*
X4733997Y18922922D01*
X4794065Y18904700D01*
X4794070Y18904699D01*
X4999997Y18884417D01*
X5000000Y18884417D01*
X5000003Y18884417D01*
X5205929Y18904699D01*
X5205934Y18904700D01*
X5403954Y18964768D01*
X5586450Y19062315D01*
X5746410Y19193590D01*
X5877685Y19353550D01*
X5975232Y19536046D01*
X6035300Y19734066D01*
X6035301Y19734071D01*
X6055583Y19939997D01*
X53944417Y19939997D01*
X53964698Y19734071D01*
X53964699Y19734066D01*
X54024768Y19536046D01*
X54122316Y19353548D01*
X54253585Y19193596D01*
X54253590Y19193590D01*
X54253595Y19193586D01*
X54413547Y19062317D01*
X54413548Y19062317D01*
X54413550Y19062315D01*
X54596046Y18964768D01*
X54733997Y18922922D01*
X54794065Y18904700D01*
X54794070Y18904699D01*
X54999997Y18884417D01*
X55000000Y18884417D01*
X55000003Y18884417D01*
X55205929Y18904699D01*
X55205934Y18904700D01*
X55403954Y18964768D01*
X55586450Y19062315D01*
X55746410Y19193590D01*
X55877685Y19353550D01*
X55975232Y19536046D01*
X56035300Y19734066D01*
X56035301Y19734071D01*
X56055583Y19939997D01*
X56055583Y19940004D01*
X56035301Y20145930D01*
X56035300Y20145935D01*
X56017078Y20206003D01*
X55975232Y20343954D01*
X55877685Y20526450D01*
X55746410Y20686410D01*
X55746404Y20686415D01*
X55586452Y20817684D01*
X55403954Y20915232D01*
X55205934Y20975301D01*
X55205929Y20975302D01*
X55000003Y20995583D01*
X54999997Y20995583D01*
X54794070Y20975302D01*
X54794065Y20975301D01*
X54596045Y20915232D01*
X54413547Y20817684D01*
X54253595Y20686415D01*
X54253585Y20686405D01*
X54122316Y20526453D01*
X54024768Y20343955D01*
X53964699Y20145935D01*
X53964698Y20145930D01*
X53944417Y19940004D01*
X53944417Y19939997D01*
X6055583Y19939997D01*
X6055583Y19940004D01*
X6035301Y20145930D01*
X6035300Y20145935D01*
X6017078Y20206003D01*
X5975232Y20343954D01*
X5877685Y20526450D01*
X5746410Y20686410D01*
X5746404Y20686415D01*
X5586452Y20817684D01*
X5403954Y20915232D01*
X5205934Y20975301D01*
X5205929Y20975302D01*
X5000003Y20995583D01*
X4999997Y20995583D01*
X4794070Y20975302D01*
X4794065Y20975301D01*
X4596045Y20915232D01*
X4413547Y20817684D01*
X4253595Y20686415D01*
X4253585Y20686405D01*
X4122316Y20526453D01*
X4024768Y20343955D01*
X3964699Y20145935D01*
X3964698Y20145930D01*
X3944417Y19940004D01*
X3944417Y19939997D01*
X20000Y19939997D01*
X20000Y22479997D01*
X3944417Y22479997D01*
X3964698Y22274071D01*
X3964699Y22274066D01*
X4024768Y22076046D01*
X4122316Y21893548D01*
X4253585Y21733596D01*
X4253590Y21733590D01*
X4253595Y21733586D01*
X4413547Y21602317D01*
X4413548Y21602317D01*
X4413550Y21602315D01*
X4596046Y21504768D01*
X4733997Y21462922D01*
X4794065Y21444700D01*
X4794070Y21444699D01*
X4999997Y21424417D01*
X5000000Y21424417D01*
X5000003Y21424417D01*
X5205929Y21444699D01*
X5205934Y21444700D01*
X5403954Y21504768D01*
X5586450Y21602315D01*
X5746410Y21733590D01*
X5877685Y21893550D01*
X5975232Y22076046D01*
X6035300Y22274066D01*
X6035301Y22274071D01*
X6055583Y22479997D01*
X53944417Y22479997D01*
X53964698Y22274071D01*
X53964699Y22274066D01*
X54024768Y22076046D01*
X54122316Y21893548D01*
X54253585Y21733596D01*
X54253590Y21733590D01*
X54253595Y21733586D01*
X54413547Y21602317D01*
X54413548Y21602317D01*
X54413550Y21602315D01*
X54596046Y21504768D01*
X54733997Y21462922D01*
X54794065Y21444700D01*
X54794070Y21444699D01*
X54999997Y21424417D01*
X55000000Y21424417D01*
X55000003Y21424417D01*
X55205929Y21444699D01*
X55205934Y21444700D01*
X55403954Y21504768D01*
X55586450Y21602315D01*
X55746410Y21733590D01*
X55877685Y21893550D01*
X55975232Y22076046D01*
X56035300Y22274066D01*
X56035301Y22274071D01*
X56055583Y22479997D01*
X56055583Y22480004D01*
X56035301Y22685930D01*
X56035300Y22685935D01*
X56017078Y22746003D01*
X55975232Y22883954D01*
X55877685Y23066450D01*
X55746410Y23226410D01*
X55746404Y23226415D01*
X55586452Y23357684D01*
X55403954Y23455232D01*
X55205934Y23515301D01*
X55205929Y23515302D01*
X55000003Y23535583D01*
X54999997Y23535583D01*
X54794070Y23515302D01*
X54794065Y23515301D01*
X54596045Y23455232D01*
X54413547Y23357684D01*
X54253595Y23226415D01*
X54253585Y23226405D01*
X54122316Y23066453D01*
X54024768Y22883955D01*
X53964699Y22685935D01*
X53964698Y22685930D01*
X53944417Y22480004D01*
X53944417Y22479997D01*
X6055583Y22479997D01*
X6055583Y22480004D01*
X6035301Y22685930D01*
X6035300Y22685935D01*
X6017078Y22746003D01*
X5975232Y22883954D01*
X5877685Y23066450D01*
X5746410Y23226410D01*
X5746404Y23226415D01*
X5586452Y23357684D01*
X5403954Y23455232D01*
X5205934Y23515301D01*
X5205929Y23515302D01*
X5000003Y23535583D01*
X4999997Y23535583D01*
X4794070Y23515302D01*
X4794065Y23515301D01*
X4596045Y23455232D01*
X4413547Y23357684D01*
X4253595Y23226415D01*
X4253585Y23226405D01*
X4122316Y23066453D01*
X4024768Y22883955D01*
X3964699Y22685935D01*
X3964698Y22685930D01*
X3944417Y22480004D01*
X3944417Y22479997D01*
X20000Y22479997D01*
X20000Y25019997D01*
X3944417Y25019997D01*
X3964698Y24814071D01*
X3964699Y24814066D01*
X4024768Y24616046D01*
X4122316Y24433548D01*
X4253585Y24273596D01*
X4253590Y24273590D01*
X4253595Y24273586D01*
X4413547Y24142317D01*
X4413548Y24142317D01*
X4413550Y24142315D01*
X4596046Y24044768D01*
X4733997Y24002922D01*
X4794065Y23984700D01*
X4794070Y23984699D01*
X4999997Y23964417D01*
X5000000Y23964417D01*
X5000003Y23964417D01*
X5205929Y23984699D01*
X5205934Y23984700D01*
X5403954Y24044768D01*
X5586450Y24142315D01*
X5746410Y24273590D01*
X5877685Y24433550D01*
X5975232Y24616046D01*
X6035300Y24814066D01*
X6035301Y24814071D01*
X6055583Y25019997D01*
X53944417Y25019997D01*
X53964698Y24814071D01*
X53964699Y24814066D01*
X54024768Y24616046D01*
X54122316Y24433548D01*
X54253585Y24273596D01*
X54253590Y24273590D01*
X54253595Y24273586D01*
X54413547Y24142317D01*
X54413548Y24142317D01*
X54413550Y24142315D01*
X54596046Y24044768D01*
X54733997Y24002922D01*
X54794065Y23984700D01*
X54794070Y23984699D01*
X54999997Y23964417D01*
X55000000Y23964417D01*
X55000003Y23964417D01*
X55205929Y23984699D01*
X55205934Y23984700D01*
X55403954Y24044768D01*
X55586450Y24142315D01*
X55746410Y24273590D01*
X55877685Y24433550D01*
X55975232Y24616046D01*
X56035300Y24814066D01*
X56035301Y24814071D01*
X56055583Y25019997D01*
X56055583Y25020004D01*
X56035301Y25225930D01*
X56035300Y25225935D01*
X56017078Y25286003D01*
X55975232Y25423954D01*
X55877685Y25606450D01*
X55746410Y25766410D01*
X55746404Y25766415D01*
X55586452Y25897684D01*
X55403954Y25995232D01*
X55205934Y26055301D01*
X55205929Y26055302D01*
X55000003Y26075583D01*
X54999997Y26075583D01*
X54794070Y26055302D01*
X54794065Y26055301D01*
X54596045Y25995232D01*
X54413547Y25897684D01*
X54253595Y25766415D01*
X54253585Y25766405D01*
X54122316Y25606453D01*
X54024768Y25423955D01*
X53964699Y25225935D01*
X53964698Y25225930D01*
X53944417Y25020004D01*
X53944417Y25019997D01*
X6055583Y25019997D01*
X6055583Y25020004D01*
X6035301Y25225930D01*
X6035300Y25225935D01*
X6017078Y25286003D01*
X5975232Y25423954D01*
X5877685Y25606450D01*
X5746410Y25766410D01*
X5746404Y25766415D01*
X5586452Y25897684D01*
X5403954Y25995232D01*
X5205934Y26055301D01*
X5205929Y26055302D01*
X5000003Y26075583D01*
X4999997Y26075583D01*
X4794070Y26055302D01*
X4794065Y26055301D01*
X4596045Y25995232D01*
X4413547Y25897684D01*
X4253595Y25766415D01*
X4253585Y25766405D01*
X4122316Y25606453D01*
X4024768Y25423955D01*
X3964699Y25225935D01*
X3964698Y25225930D01*
X3944417Y25020004D01*
X3944417Y25019997D01*
X20000Y25019997D01*
X20000Y27559997D01*
X3944417Y27559997D01*
X3964698Y27354071D01*
X3964699Y27354066D01*
X4024768Y27156046D01*
X4122316Y26973548D01*
X4253585Y26813596D01*
X4253590Y26813590D01*
X4253595Y26813586D01*
X4413547Y26682317D01*
X4413548Y26682317D01*
X4413550Y26682315D01*
X4596046Y26584768D01*
X4733997Y26542922D01*
X4794065Y26524700D01*
X4794070Y26524699D01*
X4999997Y26504417D01*
X5000000Y26504417D01*
X5000003Y26504417D01*
X5205929Y26524699D01*
X5205934Y26524700D01*
X5403954Y26584768D01*
X5586450Y26682315D01*
X5746410Y26813590D01*
X5877685Y26973550D01*
X5975232Y27156046D01*
X6035300Y27354066D01*
X6035301Y27354071D01*
X6055583Y27559997D01*
X53944417Y27559997D01*
X53964698Y27354071D01*
X53964699Y27354066D01*
X54024768Y27156046D01*
X54122316Y26973548D01*
X54253585Y26813596D01*
X54253590Y26813590D01*
X54253595Y26813586D01*
X54413547Y26682317D01*
X54413548Y26682317D01*
X54413550Y26682315D01*
X54596046Y26584768D01*
X54733997Y26542922D01*
X54794065Y26524700D01*
X54794070Y26524699D01*
X54999997Y26504417D01*
X55000000Y26504417D01*
X55000003Y26504417D01*
X55205929Y26524699D01*
X55205934Y26524700D01*
X55403954Y26584768D01*
X55586450Y26682315D01*
X55746410Y26813590D01*
X55877685Y26973550D01*
X55975232Y27156046D01*
X56035300Y27354066D01*
X56035301Y27354071D01*
X56055583Y27559997D01*
X56055583Y27560004D01*
X56035301Y27765930D01*
X56035300Y27765935D01*
X56017078Y27826003D01*
X55975232Y27963954D01*
X55877685Y28146450D01*
X55746410Y28306410D01*
X55705423Y28340047D01*
X55586452Y28437684D01*
X55403954Y28535232D01*
X55205934Y28595301D01*
X55205929Y28595302D01*
X55000003Y28615583D01*
X54999997Y28615583D01*
X54794070Y28595302D01*
X54794065Y28595301D01*
X54596045Y28535232D01*
X54413547Y28437684D01*
X54253595Y28306415D01*
X54253585Y28306405D01*
X54122316Y28146453D01*
X54024768Y27963955D01*
X53964699Y27765935D01*
X53964698Y27765930D01*
X53944417Y27560004D01*
X53944417Y27559997D01*
X6055583Y27559997D01*
X6055583Y27560004D01*
X6035301Y27765930D01*
X6035300Y27765935D01*
X6017078Y27826003D01*
X5975232Y27963954D01*
X5877685Y28146450D01*
X5746410Y28306410D01*
X5705423Y28340047D01*
X5586452Y28437684D01*
X5403954Y28535232D01*
X5205934Y28595301D01*
X5205929Y28595302D01*
X5000003Y28615583D01*
X4999997Y28615583D01*
X4794070Y28595302D01*
X4794065Y28595301D01*
X4596045Y28535232D01*
X4413547Y28437684D01*
X4253595Y28306415D01*
X4253585Y28306405D01*
X4122316Y28146453D01*
X4024768Y27963955D01*
X3964699Y27765935D01*
X3964698Y27765930D01*
X3944417Y27560004D01*
X3944417Y27559997D01*
X20000Y27559997D01*
X20000Y30099997D01*
X3944417Y30099997D01*
X3964698Y29894071D01*
X3964699Y29894066D01*
X4024768Y29696046D01*
X4122316Y29513548D01*
X4253585Y29353596D01*
X4253590Y29353590D01*
X4253595Y29353586D01*
X4413547Y29222317D01*
X4413548Y29222317D01*
X4413550Y29222315D01*
X4596046Y29124768D01*
X4733997Y29082922D01*
X4794065Y29064700D01*
X4794070Y29064699D01*
X4999997Y29044417D01*
X5000000Y29044417D01*
X5000003Y29044417D01*
X5205929Y29064699D01*
X5205934Y29064700D01*
X5234525Y29073373D01*
X5403954Y29124768D01*
X5586450Y29222315D01*
X5746410Y29353590D01*
X5877685Y29513550D01*
X5975232Y29696046D01*
X6035300Y29894066D01*
X6035301Y29894071D01*
X6055583Y30099997D01*
X6055583Y30100004D01*
X6035301Y30305930D01*
X6035300Y30305935D01*
X6017078Y30366003D01*
X5975232Y30503954D01*
X5877685Y30686450D01*
X5746410Y30846410D01*
X5746404Y30846415D01*
X5586452Y30977684D01*
X5403954Y31075232D01*
X5205934Y31135301D01*
X5205929Y31135302D01*
X5000003Y31155583D01*
X4999997Y31155583D01*
X4794070Y31135302D01*
X4794065Y31135301D01*
X4596045Y31075232D01*
X4413547Y30977684D01*
X4253595Y30846415D01*
X4253585Y30846405D01*
X4122316Y30686453D01*
X4024768Y30503955D01*
X3964699Y30305935D01*
X3964698Y30305930D01*
X3944417Y30100004D01*
X3944417Y30099997D01*
X20000Y30099997D01*
X20000Y32639997D01*
X3944417Y32639997D01*
X3964698Y32434071D01*
X3964699Y32434066D01*
X4024768Y32236046D01*
X4122316Y32053548D01*
X4210739Y31945804D01*
X4253590Y31893590D01*
X4253595Y31893586D01*
X4413547Y31762317D01*
X4413548Y31762317D01*
X4413550Y31762315D01*
X4596046Y31664768D01*
X4722550Y31626394D01*
X4794065Y31604700D01*
X4794070Y31604699D01*
X4999997Y31584417D01*
X5000000Y31584417D01*
X5000003Y31584417D01*
X5205929Y31604699D01*
X5205934Y31604700D01*
X5403954Y31664768D01*
X5586450Y31762315D01*
X5746410Y31893590D01*
X5877685Y32053550D01*
X5975232Y32236046D01*
X6035300Y32434066D01*
X6035301Y32434071D01*
X6055583Y32639997D01*
X6055583Y32640004D01*
X6035301Y32845930D01*
X6035300Y32845935D01*
X6017078Y32906003D01*
X5975232Y33043954D01*
X5877685Y33226450D01*
X5746410Y33386410D01*
X5746404Y33386415D01*
X5586452Y33517684D01*
X5403954Y33615232D01*
X5205934Y33675301D01*
X5205929Y33675302D01*
X5000003Y33695583D01*
X4999997Y33695583D01*
X4794070Y33675302D01*
X4794065Y33675301D01*
X4596045Y33615232D01*
X4413547Y33517684D01*
X4253595Y33386415D01*
X4253585Y33386405D01*
X4122316Y33226453D01*
X4024768Y33043955D01*
X3964699Y32845935D01*
X3964698Y32845930D01*
X3944417Y32640004D01*
X3944417Y32639997D01*
X20000Y32639997D01*
X20000Y35179997D01*
X3944417Y35179997D01*
X3964698Y34974071D01*
X3964699Y34974066D01*
X4024768Y34776046D01*
X4122316Y34593548D01*
X4253585Y34433596D01*
X4253590Y34433590D01*
X4253595Y34433586D01*
X4413547Y34302317D01*
X4413548Y34302317D01*
X4413550Y34302315D01*
X4596046Y34204768D01*
X4733997Y34162922D01*
X4794065Y34144700D01*
X4794070Y34144699D01*
X4999997Y34124417D01*
X5000000Y34124417D01*
X5000003Y34124417D01*
X5205929Y34144699D01*
X5205934Y34144700D01*
X5403954Y34204768D01*
X5586450Y34302315D01*
X5746410Y34433590D01*
X5877685Y34593550D01*
X5975232Y34776046D01*
X6035300Y34974066D01*
X6035301Y34974071D01*
X6055583Y35179997D01*
X6055583Y35180004D01*
X6035301Y35385930D01*
X6035300Y35385935D01*
X6005393Y35484525D01*
X5975232Y35583954D01*
X5969798Y35594121D01*
X27614621Y35594121D01*
X27619025Y35562548D01*
X27619500Y35555702D01*
X27619500Y32575165D01*
X27617280Y32561487D01*
X27618494Y32561317D01*
X27617226Y32552234D01*
X27619447Y32504217D01*
X27619500Y32501931D01*
X27619500Y32482158D01*
X27620152Y32478668D01*
X27620943Y32471851D01*
X27622414Y32440013D01*
X27622415Y32440006D01*
X27626384Y32431018D01*
X27633133Y32409227D01*
X27634939Y32399567D01*
X27651717Y32372467D01*
X27654915Y32366400D01*
X27667793Y32337237D01*
X27667794Y32337235D01*
X27674745Y32330284D01*
X27688907Y32312404D01*
X27694081Y32304048D01*
X27719511Y32284844D01*
X27724690Y32280338D01*
X28270936Y31734093D01*
X28279037Y31722853D01*
X28280016Y31723591D01*
X28285544Y31716270D01*
X28321069Y31683884D01*
X28322723Y31682305D01*
X28336701Y31668328D01*
X28336703Y31668326D01*
X28339628Y31666322D01*
X28345005Y31662063D01*
X28368564Y31640586D01*
X28368565Y31640586D01*
X28368567Y31640584D01*
X28377730Y31637034D01*
X28397916Y31626395D01*
X28406019Y31620844D01*
X28437053Y31613545D01*
X28443590Y31611521D01*
X28473327Y31600000D01*
X28483152Y31600000D01*
X28505816Y31597371D01*
X28515381Y31595121D01*
X28539994Y31598555D01*
X28546953Y31599525D01*
X28553799Y31600000D01*
X30100500Y31600000D01*
X30158691Y31581093D01*
X30194655Y31531593D01*
X30199500Y31501000D01*
X30199500Y28993481D01*
X30214354Y28899696D01*
X30271950Y28786658D01*
X30306255Y28752353D01*
X30334031Y28697838D01*
X30334242Y28696440D01*
X30339834Y28657544D01*
X30395693Y28535232D01*
X30399623Y28526627D01*
X30476691Y28437685D01*
X30493873Y28417856D01*
X30614942Y28340050D01*
X30614947Y28340047D01*
X30721403Y28308789D01*
X30753035Y28299501D01*
X30753036Y28299501D01*
X30753039Y28299500D01*
X30753041Y28299500D01*
X30896959Y28299500D01*
X30896961Y28299500D01*
X31035053Y28340047D01*
X31156128Y28417857D01*
X31250377Y28526627D01*
X31310165Y28657543D01*
X31330647Y28800000D01*
X31310165Y28942457D01*
X31250377Y29073373D01*
X31156128Y29182143D01*
X31156127Y29182144D01*
X31156126Y29182145D01*
X31045977Y29252933D01*
X31007245Y29300299D01*
X31000500Y29336217D01*
X31000500Y30099997D01*
X53944417Y30099997D01*
X53964698Y29894071D01*
X53964699Y29894066D01*
X54024768Y29696046D01*
X54122316Y29513548D01*
X54253585Y29353596D01*
X54253590Y29353590D01*
X54253595Y29353586D01*
X54413547Y29222317D01*
X54413548Y29222317D01*
X54413550Y29222315D01*
X54596046Y29124768D01*
X54733997Y29082922D01*
X54794065Y29064700D01*
X54794070Y29064699D01*
X54999997Y29044417D01*
X55000000Y29044417D01*
X55000003Y29044417D01*
X55205929Y29064699D01*
X55205934Y29064700D01*
X55234525Y29073373D01*
X55403954Y29124768D01*
X55586450Y29222315D01*
X55746410Y29353590D01*
X55877685Y29513550D01*
X55975232Y29696046D01*
X56035300Y29894066D01*
X56035301Y29894071D01*
X56055583Y30099997D01*
X56055583Y30100004D01*
X56035301Y30305930D01*
X56035300Y30305935D01*
X56017078Y30366003D01*
X55975232Y30503954D01*
X55877685Y30686450D01*
X55746410Y30846410D01*
X55746404Y30846415D01*
X55586452Y30977684D01*
X55403954Y31075232D01*
X55205934Y31135301D01*
X55205929Y31135302D01*
X55000003Y31155583D01*
X54999997Y31155583D01*
X54794070Y31135302D01*
X54794065Y31135301D01*
X54596045Y31075232D01*
X54413547Y30977684D01*
X54253595Y30846415D01*
X54253585Y30846405D01*
X54122316Y30686453D01*
X54024768Y30503955D01*
X53964699Y30305935D01*
X53964698Y30305930D01*
X53944417Y30100004D01*
X53944417Y30099997D01*
X31000500Y30099997D01*
X31000500Y31852021D01*
X30993915Y31893596D01*
X30985646Y31945804D01*
X30984414Y31948222D01*
X30976562Y31975345D01*
X30976544Y31975339D01*
X30975435Y31979235D01*
X30974046Y31984033D01*
X30974035Y31984160D01*
X30974033Y31984164D01*
X30972101Y31990955D01*
X30969857Y31997650D01*
X30969857Y31997651D01*
X30946457Y32039663D01*
X30945409Y32041648D01*
X30923958Y32084728D01*
X30923956Y32084730D01*
X30919695Y32090371D01*
X30915187Y32095802D01*
X30878192Y32126522D01*
X30876467Y32128023D01*
X30840932Y32160417D01*
X30834930Y32164134D01*
X30828758Y32167571D01*
X30783171Y32182851D01*
X30781021Y32183627D01*
X30735312Y32201334D01*
X30730720Y32203387D01*
X30725304Y32206146D01*
X30600000Y32225992D01*
X30474695Y32206146D01*
X30473770Y32205845D01*
X30443179Y32201000D01*
X28694979Y32201000D01*
X28636788Y32219907D01*
X28624975Y32229996D01*
X28249496Y32605475D01*
X28231907Y32639997D01*
X53944417Y32639997D01*
X53964698Y32434071D01*
X53964699Y32434066D01*
X54024768Y32236046D01*
X54122316Y32053548D01*
X54210739Y31945804D01*
X54253590Y31893590D01*
X54253595Y31893586D01*
X54413547Y31762317D01*
X54413548Y31762317D01*
X54413550Y31762315D01*
X54596046Y31664768D01*
X54722550Y31626394D01*
X54794065Y31604700D01*
X54794070Y31604699D01*
X54999997Y31584417D01*
X55000000Y31584417D01*
X55000003Y31584417D01*
X55205929Y31604699D01*
X55205934Y31604700D01*
X55403954Y31664768D01*
X55586450Y31762315D01*
X55746410Y31893590D01*
X55877685Y32053550D01*
X55975232Y32236046D01*
X56035300Y32434066D01*
X56035301Y32434071D01*
X56055583Y32639997D01*
X56055583Y32640004D01*
X56035301Y32845930D01*
X56035300Y32845935D01*
X56017078Y32906003D01*
X55975232Y33043954D01*
X55877685Y33226450D01*
X55746410Y33386410D01*
X55746404Y33386415D01*
X55586452Y33517684D01*
X55403954Y33615232D01*
X55205934Y33675301D01*
X55205929Y33675302D01*
X55000003Y33695583D01*
X54999997Y33695583D01*
X54794070Y33675302D01*
X54794065Y33675301D01*
X54596045Y33615232D01*
X54413547Y33517684D01*
X54253595Y33386415D01*
X54253585Y33386405D01*
X54122316Y33226453D01*
X54024768Y33043955D01*
X53964699Y32845935D01*
X53964698Y32845930D01*
X53944417Y32640004D01*
X53944417Y32639997D01*
X28231907Y32639997D01*
X28221719Y32659992D01*
X28220500Y32675479D01*
X28220500Y35179997D01*
X53944417Y35179997D01*
X53964698Y34974071D01*
X53964699Y34974066D01*
X54024768Y34776046D01*
X54122316Y34593548D01*
X54253585Y34433596D01*
X54253590Y34433590D01*
X54253595Y34433586D01*
X54413547Y34302317D01*
X54413548Y34302317D01*
X54413550Y34302315D01*
X54596046Y34204768D01*
X54733997Y34162922D01*
X54794065Y34144700D01*
X54794070Y34144699D01*
X54999997Y34124417D01*
X55000000Y34124417D01*
X55000003Y34124417D01*
X55205929Y34144699D01*
X55205934Y34144700D01*
X55403954Y34204768D01*
X55586450Y34302315D01*
X55746410Y34433590D01*
X55877685Y34593550D01*
X55975232Y34776046D01*
X56035300Y34974066D01*
X56035301Y34974071D01*
X56055583Y35179997D01*
X56055583Y35180004D01*
X56035301Y35385930D01*
X56035300Y35385935D01*
X56005393Y35484525D01*
X55975232Y35583954D01*
X55877685Y35766450D01*
X55873171Y35771950D01*
X55746414Y35926405D01*
X55746410Y35926410D01*
X55687573Y35974696D01*
X55586452Y36057684D01*
X55403954Y36155232D01*
X55205934Y36215301D01*
X55205929Y36215302D01*
X55000003Y36235583D01*
X54999997Y36235583D01*
X54794070Y36215302D01*
X54794065Y36215301D01*
X54596045Y36155232D01*
X54413547Y36057684D01*
X54253595Y35926415D01*
X54253585Y35926405D01*
X54122316Y35766453D01*
X54024768Y35583955D01*
X53964699Y35385935D01*
X53964698Y35385930D01*
X53944417Y35180004D01*
X53944417Y35179997D01*
X28220500Y35179997D01*
X28220500Y35414521D01*
X28239407Y35472712D01*
X28249496Y35484525D01*
X28535475Y35770504D01*
X28589992Y35798281D01*
X28605479Y35799500D01*
X28879075Y35799500D01*
X28937266Y35780593D01*
X28953895Y35765330D01*
X28961950Y35756034D01*
X28961951Y35756033D01*
X29043731Y35703476D01*
X29070931Y35685996D01*
X29195228Y35649500D01*
X29195230Y35649500D01*
X29324770Y35649500D01*
X29324772Y35649500D01*
X29449069Y35685996D01*
X29525640Y35735206D01*
X29584815Y35750760D01*
X29624107Y35740131D01*
X29674696Y35714354D01*
X29776418Y35698243D01*
X29799999Y35694508D01*
X29799999Y35694509D01*
X29800000Y35694508D01*
X29925304Y35714354D01*
X30038342Y35771950D01*
X30128050Y35861658D01*
X30185646Y35974696D01*
X30200500Y36068481D01*
X30200500Y37181519D01*
X30185646Y37275304D01*
X30128050Y37388342D01*
X30128046Y37388346D01*
X30123469Y37394647D01*
X30124983Y37395748D01*
X30101717Y37441425D01*
X30100500Y37456900D01*
X30100500Y37719997D01*
X53944417Y37719997D01*
X53964698Y37514071D01*
X53964699Y37514066D01*
X54024768Y37316046D01*
X54122316Y37133548D01*
X54253585Y36973596D01*
X54253590Y36973590D01*
X54253595Y36973586D01*
X54413547Y36842317D01*
X54413548Y36842317D01*
X54413550Y36842315D01*
X54596046Y36744768D01*
X54733997Y36702922D01*
X54794065Y36684700D01*
X54794070Y36684699D01*
X54999997Y36664417D01*
X55000000Y36664417D01*
X55000003Y36664417D01*
X55205929Y36684699D01*
X55205934Y36684700D01*
X55403954Y36744768D01*
X55586450Y36842315D01*
X55746410Y36973590D01*
X55877685Y37133550D01*
X55975232Y37316046D01*
X56035300Y37514066D01*
X56035301Y37514071D01*
X56055583Y37719997D01*
X56055583Y37720004D01*
X56035301Y37925930D01*
X56035300Y37925935D01*
X56017078Y37986003D01*
X55975232Y38123954D01*
X55877685Y38306450D01*
X55746410Y38466410D01*
X55746404Y38466415D01*
X55586452Y38597684D01*
X55403954Y38695232D01*
X55205934Y38755301D01*
X55205929Y38755302D01*
X55000003Y38775583D01*
X54999997Y38775583D01*
X54794070Y38755302D01*
X54794065Y38755301D01*
X54596045Y38695232D01*
X54413547Y38597684D01*
X54253595Y38466415D01*
X54253585Y38466405D01*
X54122316Y38306453D01*
X54024768Y38123955D01*
X53964699Y37925935D01*
X53964698Y37925930D01*
X53944417Y37720004D01*
X53944417Y37719997D01*
X30100500Y37719997D01*
X30100500Y38646107D01*
X30119407Y38704298D01*
X30126741Y38712289D01*
X30126491Y38712506D01*
X30163573Y38755301D01*
X30225377Y38826627D01*
X30285165Y38957543D01*
X30305647Y39100000D01*
X30285165Y39242457D01*
X30225377Y39373373D01*
X30131128Y39482143D01*
X30131127Y39482144D01*
X30131126Y39482145D01*
X30010057Y39559951D01*
X30010054Y39559953D01*
X30010053Y39559953D01*
X30010050Y39559954D01*
X29871964Y39600500D01*
X29871961Y39600500D01*
X29728039Y39600500D01*
X29728035Y39600500D01*
X29589949Y39559954D01*
X29589942Y39559951D01*
X29468873Y39482145D01*
X29374622Y39373372D01*
X29314834Y39242457D01*
X29294353Y39100003D01*
X29294353Y39099998D01*
X29314834Y38957544D01*
X29374623Y38826627D01*
X29473509Y38712506D01*
X29471471Y38710741D01*
X29496925Y38668542D01*
X29499500Y38646107D01*
X29499500Y37456900D01*
X29480593Y37398709D01*
X29473153Y37389998D01*
X29471950Y37388342D01*
X29414354Y37275305D01*
X29399500Y37181522D01*
X29399500Y36649500D01*
X29380593Y36591309D01*
X29331093Y36555345D01*
X29300500Y36550500D01*
X29195225Y36550500D01*
X29070933Y36514005D01*
X29070926Y36514002D01*
X28961951Y36443968D01*
X28961950Y36443967D01*
X28953895Y36434670D01*
X28901500Y36403073D01*
X28879075Y36400500D01*
X28505164Y36400500D01*
X28491488Y36402733D01*
X28491317Y36401506D01*
X28482233Y36402774D01*
X28441886Y36400908D01*
X28434206Y36400553D01*
X28431930Y36400500D01*
X28412153Y36400500D01*
X28408658Y36399847D01*
X28401845Y36399057D01*
X28370010Y36397586D01*
X28370006Y36397585D01*
X28361015Y36393615D01*
X28339227Y36386868D01*
X28329570Y36385063D01*
X28329564Y36385061D01*
X28302466Y36368283D01*
X28296399Y36365085D01*
X28267237Y36352208D01*
X28267233Y36352205D01*
X28260284Y36345256D01*
X28242409Y36331097D01*
X28234048Y36325920D01*
X28214839Y36300485D01*
X28210335Y36295308D01*
X27753590Y35838563D01*
X27742361Y35830450D01*
X27743090Y35829485D01*
X27735771Y35823959D01*
X27703372Y35788420D01*
X27701796Y35786769D01*
X27687830Y35772802D01*
X27687817Y35772787D01*
X27685813Y35769862D01*
X27681561Y35764496D01*
X27660084Y35740935D01*
X27660083Y35740933D01*
X27656529Y35731760D01*
X27645896Y35711588D01*
X27640346Y35703485D01*
X27640342Y35703476D01*
X27633045Y35672455D01*
X27631016Y35665902D01*
X27619500Y35636176D01*
X27619500Y35626349D01*
X27616870Y35603682D01*
X27614621Y35594121D01*
X5969798Y35594121D01*
X5877685Y35766450D01*
X5873171Y35771950D01*
X5746414Y35926405D01*
X5746410Y35926410D01*
X5687573Y35974696D01*
X5586452Y36057684D01*
X5403954Y36155232D01*
X5205934Y36215301D01*
X5205929Y36215302D01*
X5000003Y36235583D01*
X4999997Y36235583D01*
X4794070Y36215302D01*
X4794065Y36215301D01*
X4596045Y36155232D01*
X4413547Y36057684D01*
X4253595Y35926415D01*
X4253585Y35926405D01*
X4122316Y35766453D01*
X4024768Y35583955D01*
X3964699Y35385935D01*
X3964698Y35385930D01*
X3944417Y35180004D01*
X3944417Y35179997D01*
X20000Y35179997D01*
X20000Y37719997D01*
X3944417Y37719997D01*
X3964698Y37514071D01*
X3964699Y37514066D01*
X4024768Y37316046D01*
X4122316Y37133548D01*
X4253585Y36973596D01*
X4253590Y36973590D01*
X4253595Y36973586D01*
X4413547Y36842317D01*
X4413548Y36842317D01*
X4413550Y36842315D01*
X4596046Y36744768D01*
X4733997Y36702922D01*
X4794065Y36684700D01*
X4794070Y36684699D01*
X4999997Y36664417D01*
X5000000Y36664417D01*
X5000003Y36664417D01*
X5205929Y36684699D01*
X5205934Y36684700D01*
X5403954Y36744768D01*
X5586450Y36842315D01*
X5746410Y36973590D01*
X5877685Y37133550D01*
X5975232Y37316046D01*
X6035300Y37514066D01*
X6035301Y37514071D01*
X6055583Y37719997D01*
X6055583Y37720004D01*
X6035301Y37925930D01*
X6035300Y37925935D01*
X6017078Y37986003D01*
X5975232Y38123954D01*
X5877685Y38306450D01*
X5746410Y38466410D01*
X5746404Y38466415D01*
X5586452Y38597684D01*
X5403954Y38695232D01*
X5205934Y38755301D01*
X5205929Y38755302D01*
X5000003Y38775583D01*
X4999997Y38775583D01*
X4794070Y38755302D01*
X4794065Y38755301D01*
X4596045Y38695232D01*
X4413547Y38597684D01*
X4253595Y38466415D01*
X4253585Y38466405D01*
X4122316Y38306453D01*
X4024768Y38123955D01*
X3964699Y37925935D01*
X3964698Y37925930D01*
X3944417Y37720004D01*
X3944417Y37719997D01*
X20000Y37719997D01*
X20000Y40259997D01*
X3944417Y40259997D01*
X3964698Y40054071D01*
X3964699Y40054066D01*
X4024768Y39856046D01*
X4122316Y39673548D01*
X4253585Y39513596D01*
X4253590Y39513590D01*
X4253595Y39513586D01*
X4413547Y39382317D01*
X4413548Y39382317D01*
X4413550Y39382315D01*
X4596046Y39284768D01*
X4733997Y39242922D01*
X4794065Y39224700D01*
X4794070Y39224699D01*
X4999997Y39204417D01*
X5000000Y39204417D01*
X5000003Y39204417D01*
X5205929Y39224699D01*
X5205934Y39224700D01*
X5403954Y39284768D01*
X5586450Y39382315D01*
X5746410Y39513590D01*
X5877685Y39673550D01*
X5975232Y39856046D01*
X6035300Y40054066D01*
X6035301Y40054071D01*
X6055583Y40259997D01*
X53944417Y40259997D01*
X53964698Y40054071D01*
X53964699Y40054066D01*
X54024768Y39856046D01*
X54122316Y39673548D01*
X54253585Y39513596D01*
X54253590Y39513590D01*
X54253595Y39513586D01*
X54413547Y39382317D01*
X54413548Y39382317D01*
X54413550Y39382315D01*
X54596046Y39284768D01*
X54733997Y39242922D01*
X54794065Y39224700D01*
X54794070Y39224699D01*
X54999997Y39204417D01*
X55000000Y39204417D01*
X55000003Y39204417D01*
X55205929Y39224699D01*
X55205934Y39224700D01*
X55403954Y39284768D01*
X55586450Y39382315D01*
X55746410Y39513590D01*
X55877685Y39673550D01*
X55975232Y39856046D01*
X56035300Y40054066D01*
X56035301Y40054071D01*
X56055583Y40259997D01*
X56055583Y40260004D01*
X56035301Y40465930D01*
X56035300Y40465935D01*
X56017078Y40526003D01*
X55975232Y40663954D01*
X55877685Y40846450D01*
X55746410Y41006410D01*
X55746404Y41006415D01*
X55586452Y41137684D01*
X55403954Y41235232D01*
X55205934Y41295301D01*
X55205929Y41295302D01*
X55000003Y41315583D01*
X54999997Y41315583D01*
X54794070Y41295302D01*
X54794065Y41295301D01*
X54596045Y41235232D01*
X54413547Y41137684D01*
X54253595Y41006415D01*
X54253585Y41006405D01*
X54122316Y40846453D01*
X54024768Y40663955D01*
X53964699Y40465935D01*
X53964698Y40465930D01*
X53944417Y40260004D01*
X53944417Y40259997D01*
X6055583Y40259997D01*
X6055583Y40260004D01*
X6035301Y40465930D01*
X6035300Y40465935D01*
X6017078Y40526003D01*
X5975232Y40663954D01*
X5877685Y40846450D01*
X5746410Y41006410D01*
X5746404Y41006415D01*
X5586452Y41137684D01*
X5403954Y41235232D01*
X5205934Y41295301D01*
X5205929Y41295302D01*
X5000003Y41315583D01*
X4999997Y41315583D01*
X4794070Y41295302D01*
X4794065Y41295301D01*
X4596045Y41235232D01*
X4413547Y41137684D01*
X4253595Y41006415D01*
X4253585Y41006405D01*
X4122316Y40846453D01*
X4024768Y40663955D01*
X3964699Y40465935D01*
X3964698Y40465930D01*
X3944417Y40260004D01*
X3944417Y40259997D01*
X20000Y40259997D01*
X20000Y42799997D01*
X3944417Y42799997D01*
X3964698Y42594071D01*
X3964699Y42594066D01*
X4024768Y42396046D01*
X4122316Y42213548D01*
X4253585Y42053596D01*
X4253590Y42053590D01*
X4253595Y42053586D01*
X4413547Y41922317D01*
X4413548Y41922317D01*
X4413550Y41922315D01*
X4596046Y41824768D01*
X4733997Y41782922D01*
X4794065Y41764700D01*
X4794070Y41764699D01*
X4999997Y41744417D01*
X5000000Y41744417D01*
X5000003Y41744417D01*
X5205929Y41764699D01*
X5205934Y41764700D01*
X5403954Y41824768D01*
X5586450Y41922315D01*
X5746410Y42053590D01*
X5877685Y42213550D01*
X5975232Y42396046D01*
X6035300Y42594066D01*
X6035301Y42594071D01*
X6055583Y42799997D01*
X53944417Y42799997D01*
X53964698Y42594071D01*
X53964699Y42594066D01*
X54024768Y42396046D01*
X54122316Y42213548D01*
X54253585Y42053596D01*
X54253590Y42053590D01*
X54253595Y42053586D01*
X54413547Y41922317D01*
X54413548Y41922317D01*
X54413550Y41922315D01*
X54596046Y41824768D01*
X54733997Y41782922D01*
X54794065Y41764700D01*
X54794070Y41764699D01*
X54999997Y41744417D01*
X55000000Y41744417D01*
X55000003Y41744417D01*
X55205929Y41764699D01*
X55205934Y41764700D01*
X55403954Y41824768D01*
X55586450Y41922315D01*
X55746410Y42053590D01*
X55877685Y42213550D01*
X55975232Y42396046D01*
X56035300Y42594066D01*
X56035301Y42594071D01*
X56055583Y42799997D01*
X56055583Y42800004D01*
X56035301Y43005930D01*
X56035300Y43005935D01*
X56017078Y43066003D01*
X55975232Y43203954D01*
X55877685Y43386450D01*
X55746410Y43546410D01*
X55746404Y43546415D01*
X55586452Y43677684D01*
X55403954Y43775232D01*
X55205934Y43835301D01*
X55205929Y43835302D01*
X55000003Y43855583D01*
X54999997Y43855583D01*
X54794070Y43835302D01*
X54794065Y43835301D01*
X54596045Y43775232D01*
X54413547Y43677684D01*
X54253595Y43546415D01*
X54253585Y43546405D01*
X54122316Y43386453D01*
X54024768Y43203955D01*
X53964699Y43005935D01*
X53964698Y43005930D01*
X53944417Y42800004D01*
X53944417Y42799997D01*
X6055583Y42799997D01*
X6055583Y42800004D01*
X6035301Y43005930D01*
X6035300Y43005935D01*
X6017078Y43066003D01*
X5975232Y43203954D01*
X5877685Y43386450D01*
X5746410Y43546410D01*
X5746404Y43546415D01*
X5586452Y43677684D01*
X5403954Y43775232D01*
X5205934Y43835301D01*
X5205929Y43835302D01*
X5000003Y43855583D01*
X4999997Y43855583D01*
X4794070Y43835302D01*
X4794065Y43835301D01*
X4596045Y43775232D01*
X4413547Y43677684D01*
X4253595Y43546415D01*
X4253585Y43546405D01*
X4122316Y43386453D01*
X4024768Y43203955D01*
X3964699Y43005935D01*
X3964698Y43005930D01*
X3944417Y42800004D01*
X3944417Y42799997D01*
X20000Y42799997D01*
X20000Y45339997D01*
X3944417Y45339997D01*
X3964698Y45134071D01*
X3964699Y45134066D01*
X4024768Y44936046D01*
X4122316Y44753548D01*
X4253585Y44593596D01*
X4253590Y44593590D01*
X4253595Y44593586D01*
X4413547Y44462317D01*
X4413548Y44462317D01*
X4413550Y44462315D01*
X4596046Y44364768D01*
X4733997Y44322922D01*
X4794065Y44304700D01*
X4794070Y44304699D01*
X4999997Y44284417D01*
X5000000Y44284417D01*
X5000003Y44284417D01*
X5205929Y44304699D01*
X5205934Y44304700D01*
X5403954Y44364768D01*
X5586450Y44462315D01*
X5746410Y44593590D01*
X5877685Y44753550D01*
X5975232Y44936046D01*
X6035300Y45134066D01*
X6035301Y45134071D01*
X6055583Y45339997D01*
X53944417Y45339997D01*
X53964698Y45134071D01*
X53964699Y45134066D01*
X54024768Y44936046D01*
X54122316Y44753548D01*
X54253585Y44593596D01*
X54253590Y44593590D01*
X54253595Y44593586D01*
X54413547Y44462317D01*
X54413548Y44462317D01*
X54413550Y44462315D01*
X54596046Y44364768D01*
X54733997Y44322922D01*
X54794065Y44304700D01*
X54794070Y44304699D01*
X54999997Y44284417D01*
X55000000Y44284417D01*
X55000003Y44284417D01*
X55205929Y44304699D01*
X55205934Y44304700D01*
X55403954Y44364768D01*
X55586450Y44462315D01*
X55746410Y44593590D01*
X55877685Y44753550D01*
X55975232Y44936046D01*
X56035300Y45134066D01*
X56035301Y45134071D01*
X56055583Y45339997D01*
X56055583Y45340004D01*
X56035301Y45545930D01*
X56035300Y45545935D01*
X56017078Y45606003D01*
X55975232Y45743954D01*
X55877685Y45926450D01*
X55746410Y46086410D01*
X55746404Y46086415D01*
X55586452Y46217684D01*
X55403954Y46315232D01*
X55205934Y46375301D01*
X55205929Y46375302D01*
X55000003Y46395583D01*
X54999997Y46395583D01*
X54794070Y46375302D01*
X54794065Y46375301D01*
X54596045Y46315232D01*
X54413547Y46217684D01*
X54253595Y46086415D01*
X54253585Y46086405D01*
X54122316Y45926453D01*
X54024768Y45743955D01*
X53964699Y45545935D01*
X53964698Y45545930D01*
X53944417Y45340004D01*
X53944417Y45339997D01*
X6055583Y45339997D01*
X6055583Y45340004D01*
X6035301Y45545930D01*
X6035300Y45545935D01*
X6017078Y45606003D01*
X5975232Y45743954D01*
X5877685Y45926450D01*
X5746410Y46086410D01*
X5746404Y46086415D01*
X5586452Y46217684D01*
X5403954Y46315232D01*
X5205934Y46375301D01*
X5205929Y46375302D01*
X5000003Y46395583D01*
X4999997Y46395583D01*
X4794070Y46375302D01*
X4794065Y46375301D01*
X4596045Y46315232D01*
X4413547Y46217684D01*
X4253595Y46086415D01*
X4253585Y46086405D01*
X4122316Y45926453D01*
X4024768Y45743955D01*
X3964699Y45545935D01*
X3964698Y45545930D01*
X3944417Y45340004D01*
X3944417Y45339997D01*
X20000Y45339997D01*
X20000Y47879997D01*
X3944417Y47879997D01*
X3964698Y47674071D01*
X3964699Y47674066D01*
X4024768Y47476046D01*
X4122316Y47293548D01*
X4253585Y47133596D01*
X4253590Y47133590D01*
X4253595Y47133586D01*
X4413547Y47002317D01*
X4413548Y47002317D01*
X4413550Y47002315D01*
X4596046Y46904768D01*
X4733997Y46862922D01*
X4794065Y46844700D01*
X4794070Y46844699D01*
X4999997Y46824417D01*
X5000000Y46824417D01*
X5000003Y46824417D01*
X5205929Y46844699D01*
X5205934Y46844700D01*
X5403954Y46904768D01*
X5586450Y47002315D01*
X5746410Y47133590D01*
X5877685Y47293550D01*
X5975232Y47476046D01*
X6035300Y47674066D01*
X6035301Y47674071D01*
X6055583Y47879997D01*
X53944417Y47879997D01*
X53964698Y47674071D01*
X53964699Y47674066D01*
X54024768Y47476046D01*
X54122316Y47293548D01*
X54253585Y47133596D01*
X54253590Y47133590D01*
X54253595Y47133586D01*
X54413547Y47002317D01*
X54413548Y47002317D01*
X54413550Y47002315D01*
X54596046Y46904768D01*
X54733997Y46862922D01*
X54794065Y46844700D01*
X54794070Y46844699D01*
X54999997Y46824417D01*
X55000000Y46824417D01*
X55000003Y46824417D01*
X55205929Y46844699D01*
X55205934Y46844700D01*
X55403954Y46904768D01*
X55586450Y47002315D01*
X55746410Y47133590D01*
X55877685Y47293550D01*
X55975232Y47476046D01*
X56035300Y47674066D01*
X56035301Y47674071D01*
X56055583Y47879997D01*
X56055583Y47880004D01*
X56035301Y48085930D01*
X56035300Y48085935D01*
X56017078Y48146003D01*
X55975232Y48283954D01*
X55877685Y48466450D01*
X55746410Y48626410D01*
X55746404Y48626415D01*
X55586452Y48757684D01*
X55403954Y48855232D01*
X55205934Y48915301D01*
X55205929Y48915302D01*
X55000003Y48935583D01*
X54999997Y48935583D01*
X54794070Y48915302D01*
X54794065Y48915301D01*
X54596045Y48855232D01*
X54413547Y48757684D01*
X54253595Y48626415D01*
X54253585Y48626405D01*
X54122316Y48466453D01*
X54024768Y48283955D01*
X53964699Y48085935D01*
X53964698Y48085930D01*
X53944417Y47880004D01*
X53944417Y47879997D01*
X6055583Y47879997D01*
X6055583Y47880004D01*
X6035301Y48085930D01*
X6035300Y48085935D01*
X6017078Y48146003D01*
X5975232Y48283954D01*
X5877685Y48466450D01*
X5746410Y48626410D01*
X5746404Y48626415D01*
X5586452Y48757684D01*
X5403954Y48855232D01*
X5205934Y48915301D01*
X5205929Y48915302D01*
X5000003Y48935583D01*
X4999997Y48935583D01*
X4794070Y48915302D01*
X4794065Y48915301D01*
X4596045Y48855232D01*
X4413547Y48757684D01*
X4253595Y48626415D01*
X4253585Y48626405D01*
X4122316Y48466453D01*
X4024768Y48283955D01*
X3964699Y48085935D01*
X3964698Y48085930D01*
X3944417Y47880004D01*
X3944417Y47879997D01*
X20000Y47879997D01*
X20000Y50419997D01*
X3944417Y50419997D01*
X3964698Y50214071D01*
X3964699Y50214066D01*
X4024768Y50016046D01*
X4122316Y49833548D01*
X4253585Y49673596D01*
X4253590Y49673590D01*
X4253595Y49673586D01*
X4413547Y49542317D01*
X4413548Y49542317D01*
X4413550Y49542315D01*
X4596046Y49444768D01*
X4733997Y49402922D01*
X4794065Y49384700D01*
X4794070Y49384699D01*
X4999997Y49364417D01*
X5000000Y49364417D01*
X5000003Y49364417D01*
X5205929Y49384699D01*
X5205934Y49384700D01*
X5403954Y49444768D01*
X5586450Y49542315D01*
X5746410Y49673590D01*
X5877685Y49833550D01*
X5975232Y50016046D01*
X6035300Y50214066D01*
X6035301Y50214071D01*
X6055583Y50419997D01*
X53944417Y50419997D01*
X53964698Y50214071D01*
X53964699Y50214066D01*
X54024768Y50016046D01*
X54122316Y49833548D01*
X54253585Y49673596D01*
X54253590Y49673590D01*
X54253595Y49673586D01*
X54413547Y49542317D01*
X54413548Y49542317D01*
X54413550Y49542315D01*
X54596046Y49444768D01*
X54733997Y49402922D01*
X54794065Y49384700D01*
X54794070Y49384699D01*
X54999997Y49364417D01*
X55000000Y49364417D01*
X55000003Y49364417D01*
X55205929Y49384699D01*
X55205934Y49384700D01*
X55403954Y49444768D01*
X55586450Y49542315D01*
X55746410Y49673590D01*
X55877685Y49833550D01*
X55975232Y50016046D01*
X56035300Y50214066D01*
X56035301Y50214071D01*
X56055583Y50419997D01*
X56055583Y50420004D01*
X56035301Y50625930D01*
X56035300Y50625935D01*
X56017078Y50686003D01*
X55975232Y50823954D01*
X55877685Y51006450D01*
X55746410Y51166410D01*
X55746404Y51166415D01*
X55586452Y51297684D01*
X55403954Y51395232D01*
X55205934Y51455301D01*
X55205929Y51455302D01*
X55000003Y51475583D01*
X54999997Y51475583D01*
X54794070Y51455302D01*
X54794065Y51455301D01*
X54596045Y51395232D01*
X54413547Y51297684D01*
X54253595Y51166415D01*
X54253585Y51166405D01*
X54122316Y51006453D01*
X54024768Y50823955D01*
X53964699Y50625935D01*
X53964698Y50625930D01*
X53944417Y50420004D01*
X53944417Y50419997D01*
X6055583Y50419997D01*
X6055583Y50420004D01*
X6035301Y50625930D01*
X6035300Y50625935D01*
X6017078Y50686003D01*
X5975232Y50823954D01*
X5877685Y51006450D01*
X5746410Y51166410D01*
X5746404Y51166415D01*
X5586452Y51297684D01*
X5403954Y51395232D01*
X5205934Y51455301D01*
X5205929Y51455302D01*
X5000003Y51475583D01*
X4999997Y51475583D01*
X4794070Y51455302D01*
X4794065Y51455301D01*
X4596045Y51395232D01*
X4413547Y51297684D01*
X4253595Y51166415D01*
X4253585Y51166405D01*
X4122316Y51006453D01*
X4024768Y50823955D01*
X3964699Y50625935D01*
X3964698Y50625930D01*
X3944417Y50420004D01*
X3944417Y50419997D01*
X20000Y50419997D01*
X20000Y52959997D01*
X3944417Y52959997D01*
X3964698Y52754071D01*
X3964699Y52754066D01*
X4024768Y52556046D01*
X4122316Y52373548D01*
X4253585Y52213596D01*
X4253590Y52213590D01*
X4253595Y52213586D01*
X4413547Y52082317D01*
X4413548Y52082317D01*
X4413550Y52082315D01*
X4596046Y51984768D01*
X4733997Y51942922D01*
X4794065Y51924700D01*
X4794070Y51924699D01*
X4999997Y51904417D01*
X5000000Y51904417D01*
X5000003Y51904417D01*
X5205929Y51924699D01*
X5205934Y51924700D01*
X5403954Y51984768D01*
X5586450Y52082315D01*
X5746410Y52213590D01*
X5877685Y52373550D01*
X5975232Y52556046D01*
X6035300Y52754066D01*
X6035301Y52754071D01*
X6055583Y52959997D01*
X53944417Y52959997D01*
X53964698Y52754071D01*
X53964699Y52754066D01*
X54024768Y52556046D01*
X54122316Y52373548D01*
X54253585Y52213596D01*
X54253590Y52213590D01*
X54253595Y52213586D01*
X54413547Y52082317D01*
X54413548Y52082317D01*
X54413550Y52082315D01*
X54596046Y51984768D01*
X54733997Y51942922D01*
X54794065Y51924700D01*
X54794070Y51924699D01*
X54999997Y51904417D01*
X55000000Y51904417D01*
X55000003Y51904417D01*
X55205929Y51924699D01*
X55205934Y51924700D01*
X55403954Y51984768D01*
X55586450Y52082315D01*
X55746410Y52213590D01*
X55877685Y52373550D01*
X55975232Y52556046D01*
X56035300Y52754066D01*
X56035301Y52754071D01*
X56055583Y52959997D01*
X56055583Y52960004D01*
X56035301Y53165930D01*
X56035300Y53165935D01*
X56017078Y53226003D01*
X55975232Y53363954D01*
X55877685Y53546450D01*
X55746410Y53706410D01*
X55746404Y53706415D01*
X55586452Y53837684D01*
X55403954Y53935232D01*
X55205934Y53995301D01*
X55205929Y53995302D01*
X55000003Y54015583D01*
X54999997Y54015583D01*
X54794070Y53995302D01*
X54794065Y53995301D01*
X54596045Y53935232D01*
X54413547Y53837684D01*
X54253595Y53706415D01*
X54253585Y53706405D01*
X54122316Y53546453D01*
X54024768Y53363955D01*
X53964699Y53165935D01*
X53964698Y53165930D01*
X53944417Y52960004D01*
X53944417Y52959997D01*
X6055583Y52959997D01*
X6055583Y52960004D01*
X6035301Y53165930D01*
X6035300Y53165935D01*
X6017078Y53226003D01*
X5975232Y53363954D01*
X5877685Y53546450D01*
X5746410Y53706410D01*
X5746404Y53706415D01*
X5586452Y53837684D01*
X5403954Y53935232D01*
X5205934Y53995301D01*
X5205929Y53995302D01*
X5000003Y54015583D01*
X4999997Y54015583D01*
X4794070Y53995302D01*
X4794065Y53995301D01*
X4596045Y53935232D01*
X4413547Y53837684D01*
X4253595Y53706415D01*
X4253585Y53706405D01*
X4122316Y53546453D01*
X4024768Y53363955D01*
X3964699Y53165935D01*
X3964698Y53165930D01*
X3944417Y52960004D01*
X3944417Y52959997D01*
X20000Y52959997D01*
X20000Y54630254D01*
X3949500Y54630254D01*
X3949501Y54630242D01*
X3961132Y54571773D01*
X3961133Y54571769D01*
X4005448Y54505448D01*
X4071769Y54461133D01*
X4116231Y54452289D01*
X4130241Y54449502D01*
X4130246Y54449502D01*
X4130252Y54449500D01*
X4130253Y54449500D01*
X5869747Y54449500D01*
X5869748Y54449500D01*
X5928231Y54461133D01*
X5994552Y54505448D01*
X6038867Y54571769D01*
X6050500Y54630252D01*
X6050500Y54630254D01*
X53949500Y54630254D01*
X53949501Y54630242D01*
X53961132Y54571773D01*
X53961133Y54571769D01*
X54005448Y54505448D01*
X54071769Y54461133D01*
X54116231Y54452289D01*
X54130241Y54449502D01*
X54130246Y54449502D01*
X54130252Y54449500D01*
X54130253Y54449500D01*
X55869747Y54449500D01*
X55869748Y54449500D01*
X55928231Y54461133D01*
X55994552Y54505448D01*
X56038867Y54571769D01*
X56050500Y54630252D01*
X56050500Y56369748D01*
X56038867Y56428231D01*
X55994552Y56494552D01*
X55994548Y56494555D01*
X55928233Y56538866D01*
X55928231Y56538867D01*
X55928228Y56538868D01*
X55928227Y56538868D01*
X55869758Y56550499D01*
X55869748Y56550500D01*
X54130252Y56550500D01*
X54130251Y56550500D01*
X54130241Y56550499D01*
X54071772Y56538868D01*
X54071766Y56538866D01*
X54005451Y56494555D01*
X54005445Y56494549D01*
X53961134Y56428234D01*
X53961132Y56428228D01*
X53949501Y56369759D01*
X53949500Y56369747D01*
X53949500Y54630254D01*
X6050500Y54630254D01*
X6050500Y56369748D01*
X6038867Y56428231D01*
X5994552Y56494552D01*
X5994548Y56494555D01*
X5928233Y56538866D01*
X5928231Y56538867D01*
X5928228Y56538868D01*
X5928227Y56538868D01*
X5869758Y56550499D01*
X5869748Y56550500D01*
X4130252Y56550500D01*
X4130251Y56550500D01*
X4130241Y56550499D01*
X4071772Y56538868D01*
X4071766Y56538866D01*
X4005451Y56494555D01*
X4005445Y56494549D01*
X3961134Y56428234D01*
X3961132Y56428228D01*
X3949501Y56369759D01*
X3949500Y56369747D01*
X3949500Y54630254D01*
X20000Y54630254D01*
X20000Y61000254D01*
X13359500Y61000254D01*
X13359501Y61000242D01*
X13371132Y60941773D01*
X13371133Y60941769D01*
X13415448Y60875448D01*
X13481769Y60831133D01*
X13526231Y60822289D01*
X13540241Y60819502D01*
X13540246Y60819502D01*
X13540252Y60819500D01*
X13540253Y60819500D01*
X15279747Y60819500D01*
X15279748Y60819500D01*
X15338231Y60831133D01*
X15404552Y60875448D01*
X15448867Y60941769D01*
X15460500Y61000252D01*
X15460500Y62739748D01*
X15448867Y62798231D01*
X15404552Y62864552D01*
X15362473Y62892669D01*
X15338233Y62908866D01*
X15338231Y62908867D01*
X15338228Y62908868D01*
X15338227Y62908868D01*
X15279758Y62920499D01*
X15279748Y62920500D01*
X13540252Y62920500D01*
X13540251Y62920500D01*
X13540241Y62920499D01*
X13481772Y62908868D01*
X13481766Y62908866D01*
X13415451Y62864555D01*
X13415445Y62864549D01*
X13371134Y62798234D01*
X13371132Y62798228D01*
X13359501Y62739759D01*
X13359500Y62739747D01*
X13359500Y61000254D01*
X20000Y61000254D01*
X20000Y63000000D01*
X3394551Y63000000D01*
X3414316Y62748854D01*
X3473127Y62503887D01*
X3569532Y62271144D01*
X3569535Y62271138D01*
X3701162Y62056344D01*
X3701168Y62056336D01*
X3779176Y61965000D01*
X3864776Y61864776D01*
X4056341Y61701164D01*
X4056343Y61701163D01*
X4271137Y61569536D01*
X4271143Y61569533D01*
X4503887Y61473128D01*
X4503889Y61473127D01*
X4748852Y61414317D01*
X4937118Y61399500D01*
X4937123Y61399500D01*
X5062877Y61399500D01*
X5062882Y61399500D01*
X5251148Y61414317D01*
X5496111Y61473127D01*
X5728859Y61569534D01*
X5943659Y61701164D01*
X6135224Y61864776D01*
X6298836Y62056341D01*
X6430466Y62271141D01*
X6526873Y62503889D01*
X6585683Y62748852D01*
X6605449Y63000000D01*
X6585683Y63251148D01*
X6526873Y63496111D01*
X6520384Y63511776D01*
X6430467Y63728857D01*
X6430464Y63728863D01*
X6337977Y63879787D01*
X6298836Y63943659D01*
X6274897Y63971688D01*
X6135232Y64135215D01*
X6135229Y64135218D01*
X6135224Y64135224D01*
X6135217Y64135230D01*
X6135214Y64135233D01*
X5989130Y64260000D01*
X13268973Y64260000D01*
X13274738Y64197784D01*
X13333064Y63992790D01*
X13428057Y63802017D01*
X13428062Y63802008D01*
X13556496Y63631936D01*
X13556506Y63631925D01*
X13713995Y63488353D01*
X13713994Y63488353D01*
X13895206Y63376153D01*
X14093941Y63299162D01*
X14259999Y63268120D01*
X14260000Y63268120D01*
X14260000Y63928830D01*
X14267685Y63925320D01*
X14374237Y63910000D01*
X14445763Y63910000D01*
X14552315Y63925320D01*
X14560000Y63928830D01*
X14560000Y63268120D01*
X14726058Y63299162D01*
X14924793Y63376153D01*
X15106004Y63488353D01*
X15263493Y63631925D01*
X15263503Y63631936D01*
X15391937Y63802008D01*
X15391942Y63802017D01*
X15486935Y63992790D01*
X15545261Y64197784D01*
X15551027Y64260000D01*
X14887065Y64260000D01*
X14910000Y64338111D01*
X14910000Y64481889D01*
X14887065Y64560000D01*
X15551026Y64560000D01*
X15545261Y64622217D01*
X15537356Y64650000D01*
X24254318Y64650000D01*
X24274955Y64493242D01*
X24274957Y64493234D01*
X24335462Y64347162D01*
X24335462Y64347161D01*
X24425610Y64229678D01*
X24431718Y64221718D01*
X24557159Y64125464D01*
X24557160Y64125464D01*
X24557161Y64125463D01*
X24598584Y64108305D01*
X24703238Y64064956D01*
X24860000Y64044318D01*
X24940041Y64054857D01*
X25000199Y64043708D01*
X25022966Y64026708D01*
X25105504Y63944170D01*
X25133281Y63889653D01*
X25134500Y63874166D01*
X25134500Y63666375D01*
X25134312Y63662073D01*
X25133738Y63655500D01*
X25130736Y63621194D01*
X25141354Y63581564D01*
X25142289Y63577348D01*
X25149411Y63536955D01*
X25150164Y63535652D01*
X25160054Y63511776D01*
X25160443Y63510321D01*
X25160446Y63510316D01*
X25175824Y63488353D01*
X25183971Y63476719D01*
X25186292Y63473076D01*
X25206806Y63437545D01*
X25238230Y63411177D01*
X25241416Y63408258D01*
X25538263Y63111410D01*
X25541182Y63108224D01*
X25567545Y63076806D01*
X25567547Y63076805D01*
X25603074Y63056293D01*
X25606709Y63053978D01*
X25640316Y63030446D01*
X25641767Y63030058D01*
X25665659Y63020160D01*
X25666954Y63019412D01*
X25675854Y63017843D01*
X25707365Y63012287D01*
X25711544Y63011362D01*
X25751193Y63000737D01*
X25792065Y63004313D01*
X25796365Y63004500D01*
X26861815Y63004500D01*
X26920006Y62985593D01*
X26955970Y62936093D01*
X26955970Y62874907D01*
X26940628Y62845587D01*
X26872376Y62755805D01*
X26794746Y62588011D01*
X26794745Y62588009D01*
X26755000Y62407440D01*
X26755000Y62265001D01*
X26755001Y62265000D01*
X27280000Y62265000D01*
X27280000Y61965000D01*
X26755001Y61965000D01*
X26755000Y61964999D01*
X26755000Y61868916D01*
X26769978Y61731196D01*
X26829012Y61555990D01*
X26924329Y61397571D01*
X27051477Y61263342D01*
X27204501Y61159589D01*
X27376266Y61091152D01*
X27455000Y61078246D01*
X27455000Y61623738D01*
X27547694Y61590000D01*
X27662306Y61590000D01*
X27755000Y61623738D01*
X27755000Y61074493D01*
X27921469Y61120714D01*
X27921473Y61120716D01*
X28084825Y61207319D01*
X28225732Y61327008D01*
X28225738Y61327013D01*
X28337621Y61474192D01*
X28337622Y61474194D01*
X28415253Y61641990D01*
X28415254Y61641992D01*
X28455000Y61822561D01*
X28455000Y61964999D01*
X28454999Y61965000D01*
X27930000Y61965000D01*
X27930000Y62265000D01*
X28454999Y62265000D01*
X28455000Y62265001D01*
X28455000Y62361085D01*
X28440021Y62498805D01*
X28380987Y62674011D01*
X28285669Y62832430D01*
X28280944Y62837419D01*
X28254654Y62892669D01*
X28265860Y62952819D01*
X28310281Y62994895D01*
X28352819Y63004500D01*
X31701815Y63004500D01*
X31760006Y62985593D01*
X31795970Y62936093D01*
X31795970Y62874907D01*
X31780628Y62845587D01*
X31712376Y62755805D01*
X31634746Y62588011D01*
X31634745Y62588009D01*
X31595000Y62407440D01*
X31595000Y62265001D01*
X31595001Y62265000D01*
X32120000Y62265000D01*
X32120000Y61965000D01*
X31595001Y61965000D01*
X31595000Y61964999D01*
X31595000Y61868916D01*
X31609978Y61731196D01*
X31669012Y61555990D01*
X31764329Y61397571D01*
X31891477Y61263342D01*
X32044501Y61159589D01*
X32216266Y61091152D01*
X32295000Y61078246D01*
X32295000Y61623738D01*
X32387694Y61590000D01*
X32502306Y61590000D01*
X32595000Y61623738D01*
X32595000Y61074493D01*
X32761469Y61120714D01*
X32761473Y61120716D01*
X32924825Y61207319D01*
X33065732Y61327008D01*
X33065738Y61327013D01*
X33177621Y61474192D01*
X33177622Y61474194D01*
X33255253Y61641990D01*
X33255254Y61641992D01*
X33295000Y61822561D01*
X33295000Y61964999D01*
X33294999Y61965000D01*
X32770000Y61965000D01*
X32770000Y62265000D01*
X33294999Y62265000D01*
X33295000Y62265001D01*
X33295000Y62361085D01*
X33280021Y62498805D01*
X33220987Y62674011D01*
X33125669Y62832430D01*
X33120944Y62837419D01*
X33094654Y62892669D01*
X33105860Y62952819D01*
X33150281Y62994895D01*
X33172890Y63000000D01*
X53394551Y63000000D01*
X53414316Y62748854D01*
X53473127Y62503887D01*
X53569532Y62271144D01*
X53569535Y62271138D01*
X53701162Y62056344D01*
X53701168Y62056336D01*
X53779176Y61965000D01*
X53864776Y61864776D01*
X54056341Y61701164D01*
X54056343Y61701163D01*
X54271137Y61569536D01*
X54271143Y61569533D01*
X54503887Y61473128D01*
X54503889Y61473127D01*
X54748852Y61414317D01*
X54937118Y61399500D01*
X54937123Y61399500D01*
X55062877Y61399500D01*
X55062882Y61399500D01*
X55251148Y61414317D01*
X55496111Y61473127D01*
X55728859Y61569534D01*
X55943659Y61701164D01*
X56135224Y61864776D01*
X56298836Y62056341D01*
X56430466Y62271141D01*
X56526873Y62503889D01*
X56585683Y62748852D01*
X56605449Y63000000D01*
X56585683Y63251148D01*
X56526873Y63496111D01*
X56520384Y63511776D01*
X56430467Y63728857D01*
X56430464Y63728863D01*
X56337977Y63879787D01*
X56298836Y63943659D01*
X56274897Y63971688D01*
X56135232Y64135215D01*
X56135229Y64135218D01*
X56135224Y64135224D01*
X56135217Y64135230D01*
X56135214Y64135233D01*
X55943664Y64298832D01*
X55943656Y64298838D01*
X55728862Y64430465D01*
X55728856Y64430468D01*
X55496112Y64526873D01*
X55496113Y64526873D01*
X55251146Y64585684D01*
X55122812Y64595784D01*
X55062882Y64600500D01*
X54937118Y64600500D01*
X54880775Y64596066D01*
X54748853Y64585684D01*
X54503886Y64526873D01*
X54271143Y64430468D01*
X54271137Y64430465D01*
X54056343Y64298838D01*
X54056335Y64298832D01*
X53864785Y64135233D01*
X53864767Y64135215D01*
X53701168Y63943665D01*
X53701162Y63943657D01*
X53569535Y63728863D01*
X53569532Y63728857D01*
X53473127Y63496114D01*
X53414316Y63251147D01*
X53394551Y63000000D01*
X33172890Y63000000D01*
X33192819Y63004500D01*
X34203626Y63004500D01*
X34207926Y63004313D01*
X34248807Y63000736D01*
X34288452Y63011360D01*
X34292650Y63012290D01*
X34333045Y63019412D01*
X34334345Y63020162D01*
X34358236Y63030058D01*
X34358464Y63030120D01*
X34359684Y63030446D01*
X34393303Y63053988D01*
X34396911Y63056286D01*
X34432455Y63076806D01*
X34458838Y63108250D01*
X34461726Y63111402D01*
X35228583Y63878258D01*
X35231760Y63881171D01*
X35263194Y63907545D01*
X35283714Y63943089D01*
X35286012Y63946697D01*
X35309554Y63980316D01*
X35309942Y63981764D01*
X35319838Y64005655D01*
X35320588Y64006955D01*
X35325292Y64033636D01*
X35327711Y64047355D01*
X35328640Y64051548D01*
X35335473Y64077049D01*
X35368796Y64128358D01*
X35370757Y64129906D01*
X35438282Y64181718D01*
X35534536Y64307159D01*
X35595044Y64453238D01*
X35615682Y64610000D01*
X35595044Y64766762D01*
X35578477Y64806759D01*
X35534537Y64912839D01*
X35534537Y64912840D01*
X35438286Y65038277D01*
X35438285Y65038278D01*
X35438282Y65038282D01*
X35438277Y65038286D01*
X35438276Y65038287D01*
X35312838Y65134538D01*
X35166766Y65195043D01*
X35166758Y65195045D01*
X35010001Y65215682D01*
X35009999Y65215682D01*
X34853241Y65195045D01*
X34853233Y65195043D01*
X34707161Y65134538D01*
X34707160Y65134538D01*
X34581723Y65038287D01*
X34581713Y65038277D01*
X34485462Y64912840D01*
X34485462Y64912839D01*
X34424957Y64766767D01*
X34424955Y64766759D01*
X34404318Y64610001D01*
X34404318Y64610000D01*
X34424955Y64453242D01*
X34424957Y64453234D01*
X34485462Y64307162D01*
X34485463Y64307161D01*
X34485464Y64307159D01*
X34491854Y64298832D01*
X34541748Y64233807D01*
X34562171Y64176131D01*
X34544793Y64117466D01*
X34533209Y64103538D01*
X34114170Y63684497D01*
X34059653Y63656719D01*
X34044166Y63655500D01*
X25955835Y63655500D01*
X25897644Y63674407D01*
X25885831Y63684496D01*
X25814496Y63755831D01*
X25786719Y63810348D01*
X25785500Y63825835D01*
X25785500Y64033636D01*
X25785687Y64037933D01*
X25789263Y64078807D01*
X25778638Y64118456D01*
X25777713Y64122635D01*
X25770588Y64163045D01*
X25770588Y64163046D01*
X25769840Y64164341D01*
X25759942Y64188233D01*
X25759554Y64189684D01*
X25759552Y64189687D01*
X25759551Y64189689D01*
X25736025Y64223288D01*
X25733703Y64226932D01*
X25713193Y64262457D01*
X25692069Y64280181D01*
X25681765Y64288827D01*
X25678588Y64291739D01*
X25483292Y64487034D01*
X25455515Y64541551D01*
X25455143Y64569954D01*
X25465682Y64650000D01*
X25445044Y64806762D01*
X25410336Y64890554D01*
X26320000Y64890554D01*
X26335033Y64742722D01*
X26394396Y64553520D01*
X26490623Y64380151D01*
X26490629Y64380142D01*
X26619792Y64229685D01*
X26619799Y64229678D01*
X26776600Y64108305D01*
X26954629Y64020979D01*
X27144999Y63971688D01*
X27145000Y63971688D01*
X27145000Y64548606D01*
X27207892Y64521018D01*
X27324302Y64511372D01*
X27437538Y64540047D01*
X27445000Y64544923D01*
X27445000Y63976605D01*
X27540641Y63991257D01*
X27726596Y64060126D01*
X27894877Y64165017D01*
X28038604Y64301639D01*
X28151879Y64464383D01*
X28151885Y64464394D01*
X28230084Y64646620D01*
X28269999Y64840848D01*
X28270000Y64840853D01*
X28270000Y64890554D01*
X31780000Y64890554D01*
X31795033Y64742722D01*
X31854396Y64553520D01*
X31950623Y64380151D01*
X31950629Y64380142D01*
X32079792Y64229685D01*
X32079799Y64229678D01*
X32236600Y64108305D01*
X32414629Y64020979D01*
X32604999Y63971688D01*
X32605000Y63971688D01*
X32605000Y64548606D01*
X32667892Y64521018D01*
X32784302Y64511372D01*
X32897538Y64540047D01*
X32905000Y64544923D01*
X32905000Y63976605D01*
X33000641Y63991257D01*
X33186596Y64060126D01*
X33354877Y64165017D01*
X33498604Y64301639D01*
X33611879Y64464383D01*
X33611885Y64464394D01*
X33690084Y64646620D01*
X33729999Y64840848D01*
X33730000Y64840853D01*
X33730000Y64964999D01*
X33729999Y64965000D01*
X33105000Y64965000D01*
X33105000Y65265000D01*
X33729999Y65265000D01*
X33730000Y65265001D01*
X33730000Y65339447D01*
X33714966Y65487279D01*
X33655603Y65676481D01*
X33559376Y65849850D01*
X33559370Y65849859D01*
X33430207Y66000316D01*
X33430200Y66000323D01*
X33273399Y66121696D01*
X33095366Y66209025D01*
X32905000Y66258315D01*
X32905000Y65681395D01*
X32842108Y65708982D01*
X32725698Y65718628D01*
X32612462Y65689953D01*
X32605000Y65685078D01*
X32605000Y66253397D01*
X32604999Y66253397D01*
X32509359Y66238745D01*
X32509357Y66238744D01*
X32323403Y66169875D01*
X32155122Y66064984D01*
X32011395Y65928362D01*
X31898120Y65765618D01*
X31898114Y65765607D01*
X31819915Y65583381D01*
X31780000Y65389153D01*
X31780000Y65265001D01*
X31780001Y65265000D01*
X32405000Y65265000D01*
X32405000Y64965000D01*
X31780001Y64965000D01*
X31780000Y64964999D01*
X31780000Y64890554D01*
X28270000Y64890554D01*
X28270000Y64964999D01*
X28269999Y64965000D01*
X27645000Y64965000D01*
X27645000Y65265000D01*
X28269999Y65265000D01*
X28270000Y65265001D01*
X28270000Y65339447D01*
X28254966Y65487279D01*
X28195603Y65676481D01*
X28099376Y65849850D01*
X28099370Y65849859D01*
X27970207Y66000316D01*
X27970200Y66000323D01*
X27813399Y66121696D01*
X27635366Y66209025D01*
X27445000Y66258315D01*
X27445000Y65681395D01*
X27382108Y65708982D01*
X27265698Y65718628D01*
X27152462Y65689953D01*
X27145000Y65685078D01*
X27145000Y66253397D01*
X27144999Y66253397D01*
X27049359Y66238745D01*
X27049357Y66238744D01*
X26863403Y66169875D01*
X26695122Y66064984D01*
X26551395Y65928362D01*
X26438120Y65765618D01*
X26438114Y65765607D01*
X26359915Y65583381D01*
X26320000Y65389153D01*
X26320000Y65265001D01*
X26320001Y65265000D01*
X26945000Y65265000D01*
X26945000Y64965000D01*
X26320001Y64965000D01*
X26320000Y64964999D01*
X26320000Y64890554D01*
X25410336Y64890554D01*
X25402281Y64910000D01*
X25384537Y64952839D01*
X25384537Y64952840D01*
X25288286Y65078277D01*
X25288285Y65078278D01*
X25288282Y65078282D01*
X25288277Y65078286D01*
X25288276Y65078287D01*
X25162838Y65174538D01*
X25016766Y65235043D01*
X25016758Y65235045D01*
X24860001Y65255682D01*
X24859999Y65255682D01*
X24703241Y65235045D01*
X24703233Y65235043D01*
X24557161Y65174538D01*
X24557160Y65174538D01*
X24431723Y65078287D01*
X24431713Y65078277D01*
X24335462Y64952840D01*
X24335462Y64952839D01*
X24274957Y64806767D01*
X24274955Y64806759D01*
X24254318Y64650001D01*
X24254318Y64650000D01*
X15537356Y64650000D01*
X15486935Y64827211D01*
X15391942Y65017984D01*
X15391937Y65017993D01*
X15263503Y65188065D01*
X15263493Y65188076D01*
X15106004Y65331648D01*
X15106005Y65331648D01*
X14924793Y65443848D01*
X14726061Y65520838D01*
X14726055Y65520840D01*
X14560000Y65551882D01*
X14560000Y64891171D01*
X14552315Y64894680D01*
X14445763Y64910000D01*
X14374237Y64910000D01*
X14267685Y64894680D01*
X14260000Y64891171D01*
X14260000Y65551881D01*
X14259999Y65551882D01*
X14093944Y65520840D01*
X14093938Y65520838D01*
X13895206Y65443848D01*
X13713995Y65331648D01*
X13556506Y65188076D01*
X13556496Y65188065D01*
X13428062Y65017993D01*
X13428057Y65017984D01*
X13333064Y64827211D01*
X13274738Y64622217D01*
X13268973Y64560000D01*
X13932935Y64560000D01*
X13910000Y64481889D01*
X13910000Y64338111D01*
X13932935Y64260000D01*
X13268973Y64260000D01*
X5989130Y64260000D01*
X5943664Y64298832D01*
X5943656Y64298838D01*
X5728862Y64430465D01*
X5728856Y64430468D01*
X5496112Y64526873D01*
X5496113Y64526873D01*
X5251146Y64585684D01*
X5122812Y64595784D01*
X5062882Y64600500D01*
X4937118Y64600500D01*
X4880775Y64596066D01*
X4748853Y64585684D01*
X4503886Y64526873D01*
X4271143Y64430468D01*
X4271137Y64430465D01*
X4056343Y64298838D01*
X4056335Y64298832D01*
X3864785Y64135233D01*
X3864767Y64135215D01*
X3701168Y63943665D01*
X3701162Y63943657D01*
X3569535Y63728863D01*
X3569532Y63728857D01*
X3473127Y63496114D01*
X3414316Y63251147D01*
X3394551Y63000000D01*
X20000Y63000000D01*
X20000Y67683000D01*
X38907Y67741191D01*
X88407Y67777155D01*
X119000Y67782000D01*
X59900500Y67782000D01*
X59958691Y67763093D01*
G37*
%TD.AperFunction*%
%TD*%
M02*
