G04 #@! TF.GenerationSoftware,KiCad,Pcbnew,7.0.7*
G04 #@! TF.CreationDate,2023-09-24T23:50:35-07:00*
G04 #@! TF.ProjectId,RP2040_minimal,52503230-3430-45f6-9d69-6e696d616c2e,REV1*
G04 #@! TF.SameCoordinates,Original*
G04 #@! TF.FileFunction,Paste,Top*
G04 #@! TF.FilePolarity,Positive*
%FSLAX46Y46*%
G04 Gerber Fmt 4.6, Leading zero omitted, Abs format (unit mm)*
G04 Created by KiCad (PCBNEW 7.0.7) date 2023-09-24 23:50:35*
%MOMM*%
%LPD*%
G01*
G04 APERTURE LIST*
G04 Aperture macros list*
%AMRoundRect*
0 Rectangle with rounded corners*
0 $1 Rounding radius*
0 $2 $3 $4 $5 $6 $7 $8 $9 X,Y pos of 4 corners*
0 Add a 4 corners polygon primitive as box body*
4,1,4,$2,$3,$4,$5,$6,$7,$8,$9,$2,$3,0*
0 Add four circle primitives for the rounded corners*
1,1,$1+$1,$2,$3*
1,1,$1+$1,$4,$5*
1,1,$1+$1,$6,$7*
1,1,$1+$1,$8,$9*
0 Add four rect primitives between the rounded corners*
20,1,$1+$1,$2,$3,$4,$5,0*
20,1,$1+$1,$4,$5,$6,$7,0*
20,1,$1+$1,$6,$7,$8,$9,0*
20,1,$1+$1,$8,$9,$2,$3,0*%
G04 Aperture macros list end*
%ADD10RoundRect,0.243750X-0.243750X-0.456250X0.243750X-0.456250X0.243750X0.456250X-0.243750X0.456250X0*%
%ADD11R,0.400000X1.750000*%
%ADD12R,1.825000X0.700000*%
%ADD13R,2.000000X1.460000*%
%ADD14RoundRect,0.384800X0.265200X1.240200X-0.265200X1.240200X-0.265200X-1.240200X0.265200X-1.240200X0*%
%ADD15R,1.425000X2.500000*%
%ADD16RoundRect,0.147500X0.172500X-0.147500X0.172500X0.147500X-0.172500X0.147500X-0.172500X-0.147500X0*%
%ADD17RoundRect,0.147500X0.147500X0.172500X-0.147500X0.172500X-0.147500X-0.172500X0.147500X-0.172500X0*%
%ADD18RoundRect,0.147500X-0.172500X0.147500X-0.172500X-0.147500X0.172500X-0.147500X0.172500X0.147500X0*%
%ADD19R,1.500000X2.000000*%
%ADD20R,3.800000X2.000000*%
%ADD21RoundRect,0.150000X-0.650000X-0.150000X0.650000X-0.150000X0.650000X0.150000X-0.650000X0.150000X0*%
%ADD22RoundRect,0.147500X-0.147500X-0.172500X0.147500X-0.172500X0.147500X0.172500X-0.147500X0.172500X0*%
%ADD23RoundRect,0.050000X-0.050000X-0.387500X0.050000X-0.387500X0.050000X0.387500X-0.050000X0.387500X0*%
%ADD24RoundRect,0.050000X-0.387500X-0.050000X0.387500X-0.050000X0.387500X0.050000X-0.387500X0.050000X0*%
%ADD25RoundRect,0.250000X-0.292217X-0.292217X0.292217X-0.292217X0.292217X0.292217X-0.292217X0.292217X0*%
%ADD26R,5.600000X2.100000*%
%ADD27RoundRect,0.140000X-0.170000X0.140000X-0.170000X-0.140000X0.170000X-0.140000X0.170000X0.140000X0*%
%ADD28R,0.500000X0.350000*%
%ADD29RoundRect,0.140000X0.140000X0.170000X-0.140000X0.170000X-0.140000X-0.170000X0.140000X-0.170000X0*%
G04 APERTURE END LIST*
D10*
X109962500Y-89000000D03*
X108087500Y-89000000D03*
D11*
X101300000Y-74525000D03*
X100650000Y-74525000D03*
X100000000Y-74525000D03*
X99350000Y-74525000D03*
X98700000Y-74525000D03*
D12*
X102987500Y-73400000D03*
D13*
X102900000Y-74730000D03*
D14*
X102725000Y-72125000D03*
D15*
X100962500Y-71450000D03*
X99037500Y-71450000D03*
D14*
X97275000Y-72125000D03*
D13*
X97100000Y-74730000D03*
D12*
X97012500Y-73400000D03*
D16*
X104000000Y-94000000D03*
X104000000Y-93030000D03*
X103000000Y-94000000D03*
X103000000Y-93030000D03*
D17*
X93030000Y-101200000D03*
X94000000Y-101200000D03*
X95700000Y-82830000D03*
X96670000Y-82830000D03*
D18*
X89500000Y-81830000D03*
X89500000Y-82800000D03*
D19*
X105700000Y-79700000D03*
D20*
X108000000Y-86000000D03*
D19*
X108000000Y-79700000D03*
X110300000Y-79700000D03*
D21*
X96650000Y-85370000D03*
X96650000Y-86640000D03*
X96650000Y-87910000D03*
X96650000Y-89180000D03*
X89450000Y-89180000D03*
X89450000Y-87910000D03*
X89450000Y-86640000D03*
X89450000Y-85370000D03*
D22*
X99000000Y-109000000D03*
X99970000Y-109000000D03*
D16*
X91000000Y-82800000D03*
X91000000Y-81830000D03*
X100000000Y-92030000D03*
X100000000Y-93000000D03*
D22*
X106970000Y-101200000D03*
X106000000Y-101200000D03*
D18*
X100381000Y-106970000D03*
X100381000Y-106000000D03*
X101000000Y-93030000D03*
X101000000Y-94000000D03*
X101500000Y-106000000D03*
X101500000Y-106970000D03*
D10*
X107000000Y-76500000D03*
X108875000Y-76500000D03*
D17*
X94000000Y-97000000D03*
X93030000Y-97000000D03*
D22*
X106000000Y-94600000D03*
X106970000Y-94600000D03*
D23*
X97400000Y-96562500D03*
X97800000Y-96562500D03*
X98200000Y-96562500D03*
X98600000Y-96562500D03*
X99000000Y-96562500D03*
X99400000Y-96562500D03*
X99800000Y-96562500D03*
X100200000Y-96562500D03*
X100600000Y-96562500D03*
X101000000Y-96562500D03*
X101400000Y-96562500D03*
X101800000Y-96562500D03*
X102200000Y-96562500D03*
X102600000Y-96562500D03*
D24*
X103437500Y-97400000D03*
X103437500Y-97800000D03*
X103437500Y-98200000D03*
X103437500Y-98600000D03*
X103437500Y-99000000D03*
X103437500Y-99400000D03*
X103437500Y-99800000D03*
X103437500Y-100200000D03*
X103437500Y-100600000D03*
X103437500Y-101000000D03*
X103437500Y-101400000D03*
X103437500Y-101800000D03*
X103437500Y-102200000D03*
X103437500Y-102600000D03*
D23*
X102600000Y-103437500D03*
X102200000Y-103437500D03*
X101800000Y-103437500D03*
X101400000Y-103437500D03*
X101000000Y-103437500D03*
X100600000Y-103437500D03*
X100200000Y-103437500D03*
X99800000Y-103437500D03*
X99400000Y-103437500D03*
X99000000Y-103437500D03*
X98600000Y-103437500D03*
X98200000Y-103437500D03*
X97800000Y-103437500D03*
X97400000Y-103437500D03*
D24*
X96562500Y-102600000D03*
X96562500Y-102200000D03*
X96562500Y-101800000D03*
X96562500Y-101400000D03*
X96562500Y-101000000D03*
X96562500Y-100600000D03*
X96562500Y-100200000D03*
X96562500Y-99800000D03*
X96562500Y-99400000D03*
X96562500Y-99000000D03*
X96562500Y-98600000D03*
X96562500Y-98200000D03*
X96562500Y-97800000D03*
X96562500Y-97400000D03*
D25*
X100637500Y-100637500D03*
X100637500Y-99362500D03*
X99362500Y-100637500D03*
X99362500Y-99362500D03*
D17*
X97000000Y-109000000D03*
X96030000Y-109000000D03*
D18*
X102000000Y-93030000D03*
X102000000Y-94000000D03*
D16*
X99000000Y-93000000D03*
X99000000Y-92030000D03*
D22*
X106000000Y-96000000D03*
X106970000Y-96000000D03*
D18*
X98700000Y-106630000D03*
X98700000Y-107600000D03*
D26*
X93341000Y-113116000D03*
X102341000Y-113116000D03*
D10*
X84177500Y-78000000D03*
X86052500Y-78000000D03*
D27*
X111988800Y-106032000D03*
X111988800Y-106992000D03*
D28*
X113970000Y-106430000D03*
X113970000Y-105780000D03*
X113970000Y-105130000D03*
X113970000Y-104480000D03*
X116020000Y-104480000D03*
X116020000Y-105130000D03*
X116020000Y-105780000D03*
X116020000Y-106430000D03*
D27*
X109956800Y-105371600D03*
X109956800Y-106331600D03*
D29*
X116177200Y-107578800D03*
X115217200Y-107578800D03*
X115674400Y-109356800D03*
X116634400Y-109356800D03*
M02*
