G04 #@! TF.GenerationSoftware,KiCad,Pcbnew,7.0.7*
G04 #@! TF.CreationDate,2023-09-24T23:50:35-07:00*
G04 #@! TF.ProjectId,RP2040_minimal,52503230-3430-45f6-9d69-6e696d616c2e,REV1*
G04 #@! TF.SameCoordinates,Original*
G04 #@! TF.FileFunction,Copper,L1,Top*
G04 #@! TF.FilePolarity,Positive*
%FSLAX46Y46*%
G04 Gerber Fmt 4.6, Leading zero omitted, Abs format (unit mm)*
G04 Created by KiCad (PCBNEW 7.0.7) date 2023-09-24 23:50:35*
%MOMM*%
%LPD*%
G01*
G04 APERTURE LIST*
G04 Aperture macros list*
%AMRoundRect*
0 Rectangle with rounded corners*
0 $1 Rounding radius*
0 $2 $3 $4 $5 $6 $7 $8 $9 X,Y pos of 4 corners*
0 Add a 4 corners polygon primitive as box body*
4,1,4,$2,$3,$4,$5,$6,$7,$8,$9,$2,$3,0*
0 Add four circle primitives for the rounded corners*
1,1,$1+$1,$2,$3*
1,1,$1+$1,$4,$5*
1,1,$1+$1,$6,$7*
1,1,$1+$1,$8,$9*
0 Add four rect primitives between the rounded corners*
20,1,$1+$1,$2,$3,$4,$5,0*
20,1,$1+$1,$4,$5,$6,$7,0*
20,1,$1+$1,$6,$7,$8,$9,0*
20,1,$1+$1,$8,$9,$2,$3,0*%
G04 Aperture macros list end*
G04 #@! TA.AperFunction,SMDPad,CuDef*
%ADD10RoundRect,0.243750X-0.243750X-0.456250X0.243750X-0.456250X0.243750X0.456250X-0.243750X0.456250X0*%
G04 #@! TD*
G04 #@! TA.AperFunction,SMDPad,CuDef*
%ADD11R,0.400000X1.750000*%
G04 #@! TD*
G04 #@! TA.AperFunction,SMDPad,CuDef*
%ADD12R,1.825000X0.700000*%
G04 #@! TD*
G04 #@! TA.AperFunction,SMDPad,CuDef*
%ADD13R,2.000000X1.460000*%
G04 #@! TD*
G04 #@! TA.AperFunction,SMDPad,CuDef*
%ADD14RoundRect,0.384800X0.265200X1.240200X-0.265200X1.240200X-0.265200X-1.240200X0.265200X-1.240200X0*%
G04 #@! TD*
G04 #@! TA.AperFunction,ComponentPad*
%ADD15O,1.300000X1.800000*%
G04 #@! TD*
G04 #@! TA.AperFunction,ComponentPad*
%ADD16O,1.050000X1.450000*%
G04 #@! TD*
G04 #@! TA.AperFunction,SMDPad,CuDef*
%ADD17R,1.425000X2.500000*%
G04 #@! TD*
G04 #@! TA.AperFunction,ComponentPad*
%ADD18R,1.700000X1.700000*%
G04 #@! TD*
G04 #@! TA.AperFunction,ComponentPad*
%ADD19O,1.700000X1.700000*%
G04 #@! TD*
G04 #@! TA.AperFunction,SMDPad,CuDef*
%ADD20RoundRect,0.147500X0.172500X-0.147500X0.172500X0.147500X-0.172500X0.147500X-0.172500X-0.147500X0*%
G04 #@! TD*
G04 #@! TA.AperFunction,SMDPad,CuDef*
%ADD21RoundRect,0.147500X0.147500X0.172500X-0.147500X0.172500X-0.147500X-0.172500X0.147500X-0.172500X0*%
G04 #@! TD*
G04 #@! TA.AperFunction,SMDPad,CuDef*
%ADD22RoundRect,0.147500X-0.172500X0.147500X-0.172500X-0.147500X0.172500X-0.147500X0.172500X0.147500X0*%
G04 #@! TD*
G04 #@! TA.AperFunction,SMDPad,CuDef*
%ADD23R,1.500000X2.000000*%
G04 #@! TD*
G04 #@! TA.AperFunction,SMDPad,CuDef*
%ADD24R,3.800000X2.000000*%
G04 #@! TD*
G04 #@! TA.AperFunction,SMDPad,CuDef*
%ADD25RoundRect,0.150000X-0.650000X-0.150000X0.650000X-0.150000X0.650000X0.150000X-0.650000X0.150000X0*%
G04 #@! TD*
G04 #@! TA.AperFunction,SMDPad,CuDef*
%ADD26RoundRect,0.147500X-0.147500X-0.172500X0.147500X-0.172500X0.147500X0.172500X-0.147500X0.172500X0*%
G04 #@! TD*
G04 #@! TA.AperFunction,ComponentPad*
%ADD27C,0.600000*%
G04 #@! TD*
G04 #@! TA.AperFunction,SMDPad,CuDef*
%ADD28RoundRect,0.144000X-1.456000X-1.456000X1.456000X-1.456000X1.456000X1.456000X-1.456000X1.456000X0*%
G04 #@! TD*
G04 #@! TA.AperFunction,SMDPad,CuDef*
%ADD29RoundRect,0.050000X-0.050000X-0.387500X0.050000X-0.387500X0.050000X0.387500X-0.050000X0.387500X0*%
G04 #@! TD*
G04 #@! TA.AperFunction,SMDPad,CuDef*
%ADD30RoundRect,0.050000X-0.387500X-0.050000X0.387500X-0.050000X0.387500X0.050000X-0.387500X0.050000X0*%
G04 #@! TD*
G04 #@! TA.AperFunction,SMDPad,CuDef*
%ADD31R,5.600000X2.100000*%
G04 #@! TD*
G04 #@! TA.AperFunction,SMDPad,CuDef*
%ADD32RoundRect,0.140000X-0.170000X0.140000X-0.170000X-0.140000X0.170000X-0.140000X0.170000X0.140000X0*%
G04 #@! TD*
G04 #@! TA.AperFunction,SMDPad,CuDef*
%ADD33R,0.500000X0.350000*%
G04 #@! TD*
G04 #@! TA.AperFunction,SMDPad,CuDef*
%ADD34RoundRect,0.140000X0.140000X0.170000X-0.140000X0.170000X-0.140000X-0.170000X0.140000X-0.170000X0*%
G04 #@! TD*
G04 #@! TA.AperFunction,ViaPad*
%ADD35C,0.600000*%
G04 #@! TD*
G04 #@! TA.AperFunction,Conductor*
%ADD36C,0.150000*%
G04 #@! TD*
G04 #@! TA.AperFunction,Conductor*
%ADD37C,0.200000*%
G04 #@! TD*
G04 #@! TA.AperFunction,Conductor*
%ADD38C,0.400000*%
G04 #@! TD*
G04 #@! TA.AperFunction,Conductor*
%ADD39C,0.300000*%
G04 #@! TD*
G04 #@! TA.AperFunction,Conductor*
%ADD40C,0.800000*%
G04 #@! TD*
G04 APERTURE END LIST*
D10*
X109962500Y-89000000D03*
X108087500Y-89000000D03*
D11*
X101300000Y-74525000D03*
X100650000Y-74525000D03*
X100000000Y-74525000D03*
X99350000Y-74525000D03*
X98700000Y-74525000D03*
D12*
X102987500Y-73400000D03*
D13*
X102900000Y-74730000D03*
D14*
X102725000Y-72125000D03*
D15*
X102725000Y-71700000D03*
D16*
X102425000Y-74730000D03*
D17*
X100962500Y-71450000D03*
X99037500Y-71450000D03*
D16*
X97575000Y-74730000D03*
D14*
X97275000Y-72125000D03*
D15*
X97275000Y-71700000D03*
D13*
X97100000Y-74730000D03*
D12*
X97012500Y-73400000D03*
D18*
X91110000Y-76540000D03*
D19*
X91110000Y-74000000D03*
D18*
X75870000Y-74000000D03*
D19*
X78410000Y-74000000D03*
X75870000Y-76540000D03*
X78410000Y-76540000D03*
X75870000Y-79080000D03*
X78410000Y-79080000D03*
X75870000Y-81620000D03*
X78410000Y-81620000D03*
X75870000Y-84160000D03*
X78410000Y-84160000D03*
X75870000Y-86700000D03*
X78410000Y-86700000D03*
X75870000Y-89240000D03*
X78410000Y-89240000D03*
X75870000Y-91780000D03*
X78410000Y-91780000D03*
X75870000Y-94320000D03*
X78410000Y-94320000D03*
X75870000Y-96860000D03*
X78410000Y-96860000D03*
X75870000Y-99400000D03*
X78410000Y-99400000D03*
X75870000Y-101940000D03*
X78410000Y-101940000D03*
X75870000Y-104480000D03*
X78410000Y-104480000D03*
X75870000Y-107020000D03*
X78410000Y-107020000D03*
X75870000Y-109560000D03*
X78410000Y-109560000D03*
X75870000Y-112100000D03*
X78410000Y-112100000D03*
X75870000Y-114640000D03*
X78410000Y-114640000D03*
X75870000Y-117180000D03*
X78410000Y-117180000D03*
D20*
X104000000Y-94000000D03*
X104000000Y-93030000D03*
X103000000Y-94000000D03*
X103000000Y-93030000D03*
D21*
X93030000Y-101200000D03*
X94000000Y-101200000D03*
X95700000Y-82830000D03*
X96670000Y-82830000D03*
D22*
X89500000Y-81830000D03*
X89500000Y-82800000D03*
D18*
X121590000Y-74000000D03*
D19*
X124130000Y-74000000D03*
X121590000Y-76540000D03*
X124130000Y-76540000D03*
X121590000Y-79080000D03*
X124130000Y-79080000D03*
X121590000Y-81620000D03*
X124130000Y-81620000D03*
X121590000Y-84160000D03*
X124130000Y-84160000D03*
X121590000Y-86700000D03*
X124130000Y-86700000D03*
X121590000Y-89240000D03*
X124130000Y-89240000D03*
X121590000Y-91780000D03*
X124130000Y-91780000D03*
X121590000Y-94320000D03*
X124130000Y-94320000D03*
X121590000Y-96860000D03*
X124130000Y-96860000D03*
X121590000Y-99400000D03*
X124130000Y-99400000D03*
X121590000Y-101940000D03*
X124130000Y-101940000D03*
X121590000Y-104480000D03*
X124130000Y-104480000D03*
X121590000Y-107020000D03*
X124130000Y-107020000D03*
X121590000Y-109560000D03*
X124130000Y-109560000D03*
X121590000Y-112100000D03*
X124130000Y-112100000D03*
X121590000Y-114640000D03*
X124130000Y-114640000D03*
X121590000Y-117180000D03*
X124130000Y-117180000D03*
D23*
X105700000Y-79700000D03*
D24*
X108000000Y-86000000D03*
D23*
X108000000Y-79700000D03*
X110300000Y-79700000D03*
D25*
X96650000Y-85370000D03*
X96650000Y-86640000D03*
X96650000Y-87910000D03*
X96650000Y-89180000D03*
X89450000Y-89180000D03*
X89450000Y-87910000D03*
X89450000Y-86640000D03*
X89450000Y-85370000D03*
D26*
X99000000Y-109000000D03*
X99970000Y-109000000D03*
D20*
X91000000Y-82800000D03*
X91000000Y-81830000D03*
X100000000Y-92030000D03*
X100000000Y-93000000D03*
D26*
X106970000Y-101200000D03*
X106000000Y-101200000D03*
D22*
X100381000Y-106970000D03*
X100381000Y-106000000D03*
X101000000Y-93030000D03*
X101000000Y-94000000D03*
X101500000Y-106000000D03*
X101500000Y-106970000D03*
D10*
X107000000Y-76500000D03*
X108875000Y-76500000D03*
D21*
X94000000Y-97000000D03*
X93030000Y-97000000D03*
D26*
X106000000Y-94600000D03*
X106970000Y-94600000D03*
D27*
X101275000Y-101275000D03*
X101275000Y-100000000D03*
X101275000Y-98725000D03*
X100000000Y-101275000D03*
D28*
X100000000Y-100000000D03*
D27*
X100000000Y-100000000D03*
X100000000Y-98725000D03*
X98725000Y-101275000D03*
X98725000Y-100000000D03*
X98725000Y-98725000D03*
D29*
X97400000Y-96562500D03*
X97800000Y-96562500D03*
X98200000Y-96562500D03*
X98600000Y-96562500D03*
X99000000Y-96562500D03*
X99400000Y-96562500D03*
X99800000Y-96562500D03*
X100200000Y-96562500D03*
X100600000Y-96562500D03*
X101000000Y-96562500D03*
X101400000Y-96562500D03*
X101800000Y-96562500D03*
X102200000Y-96562500D03*
X102600000Y-96562500D03*
D30*
X103437500Y-97400000D03*
X103437500Y-97800000D03*
X103437500Y-98200000D03*
X103437500Y-98600000D03*
X103437500Y-99000000D03*
X103437500Y-99400000D03*
X103437500Y-99800000D03*
X103437500Y-100200000D03*
X103437500Y-100600000D03*
X103437500Y-101000000D03*
X103437500Y-101400000D03*
X103437500Y-101800000D03*
X103437500Y-102200000D03*
X103437500Y-102600000D03*
D29*
X102600000Y-103437500D03*
X102200000Y-103437500D03*
X101800000Y-103437500D03*
X101400000Y-103437500D03*
X101000000Y-103437500D03*
X100600000Y-103437500D03*
X100200000Y-103437500D03*
X99800000Y-103437500D03*
X99400000Y-103437500D03*
X99000000Y-103437500D03*
X98600000Y-103437500D03*
X98200000Y-103437500D03*
X97800000Y-103437500D03*
X97400000Y-103437500D03*
D30*
X96562500Y-102600000D03*
X96562500Y-102200000D03*
X96562500Y-101800000D03*
X96562500Y-101400000D03*
X96562500Y-101000000D03*
X96562500Y-100600000D03*
X96562500Y-100200000D03*
X96562500Y-99800000D03*
X96562500Y-99400000D03*
X96562500Y-99000000D03*
X96562500Y-98600000D03*
X96562500Y-98200000D03*
X96562500Y-97800000D03*
X96562500Y-97400000D03*
D21*
X97000000Y-109000000D03*
X96030000Y-109000000D03*
D22*
X102000000Y-93030000D03*
X102000000Y-94000000D03*
D20*
X99000000Y-93000000D03*
X99000000Y-92030000D03*
D26*
X106000000Y-96000000D03*
X106970000Y-96000000D03*
D22*
X98700000Y-106630000D03*
X98700000Y-107600000D03*
D31*
X93341000Y-113116000D03*
X102341000Y-113116000D03*
D10*
X84177500Y-78000000D03*
X86052500Y-78000000D03*
D32*
X111988800Y-106032000D03*
X111988800Y-106992000D03*
D33*
X113970000Y-106430000D03*
X113970000Y-105780000D03*
X113970000Y-105130000D03*
X113970000Y-104480000D03*
X116020000Y-104480000D03*
X116020000Y-105130000D03*
X116020000Y-105780000D03*
X116020000Y-106430000D03*
D32*
X109956800Y-105371600D03*
X109956800Y-106331600D03*
D34*
X116177200Y-107578800D03*
X115217200Y-107578800D03*
X115674400Y-109356800D03*
X116634400Y-109356800D03*
D35*
X117678400Y-104429200D03*
X119050000Y-105140400D03*
X117526000Y-106430000D03*
X112700000Y-108747200D03*
X99555500Y-106956500D03*
X97890000Y-112900000D03*
X98790000Y-111400000D03*
X90090000Y-114700000D03*
X90090000Y-111400000D03*
X105490000Y-111400000D03*
X108000000Y-94600000D03*
X92000000Y-97000000D03*
X104000000Y-92200000D03*
X110000000Y-78000000D03*
X101500000Y-107782004D03*
X108000000Y-101305000D03*
X108000000Y-95600000D03*
X92000000Y-101200000D03*
X98700000Y-76000000D03*
X99000000Y-91200008D03*
X86190000Y-79400000D03*
X100380994Y-107781990D03*
X95174000Y-109000000D03*
X111500000Y-89000000D03*
X100762000Y-108988500D03*
X96800000Y-111400000D03*
X105490000Y-115100000D03*
X103000000Y-92200000D03*
X100000000Y-91200000D03*
X97079000Y-106829500D03*
X90800000Y-89200000D03*
X94700000Y-82800000D03*
X104600000Y-73300000D03*
X95400000Y-73300000D03*
X99800000Y-95199994D03*
X100700000Y-97900000D03*
X100599970Y-102100000D03*
X100800000Y-105200000D03*
D36*
X105108750Y-101940000D02*
X113843000Y-101940000D01*
X113843000Y-101940000D02*
X121463000Y-94320000D01*
X103437500Y-101400000D02*
X104568750Y-101400000D01*
X104568750Y-101400000D02*
X105108750Y-101940000D01*
X121463000Y-94320000D02*
X121590000Y-94320000D01*
X105080000Y-102575000D02*
X115875000Y-102575000D01*
X115875000Y-102575000D02*
X121590000Y-96860000D01*
X104305000Y-101800000D02*
X105080000Y-102575000D01*
X103437500Y-101800000D02*
X104305000Y-101800000D01*
X105080000Y-103210000D02*
X117780000Y-103210000D01*
X104070000Y-102200000D02*
X105080000Y-103210000D01*
X103437500Y-102200000D02*
X104070000Y-102200000D01*
X117780000Y-103210000D02*
X121590000Y-99400000D01*
X103835000Y-102600000D02*
X103437500Y-102600000D01*
X105080000Y-103845000D02*
X103835000Y-102600000D01*
X119685000Y-103845000D02*
X105080000Y-103845000D01*
X121590000Y-101940000D02*
X119685000Y-103845000D01*
X106350000Y-107020000D02*
X103408501Y-107020000D01*
X103408501Y-107020000D02*
X101000000Y-104611499D01*
X118923000Y-111084000D02*
X110414000Y-111084000D01*
X121590000Y-113751000D02*
X118923000Y-111084000D01*
X110414000Y-111084000D02*
X106350000Y-107020000D01*
X101000000Y-104611499D02*
X101000000Y-103437500D01*
X121590000Y-114640000D02*
X121590000Y-113751000D01*
X106139264Y-106385000D02*
X103385000Y-106385000D01*
X110457264Y-110703000D02*
X106139264Y-106385000D01*
X101400000Y-104400000D02*
X101400000Y-103437500D01*
X120193000Y-110703000D02*
X110457264Y-110703000D01*
X103385000Y-106385000D02*
X101400000Y-104400000D01*
X121590000Y-112100000D02*
X120193000Y-110703000D01*
X103350000Y-105750000D02*
X101800000Y-104200000D01*
X105928528Y-105750000D02*
X103350000Y-105750000D01*
X110373528Y-110195000D02*
X105928528Y-105750000D01*
X121590000Y-109560000D02*
X120955000Y-110195000D01*
X120955000Y-110195000D02*
X110373528Y-110195000D01*
X101800000Y-104200000D02*
X101800000Y-103437500D01*
X117627600Y-104480000D02*
X117678400Y-104429200D01*
X116020000Y-104480000D02*
X117627600Y-104480000D01*
X114760000Y-108594800D02*
X114607600Y-108747200D01*
X116611600Y-108594800D02*
X114760000Y-108594800D01*
X118186400Y-106258000D02*
X118186400Y-107020000D01*
X118186400Y-107020000D02*
X116611600Y-108594800D01*
X117708400Y-105780000D02*
X118186400Y-106258000D01*
X116020000Y-105780000D02*
X117708400Y-105780000D01*
X115217200Y-107578800D02*
X115217200Y-108137600D01*
X115217200Y-108137600D02*
X114607600Y-108747200D01*
X116967200Y-106788800D02*
X116177200Y-107578800D01*
X116967200Y-106430000D02*
X116967200Y-106788800D01*
X118694400Y-107296800D02*
X116634400Y-109356800D01*
X118694400Y-105841200D02*
X118694400Y-107296800D01*
X117983200Y-105130000D02*
X118694400Y-105841200D01*
X119039600Y-105130000D02*
X117983200Y-105130000D01*
X119050000Y-105140400D02*
X119039600Y-105130000D01*
X113970000Y-106430000D02*
X113970000Y-108747200D01*
X113970000Y-108747200D02*
X114607600Y-108747200D01*
X112700000Y-108747200D02*
X113970000Y-108747200D01*
X116967200Y-106430000D02*
X116020000Y-106430000D01*
X117526000Y-106430000D02*
X116967200Y-106430000D01*
X112039600Y-109356800D02*
X109956800Y-107274000D01*
X115674400Y-109356800D02*
X112039600Y-109356800D01*
X116020000Y-105130000D02*
X117983200Y-105130000D01*
X109956800Y-106331600D02*
X109956800Y-107274000D01*
D37*
X111328400Y-107274000D02*
X109956800Y-107274000D01*
X111938000Y-107883600D02*
X111328400Y-107274000D01*
D36*
X109956800Y-104530800D02*
X109906000Y-104480000D01*
X109956800Y-105371600D02*
X109956800Y-104530800D01*
X109906000Y-104480000D02*
X113970000Y-104480000D01*
X108991600Y-104480000D02*
X109906000Y-104480000D01*
X111988800Y-107832800D02*
X111938000Y-107883600D01*
X111988800Y-106992000D02*
X111988800Y-107832800D01*
D37*
X112700000Y-107883600D02*
X111938000Y-107883600D01*
D36*
X111988800Y-105180800D02*
X111938000Y-105130000D01*
X111988800Y-106032000D02*
X111988800Y-105180800D01*
X111938000Y-105130000D02*
X113970000Y-105130000D01*
X111430000Y-105130000D02*
X111938000Y-105130000D01*
D37*
X112700000Y-106600000D02*
X112700000Y-107883600D01*
X113520000Y-105780000D02*
X112700000Y-106600000D01*
X113970000Y-105780000D02*
X113520000Y-105780000D01*
D36*
X104385181Y-104480000D02*
X108991600Y-104480000D01*
X106454392Y-105851600D02*
X110708400Y-105851600D01*
X106052792Y-105450000D02*
X106454392Y-105851600D01*
X102200000Y-104000000D02*
X103650000Y-105450000D01*
X103650000Y-105450000D02*
X106052792Y-105450000D01*
X102200000Y-103437500D02*
X102200000Y-104000000D01*
X110708400Y-105851600D02*
X111430000Y-105130000D01*
D37*
X93030000Y-101200000D02*
X92000000Y-101200000D01*
X95375000Y-82800000D02*
X94700000Y-82800000D01*
X97540000Y-71450000D02*
X97270000Y-71720000D01*
X89450000Y-89180000D02*
X90780000Y-89180000D01*
X96030000Y-109000000D02*
X95174000Y-109000000D01*
X104000000Y-93030000D02*
X104000000Y-92200000D01*
X106970000Y-94600000D02*
X108000000Y-94600000D01*
D36*
X99970000Y-109000000D02*
X100750500Y-109000000D01*
D37*
X100000000Y-92030000D02*
X100000000Y-91200000D01*
D36*
X107600000Y-96000000D02*
X108000000Y-95600000D01*
D37*
X106970000Y-101200000D02*
X107075000Y-101305000D01*
X99000000Y-92030000D02*
X99000000Y-91200008D01*
D36*
X99970000Y-109000000D02*
X99970000Y-108680000D01*
D37*
X100381000Y-106970000D02*
X100381000Y-107781984D01*
X95700000Y-82830000D02*
X95405000Y-82830000D01*
D36*
X99555500Y-108265500D02*
X99555500Y-108099500D01*
X86140000Y-78950000D02*
X86190000Y-79000000D01*
D37*
X110300000Y-78300000D02*
X110000000Y-78000000D01*
X98700000Y-74600000D02*
X98700000Y-76000000D01*
X110050000Y-89000000D02*
X111500000Y-89000000D01*
D36*
X106970000Y-96000000D02*
X107600000Y-96000000D01*
X86140000Y-78000000D02*
X86140000Y-79250000D01*
X97079000Y-106575500D02*
X97079000Y-106829500D01*
D37*
X107075000Y-101305000D02*
X108000000Y-101305000D01*
D36*
X99000000Y-104654500D02*
X97079000Y-106575500D01*
D37*
X99040000Y-71450000D02*
X97540000Y-71450000D01*
D36*
X99000000Y-103437500D02*
X99000000Y-104654500D01*
D37*
X100381000Y-107781984D02*
X100380994Y-107781990D01*
X108875000Y-76500000D02*
X108875000Y-76875000D01*
X100960000Y-71450000D02*
X102460000Y-71450000D01*
X95405000Y-82830000D02*
X95375000Y-82800000D01*
X103000000Y-93030000D02*
X103000000Y-92200000D01*
D36*
X100750500Y-109000000D02*
X100762000Y-108988500D01*
D37*
X99000000Y-113350000D02*
X99000000Y-114400000D01*
X108875000Y-76875000D02*
X110000000Y-78000000D01*
D36*
X99970000Y-108680000D02*
X99555500Y-108265500D01*
D37*
X101500000Y-106970000D02*
X101500000Y-107782004D01*
X110300000Y-79700000D02*
X110300000Y-78300000D01*
X90780000Y-89180000D02*
X90800000Y-89200000D01*
X96800000Y-111650000D02*
X96800000Y-110599974D01*
X93030000Y-97000000D02*
X92000000Y-97000000D01*
D36*
X86190000Y-79000000D02*
X86190000Y-79100000D01*
D37*
X102460000Y-71450000D02*
X102730000Y-71720000D01*
D38*
X101300000Y-75500000D02*
X102100000Y-76300000D01*
X101300000Y-74525000D02*
X101300000Y-75500000D01*
D36*
X97650500Y-109650500D02*
X97650500Y-111782500D01*
X97800000Y-108200000D02*
X97000000Y-109000000D01*
X96317000Y-113116000D02*
X93341000Y-113116000D01*
X99400000Y-104937861D02*
X97800000Y-106537861D01*
X97650500Y-111782500D02*
X96317000Y-113116000D01*
X97000000Y-109000000D02*
X97650500Y-109650500D01*
X97800000Y-106537861D02*
X97800000Y-108200000D01*
X99400000Y-103437500D02*
X99400000Y-104937861D01*
X98700000Y-106200000D02*
X98700000Y-106630000D01*
X99800000Y-105100000D02*
X98700000Y-106200000D01*
X99800000Y-103437500D02*
X99800000Y-105100000D01*
D37*
X100200000Y-97400000D02*
X100200000Y-97000000D01*
X100600000Y-96562500D02*
X100600000Y-97200000D01*
X100350001Y-94112535D02*
X100350001Y-95549999D01*
X100200000Y-96562500D02*
X100200000Y-97400000D01*
X100200000Y-95700000D02*
X100200000Y-96562500D01*
X100000000Y-93762534D02*
X100350001Y-94112535D01*
D39*
X74700000Y-72900000D02*
X74700000Y-75200000D01*
D37*
X96650000Y-85370000D02*
X96650000Y-82850000D01*
D36*
X100701000Y-106000000D02*
X100952500Y-106251500D01*
D37*
X100200000Y-103437500D02*
X100200000Y-102800000D01*
X102200000Y-96100000D02*
X103600000Y-94700000D01*
X96562500Y-97400000D02*
X95700000Y-97400000D01*
X103437500Y-101000000D02*
X105800000Y-101000000D01*
X100381000Y-105686500D02*
X100381000Y-106000000D01*
X100600000Y-97200000D02*
X100400000Y-97400000D01*
X108000000Y-86000000D02*
X108000000Y-89000000D01*
D36*
X100952500Y-108163000D02*
X101096505Y-108307005D01*
D37*
X94200000Y-101000000D02*
X94000000Y-101200000D01*
X100200000Y-102800000D02*
X100000000Y-102600000D01*
X96562500Y-97400000D02*
X97400000Y-97400000D01*
X100200000Y-103437500D02*
X100200000Y-105505500D01*
X100350001Y-95549999D02*
X100200000Y-95700000D01*
X96562500Y-101000000D02*
X94200000Y-101000000D01*
X103437500Y-97400000D02*
X102600000Y-97400000D01*
D36*
X100952500Y-106251500D02*
X100952500Y-108163000D01*
D37*
X103437500Y-101000000D02*
X102600000Y-101000000D01*
X96650000Y-82850000D02*
X96670000Y-82830000D01*
X102600000Y-96562500D02*
X102600000Y-97400000D01*
D36*
X101096505Y-108307005D02*
X102141995Y-108307005D01*
D37*
X102200000Y-96562500D02*
X102200000Y-96100000D01*
X100600000Y-95799998D02*
X100350001Y-95549999D01*
X96562500Y-101000000D02*
X97400000Y-101000000D01*
X102200000Y-97200000D02*
X102400000Y-97400000D01*
X100200000Y-105505500D02*
X100381000Y-105686500D01*
D36*
X100381000Y-106000000D02*
X100701000Y-106000000D01*
D37*
X105800000Y-101000000D02*
X106000000Y-101200000D01*
X100000000Y-93000000D02*
X100000000Y-93762534D01*
X102200000Y-96562500D02*
X102200000Y-97200000D01*
X100600000Y-96562500D02*
X100600000Y-95799998D01*
X99800000Y-96562500D02*
X99800000Y-95199994D01*
X101800000Y-96562500D02*
X101800000Y-95800000D01*
X99000000Y-93000000D02*
X99000000Y-93295000D01*
X100600000Y-105000000D02*
X100800000Y-105200000D01*
D36*
X100500000Y-97900000D02*
X100700000Y-97900000D01*
D37*
X100600000Y-103437500D02*
X100600000Y-105000000D01*
X101800000Y-95800000D02*
X103000000Y-94600000D01*
D36*
X100400000Y-98000000D02*
X100500000Y-97900000D01*
D37*
X99000000Y-93295000D02*
X99800000Y-94095000D01*
X103000000Y-94600000D02*
X103000000Y-94000000D01*
X101800000Y-96562500D02*
X101800000Y-97400000D01*
X101500000Y-105900000D02*
X100800000Y-105200000D01*
X101500000Y-106000000D02*
X101500000Y-105900000D01*
X99800000Y-94775730D02*
X99800000Y-95199994D01*
X99800000Y-94095000D02*
X99800000Y-94775730D01*
D36*
X91000000Y-81830000D02*
X91000000Y-76650000D01*
X91000000Y-76650000D02*
X91110000Y-76540000D01*
X96687861Y-106350000D02*
X86700000Y-106350000D01*
X98600000Y-104437861D02*
X96687861Y-106350000D01*
X86700000Y-106350000D02*
X78410000Y-114640000D01*
X98600000Y-103437500D02*
X98600000Y-104437861D01*
X98200000Y-104190000D02*
X96675000Y-105715000D01*
X96675000Y-105715000D02*
X84795000Y-105715000D01*
X98200000Y-103437500D02*
X98200000Y-104190000D01*
X84795000Y-105715000D02*
X78410000Y-112100000D01*
X97800000Y-103875000D02*
X96595000Y-105080000D01*
X97800000Y-103437500D02*
X97800000Y-103875000D01*
X82890000Y-105080000D02*
X78410000Y-109560000D01*
X96595000Y-105080000D02*
X82890000Y-105080000D01*
X97097500Y-103537500D02*
X96190000Y-104445000D01*
X97300000Y-103537500D02*
X97097500Y-103537500D01*
X80985000Y-104445000D02*
X78410000Y-107020000D01*
X96190000Y-104445000D02*
X80985000Y-104445000D01*
X97400000Y-103437500D02*
X97300000Y-103537500D01*
X96130000Y-102600000D02*
X94920000Y-103810000D01*
X79080000Y-103810000D02*
X78410000Y-104480000D01*
X94920000Y-103810000D02*
X79080000Y-103810000D01*
X96562500Y-102600000D02*
X96130000Y-102600000D01*
X95260000Y-102200000D02*
X94285000Y-103175000D01*
X96562500Y-102200000D02*
X95260000Y-102200000D01*
X94285000Y-103175000D02*
X79645000Y-103175000D01*
X79645000Y-103175000D02*
X78410000Y-101940000D01*
X81550000Y-102540000D02*
X78410000Y-99400000D01*
X94285000Y-102540000D02*
X81550000Y-102540000D01*
X95025000Y-101800000D02*
X94285000Y-102540000D01*
X96562500Y-101800000D02*
X95025000Y-101800000D01*
X83455000Y-101905000D02*
X78410000Y-96860000D01*
X94790000Y-101400000D02*
X94285000Y-101905000D01*
X94285000Y-101905000D02*
X83455000Y-101905000D01*
X96562500Y-101400000D02*
X94790000Y-101400000D01*
X84690000Y-100600000D02*
X78410000Y-94320000D01*
X96562500Y-100600000D02*
X84690000Y-100600000D01*
X78410000Y-92380000D02*
X78410000Y-91780000D01*
X86230000Y-100200000D02*
X78410000Y-92380000D01*
X96562500Y-100200000D02*
X86230000Y-100200000D01*
X96562500Y-99800000D02*
X87100000Y-99800000D01*
X87100000Y-99800000D02*
X79680000Y-92380000D01*
X79680000Y-90510000D02*
X78410000Y-89240000D01*
X79680000Y-92380000D02*
X79680000Y-90510000D01*
X96562500Y-99400000D02*
X87970000Y-99400000D01*
X80950000Y-89240000D02*
X78410000Y-86700000D01*
X87970000Y-99400000D02*
X80950000Y-92380000D01*
X80950000Y-92380000D02*
X80950000Y-89240000D01*
X82220000Y-92380000D02*
X82220000Y-87952500D01*
X88840000Y-99000000D02*
X82220000Y-92380000D01*
X78427500Y-84160000D02*
X78410000Y-84160000D01*
X96562500Y-99000000D02*
X88840000Y-99000000D01*
X82220000Y-87952500D02*
X78427500Y-84160000D01*
X83490000Y-86682500D02*
X78427500Y-81620000D01*
X83490000Y-92380000D02*
X83490000Y-86682500D01*
X78427500Y-81620000D02*
X78410000Y-81620000D01*
X96562500Y-98600000D02*
X89710000Y-98600000D01*
X89710000Y-98600000D02*
X83490000Y-92380000D01*
X84760000Y-85412500D02*
X78427500Y-79080000D01*
X78427500Y-79080000D02*
X78410000Y-79080000D01*
X96562500Y-98200000D02*
X90580000Y-98200000D01*
X84760000Y-92380000D02*
X84760000Y-85412500D01*
X90580000Y-98200000D02*
X84760000Y-92380000D01*
X86030000Y-92380000D02*
X86030000Y-84160000D01*
X96562500Y-97800000D02*
X91450000Y-97800000D01*
X86030000Y-84160000D02*
X78410000Y-76540000D01*
X91450000Y-97800000D02*
X86030000Y-92380000D01*
X121581250Y-74000000D02*
X121590000Y-74000000D01*
X112065000Y-83516250D02*
X121581250Y-74000000D01*
X106645000Y-97800000D02*
X112065000Y-92380000D01*
X112065000Y-92380000D02*
X112065000Y-83516250D01*
X103437500Y-97800000D02*
X106645000Y-97800000D01*
X113335000Y-92380000D02*
X113335000Y-84795000D01*
X103437500Y-98200000D02*
X107515000Y-98200000D01*
X120930000Y-77200000D02*
X121590000Y-76540000D01*
X113335000Y-84795000D02*
X120930000Y-77200000D01*
X107515000Y-98200000D02*
X113335000Y-92380000D01*
X114605000Y-92380000D02*
X114605000Y-86065000D01*
X108385000Y-98600000D02*
X114605000Y-92380000D01*
X120920000Y-79750000D02*
X121590000Y-79080000D01*
X103437500Y-98600000D02*
X108385000Y-98600000D01*
X114605000Y-86065000D02*
X120920000Y-79750000D01*
X120920000Y-82290000D02*
X121590000Y-81620000D01*
X109272500Y-99000000D02*
X115875000Y-92397500D01*
X103437500Y-99000000D02*
X109272500Y-99000000D01*
X115875000Y-92397500D02*
X115875000Y-87335000D01*
X115875000Y-87335000D02*
X120920000Y-82290000D01*
X103437500Y-99400000D02*
X110125000Y-99400000D01*
X120920000Y-84830000D02*
X121590000Y-84160000D01*
X110125000Y-99400000D02*
X117145000Y-92380000D01*
X117145000Y-92380000D02*
X117145000Y-88605000D01*
X117145000Y-88605000D02*
X120920000Y-84830000D01*
X110995000Y-99800000D02*
X118415000Y-92380000D01*
X118415000Y-89875000D02*
X120920000Y-87370000D01*
X118415000Y-92380000D02*
X118415000Y-89875000D01*
X120920000Y-87370000D02*
X121590000Y-86700000D01*
X103437500Y-99800000D02*
X110995000Y-99800000D01*
X111865000Y-100200000D02*
X105200000Y-100200000D01*
X121590000Y-89240000D02*
X119685000Y-91145000D01*
X119685000Y-91145000D02*
X119685000Y-92380000D01*
X105200000Y-100200000D02*
X103437500Y-100200000D01*
X119685000Y-92380000D02*
X111865000Y-100200000D01*
X112770000Y-100600000D02*
X120320000Y-93050000D01*
X120320000Y-93050000D02*
X121590000Y-91780000D01*
X103437500Y-100600000D02*
X112770000Y-100600000D01*
X89450000Y-85370000D02*
X89450000Y-82850000D01*
X87500000Y-90200000D02*
X88600000Y-91300000D01*
X92300000Y-91300000D02*
X97400000Y-96400000D01*
X97400000Y-96400000D02*
X97400000Y-96600000D01*
X88930000Y-85370000D02*
X87500000Y-86800000D01*
X89450000Y-85370000D02*
X88930000Y-85370000D01*
X89500000Y-82800000D02*
X91000000Y-82800000D01*
X97400000Y-96600000D02*
X97400000Y-96627500D01*
X87500000Y-86800000D02*
X87500000Y-90200000D01*
X88600000Y-91300000D02*
X92300000Y-91300000D01*
X89450000Y-82850000D02*
X89500000Y-82800000D01*
X98400000Y-90600000D02*
X98400000Y-87800000D01*
X97240000Y-86640000D02*
X96650000Y-86640000D01*
X97900000Y-91100000D02*
X98400000Y-90600000D01*
X98400000Y-87800000D02*
X97240000Y-86640000D01*
X99251321Y-94251321D02*
X97900000Y-92900000D01*
X97900000Y-92900000D02*
X97900000Y-91100000D01*
X99400000Y-96562500D02*
X99400000Y-96125000D01*
X99251321Y-95976321D02*
X99251321Y-94251321D01*
X99400000Y-96125000D02*
X99251321Y-95976321D01*
X97300000Y-90900000D02*
X97800000Y-90400000D01*
X98951310Y-96523810D02*
X98951310Y-94751310D01*
X97800000Y-90400000D02*
X97800000Y-88500000D01*
X97800000Y-88500000D02*
X97210000Y-87910000D01*
X99000000Y-96572500D02*
X98951310Y-96523810D01*
X98951310Y-94751310D02*
X97300000Y-93100000D01*
X97300000Y-93100000D02*
X97300000Y-90900000D01*
X97210000Y-87910000D02*
X96650000Y-87910000D01*
X98600000Y-95200000D02*
X96700000Y-93300000D01*
X98600000Y-96572500D02*
X98600000Y-95200000D01*
X96700000Y-93300000D02*
X96700000Y-89230000D01*
X96700000Y-89230000D02*
X96650000Y-89180000D01*
X98200000Y-95600000D02*
X90510000Y-87910000D01*
X98200000Y-96572500D02*
X98200000Y-95600000D01*
X90510000Y-87910000D02*
X89450000Y-87910000D01*
X88100000Y-87500000D02*
X88960000Y-86640000D01*
X97800000Y-96572500D02*
X97800000Y-96000000D01*
X89000000Y-90700000D02*
X88100000Y-89800000D01*
X88100000Y-89800000D02*
X88100000Y-87500000D01*
X97800000Y-96000000D02*
X92500000Y-90700000D01*
X92500000Y-90700000D02*
X89000000Y-90700000D01*
X88960000Y-86640000D02*
X89450000Y-86640000D01*
D40*
X99725000Y-82596752D02*
X99725000Y-76400000D01*
X101025000Y-83896752D02*
X99725000Y-82596752D01*
D38*
X100000000Y-74525000D02*
X100000000Y-75800000D01*
X100000000Y-75800000D02*
X99725000Y-76075000D01*
D40*
X101000000Y-93030000D02*
X101025000Y-93005000D01*
X101025000Y-93005000D02*
X101025000Y-83896752D01*
D38*
X99725000Y-76075000D02*
X99725000Y-76400000D01*
X100650000Y-76375000D02*
X100675000Y-76400000D01*
D40*
X102000000Y-93030000D02*
X101975000Y-93005000D01*
X101975000Y-83503248D02*
X100675000Y-82203248D01*
X100675000Y-82203248D02*
X100675000Y-76400000D01*
X101975000Y-93005000D02*
X101975000Y-83503248D01*
D38*
X100650000Y-74525000D02*
X100650000Y-76375000D01*
D36*
X99000000Y-109000000D02*
X98802500Y-109000000D01*
X99365000Y-113116000D02*
X102341000Y-113116000D01*
X98802500Y-109000000D02*
X98031500Y-109771000D01*
X99000000Y-108500000D02*
X99000000Y-109000000D01*
X98031500Y-111782500D02*
X99365000Y-113116000D01*
X98700000Y-107600000D02*
X98700000Y-108200000D01*
X98700000Y-108200000D02*
X99000000Y-108500000D01*
X98031500Y-109771000D02*
X98031500Y-111782500D01*
D37*
X101000000Y-96562500D02*
X101000000Y-94000000D01*
X101400000Y-95300000D02*
X102000000Y-94700000D01*
X101400000Y-96562500D02*
X101400000Y-95300000D01*
X102000000Y-94700000D02*
X102000000Y-94000000D01*
D36*
X103342681Y-103437500D02*
X104385181Y-104480000D01*
X102600000Y-103437500D02*
X103342681Y-103437500D01*
G04 #@! TA.AperFunction,Conductor*
G36*
X107943039Y-75019685D02*
G01*
X107988794Y-75072489D01*
X108000000Y-75124000D01*
X108000000Y-75437503D01*
X107980315Y-75504542D01*
X107927511Y-75550297D01*
X107858353Y-75560241D01*
X107794797Y-75531216D01*
X107788319Y-75525184D01*
X107713187Y-75450052D01*
X107563614Y-75357794D01*
X107396800Y-75302518D01*
X107396800Y-75302517D01*
X107293854Y-75292000D01*
X107254000Y-75292000D01*
X107254000Y-77707999D01*
X107293840Y-77707999D01*
X107293856Y-77707998D01*
X107396801Y-77697482D01*
X107396804Y-77697481D01*
X107563614Y-77642205D01*
X107713187Y-77549947D01*
X107788319Y-77474816D01*
X107849642Y-77441331D01*
X107919334Y-77446315D01*
X107975267Y-77488187D01*
X107999684Y-77553651D01*
X108000000Y-77562497D01*
X108000000Y-77876000D01*
X107980315Y-77943039D01*
X107927511Y-77988794D01*
X107876000Y-78000000D01*
X106100000Y-78000000D01*
X106100000Y-78068000D01*
X106080315Y-78135039D01*
X106027511Y-78180794D01*
X105976000Y-78192000D01*
X105954000Y-78192000D01*
X105954000Y-81208000D01*
X105976000Y-81208000D01*
X106043039Y-81227685D01*
X106088794Y-81280489D01*
X106100000Y-81332000D01*
X106100000Y-81476000D01*
X106080315Y-81543039D01*
X106027511Y-81588794D01*
X105976000Y-81600000D01*
X101824000Y-81600000D01*
X101756961Y-81580315D01*
X101711206Y-81527511D01*
X101700000Y-81476000D01*
X101700000Y-79954000D01*
X104442000Y-79954000D01*
X104442000Y-80748581D01*
X104448506Y-80809097D01*
X104499553Y-80945961D01*
X104587096Y-81062903D01*
X104704038Y-81150445D01*
X104704038Y-81150446D01*
X104840902Y-81201493D01*
X104901418Y-81207999D01*
X104901420Y-81208000D01*
X105446000Y-81208000D01*
X105446000Y-79954000D01*
X104442000Y-79954000D01*
X101700000Y-79954000D01*
X101700000Y-79446000D01*
X104442000Y-79446000D01*
X105446000Y-79446000D01*
X105446000Y-78192000D01*
X104901418Y-78192000D01*
X104840902Y-78198506D01*
X104704038Y-78249553D01*
X104704038Y-78249554D01*
X104587096Y-78337096D01*
X104499554Y-78454038D01*
X104499553Y-78454038D01*
X104448506Y-78590902D01*
X104442000Y-78651418D01*
X104442000Y-79446000D01*
X101700000Y-79446000D01*
X101700000Y-76754000D01*
X106004501Y-76754000D01*
X106004501Y-77006356D01*
X106015017Y-77109301D01*
X106015018Y-77109304D01*
X106070294Y-77276114D01*
X106162552Y-77425687D01*
X106286812Y-77549947D01*
X106436385Y-77642205D01*
X106603199Y-77697481D01*
X106603200Y-77697482D01*
X106706151Y-77707999D01*
X106746000Y-77707999D01*
X106746000Y-76754000D01*
X106004501Y-76754000D01*
X101700000Y-76754000D01*
X101700000Y-76246000D01*
X106004500Y-76246000D01*
X106746000Y-76246000D01*
X106746000Y-75292000D01*
X106706161Y-75292000D01*
X106706141Y-75292001D01*
X106603198Y-75302517D01*
X106603195Y-75302518D01*
X106436385Y-75357794D01*
X106286812Y-75450052D01*
X106162552Y-75574312D01*
X106070294Y-75723885D01*
X106015018Y-75890699D01*
X106015017Y-75890699D01*
X106004500Y-75993645D01*
X106004500Y-76246000D01*
X101700000Y-76246000D01*
X101700000Y-75946919D01*
X101719684Y-75879884D01*
X101749689Y-75847655D01*
X101780311Y-75824732D01*
X101845776Y-75800316D01*
X101854621Y-75800000D01*
X104300000Y-75800000D01*
X104300000Y-75124000D01*
X104319685Y-75056961D01*
X104372489Y-75011206D01*
X104424000Y-75000000D01*
X107876000Y-75000000D01*
X107943039Y-75019685D01*
G37*
G04 #@! TD.AperFunction*
G04 #@! TA.AperFunction,Conductor*
G36*
X101931428Y-97217313D02*
G01*
X101956439Y-97259562D01*
X101964034Y-97297741D01*
X101967053Y-97302259D01*
X101987529Y-97332904D01*
X102000000Y-97374015D01*
X102000000Y-98126000D01*
X101982687Y-98173566D01*
X101938850Y-98198876D01*
X101926000Y-98200000D01*
X98400000Y-98200000D01*
X98400000Y-98240863D01*
X98382687Y-98288429D01*
X98378326Y-98293189D01*
X98296830Y-98374684D01*
X98252357Y-98475405D01*
X98252356Y-98475409D01*
X98249500Y-98500032D01*
X98249500Y-101499967D01*
X98252356Y-101524590D01*
X98252357Y-101524594D01*
X98296830Y-101625315D01*
X98374685Y-101703170D01*
X98475406Y-101747643D01*
X98500032Y-101750500D01*
X100926000Y-101750500D01*
X100973566Y-101767813D01*
X100998876Y-101811650D01*
X101000000Y-101824500D01*
X101000000Y-102326000D01*
X100982687Y-102373566D01*
X100938850Y-102398876D01*
X100926000Y-102400000D01*
X100274000Y-102400000D01*
X100226434Y-102382687D01*
X100201124Y-102338850D01*
X100200000Y-102326000D01*
X100200000Y-102200000D01*
X97874000Y-102200000D01*
X97826434Y-102182687D01*
X97801124Y-102138850D01*
X97800000Y-102126000D01*
X97800000Y-97874000D01*
X97817313Y-97826434D01*
X97861150Y-97801124D01*
X97874000Y-97800000D01*
X100600000Y-97800000D01*
X100600000Y-97674000D01*
X100617313Y-97626434D01*
X100661150Y-97601124D01*
X100674000Y-97600000D01*
X101000000Y-97600000D01*
X101000000Y-97274000D01*
X101017313Y-97226434D01*
X101061150Y-97201124D01*
X101074000Y-97200000D01*
X101883862Y-97200000D01*
X101931428Y-97217313D01*
G37*
G04 #@! TD.AperFunction*
G04 #@! TA.AperFunction,Conductor*
G36*
X100853877Y-97220815D02*
G01*
X100844500Y-97273996D01*
X100844500Y-97370500D01*
X100827187Y-97418066D01*
X100783350Y-97443376D01*
X100770500Y-97444500D01*
X100670608Y-97444500D01*
X100663829Y-97444796D01*
X100647604Y-97446214D01*
X100647597Y-97446215D01*
X100644564Y-97447172D01*
X100638271Y-97448606D01*
X100510931Y-97485995D01*
X100401954Y-97556031D01*
X100401947Y-97556036D01*
X100347426Y-97618959D01*
X100303193Y-97643570D01*
X100291500Y-97644500D01*
X97870608Y-97644500D01*
X97863829Y-97644796D01*
X97847604Y-97646214D01*
X97847597Y-97646215D01*
X97783396Y-97666458D01*
X97783395Y-97666458D01*
X97751749Y-97684731D01*
X97739561Y-97691768D01*
X97739555Y-97691772D01*
X97739555Y-97691771D01*
X97717361Y-97707311D01*
X97717359Y-97707313D01*
X97671193Y-97773245D01*
X97671189Y-97773252D01*
X97653877Y-97820815D01*
X97644500Y-97873996D01*
X97644500Y-102129391D01*
X97644796Y-102136171D01*
X97646214Y-102152395D01*
X97646215Y-102152402D01*
X97666458Y-102216603D01*
X97666458Y-102216604D01*
X97683748Y-102246549D01*
X97691768Y-102260439D01*
X97691772Y-102260445D01*
X97691771Y-102260445D01*
X97707311Y-102282638D01*
X97707313Y-102282640D01*
X97773249Y-102328809D01*
X97820815Y-102346122D01*
X97874000Y-102355500D01*
X99992933Y-102355500D01*
X100040499Y-102372813D01*
X100063507Y-102407245D01*
X100066457Y-102416601D01*
X100066458Y-102416604D01*
X100075649Y-102432521D01*
X100091768Y-102460439D01*
X100091772Y-102460445D01*
X100091771Y-102460445D01*
X100107311Y-102482638D01*
X100107313Y-102482640D01*
X100173249Y-102528809D01*
X100220815Y-102546122D01*
X100274000Y-102555500D01*
X100274004Y-102555500D01*
X100929391Y-102555500D01*
X100929392Y-102555500D01*
X100936171Y-102555204D01*
X100952400Y-102553785D01*
X101016602Y-102533542D01*
X101060439Y-102508232D01*
X101060445Y-102508228D01*
X101060445Y-102508229D01*
X101077089Y-102496573D01*
X101082640Y-102492687D01*
X101128809Y-102426751D01*
X101146122Y-102379185D01*
X101155500Y-102326000D01*
X101155500Y-101824500D01*
X101172813Y-101776934D01*
X101216650Y-101751624D01*
X101229500Y-101750500D01*
X101499968Y-101750500D01*
X101524594Y-101747643D01*
X101625315Y-101703170D01*
X101703170Y-101625315D01*
X101747643Y-101524594D01*
X101750500Y-101499968D01*
X101750500Y-98500032D01*
X101747643Y-98475406D01*
X101740572Y-98459391D01*
X101737196Y-98408885D01*
X101767074Y-98368025D01*
X101808266Y-98355500D01*
X101929391Y-98355500D01*
X101929392Y-98355500D01*
X101936171Y-98355204D01*
X101952400Y-98353785D01*
X102016602Y-98333542D01*
X102060439Y-98308232D01*
X102060445Y-98308228D01*
X102060445Y-98308229D01*
X102077089Y-98296573D01*
X102082640Y-98292687D01*
X102128809Y-98226751D01*
X102146122Y-98179185D01*
X102155500Y-98126000D01*
X102155500Y-97374015D01*
X102148804Y-97328875D01*
X102136333Y-97287764D01*
X102116823Y-97246513D01*
X102116818Y-97246505D01*
X102115475Y-97244133D01*
X102115986Y-97243843D01*
X102110477Y-97231990D01*
X102110069Y-97232147D01*
X102108951Y-97229227D01*
X102108951Y-97229223D01*
X102097770Y-97200000D01*
X102800000Y-97200000D01*
X102800000Y-102800000D01*
X97200000Y-102800000D01*
X97200000Y-97200000D01*
X100000000Y-97200000D01*
X100800000Y-97200000D01*
X100861454Y-97200000D01*
X100853877Y-97220815D01*
G37*
G04 #@! TD.AperFunction*
G04 #@! TA.AperFunction,Conductor*
G36*
X96386363Y-70518907D02*
G01*
X96422327Y-70568407D01*
X96423241Y-70626620D01*
X96422118Y-70630485D01*
X96422117Y-70630487D01*
X96398168Y-70712921D01*
X96377336Y-70784623D01*
X96377334Y-70784630D01*
X96374500Y-70820651D01*
X96374500Y-72700500D01*
X96355593Y-72758691D01*
X96306093Y-72794655D01*
X96275500Y-72799500D01*
X96075326Y-72799500D01*
X96075325Y-72799500D01*
X96075315Y-72799501D01*
X96002263Y-72814033D01*
X96002257Y-72814035D01*
X95919400Y-72869397D01*
X95919397Y-72869400D01*
X95864035Y-72952257D01*
X95864033Y-72952263D01*
X95849501Y-73025315D01*
X95849500Y-73025325D01*
X95849500Y-73025326D01*
X95849500Y-73774674D01*
X95864034Y-73847740D01*
X95864035Y-73847741D01*
X95865615Y-73855684D01*
X95865615Y-73894314D01*
X95849500Y-73975325D01*
X95849500Y-75484672D01*
X95849501Y-75484684D01*
X95864033Y-75557736D01*
X95864035Y-75557742D01*
X95919397Y-75640599D01*
X95919400Y-75640602D01*
X95974909Y-75677691D01*
X96002260Y-75695966D01*
X96057808Y-75707015D01*
X96075315Y-75710498D01*
X96075320Y-75710498D01*
X96075326Y-75710500D01*
X96075327Y-75710500D01*
X98075895Y-75710500D01*
X98134086Y-75729407D01*
X98170050Y-75778907D01*
X98170050Y-75840093D01*
X98167359Y-75847385D01*
X98163670Y-75856290D01*
X98163669Y-75856291D01*
X98144750Y-75999999D01*
X98144750Y-76000000D01*
X98163669Y-76143708D01*
X98163670Y-76143709D01*
X98218167Y-76275280D01*
X98219139Y-76277625D01*
X98307379Y-76392621D01*
X98422375Y-76480861D01*
X98556291Y-76536330D01*
X98700000Y-76555250D01*
X98701000Y-76555250D01*
X98701681Y-76555471D01*
X98706433Y-76556097D01*
X98706317Y-76556977D01*
X98759191Y-76574157D01*
X98795155Y-76623657D01*
X98800000Y-76654250D01*
X98800000Y-85101000D01*
X98781093Y-85159191D01*
X98731593Y-85195155D01*
X98701000Y-85200000D01*
X97839999Y-85200000D01*
X97781808Y-85181093D01*
X97746554Y-85133697D01*
X97702344Y-85007352D01*
X97621792Y-84898209D01*
X97621790Y-84898207D01*
X97512647Y-84817654D01*
X97384601Y-84772850D01*
X97354211Y-84770000D01*
X96800001Y-84770000D01*
X96800000Y-84770001D01*
X96800000Y-85200000D01*
X96500000Y-85200000D01*
X96500000Y-84770001D01*
X96499999Y-84770000D01*
X95945796Y-84770000D01*
X95915399Y-84772850D01*
X95915397Y-84772850D01*
X95787352Y-84817654D01*
X95678209Y-84898207D01*
X95678207Y-84898209D01*
X95597655Y-85007352D01*
X95553446Y-85133697D01*
X95516380Y-85182378D01*
X95460001Y-85200000D01*
X90586879Y-85200000D01*
X90528688Y-85181093D01*
X90492724Y-85131593D01*
X90489098Y-85116487D01*
X90485647Y-85094699D01*
X90485646Y-85094697D01*
X90485646Y-85094696D01*
X90428050Y-84981658D01*
X90338342Y-84891950D01*
X90225304Y-84834354D01*
X90225305Y-84834354D01*
X90131522Y-84819500D01*
X90131519Y-84819500D01*
X89874500Y-84819500D01*
X89816309Y-84800593D01*
X89780345Y-84751093D01*
X89775500Y-84720500D01*
X89775500Y-83402371D01*
X89794407Y-83344180D01*
X89829553Y-83314163D01*
X89909355Y-83273502D01*
X89998502Y-83184355D01*
X90000948Y-83179553D01*
X90044213Y-83136290D01*
X90089157Y-83125500D01*
X90410843Y-83125500D01*
X90469034Y-83144407D01*
X90499051Y-83179553D01*
X90501498Y-83184355D01*
X90590645Y-83273502D01*
X90590647Y-83273503D01*
X90590649Y-83273504D01*
X90702971Y-83330736D01*
X90702973Y-83330736D01*
X90702978Y-83330739D01*
X90796177Y-83345500D01*
X91203822Y-83345499D01*
X91203824Y-83345499D01*
X91203825Y-83345498D01*
X91250421Y-83338119D01*
X91297017Y-83330740D01*
X91297019Y-83330739D01*
X91297022Y-83330739D01*
X91297022Y-83330738D01*
X91297025Y-83330738D01*
X91352192Y-83302627D01*
X91409355Y-83273502D01*
X91498502Y-83184355D01*
X91555739Y-83072022D01*
X91570500Y-82978823D01*
X91570499Y-82800000D01*
X94144750Y-82800000D01*
X94163669Y-82943708D01*
X94163670Y-82943709D01*
X94216820Y-83072028D01*
X94219139Y-83077625D01*
X94307379Y-83192621D01*
X94422375Y-83280861D01*
X94556291Y-83336330D01*
X94699999Y-83355250D01*
X94699999Y-83355249D01*
X94700000Y-83355250D01*
X94843709Y-83336330D01*
X94977625Y-83280861D01*
X95077314Y-83204366D01*
X95134988Y-83183943D01*
X95193654Y-83201320D01*
X95221653Y-83233246D01*
X95221920Y-83233053D01*
X95224029Y-83235956D01*
X95225788Y-83237962D01*
X95226498Y-83239355D01*
X95315645Y-83328502D01*
X95315647Y-83328503D01*
X95315649Y-83328504D01*
X95427971Y-83385736D01*
X95427973Y-83385736D01*
X95427978Y-83385739D01*
X95521177Y-83400500D01*
X95878822Y-83400499D01*
X95878824Y-83400499D01*
X95878825Y-83400498D01*
X95925422Y-83393119D01*
X95972017Y-83385740D01*
X95972019Y-83385739D01*
X95972022Y-83385739D01*
X95972022Y-83385738D01*
X95972025Y-83385738D01*
X96084348Y-83328506D01*
X96084349Y-83328504D01*
X96084355Y-83328502D01*
X96084358Y-83328498D01*
X96089329Y-83324887D01*
X96147519Y-83305977D01*
X96205711Y-83324881D01*
X96206312Y-83325322D01*
X96311031Y-83402609D01*
X96438368Y-83447165D01*
X96468587Y-83449999D01*
X96468589Y-83450000D01*
X96519999Y-83450000D01*
X96520000Y-83449999D01*
X96820000Y-83449999D01*
X96820001Y-83450000D01*
X96871411Y-83450000D01*
X96871412Y-83449999D01*
X96901631Y-83447165D01*
X97028968Y-83402609D01*
X97137499Y-83322509D01*
X97137509Y-83322499D01*
X97217609Y-83213968D01*
X97262165Y-83086631D01*
X97264999Y-83056412D01*
X97265000Y-83056411D01*
X97265000Y-82980001D01*
X97264999Y-82980000D01*
X96820001Y-82980000D01*
X96820000Y-82980001D01*
X96820000Y-83449999D01*
X96520000Y-83449999D01*
X96520000Y-82210000D01*
X96820000Y-82210000D01*
X96820000Y-82679999D01*
X96820001Y-82680000D01*
X97264999Y-82680000D01*
X97265000Y-82679999D01*
X97265000Y-82603589D01*
X97264999Y-82603587D01*
X97262165Y-82573368D01*
X97217609Y-82446031D01*
X97137509Y-82337500D01*
X97137499Y-82337490D01*
X97028968Y-82257390D01*
X96901631Y-82212834D01*
X96871412Y-82210000D01*
X96820000Y-82210000D01*
X96520000Y-82210000D01*
X96468587Y-82210000D01*
X96438368Y-82212834D01*
X96311031Y-82257390D01*
X96206312Y-82334677D01*
X96148264Y-82354019D01*
X96089934Y-82335548D01*
X96089334Y-82335115D01*
X96084353Y-82331496D01*
X95972028Y-82274263D01*
X95972023Y-82274261D01*
X95972022Y-82274261D01*
X95940453Y-82269261D01*
X95878826Y-82259500D01*
X95521175Y-82259500D01*
X95521172Y-82259501D01*
X95427982Y-82274259D01*
X95427974Y-82274261D01*
X95315649Y-82331495D01*
X95315643Y-82331499D01*
X95236195Y-82410947D01*
X95181678Y-82438724D01*
X95121246Y-82429152D01*
X95096188Y-82410947D01*
X95092624Y-82407383D01*
X95092621Y-82407379D01*
X94977625Y-82319139D01*
X94977621Y-82319137D01*
X94843709Y-82263670D01*
X94843708Y-82263669D01*
X94700000Y-82244750D01*
X94556291Y-82263669D01*
X94556290Y-82263670D01*
X94422378Y-82319137D01*
X94422374Y-82319139D01*
X94307381Y-82407377D01*
X94307377Y-82407381D01*
X94219139Y-82522374D01*
X94219137Y-82522378D01*
X94163670Y-82656290D01*
X94163669Y-82656291D01*
X94144750Y-82799999D01*
X94144750Y-82800000D01*
X91570499Y-82800000D01*
X91570499Y-82621178D01*
X91565362Y-82588742D01*
X91555740Y-82527982D01*
X91555738Y-82527974D01*
X91498504Y-82415649D01*
X91498503Y-82415647D01*
X91498502Y-82415645D01*
X91467858Y-82385001D01*
X91440083Y-82330487D01*
X91449654Y-82270055D01*
X91467857Y-82244999D01*
X91498502Y-82214355D01*
X91555739Y-82102022D01*
X91570500Y-82008823D01*
X91570499Y-81651178D01*
X91565561Y-81619999D01*
X91555740Y-81557982D01*
X91555738Y-81557974D01*
X91498504Y-81445649D01*
X91498503Y-81445647D01*
X91498502Y-81445645D01*
X91409355Y-81356498D01*
X91409352Y-81356496D01*
X91379554Y-81341313D01*
X91336290Y-81298048D01*
X91325500Y-81253104D01*
X91325500Y-77739500D01*
X91344407Y-77681309D01*
X91393907Y-77645345D01*
X91424500Y-77640500D01*
X91984673Y-77640500D01*
X91984674Y-77640500D01*
X92057740Y-77625966D01*
X92140601Y-77570601D01*
X92195966Y-77487740D01*
X92210500Y-77414674D01*
X92210500Y-75665326D01*
X92195966Y-75592260D01*
X92167395Y-75549500D01*
X92140602Y-75509400D01*
X92140599Y-75509397D01*
X92057742Y-75454035D01*
X92057740Y-75454034D01*
X92057737Y-75454033D01*
X92057736Y-75454033D01*
X91984684Y-75439501D01*
X91984674Y-75439500D01*
X90235326Y-75439500D01*
X90235325Y-75439500D01*
X90235315Y-75439501D01*
X90162263Y-75454033D01*
X90162257Y-75454035D01*
X90079400Y-75509397D01*
X90079397Y-75509400D01*
X90024035Y-75592257D01*
X90024033Y-75592263D01*
X90009501Y-75665315D01*
X90009500Y-75665327D01*
X90009500Y-77414672D01*
X90009501Y-77414684D01*
X90024033Y-77487736D01*
X90024035Y-77487742D01*
X90079397Y-77570599D01*
X90079399Y-77570601D01*
X90162260Y-77625966D01*
X90217808Y-77637015D01*
X90235315Y-77640498D01*
X90235320Y-77640498D01*
X90235326Y-77640500D01*
X90575500Y-77640500D01*
X90633691Y-77659407D01*
X90669655Y-77708907D01*
X90674500Y-77739500D01*
X90674500Y-81253104D01*
X90655593Y-81311295D01*
X90620446Y-81341313D01*
X90590647Y-81356496D01*
X90501496Y-81445647D01*
X90501495Y-81445649D01*
X90444263Y-81557971D01*
X90444261Y-81557978D01*
X90429500Y-81651173D01*
X90429500Y-82008824D01*
X90429501Y-82008827D01*
X90444259Y-82102017D01*
X90444261Y-82102025D01*
X90499279Y-82210000D01*
X90501498Y-82214355D01*
X90531893Y-82244750D01*
X90532140Y-82244997D01*
X90559916Y-82299514D01*
X90550344Y-82359946D01*
X90532140Y-82385003D01*
X90501497Y-82415646D01*
X90499052Y-82420446D01*
X90455787Y-82463710D01*
X90410843Y-82474500D01*
X90089157Y-82474500D01*
X90030966Y-82455593D01*
X90000948Y-82420446D01*
X89998503Y-82415647D01*
X89998502Y-82415645D01*
X89998501Y-82415644D01*
X89994885Y-82410667D01*
X89975977Y-82352477D01*
X89994884Y-82294286D01*
X89995322Y-82293688D01*
X90072609Y-82188968D01*
X90117165Y-82061631D01*
X90119999Y-82031412D01*
X90120000Y-82031411D01*
X90120000Y-81980001D01*
X90119999Y-81980000D01*
X88880001Y-81980000D01*
X88880000Y-81980001D01*
X88880000Y-82031412D01*
X88882834Y-82061631D01*
X88927390Y-82188968D01*
X89004677Y-82293687D01*
X89024019Y-82351734D01*
X89005548Y-82410065D01*
X89005120Y-82410658D01*
X89001500Y-82415640D01*
X88944262Y-82527974D01*
X88944261Y-82527978D01*
X88929500Y-82621173D01*
X88929500Y-82978824D01*
X88929501Y-82978827D01*
X88944259Y-83072017D01*
X88944261Y-83072025D01*
X89001288Y-83183943D01*
X89001498Y-83184355D01*
X89090645Y-83273502D01*
X89090647Y-83273503D01*
X89095504Y-83278360D01*
X89123281Y-83332877D01*
X89124500Y-83348364D01*
X89124500Y-84720500D01*
X89105593Y-84778691D01*
X89056093Y-84814655D01*
X89025500Y-84819500D01*
X88768479Y-84819500D01*
X88768476Y-84819501D01*
X88674700Y-84834352D01*
X88674695Y-84834354D01*
X88561659Y-84891949D01*
X88471949Y-84981659D01*
X88414354Y-85094694D01*
X88402653Y-85168567D01*
X88374874Y-85223083D01*
X88372022Y-85225823D01*
X87100000Y-86399998D01*
X87100000Y-90400000D01*
X88599998Y-91799999D01*
X88600000Y-91800000D01*
X92058992Y-91800000D01*
X92117183Y-91818907D01*
X92128996Y-91828996D01*
X97020504Y-96720504D01*
X97048281Y-96775021D01*
X97049500Y-96790507D01*
X97049501Y-96900999D01*
X97030594Y-96959190D01*
X96981095Y-96995154D01*
X96950501Y-97000000D01*
X96662501Y-97000000D01*
X96662500Y-97000001D01*
X96662500Y-97318773D01*
X96670774Y-97335013D01*
X96661203Y-97395445D01*
X96617938Y-97438710D01*
X96572993Y-97449500D01*
X96552006Y-97449500D01*
X96493815Y-97430593D01*
X96457851Y-97381093D01*
X96457851Y-97319907D01*
X96462500Y-97312321D01*
X96462500Y-97000000D01*
X96141786Y-97000000D01*
X96141783Y-97000001D01*
X96073749Y-97009912D01*
X95968811Y-97061214D01*
X95886213Y-97143812D01*
X95834912Y-97248751D01*
X95827445Y-97300000D01*
X95836733Y-97310739D01*
X95860498Y-97367120D01*
X95846584Y-97426703D01*
X95800305Y-97466727D01*
X95761853Y-97474500D01*
X94655458Y-97474500D01*
X94597267Y-97455593D01*
X94561303Y-97406093D01*
X94561303Y-97344907D01*
X94562014Y-97342802D01*
X94592165Y-97256633D01*
X94594999Y-97226412D01*
X94595000Y-97226411D01*
X94595000Y-97150000D01*
X93949000Y-97150000D01*
X93890809Y-97131093D01*
X93854845Y-97081593D01*
X93850000Y-97051000D01*
X93850000Y-96849999D01*
X94150000Y-96849999D01*
X94150001Y-96850000D01*
X94594999Y-96850000D01*
X94595000Y-96849999D01*
X94595000Y-96773589D01*
X94594999Y-96773587D01*
X94592165Y-96743368D01*
X94547609Y-96616031D01*
X94467509Y-96507500D01*
X94467499Y-96507490D01*
X94358968Y-96427390D01*
X94231631Y-96382834D01*
X94201412Y-96380000D01*
X94150001Y-96380000D01*
X94150000Y-96380001D01*
X94150000Y-96849999D01*
X93850000Y-96849999D01*
X93850000Y-96380001D01*
X93849999Y-96380000D01*
X93798587Y-96380000D01*
X93768368Y-96382834D01*
X93641031Y-96427390D01*
X93536312Y-96504677D01*
X93478264Y-96524019D01*
X93419934Y-96505548D01*
X93419334Y-96505115D01*
X93414353Y-96501496D01*
X93302028Y-96444263D01*
X93302023Y-96444261D01*
X93302022Y-96444261D01*
X93278722Y-96440570D01*
X93208826Y-96429500D01*
X92851175Y-96429500D01*
X92851172Y-96429501D01*
X92757982Y-96444259D01*
X92757974Y-96444261D01*
X92645649Y-96501495D01*
X92645647Y-96501496D01*
X92556496Y-96590647D01*
X92551920Y-96596947D01*
X92550525Y-96595933D01*
X92513932Y-96632514D01*
X92453498Y-96642074D01*
X92398987Y-96614287D01*
X92395122Y-96609880D01*
X92392625Y-96607382D01*
X92277625Y-96519139D01*
X92277621Y-96519137D01*
X92143709Y-96463670D01*
X92143708Y-96463669D01*
X92000000Y-96444750D01*
X91856291Y-96463669D01*
X91856290Y-96463670D01*
X91722378Y-96519137D01*
X91722370Y-96519142D01*
X91611188Y-96604455D01*
X91553512Y-96624879D01*
X91494847Y-96607501D01*
X91480917Y-96595917D01*
X86693996Y-91808996D01*
X86666219Y-91754479D01*
X86665000Y-91738992D01*
X86665000Y-83525001D01*
X86665000Y-83525000D01*
X84819999Y-81679999D01*
X88880000Y-81679999D01*
X88880001Y-81680000D01*
X89349999Y-81680000D01*
X89350000Y-81679999D01*
X89650000Y-81679999D01*
X89650001Y-81680000D01*
X90119999Y-81680000D01*
X90120000Y-81679999D01*
X90120000Y-81628589D01*
X90119999Y-81628587D01*
X90117165Y-81598368D01*
X90072609Y-81471031D01*
X89992509Y-81362500D01*
X89992499Y-81362490D01*
X89883968Y-81282390D01*
X89756631Y-81237834D01*
X89726412Y-81235000D01*
X89650001Y-81235000D01*
X89650000Y-81235001D01*
X89650000Y-81679999D01*
X89350000Y-81679999D01*
X89350000Y-81235001D01*
X89349999Y-81235000D01*
X89273587Y-81235000D01*
X89243368Y-81237834D01*
X89116031Y-81282390D01*
X89007500Y-81362490D01*
X89007490Y-81362500D01*
X88927390Y-81471031D01*
X88882834Y-81598368D01*
X88880000Y-81628587D01*
X88880000Y-81679999D01*
X84819999Y-81679999D01*
X81290000Y-78150000D01*
X83390000Y-78150000D01*
X83390000Y-78498820D01*
X83400494Y-78586203D01*
X83455327Y-78725250D01*
X83455330Y-78725254D01*
X83545643Y-78844350D01*
X83545649Y-78844356D01*
X83664745Y-78934669D01*
X83664749Y-78934672D01*
X83803796Y-78989505D01*
X83891179Y-78999999D01*
X83891184Y-79000000D01*
X84027499Y-79000000D01*
X84027500Y-78999999D01*
X84327500Y-78999999D01*
X84327501Y-79000000D01*
X84463816Y-79000000D01*
X84463820Y-78999999D01*
X84551203Y-78989505D01*
X84690250Y-78934672D01*
X84690254Y-78934669D01*
X84809350Y-78844356D01*
X84809356Y-78844350D01*
X84899669Y-78725254D01*
X84899672Y-78725250D01*
X84954505Y-78586203D01*
X84964435Y-78503514D01*
X85314500Y-78503514D01*
X85314501Y-78503520D01*
X85320828Y-78562387D01*
X85320828Y-78562389D01*
X85320829Y-78562391D01*
X85370497Y-78695554D01*
X85455669Y-78809331D01*
X85569446Y-78894503D01*
X85688542Y-78938924D01*
X85736455Y-78976974D01*
X85752852Y-79035921D01*
X85732486Y-79091947D01*
X85709141Y-79122370D01*
X85709137Y-79122378D01*
X85653670Y-79256290D01*
X85653669Y-79256291D01*
X85634750Y-79399999D01*
X85634750Y-79400000D01*
X85653669Y-79543708D01*
X85653670Y-79543709D01*
X85702589Y-79661813D01*
X85709139Y-79677625D01*
X85797379Y-79792621D01*
X85912375Y-79880861D01*
X86046291Y-79936330D01*
X86190000Y-79955250D01*
X86333709Y-79936330D01*
X86467625Y-79880861D01*
X86582621Y-79792621D01*
X86670861Y-79677625D01*
X86726330Y-79543709D01*
X86745250Y-79400000D01*
X86726330Y-79256291D01*
X86670861Y-79122375D01*
X86582621Y-79007379D01*
X86582616Y-79007375D01*
X86578706Y-79003465D01*
X86550929Y-78948948D01*
X86560500Y-78888516D01*
X86589379Y-78854209D01*
X86649331Y-78809331D01*
X86734503Y-78695554D01*
X86784171Y-78562391D01*
X86790500Y-78503521D01*
X86790499Y-77496480D01*
X86784171Y-77437609D01*
X86734503Y-77304446D01*
X86649331Y-77190669D01*
X86557362Y-77121822D01*
X86535556Y-77105498D01*
X86535554Y-77105497D01*
X86402391Y-77055829D01*
X86402390Y-77055828D01*
X86362660Y-77051557D01*
X86343521Y-77049500D01*
X86343517Y-77049500D01*
X85761485Y-77049500D01*
X85761479Y-77049501D01*
X85702612Y-77055828D01*
X85702609Y-77055828D01*
X85702609Y-77055829D01*
X85665356Y-77069724D01*
X85569443Y-77105498D01*
X85455671Y-77190667D01*
X85455667Y-77190671D01*
X85370498Y-77304443D01*
X85320828Y-77437610D01*
X85314500Y-77496482D01*
X85314500Y-78503514D01*
X84964435Y-78503514D01*
X84964999Y-78498820D01*
X84965000Y-78498816D01*
X84965000Y-78150000D01*
X84327501Y-78150000D01*
X84327500Y-78150001D01*
X84327500Y-78999999D01*
X84027500Y-78999999D01*
X84027500Y-78150001D01*
X84027499Y-78150000D01*
X83390000Y-78150000D01*
X81290000Y-78150000D01*
X80989999Y-77849999D01*
X83390000Y-77849999D01*
X83390001Y-77850000D01*
X84027499Y-77850000D01*
X84027500Y-77849999D01*
X84027500Y-77849998D01*
X84327500Y-77849998D01*
X84327501Y-77850000D01*
X84964999Y-77850000D01*
X84965000Y-77849999D01*
X84965000Y-77501183D01*
X84964999Y-77501179D01*
X84954505Y-77413796D01*
X84899672Y-77274749D01*
X84899669Y-77274745D01*
X84809356Y-77155649D01*
X84809350Y-77155643D01*
X84690254Y-77065330D01*
X84690250Y-77065327D01*
X84551203Y-77010494D01*
X84463820Y-77000000D01*
X84327501Y-77000000D01*
X84327500Y-77000001D01*
X84327500Y-77849998D01*
X84027500Y-77849998D01*
X84027500Y-77000001D01*
X84027499Y-77000000D01*
X83891179Y-77000000D01*
X83803796Y-77010494D01*
X83664749Y-77065327D01*
X83664745Y-77065330D01*
X83545649Y-77155643D01*
X83545643Y-77155649D01*
X83455330Y-77274745D01*
X83455327Y-77274749D01*
X83400494Y-77413796D01*
X83390000Y-77501179D01*
X83390000Y-77849999D01*
X80989999Y-77849999D01*
X79680000Y-76540000D01*
X79679999Y-76540000D01*
X79605466Y-76540000D01*
X79547275Y-76521093D01*
X79511311Y-76471593D01*
X79506888Y-76450135D01*
X79502847Y-76406525D01*
X79496397Y-76336917D01*
X79440582Y-76140750D01*
X79349673Y-75958179D01*
X79226764Y-75795421D01*
X79076041Y-75658019D01*
X78902637Y-75550652D01*
X78712456Y-75476976D01*
X78712455Y-75476975D01*
X78712453Y-75476975D01*
X78511976Y-75439500D01*
X78308024Y-75439500D01*
X78107546Y-75476975D01*
X78087678Y-75484672D01*
X77917363Y-75550652D01*
X77756103Y-75650500D01*
X77743959Y-75658019D01*
X77626474Y-75765121D01*
X77593236Y-75795421D01*
X77565160Y-75832600D01*
X77470328Y-75958177D01*
X77470323Y-75958186D01*
X77379419Y-76140747D01*
X77379418Y-76140750D01*
X77378576Y-76143709D01*
X77323603Y-76336917D01*
X77304785Y-76540000D01*
X77323603Y-76743082D01*
X77379419Y-76939252D01*
X77442196Y-77065327D01*
X77470327Y-77121821D01*
X77593236Y-77284579D01*
X77743959Y-77421981D01*
X77917363Y-77529348D01*
X78107544Y-77603024D01*
X78308024Y-77640500D01*
X78311000Y-77640500D01*
X78312188Y-77640886D01*
X78312586Y-77640923D01*
X78312577Y-77641012D01*
X78369191Y-77659407D01*
X78405155Y-77708907D01*
X78410000Y-77739500D01*
X78410000Y-77880500D01*
X78391093Y-77938691D01*
X78341593Y-77974655D01*
X78311000Y-77979500D01*
X78308024Y-77979500D01*
X78107546Y-78016975D01*
X78064609Y-78033609D01*
X77917363Y-78090652D01*
X77831673Y-78143709D01*
X77743959Y-78198019D01*
X77601231Y-78328133D01*
X77593236Y-78335421D01*
X77553388Y-78388188D01*
X77470328Y-78498177D01*
X77470323Y-78498186D01*
X77382118Y-78675327D01*
X77379418Y-78680750D01*
X77323603Y-78876917D01*
X77304785Y-79080000D01*
X77323603Y-79283083D01*
X77379418Y-79479250D01*
X77470327Y-79661821D01*
X77593236Y-79824579D01*
X77743959Y-79961981D01*
X77917363Y-80069348D01*
X78107544Y-80143024D01*
X78308024Y-80180500D01*
X78311000Y-80180500D01*
X78312188Y-80180886D01*
X78312586Y-80180923D01*
X78312577Y-80181012D01*
X78369191Y-80199407D01*
X78405155Y-80248907D01*
X78410000Y-80279500D01*
X78410000Y-80420500D01*
X78391093Y-80478691D01*
X78341593Y-80514655D01*
X78311000Y-80519500D01*
X78308024Y-80519500D01*
X78107546Y-80556975D01*
X78037632Y-80584059D01*
X77917363Y-80630652D01*
X77743959Y-80738019D01*
X77593236Y-80875421D01*
X77556632Y-80923893D01*
X77470328Y-81038177D01*
X77470323Y-81038186D01*
X77379419Y-81220747D01*
X77379418Y-81220750D01*
X77340794Y-81356498D01*
X77323603Y-81416917D01*
X77313096Y-81530313D01*
X77304785Y-81620000D01*
X77323603Y-81823083D01*
X77379418Y-82019250D01*
X77470327Y-82201821D01*
X77593236Y-82364579D01*
X77743959Y-82501981D01*
X77917363Y-82609348D01*
X78107544Y-82683024D01*
X78308024Y-82720500D01*
X78311000Y-82720500D01*
X78312188Y-82720886D01*
X78312586Y-82720923D01*
X78312577Y-82721012D01*
X78369191Y-82739407D01*
X78405155Y-82788907D01*
X78410000Y-82819500D01*
X78410000Y-82960500D01*
X78391093Y-83018691D01*
X78341593Y-83054655D01*
X78311000Y-83059500D01*
X78308024Y-83059500D01*
X78107546Y-83096975D01*
X78096168Y-83101383D01*
X77917363Y-83170652D01*
X77808652Y-83237963D01*
X77743959Y-83278019D01*
X77593237Y-83415420D01*
X77470328Y-83578177D01*
X77470323Y-83578186D01*
X77379419Y-83760747D01*
X77379418Y-83760750D01*
X77323603Y-83956917D01*
X77304785Y-84160000D01*
X77323603Y-84363083D01*
X77379418Y-84559250D01*
X77470327Y-84741821D01*
X77593236Y-84904579D01*
X77743959Y-85041981D01*
X77917363Y-85149348D01*
X78107544Y-85223024D01*
X78308024Y-85260500D01*
X78311000Y-85260500D01*
X78312188Y-85260886D01*
X78312586Y-85260923D01*
X78312577Y-85261012D01*
X78369191Y-85279407D01*
X78405155Y-85328907D01*
X78410000Y-85359500D01*
X78410000Y-85500500D01*
X78391093Y-85558691D01*
X78341593Y-85594655D01*
X78311000Y-85599500D01*
X78308024Y-85599500D01*
X78107546Y-85636975D01*
X78037632Y-85664059D01*
X77917363Y-85710652D01*
X77840341Y-85758342D01*
X77743959Y-85818019D01*
X77593237Y-85955420D01*
X77470328Y-86118177D01*
X77470323Y-86118186D01*
X77379419Y-86300747D01*
X77379418Y-86300750D01*
X77323603Y-86496917D01*
X77304785Y-86700000D01*
X77323603Y-86903083D01*
X77379418Y-87099250D01*
X77470327Y-87281821D01*
X77593236Y-87444579D01*
X77743959Y-87581981D01*
X77917363Y-87689348D01*
X78107544Y-87763024D01*
X78308024Y-87800500D01*
X78311000Y-87800500D01*
X78312188Y-87800886D01*
X78312586Y-87800923D01*
X78312577Y-87801012D01*
X78369191Y-87819407D01*
X78405155Y-87868907D01*
X78410000Y-87899500D01*
X78410000Y-88040500D01*
X78391093Y-88098691D01*
X78341593Y-88134655D01*
X78311000Y-88139500D01*
X78308024Y-88139500D01*
X78107546Y-88176975D01*
X78072203Y-88190667D01*
X77917363Y-88250652D01*
X77830483Y-88304446D01*
X77743959Y-88358019D01*
X77629778Y-88462109D01*
X77593236Y-88495421D01*
X77592435Y-88496482D01*
X77470328Y-88658177D01*
X77470323Y-88658186D01*
X77379419Y-88840747D01*
X77379418Y-88840750D01*
X77376786Y-88850000D01*
X77323603Y-89036917D01*
X77313125Y-89150000D01*
X77304785Y-89240000D01*
X77323603Y-89443083D01*
X77379418Y-89639250D01*
X77470327Y-89821821D01*
X77593236Y-89984579D01*
X77743959Y-90121981D01*
X77917363Y-90229348D01*
X78107544Y-90303024D01*
X78308024Y-90340500D01*
X78311000Y-90340500D01*
X78312188Y-90340886D01*
X78312586Y-90340923D01*
X78312577Y-90341012D01*
X78369191Y-90359407D01*
X78405155Y-90408907D01*
X78410000Y-90439500D01*
X78410000Y-90580500D01*
X78391093Y-90638691D01*
X78341593Y-90674655D01*
X78311000Y-90679500D01*
X78308024Y-90679500D01*
X78107546Y-90716975D01*
X78088256Y-90724448D01*
X77917363Y-90790652D01*
X77743958Y-90898018D01*
X77743959Y-90898019D01*
X77593237Y-91035420D01*
X77470328Y-91198177D01*
X77470323Y-91198186D01*
X77397858Y-91343717D01*
X77379418Y-91380750D01*
X77323603Y-91576917D01*
X77304785Y-91780000D01*
X77323603Y-91983083D01*
X77379418Y-92179250D01*
X77470327Y-92361821D01*
X77593236Y-92524579D01*
X77743959Y-92661981D01*
X77917363Y-92769348D01*
X78107544Y-92843024D01*
X78308024Y-92880500D01*
X78311000Y-92880500D01*
X78312188Y-92880886D01*
X78312586Y-92880923D01*
X78312577Y-92881012D01*
X78369191Y-92899407D01*
X78405155Y-92948907D01*
X78410000Y-92979500D01*
X78410000Y-93120500D01*
X78391093Y-93178691D01*
X78341593Y-93214655D01*
X78311000Y-93219500D01*
X78308024Y-93219500D01*
X78107546Y-93256975D01*
X78037632Y-93284059D01*
X77917363Y-93330652D01*
X77759131Y-93428625D01*
X77743959Y-93438019D01*
X77641183Y-93531712D01*
X77593236Y-93575421D01*
X77562860Y-93615645D01*
X77470328Y-93738177D01*
X77470323Y-93738186D01*
X77379419Y-93920747D01*
X77379418Y-93920750D01*
X77323603Y-94116917D01*
X77304785Y-94320000D01*
X77323603Y-94523083D01*
X77379418Y-94719250D01*
X77470327Y-94901821D01*
X77593236Y-95064579D01*
X77743959Y-95201981D01*
X77917363Y-95309348D01*
X78107544Y-95383024D01*
X78308024Y-95420500D01*
X78311000Y-95420500D01*
X78312188Y-95420886D01*
X78312586Y-95420923D01*
X78312577Y-95421012D01*
X78369191Y-95439407D01*
X78405155Y-95488907D01*
X78410000Y-95519500D01*
X78410000Y-95660500D01*
X78391093Y-95718691D01*
X78341593Y-95754655D01*
X78311000Y-95759500D01*
X78308024Y-95759500D01*
X78107546Y-95796975D01*
X78064552Y-95813631D01*
X77917363Y-95870652D01*
X77743959Y-95978019D01*
X77593236Y-96115421D01*
X77553388Y-96168188D01*
X77470328Y-96278177D01*
X77470323Y-96278186D01*
X77387385Y-96444750D01*
X77379418Y-96460750D01*
X77323603Y-96656917D01*
X77304785Y-96860000D01*
X77323603Y-97063083D01*
X77379418Y-97259250D01*
X77470327Y-97441821D01*
X77593236Y-97604579D01*
X77743959Y-97741981D01*
X77917363Y-97849348D01*
X78107544Y-97923024D01*
X78308024Y-97960500D01*
X78311000Y-97960500D01*
X78312188Y-97960886D01*
X78312586Y-97960923D01*
X78312577Y-97961012D01*
X78369191Y-97979407D01*
X78405155Y-98028907D01*
X78410000Y-98059500D01*
X78410000Y-98200500D01*
X78391093Y-98258691D01*
X78341593Y-98294655D01*
X78311000Y-98299500D01*
X78308024Y-98299500D01*
X78107546Y-98336975D01*
X78048081Y-98360012D01*
X77917363Y-98410652D01*
X77764766Y-98505136D01*
X77743959Y-98518019D01*
X77593237Y-98655420D01*
X77470328Y-98818177D01*
X77470323Y-98818186D01*
X77379419Y-99000747D01*
X77379418Y-99000750D01*
X77323603Y-99196917D01*
X77304785Y-99400000D01*
X77323603Y-99603083D01*
X77352638Y-99705130D01*
X77379419Y-99799252D01*
X77439539Y-99919991D01*
X77470327Y-99981821D01*
X77593236Y-100144579D01*
X77743959Y-100281981D01*
X77917363Y-100389348D01*
X78107544Y-100463024D01*
X78308024Y-100500500D01*
X78311000Y-100500500D01*
X78312188Y-100500886D01*
X78312586Y-100500923D01*
X78312577Y-100501012D01*
X78369191Y-100519407D01*
X78405155Y-100568907D01*
X78410000Y-100599500D01*
X78410000Y-100740500D01*
X78391093Y-100798691D01*
X78341593Y-100834655D01*
X78311000Y-100839500D01*
X78308024Y-100839500D01*
X78107546Y-100876975D01*
X78049263Y-100899554D01*
X77917363Y-100950652D01*
X77753010Y-101052415D01*
X77743959Y-101058019D01*
X77593237Y-101195420D01*
X77470328Y-101358177D01*
X77470323Y-101358186D01*
X77379419Y-101540747D01*
X77379418Y-101540750D01*
X77323603Y-101736917D01*
X77304785Y-101940000D01*
X77323603Y-102143083D01*
X77379418Y-102339250D01*
X77470327Y-102521821D01*
X77593236Y-102684579D01*
X77743959Y-102821981D01*
X77917363Y-102929348D01*
X78107544Y-103003024D01*
X78308024Y-103040500D01*
X78311000Y-103040500D01*
X78312188Y-103040886D01*
X78312586Y-103040923D01*
X78312577Y-103041012D01*
X78369191Y-103059407D01*
X78405155Y-103108907D01*
X78410000Y-103139500D01*
X78410000Y-103280500D01*
X78391093Y-103338691D01*
X78341593Y-103374655D01*
X78311000Y-103379500D01*
X78308024Y-103379500D01*
X78107546Y-103416975D01*
X78073641Y-103430110D01*
X77917363Y-103490652D01*
X77743958Y-103598018D01*
X77743959Y-103598019D01*
X77593237Y-103735420D01*
X77470328Y-103898177D01*
X77470323Y-103898186D01*
X77379419Y-104080747D01*
X77379418Y-104080750D01*
X77323603Y-104276917D01*
X77304785Y-104480000D01*
X77323603Y-104683083D01*
X77379418Y-104879250D01*
X77470327Y-105061821D01*
X77593236Y-105224579D01*
X77743959Y-105361981D01*
X77917363Y-105469348D01*
X78107544Y-105543024D01*
X78308024Y-105580500D01*
X78311000Y-105580500D01*
X78312188Y-105580886D01*
X78312586Y-105580923D01*
X78312577Y-105581012D01*
X78369191Y-105599407D01*
X78405155Y-105648907D01*
X78410000Y-105679500D01*
X78410000Y-105820500D01*
X78391093Y-105878691D01*
X78341593Y-105914655D01*
X78311000Y-105919500D01*
X78308024Y-105919500D01*
X78107546Y-105956975D01*
X78048953Y-105979674D01*
X77917363Y-106030652D01*
X77797287Y-106105000D01*
X77743959Y-106138019D01*
X77593237Y-106275420D01*
X77470328Y-106438177D01*
X77470323Y-106438186D01*
X77379986Y-106619609D01*
X77379418Y-106620750D01*
X77323603Y-106816917D01*
X77304785Y-107020000D01*
X77323603Y-107223083D01*
X77379418Y-107419250D01*
X77470327Y-107601821D01*
X77593236Y-107764579D01*
X77743959Y-107901981D01*
X77917363Y-108009348D01*
X78107544Y-108083024D01*
X78308024Y-108120500D01*
X78311000Y-108120500D01*
X78312188Y-108120886D01*
X78312586Y-108120923D01*
X78312577Y-108121012D01*
X78369191Y-108139407D01*
X78405155Y-108188907D01*
X78410000Y-108219500D01*
X78410000Y-108360500D01*
X78391093Y-108418691D01*
X78341593Y-108454655D01*
X78311000Y-108459500D01*
X78308024Y-108459500D01*
X78107546Y-108496975D01*
X78037632Y-108524059D01*
X77917363Y-108570652D01*
X77838702Y-108619357D01*
X77743959Y-108678019D01*
X77593237Y-108815420D01*
X77470328Y-108978177D01*
X77470323Y-108978186D01*
X77459265Y-109000394D01*
X77379418Y-109160750D01*
X77323603Y-109356917D01*
X77304785Y-109560000D01*
X77323603Y-109763083D01*
X77379418Y-109959250D01*
X77470327Y-110141821D01*
X77593236Y-110304579D01*
X77743959Y-110441981D01*
X77917363Y-110549348D01*
X78107544Y-110623024D01*
X78308024Y-110660500D01*
X78311000Y-110660500D01*
X78312188Y-110660886D01*
X78312586Y-110660923D01*
X78312577Y-110661012D01*
X78369191Y-110679407D01*
X78405155Y-110728907D01*
X78410000Y-110759500D01*
X78410000Y-110900500D01*
X78391093Y-110958691D01*
X78341593Y-110994655D01*
X78311000Y-110999500D01*
X78308024Y-110999500D01*
X78107546Y-111036975D01*
X78037632Y-111064059D01*
X77917363Y-111110652D01*
X77743959Y-111218019D01*
X77593236Y-111355421D01*
X77557997Y-111402085D01*
X77470328Y-111518177D01*
X77470323Y-111518186D01*
X77436263Y-111586589D01*
X77379418Y-111700750D01*
X77323603Y-111896917D01*
X77304785Y-112100000D01*
X77323603Y-112303083D01*
X77379418Y-112499250D01*
X77470327Y-112681821D01*
X77593236Y-112844579D01*
X77743959Y-112981981D01*
X77917363Y-113089348D01*
X78107544Y-113163024D01*
X78308024Y-113200500D01*
X78311000Y-113200500D01*
X78312188Y-113200886D01*
X78312586Y-113200923D01*
X78312577Y-113201012D01*
X78369191Y-113219407D01*
X78405155Y-113268907D01*
X78410000Y-113299500D01*
X78410000Y-113440500D01*
X78391093Y-113498691D01*
X78341593Y-113534655D01*
X78311000Y-113539500D01*
X78308024Y-113539500D01*
X78107546Y-113576975D01*
X78078339Y-113588290D01*
X77917363Y-113650652D01*
X77783132Y-113733764D01*
X77743959Y-113758019D01*
X77593237Y-113895420D01*
X77470328Y-114058177D01*
X77470323Y-114058186D01*
X77436263Y-114126589D01*
X77379418Y-114240750D01*
X77323603Y-114436917D01*
X77304785Y-114640000D01*
X77323603Y-114843083D01*
X77379418Y-115039250D01*
X77470327Y-115221821D01*
X77593236Y-115384579D01*
X77743959Y-115521981D01*
X77917363Y-115629348D01*
X78107544Y-115703024D01*
X78308024Y-115740500D01*
X78511976Y-115740500D01*
X78712456Y-115703024D01*
X78902637Y-115629348D01*
X79076041Y-115521981D01*
X79226764Y-115384579D01*
X79349673Y-115221821D01*
X79440582Y-115039250D01*
X79496397Y-114843083D01*
X79506887Y-114729865D01*
X79531084Y-114673667D01*
X79583692Y-114642424D01*
X79605466Y-114640000D01*
X79679999Y-114640000D01*
X79680000Y-114640000D01*
X87269992Y-107050007D01*
X87324507Y-107022232D01*
X87342424Y-107021043D01*
X89237937Y-107067654D01*
X89295642Y-107087985D01*
X89330378Y-107138354D01*
X89334500Y-107166623D01*
X89334500Y-115873996D01*
X89340339Y-115928310D01*
X89340339Y-115928311D01*
X89351723Y-115980644D01*
X89351725Y-115980651D01*
X89358961Y-116007028D01*
X89408292Y-116093659D01*
X89435500Y-116125059D01*
X89454783Y-116147314D01*
X89485259Y-116176719D01*
X89487561Y-116178941D01*
X89575897Y-116225149D01*
X89575899Y-116225149D01*
X89575902Y-116225151D01*
X89606526Y-116234142D01*
X89644018Y-116245151D01*
X89656462Y-116246940D01*
X89715995Y-116255500D01*
X89716000Y-116255500D01*
X105863996Y-116255500D01*
X105864000Y-116255500D01*
X105918309Y-116249661D01*
X105946678Y-116243489D01*
X105970644Y-116238277D01*
X105970643Y-116238277D01*
X105970647Y-116238275D01*
X105970651Y-116238275D01*
X105997028Y-116231039D01*
X106083659Y-116181708D01*
X106137315Y-116135215D01*
X106168941Y-116102439D01*
X106215149Y-116014103D01*
X106217227Y-116007028D01*
X106224973Y-115980644D01*
X106235151Y-115945982D01*
X106240324Y-115910000D01*
X106534457Y-115910000D01*
X106554608Y-116217457D01*
X106614721Y-116519665D01*
X106713764Y-116811433D01*
X106850039Y-117087770D01*
X107021215Y-117343953D01*
X107021222Y-117343964D01*
X107224380Y-117575620D01*
X107456036Y-117778778D01*
X107712229Y-117949960D01*
X107988566Y-118086235D01*
X107988568Y-118086235D01*
X107988573Y-118086238D01*
X108170576Y-118148019D01*
X108280334Y-118185278D01*
X108280336Y-118185278D01*
X108280341Y-118185280D01*
X108582540Y-118245391D01*
X108813059Y-118260500D01*
X108966941Y-118260500D01*
X109197460Y-118245391D01*
X109499659Y-118185280D01*
X109791427Y-118086238D01*
X110067771Y-117949960D01*
X110323964Y-117778778D01*
X110555620Y-117575620D01*
X110758778Y-117343964D01*
X110868335Y-117180000D01*
X120484785Y-117180000D01*
X120503603Y-117383083D01*
X120559418Y-117579250D01*
X120650327Y-117761821D01*
X120773236Y-117924579D01*
X120923959Y-118061981D01*
X121097363Y-118169348D01*
X121287544Y-118243024D01*
X121488024Y-118280500D01*
X121691976Y-118280500D01*
X121892456Y-118243024D01*
X122082637Y-118169348D01*
X122256041Y-118061981D01*
X122406764Y-117924579D01*
X122529673Y-117761821D01*
X122620582Y-117579250D01*
X122676397Y-117383083D01*
X122695215Y-117180000D01*
X123024785Y-117180000D01*
X123043603Y-117383083D01*
X123099418Y-117579250D01*
X123190327Y-117761821D01*
X123313236Y-117924579D01*
X123463959Y-118061981D01*
X123637363Y-118169348D01*
X123827544Y-118243024D01*
X124028024Y-118280500D01*
X124231976Y-118280500D01*
X124432456Y-118243024D01*
X124622637Y-118169348D01*
X124796041Y-118061981D01*
X124946764Y-117924579D01*
X125069673Y-117761821D01*
X125160582Y-117579250D01*
X125216397Y-117383083D01*
X125235215Y-117180000D01*
X125216397Y-116976917D01*
X125160582Y-116780750D01*
X125069673Y-116598179D01*
X124946764Y-116435421D01*
X124796041Y-116298019D01*
X124622637Y-116190652D01*
X124432456Y-116116976D01*
X124432455Y-116116975D01*
X124432453Y-116116975D01*
X124231976Y-116079500D01*
X124028024Y-116079500D01*
X123827546Y-116116975D01*
X123780463Y-116135215D01*
X123637363Y-116190652D01*
X123542062Y-116249660D01*
X123463959Y-116298019D01*
X123313237Y-116435420D01*
X123190328Y-116598177D01*
X123190323Y-116598186D01*
X123099419Y-116780747D01*
X123099418Y-116780750D01*
X123043603Y-116976917D01*
X123024785Y-117180000D01*
X122695215Y-117180000D01*
X122676397Y-116976917D01*
X122620582Y-116780750D01*
X122529673Y-116598179D01*
X122406764Y-116435421D01*
X122256041Y-116298019D01*
X122082637Y-116190652D01*
X121892456Y-116116976D01*
X121892455Y-116116975D01*
X121892453Y-116116975D01*
X121691976Y-116079500D01*
X121488024Y-116079500D01*
X121287546Y-116116975D01*
X121240463Y-116135215D01*
X121097363Y-116190652D01*
X121002062Y-116249660D01*
X120923959Y-116298019D01*
X120773237Y-116435420D01*
X120650328Y-116598177D01*
X120650323Y-116598186D01*
X120559419Y-116780747D01*
X120559418Y-116780750D01*
X120503603Y-116976917D01*
X120484785Y-117180000D01*
X110868335Y-117180000D01*
X110929960Y-117087772D01*
X111066238Y-116811427D01*
X111165280Y-116519659D01*
X111225391Y-116217460D01*
X111245543Y-115910000D01*
X111225391Y-115602540D01*
X111165280Y-115300341D01*
X111066238Y-115008573D01*
X110929960Y-114732229D01*
X110758778Y-114476036D01*
X110555620Y-114244380D01*
X110323964Y-114041222D01*
X110105756Y-113895420D01*
X110067770Y-113870039D01*
X109791433Y-113733764D01*
X109499665Y-113634721D01*
X109197457Y-113574608D01*
X108966941Y-113559500D01*
X108813059Y-113559500D01*
X108582542Y-113574608D01*
X108280334Y-113634721D01*
X107988566Y-113733764D01*
X107712229Y-113870039D01*
X107456036Y-114041221D01*
X107456035Y-114041223D01*
X107224382Y-114244378D01*
X107224378Y-114244382D01*
X107021223Y-114476035D01*
X107021214Y-114476046D01*
X106850044Y-114732220D01*
X106850040Y-114732226D01*
X106713764Y-115008566D01*
X106614721Y-115300334D01*
X106554608Y-115602542D01*
X106534457Y-115909999D01*
X106534457Y-115910000D01*
X106240324Y-115910000D01*
X106245500Y-115874005D01*
X106245500Y-112303082D01*
X106245500Y-108726000D01*
X106239661Y-108671691D01*
X106228275Y-108619349D01*
X106221039Y-108592972D01*
X106171708Y-108506341D01*
X106139850Y-108469575D01*
X106125216Y-108452685D01*
X106092440Y-108421060D01*
X106092436Y-108421057D01*
X106004105Y-108374852D01*
X106004097Y-108374848D01*
X105935989Y-108354851D01*
X105935987Y-108354850D01*
X105935982Y-108354849D01*
X105935979Y-108354848D01*
X105935973Y-108354847D01*
X105864005Y-108344500D01*
X105864000Y-108344500D01*
X102319273Y-108344500D01*
X102319272Y-108344500D01*
X102253144Y-108353206D01*
X102197603Y-108368088D01*
X102193386Y-108369023D01*
X102156648Y-108375501D01*
X102139456Y-108377005D01*
X101920519Y-108377005D01*
X101862328Y-108358098D01*
X101826364Y-108308598D01*
X101826364Y-108247412D01*
X101860250Y-108199464D01*
X101892621Y-108174625D01*
X101980861Y-108059629D01*
X102036330Y-107925713D01*
X102055250Y-107782004D01*
X102036330Y-107638295D01*
X101987467Y-107520329D01*
X101982668Y-107459333D01*
X102014637Y-107407164D01*
X102071165Y-107383750D01*
X102081342Y-107383475D01*
X102794000Y-107401000D01*
X106181992Y-107401000D01*
X106240183Y-107419907D01*
X106251996Y-107429996D01*
X110287000Y-111465000D01*
X118631802Y-111465000D01*
X118689993Y-111483907D01*
X118696994Y-111489495D01*
X120065144Y-112686626D01*
X120067550Y-112688877D01*
X120966964Y-113588290D01*
X120994741Y-113642807D01*
X120985170Y-113703239D01*
X120949080Y-113742464D01*
X120923960Y-113758018D01*
X120773237Y-113895420D01*
X120650328Y-114058177D01*
X120650323Y-114058186D01*
X120616263Y-114126589D01*
X120559418Y-114240750D01*
X120503603Y-114436917D01*
X120484785Y-114640000D01*
X120503603Y-114843083D01*
X120559418Y-115039250D01*
X120650327Y-115221821D01*
X120773236Y-115384579D01*
X120923959Y-115521981D01*
X121097363Y-115629348D01*
X121287544Y-115703024D01*
X121488024Y-115740500D01*
X121691976Y-115740500D01*
X121892456Y-115703024D01*
X122082637Y-115629348D01*
X122256041Y-115521981D01*
X122406764Y-115384579D01*
X122529673Y-115221821D01*
X122620582Y-115039250D01*
X122676397Y-114843083D01*
X122695215Y-114640000D01*
X123024785Y-114640000D01*
X123043603Y-114843083D01*
X123099418Y-115039250D01*
X123190327Y-115221821D01*
X123313236Y-115384579D01*
X123463959Y-115521981D01*
X123637363Y-115629348D01*
X123827544Y-115703024D01*
X124028024Y-115740500D01*
X124231976Y-115740500D01*
X124432456Y-115703024D01*
X124622637Y-115629348D01*
X124796041Y-115521981D01*
X124946764Y-115384579D01*
X125069673Y-115221821D01*
X125160582Y-115039250D01*
X125216397Y-114843083D01*
X125235215Y-114640000D01*
X125216397Y-114436917D01*
X125160582Y-114240750D01*
X125069673Y-114058179D01*
X124946764Y-113895421D01*
X124796041Y-113758019D01*
X124622637Y-113650652D01*
X124432456Y-113576976D01*
X124432455Y-113576975D01*
X124432453Y-113576975D01*
X124231976Y-113539500D01*
X124028024Y-113539500D01*
X123827546Y-113576975D01*
X123798339Y-113588290D01*
X123637363Y-113650652D01*
X123503132Y-113733764D01*
X123463959Y-113758019D01*
X123313237Y-113895420D01*
X123190328Y-114058177D01*
X123190323Y-114058186D01*
X123156263Y-114126589D01*
X123099418Y-114240750D01*
X123043603Y-114436917D01*
X123024785Y-114640000D01*
X122695215Y-114640000D01*
X122676397Y-114436917D01*
X122620582Y-114240750D01*
X122529673Y-114058179D01*
X122406764Y-113895421D01*
X122256041Y-113758019D01*
X122082637Y-113650652D01*
X121892456Y-113576976D01*
X121892455Y-113576975D01*
X121890112Y-113576068D01*
X121850460Y-113543755D01*
X121848762Y-113545180D01*
X121843194Y-113538545D01*
X121838558Y-113534655D01*
X121811765Y-113512173D01*
X121808588Y-113509261D01*
X121743598Y-113444272D01*
X121715821Y-113389755D01*
X121714603Y-113374595D01*
X121714300Y-113278843D01*
X121733023Y-113220597D01*
X121782408Y-113184477D01*
X121795077Y-113181227D01*
X121892456Y-113163024D01*
X122082637Y-113089348D01*
X122256041Y-112981981D01*
X122406764Y-112844579D01*
X122529673Y-112681821D01*
X122620582Y-112499250D01*
X122676397Y-112303083D01*
X122695215Y-112100000D01*
X123024785Y-112100000D01*
X123043603Y-112303083D01*
X123099418Y-112499250D01*
X123190327Y-112681821D01*
X123313236Y-112844579D01*
X123463959Y-112981981D01*
X123637363Y-113089348D01*
X123827544Y-113163024D01*
X124028024Y-113200500D01*
X124231976Y-113200500D01*
X124432456Y-113163024D01*
X124622637Y-113089348D01*
X124796041Y-112981981D01*
X124946764Y-112844579D01*
X125069673Y-112681821D01*
X125160582Y-112499250D01*
X125216397Y-112303083D01*
X125235215Y-112100000D01*
X125216397Y-111896917D01*
X125160582Y-111700750D01*
X125069673Y-111518179D01*
X124946764Y-111355421D01*
X124796041Y-111218019D01*
X124622637Y-111110652D01*
X124432456Y-111036976D01*
X124432455Y-111036975D01*
X124432453Y-111036975D01*
X124231976Y-110999500D01*
X124028024Y-110999500D01*
X123827546Y-111036975D01*
X123757632Y-111064059D01*
X123637363Y-111110652D01*
X123463959Y-111218019D01*
X123313236Y-111355421D01*
X123277997Y-111402085D01*
X123190328Y-111518177D01*
X123190323Y-111518186D01*
X123156263Y-111586589D01*
X123099418Y-111700750D01*
X123043603Y-111896917D01*
X123024785Y-112100000D01*
X122695215Y-112100000D01*
X122676397Y-111896917D01*
X122620582Y-111700750D01*
X122529673Y-111518179D01*
X122406764Y-111355421D01*
X122256041Y-111218019D01*
X122082637Y-111110652D01*
X121892456Y-111036976D01*
X121892455Y-111036975D01*
X121892453Y-111036975D01*
X121787644Y-111017383D01*
X121733918Y-110988105D01*
X121707662Y-110932840D01*
X121706836Y-110920408D01*
X121706266Y-110740343D01*
X121724988Y-110682099D01*
X121774374Y-110645979D01*
X121787046Y-110642728D01*
X121892456Y-110623024D01*
X122082637Y-110549348D01*
X122256041Y-110441981D01*
X122406764Y-110304579D01*
X122529673Y-110141821D01*
X122620582Y-109959250D01*
X122676397Y-109763083D01*
X122695215Y-109560000D01*
X123024785Y-109560000D01*
X123043603Y-109763083D01*
X123099418Y-109959250D01*
X123190327Y-110141821D01*
X123313236Y-110304579D01*
X123463959Y-110441981D01*
X123637363Y-110549348D01*
X123827544Y-110623024D01*
X124028024Y-110660500D01*
X124231976Y-110660500D01*
X124432456Y-110623024D01*
X124622637Y-110549348D01*
X124796041Y-110441981D01*
X124946764Y-110304579D01*
X125069673Y-110141821D01*
X125160582Y-109959250D01*
X125216397Y-109763083D01*
X125235215Y-109560000D01*
X125216397Y-109356917D01*
X125160582Y-109160750D01*
X125069673Y-108978179D01*
X124946764Y-108815421D01*
X124796041Y-108678019D01*
X124622637Y-108570652D01*
X124432456Y-108496976D01*
X124432455Y-108496975D01*
X124432453Y-108496975D01*
X124231976Y-108459500D01*
X124028024Y-108459500D01*
X123827546Y-108496975D01*
X123757632Y-108524059D01*
X123637363Y-108570652D01*
X123558702Y-108619357D01*
X123463959Y-108678019D01*
X123313237Y-108815420D01*
X123190328Y-108978177D01*
X123190323Y-108978186D01*
X123179265Y-109000394D01*
X123099418Y-109160750D01*
X123043603Y-109356917D01*
X123024785Y-109560000D01*
X122695215Y-109560000D01*
X122676397Y-109356917D01*
X122620582Y-109160750D01*
X122529673Y-108978179D01*
X122406764Y-108815421D01*
X122256041Y-108678019D01*
X122082637Y-108570652D01*
X121892456Y-108496976D01*
X121892450Y-108496974D01*
X121779601Y-108475879D01*
X121725876Y-108446601D01*
X121699620Y-108391335D01*
X121698793Y-108378892D01*
X121698233Y-108201848D01*
X121716957Y-108143601D01*
X121766343Y-108107481D01*
X121779032Y-108104226D01*
X121892456Y-108083024D01*
X122082637Y-108009348D01*
X122256041Y-107901981D01*
X122406764Y-107764579D01*
X122529673Y-107601821D01*
X122620582Y-107419250D01*
X122676397Y-107223083D01*
X122695215Y-107020000D01*
X123024785Y-107020000D01*
X123043603Y-107223083D01*
X123099418Y-107419250D01*
X123190327Y-107601821D01*
X123313236Y-107764579D01*
X123463959Y-107901981D01*
X123637363Y-108009348D01*
X123827544Y-108083024D01*
X124028024Y-108120500D01*
X124231976Y-108120500D01*
X124432456Y-108083024D01*
X124622637Y-108009348D01*
X124796041Y-107901981D01*
X124946764Y-107764579D01*
X125069673Y-107601821D01*
X125160582Y-107419250D01*
X125216397Y-107223083D01*
X125235215Y-107020000D01*
X125216397Y-106816917D01*
X125160582Y-106620750D01*
X125069673Y-106438179D01*
X124946764Y-106275421D01*
X124796041Y-106138019D01*
X124622637Y-106030652D01*
X124432456Y-105956976D01*
X124432455Y-105956975D01*
X124432453Y-105956975D01*
X124231976Y-105919500D01*
X124028024Y-105919500D01*
X123827546Y-105956975D01*
X123768953Y-105979674D01*
X123637363Y-106030652D01*
X123517287Y-106105000D01*
X123463959Y-106138019D01*
X123313237Y-106275420D01*
X123190328Y-106438177D01*
X123190323Y-106438186D01*
X123099986Y-106619609D01*
X123099418Y-106620750D01*
X123076090Y-106702740D01*
X123043603Y-106816917D01*
X123024943Y-107018300D01*
X123024785Y-107020000D01*
X122695215Y-107020000D01*
X122676397Y-106816917D01*
X122620582Y-106620750D01*
X122529673Y-106438179D01*
X122406764Y-106275421D01*
X122256041Y-106138019D01*
X122082637Y-106030652D01*
X121935283Y-105973567D01*
X121892454Y-105956975D01*
X121771559Y-105934376D01*
X121717834Y-105905098D01*
X121691578Y-105849832D01*
X121690751Y-105837375D01*
X121690698Y-105820500D01*
X121690200Y-105663351D01*
X121708923Y-105605103D01*
X121758309Y-105568983D01*
X121771005Y-105565726D01*
X121892456Y-105543024D01*
X122082637Y-105469348D01*
X122256041Y-105361981D01*
X122406764Y-105224579D01*
X122529673Y-105061821D01*
X122620582Y-104879250D01*
X122676397Y-104683083D01*
X122695215Y-104480000D01*
X123024785Y-104480000D01*
X123043603Y-104683083D01*
X123099418Y-104879250D01*
X123190327Y-105061821D01*
X123313236Y-105224579D01*
X123463959Y-105361981D01*
X123637363Y-105469348D01*
X123827544Y-105543024D01*
X124028024Y-105580500D01*
X124231976Y-105580500D01*
X124432456Y-105543024D01*
X124622637Y-105469348D01*
X124796041Y-105361981D01*
X124946764Y-105224579D01*
X125069673Y-105061821D01*
X125160582Y-104879250D01*
X125216397Y-104683083D01*
X125235215Y-104480000D01*
X125216397Y-104276917D01*
X125160582Y-104080750D01*
X125069673Y-103898179D01*
X124946764Y-103735421D01*
X124796041Y-103598019D01*
X124622637Y-103490652D01*
X124432456Y-103416976D01*
X124432455Y-103416975D01*
X124432453Y-103416975D01*
X124231976Y-103379500D01*
X124028024Y-103379500D01*
X123827546Y-103416975D01*
X123793641Y-103430110D01*
X123637363Y-103490652D01*
X123463958Y-103598018D01*
X123463959Y-103598019D01*
X123313237Y-103735420D01*
X123190328Y-103898177D01*
X123190323Y-103898186D01*
X123099419Y-104080747D01*
X123099418Y-104080750D01*
X123043603Y-104276917D01*
X123024785Y-104480000D01*
X122695215Y-104480000D01*
X122676397Y-104276917D01*
X122620582Y-104080750D01*
X122529673Y-103898179D01*
X122406764Y-103735421D01*
X122256041Y-103598019D01*
X122082637Y-103490652D01*
X121892456Y-103416976D01*
X121892455Y-103416975D01*
X121892453Y-103416975D01*
X121763517Y-103392873D01*
X121709791Y-103363595D01*
X121683535Y-103308330D01*
X121682708Y-103295873D01*
X121682167Y-103124851D01*
X121700889Y-103066604D01*
X121750275Y-103030484D01*
X121762963Y-103027230D01*
X121892456Y-103003024D01*
X122082637Y-102929348D01*
X122256041Y-102821981D01*
X122406764Y-102684579D01*
X122529673Y-102521821D01*
X122620582Y-102339250D01*
X122676397Y-102143083D01*
X122695215Y-101940000D01*
X123024785Y-101940000D01*
X123043603Y-102143083D01*
X123099418Y-102339250D01*
X123190327Y-102521821D01*
X123313236Y-102684579D01*
X123463959Y-102821981D01*
X123637363Y-102929348D01*
X123827544Y-103003024D01*
X124028024Y-103040500D01*
X124231976Y-103040500D01*
X124432456Y-103003024D01*
X124622637Y-102929348D01*
X124796041Y-102821981D01*
X124946764Y-102684579D01*
X125069673Y-102521821D01*
X125160582Y-102339250D01*
X125216397Y-102143083D01*
X125235215Y-101940000D01*
X125216397Y-101736917D01*
X125160582Y-101540750D01*
X125069673Y-101358179D01*
X124946764Y-101195421D01*
X124796041Y-101058019D01*
X124622637Y-100950652D01*
X124432456Y-100876976D01*
X124432455Y-100876975D01*
X124432453Y-100876975D01*
X124231976Y-100839500D01*
X124028024Y-100839500D01*
X123827546Y-100876975D01*
X123769263Y-100899554D01*
X123637363Y-100950652D01*
X123473010Y-101052415D01*
X123463959Y-101058019D01*
X123313237Y-101195420D01*
X123190328Y-101358177D01*
X123190323Y-101358186D01*
X123099419Y-101540747D01*
X123099418Y-101540750D01*
X123043603Y-101736917D01*
X123024785Y-101940000D01*
X122695215Y-101940000D01*
X122676397Y-101736917D01*
X122620582Y-101540750D01*
X122529673Y-101358179D01*
X122406764Y-101195421D01*
X122256041Y-101058019D01*
X122082637Y-100950652D01*
X121935282Y-100893567D01*
X121892454Y-100876975D01*
X121755473Y-100851369D01*
X121701748Y-100822091D01*
X121675492Y-100766826D01*
X121674665Y-100754379D01*
X121674134Y-100586352D01*
X121692856Y-100528106D01*
X121742242Y-100491986D01*
X121754932Y-100488731D01*
X121892456Y-100463024D01*
X122082637Y-100389348D01*
X122256041Y-100281981D01*
X122406764Y-100144579D01*
X122529673Y-99981821D01*
X122620582Y-99799250D01*
X122676397Y-99603083D01*
X122695215Y-99400000D01*
X123024785Y-99400000D01*
X123043603Y-99603083D01*
X123072638Y-99705130D01*
X123099419Y-99799252D01*
X123159539Y-99919991D01*
X123190327Y-99981821D01*
X123313236Y-100144579D01*
X123463959Y-100281981D01*
X123637363Y-100389348D01*
X123827544Y-100463024D01*
X124028024Y-100500500D01*
X124231976Y-100500500D01*
X124432456Y-100463024D01*
X124622637Y-100389348D01*
X124796041Y-100281981D01*
X124946764Y-100144579D01*
X125069673Y-99981821D01*
X125160582Y-99799250D01*
X125216397Y-99603083D01*
X125235215Y-99400000D01*
X125216397Y-99196917D01*
X125160582Y-99000750D01*
X125069673Y-98818179D01*
X124946764Y-98655421D01*
X124796041Y-98518019D01*
X124622637Y-98410652D01*
X124432456Y-98336976D01*
X124432455Y-98336975D01*
X124432453Y-98336975D01*
X124231976Y-98299500D01*
X124028024Y-98299500D01*
X123827546Y-98336975D01*
X123768081Y-98360012D01*
X123637363Y-98410652D01*
X123484766Y-98505136D01*
X123463959Y-98518019D01*
X123313237Y-98655420D01*
X123190328Y-98818177D01*
X123190323Y-98818186D01*
X123099419Y-99000747D01*
X123099418Y-99000750D01*
X123043603Y-99196917D01*
X123024785Y-99400000D01*
X122695215Y-99400000D01*
X122676397Y-99196917D01*
X122620582Y-99000750D01*
X122529673Y-98818179D01*
X122406764Y-98655421D01*
X122256041Y-98518019D01*
X122082637Y-98410652D01*
X121892456Y-98336976D01*
X121892455Y-98336975D01*
X121892453Y-98336975D01*
X121747431Y-98309866D01*
X121693705Y-98280588D01*
X121667449Y-98225323D01*
X121666623Y-98212880D01*
X121666100Y-98047855D01*
X121684824Y-97989608D01*
X121734210Y-97953488D01*
X121746904Y-97950232D01*
X121892456Y-97923024D01*
X122082637Y-97849348D01*
X122256041Y-97741981D01*
X122406764Y-97604579D01*
X122529673Y-97441821D01*
X122620582Y-97259250D01*
X122676397Y-97063083D01*
X122695215Y-96860000D01*
X123024785Y-96860000D01*
X123043603Y-97063083D01*
X123099418Y-97259250D01*
X123190327Y-97441821D01*
X123313236Y-97604579D01*
X123463959Y-97741981D01*
X123637363Y-97849348D01*
X123827544Y-97923024D01*
X124028024Y-97960500D01*
X124231976Y-97960500D01*
X124432456Y-97923024D01*
X124622637Y-97849348D01*
X124796041Y-97741981D01*
X124946764Y-97604579D01*
X125069673Y-97441821D01*
X125160582Y-97259250D01*
X125216397Y-97063083D01*
X125235215Y-96860000D01*
X125216397Y-96656917D01*
X125160582Y-96460750D01*
X125069673Y-96278179D01*
X124946764Y-96115421D01*
X124796041Y-95978019D01*
X124622637Y-95870652D01*
X124432456Y-95796976D01*
X124432455Y-95796975D01*
X124432453Y-95796975D01*
X124231976Y-95759500D01*
X124028024Y-95759500D01*
X123827546Y-95796975D01*
X123784552Y-95813631D01*
X123637363Y-95870652D01*
X123463959Y-95978019D01*
X123313236Y-96115421D01*
X123273388Y-96168188D01*
X123190328Y-96278177D01*
X123190323Y-96278186D01*
X123107385Y-96444750D01*
X123099418Y-96460750D01*
X123043603Y-96656917D01*
X123024785Y-96860000D01*
X122695215Y-96860000D01*
X122676397Y-96656917D01*
X122620582Y-96460750D01*
X122529673Y-96278179D01*
X122406764Y-96115421D01*
X122256041Y-95978019D01*
X122082637Y-95870652D01*
X121935282Y-95813567D01*
X121892454Y-95796975D01*
X121739388Y-95768362D01*
X121685663Y-95739084D01*
X121659407Y-95683818D01*
X121658580Y-95671361D01*
X121658546Y-95660500D01*
X121658067Y-95509357D01*
X121676790Y-95451109D01*
X121726176Y-95414989D01*
X121738862Y-95411735D01*
X121892456Y-95383024D01*
X122082637Y-95309348D01*
X122256041Y-95201981D01*
X122406764Y-95064579D01*
X122529673Y-94901821D01*
X122620582Y-94719250D01*
X122676397Y-94523083D01*
X122695215Y-94320000D01*
X123024785Y-94320000D01*
X123043603Y-94523083D01*
X123099418Y-94719250D01*
X123190327Y-94901821D01*
X123313236Y-95064579D01*
X123463959Y-95201981D01*
X123637363Y-95309348D01*
X123827544Y-95383024D01*
X124028024Y-95420500D01*
X124231976Y-95420500D01*
X124432456Y-95383024D01*
X124622637Y-95309348D01*
X124796041Y-95201981D01*
X124946764Y-95064579D01*
X125069673Y-94901821D01*
X125160582Y-94719250D01*
X125216397Y-94523083D01*
X125235215Y-94320000D01*
X125216397Y-94116917D01*
X125160582Y-93920750D01*
X125069673Y-93738179D01*
X124946764Y-93575421D01*
X124796041Y-93438019D01*
X124622637Y-93330652D01*
X124432456Y-93256976D01*
X124432455Y-93256975D01*
X124432453Y-93256975D01*
X124231976Y-93219500D01*
X124028024Y-93219500D01*
X123827546Y-93256975D01*
X123757632Y-93284059D01*
X123637363Y-93330652D01*
X123479131Y-93428625D01*
X123463959Y-93438019D01*
X123361183Y-93531712D01*
X123313236Y-93575421D01*
X123282860Y-93615645D01*
X123190328Y-93738177D01*
X123190323Y-93738186D01*
X123099419Y-93920747D01*
X123099418Y-93920750D01*
X123043603Y-94116917D01*
X123024785Y-94320000D01*
X122695215Y-94320000D01*
X122676397Y-94116917D01*
X122620582Y-93920750D01*
X122529673Y-93738179D01*
X122406764Y-93575421D01*
X122256041Y-93438019D01*
X122082637Y-93330652D01*
X121892456Y-93256976D01*
X121892455Y-93256975D01*
X121892453Y-93256975D01*
X121731346Y-93226859D01*
X121677620Y-93197581D01*
X121651364Y-93142316D01*
X121650537Y-93129866D01*
X121650034Y-92970859D01*
X121668758Y-92912611D01*
X121718144Y-92876491D01*
X121730835Y-92873235D01*
X121892456Y-92843024D01*
X122082637Y-92769348D01*
X122256041Y-92661981D01*
X122406764Y-92524579D01*
X122529673Y-92361821D01*
X122620582Y-92179250D01*
X122676397Y-91983083D01*
X122695215Y-91780000D01*
X123024785Y-91780000D01*
X123043603Y-91983083D01*
X123099418Y-92179250D01*
X123190327Y-92361821D01*
X123313236Y-92524579D01*
X123463959Y-92661981D01*
X123637363Y-92769348D01*
X123827544Y-92843024D01*
X124028024Y-92880500D01*
X124231976Y-92880500D01*
X124432456Y-92843024D01*
X124622637Y-92769348D01*
X124796041Y-92661981D01*
X124946764Y-92524579D01*
X125069673Y-92361821D01*
X125160582Y-92179250D01*
X125216397Y-91983083D01*
X125235215Y-91780000D01*
X125216397Y-91576917D01*
X125160582Y-91380750D01*
X125069673Y-91198179D01*
X124946764Y-91035421D01*
X124796041Y-90898019D01*
X124622637Y-90790652D01*
X124432456Y-90716976D01*
X124432455Y-90716975D01*
X124432453Y-90716975D01*
X124231976Y-90679500D01*
X124028024Y-90679500D01*
X123827546Y-90716975D01*
X123808256Y-90724448D01*
X123637363Y-90790652D01*
X123463958Y-90898018D01*
X123463959Y-90898019D01*
X123313237Y-91035420D01*
X123190328Y-91198177D01*
X123190323Y-91198186D01*
X123117858Y-91343717D01*
X123099418Y-91380750D01*
X123043603Y-91576917D01*
X123024785Y-91780000D01*
X122695215Y-91780000D01*
X122676397Y-91576917D01*
X122620582Y-91380750D01*
X122529673Y-91198179D01*
X122406764Y-91035421D01*
X122256041Y-90898019D01*
X122082637Y-90790652D01*
X121892456Y-90716976D01*
X121892455Y-90716975D01*
X121892453Y-90716975D01*
X121723303Y-90685356D01*
X121669577Y-90656079D01*
X121643321Y-90600813D01*
X121642494Y-90588368D01*
X121642001Y-90432360D01*
X121660723Y-90374113D01*
X121710109Y-90337993D01*
X121722804Y-90334737D01*
X121892456Y-90303024D01*
X122082637Y-90229348D01*
X122256041Y-90121981D01*
X122406764Y-89984579D01*
X122529673Y-89821821D01*
X122620582Y-89639250D01*
X122676397Y-89443083D01*
X122695215Y-89240000D01*
X123024785Y-89240000D01*
X123043603Y-89443083D01*
X123099418Y-89639250D01*
X123190327Y-89821821D01*
X123313236Y-89984579D01*
X123463959Y-90121981D01*
X123637363Y-90229348D01*
X123827544Y-90303024D01*
X124028024Y-90340500D01*
X124231976Y-90340500D01*
X124432456Y-90303024D01*
X124622637Y-90229348D01*
X124796041Y-90121981D01*
X124946764Y-89984579D01*
X125069673Y-89821821D01*
X125160582Y-89639250D01*
X125216397Y-89443083D01*
X125235215Y-89240000D01*
X125216397Y-89036917D01*
X125160582Y-88840750D01*
X125069673Y-88658179D01*
X124946764Y-88495421D01*
X124796041Y-88358019D01*
X124622637Y-88250652D01*
X124432456Y-88176976D01*
X124432455Y-88176975D01*
X124432453Y-88176975D01*
X124231976Y-88139500D01*
X124028024Y-88139500D01*
X123827546Y-88176975D01*
X123792203Y-88190667D01*
X123637363Y-88250652D01*
X123550483Y-88304446D01*
X123463959Y-88358019D01*
X123349778Y-88462109D01*
X123313236Y-88495421D01*
X123312435Y-88496482D01*
X123190328Y-88658177D01*
X123190323Y-88658186D01*
X123099419Y-88840747D01*
X123099418Y-88840750D01*
X123043603Y-89036917D01*
X123024785Y-89240000D01*
X122695215Y-89240000D01*
X122676397Y-89036917D01*
X122620582Y-88840750D01*
X122529673Y-88658179D01*
X122406764Y-88495421D01*
X122256041Y-88358019D01*
X122082637Y-88250652D01*
X121892456Y-88176976D01*
X121892455Y-88176975D01*
X121892453Y-88176975D01*
X121715260Y-88143852D01*
X121661534Y-88114574D01*
X121635278Y-88059309D01*
X121634452Y-88046867D01*
X121633967Y-87893861D01*
X121652691Y-87835614D01*
X121702077Y-87799494D01*
X121714762Y-87796240D01*
X121892456Y-87763024D01*
X122082637Y-87689348D01*
X122256041Y-87581981D01*
X122406764Y-87444579D01*
X122529673Y-87281821D01*
X122620582Y-87099250D01*
X122676397Y-86903083D01*
X122695215Y-86700000D01*
X123024785Y-86700000D01*
X123043603Y-86903083D01*
X123099418Y-87099250D01*
X123190327Y-87281821D01*
X123313236Y-87444579D01*
X123463959Y-87581981D01*
X123637363Y-87689348D01*
X123827544Y-87763024D01*
X124028024Y-87800500D01*
X124231976Y-87800500D01*
X124432456Y-87763024D01*
X124622637Y-87689348D01*
X124796041Y-87581981D01*
X124946764Y-87444579D01*
X125069673Y-87281821D01*
X125160582Y-87099250D01*
X125216397Y-86903083D01*
X125235215Y-86700000D01*
X125216397Y-86496917D01*
X125160582Y-86300750D01*
X125069673Y-86118179D01*
X124946764Y-85955421D01*
X124796041Y-85818019D01*
X124622637Y-85710652D01*
X124432456Y-85636976D01*
X124432455Y-85636975D01*
X124432453Y-85636975D01*
X124231976Y-85599500D01*
X124028024Y-85599500D01*
X123827546Y-85636975D01*
X123757632Y-85664059D01*
X123637363Y-85710652D01*
X123560341Y-85758342D01*
X123463959Y-85818019D01*
X123313237Y-85955420D01*
X123190328Y-86118177D01*
X123190323Y-86118186D01*
X123099419Y-86300747D01*
X123099418Y-86300750D01*
X123043603Y-86496917D01*
X123024785Y-86700000D01*
X122695215Y-86700000D01*
X122676397Y-86496917D01*
X122620582Y-86300750D01*
X122529673Y-86118179D01*
X122406764Y-85955421D01*
X122256041Y-85818019D01*
X122082637Y-85710652D01*
X121892456Y-85636976D01*
X121892455Y-85636975D01*
X121892453Y-85636975D01*
X121707217Y-85602349D01*
X121653491Y-85573071D01*
X121627235Y-85517806D01*
X121626409Y-85505369D01*
X121625934Y-85355363D01*
X121644658Y-85297116D01*
X121694044Y-85260996D01*
X121706734Y-85257741D01*
X121892456Y-85223024D01*
X122082637Y-85149348D01*
X122256041Y-85041981D01*
X122406764Y-84904579D01*
X122529673Y-84741821D01*
X122620582Y-84559250D01*
X122676397Y-84363083D01*
X122695215Y-84160000D01*
X123024785Y-84160000D01*
X123043603Y-84363083D01*
X123099418Y-84559250D01*
X123190327Y-84741821D01*
X123313236Y-84904579D01*
X123463959Y-85041981D01*
X123637363Y-85149348D01*
X123827544Y-85223024D01*
X124028024Y-85260500D01*
X124231976Y-85260500D01*
X124432456Y-85223024D01*
X124622637Y-85149348D01*
X124796041Y-85041981D01*
X124946764Y-84904579D01*
X125069673Y-84741821D01*
X125160582Y-84559250D01*
X125216397Y-84363083D01*
X125235215Y-84160000D01*
X125216397Y-83956917D01*
X125160582Y-83760750D01*
X125069673Y-83578179D01*
X124946764Y-83415421D01*
X124796041Y-83278019D01*
X124622637Y-83170652D01*
X124432456Y-83096976D01*
X124432455Y-83096975D01*
X124432453Y-83096975D01*
X124231976Y-83059500D01*
X124028024Y-83059500D01*
X123827546Y-83096975D01*
X123816168Y-83101383D01*
X123637363Y-83170652D01*
X123528652Y-83237963D01*
X123463959Y-83278019D01*
X123313237Y-83415420D01*
X123190328Y-83578177D01*
X123190323Y-83578186D01*
X123099419Y-83760747D01*
X123099418Y-83760750D01*
X123043603Y-83956917D01*
X123024785Y-84160000D01*
X122695215Y-84160000D01*
X122676397Y-83956917D01*
X122620582Y-83760750D01*
X122529673Y-83578179D01*
X122406764Y-83415421D01*
X122256041Y-83278019D01*
X122082637Y-83170652D01*
X121892456Y-83096976D01*
X121892455Y-83096975D01*
X121892453Y-83096975D01*
X121699175Y-83060845D01*
X121645449Y-83031567D01*
X121619193Y-82976302D01*
X121618366Y-82963853D01*
X121617901Y-82816866D01*
X121636625Y-82758618D01*
X121686011Y-82722498D01*
X121698707Y-82719241D01*
X121892456Y-82683024D01*
X122082637Y-82609348D01*
X122256041Y-82501981D01*
X122406764Y-82364579D01*
X122529673Y-82201821D01*
X122620582Y-82019250D01*
X122676397Y-81823083D01*
X122695215Y-81620000D01*
X123024785Y-81620000D01*
X123043603Y-81823083D01*
X123099418Y-82019250D01*
X123190327Y-82201821D01*
X123313236Y-82364579D01*
X123463959Y-82501981D01*
X123637363Y-82609348D01*
X123827544Y-82683024D01*
X124028024Y-82720500D01*
X124231976Y-82720500D01*
X124432456Y-82683024D01*
X124622637Y-82609348D01*
X124796041Y-82501981D01*
X124946764Y-82364579D01*
X125069673Y-82201821D01*
X125160582Y-82019250D01*
X125216397Y-81823083D01*
X125235215Y-81620000D01*
X125216397Y-81416917D01*
X125160582Y-81220750D01*
X125069673Y-81038179D01*
X124946764Y-80875421D01*
X124796041Y-80738019D01*
X124622637Y-80630652D01*
X124432456Y-80556976D01*
X124432455Y-80556975D01*
X124432453Y-80556975D01*
X124231976Y-80519500D01*
X124028024Y-80519500D01*
X123827546Y-80556975D01*
X123757632Y-80584059D01*
X123637363Y-80630652D01*
X123463959Y-80738019D01*
X123313236Y-80875421D01*
X123276632Y-80923893D01*
X123190328Y-81038177D01*
X123190323Y-81038186D01*
X123099419Y-81220747D01*
X123099418Y-81220750D01*
X123060794Y-81356498D01*
X123043603Y-81416917D01*
X123033096Y-81530313D01*
X123024785Y-81620000D01*
X122695215Y-81620000D01*
X122676397Y-81416917D01*
X122620582Y-81220750D01*
X122529673Y-81038179D01*
X122406764Y-80875421D01*
X122256041Y-80738019D01*
X122082637Y-80630652D01*
X121892456Y-80556976D01*
X121892455Y-80556975D01*
X121892453Y-80556975D01*
X121691132Y-80519342D01*
X121637406Y-80490064D01*
X121611150Y-80434799D01*
X121610323Y-80422354D01*
X121609868Y-80278368D01*
X121628592Y-80220119D01*
X121677978Y-80183999D01*
X121690677Y-80180742D01*
X121691972Y-80180500D01*
X121691976Y-80180500D01*
X121892456Y-80143024D01*
X122082637Y-80069348D01*
X122256041Y-79961981D01*
X122406764Y-79824579D01*
X122529673Y-79661821D01*
X122620582Y-79479250D01*
X122676397Y-79283083D01*
X122695215Y-79080000D01*
X123024785Y-79080000D01*
X123043603Y-79283083D01*
X123099418Y-79479250D01*
X123190327Y-79661821D01*
X123313236Y-79824579D01*
X123463959Y-79961981D01*
X123637363Y-80069348D01*
X123827544Y-80143024D01*
X124028024Y-80180500D01*
X124231976Y-80180500D01*
X124432456Y-80143024D01*
X124622637Y-80069348D01*
X124796041Y-79961981D01*
X124946764Y-79824579D01*
X125069673Y-79661821D01*
X125160582Y-79479250D01*
X125216397Y-79283083D01*
X125235215Y-79080000D01*
X125216397Y-78876917D01*
X125160582Y-78680750D01*
X125069673Y-78498179D01*
X124946764Y-78335421D01*
X124796041Y-78198019D01*
X124622637Y-78090652D01*
X124432456Y-78016976D01*
X124432455Y-78016975D01*
X124432453Y-78016975D01*
X124231976Y-77979500D01*
X124028024Y-77979500D01*
X123827546Y-78016975D01*
X123784609Y-78033609D01*
X123637363Y-78090652D01*
X123551673Y-78143709D01*
X123463959Y-78198019D01*
X123321231Y-78328133D01*
X123313236Y-78335421D01*
X123273388Y-78388188D01*
X123190328Y-78498177D01*
X123190323Y-78498186D01*
X123102118Y-78675327D01*
X123099418Y-78680750D01*
X123043603Y-78876917D01*
X123024785Y-79080000D01*
X122695215Y-79080000D01*
X122676397Y-78876917D01*
X122620582Y-78680750D01*
X122529673Y-78498179D01*
X122406764Y-78335421D01*
X122256041Y-78198019D01*
X122082637Y-78090652D01*
X121892456Y-78016976D01*
X121892455Y-78016975D01*
X121892453Y-78016975D01*
X121687477Y-77978659D01*
X121687676Y-77977593D01*
X121635940Y-77955311D01*
X121604703Y-77902700D01*
X121602282Y-77881251D01*
X121602280Y-77880500D01*
X121601833Y-77739414D01*
X121620557Y-77681166D01*
X121669942Y-77645046D01*
X121687488Y-77641400D01*
X121687477Y-77641341D01*
X121690415Y-77640791D01*
X121691699Y-77640525D01*
X121691962Y-77640500D01*
X121691976Y-77640500D01*
X121892456Y-77603024D01*
X122082637Y-77529348D01*
X122256041Y-77421981D01*
X122406764Y-77284579D01*
X122529673Y-77121821D01*
X122620582Y-76939250D01*
X122676397Y-76743083D01*
X122695215Y-76540000D01*
X123024785Y-76540000D01*
X123043603Y-76743082D01*
X123099419Y-76939252D01*
X123162196Y-77065327D01*
X123190327Y-77121821D01*
X123313236Y-77284579D01*
X123463959Y-77421981D01*
X123637363Y-77529348D01*
X123827544Y-77603024D01*
X124028024Y-77640500D01*
X124231976Y-77640500D01*
X124432456Y-77603024D01*
X124622637Y-77529348D01*
X124796041Y-77421981D01*
X124946764Y-77284579D01*
X125069673Y-77121821D01*
X125160582Y-76939250D01*
X125216397Y-76743083D01*
X125235215Y-76540000D01*
X125216397Y-76336917D01*
X125160582Y-76140750D01*
X125069673Y-75958179D01*
X124946764Y-75795421D01*
X124796041Y-75658019D01*
X124622637Y-75550652D01*
X124432456Y-75476976D01*
X124432455Y-75476975D01*
X124432453Y-75476975D01*
X124231976Y-75439500D01*
X124028024Y-75439500D01*
X123827546Y-75476975D01*
X123807678Y-75484672D01*
X123637363Y-75550652D01*
X123476103Y-75650500D01*
X123463959Y-75658019D01*
X123346474Y-75765121D01*
X123313236Y-75795421D01*
X123285160Y-75832600D01*
X123190328Y-75958177D01*
X123190323Y-75958186D01*
X123099419Y-76140747D01*
X123099418Y-76140750D01*
X123098576Y-76143709D01*
X123043603Y-76336917D01*
X123024785Y-76540000D01*
X122695215Y-76540000D01*
X122676397Y-76336917D01*
X122620582Y-76140750D01*
X122529673Y-75958179D01*
X122406764Y-75795421D01*
X122256041Y-75658019D01*
X122082637Y-75550652D01*
X121892456Y-75476976D01*
X121892455Y-75476975D01*
X121892453Y-75476975D01*
X121691975Y-75439499D01*
X121687414Y-75439077D01*
X121687546Y-75437649D01*
X121635052Y-75420593D01*
X121599088Y-75371093D01*
X121594243Y-75340813D01*
X121593797Y-75199813D01*
X121612521Y-75141563D01*
X121661907Y-75105443D01*
X121692797Y-75100500D01*
X122464673Y-75100500D01*
X122464674Y-75100500D01*
X122537740Y-75085966D01*
X122620601Y-75030601D01*
X122675966Y-74947740D01*
X122690500Y-74874674D01*
X122690500Y-74000000D01*
X123024785Y-74000000D01*
X123043603Y-74203083D01*
X123099418Y-74399250D01*
X123190327Y-74581821D01*
X123313236Y-74744579D01*
X123463959Y-74881981D01*
X123637363Y-74989348D01*
X123827544Y-75063024D01*
X124028024Y-75100500D01*
X124231976Y-75100500D01*
X124432456Y-75063024D01*
X124622637Y-74989348D01*
X124796041Y-74881981D01*
X124946764Y-74744579D01*
X125069673Y-74581821D01*
X125160582Y-74399250D01*
X125216397Y-74203083D01*
X125235215Y-74000000D01*
X125216397Y-73796917D01*
X125160582Y-73600750D01*
X125069673Y-73418179D01*
X124946764Y-73255421D01*
X124796041Y-73118019D01*
X124622637Y-73010652D01*
X124432456Y-72936976D01*
X124432455Y-72936975D01*
X124432453Y-72936975D01*
X124231976Y-72899500D01*
X124028024Y-72899500D01*
X123827546Y-72936975D01*
X123757632Y-72964059D01*
X123637363Y-73010652D01*
X123463959Y-73118018D01*
X123463959Y-73118019D01*
X123313237Y-73255420D01*
X123190328Y-73418177D01*
X123190323Y-73418186D01*
X123123563Y-73552260D01*
X123099418Y-73600750D01*
X123043603Y-73796917D01*
X123024785Y-74000000D01*
X122690500Y-74000000D01*
X122690500Y-73125326D01*
X122675966Y-73052260D01*
X122620601Y-72969399D01*
X122620599Y-72969397D01*
X122537742Y-72914035D01*
X122537740Y-72914034D01*
X122537737Y-72914033D01*
X122537736Y-72914033D01*
X122464684Y-72899501D01*
X122464674Y-72899500D01*
X120715326Y-72899500D01*
X120715325Y-72899500D01*
X120715315Y-72899501D01*
X120642263Y-72914033D01*
X120642257Y-72914035D01*
X120559400Y-72969397D01*
X120559397Y-72969400D01*
X120504035Y-73052257D01*
X120504033Y-73052263D01*
X120489501Y-73125315D01*
X120489500Y-73125327D01*
X120489500Y-73901000D01*
X120470593Y-73959191D01*
X120421093Y-73995155D01*
X120390500Y-74000000D01*
X120320001Y-74000000D01*
X120320000Y-74000000D01*
X115874935Y-78445065D01*
X111429999Y-82890001D01*
X111429999Y-88367954D01*
X111411092Y-88426145D01*
X111361592Y-88462109D01*
X111356633Y-88463578D01*
X111356291Y-88463669D01*
X111222378Y-88519137D01*
X111222374Y-88519139D01*
X111107376Y-88607381D01*
X111104777Y-88610769D01*
X111054351Y-88645424D01*
X111026236Y-88649500D01*
X110799499Y-88649500D01*
X110741308Y-88630593D01*
X110705344Y-88581093D01*
X110700499Y-88550500D01*
X110700499Y-88496485D01*
X110700499Y-88496482D01*
X110700499Y-88496480D01*
X110694171Y-88437609D01*
X110644503Y-88304446D01*
X110559331Y-88190669D01*
X110457680Y-88114574D01*
X110445556Y-88105498D01*
X110445554Y-88105497D01*
X110312391Y-88055829D01*
X110312390Y-88055828D01*
X110272660Y-88051557D01*
X110253521Y-88049500D01*
X110253517Y-88049500D01*
X109671485Y-88049500D01*
X109671479Y-88049501D01*
X109612612Y-88055828D01*
X109479443Y-88105498D01*
X109365671Y-88190667D01*
X109365667Y-88190671D01*
X109280498Y-88304443D01*
X109230828Y-88437610D01*
X109228368Y-88460499D01*
X109224987Y-88491955D01*
X109224500Y-88496482D01*
X109224500Y-89503514D01*
X109224501Y-89503520D01*
X109230828Y-89562387D01*
X109230828Y-89562389D01*
X109230829Y-89562391D01*
X109280497Y-89695554D01*
X109280498Y-89695556D01*
X109302727Y-89725250D01*
X109365669Y-89809331D01*
X109479446Y-89894503D01*
X109612609Y-89944171D01*
X109671479Y-89950500D01*
X110253520Y-89950499D01*
X110312391Y-89944171D01*
X110445554Y-89894503D01*
X110559331Y-89809331D01*
X110644503Y-89695554D01*
X110694171Y-89562391D01*
X110700500Y-89503521D01*
X110700500Y-89449500D01*
X110719407Y-89391309D01*
X110768907Y-89355345D01*
X110799500Y-89350500D01*
X111026236Y-89350500D01*
X111084427Y-89369407D01*
X111104777Y-89389231D01*
X111107376Y-89392618D01*
X111107377Y-89392619D01*
X111107379Y-89392621D01*
X111222375Y-89480861D01*
X111356291Y-89536330D01*
X111356292Y-89536330D01*
X111356623Y-89536419D01*
X111356828Y-89536552D01*
X111362286Y-89538813D01*
X111361867Y-89539824D01*
X111407937Y-89569743D01*
X111429863Y-89626865D01*
X111429999Y-89632045D01*
X111429999Y-92373992D01*
X111411092Y-92432183D01*
X111401003Y-92443996D01*
X108578817Y-95266181D01*
X108524300Y-95293958D01*
X108463868Y-95284387D01*
X108430272Y-95256445D01*
X108392626Y-95207385D01*
X108392624Y-95207383D01*
X108392621Y-95207379D01*
X108392616Y-95207375D01*
X108392615Y-95207374D01*
X108355040Y-95178542D01*
X108320384Y-95128118D01*
X108321985Y-95066953D01*
X108355040Y-95021458D01*
X108370813Y-95009355D01*
X108392621Y-94992621D01*
X108480861Y-94877625D01*
X108536330Y-94743709D01*
X108555250Y-94600000D01*
X108554591Y-94594998D01*
X108536330Y-94456291D01*
X108480861Y-94322375D01*
X108392621Y-94207379D01*
X108277625Y-94119139D01*
X108277621Y-94119137D01*
X108143709Y-94063670D01*
X108143708Y-94063669D01*
X108000000Y-94044750D01*
X107856291Y-94063669D01*
X107856290Y-94063670D01*
X107722378Y-94119137D01*
X107722374Y-94119139D01*
X107607374Y-94207382D01*
X107602787Y-94211970D01*
X107601150Y-94210333D01*
X107559092Y-94239225D01*
X107497928Y-94237610D01*
X107449395Y-94200352D01*
X107444161Y-94191554D01*
X107443503Y-94190647D01*
X107443502Y-94190645D01*
X107354355Y-94101498D01*
X107354352Y-94101496D01*
X107354350Y-94101495D01*
X107242028Y-94044263D01*
X107242023Y-94044261D01*
X107242022Y-94044261D01*
X107218722Y-94040570D01*
X107148826Y-94029500D01*
X106791175Y-94029500D01*
X106791172Y-94029501D01*
X106697982Y-94044259D01*
X106697977Y-94044261D01*
X106585640Y-94101500D01*
X106580658Y-94105120D01*
X106522466Y-94124022D01*
X106464277Y-94105109D01*
X106463687Y-94104677D01*
X106358968Y-94027390D01*
X106231631Y-93982834D01*
X106201412Y-93980000D01*
X106150001Y-93980000D01*
X106150000Y-93980001D01*
X106150000Y-94651000D01*
X106131093Y-94709191D01*
X106081593Y-94745155D01*
X106051000Y-94750000D01*
X105405000Y-94750000D01*
X105405000Y-94826412D01*
X105407834Y-94856631D01*
X105452390Y-94983968D01*
X105532490Y-95092499D01*
X105532500Y-95092509D01*
X105641031Y-95172609D01*
X105738044Y-95206555D01*
X105786725Y-95243621D01*
X105804322Y-95302221D01*
X105784114Y-95359973D01*
X105738044Y-95393445D01*
X105641031Y-95427390D01*
X105532500Y-95507490D01*
X105532490Y-95507500D01*
X105452390Y-95616031D01*
X105407834Y-95743368D01*
X105405000Y-95773587D01*
X105405000Y-95849999D01*
X105405001Y-95850000D01*
X106051000Y-95850000D01*
X106109191Y-95868907D01*
X106145155Y-95918407D01*
X106150000Y-95949000D01*
X106150000Y-96619999D01*
X106150001Y-96620000D01*
X106201411Y-96620000D01*
X106201412Y-96619999D01*
X106231631Y-96617165D01*
X106358968Y-96572609D01*
X106463688Y-96495322D01*
X106521735Y-96475980D01*
X106580066Y-96494451D01*
X106580671Y-96494887D01*
X106585651Y-96498506D01*
X106697971Y-96555736D01*
X106697973Y-96555736D01*
X106697978Y-96555739D01*
X106791177Y-96570500D01*
X107035491Y-96570499D01*
X107093681Y-96589406D01*
X107129645Y-96638906D01*
X107129646Y-96700091D01*
X107105495Y-96739502D01*
X106399496Y-97445503D01*
X106344979Y-97473281D01*
X106329492Y-97474500D01*
X104238147Y-97474500D01*
X104179956Y-97455593D01*
X104143992Y-97406093D01*
X104143992Y-97344907D01*
X104163267Y-97310739D01*
X104172553Y-97300001D01*
X104165087Y-97248749D01*
X104113785Y-97143811D01*
X104031187Y-97061213D01*
X103926248Y-97009912D01*
X103858216Y-97000000D01*
X103537501Y-97000000D01*
X103537500Y-97000001D01*
X103537500Y-97318773D01*
X103545774Y-97335013D01*
X103536203Y-97395445D01*
X103492938Y-97438710D01*
X103447993Y-97449500D01*
X103427006Y-97449500D01*
X103368815Y-97430593D01*
X103332851Y-97381093D01*
X103332851Y-97319907D01*
X103337500Y-97312321D01*
X103337500Y-97000001D01*
X103337499Y-97000000D01*
X103099000Y-97000000D01*
X103040809Y-96981093D01*
X103004845Y-96931593D01*
X103000000Y-96901000D01*
X103000000Y-96662501D01*
X102999999Y-96662500D01*
X102700001Y-96662500D01*
X102700000Y-96662501D01*
X102700000Y-97298108D01*
X102701891Y-97300000D01*
X102855885Y-97300000D01*
X102914076Y-97318907D01*
X102950040Y-97368407D01*
X102950040Y-97429593D01*
X102914076Y-97479093D01*
X102895878Y-97489562D01*
X102891345Y-97491563D01*
X102851356Y-97500000D01*
X102702446Y-97500000D01*
X102709913Y-97551253D01*
X102743592Y-97620143D01*
X102752992Y-97675034D01*
X102749500Y-97705130D01*
X102749500Y-97894861D01*
X102749501Y-97894864D01*
X102752415Y-97919991D01*
X102770086Y-97960012D01*
X102776294Y-98020882D01*
X102770086Y-98039987D01*
X102752415Y-98080008D01*
X102752414Y-98080011D01*
X102749500Y-98105130D01*
X102749500Y-98294861D01*
X102749501Y-98294864D01*
X102752415Y-98319991D01*
X102770086Y-98360012D01*
X102776294Y-98420882D01*
X102770086Y-98439987D01*
X102752415Y-98480008D01*
X102752414Y-98480011D01*
X102749500Y-98505130D01*
X102749500Y-98694861D01*
X102749501Y-98694864D01*
X102752415Y-98719991D01*
X102770086Y-98760012D01*
X102776294Y-98820882D01*
X102770086Y-98839987D01*
X102752415Y-98880008D01*
X102752414Y-98880011D01*
X102749500Y-98905130D01*
X102749500Y-99094861D01*
X102749501Y-99094864D01*
X102752415Y-99119991D01*
X102770086Y-99160012D01*
X102776294Y-99220882D01*
X102770086Y-99239987D01*
X102752415Y-99280008D01*
X102752414Y-99280011D01*
X102749500Y-99305130D01*
X102749500Y-99494861D01*
X102749501Y-99494864D01*
X102752415Y-99519991D01*
X102770086Y-99560012D01*
X102776294Y-99620882D01*
X102770086Y-99639987D01*
X102752415Y-99680008D01*
X102752414Y-99680011D01*
X102749500Y-99705130D01*
X102749500Y-99894861D01*
X102749501Y-99894864D01*
X102752415Y-99919991D01*
X102770086Y-99960012D01*
X102776294Y-100020882D01*
X102770086Y-100039987D01*
X102752415Y-100080008D01*
X102752414Y-100080011D01*
X102749500Y-100105130D01*
X102749500Y-100294861D01*
X102749501Y-100294864D01*
X102752415Y-100319991D01*
X102770086Y-100360012D01*
X102776294Y-100420882D01*
X102770086Y-100439987D01*
X102752415Y-100480008D01*
X102752415Y-100480009D01*
X102749500Y-100505130D01*
X102749500Y-100694861D01*
X102749501Y-100694869D01*
X102752992Y-100724974D01*
X102743592Y-100779855D01*
X102709912Y-100848749D01*
X102702446Y-100900000D01*
X102851356Y-100900000D01*
X102891322Y-100908426D01*
X102893587Y-100909426D01*
X102939192Y-100950214D01*
X102952111Y-101010020D01*
X102927411Y-101065998D01*
X102893653Y-101090544D01*
X102892362Y-101091114D01*
X102891386Y-101091545D01*
X102851356Y-101100000D01*
X102702446Y-101100000D01*
X102709913Y-101151253D01*
X102743592Y-101220143D01*
X102752992Y-101275034D01*
X102749500Y-101305130D01*
X102749500Y-101494861D01*
X102749501Y-101494864D01*
X102752415Y-101519991D01*
X102770086Y-101560012D01*
X102776294Y-101620882D01*
X102770086Y-101639987D01*
X102752415Y-101680008D01*
X102752414Y-101680011D01*
X102749500Y-101705130D01*
X102749500Y-101894861D01*
X102749501Y-101894864D01*
X102752415Y-101919991D01*
X102770086Y-101960012D01*
X102776294Y-102020882D01*
X102770086Y-102039987D01*
X102752415Y-102080008D01*
X102752414Y-102080011D01*
X102749500Y-102105130D01*
X102749500Y-102294861D01*
X102749501Y-102294864D01*
X102752415Y-102319991D01*
X102770086Y-102360012D01*
X102776294Y-102420882D01*
X102770086Y-102439987D01*
X102752415Y-102480008D01*
X102752414Y-102480011D01*
X102749500Y-102505130D01*
X102749500Y-102650500D01*
X102730593Y-102708691D01*
X102681093Y-102744655D01*
X102650501Y-102749500D01*
X102505138Y-102749500D01*
X102505135Y-102749501D01*
X102480007Y-102752415D01*
X102439986Y-102770086D01*
X102379116Y-102776294D01*
X102360016Y-102770087D01*
X102319991Y-102752415D01*
X102319990Y-102752414D01*
X102319988Y-102752414D01*
X102294868Y-102749500D01*
X102105138Y-102749500D01*
X102105135Y-102749501D01*
X102080007Y-102752415D01*
X102039986Y-102770086D01*
X101979116Y-102776294D01*
X101960016Y-102770087D01*
X101919991Y-102752415D01*
X101919990Y-102752414D01*
X101919988Y-102752414D01*
X101894868Y-102749500D01*
X101705138Y-102749500D01*
X101705135Y-102749501D01*
X101680007Y-102752415D01*
X101639986Y-102770086D01*
X101579116Y-102776294D01*
X101560016Y-102770087D01*
X101519991Y-102752415D01*
X101519990Y-102752414D01*
X101519988Y-102752414D01*
X101494868Y-102749500D01*
X101305138Y-102749500D01*
X101305135Y-102749501D01*
X101280007Y-102752415D01*
X101239986Y-102770086D01*
X101179116Y-102776294D01*
X101160013Y-102770086D01*
X101136198Y-102759571D01*
X101090604Y-102718770D01*
X101077699Y-102658961D01*
X101102414Y-102602989D01*
X101114218Y-102591801D01*
X101171060Y-102546181D01*
X101222778Y-102460954D01*
X101240091Y-102413388D01*
X101255500Y-102326000D01*
X101255500Y-101949498D01*
X101274407Y-101891308D01*
X101323907Y-101855344D01*
X101354500Y-101850499D01*
X101487046Y-101850499D01*
X101506882Y-101847357D01*
X101579427Y-101835868D01*
X101690771Y-101779135D01*
X101779135Y-101690771D01*
X101835868Y-101579427D01*
X101850500Y-101487045D01*
X101850499Y-98553797D01*
X101869406Y-98495607D01*
X101918906Y-98459643D01*
X101940871Y-98455175D01*
X101961116Y-98453404D01*
X101972196Y-98452191D01*
X101972197Y-98452190D01*
X101972202Y-98452190D01*
X102066603Y-98420144D01*
X102110440Y-98394834D01*
X102171060Y-98346181D01*
X102222778Y-98260954D01*
X102240091Y-98213388D01*
X102255500Y-98126000D01*
X102255500Y-97389659D01*
X102274407Y-97331468D01*
X102323907Y-97295504D01*
X102340228Y-97291693D01*
X102351250Y-97290087D01*
X102351251Y-97290087D01*
X102356516Y-97287513D01*
X102417098Y-97278940D01*
X102443478Y-97287510D01*
X102448751Y-97290087D01*
X102500000Y-97297554D01*
X102500000Y-96662501D01*
X102499999Y-96662500D01*
X102249500Y-96662500D01*
X102191309Y-96643593D01*
X102155345Y-96594093D01*
X102150500Y-96563500D01*
X102150500Y-96561500D01*
X102169407Y-96503309D01*
X102218907Y-96467345D01*
X102249500Y-96462500D01*
X102499999Y-96462500D01*
X102500000Y-96462499D01*
X102499999Y-95827445D01*
X102499997Y-95827443D01*
X102700000Y-95827443D01*
X102700000Y-96462499D01*
X102700001Y-96462500D01*
X102999998Y-96462500D01*
X102999999Y-96462499D01*
X102999999Y-96226412D01*
X105405000Y-96226412D01*
X105407834Y-96256631D01*
X105452390Y-96383968D01*
X105532490Y-96492499D01*
X105532500Y-96492509D01*
X105641031Y-96572609D01*
X105768368Y-96617165D01*
X105798587Y-96619999D01*
X105798589Y-96620000D01*
X105849999Y-96620000D01*
X105850000Y-96619999D01*
X105850000Y-96150000D01*
X105405001Y-96150000D01*
X105405000Y-96150001D01*
X105405000Y-96226412D01*
X102999999Y-96226412D01*
X102999999Y-96141786D01*
X102999998Y-96141783D01*
X102990087Y-96073749D01*
X102938785Y-95968811D01*
X102856187Y-95886213D01*
X102751246Y-95834911D01*
X102700000Y-95827443D01*
X102499997Y-95827443D01*
X102489050Y-95817975D01*
X102463665Y-95813631D01*
X102420941Y-95769832D01*
X102412121Y-95709286D01*
X102439696Y-95655985D01*
X103214884Y-94880796D01*
X103230734Y-94867926D01*
X103240669Y-94861437D01*
X103261338Y-94834879D01*
X103265388Y-94830292D01*
X103268375Y-94827307D01*
X103269014Y-94826412D01*
X103281041Y-94809566D01*
X103312516Y-94769127D01*
X103316008Y-94762673D01*
X103319237Y-94756069D01*
X103319237Y-94756068D01*
X103319239Y-94756066D01*
X103333856Y-94706966D01*
X103350500Y-94658488D01*
X103350500Y-94658484D01*
X103351706Y-94651259D01*
X103352617Y-94643954D01*
X103350500Y-94592769D01*
X103350500Y-94564156D01*
X103369407Y-94505965D01*
X103404556Y-94475946D01*
X103409355Y-94473502D01*
X103409356Y-94473500D01*
X103416302Y-94469962D01*
X103417761Y-94472826D01*
X103462393Y-94458299D01*
X103520594Y-94477176D01*
X103521234Y-94477644D01*
X103616033Y-94547609D01*
X103743368Y-94592165D01*
X103773587Y-94594999D01*
X103773589Y-94595000D01*
X103849999Y-94595000D01*
X103850000Y-94594998D01*
X104150000Y-94594998D01*
X104150001Y-94595000D01*
X104226411Y-94595000D01*
X104226412Y-94594999D01*
X104256631Y-94592165D01*
X104383968Y-94547609D01*
X104492499Y-94467509D01*
X104492509Y-94467499D01*
X104505425Y-94449999D01*
X105405000Y-94449999D01*
X105405001Y-94450000D01*
X105849999Y-94450000D01*
X105850000Y-94449999D01*
X105850000Y-93980000D01*
X105798587Y-93980000D01*
X105768368Y-93982834D01*
X105641031Y-94027390D01*
X105532500Y-94107490D01*
X105532490Y-94107500D01*
X105452390Y-94216031D01*
X105407834Y-94343368D01*
X105405000Y-94373587D01*
X105405000Y-94449999D01*
X104505425Y-94449999D01*
X104572609Y-94358968D01*
X104617165Y-94231631D01*
X104619999Y-94201412D01*
X104620000Y-94201411D01*
X104620000Y-94150001D01*
X104619999Y-94150000D01*
X104150001Y-94150000D01*
X104150000Y-94150001D01*
X104150000Y-94594998D01*
X103850000Y-94594998D01*
X103850000Y-93949000D01*
X103868907Y-93890809D01*
X103918407Y-93854845D01*
X103949000Y-93850000D01*
X104619999Y-93850000D01*
X104620000Y-93849999D01*
X104620000Y-93798589D01*
X104619999Y-93798587D01*
X104617165Y-93768368D01*
X104572609Y-93641031D01*
X104495322Y-93536312D01*
X104475980Y-93478265D01*
X104494451Y-93419934D01*
X104494887Y-93419329D01*
X104498498Y-93414358D01*
X104498502Y-93414355D01*
X104550712Y-93311889D01*
X104555736Y-93302028D01*
X104555736Y-93302027D01*
X104555739Y-93302022D01*
X104570500Y-93208823D01*
X104570499Y-92851178D01*
X104557540Y-92769348D01*
X104555740Y-92757982D01*
X104555738Y-92757974D01*
X104500531Y-92649627D01*
X104498502Y-92645645D01*
X104476959Y-92624102D01*
X104449184Y-92569588D01*
X104458755Y-92509156D01*
X104468422Y-92493835D01*
X104480861Y-92477625D01*
X104536330Y-92343709D01*
X104555250Y-92200000D01*
X104552518Y-92179252D01*
X104536330Y-92056291D01*
X104480861Y-91922375D01*
X104392621Y-91807379D01*
X104277625Y-91719139D01*
X104277621Y-91719137D01*
X104143709Y-91663670D01*
X104143708Y-91663669D01*
X104000000Y-91644750D01*
X103856291Y-91663669D01*
X103856290Y-91663670D01*
X103722378Y-91719137D01*
X103722374Y-91719139D01*
X103607381Y-91807377D01*
X103607373Y-91807385D01*
X103578541Y-91844960D01*
X103528117Y-91879615D01*
X103466952Y-91878013D01*
X103421459Y-91844960D01*
X103392626Y-91807385D01*
X103392624Y-91807383D01*
X103392621Y-91807379D01*
X103277625Y-91719139D01*
X103277621Y-91719137D01*
X103143709Y-91663670D01*
X103143708Y-91663669D01*
X103000000Y-91644750D01*
X102999000Y-91644750D01*
X102998318Y-91644528D01*
X102993567Y-91643903D01*
X102993682Y-91643022D01*
X102940809Y-91625843D01*
X102904845Y-91576343D01*
X102900000Y-91545750D01*
X102900000Y-89498820D01*
X107300000Y-89498820D01*
X107310494Y-89586203D01*
X107365327Y-89725250D01*
X107365330Y-89725254D01*
X107455643Y-89844350D01*
X107455649Y-89844356D01*
X107574745Y-89934669D01*
X107574749Y-89934672D01*
X107713796Y-89989505D01*
X107801179Y-89999999D01*
X107801184Y-90000000D01*
X107937499Y-90000000D01*
X107937499Y-89150000D01*
X108237500Y-89150000D01*
X108237500Y-89999999D01*
X108237501Y-90000000D01*
X108373816Y-90000000D01*
X108373820Y-89999999D01*
X108461203Y-89989505D01*
X108600250Y-89934672D01*
X108600254Y-89934669D01*
X108719350Y-89844356D01*
X108719356Y-89844350D01*
X108809669Y-89725254D01*
X108809672Y-89725250D01*
X108864505Y-89586203D01*
X108874999Y-89498820D01*
X108875000Y-89498816D01*
X108875000Y-89150001D01*
X108874999Y-89150000D01*
X108237500Y-89150000D01*
X107937499Y-89150000D01*
X107300001Y-89150000D01*
X107300000Y-89150001D01*
X107300000Y-89498820D01*
X102900000Y-89498820D01*
X102900000Y-88849999D01*
X107300000Y-88849999D01*
X107300001Y-88850000D01*
X107937499Y-88850000D01*
X107937499Y-88000000D01*
X108237500Y-88000000D01*
X108237500Y-88849999D01*
X108237501Y-88850000D01*
X108874999Y-88850000D01*
X108875000Y-88849999D01*
X108875000Y-88501183D01*
X108874999Y-88501179D01*
X108864505Y-88413796D01*
X108809672Y-88274749D01*
X108809669Y-88274745D01*
X108719356Y-88155649D01*
X108719350Y-88155643D01*
X108600254Y-88065330D01*
X108600250Y-88065327D01*
X108461203Y-88010494D01*
X108373820Y-88000000D01*
X108237500Y-88000000D01*
X107937499Y-88000000D01*
X107801179Y-88000000D01*
X107713796Y-88010494D01*
X107574749Y-88065327D01*
X107574745Y-88065330D01*
X107455649Y-88155643D01*
X107455643Y-88155649D01*
X107365330Y-88274745D01*
X107365327Y-88274749D01*
X107310494Y-88413796D01*
X107300000Y-88501179D01*
X107300000Y-88849999D01*
X102900000Y-88849999D01*
X102900000Y-87044791D01*
X105800001Y-87044791D01*
X105802909Y-87069874D01*
X105848213Y-87172477D01*
X105927522Y-87251786D01*
X106030127Y-87297090D01*
X106055203Y-87299999D01*
X107849998Y-87299999D01*
X107850000Y-87299998D01*
X108150000Y-87299998D01*
X108150001Y-87299999D01*
X109944790Y-87299999D01*
X109944791Y-87299998D01*
X109969874Y-87297090D01*
X110072477Y-87251786D01*
X110151786Y-87172477D01*
X110197090Y-87069872D01*
X110199999Y-87044797D01*
X110200000Y-87044795D01*
X110200000Y-86150000D01*
X108150001Y-86150000D01*
X108150000Y-86150001D01*
X108150000Y-87299998D01*
X107850000Y-87299998D01*
X107850000Y-86150001D01*
X107849999Y-86150000D01*
X105800002Y-86150000D01*
X105800001Y-86150001D01*
X105800001Y-87044791D01*
X102900000Y-87044791D01*
X102900000Y-85849998D01*
X105799999Y-85849998D01*
X105800001Y-85850000D01*
X107849999Y-85850000D01*
X107850000Y-85849999D01*
X107850000Y-84700001D01*
X107849999Y-84700000D01*
X108150000Y-84700000D01*
X108150000Y-85849999D01*
X108150001Y-85850000D01*
X110199998Y-85850000D01*
X110199999Y-85849999D01*
X110199999Y-84955209D01*
X110199998Y-84955208D01*
X110197090Y-84930125D01*
X110151786Y-84827522D01*
X110072477Y-84748213D01*
X109969872Y-84702909D01*
X109944797Y-84700000D01*
X108150000Y-84700000D01*
X107849999Y-84700000D01*
X106055210Y-84700000D01*
X106055208Y-84700001D01*
X106030125Y-84702909D01*
X105927522Y-84748213D01*
X105848213Y-84827522D01*
X105802909Y-84930127D01*
X105800000Y-84955202D01*
X105800000Y-84955204D01*
X105799999Y-85849998D01*
X102900000Y-85849998D01*
X102900000Y-83000000D01*
X101924504Y-82024504D01*
X101896727Y-81969987D01*
X101906298Y-81909555D01*
X101949563Y-81866290D01*
X101994508Y-81855500D01*
X105975996Y-81855500D01*
X105976000Y-81855500D01*
X106030313Y-81849661D01*
X106051049Y-81845150D01*
X106081821Y-81838456D01*
X106081820Y-81838456D01*
X106108198Y-81831219D01*
X106108202Y-81831217D01*
X106194821Y-81781892D01*
X106194821Y-81781891D01*
X106194828Y-81781888D01*
X106247632Y-81736133D01*
X106279257Y-81703359D01*
X106325465Y-81615024D01*
X106345150Y-81547985D01*
X106351360Y-81504794D01*
X106355500Y-81476004D01*
X106355500Y-81332003D01*
X106353274Y-81311295D01*
X106349661Y-81277687D01*
X106338455Y-81226176D01*
X106331219Y-81199802D01*
X106331219Y-81199801D01*
X106331217Y-81199797D01*
X106281892Y-81113178D01*
X106279077Y-81109200D01*
X106280344Y-81108303D01*
X106259075Y-81057969D01*
X106272935Y-80998374D01*
X106319177Y-80958308D01*
X106357712Y-80950500D01*
X106474673Y-80950500D01*
X106474674Y-80950500D01*
X106547740Y-80935966D01*
X106630601Y-80880601D01*
X106685966Y-80797740D01*
X106696498Y-80744791D01*
X106950001Y-80744791D01*
X106952909Y-80769874D01*
X106998213Y-80872477D01*
X107077522Y-80951786D01*
X107180127Y-80997090D01*
X107205203Y-80999999D01*
X107849998Y-80999999D01*
X107850000Y-80999998D01*
X108150000Y-80999998D01*
X108150001Y-80999999D01*
X108794790Y-80999999D01*
X108794791Y-80999998D01*
X108819874Y-80997090D01*
X108922477Y-80951786D01*
X109001786Y-80872477D01*
X109047090Y-80769872D01*
X109049999Y-80744797D01*
X109050000Y-80744795D01*
X109050000Y-79850001D01*
X109049999Y-79850000D01*
X108150001Y-79850000D01*
X108150000Y-79850001D01*
X108150000Y-80999998D01*
X107850000Y-80999998D01*
X107850000Y-79850000D01*
X106950002Y-79850000D01*
X106950001Y-79850001D01*
X106950001Y-80744791D01*
X106696498Y-80744791D01*
X106700500Y-80724674D01*
X106700500Y-78675326D01*
X106685966Y-78602260D01*
X106630601Y-78519399D01*
X106630599Y-78519397D01*
X106547742Y-78464035D01*
X106547740Y-78464034D01*
X106547737Y-78464033D01*
X106547736Y-78464033D01*
X106485220Y-78451597D01*
X106431836Y-78421700D01*
X106406221Y-78366135D01*
X106418159Y-78306125D01*
X106463089Y-78264593D01*
X106504535Y-78255500D01*
X107044665Y-78255500D01*
X107102856Y-78274407D01*
X107138820Y-78323907D01*
X107138820Y-78385093D01*
X107102856Y-78434593D01*
X107084653Y-78445065D01*
X107077522Y-78448213D01*
X106998213Y-78527522D01*
X106952909Y-78630127D01*
X106950000Y-78655202D01*
X106950000Y-79549998D01*
X106950001Y-79550000D01*
X107849999Y-79550000D01*
X107850000Y-79549999D01*
X108150000Y-79549999D01*
X108150001Y-79550000D01*
X109049998Y-79550000D01*
X109049999Y-79549999D01*
X109049999Y-78655210D01*
X109049998Y-78655208D01*
X109047090Y-78630125D01*
X109001786Y-78527522D01*
X108922477Y-78448213D01*
X108819872Y-78402909D01*
X108794797Y-78400000D01*
X108150001Y-78400000D01*
X108150000Y-78400001D01*
X108150000Y-79549999D01*
X107850000Y-79549999D01*
X107850000Y-78382319D01*
X107840590Y-78363851D01*
X107850161Y-78303419D01*
X107893426Y-78260154D01*
X107927796Y-78249931D01*
X107930313Y-78249661D01*
X107930324Y-78249658D01*
X107930329Y-78249658D01*
X107981821Y-78238456D01*
X107981820Y-78238456D01*
X108008198Y-78231219D01*
X108008202Y-78231217D01*
X108094821Y-78181892D01*
X108094821Y-78181891D01*
X108094828Y-78181888D01*
X108147632Y-78136133D01*
X108179257Y-78103359D01*
X108225465Y-78015024D01*
X108245150Y-77947985D01*
X108255500Y-77876000D01*
X108255500Y-77557935D01*
X108255021Y-77544530D01*
X108246170Y-77500034D01*
X108253360Y-77439274D01*
X108294892Y-77394343D01*
X108354901Y-77382405D01*
X108385286Y-77392098D01*
X108385313Y-77392028D01*
X108386765Y-77392569D01*
X108390713Y-77393829D01*
X108391941Y-77394499D01*
X108391946Y-77394503D01*
X108525109Y-77444171D01*
X108583979Y-77450500D01*
X108913809Y-77450499D01*
X108971999Y-77469406D01*
X108983813Y-77479495D01*
X109417158Y-77912840D01*
X109444935Y-77967357D01*
X109445307Y-77995763D01*
X109444750Y-77999994D01*
X109444750Y-78000000D01*
X109463669Y-78143708D01*
X109463670Y-78143709D01*
X109519137Y-78277621D01*
X109519139Y-78277625D01*
X109537460Y-78301501D01*
X109557884Y-78359177D01*
X109540507Y-78417843D01*
X109491965Y-78455090D01*
X109478236Y-78458866D01*
X109452261Y-78464033D01*
X109452257Y-78464035D01*
X109369400Y-78519397D01*
X109369397Y-78519400D01*
X109314035Y-78602257D01*
X109314033Y-78602263D01*
X109299501Y-78675315D01*
X109299500Y-78675327D01*
X109299500Y-80724672D01*
X109299501Y-80724684D01*
X109314033Y-80797736D01*
X109314035Y-80797742D01*
X109369397Y-80880599D01*
X109369400Y-80880602D01*
X109434191Y-80923893D01*
X109452260Y-80935966D01*
X109507808Y-80947015D01*
X109525315Y-80950498D01*
X109525320Y-80950498D01*
X109525326Y-80950500D01*
X109525327Y-80950500D01*
X111074673Y-80950500D01*
X111074674Y-80950500D01*
X111147740Y-80935966D01*
X111230601Y-80880601D01*
X111285966Y-80797740D01*
X111300500Y-80724674D01*
X111300500Y-78675326D01*
X111285966Y-78602260D01*
X111230601Y-78519399D01*
X111230599Y-78519397D01*
X111147742Y-78464035D01*
X111147740Y-78464034D01*
X111147737Y-78464033D01*
X111147736Y-78464033D01*
X111074684Y-78449501D01*
X111074674Y-78449500D01*
X111074673Y-78449500D01*
X110749500Y-78449500D01*
X110691309Y-78430593D01*
X110655345Y-78381093D01*
X110650500Y-78350500D01*
X110650500Y-78346618D01*
X110652607Y-78326302D01*
X110653109Y-78323907D01*
X110655043Y-78314685D01*
X110650879Y-78281288D01*
X110650500Y-78275162D01*
X110650500Y-78270959D01*
X110646912Y-78249459D01*
X110644638Y-78231217D01*
X110640573Y-78198607D01*
X110640572Y-78198605D01*
X110640572Y-78198603D01*
X110638479Y-78191575D01*
X110636091Y-78184616D01*
X110611704Y-78139554D01*
X110589198Y-78093515D01*
X110584948Y-78087562D01*
X110575378Y-78075266D01*
X110578266Y-78073017D01*
X110556152Y-78033609D01*
X110555253Y-78006489D01*
X110555250Y-78006489D01*
X110555250Y-78006384D01*
X110555081Y-78001284D01*
X110555250Y-78000000D01*
X110555250Y-77999999D01*
X110536330Y-77856291D01*
X110480861Y-77722375D01*
X110392621Y-77607379D01*
X110277625Y-77519139D01*
X110277621Y-77519137D01*
X110143709Y-77463670D01*
X110143708Y-77463669D01*
X110000000Y-77444750D01*
X109999995Y-77444750D01*
X109995763Y-77445307D01*
X109935603Y-77434155D01*
X109912840Y-77417158D01*
X109635445Y-77139763D01*
X109607668Y-77085246D01*
X109607016Y-77059180D01*
X109613000Y-77003521D01*
X109612999Y-75996480D01*
X109606671Y-75937609D01*
X109557003Y-75804446D01*
X109556067Y-75803196D01*
X109500830Y-75729407D01*
X109471831Y-75690669D01*
X109383585Y-75624609D01*
X109358056Y-75605498D01*
X109358054Y-75605497D01*
X109224891Y-75555829D01*
X109224890Y-75555828D01*
X109185160Y-75551557D01*
X109166021Y-75549500D01*
X109166017Y-75549500D01*
X108583985Y-75549500D01*
X108583979Y-75549501D01*
X108525112Y-75555828D01*
X108525109Y-75555828D01*
X108525109Y-75555829D01*
X108519980Y-75557742D01*
X108391937Y-75605500D01*
X108391240Y-75605882D01*
X108390588Y-75606004D01*
X108385313Y-75607972D01*
X108384972Y-75607058D01*
X108331105Y-75617170D01*
X108275820Y-75590956D01*
X108246501Y-75537252D01*
X108245810Y-75504898D01*
X108255500Y-75437507D01*
X108255500Y-75124003D01*
X108254085Y-75110838D01*
X108249661Y-75069687D01*
X108249659Y-75069677D01*
X108238456Y-75018179D01*
X108238456Y-75018180D01*
X108238455Y-75018176D01*
X108231219Y-74991802D01*
X108231219Y-74991801D01*
X108231217Y-74991797D01*
X108181892Y-74905178D01*
X108181889Y-74905175D01*
X108181888Y-74905172D01*
X108161792Y-74881980D01*
X108136140Y-74852375D01*
X108103358Y-74820742D01*
X108103355Y-74820740D01*
X108015025Y-74774535D01*
X108015020Y-74774533D01*
X107947997Y-74754853D01*
X107947989Y-74754851D01*
X107947985Y-74754850D01*
X107947980Y-74754849D01*
X107947979Y-74754849D01*
X107876004Y-74744500D01*
X107876000Y-74744500D01*
X104424000Y-74744500D01*
X104377750Y-74749472D01*
X104369677Y-74750340D01*
X104318179Y-74761544D01*
X104318180Y-74761544D01*
X104291805Y-74768779D01*
X104287382Y-74770612D01*
X104226385Y-74775410D01*
X104174217Y-74743438D01*
X104150805Y-74686910D01*
X104150500Y-74679146D01*
X104150500Y-74000000D01*
X111614457Y-74000000D01*
X111634608Y-74307457D01*
X111694721Y-74609665D01*
X111793764Y-74901433D01*
X111930039Y-75177770D01*
X112101215Y-75433953D01*
X112101222Y-75433964D01*
X112304380Y-75665620D01*
X112536036Y-75868778D01*
X112792229Y-76039960D01*
X113068566Y-76176235D01*
X113068568Y-76176235D01*
X113068573Y-76176238D01*
X113247401Y-76236942D01*
X113360334Y-76275278D01*
X113360336Y-76275278D01*
X113360341Y-76275280D01*
X113662540Y-76335391D01*
X113893059Y-76350500D01*
X114046941Y-76350500D01*
X114277460Y-76335391D01*
X114579659Y-76275280D01*
X114871427Y-76176238D01*
X115147771Y-76039960D01*
X115403964Y-75868778D01*
X115635620Y-75665620D01*
X115838778Y-75433964D01*
X116009960Y-75177772D01*
X116146238Y-74901427D01*
X116245280Y-74609659D01*
X116305391Y-74307460D01*
X116325543Y-74000000D01*
X116325225Y-73995155D01*
X116311789Y-73790156D01*
X116305391Y-73692540D01*
X116245280Y-73390341D01*
X116241882Y-73380332D01*
X116188110Y-73221924D01*
X116146238Y-73098573D01*
X116136266Y-73078352D01*
X116009960Y-72822229D01*
X115838778Y-72566036D01*
X115635620Y-72334380D01*
X115403964Y-72131222D01*
X115369827Y-72108412D01*
X115147770Y-71960039D01*
X114871433Y-71823764D01*
X114579665Y-71724721D01*
X114277457Y-71664608D01*
X114046941Y-71649500D01*
X113893059Y-71649500D01*
X113662542Y-71664608D01*
X113360334Y-71724721D01*
X113068566Y-71823764D01*
X112792229Y-71960039D01*
X112536036Y-72131221D01*
X112536035Y-72131223D01*
X112304382Y-72334378D01*
X112304378Y-72334382D01*
X112101223Y-72566035D01*
X112101214Y-72566046D01*
X111930044Y-72822220D01*
X111930040Y-72822226D01*
X111793764Y-73098566D01*
X111694721Y-73390334D01*
X111634608Y-73692542D01*
X111614457Y-73999999D01*
X111614457Y-74000000D01*
X104150500Y-74000000D01*
X104150500Y-73975327D01*
X104150499Y-73975318D01*
X104139178Y-73918407D01*
X104135966Y-73902260D01*
X104135965Y-73902258D01*
X104134385Y-73894316D01*
X104134385Y-73855684D01*
X104135965Y-73847741D01*
X104135966Y-73847740D01*
X104146076Y-73796917D01*
X104150499Y-73774681D01*
X104150500Y-73774672D01*
X104150500Y-73025327D01*
X104150498Y-73025315D01*
X104143097Y-72988111D01*
X104135966Y-72952260D01*
X104135964Y-72952257D01*
X104080602Y-72869400D01*
X104080599Y-72869397D01*
X103997742Y-72814035D01*
X103997740Y-72814034D01*
X103997737Y-72814033D01*
X103997736Y-72814033D01*
X103924684Y-72799501D01*
X103924674Y-72799500D01*
X103924673Y-72799500D01*
X103724500Y-72799500D01*
X103666309Y-72780593D01*
X103630345Y-72731093D01*
X103625500Y-72700500D01*
X103625500Y-70820651D01*
X103622665Y-70784630D01*
X103622665Y-70784627D01*
X103577883Y-70630487D01*
X103577881Y-70630485D01*
X103576759Y-70626620D01*
X103578681Y-70565465D01*
X103616181Y-70517119D01*
X103671828Y-70500000D01*
X123987808Y-70500000D01*
X124025694Y-70507536D01*
X124168700Y-70566771D01*
X124173700Y-70569178D01*
X124433793Y-70712926D01*
X124438489Y-70715877D01*
X124680840Y-70887835D01*
X124685183Y-70891298D01*
X124906766Y-71089316D01*
X124910683Y-71093233D01*
X125006053Y-71199952D01*
X125108701Y-71314816D01*
X125112164Y-71319159D01*
X125284122Y-71561510D01*
X125287076Y-71566210D01*
X125374680Y-71724720D01*
X125430818Y-71826294D01*
X125433228Y-71831299D01*
X125492463Y-71974302D01*
X125499999Y-72012188D01*
X125499999Y-118987810D01*
X125492463Y-119025696D01*
X125433228Y-119168700D01*
X125430818Y-119173705D01*
X125287078Y-119433785D01*
X125284122Y-119438489D01*
X125113976Y-119678288D01*
X125064882Y-119714805D01*
X125033235Y-119720000D01*
X74966765Y-119720000D01*
X74908574Y-119701093D01*
X74886025Y-119678289D01*
X74715877Y-119438489D01*
X74712926Y-119433793D01*
X74569178Y-119173700D01*
X74566771Y-119168700D01*
X74538767Y-119101095D01*
X74453050Y-118894154D01*
X74451217Y-118888916D01*
X74368946Y-118603348D01*
X74367718Y-118597965D01*
X74317937Y-118304974D01*
X74317318Y-118299487D01*
X74300577Y-118001386D01*
X74300500Y-117998615D01*
X74300500Y-117180000D01*
X74764785Y-117180000D01*
X74783603Y-117383083D01*
X74839418Y-117579250D01*
X74930327Y-117761821D01*
X75053236Y-117924579D01*
X75203959Y-118061981D01*
X75377363Y-118169348D01*
X75567544Y-118243024D01*
X75768024Y-118280500D01*
X75971976Y-118280500D01*
X76172456Y-118243024D01*
X76362637Y-118169348D01*
X76536041Y-118061981D01*
X76686764Y-117924579D01*
X76809673Y-117761821D01*
X76900582Y-117579250D01*
X76956397Y-117383083D01*
X76975215Y-117180000D01*
X77304785Y-117180000D01*
X77323603Y-117383083D01*
X77379418Y-117579250D01*
X77470327Y-117761821D01*
X77593236Y-117924579D01*
X77743959Y-118061981D01*
X77917363Y-118169348D01*
X78107544Y-118243024D01*
X78308024Y-118280500D01*
X78511976Y-118280500D01*
X78712456Y-118243024D01*
X78902637Y-118169348D01*
X79076041Y-118061981D01*
X79226764Y-117924579D01*
X79349673Y-117761821D01*
X79440582Y-117579250D01*
X79496397Y-117383083D01*
X79515215Y-117180000D01*
X79496397Y-116976917D01*
X79440582Y-116780750D01*
X79349673Y-116598179D01*
X79226764Y-116435421D01*
X79076041Y-116298019D01*
X78902637Y-116190652D01*
X78712456Y-116116976D01*
X78712455Y-116116975D01*
X78712453Y-116116975D01*
X78511976Y-116079500D01*
X78308024Y-116079500D01*
X78107546Y-116116975D01*
X78060463Y-116135215D01*
X77917363Y-116190652D01*
X77822062Y-116249660D01*
X77743959Y-116298019D01*
X77593237Y-116435420D01*
X77470328Y-116598177D01*
X77470323Y-116598186D01*
X77379419Y-116780747D01*
X77379418Y-116780750D01*
X77323603Y-116976917D01*
X77304785Y-117180000D01*
X76975215Y-117180000D01*
X76956397Y-116976917D01*
X76900582Y-116780750D01*
X76809673Y-116598179D01*
X76686764Y-116435421D01*
X76536041Y-116298019D01*
X76362637Y-116190652D01*
X76172456Y-116116976D01*
X76172455Y-116116975D01*
X76172453Y-116116975D01*
X75971976Y-116079500D01*
X75768024Y-116079500D01*
X75567546Y-116116975D01*
X75520463Y-116135215D01*
X75377363Y-116190652D01*
X75282062Y-116249660D01*
X75203959Y-116298019D01*
X75053237Y-116435420D01*
X74930328Y-116598177D01*
X74930323Y-116598186D01*
X74839419Y-116780747D01*
X74839418Y-116780750D01*
X74783603Y-116976917D01*
X74764785Y-117180000D01*
X74300500Y-117180000D01*
X74300500Y-115910000D01*
X83674457Y-115910000D01*
X83694608Y-116217457D01*
X83754721Y-116519665D01*
X83853764Y-116811433D01*
X83990039Y-117087770D01*
X84161215Y-117343953D01*
X84161222Y-117343964D01*
X84364380Y-117575620D01*
X84596036Y-117778778D01*
X84852229Y-117949960D01*
X85128566Y-118086235D01*
X85128568Y-118086235D01*
X85128573Y-118086238D01*
X85310575Y-118148019D01*
X85420334Y-118185278D01*
X85420336Y-118185278D01*
X85420341Y-118185280D01*
X85722540Y-118245391D01*
X85953059Y-118260500D01*
X86106941Y-118260500D01*
X86337460Y-118245391D01*
X86639659Y-118185280D01*
X86931427Y-118086238D01*
X87207771Y-117949960D01*
X87463964Y-117778778D01*
X87695620Y-117575620D01*
X87898778Y-117343964D01*
X88069960Y-117087772D01*
X88206238Y-116811427D01*
X88305280Y-116519659D01*
X88365391Y-116217460D01*
X88385543Y-115910000D01*
X88365391Y-115602540D01*
X88305280Y-115300341D01*
X88206238Y-115008573D01*
X88069960Y-114732229D01*
X87898778Y-114476036D01*
X87695620Y-114244380D01*
X87463964Y-114041222D01*
X87245756Y-113895420D01*
X87207770Y-113870039D01*
X86931433Y-113733764D01*
X86639665Y-113634721D01*
X86337457Y-113574608D01*
X86106941Y-113559500D01*
X85953059Y-113559500D01*
X85722542Y-113574608D01*
X85420334Y-113634721D01*
X85128566Y-113733764D01*
X84852229Y-113870039D01*
X84596036Y-114041221D01*
X84596035Y-114041223D01*
X84364382Y-114244378D01*
X84364378Y-114244382D01*
X84161223Y-114476035D01*
X84161214Y-114476046D01*
X83990044Y-114732220D01*
X83990040Y-114732226D01*
X83853764Y-115008566D01*
X83754721Y-115300334D01*
X83694608Y-115602542D01*
X83674457Y-115909999D01*
X83674457Y-115910000D01*
X74300500Y-115910000D01*
X74300500Y-114640000D01*
X74764785Y-114640000D01*
X74783603Y-114843083D01*
X74839418Y-115039250D01*
X74930327Y-115221821D01*
X75053236Y-115384579D01*
X75203959Y-115521981D01*
X75377363Y-115629348D01*
X75567544Y-115703024D01*
X75768024Y-115740500D01*
X75971976Y-115740500D01*
X76172456Y-115703024D01*
X76362637Y-115629348D01*
X76536041Y-115521981D01*
X76686764Y-115384579D01*
X76809673Y-115221821D01*
X76900582Y-115039250D01*
X76956397Y-114843083D01*
X76975215Y-114640000D01*
X76956397Y-114436917D01*
X76900582Y-114240750D01*
X76809673Y-114058179D01*
X76686764Y-113895421D01*
X76536041Y-113758019D01*
X76362637Y-113650652D01*
X76172456Y-113576976D01*
X76172455Y-113576975D01*
X76172453Y-113576975D01*
X75971976Y-113539500D01*
X75768024Y-113539500D01*
X75567546Y-113576975D01*
X75538339Y-113588290D01*
X75377363Y-113650652D01*
X75243132Y-113733764D01*
X75203959Y-113758019D01*
X75053237Y-113895420D01*
X74930328Y-114058177D01*
X74930323Y-114058186D01*
X74896263Y-114126589D01*
X74839418Y-114240750D01*
X74783603Y-114436917D01*
X74764785Y-114640000D01*
X74300500Y-114640000D01*
X74300500Y-112100000D01*
X74764785Y-112100000D01*
X74783603Y-112303083D01*
X74839418Y-112499250D01*
X74930327Y-112681821D01*
X75053236Y-112844579D01*
X75203959Y-112981981D01*
X75377363Y-113089348D01*
X75567544Y-113163024D01*
X75768024Y-113200500D01*
X75971976Y-113200500D01*
X76172456Y-113163024D01*
X76362637Y-113089348D01*
X76536041Y-112981981D01*
X76686764Y-112844579D01*
X76809673Y-112681821D01*
X76900582Y-112499250D01*
X76956397Y-112303083D01*
X76975215Y-112100000D01*
X76956397Y-111896917D01*
X76900582Y-111700750D01*
X76809673Y-111518179D01*
X76686764Y-111355421D01*
X76536041Y-111218019D01*
X76362637Y-111110652D01*
X76172456Y-111036976D01*
X76172455Y-111036975D01*
X76172453Y-111036975D01*
X75971976Y-110999500D01*
X75768024Y-110999500D01*
X75567546Y-111036975D01*
X75497632Y-111064059D01*
X75377363Y-111110652D01*
X75203959Y-111218019D01*
X75053236Y-111355421D01*
X75017997Y-111402085D01*
X74930328Y-111518177D01*
X74930323Y-111518186D01*
X74896263Y-111586589D01*
X74839418Y-111700750D01*
X74783603Y-111896917D01*
X74764785Y-112100000D01*
X74300500Y-112100000D01*
X74300500Y-109560000D01*
X74764785Y-109560000D01*
X74783603Y-109763083D01*
X74839418Y-109959250D01*
X74930327Y-110141821D01*
X75053236Y-110304579D01*
X75203959Y-110441981D01*
X75377363Y-110549348D01*
X75567544Y-110623024D01*
X75768024Y-110660500D01*
X75971976Y-110660500D01*
X76172456Y-110623024D01*
X76362637Y-110549348D01*
X76536041Y-110441981D01*
X76686764Y-110304579D01*
X76809673Y-110141821D01*
X76900582Y-109959250D01*
X76956397Y-109763083D01*
X76975215Y-109560000D01*
X76956397Y-109356917D01*
X76900582Y-109160750D01*
X76809673Y-108978179D01*
X76686764Y-108815421D01*
X76536041Y-108678019D01*
X76362637Y-108570652D01*
X76172456Y-108496976D01*
X76172455Y-108496975D01*
X76172453Y-108496975D01*
X75971976Y-108459500D01*
X75768024Y-108459500D01*
X75567546Y-108496975D01*
X75497632Y-108524059D01*
X75377363Y-108570652D01*
X75298702Y-108619357D01*
X75203959Y-108678019D01*
X75053237Y-108815420D01*
X74930328Y-108978177D01*
X74930323Y-108978186D01*
X74919265Y-109000394D01*
X74839418Y-109160750D01*
X74783603Y-109356917D01*
X74764785Y-109560000D01*
X74300500Y-109560000D01*
X74300500Y-107020000D01*
X74764785Y-107020000D01*
X74783603Y-107223083D01*
X74839418Y-107419250D01*
X74930327Y-107601821D01*
X75053236Y-107764579D01*
X75203959Y-107901981D01*
X75377363Y-108009348D01*
X75567544Y-108083024D01*
X75768024Y-108120500D01*
X75971976Y-108120500D01*
X76172456Y-108083024D01*
X76362637Y-108009348D01*
X76536041Y-107901981D01*
X76686764Y-107764579D01*
X76809673Y-107601821D01*
X76900582Y-107419250D01*
X76956397Y-107223083D01*
X76975215Y-107020000D01*
X76956397Y-106816917D01*
X76900582Y-106620750D01*
X76809673Y-106438179D01*
X76686764Y-106275421D01*
X76536041Y-106138019D01*
X76362637Y-106030652D01*
X76172456Y-105956976D01*
X76172455Y-105956975D01*
X76172453Y-105956975D01*
X75971976Y-105919500D01*
X75768024Y-105919500D01*
X75567546Y-105956975D01*
X75508953Y-105979674D01*
X75377363Y-106030652D01*
X75257287Y-106105000D01*
X75203959Y-106138019D01*
X75053237Y-106275420D01*
X74930328Y-106438177D01*
X74930323Y-106438186D01*
X74839986Y-106619609D01*
X74839418Y-106620750D01*
X74783603Y-106816917D01*
X74764785Y-107020000D01*
X74300500Y-107020000D01*
X74300500Y-104480000D01*
X74764785Y-104480000D01*
X74783603Y-104683083D01*
X74839418Y-104879250D01*
X74930327Y-105061821D01*
X75053236Y-105224579D01*
X75203959Y-105361981D01*
X75377363Y-105469348D01*
X75567544Y-105543024D01*
X75768024Y-105580500D01*
X75971976Y-105580500D01*
X76172456Y-105543024D01*
X76362637Y-105469348D01*
X76536041Y-105361981D01*
X76686764Y-105224579D01*
X76809673Y-105061821D01*
X76900582Y-104879250D01*
X76956397Y-104683083D01*
X76975215Y-104480000D01*
X76956397Y-104276917D01*
X76900582Y-104080750D01*
X76809673Y-103898179D01*
X76686764Y-103735421D01*
X76536041Y-103598019D01*
X76362637Y-103490652D01*
X76172456Y-103416976D01*
X76172455Y-103416975D01*
X76172453Y-103416975D01*
X75971976Y-103379500D01*
X75768024Y-103379500D01*
X75567546Y-103416975D01*
X75533641Y-103430110D01*
X75377363Y-103490652D01*
X75203959Y-103598018D01*
X75203959Y-103598019D01*
X75053237Y-103735420D01*
X74930328Y-103898177D01*
X74930323Y-103898186D01*
X74839419Y-104080747D01*
X74839418Y-104080750D01*
X74783603Y-104276917D01*
X74764785Y-104480000D01*
X74300500Y-104480000D01*
X74300500Y-101940000D01*
X74764785Y-101940000D01*
X74783603Y-102143083D01*
X74839418Y-102339250D01*
X74930327Y-102521821D01*
X75053236Y-102684579D01*
X75203959Y-102821981D01*
X75377363Y-102929348D01*
X75567544Y-103003024D01*
X75768024Y-103040500D01*
X75971976Y-103040500D01*
X76172456Y-103003024D01*
X76362637Y-102929348D01*
X76536041Y-102821981D01*
X76686764Y-102684579D01*
X76809673Y-102521821D01*
X76900582Y-102339250D01*
X76956397Y-102143083D01*
X76975215Y-101940000D01*
X76956397Y-101736917D01*
X76900582Y-101540750D01*
X76809673Y-101358179D01*
X76686764Y-101195421D01*
X76536041Y-101058019D01*
X76362637Y-100950652D01*
X76172456Y-100876976D01*
X76172455Y-100876975D01*
X76172453Y-100876975D01*
X75971976Y-100839500D01*
X75768024Y-100839500D01*
X75567546Y-100876975D01*
X75509263Y-100899554D01*
X75377363Y-100950652D01*
X75213010Y-101052415D01*
X75203959Y-101058019D01*
X75053237Y-101195420D01*
X74930328Y-101358177D01*
X74930323Y-101358186D01*
X74839419Y-101540747D01*
X74839418Y-101540750D01*
X74783603Y-101736917D01*
X74764785Y-101940000D01*
X74300500Y-101940000D01*
X74300500Y-99400000D01*
X74764785Y-99400000D01*
X74783603Y-99603083D01*
X74812638Y-99705130D01*
X74839419Y-99799252D01*
X74899539Y-99919991D01*
X74930327Y-99981821D01*
X75053236Y-100144579D01*
X75203959Y-100281981D01*
X75377363Y-100389348D01*
X75567544Y-100463024D01*
X75768024Y-100500500D01*
X75971976Y-100500500D01*
X76172456Y-100463024D01*
X76362637Y-100389348D01*
X76536041Y-100281981D01*
X76686764Y-100144579D01*
X76809673Y-99981821D01*
X76900582Y-99799250D01*
X76956397Y-99603083D01*
X76975215Y-99400000D01*
X76956397Y-99196917D01*
X76900582Y-99000750D01*
X76809673Y-98818179D01*
X76686764Y-98655421D01*
X76536041Y-98518019D01*
X76362637Y-98410652D01*
X76172456Y-98336976D01*
X76172455Y-98336975D01*
X76172453Y-98336975D01*
X75971976Y-98299500D01*
X75768024Y-98299500D01*
X75567546Y-98336975D01*
X75508081Y-98360012D01*
X75377363Y-98410652D01*
X75224766Y-98505136D01*
X75203959Y-98518019D01*
X75053237Y-98655420D01*
X74930328Y-98818177D01*
X74930323Y-98818186D01*
X74839419Y-99000747D01*
X74839418Y-99000750D01*
X74783603Y-99196917D01*
X74764785Y-99400000D01*
X74300500Y-99400000D01*
X74300500Y-96860000D01*
X74764785Y-96860000D01*
X74783603Y-97063083D01*
X74839418Y-97259250D01*
X74930327Y-97441821D01*
X75053236Y-97604579D01*
X75203959Y-97741981D01*
X75377363Y-97849348D01*
X75567544Y-97923024D01*
X75768024Y-97960500D01*
X75971976Y-97960500D01*
X76172456Y-97923024D01*
X76362637Y-97849348D01*
X76536041Y-97741981D01*
X76686764Y-97604579D01*
X76809673Y-97441821D01*
X76900582Y-97259250D01*
X76956397Y-97063083D01*
X76975215Y-96860000D01*
X76956397Y-96656917D01*
X76900582Y-96460750D01*
X76809673Y-96278179D01*
X76686764Y-96115421D01*
X76536041Y-95978019D01*
X76362637Y-95870652D01*
X76172456Y-95796976D01*
X76172455Y-95796975D01*
X76172453Y-95796975D01*
X75971976Y-95759500D01*
X75768024Y-95759500D01*
X75567546Y-95796975D01*
X75524552Y-95813631D01*
X75377363Y-95870652D01*
X75203959Y-95978019D01*
X75053236Y-96115421D01*
X75013387Y-96168188D01*
X74930328Y-96278177D01*
X74930323Y-96278186D01*
X74847385Y-96444750D01*
X74839418Y-96460750D01*
X74783603Y-96656917D01*
X74764785Y-96860000D01*
X74300500Y-96860000D01*
X74300500Y-94320000D01*
X74764785Y-94320000D01*
X74783603Y-94523083D01*
X74839418Y-94719250D01*
X74930327Y-94901821D01*
X75053236Y-95064579D01*
X75203959Y-95201981D01*
X75377363Y-95309348D01*
X75567544Y-95383024D01*
X75768024Y-95420500D01*
X75971976Y-95420500D01*
X76172456Y-95383024D01*
X76362637Y-95309348D01*
X76536041Y-95201981D01*
X76686764Y-95064579D01*
X76809673Y-94901821D01*
X76900582Y-94719250D01*
X76956397Y-94523083D01*
X76975215Y-94320000D01*
X76956397Y-94116917D01*
X76900582Y-93920750D01*
X76809673Y-93738179D01*
X76686764Y-93575421D01*
X76536041Y-93438019D01*
X76362637Y-93330652D01*
X76172456Y-93256976D01*
X76172455Y-93256975D01*
X76172453Y-93256975D01*
X75971976Y-93219500D01*
X75768024Y-93219500D01*
X75567546Y-93256975D01*
X75497632Y-93284059D01*
X75377363Y-93330652D01*
X75219131Y-93428625D01*
X75203959Y-93438019D01*
X75101183Y-93531712D01*
X75053236Y-93575421D01*
X75022860Y-93615645D01*
X74930328Y-93738177D01*
X74930323Y-93738186D01*
X74839419Y-93920747D01*
X74839418Y-93920750D01*
X74783603Y-94116917D01*
X74764785Y-94320000D01*
X74300500Y-94320000D01*
X74300500Y-91780000D01*
X74764785Y-91780000D01*
X74783603Y-91983083D01*
X74839418Y-92179250D01*
X74930327Y-92361821D01*
X75053236Y-92524579D01*
X75203959Y-92661981D01*
X75377363Y-92769348D01*
X75567544Y-92843024D01*
X75768024Y-92880500D01*
X75971976Y-92880500D01*
X76172456Y-92843024D01*
X76362637Y-92769348D01*
X76536041Y-92661981D01*
X76686764Y-92524579D01*
X76809673Y-92361821D01*
X76900582Y-92179250D01*
X76956397Y-91983083D01*
X76975215Y-91780000D01*
X76956397Y-91576917D01*
X76900582Y-91380750D01*
X76809673Y-91198179D01*
X76686764Y-91035421D01*
X76536041Y-90898019D01*
X76362637Y-90790652D01*
X76172456Y-90716976D01*
X76172455Y-90716975D01*
X76172453Y-90716975D01*
X75971976Y-90679500D01*
X75768024Y-90679500D01*
X75567546Y-90716975D01*
X75548256Y-90724448D01*
X75377363Y-90790652D01*
X75203959Y-90898018D01*
X75203959Y-90898019D01*
X75053237Y-91035420D01*
X74930328Y-91198177D01*
X74930323Y-91198186D01*
X74857858Y-91343717D01*
X74839418Y-91380750D01*
X74783603Y-91576917D01*
X74764785Y-91780000D01*
X74300500Y-91780000D01*
X74300500Y-89240000D01*
X74764785Y-89240000D01*
X74783603Y-89443083D01*
X74839418Y-89639250D01*
X74930327Y-89821821D01*
X75053236Y-89984579D01*
X75203959Y-90121981D01*
X75377363Y-90229348D01*
X75567544Y-90303024D01*
X75768024Y-90340500D01*
X75971976Y-90340500D01*
X76172456Y-90303024D01*
X76362637Y-90229348D01*
X76536041Y-90121981D01*
X76686764Y-89984579D01*
X76809673Y-89821821D01*
X76900582Y-89639250D01*
X76956397Y-89443083D01*
X76975215Y-89240000D01*
X76956397Y-89036917D01*
X76900582Y-88840750D01*
X76809673Y-88658179D01*
X76686764Y-88495421D01*
X76536041Y-88358019D01*
X76362637Y-88250652D01*
X76172456Y-88176976D01*
X76172455Y-88176975D01*
X76172453Y-88176975D01*
X75971976Y-88139500D01*
X75768024Y-88139500D01*
X75567546Y-88176975D01*
X75532203Y-88190667D01*
X75377363Y-88250652D01*
X75290483Y-88304446D01*
X75203959Y-88358019D01*
X75089778Y-88462109D01*
X75053236Y-88495421D01*
X75052435Y-88496482D01*
X74930328Y-88658177D01*
X74930323Y-88658186D01*
X74839419Y-88840747D01*
X74839418Y-88840750D01*
X74836786Y-88850000D01*
X74783603Y-89036917D01*
X74773125Y-89150000D01*
X74764785Y-89240000D01*
X74300500Y-89240000D01*
X74300500Y-86700000D01*
X74764785Y-86700000D01*
X74783603Y-86903083D01*
X74839418Y-87099250D01*
X74930327Y-87281821D01*
X75053236Y-87444579D01*
X75203959Y-87581981D01*
X75377363Y-87689348D01*
X75567544Y-87763024D01*
X75768024Y-87800500D01*
X75971976Y-87800500D01*
X76172456Y-87763024D01*
X76362637Y-87689348D01*
X76536041Y-87581981D01*
X76686764Y-87444579D01*
X76809673Y-87281821D01*
X76900582Y-87099250D01*
X76956397Y-86903083D01*
X76975215Y-86700000D01*
X76956397Y-86496917D01*
X76900582Y-86300750D01*
X76809673Y-86118179D01*
X76686764Y-85955421D01*
X76536041Y-85818019D01*
X76362637Y-85710652D01*
X76172456Y-85636976D01*
X76172455Y-85636975D01*
X76172453Y-85636975D01*
X75971976Y-85599500D01*
X75768024Y-85599500D01*
X75567546Y-85636975D01*
X75497632Y-85664059D01*
X75377363Y-85710652D01*
X75300341Y-85758342D01*
X75203959Y-85818019D01*
X75053237Y-85955420D01*
X74930328Y-86118177D01*
X74930323Y-86118186D01*
X74839419Y-86300747D01*
X74839418Y-86300750D01*
X74783603Y-86496917D01*
X74764785Y-86700000D01*
X74300500Y-86700000D01*
X74300500Y-84160000D01*
X74764785Y-84160000D01*
X74783603Y-84363083D01*
X74839418Y-84559250D01*
X74930327Y-84741821D01*
X75053236Y-84904579D01*
X75203959Y-85041981D01*
X75377363Y-85149348D01*
X75567544Y-85223024D01*
X75768024Y-85260500D01*
X75971976Y-85260500D01*
X76172456Y-85223024D01*
X76362637Y-85149348D01*
X76536041Y-85041981D01*
X76686764Y-84904579D01*
X76809673Y-84741821D01*
X76900582Y-84559250D01*
X76956397Y-84363083D01*
X76975215Y-84160000D01*
X76956397Y-83956917D01*
X76900582Y-83760750D01*
X76809673Y-83578179D01*
X76686764Y-83415421D01*
X76536041Y-83278019D01*
X76362637Y-83170652D01*
X76172456Y-83096976D01*
X76172455Y-83096975D01*
X76172453Y-83096975D01*
X75971976Y-83059500D01*
X75768024Y-83059500D01*
X75567546Y-83096975D01*
X75556168Y-83101383D01*
X75377363Y-83170652D01*
X75268652Y-83237963D01*
X75203959Y-83278019D01*
X75053237Y-83415420D01*
X74930328Y-83578177D01*
X74930323Y-83578186D01*
X74839419Y-83760747D01*
X74839418Y-83760750D01*
X74783603Y-83956917D01*
X74764785Y-84160000D01*
X74300500Y-84160000D01*
X74300500Y-81620000D01*
X74764785Y-81620000D01*
X74783603Y-81823083D01*
X74839418Y-82019250D01*
X74930327Y-82201821D01*
X75053236Y-82364579D01*
X75203959Y-82501981D01*
X75377363Y-82609348D01*
X75567544Y-82683024D01*
X75768024Y-82720500D01*
X75971976Y-82720500D01*
X76172456Y-82683024D01*
X76362637Y-82609348D01*
X76536041Y-82501981D01*
X76686764Y-82364579D01*
X76809673Y-82201821D01*
X76900582Y-82019250D01*
X76956397Y-81823083D01*
X76975215Y-81620000D01*
X76956397Y-81416917D01*
X76900582Y-81220750D01*
X76809673Y-81038179D01*
X76686764Y-80875421D01*
X76536041Y-80738019D01*
X76362637Y-80630652D01*
X76172456Y-80556976D01*
X76172455Y-80556975D01*
X76172453Y-80556975D01*
X75971976Y-80519500D01*
X75768024Y-80519500D01*
X75567546Y-80556975D01*
X75497632Y-80584059D01*
X75377363Y-80630652D01*
X75203959Y-80738019D01*
X75053236Y-80875421D01*
X75016632Y-80923893D01*
X74930328Y-81038177D01*
X74930323Y-81038186D01*
X74839419Y-81220747D01*
X74839418Y-81220750D01*
X74800794Y-81356498D01*
X74783603Y-81416917D01*
X74773096Y-81530313D01*
X74764785Y-81620000D01*
X74300500Y-81620000D01*
X74300500Y-79080000D01*
X74764785Y-79080000D01*
X74783603Y-79283083D01*
X74839418Y-79479250D01*
X74930327Y-79661821D01*
X75053236Y-79824579D01*
X75203959Y-79961981D01*
X75377363Y-80069348D01*
X75567544Y-80143024D01*
X75768024Y-80180500D01*
X75971976Y-80180500D01*
X76172456Y-80143024D01*
X76362637Y-80069348D01*
X76536041Y-79961981D01*
X76686764Y-79824579D01*
X76809673Y-79661821D01*
X76900582Y-79479250D01*
X76956397Y-79283083D01*
X76975215Y-79080000D01*
X76956397Y-78876917D01*
X76900582Y-78680750D01*
X76809673Y-78498179D01*
X76686764Y-78335421D01*
X76536041Y-78198019D01*
X76362637Y-78090652D01*
X76172456Y-78016976D01*
X76172455Y-78016975D01*
X76172453Y-78016975D01*
X75971976Y-77979500D01*
X75768024Y-77979500D01*
X75567546Y-78016975D01*
X75524609Y-78033609D01*
X75377363Y-78090652D01*
X75291673Y-78143709D01*
X75203959Y-78198019D01*
X75061231Y-78328133D01*
X75053236Y-78335421D01*
X75013388Y-78388188D01*
X74930328Y-78498177D01*
X74930323Y-78498186D01*
X74842118Y-78675327D01*
X74839418Y-78680750D01*
X74783603Y-78876917D01*
X74764785Y-79080000D01*
X74300500Y-79080000D01*
X74300500Y-78892636D01*
X74311483Y-78430593D01*
X74356424Y-76539999D01*
X74764785Y-76539999D01*
X74783603Y-76743082D01*
X74839419Y-76939252D01*
X74902196Y-77065327D01*
X74930327Y-77121821D01*
X75053236Y-77284579D01*
X75203959Y-77421981D01*
X75377363Y-77529348D01*
X75567544Y-77603024D01*
X75768024Y-77640500D01*
X75971976Y-77640500D01*
X76172456Y-77603024D01*
X76362637Y-77529348D01*
X76536041Y-77421981D01*
X76686764Y-77284579D01*
X76809673Y-77121821D01*
X76900582Y-76939250D01*
X76956397Y-76743083D01*
X76975215Y-76540000D01*
X76956397Y-76336917D01*
X76900582Y-76140750D01*
X76809673Y-75958179D01*
X76686764Y-75795421D01*
X76536041Y-75658019D01*
X76362637Y-75550652D01*
X76172456Y-75476976D01*
X76172455Y-75476975D01*
X76172453Y-75476975D01*
X75971976Y-75439500D01*
X75768024Y-75439500D01*
X75567546Y-75476975D01*
X75547678Y-75484672D01*
X75377363Y-75550652D01*
X75216103Y-75650500D01*
X75203959Y-75658019D01*
X75086474Y-75765121D01*
X75053236Y-75795421D01*
X75025160Y-75832600D01*
X74930328Y-75958177D01*
X74930323Y-75958186D01*
X74839419Y-76140747D01*
X74839418Y-76140750D01*
X74838576Y-76143709D01*
X74783603Y-76336917D01*
X74764785Y-76539999D01*
X74356424Y-76539999D01*
X74396010Y-74874672D01*
X74769500Y-74874672D01*
X74769501Y-74874684D01*
X74784033Y-74947736D01*
X74784035Y-74947742D01*
X74839397Y-75030599D01*
X74839399Y-75030601D01*
X74922260Y-75085966D01*
X74977808Y-75097015D01*
X74995315Y-75100498D01*
X74995320Y-75100498D01*
X74995326Y-75100500D01*
X74995327Y-75100500D01*
X76744673Y-75100500D01*
X76744674Y-75100500D01*
X76817740Y-75085966D01*
X76900601Y-75030601D01*
X76955966Y-74947740D01*
X76970500Y-74874674D01*
X76970500Y-74150000D01*
X77268973Y-74150000D01*
X77274738Y-74212216D01*
X77333064Y-74417210D01*
X77428057Y-74607983D01*
X77428062Y-74607992D01*
X77556496Y-74778064D01*
X77556506Y-74778075D01*
X77713995Y-74921647D01*
X77713994Y-74921647D01*
X77895206Y-75033847D01*
X78093941Y-75110838D01*
X78259999Y-75141880D01*
X78260000Y-75141880D01*
X78260000Y-74597827D01*
X78278907Y-74539636D01*
X78328407Y-74503672D01*
X78370682Y-74500044D01*
X78370704Y-74499748D01*
X78372579Y-74499882D01*
X78373103Y-74499837D01*
X78373507Y-74499895D01*
X78374236Y-74500000D01*
X78374237Y-74500000D01*
X78445764Y-74500000D01*
X78446493Y-74499895D01*
X78446896Y-74499837D01*
X78447233Y-74499895D01*
X78449296Y-74499748D01*
X78449332Y-74500258D01*
X78507187Y-74510261D01*
X78549836Y-74554133D01*
X78560000Y-74597827D01*
X78560000Y-75141880D01*
X78726058Y-75110838D01*
X78924793Y-75033847D01*
X79106004Y-74921647D01*
X79263493Y-74778075D01*
X79263503Y-74778064D01*
X79391937Y-74607992D01*
X79391942Y-74607983D01*
X79486935Y-74417210D01*
X79545261Y-74212216D01*
X79551027Y-74150000D01*
X79009000Y-74150000D01*
X78950809Y-74131093D01*
X78914845Y-74081593D01*
X78910000Y-74051000D01*
X78910000Y-74000000D01*
X83674457Y-74000000D01*
X83694608Y-74307457D01*
X83754721Y-74609665D01*
X83853764Y-74901433D01*
X83990039Y-75177770D01*
X84161215Y-75433953D01*
X84161222Y-75433964D01*
X84364380Y-75665620D01*
X84596036Y-75868778D01*
X84852229Y-76039960D01*
X85128566Y-76176235D01*
X85128568Y-76176235D01*
X85128573Y-76176238D01*
X85307401Y-76236942D01*
X85420334Y-76275278D01*
X85420336Y-76275278D01*
X85420341Y-76275280D01*
X85722540Y-76335391D01*
X85953059Y-76350500D01*
X86106941Y-76350500D01*
X86337460Y-76335391D01*
X86639659Y-76275280D01*
X86931427Y-76176238D01*
X87207771Y-76039960D01*
X87463964Y-75868778D01*
X87695620Y-75665620D01*
X87898778Y-75433964D01*
X88069960Y-75177772D01*
X88206238Y-74901427D01*
X88305280Y-74609659D01*
X88365391Y-74307460D01*
X88385543Y-74000000D01*
X90004785Y-74000000D01*
X90023603Y-74203083D01*
X90079418Y-74399250D01*
X90170327Y-74581821D01*
X90293236Y-74744579D01*
X90443959Y-74881981D01*
X90617363Y-74989348D01*
X90807544Y-75063024D01*
X91008024Y-75100500D01*
X91211976Y-75100500D01*
X91412456Y-75063024D01*
X91602637Y-74989348D01*
X91776041Y-74881981D01*
X91926764Y-74744579D01*
X92049673Y-74581821D01*
X92140582Y-74399250D01*
X92196397Y-74203083D01*
X92215215Y-74000000D01*
X92196397Y-73796917D01*
X92140582Y-73600750D01*
X92049673Y-73418179D01*
X91926764Y-73255421D01*
X91776041Y-73118019D01*
X91602637Y-73010652D01*
X91412456Y-72936976D01*
X91412455Y-72936975D01*
X91412453Y-72936975D01*
X91211976Y-72899500D01*
X91008024Y-72899500D01*
X90807546Y-72936975D01*
X90737632Y-72964059D01*
X90617363Y-73010652D01*
X90443958Y-73118019D01*
X90443959Y-73118019D01*
X90293237Y-73255420D01*
X90170328Y-73418177D01*
X90170323Y-73418186D01*
X90103563Y-73552260D01*
X90079418Y-73600750D01*
X90023603Y-73796917D01*
X90004785Y-74000000D01*
X88385543Y-74000000D01*
X88385225Y-73995155D01*
X88371789Y-73790156D01*
X88365391Y-73692540D01*
X88305280Y-73390341D01*
X88301882Y-73380332D01*
X88248110Y-73221924D01*
X88206238Y-73098573D01*
X88196266Y-73078352D01*
X88069960Y-72822229D01*
X87898778Y-72566036D01*
X87695620Y-72334380D01*
X87463964Y-72131222D01*
X87429827Y-72108412D01*
X87207770Y-71960039D01*
X86931433Y-71823764D01*
X86639665Y-71724721D01*
X86337457Y-71664608D01*
X86106941Y-71649500D01*
X85953059Y-71649500D01*
X85722542Y-71664608D01*
X85420334Y-71724721D01*
X85128566Y-71823764D01*
X84852229Y-71960039D01*
X84596036Y-72131221D01*
X84596035Y-72131223D01*
X84364382Y-72334378D01*
X84364378Y-72334382D01*
X84161223Y-72566035D01*
X84161214Y-72566046D01*
X83990044Y-72822220D01*
X83990040Y-72822226D01*
X83853764Y-73098566D01*
X83754721Y-73390334D01*
X83694608Y-73692542D01*
X83674457Y-73999999D01*
X83674457Y-74000000D01*
X78910000Y-74000000D01*
X78910000Y-73949000D01*
X78928907Y-73890809D01*
X78978407Y-73854845D01*
X79009000Y-73850000D01*
X79551026Y-73850000D01*
X79545261Y-73787783D01*
X79486935Y-73582789D01*
X79391942Y-73392016D01*
X79391937Y-73392007D01*
X79263503Y-73221935D01*
X79263493Y-73221924D01*
X79106004Y-73078352D01*
X79106005Y-73078352D01*
X78924793Y-72966152D01*
X78726061Y-72889162D01*
X78726055Y-72889160D01*
X78560000Y-72858118D01*
X78560000Y-73402172D01*
X78541093Y-73460363D01*
X78491593Y-73496327D01*
X78449316Y-73499958D01*
X78449296Y-73500252D01*
X78447444Y-73500119D01*
X78446917Y-73500165D01*
X78445769Y-73500000D01*
X78445763Y-73500000D01*
X78374237Y-73500000D01*
X78374231Y-73500000D01*
X78373083Y-73500165D01*
X78372743Y-73500106D01*
X78370704Y-73500252D01*
X78370667Y-73499746D01*
X78312795Y-73489728D01*
X78270155Y-73445848D01*
X78260000Y-73402172D01*
X78260000Y-72858119D01*
X78259999Y-72858118D01*
X78093944Y-72889160D01*
X78093938Y-72889162D01*
X77895206Y-72966152D01*
X77713995Y-73078352D01*
X77556506Y-73221924D01*
X77556496Y-73221935D01*
X77428062Y-73392007D01*
X77428057Y-73392016D01*
X77333064Y-73582789D01*
X77274738Y-73787783D01*
X77268973Y-73850000D01*
X77811000Y-73850000D01*
X77869191Y-73868907D01*
X77905155Y-73918407D01*
X77910000Y-73949000D01*
X77910000Y-74051000D01*
X77891093Y-74109191D01*
X77841593Y-74145155D01*
X77811000Y-74150000D01*
X77268973Y-74150000D01*
X76970500Y-74150000D01*
X76970500Y-73125326D01*
X76955966Y-73052260D01*
X76900601Y-72969399D01*
X76900599Y-72969397D01*
X76817742Y-72914035D01*
X76817740Y-72914034D01*
X76817737Y-72914033D01*
X76817736Y-72914033D01*
X76744684Y-72899501D01*
X76744674Y-72899500D01*
X74995326Y-72899500D01*
X74995325Y-72899500D01*
X74995315Y-72899501D01*
X74922263Y-72914033D01*
X74922257Y-72914035D01*
X74839400Y-72969397D01*
X74839397Y-72969400D01*
X74784035Y-73052257D01*
X74784033Y-73052263D01*
X74769501Y-73125315D01*
X74769500Y-73125327D01*
X74769500Y-74874672D01*
X74396010Y-74874672D01*
X74461923Y-72101825D01*
X74469428Y-72066304D01*
X74566773Y-71831294D01*
X74569175Y-71826306D01*
X74712931Y-71566197D01*
X74715869Y-71561521D01*
X74887838Y-71319155D01*
X74891293Y-71314821D01*
X75089324Y-71093224D01*
X75093224Y-71089324D01*
X75314821Y-70891293D01*
X75319159Y-70887835D01*
X75413846Y-70820651D01*
X75561521Y-70715869D01*
X75566197Y-70712931D01*
X75826306Y-70569175D01*
X75831294Y-70566773D01*
X75895397Y-70540221D01*
X75974307Y-70507536D01*
X76012192Y-70500000D01*
X96328172Y-70500000D01*
X96386363Y-70518907D01*
G37*
G04 #@! TD.AperFunction*
G04 #@! TA.AperFunction,Conductor*
G36*
X100973538Y-108026437D02*
G01*
X101019033Y-108059491D01*
X101019139Y-108059629D01*
X101107379Y-108174625D01*
X101113432Y-108179270D01*
X101130321Y-108192229D01*
X101164977Y-108242653D01*
X101163376Y-108303817D01*
X101126129Y-108352359D01*
X101067463Y-108369737D01*
X101038240Y-108364520D01*
X101029025Y-108361393D01*
X101029024Y-108361392D01*
X101006397Y-108355331D01*
X101006396Y-108355331D01*
X101006385Y-108355328D01*
X100991453Y-108352359D01*
X100989985Y-108352067D01*
X100989986Y-108352067D01*
X100940807Y-108345594D01*
X100924114Y-108344500D01*
X100888547Y-108344500D01*
X100888534Y-108344500D01*
X100848720Y-108349573D01*
X100788606Y-108338171D01*
X100746675Y-108293613D01*
X100738943Y-108232918D01*
X100768363Y-108179270D01*
X100772314Y-108175910D01*
X100773606Y-108174617D01*
X100773615Y-108174611D01*
X100861855Y-108059615D01*
X100861855Y-108059613D01*
X100861949Y-108059492D01*
X100912373Y-108024836D01*
X100973538Y-108026437D01*
G37*
G04 #@! TD.AperFunction*
G04 #@! TA.AperFunction,Conductor*
G36*
X100267014Y-97070337D02*
G01*
X100297772Y-97123229D01*
X100300000Y-97144114D01*
X100300000Y-97297554D01*
X100313381Y-97309127D01*
X100331002Y-97312143D01*
X100373727Y-97355940D01*
X100382549Y-97416486D01*
X100354098Y-97470655D01*
X100345235Y-97478330D01*
X100307385Y-97507373D01*
X100302791Y-97511968D01*
X100301488Y-97510665D01*
X100258196Y-97540422D01*
X100230074Y-97544500D01*
X97868425Y-97544500D01*
X97857289Y-97544986D01*
X97838885Y-97546596D01*
X97827803Y-97547808D01*
X97733394Y-97579857D01*
X97689561Y-97605164D01*
X97689556Y-97605168D01*
X97628939Y-97653819D01*
X97628938Y-97653821D01*
X97577221Y-97739047D01*
X97577220Y-97739048D01*
X97559910Y-97786606D01*
X97544500Y-97873997D01*
X97544500Y-102131575D01*
X97544986Y-102142711D01*
X97546596Y-102161115D01*
X97547808Y-102172196D01*
X97579857Y-102266605D01*
X97605164Y-102310438D01*
X97605168Y-102310443D01*
X97628290Y-102339252D01*
X97653819Y-102371060D01*
X97739046Y-102422778D01*
X97739047Y-102422778D01*
X97739048Y-102422779D01*
X97786606Y-102440089D01*
X97786612Y-102440091D01*
X97873998Y-102455499D01*
X97873999Y-102455500D01*
X97874000Y-102455500D01*
X99916289Y-102455500D01*
X99974480Y-102474407D01*
X100002025Y-102505000D01*
X100005166Y-102510440D01*
X100053819Y-102571060D01*
X100053820Y-102571061D01*
X100054946Y-102572463D01*
X100076624Y-102629679D01*
X100060531Y-102688710D01*
X100021220Y-102723370D01*
X99979857Y-102743592D01*
X99924965Y-102752992D01*
X99894868Y-102749500D01*
X99705138Y-102749500D01*
X99705135Y-102749501D01*
X99680007Y-102752415D01*
X99639986Y-102770086D01*
X99579116Y-102776294D01*
X99560016Y-102770087D01*
X99519991Y-102752415D01*
X99519990Y-102752414D01*
X99519988Y-102752414D01*
X99494868Y-102749500D01*
X99305138Y-102749500D01*
X99305135Y-102749501D01*
X99280007Y-102752415D01*
X99239986Y-102770086D01*
X99179116Y-102776294D01*
X99160016Y-102770087D01*
X99119991Y-102752415D01*
X99119990Y-102752414D01*
X99119988Y-102752414D01*
X99094868Y-102749500D01*
X98905138Y-102749500D01*
X98905135Y-102749501D01*
X98880007Y-102752415D01*
X98839986Y-102770086D01*
X98779116Y-102776294D01*
X98760016Y-102770087D01*
X98719991Y-102752415D01*
X98719990Y-102752414D01*
X98719988Y-102752414D01*
X98694868Y-102749500D01*
X98505138Y-102749500D01*
X98505135Y-102749501D01*
X98480007Y-102752415D01*
X98439986Y-102770086D01*
X98379116Y-102776294D01*
X98360016Y-102770087D01*
X98319991Y-102752415D01*
X98319990Y-102752414D01*
X98319988Y-102752414D01*
X98294868Y-102749500D01*
X98105138Y-102749500D01*
X98105135Y-102749501D01*
X98080007Y-102752415D01*
X98039986Y-102770086D01*
X97979116Y-102776294D01*
X97960016Y-102770087D01*
X97919991Y-102752415D01*
X97919990Y-102752414D01*
X97919988Y-102752414D01*
X97894868Y-102749500D01*
X97705138Y-102749500D01*
X97705135Y-102749501D01*
X97680007Y-102752415D01*
X97639986Y-102770086D01*
X97579116Y-102776294D01*
X97560016Y-102770087D01*
X97519991Y-102752415D01*
X97519990Y-102752414D01*
X97519988Y-102752414D01*
X97494869Y-102749500D01*
X97349499Y-102749500D01*
X97291308Y-102730593D01*
X97255344Y-102681093D01*
X97250499Y-102650504D01*
X97250499Y-102505136D01*
X97247585Y-102480009D01*
X97229959Y-102440091D01*
X97229914Y-102439988D01*
X97223705Y-102379119D01*
X97229911Y-102360017D01*
X97247585Y-102319991D01*
X97250500Y-102294865D01*
X97250499Y-102105136D01*
X97247585Y-102080009D01*
X97229914Y-102039988D01*
X97223705Y-101979119D01*
X97229911Y-101960017D01*
X97247585Y-101919991D01*
X97250500Y-101894865D01*
X97250499Y-101705136D01*
X97247585Y-101680009D01*
X97229914Y-101639988D01*
X97223705Y-101579119D01*
X97229911Y-101560017D01*
X97247585Y-101519991D01*
X97250500Y-101494865D01*
X97250499Y-101305136D01*
X97247585Y-101280009D01*
X97247584Y-101280007D01*
X97247007Y-101275028D01*
X97256407Y-101220142D01*
X97290087Y-101151246D01*
X97297554Y-101100000D01*
X97148644Y-101100000D01*
X97108660Y-101091566D01*
X97106392Y-101090565D01*
X97060797Y-101049767D01*
X97047890Y-100989958D01*
X97072602Y-100933986D01*
X97106392Y-100909435D01*
X97108660Y-100908433D01*
X97148644Y-100900000D01*
X97297553Y-100900000D01*
X97290087Y-100848749D01*
X97256407Y-100779856D01*
X97247008Y-100724965D01*
X97247585Y-100719991D01*
X97250500Y-100694865D01*
X97250499Y-100505136D01*
X97247585Y-100480009D01*
X97229914Y-100439988D01*
X97223705Y-100379119D01*
X97229911Y-100360017D01*
X97247585Y-100319991D01*
X97250500Y-100294865D01*
X97250499Y-100105136D01*
X97247585Y-100080009D01*
X97229914Y-100039988D01*
X97223705Y-99979119D01*
X97229911Y-99960017D01*
X97247585Y-99919991D01*
X97250500Y-99894865D01*
X97250499Y-99705136D01*
X97247585Y-99680009D01*
X97229914Y-99639988D01*
X97223705Y-99579119D01*
X97229911Y-99560017D01*
X97247585Y-99519991D01*
X97250500Y-99494865D01*
X97250499Y-99305136D01*
X97247585Y-99280009D01*
X97229914Y-99239988D01*
X97223705Y-99179119D01*
X97229911Y-99160017D01*
X97247585Y-99119991D01*
X97250500Y-99094865D01*
X97250499Y-98905136D01*
X97247585Y-98880009D01*
X97229914Y-98839988D01*
X97223705Y-98779119D01*
X97229911Y-98760017D01*
X97247585Y-98719991D01*
X97250500Y-98694865D01*
X97250499Y-98505136D01*
X97247585Y-98480009D01*
X97236620Y-98455175D01*
X97229914Y-98439988D01*
X97223705Y-98379119D01*
X97229911Y-98360017D01*
X97247585Y-98319991D01*
X97250500Y-98294865D01*
X97250499Y-98105136D01*
X97247585Y-98080009D01*
X97238529Y-98059500D01*
X97229914Y-98039988D01*
X97223705Y-97979119D01*
X97229911Y-97960017D01*
X97247585Y-97919991D01*
X97250500Y-97894865D01*
X97250499Y-97705136D01*
X97247585Y-97680009D01*
X97247584Y-97680007D01*
X97247007Y-97675028D01*
X97256407Y-97620142D01*
X97290087Y-97551246D01*
X97297554Y-97500000D01*
X97148644Y-97500000D01*
X97108654Y-97491563D01*
X97104122Y-97489562D01*
X97058529Y-97448760D01*
X97045626Y-97388950D01*
X97070343Y-97332980D01*
X97123238Y-97302226D01*
X97144115Y-97300000D01*
X97297555Y-97300000D01*
X97310753Y-97284739D01*
X97363119Y-97253093D01*
X97385628Y-97250499D01*
X97494864Y-97250499D01*
X97519991Y-97247585D01*
X97560011Y-97229913D01*
X97620879Y-97223705D01*
X97639989Y-97229914D01*
X97680009Y-97247585D01*
X97680008Y-97247585D01*
X97684478Y-97248103D01*
X97705135Y-97250500D01*
X97894864Y-97250499D01*
X97919991Y-97247585D01*
X97960011Y-97229913D01*
X98020879Y-97223705D01*
X98039989Y-97229914D01*
X98080009Y-97247585D01*
X98080008Y-97247585D01*
X98084478Y-97248103D01*
X98105135Y-97250500D01*
X98294864Y-97250499D01*
X98319991Y-97247585D01*
X98360011Y-97229913D01*
X98420879Y-97223705D01*
X98439989Y-97229914D01*
X98480009Y-97247585D01*
X98480008Y-97247585D01*
X98484478Y-97248103D01*
X98505135Y-97250500D01*
X98694864Y-97250499D01*
X98719991Y-97247585D01*
X98760011Y-97229913D01*
X98820879Y-97223705D01*
X98839989Y-97229914D01*
X98880009Y-97247585D01*
X98880008Y-97247585D01*
X98884478Y-97248103D01*
X98905135Y-97250500D01*
X99094864Y-97250499D01*
X99119991Y-97247585D01*
X99160011Y-97229913D01*
X99220879Y-97223705D01*
X99239989Y-97229914D01*
X99280009Y-97247585D01*
X99280008Y-97247585D01*
X99284478Y-97248103D01*
X99305135Y-97250500D01*
X99494864Y-97250499D01*
X99519991Y-97247585D01*
X99560011Y-97229913D01*
X99620879Y-97223705D01*
X99639989Y-97229914D01*
X99680009Y-97247585D01*
X99680008Y-97247585D01*
X99684478Y-97248103D01*
X99705135Y-97250500D01*
X99894864Y-97250499D01*
X99919991Y-97247585D01*
X99919992Y-97247584D01*
X99924971Y-97247007D01*
X99979856Y-97256407D01*
X100048751Y-97290087D01*
X100100000Y-97297554D01*
X100100000Y-97148644D01*
X100108434Y-97108659D01*
X100110435Y-97104127D01*
X100151233Y-97058532D01*
X100211042Y-97045625D01*
X100267014Y-97070337D01*
G37*
G04 #@! TD.AperFunction*
G04 #@! TA.AperFunction,Conductor*
G36*
X99042402Y-104648742D02*
G01*
X99072917Y-104712846D01*
X99074500Y-104732756D01*
X99074500Y-104750844D01*
X99054498Y-104818965D01*
X99037595Y-104839939D01*
X97581843Y-106295691D01*
X97577792Y-106299403D01*
X97546806Y-106325405D01*
X97546804Y-106325408D01*
X97526589Y-106360419D01*
X97523638Y-106365052D01*
X97500445Y-106398177D01*
X97497873Y-106403693D01*
X97491493Y-106419096D01*
X97489412Y-106424813D01*
X97482392Y-106464622D01*
X97481203Y-106469987D01*
X97470736Y-106509053D01*
X97470736Y-106509054D01*
X97473340Y-106538819D01*
X97474260Y-106549326D01*
X97474500Y-106554820D01*
X97474500Y-108012982D01*
X97454498Y-108081103D01*
X97437595Y-108102078D01*
X97147076Y-108392596D01*
X97084764Y-108426621D01*
X97057982Y-108429500D01*
X96821176Y-108429500D01*
X96775832Y-108436681D01*
X96705421Y-108427579D01*
X96667031Y-108401327D01*
X96577516Y-108311812D01*
X96577512Y-108311809D01*
X96436698Y-108228531D01*
X96280000Y-108183006D01*
X96280000Y-109816993D01*
X96436695Y-109771470D01*
X96577511Y-109688190D01*
X96667030Y-109598672D01*
X96729342Y-109564647D01*
X96775831Y-109563318D01*
X96821177Y-109570500D01*
X97057982Y-109570499D01*
X97126103Y-109590501D01*
X97147078Y-109607404D01*
X97288095Y-109748421D01*
X97322121Y-109810733D01*
X97325000Y-109837516D01*
X97325000Y-111595482D01*
X97304998Y-111663603D01*
X97288095Y-111684578D01*
X96606594Y-112366078D01*
X96544282Y-112400103D01*
X96473466Y-112395038D01*
X96416631Y-112352491D01*
X96391820Y-112285971D01*
X96391500Y-112277009D01*
X96391500Y-112041326D01*
X96376966Y-111968260D01*
X96321601Y-111885399D01*
X96238740Y-111830034D01*
X96238739Y-111830033D01*
X96165677Y-111815500D01*
X96165674Y-111815500D01*
X90516326Y-111815500D01*
X90516322Y-111815500D01*
X90443260Y-111830033D01*
X90360399Y-111885399D01*
X90305033Y-111968260D01*
X90290500Y-112041322D01*
X90290500Y-114190677D01*
X90305033Y-114263739D01*
X90305034Y-114263740D01*
X90360399Y-114346601D01*
X90443260Y-114401966D01*
X90516326Y-114416500D01*
X96165674Y-114416500D01*
X96238740Y-114401966D01*
X96321601Y-114346601D01*
X96376966Y-114263740D01*
X96391500Y-114190674D01*
X96391500Y-113526221D01*
X96411502Y-113458100D01*
X96449670Y-113424764D01*
X96447650Y-113421880D01*
X96456684Y-113415554D01*
X96489817Y-113392352D01*
X96494428Y-113389415D01*
X96529455Y-113369194D01*
X96555453Y-113338209D01*
X96559146Y-113334178D01*
X97751908Y-112141417D01*
X97814216Y-112107394D01*
X97885031Y-112112459D01*
X97930094Y-112141420D01*
X99122844Y-113334170D01*
X99126547Y-113338211D01*
X99152545Y-113369194D01*
X99178777Y-113384339D01*
X99187558Y-113389409D01*
X99192196Y-113392363D01*
X99234347Y-113421878D01*
X99232283Y-113424824D01*
X99271028Y-113458931D01*
X99290500Y-113526221D01*
X99290500Y-114190677D01*
X99305033Y-114263739D01*
X99305034Y-114263740D01*
X99360399Y-114346601D01*
X99443260Y-114401966D01*
X99516326Y-114416500D01*
X105165674Y-114416500D01*
X105238740Y-114401966D01*
X105321601Y-114346601D01*
X105376966Y-114263740D01*
X105391500Y-114190674D01*
X105391500Y-112041326D01*
X105376966Y-111968260D01*
X105321601Y-111885399D01*
X105238740Y-111830034D01*
X105238739Y-111830033D01*
X105165677Y-111815500D01*
X105165674Y-111815500D01*
X99516326Y-111815500D01*
X99516322Y-111815500D01*
X99443260Y-111830033D01*
X99360399Y-111885399D01*
X99305033Y-111968260D01*
X99290500Y-112041322D01*
X99290500Y-112276984D01*
X99270498Y-112345105D01*
X99216842Y-112391598D01*
X99146568Y-112401702D01*
X99081988Y-112372208D01*
X99075418Y-112366092D01*
X98393904Y-111684578D01*
X98359879Y-111622266D01*
X98357000Y-111595483D01*
X98357000Y-109958015D01*
X98377002Y-109889894D01*
X98393899Y-109868925D01*
X98664549Y-109598275D01*
X98726858Y-109564253D01*
X98773350Y-109562925D01*
X98821177Y-109570500D01*
X99178822Y-109570499D01*
X99224164Y-109563318D01*
X99294575Y-109572418D01*
X99332968Y-109598672D01*
X99422483Y-109688187D01*
X99422487Y-109688190D01*
X99563304Y-109771470D01*
X99719999Y-109816993D01*
X99720000Y-109816993D01*
X99720000Y-109250000D01*
X100220000Y-109250000D01*
X100220000Y-109816993D01*
X100376695Y-109771470D01*
X100517512Y-109688190D01*
X100517516Y-109688187D01*
X100633187Y-109572516D01*
X100633190Y-109572512D01*
X100716467Y-109431699D01*
X100762111Y-109274595D01*
X100762111Y-109274594D01*
X100764047Y-109250000D01*
X100220000Y-109250000D01*
X99720000Y-109250000D01*
X99720000Y-108876000D01*
X99740002Y-108807879D01*
X99793658Y-108761386D01*
X99846000Y-108750000D01*
X100764046Y-108750000D01*
X100764045Y-108749999D01*
X100762935Y-108735882D01*
X100777533Y-108666402D01*
X100827377Y-108615844D01*
X100888547Y-108600000D01*
X100915752Y-108600000D01*
X100948353Y-108604291D01*
X100954834Y-108606027D01*
X100977679Y-108615488D01*
X100983454Y-108617590D01*
X100983460Y-108617593D01*
X101023287Y-108624615D01*
X101028619Y-108625797D01*
X101067698Y-108636269D01*
X101098491Y-108633575D01*
X101107987Y-108632745D01*
X101113479Y-108632505D01*
X102170469Y-108632505D01*
X102170470Y-108632505D01*
X102255040Y-108617593D01*
X102256272Y-108616882D01*
X102259008Y-108616148D01*
X102265395Y-108613824D01*
X102265598Y-108614382D01*
X102319273Y-108600000D01*
X105864000Y-108600000D01*
X105932121Y-108620002D01*
X105978614Y-108673658D01*
X105990000Y-108726000D01*
X105990000Y-115874000D01*
X105969998Y-115942121D01*
X105916342Y-115988614D01*
X105864000Y-116000000D01*
X89716000Y-116000000D01*
X89647879Y-115979998D01*
X89601386Y-115926342D01*
X89590000Y-115874000D01*
X89590000Y-109250000D01*
X95235954Y-109250000D01*
X95237888Y-109274594D01*
X95283532Y-109431699D01*
X95366809Y-109572512D01*
X95366812Y-109572516D01*
X95482483Y-109688187D01*
X95482487Y-109688190D01*
X95623304Y-109771470D01*
X95779999Y-109816993D01*
X95780000Y-109816993D01*
X95780000Y-109250000D01*
X95235954Y-109250000D01*
X89590000Y-109250000D01*
X89590000Y-108750000D01*
X95235952Y-108750000D01*
X95780000Y-108750000D01*
X95780000Y-108183006D01*
X95623301Y-108228531D01*
X95482487Y-108311809D01*
X95482483Y-108311812D01*
X95366812Y-108427483D01*
X95366809Y-108427487D01*
X95283532Y-108568300D01*
X95237888Y-108725404D01*
X95237888Y-108725405D01*
X95235952Y-108750000D01*
X89590000Y-108750000D01*
X89590000Y-106826000D01*
X89610002Y-106757879D01*
X89663658Y-106711386D01*
X89716000Y-106700000D01*
X96689999Y-106700000D01*
X96690000Y-106700000D01*
X96690000Y-106699999D01*
X96703754Y-106694302D01*
X96741169Y-106672698D01*
X96755740Y-106668793D01*
X96761087Y-106667608D01*
X96800906Y-106660588D01*
X96800908Y-106660586D01*
X96806699Y-106658479D01*
X96821962Y-106652157D01*
X96827542Y-106649555D01*
X96827542Y-106649554D01*
X96827545Y-106649554D01*
X96860678Y-106626352D01*
X96865289Y-106623415D01*
X96900316Y-106603194D01*
X96926314Y-106572209D01*
X96930007Y-106568178D01*
X98818186Y-104679999D01*
X98822204Y-104676317D01*
X98853194Y-104650316D01*
X98853193Y-104650316D01*
X98861642Y-104643228D01*
X98862776Y-104644580D01*
X98911086Y-104612439D01*
X98982074Y-104611311D01*
X99042402Y-104648742D01*
G37*
G04 #@! TD.AperFunction*
G04 #@! TA.AperFunction,Conductor*
G36*
X99728532Y-105735958D02*
G01*
X99785368Y-105778505D01*
X99810179Y-105845025D01*
X99810500Y-105854014D01*
X99810500Y-106178823D01*
X99817681Y-106224167D01*
X99808580Y-106294577D01*
X99782328Y-106332968D01*
X99692809Y-106422487D01*
X99609531Y-106563301D01*
X99564006Y-106720000D01*
X99990000Y-106720000D01*
X99990000Y-107220000D01*
X99564006Y-107220000D01*
X99609531Y-107376698D01*
X99692809Y-107517512D01*
X99692812Y-107517516D01*
X99808484Y-107633188D01*
X99928139Y-107703951D01*
X99976591Y-107755844D01*
X99990000Y-107812405D01*
X99990000Y-108054000D01*
X99969998Y-108122121D01*
X99916342Y-108168614D01*
X99864001Y-108180000D01*
X99757113Y-108180001D01*
X99720405Y-108182888D01*
X99563300Y-108228532D01*
X99415667Y-108315843D01*
X99413997Y-108313020D01*
X99361875Y-108333428D01*
X99292265Y-108319461D01*
X99254328Y-108288897D01*
X99253191Y-108287542D01*
X99222212Y-108261547D01*
X99218169Y-108257843D01*
X99160687Y-108200361D01*
X99126661Y-108138049D01*
X99131726Y-108067234D01*
X99160687Y-108022171D01*
X99198500Y-107984357D01*
X99198502Y-107984355D01*
X99199954Y-107981505D01*
X99255739Y-107872022D01*
X99270500Y-107778823D01*
X99270499Y-107421178D01*
X99255739Y-107327978D01*
X99200721Y-107220000D01*
X99198502Y-107215644D01*
X99186953Y-107204095D01*
X99152927Y-107141783D01*
X99157992Y-107070968D01*
X99186953Y-107025905D01*
X99198500Y-107014357D01*
X99198502Y-107014355D01*
X99198501Y-107014354D01*
X99255739Y-106902022D01*
X99270500Y-106808823D01*
X99270499Y-106451178D01*
X99255739Y-106357978D01*
X99211768Y-106271682D01*
X99198664Y-106201906D01*
X99225364Y-106136121D01*
X99234931Y-106125393D01*
X99595407Y-105764917D01*
X99657717Y-105730893D01*
X99728532Y-105735958D01*
G37*
G04 #@! TD.AperFunction*
M02*
