M48
; DRILL file {KiCad 7.0.7} date Sun Sep 24 23:50:30 2023
; FORMAT={-:-/ absolute / inch / decimal}
; #@! TF.CreationDate,2023-09-24T23:50:30-07:00
; #@! TF.GenerationSoftware,Kicad,Pcbnew,7.0.7
; #@! TF.FileFunction,Plated,1,2,PTH
FMAT,2
INCH
; #@! TA.AperFunction,Plated,PTH,ViaDrill
T1C0.0138
; #@! TA.AperFunction,Plated,PTH,ComponentDrill
T2C0.0138
; #@! TA.AperFunction,Plated,PTH,ComponentDrill
T3C0.0256
; #@! TA.AperFunction,Plated,PTH,ComponentDrill
T4C0.0276
; #@! TA.AperFunction,Plated,PTH,ComponentDrill
T5C0.0394
%
G90
G05
T1
X3.3933Y-3.126
X3.5469Y-4.3858
X3.5469Y-4.5157
X3.5748Y-3.5118
X3.622Y-3.8189
X3.622Y-3.9843
X3.7283Y-3.2598
X3.747Y-4.2913
X3.7559Y-2.8858
X3.811Y-4.3858
X3.822Y-4.2059
X3.8539Y-4.4449
X3.8858Y-2.9921
X3.8894Y-4.3858
X3.8976Y-3.5906
X3.9195Y-4.2109
X3.9291Y-3.748
X3.937Y-3.5906
X3.952Y-4.2434
X3.9606Y-4.0197
X3.9646Y-3.8543
X3.967Y-4.2909
X3.9685Y-4.1417
X3.9961Y-4.2434
X4.0551Y-3.6299
X4.0945Y-3.6299
X4.1181Y-2.8858
X4.1531Y-4.3858
X4.1531Y-4.5315
X4.252Y-3.7244
X4.252Y-3.7638
X4.252Y-3.9884
X4.3307Y-3.0709
X4.3898Y-3.5039
X4.437Y-4.2814
X4.627Y-4.1902
X4.633Y-4.1114
X4.687Y-4.1394
T2
X3.8868Y-3.8868
X3.8868Y-3.937
X3.8868Y-3.9872
X3.937Y-3.8868
X3.937Y-3.937
X3.937Y-3.9872
X3.9872Y-3.8868
X3.9872Y-3.937
X3.9872Y-3.9872
T5
X2.987Y-2.9134
X2.987Y-3.0134
X2.987Y-3.1134
X2.987Y-3.2134
X2.987Y-3.3134
X2.987Y-3.4134
X2.987Y-3.5134
X2.987Y-3.6134
X2.987Y-3.7134
X2.987Y-3.8134
X2.987Y-3.9134
X2.987Y-4.0134
X2.987Y-4.1134
X2.987Y-4.2134
X2.987Y-4.3134
X2.987Y-4.4134
X2.987Y-4.5134
X2.987Y-4.6134
X3.087Y-2.9134
X3.087Y-3.0134
X3.087Y-3.1134
X3.087Y-3.2134
X3.087Y-3.3134
X3.087Y-3.4134
X3.087Y-3.5134
X3.087Y-3.6134
X3.087Y-3.7134
X3.087Y-3.8134
X3.087Y-3.9134
X3.087Y-4.0134
X3.087Y-4.1134
X3.087Y-4.2134
X3.087Y-4.3134
X3.087Y-4.4134
X3.087Y-4.5134
X3.087Y-4.6134
X3.587Y-2.9134
X3.587Y-3.0134
X4.787Y-2.9134
X4.787Y-3.0134
X4.787Y-3.1134
X4.787Y-3.2134
X4.787Y-3.3134
X4.787Y-3.4134
X4.787Y-3.5134
X4.787Y-3.6134
X4.787Y-3.7134
X4.787Y-3.8134
X4.787Y-3.9134
X4.787Y-4.0134
X4.787Y-4.1134
X4.787Y-4.2134
X4.787Y-4.3134
X4.787Y-4.4134
X4.787Y-4.5134
X4.787Y-4.6134
X4.887Y-2.9134
X4.887Y-3.0134
X4.887Y-3.1134
X4.887Y-3.2134
X4.887Y-3.3134
X4.887Y-3.4134
X4.887Y-3.5134
X4.887Y-3.6134
X4.887Y-3.7134
X4.887Y-3.8134
X4.887Y-3.9134
X4.887Y-4.0134
X4.887Y-4.1134
X4.887Y-4.2134
X4.887Y-4.3134
X4.887Y-4.4134
X4.887Y-4.5134
X4.887Y-4.6134
T3
G00X3.8415Y-2.9343
M15
G01X3.8415Y-2.95
M16
G05
G00X4.0325Y-2.9343
M15
G01X4.0325Y-2.95
M16
G05
T4
G00X3.8297Y-2.813
M15
G01X3.8297Y-2.8327
M16
G05
G00X4.0443Y-2.813
M15
G01X4.0443Y-2.8327
M16
G05
T0
M30
