%TF.GenerationSoftware,KiCad,Pcbnew,8.0.2-1*%
%TF.CreationDate,2024-06-04T19:54:43-07:00*%
%TF.ProjectId,pcb_design_1,7063625f-6465-4736-9967-6e5f312e6b69,rev?*%
%TF.SameCoordinates,Original*%
%TF.FileFunction,Legend,Bot*%
%TF.FilePolarity,Positive*%
%FSLAX46Y46*%
G04 Gerber Fmt 4.6, Leading zero omitted, Abs format (unit mm)*
G04 Created by KiCad (PCBNEW 8.0.2-1) date 2024-06-04 19:54:43*
%MOMM*%
%LPD*%
G01*
G04 APERTURE LIST*
%ADD10R,1.700000X1.700000*%
%ADD11O,1.700000X1.700000*%
%ADD12O,0.800000X0.800000*%
%ADD13O,1.150000X1.800000*%
%ADD14O,1.450000X2.000000*%
G04 APERTURE END LIST*
%LPC*%
D10*
%TO.C,J2*%
X64000000Y-62840000D03*
D11*
X64000000Y-65380000D03*
X64000000Y-67920000D03*
X64000000Y-70460000D03*
X64000000Y-73000000D03*
X64000000Y-75540000D03*
X64000000Y-78080000D03*
X64000000Y-80620000D03*
X64000000Y-83160000D03*
X64000000Y-85700000D03*
X64000000Y-88240000D03*
X64000000Y-90780000D03*
X64000000Y-93320000D03*
X64000000Y-95860000D03*
X64000000Y-98400000D03*
X64000000Y-100940000D03*
X64000000Y-103480000D03*
%TD*%
D10*
%TO.C,J3*%
X108500000Y-62340000D03*
D11*
X108500000Y-64880000D03*
X108500000Y-67420000D03*
X108500000Y-69960000D03*
X108500000Y-72500000D03*
X108500000Y-75040000D03*
X108500000Y-77580000D03*
X108500000Y-80120000D03*
X108500000Y-82660000D03*
X108500000Y-85200000D03*
X108500000Y-87740000D03*
X108500000Y-90280000D03*
X108500000Y-92820000D03*
X108500000Y-95360000D03*
X108500000Y-97900000D03*
X108500000Y-100440000D03*
X108500000Y-102980000D03*
%TD*%
D12*
%TO.C,J1*%
X89500000Y-62055000D03*
X84500000Y-62055000D03*
D13*
X90875000Y-59305000D03*
D14*
X90725000Y-63105000D03*
X83275000Y-63105000D03*
D13*
X83125000Y-59305000D03*
%TD*%
D10*
%TO.C,J4*%
X92982500Y-100900000D03*
D11*
X95522500Y-100900000D03*
X98062500Y-100900000D03*
%TD*%
%LPD*%
M02*
