%TF.GenerationSoftware,KiCad,Pcbnew,8.0.2*%
%TF.CreationDate,2024-06-04T19:48:01-07:00*%
%TF.ProjectId,pcb_design_1,7063625f-6465-4736-9967-6e5f312e6b69,rev?*%
%TF.SameCoordinates,Original*%
%TF.FileFunction,Paste,Top*%
%TF.FilePolarity,Positive*%
%FSLAX46Y46*%
G04 Gerber Fmt 4.6, Leading zero omitted, Abs format (unit mm)*
G04 Created by KiCad (PCBNEW 8.0.2) date 2024-06-04 19:48:01*
%MOMM*%
%LPD*%
G01*
G04 APERTURE LIST*
G04 Aperture macros list*
%AMRoundRect*
0 Rectangle with rounded corners*
0 $1 Rounding radius*
0 $2 $3 $4 $5 $6 $7 $8 $9 X,Y pos of 4 corners*
0 Add a 4 corners polygon primitive as box body*
4,1,4,$2,$3,$4,$5,$6,$7,$8,$9,$2,$3,0*
0 Add four circle primitives for the rounded corners*
1,1,$1+$1,$2,$3*
1,1,$1+$1,$4,$5*
1,1,$1+$1,$6,$7*
1,1,$1+$1,$8,$9*
0 Add four rect primitives between the rounded corners*
20,1,$1+$1,$2,$3,$4,$5,0*
20,1,$1+$1,$4,$5,$6,$7,0*
20,1,$1+$1,$6,$7,$8,$9,0*
20,1,$1+$1,$8,$9,$2,$3,0*%
G04 Aperture macros list end*
%ADD10RoundRect,0.140000X-0.170000X0.140000X-0.170000X-0.140000X0.170000X-0.140000X0.170000X0.140000X0*%
%ADD11R,1.041400X0.660400*%
%ADD12RoundRect,0.135000X-0.185000X0.135000X-0.185000X-0.135000X0.185000X-0.135000X0.185000X0.135000X0*%
%ADD13RoundRect,0.225000X0.250000X-0.225000X0.250000X0.225000X-0.250000X0.225000X-0.250000X-0.225000X0*%
%ADD14RoundRect,0.249999X-0.395001X-0.395001X0.395001X-0.395001X0.395001X0.395001X-0.395001X0.395001X0*%
%ADD15RoundRect,0.050000X-0.387500X-0.050000X0.387500X-0.050000X0.387500X0.050000X-0.387500X0.050000X0*%
%ADD16RoundRect,0.050000X-0.050000X-0.387500X0.050000X-0.387500X0.050000X0.387500X-0.050000X0.387500X0*%
%ADD17RoundRect,0.140000X-0.140000X-0.170000X0.140000X-0.170000X0.140000X0.170000X-0.140000X0.170000X0*%
%ADD18RoundRect,0.135000X0.135000X0.185000X-0.135000X0.185000X-0.135000X-0.185000X0.135000X-0.185000X0*%
%ADD19RoundRect,0.135000X0.185000X-0.135000X0.185000X0.135000X-0.185000X0.135000X-0.185000X-0.135000X0*%
%ADD20RoundRect,0.135000X-0.135000X-0.185000X0.135000X-0.185000X0.135000X0.185000X-0.135000X0.185000X0*%
%ADD21R,1.150000X1.000000*%
%ADD22RoundRect,0.140000X0.170000X-0.140000X0.170000X0.140000X-0.170000X0.140000X-0.170000X-0.140000X0*%
%ADD23R,0.450000X1.300000*%
%ADD24RoundRect,0.140000X0.140000X0.170000X-0.140000X0.170000X-0.140000X-0.170000X0.140000X-0.170000X0*%
%ADD25RoundRect,0.375000X0.375000X-0.625000X0.375000X0.625000X-0.375000X0.625000X-0.375000X-0.625000X0*%
%ADD26RoundRect,0.500000X1.400000X-0.500000X1.400000X0.500000X-1.400000X0.500000X-1.400000X-0.500000X0*%
%ADD27RoundRect,0.150000X-0.650000X-0.150000X0.650000X-0.150000X0.650000X0.150000X-0.650000X0.150000X0*%
%ADD28RoundRect,0.150000X-0.150000X-0.350000X0.150000X-0.350000X0.150000X0.350000X-0.150000X0.350000X0*%
%ADD29RoundRect,0.100000X-0.200000X-0.100000X0.200000X-0.100000X0.200000X0.100000X-0.200000X0.100000X0*%
%ADD30RoundRect,0.225000X-0.250000X0.225000X-0.250000X-0.225000X0.250000X-0.225000X0.250000X0.225000X0*%
%ADD31RoundRect,0.225000X0.225000X0.250000X-0.225000X0.250000X-0.225000X-0.250000X0.225000X-0.250000X0*%
G04 APERTURE END LIST*
D10*
%TO.C,C5*%
X85000000Y-90020000D03*
X85000000Y-90980000D03*
%TD*%
D11*
%TO.C,SW1*%
X67925000Y-59925000D03*
X72075000Y-59925000D03*
X67925000Y-62075000D03*
X72075000Y-62075000D03*
%TD*%
D12*
%TO.C,R3*%
X74500000Y-59990000D03*
X74500000Y-61010000D03*
%TD*%
D13*
%TO.C,C12*%
X91500000Y-78775000D03*
X91500000Y-77225000D03*
%TD*%
D14*
%TO.C,U1*%
X84700000Y-83700000D03*
X84700000Y-85300000D03*
X86300000Y-83700000D03*
X86300000Y-85300000D03*
D15*
X82062500Y-81900000D03*
X82062500Y-82300000D03*
X82062500Y-82700000D03*
X82062500Y-83100000D03*
X82062500Y-83500000D03*
X82062500Y-83900000D03*
X82062500Y-84300000D03*
X82062500Y-84700000D03*
X82062500Y-85100000D03*
X82062500Y-85500000D03*
X82062500Y-85900000D03*
X82062500Y-86300000D03*
X82062500Y-86700000D03*
X82062500Y-87100000D03*
D16*
X82900000Y-87937500D03*
X83300000Y-87937500D03*
X83700000Y-87937500D03*
X84100000Y-87937500D03*
X84500000Y-87937500D03*
X84900000Y-87937500D03*
X85300000Y-87937500D03*
X85700000Y-87937500D03*
X86100000Y-87937500D03*
X86500000Y-87937500D03*
X86900000Y-87937500D03*
X87300000Y-87937500D03*
X87700000Y-87937500D03*
X88100000Y-87937500D03*
D15*
X88937500Y-87100000D03*
X88937500Y-86700000D03*
X88937500Y-86300000D03*
X88937500Y-85900000D03*
X88937500Y-85500000D03*
X88937500Y-85100000D03*
X88937500Y-84700000D03*
X88937500Y-84300000D03*
X88937500Y-83900000D03*
X88937500Y-83500000D03*
X88937500Y-83100000D03*
X88937500Y-82700000D03*
X88937500Y-82300000D03*
X88937500Y-81900000D03*
D16*
X88100000Y-81062500D03*
X87700000Y-81062500D03*
X87300000Y-81062500D03*
X86900000Y-81062500D03*
X86500000Y-81062500D03*
X86100000Y-81062500D03*
X85700000Y-81062500D03*
X85300000Y-81062500D03*
X84900000Y-81062500D03*
X84500000Y-81062500D03*
X84100000Y-81062500D03*
X83700000Y-81062500D03*
X83300000Y-81062500D03*
X82900000Y-81062500D03*
%TD*%
D17*
%TO.C,C14*%
X85520000Y-98500000D03*
X86480000Y-98500000D03*
%TD*%
D18*
%TO.C,R5*%
X80357500Y-97850000D03*
X79337500Y-97850000D03*
%TD*%
D19*
%TO.C,R8*%
X92000000Y-94010000D03*
X92000000Y-92990000D03*
%TD*%
D20*
%TO.C,R7*%
X85990000Y-92500000D03*
X87010000Y-92500000D03*
%TD*%
D21*
%TO.C,Y1*%
X85125000Y-96700000D03*
X86875000Y-96700000D03*
X86875000Y-95300000D03*
X85125000Y-95300000D03*
%TD*%
D19*
%TO.C,R1*%
X86500000Y-73510000D03*
X86500000Y-72490000D03*
%TD*%
D22*
%TO.C,C10*%
X86000000Y-77980000D03*
X86000000Y-77020000D03*
%TD*%
D17*
%TO.C,C6*%
X90582500Y-85400000D03*
X91542500Y-85400000D03*
%TD*%
D23*
%TO.C,J1*%
X88300000Y-63155000D03*
X87650000Y-63155000D03*
X87000000Y-63155000D03*
X86350000Y-63155000D03*
X85700000Y-63155000D03*
%TD*%
D17*
%TO.C,C17*%
X79337500Y-98950000D03*
X80297500Y-98950000D03*
%TD*%
D24*
%TO.C,C4*%
X78980000Y-85500000D03*
X78020000Y-85500000D03*
%TD*%
D11*
%TO.C,SW2*%
X95425000Y-93425000D03*
X99575000Y-93425000D03*
X95425000Y-95575000D03*
X99575000Y-95575000D03*
%TD*%
D25*
%TO.C,U2*%
X96200000Y-65150000D03*
X98500000Y-65150000D03*
D26*
X98500000Y-58850000D03*
D25*
X100800000Y-65150000D03*
%TD*%
D27*
%TO.C,U3*%
X70900000Y-66095000D03*
X70900000Y-67365000D03*
X70900000Y-68635000D03*
X70900000Y-69905000D03*
X78100000Y-69905000D03*
X78100000Y-68635000D03*
X78100000Y-67365000D03*
X78100000Y-66095000D03*
%TD*%
D20*
%TO.C,R4*%
X76990000Y-61000000D03*
X78010000Y-61000000D03*
%TD*%
D19*
%TO.C,R2*%
X88000000Y-73510000D03*
X88000000Y-72490000D03*
%TD*%
D28*
%TO.C,U4*%
X76000000Y-98200000D03*
X76000000Y-99500000D03*
X76800000Y-98200000D03*
X76800000Y-99500000D03*
D29*
X75000000Y-97900000D03*
X75000000Y-98850000D03*
X75000000Y-99800000D03*
X77800000Y-99800000D03*
X77800000Y-98850000D03*
X77800000Y-97900000D03*
%TD*%
D19*
%TO.C,R6*%
X72890000Y-98860000D03*
X72890000Y-97840000D03*
%TD*%
D17*
%TO.C,C7*%
X90582500Y-81900000D03*
X91542500Y-81900000D03*
%TD*%
%TO.C,C16*%
X83520000Y-66500000D03*
X84480000Y-66500000D03*
%TD*%
D13*
%TO.C,C13*%
X89500000Y-78775000D03*
X89500000Y-77225000D03*
%TD*%
D30*
%TO.C,C1*%
X101000000Y-67225000D03*
X101000000Y-68775000D03*
%TD*%
D31*
%TO.C,C2*%
X98000000Y-67500000D03*
X96450000Y-67500000D03*
%TD*%
D10*
%TO.C,C15*%
X88500000Y-95520000D03*
X88500000Y-96480000D03*
%TD*%
D17*
%TO.C,C11*%
X90582500Y-80900000D03*
X91542500Y-80900000D03*
%TD*%
D10*
%TO.C,C9*%
X86000000Y-90020000D03*
X86000000Y-90980000D03*
%TD*%
D22*
%TO.C,C8*%
X87000000Y-77980000D03*
X87000000Y-77020000D03*
%TD*%
D24*
%TO.C,C3*%
X80542500Y-81500000D03*
X79582500Y-81500000D03*
%TD*%
M02*
