%TF.GenerationSoftware,KiCad,Pcbnew,8.0.2*%
%TF.CreationDate,2024-06-04T19:48:01-07:00*%
%TF.ProjectId,pcb_design_1,7063625f-6465-4736-9967-6e5f312e6b69,rev?*%
%TF.SameCoordinates,Original*%
%TF.FileFunction,Copper,L1,Top*%
%TF.FilePolarity,Positive*%
%FSLAX46Y46*%
G04 Gerber Fmt 4.6, Leading zero omitted, Abs format (unit mm)*
G04 Created by KiCad (PCBNEW 8.0.2) date 2024-06-04 19:48:01*
%MOMM*%
%LPD*%
G01*
G04 APERTURE LIST*
G04 Aperture macros list*
%AMRoundRect*
0 Rectangle with rounded corners*
0 $1 Rounding radius*
0 $2 $3 $4 $5 $6 $7 $8 $9 X,Y pos of 4 corners*
0 Add a 4 corners polygon primitive as box body*
4,1,4,$2,$3,$4,$5,$6,$7,$8,$9,$2,$3,0*
0 Add four circle primitives for the rounded corners*
1,1,$1+$1,$2,$3*
1,1,$1+$1,$4,$5*
1,1,$1+$1,$6,$7*
1,1,$1+$1,$8,$9*
0 Add four rect primitives between the rounded corners*
20,1,$1+$1,$2,$3,$4,$5,0*
20,1,$1+$1,$4,$5,$6,$7,0*
20,1,$1+$1,$6,$7,$8,$9,0*
20,1,$1+$1,$8,$9,$2,$3,0*%
G04 Aperture macros list end*
%TA.AperFunction,SMDPad,CuDef*%
%ADD10RoundRect,0.140000X-0.170000X0.140000X-0.170000X-0.140000X0.170000X-0.140000X0.170000X0.140000X0*%
%TD*%
%TA.AperFunction,SMDPad,CuDef*%
%ADD11R,1.041400X0.660400*%
%TD*%
%TA.AperFunction,SMDPad,CuDef*%
%ADD12RoundRect,0.135000X-0.185000X0.135000X-0.185000X-0.135000X0.185000X-0.135000X0.185000X0.135000X0*%
%TD*%
%TA.AperFunction,ComponentPad*%
%ADD13R,1.700000X1.700000*%
%TD*%
%TA.AperFunction,ComponentPad*%
%ADD14O,1.700000X1.700000*%
%TD*%
%TA.AperFunction,SMDPad,CuDef*%
%ADD15RoundRect,0.225000X0.250000X-0.225000X0.250000X0.225000X-0.250000X0.225000X-0.250000X-0.225000X0*%
%TD*%
%TA.AperFunction,SMDPad,CuDef*%
%ADD16RoundRect,0.050000X-0.387500X-0.050000X0.387500X-0.050000X0.387500X0.050000X-0.387500X0.050000X0*%
%TD*%
%TA.AperFunction,SMDPad,CuDef*%
%ADD17RoundRect,0.050000X-0.050000X-0.387500X0.050000X-0.387500X0.050000X0.387500X-0.050000X0.387500X0*%
%TD*%
%TA.AperFunction,HeatsinkPad*%
%ADD18R,3.200000X3.200000*%
%TD*%
%TA.AperFunction,SMDPad,CuDef*%
%ADD19RoundRect,0.140000X-0.140000X-0.170000X0.140000X-0.170000X0.140000X0.170000X-0.140000X0.170000X0*%
%TD*%
%TA.AperFunction,SMDPad,CuDef*%
%ADD20RoundRect,0.135000X0.135000X0.185000X-0.135000X0.185000X-0.135000X-0.185000X0.135000X-0.185000X0*%
%TD*%
%TA.AperFunction,SMDPad,CuDef*%
%ADD21RoundRect,0.135000X0.185000X-0.135000X0.185000X0.135000X-0.185000X0.135000X-0.185000X-0.135000X0*%
%TD*%
%TA.AperFunction,SMDPad,CuDef*%
%ADD22RoundRect,0.135000X-0.135000X-0.185000X0.135000X-0.185000X0.135000X0.185000X-0.135000X0.185000X0*%
%TD*%
%TA.AperFunction,SMDPad,CuDef*%
%ADD23R,1.150000X1.000000*%
%TD*%
%TA.AperFunction,SMDPad,CuDef*%
%ADD24RoundRect,0.140000X0.170000X-0.140000X0.170000X0.140000X-0.170000X0.140000X-0.170000X-0.140000X0*%
%TD*%
%TA.AperFunction,SMDPad,CuDef*%
%ADD25R,0.450000X1.300000*%
%TD*%
%TA.AperFunction,ComponentPad*%
%ADD26O,1.150000X1.800000*%
%TD*%
%TA.AperFunction,ComponentPad*%
%ADD27O,1.450000X2.000000*%
%TD*%
%TA.AperFunction,SMDPad,CuDef*%
%ADD28RoundRect,0.140000X0.140000X0.170000X-0.140000X0.170000X-0.140000X-0.170000X0.140000X-0.170000X0*%
%TD*%
%TA.AperFunction,SMDPad,CuDef*%
%ADD29RoundRect,0.375000X0.375000X-0.625000X0.375000X0.625000X-0.375000X0.625000X-0.375000X-0.625000X0*%
%TD*%
%TA.AperFunction,SMDPad,CuDef*%
%ADD30RoundRect,0.500000X1.400000X-0.500000X1.400000X0.500000X-1.400000X0.500000X-1.400000X-0.500000X0*%
%TD*%
%TA.AperFunction,SMDPad,CuDef*%
%ADD31RoundRect,0.150000X-0.650000X-0.150000X0.650000X-0.150000X0.650000X0.150000X-0.650000X0.150000X0*%
%TD*%
%TA.AperFunction,SMDPad,CuDef*%
%ADD32RoundRect,0.100000X-0.200000X-0.100000X0.200000X-0.100000X0.200000X0.100000X-0.200000X0.100000X0*%
%TD*%
%TA.AperFunction,SMDPad,CuDef*%
%ADD33R,1.500000X2.400000*%
%TD*%
%TA.AperFunction,SMDPad,CuDef*%
%ADD34RoundRect,0.225000X-0.250000X0.225000X-0.250000X-0.225000X0.250000X-0.225000X0.250000X0.225000X0*%
%TD*%
%TA.AperFunction,SMDPad,CuDef*%
%ADD35RoundRect,0.225000X0.225000X0.250000X-0.225000X0.250000X-0.225000X-0.250000X0.225000X-0.250000X0*%
%TD*%
%TA.AperFunction,ViaPad*%
%ADD36C,0.700000*%
%TD*%
%TA.AperFunction,Conductor*%
%ADD37C,0.500000*%
%TD*%
%TA.AperFunction,Conductor*%
%ADD38C,0.200000*%
%TD*%
%TA.AperFunction,Conductor*%
%ADD39C,0.300000*%
%TD*%
G04 APERTURE END LIST*
D10*
%TO.P,C5,1*%
%TO.N,+3V3*%
X85000000Y-90020000D03*
%TO.P,C5,2*%
%TO.N,GND*%
X85000000Y-90980000D03*
%TD*%
D11*
%TO.P,SW1,1,1*%
%TO.N,/USB_BOOT*%
X67925000Y-59925000D03*
%TO.P,SW1,2,2*%
X72075000Y-59925000D03*
%TO.P,SW1,3,3*%
%TO.N,GND*%
X67925000Y-62075000D03*
%TO.P,SW1,4,4*%
X72075000Y-62075000D03*
%TD*%
D12*
%TO.P,R3,1*%
%TO.N,/USB_BOOT*%
X74500000Y-59990000D03*
%TO.P,R3,2*%
%TO.N,/SQPI_SS_N*%
X74500000Y-61010000D03*
%TD*%
D13*
%TO.P,J2,1,Pin_1*%
%TO.N,VBUS*%
X64000000Y-62840000D03*
D14*
%TO.P,J2,2,Pin_2*%
%TO.N,/GPIO0*%
X64000000Y-65380000D03*
%TO.P,J2,3,Pin_3*%
%TO.N,/GPIO1*%
X64000000Y-67920000D03*
%TO.P,J2,4,Pin_4*%
%TO.N,/GPIO2*%
X64000000Y-70460000D03*
%TO.P,J2,5,Pin_5*%
%TO.N,/GPIO3*%
X64000000Y-73000000D03*
%TO.P,J2,6,Pin_6*%
%TO.N,/GPIO4*%
X64000000Y-75540000D03*
%TO.P,J2,7,Pin_7*%
%TO.N,/GPIO5*%
X64000000Y-78080000D03*
%TO.P,J2,8,Pin_8*%
%TO.N,/GPIO6*%
X64000000Y-80620000D03*
%TO.P,J2,9,Pin_9*%
%TO.N,/GPIO7*%
X64000000Y-83160000D03*
%TO.P,J2,10,Pin_10*%
%TO.N,/GPIO8*%
X64000000Y-85700000D03*
%TO.P,J2,11,Pin_11*%
%TO.N,/GPIO9*%
X64000000Y-88240000D03*
%TO.P,J2,12,Pin_12*%
%TO.N,/GPIO10*%
X64000000Y-90780000D03*
%TO.P,J2,13,Pin_13*%
%TO.N,/GPIO11*%
X64000000Y-93320000D03*
%TO.P,J2,14,Pin_14*%
%TO.N,GND*%
X64000000Y-95860000D03*
%TO.P,J2,15,Pin_15*%
X64000000Y-98400000D03*
%TO.P,J2,16,Pin_16*%
%TO.N,/GPIO14*%
X64000000Y-100940000D03*
%TO.P,J2,17,Pin_17*%
%TO.N,GND*%
X64000000Y-103480000D03*
%TD*%
D15*
%TO.P,C12,1*%
%TO.N,+3V3*%
X91500000Y-78775000D03*
%TO.P,C12,2*%
%TO.N,GND*%
X91500000Y-77225000D03*
%TD*%
D16*
%TO.P,U1,1,IOVDD*%
%TO.N,+3V3*%
X82062500Y-81900000D03*
%TO.P,U1,2,GPIO0*%
%TO.N,/GPIO0*%
X82062500Y-82300000D03*
%TO.P,U1,3,GPIO1*%
%TO.N,/GPIO1*%
X82062500Y-82700000D03*
%TO.P,U1,4,GPIO2*%
%TO.N,/GPIO2*%
X82062500Y-83100000D03*
%TO.P,U1,5,GPIO3*%
%TO.N,/GPIO3*%
X82062500Y-83500000D03*
%TO.P,U1,6,GPIO4*%
%TO.N,/GPIO4*%
X82062500Y-83900000D03*
%TO.P,U1,7,GPIO5*%
%TO.N,/GPIO5*%
X82062500Y-84300000D03*
%TO.P,U1,8,GPIO6*%
%TO.N,/GPIO6*%
X82062500Y-84700000D03*
%TO.P,U1,9,GPIO7*%
%TO.N,/GPIO7*%
X82062500Y-85100000D03*
%TO.P,U1,10,IOVDD*%
%TO.N,+3V3*%
X82062500Y-85500000D03*
%TO.P,U1,11,GPIO8*%
%TO.N,/GPIO8*%
X82062500Y-85900000D03*
%TO.P,U1,12,GPIO9*%
%TO.N,/GPIO9*%
X82062500Y-86300000D03*
%TO.P,U1,13,GPIO10*%
%TO.N,/GPIO10*%
X82062500Y-86700000D03*
%TO.P,U1,14,GPIO11*%
%TO.N,/GPIO11*%
X82062500Y-87100000D03*
D17*
%TO.P,U1,15,GPIO12*%
%TO.N,/SDA*%
X82900000Y-87937500D03*
%TO.P,U1,16,GPIO13*%
%TO.N,/SCL*%
X83300000Y-87937500D03*
%TO.P,U1,17,GPIO14*%
%TO.N,/GPIO14*%
X83700000Y-87937500D03*
%TO.P,U1,18,GPIO15*%
%TO.N,/GPIO15*%
X84100000Y-87937500D03*
%TO.P,U1,19,TESTEN*%
%TO.N,GND*%
X84500000Y-87937500D03*
%TO.P,U1,20,XIN*%
%TO.N,/XIN*%
X84900000Y-87937500D03*
%TO.P,U1,21,XOUT*%
%TO.N,/XOUT*%
X85300000Y-87937500D03*
%TO.P,U1,22,IOVDD*%
%TO.N,+3V3*%
X85700000Y-87937500D03*
%TO.P,U1,23,DVDD*%
%TO.N,+1V1*%
X86100000Y-87937500D03*
%TO.P,U1,24,SWCLK*%
%TO.N,/SWCLK*%
X86500000Y-87937500D03*
%TO.P,U1,25,SWDIO*%
%TO.N,/SWDIO*%
X86900000Y-87937500D03*
%TO.P,U1,26,RUN*%
%TO.N,/RUN*%
X87300000Y-87937500D03*
%TO.P,U1,27,GPIO16*%
%TO.N,/GPIO16*%
X87700000Y-87937500D03*
%TO.P,U1,28,GPIO17*%
%TO.N,/GPIO17*%
X88100000Y-87937500D03*
D16*
%TO.P,U1,29,GPIO18*%
%TO.N,/GPIO18*%
X88937500Y-87100000D03*
%TO.P,U1,30,GPIO19*%
%TO.N,/GPIO19*%
X88937500Y-86700000D03*
%TO.P,U1,31,GPIO20*%
%TO.N,/GPIO20*%
X88937500Y-86300000D03*
%TO.P,U1,32,GPIO21*%
%TO.N,/GPIO21*%
X88937500Y-85900000D03*
%TO.P,U1,33,IOVDD*%
%TO.N,+3V3*%
X88937500Y-85500000D03*
%TO.P,U1,34,GPIO22*%
%TO.N,/GPIO22*%
X88937500Y-85100000D03*
%TO.P,U1,35,GPIO23*%
%TO.N,/GPIO23*%
X88937500Y-84700000D03*
%TO.P,U1,36,GPIO24*%
%TO.N,/GPIO24*%
X88937500Y-84300000D03*
%TO.P,U1,37,GPIO25*%
%TO.N,/GPIO25*%
X88937500Y-83900000D03*
%TO.P,U1,38,GPIO26/ADC0*%
%TO.N,/GPIO26*%
X88937500Y-83500000D03*
%TO.P,U1,39,GPIO27/ADC1*%
%TO.N,/GPIO27*%
X88937500Y-83100000D03*
%TO.P,U1,40,GPIO28/ADC2*%
%TO.N,/GPIO28*%
X88937500Y-82700000D03*
%TO.P,U1,41,GPIO29/ADC3*%
%TO.N,/GPIO29*%
X88937500Y-82300000D03*
%TO.P,U1,42,IOVDD*%
%TO.N,+3V3*%
X88937500Y-81900000D03*
D17*
%TO.P,U1,43,ADC_AVDD*%
X88100000Y-81062500D03*
%TO.P,U1,44,VREG_VIN*%
X87700000Y-81062500D03*
%TO.P,U1,45,VREG_VOUT*%
%TO.N,+1V1*%
X87300000Y-81062500D03*
%TO.P,U1,46,USB_DM*%
%TO.N,Net-(U1-USB_DM)*%
X86900000Y-81062500D03*
%TO.P,U1,47,USB_DP*%
%TO.N,Net-(U1-USB_DP)*%
X86500000Y-81062500D03*
%TO.P,U1,48,USB_VDD*%
%TO.N,+3V3*%
X86100000Y-81062500D03*
%TO.P,U1,49,IOVDD*%
X85700000Y-81062500D03*
%TO.P,U1,50,DVDD*%
%TO.N,+1V1*%
X85300000Y-81062500D03*
%TO.P,U1,51,SQPI_SD3*%
%TO.N,/SQPI_SD3*%
X84900000Y-81062500D03*
%TO.P,U1,52,SQPI_SCLK*%
%TO.N,/SQPI_SCLK*%
X84500000Y-81062500D03*
%TO.P,U1,53,SQPI_SD0*%
%TO.N,/SQPI_SD0*%
X84100000Y-81062500D03*
%TO.P,U1,54,SQPI_SD2*%
%TO.N,/SQPI_SD2*%
X83700000Y-81062500D03*
%TO.P,U1,55,SQPI_SD1*%
%TO.N,/SQPI_SD1*%
X83300000Y-81062500D03*
%TO.P,U1,56,SQPI_SS_N*%
%TO.N,/SQPI_SS_N*%
X82900000Y-81062500D03*
D18*
%TO.P,U1,57,GND*%
%TO.N,GND*%
X85500000Y-84500000D03*
%TD*%
D19*
%TO.P,C14,1*%
%TO.N,/XIN*%
X85520000Y-98500000D03*
%TO.P,C14,2*%
%TO.N,GND*%
X86480000Y-98500000D03*
%TD*%
D20*
%TO.P,R5,1*%
%TO.N,+3V3*%
X80357500Y-97850000D03*
%TO.P,R5,2*%
%TO.N,/SCL*%
X79337500Y-97850000D03*
%TD*%
D13*
%TO.P,J3,1,Pin_1*%
%TO.N,+3V3*%
X108500000Y-62340000D03*
D14*
%TO.P,J3,2,Pin_2*%
%TO.N,/GPIO29*%
X108500000Y-64880000D03*
%TO.P,J3,3,Pin_3*%
%TO.N,/GPIO28*%
X108500000Y-67420000D03*
%TO.P,J3,4,Pin_4*%
%TO.N,/GPIO27*%
X108500000Y-69960000D03*
%TO.P,J3,5,Pin_5*%
%TO.N,/GPIO26*%
X108500000Y-72500000D03*
%TO.P,J3,6,Pin_6*%
%TO.N,/GPIO25*%
X108500000Y-75040000D03*
%TO.P,J3,7,Pin_7*%
%TO.N,/GPIO24*%
X108500000Y-77580000D03*
%TO.P,J3,8,Pin_8*%
%TO.N,/GPIO23*%
X108500000Y-80120000D03*
%TO.P,J3,9,Pin_9*%
%TO.N,/GPIO22*%
X108500000Y-82660000D03*
%TO.P,J3,10,Pin_10*%
%TO.N,/GPIO21*%
X108500000Y-85200000D03*
%TO.P,J3,11,Pin_11*%
%TO.N,/GPIO20*%
X108500000Y-87740000D03*
%TO.P,J3,12,Pin_12*%
%TO.N,/GPIO19*%
X108500000Y-90280000D03*
%TO.P,J3,13,Pin_13*%
%TO.N,/GPIO18*%
X108500000Y-92820000D03*
%TO.P,J3,14,Pin_14*%
%TO.N,/GPIO17*%
X108500000Y-95360000D03*
%TO.P,J3,15,Pin_15*%
%TO.N,/GPIO16*%
X108500000Y-97900000D03*
%TO.P,J3,16,Pin_16*%
%TO.N,/GPIO15*%
X108500000Y-100440000D03*
%TO.P,J3,17,Pin_17*%
%TO.N,GND*%
X108500000Y-102980000D03*
%TD*%
D21*
%TO.P,R8,1*%
%TO.N,+3V3*%
X92000000Y-94010000D03*
%TO.P,R8,2*%
%TO.N,/RUN*%
X92000000Y-92990000D03*
%TD*%
D22*
%TO.P,R7,1*%
%TO.N,/XOUT*%
X85990000Y-92500000D03*
%TO.P,R7,2*%
%TO.N,Net-(C15-Pad1)*%
X87010000Y-92500000D03*
%TD*%
D23*
%TO.P,Y1,1,1*%
%TO.N,/XIN*%
X85125000Y-96700000D03*
%TO.P,Y1,2,2*%
%TO.N,GND*%
X86875000Y-96700000D03*
%TO.P,Y1,3,3*%
%TO.N,Net-(C15-Pad1)*%
X86875000Y-95300000D03*
%TO.P,Y1,4,4*%
%TO.N,GND*%
X85125000Y-95300000D03*
%TD*%
D21*
%TO.P,R1,1*%
%TO.N,Net-(U1-USB_DP)*%
X86500000Y-73510000D03*
%TO.P,R1,2*%
%TO.N,/USB_D+*%
X86500000Y-72490000D03*
%TD*%
D24*
%TO.P,C10,1*%
%TO.N,+1V1*%
X86000000Y-77980000D03*
%TO.P,C10,2*%
%TO.N,GND*%
X86000000Y-77020000D03*
%TD*%
D19*
%TO.P,C6,1*%
%TO.N,+3V3*%
X90582500Y-85400000D03*
%TO.P,C6,2*%
%TO.N,GND*%
X91542500Y-85400000D03*
%TD*%
D25*
%TO.P,J1,1,VBUS*%
%TO.N,VBUS*%
X88300000Y-63155000D03*
%TO.P,J1,2,D-*%
%TO.N,/USB_D-*%
X87650000Y-63155000D03*
%TO.P,J1,3,D+*%
%TO.N,/USB_D+*%
X87000000Y-63155000D03*
%TO.P,J1,4,ID*%
%TO.N,unconnected-(J1-ID-Pad4)*%
X86350000Y-63155000D03*
%TO.P,J1,5,GND*%
%TO.N,GND*%
X85700000Y-63155000D03*
D26*
%TO.P,J1,6,Shield*%
%TO.N,unconnected-(J1-Shield-Pad6)*%
X90875000Y-59305000D03*
D27*
%TO.N,unconnected-(J1-Shield-Pad6)_2*%
X90725000Y-63105000D03*
%TO.N,unconnected-(J1-Shield-Pad6)_1*%
X83275000Y-63105000D03*
D26*
%TO.N,unconnected-(J1-Shield-Pad6)_0*%
X83125000Y-59305000D03*
%TD*%
D19*
%TO.P,C17,1*%
%TO.N,+3V3*%
X79337500Y-98950000D03*
%TO.P,C17,2*%
%TO.N,GND*%
X80297500Y-98950000D03*
%TD*%
D28*
%TO.P,C4,1*%
%TO.N,+3V3*%
X78980000Y-85500000D03*
%TO.P,C4,2*%
%TO.N,GND*%
X78020000Y-85500000D03*
%TD*%
D11*
%TO.P,SW2,1,1*%
%TO.N,/RUN*%
X95425000Y-93425000D03*
%TO.P,SW2,2,2*%
X99575000Y-93425000D03*
%TO.P,SW2,3,3*%
%TO.N,GND*%
X95425000Y-95575000D03*
%TO.P,SW2,4,4*%
X99575000Y-95575000D03*
%TD*%
D29*
%TO.P,U2,1,GND*%
%TO.N,GND*%
X96200000Y-65150000D03*
%TO.P,U2,2,VO*%
%TO.N,+3V3*%
X98500000Y-65150000D03*
D30*
X98500000Y-58850000D03*
D29*
%TO.P,U2,3,VI*%
%TO.N,VBUS*%
X100800000Y-65150000D03*
%TD*%
D31*
%TO.P,U3,1,~{CS}*%
%TO.N,/SQPI_SS_N*%
X70900000Y-66095000D03*
%TO.P,U3,2,DO(IO1)*%
%TO.N,/SQPI_SD1*%
X70900000Y-67365000D03*
%TO.P,U3,3,IO2*%
%TO.N,/SQPI_SD2*%
X70900000Y-68635000D03*
%TO.P,U3,4,GND*%
%TO.N,GND*%
X70900000Y-69905000D03*
%TO.P,U3,5,DI(IO0)*%
%TO.N,/SQPI_SD0*%
X78100000Y-69905000D03*
%TO.P,U3,6,CLK*%
%TO.N,/SQPI_SCLK*%
X78100000Y-68635000D03*
%TO.P,U3,7,IO3*%
%TO.N,/SQPI_SD3*%
X78100000Y-67365000D03*
%TO.P,U3,8,VCC*%
%TO.N,+3V3*%
X78100000Y-66095000D03*
%TD*%
D22*
%TO.P,R4,1*%
%TO.N,/SQPI_SS_N*%
X76990000Y-61000000D03*
%TO.P,R4,2*%
%TO.N,+3V3*%
X78010000Y-61000000D03*
%TD*%
D21*
%TO.P,R2,1*%
%TO.N,Net-(U1-USB_DM)*%
X88000000Y-73510000D03*
%TO.P,R2,2*%
%TO.N,/USB_D-*%
X88000000Y-72490000D03*
%TD*%
D32*
%TO.P,U4,1,SDA*%
%TO.N,/SDA*%
X75000000Y-97900000D03*
%TO.P,U4,2,GND*%
%TO.N,GND*%
X75000000Y-98850000D03*
%TO.P,U4,3,NC*%
%TO.N,unconnected-(U4-NC-Pad3)*%
X75000000Y-99800000D03*
%TO.P,U4,4,NC*%
%TO.N,unconnected-(U4-NC-Pad4)*%
X77800000Y-99800000D03*
%TO.P,U4,5,VCC*%
%TO.N,+3V3*%
X77800000Y-98850000D03*
%TO.P,U4,6,SCL*%
%TO.N,/SCL*%
X77800000Y-97900000D03*
D33*
%TO.P,U4,7,DAP*%
%TO.N,unconnected-(U4-DAP-Pad7)*%
X76400000Y-98850000D03*
%TD*%
D21*
%TO.P,R6,1*%
%TO.N,+3V3*%
X72890000Y-98860000D03*
%TO.P,R6,2*%
%TO.N,/SDA*%
X72890000Y-97840000D03*
%TD*%
D19*
%TO.P,C7,1*%
%TO.N,+3V3*%
X90582500Y-81900000D03*
%TO.P,C7,2*%
%TO.N,GND*%
X91542500Y-81900000D03*
%TD*%
%TO.P,C16,1*%
%TO.N,+3V3*%
X83520000Y-66500000D03*
%TO.P,C16,2*%
%TO.N,GND*%
X84480000Y-66500000D03*
%TD*%
D15*
%TO.P,C13,1*%
%TO.N,+1V1*%
X89500000Y-78775000D03*
%TO.P,C13,2*%
%TO.N,GND*%
X89500000Y-77225000D03*
%TD*%
D13*
%TO.P,J4,1,Pin_1*%
%TO.N,/SWCLK*%
X92982500Y-100900000D03*
D14*
%TO.P,J4,2,Pin_2*%
%TO.N,GND*%
X95522500Y-100900000D03*
%TO.P,J4,3,Pin_3*%
%TO.N,/SWDIO*%
X98062500Y-100900000D03*
%TD*%
D34*
%TO.P,C1,1*%
%TO.N,VBUS*%
X101000000Y-67225000D03*
%TO.P,C1,2*%
%TO.N,GND*%
X101000000Y-68775000D03*
%TD*%
D35*
%TO.P,C2,1*%
%TO.N,+3V3*%
X98000000Y-67500000D03*
%TO.P,C2,2*%
%TO.N,GND*%
X96450000Y-67500000D03*
%TD*%
D10*
%TO.P,C15,1*%
%TO.N,Net-(C15-Pad1)*%
X88500000Y-95520000D03*
%TO.P,C15,2*%
%TO.N,GND*%
X88500000Y-96480000D03*
%TD*%
D19*
%TO.P,C11,1*%
%TO.N,+3V3*%
X90582500Y-80900000D03*
%TO.P,C11,2*%
%TO.N,GND*%
X91542500Y-80900000D03*
%TD*%
D10*
%TO.P,C9,1*%
%TO.N,+1V1*%
X86000000Y-90020000D03*
%TO.P,C9,2*%
%TO.N,GND*%
X86000000Y-90980000D03*
%TD*%
D24*
%TO.P,C8,1*%
%TO.N,+3V3*%
X87000000Y-77980000D03*
%TO.P,C8,2*%
%TO.N,GND*%
X87000000Y-77020000D03*
%TD*%
D28*
%TO.P,C3,1*%
%TO.N,+3V3*%
X80542500Y-81500000D03*
%TO.P,C3,2*%
%TO.N,GND*%
X79582500Y-81500000D03*
%TD*%
D36*
%TO.N,GND*%
X87000000Y-97500000D03*
X91500000Y-76000000D03*
X84000000Y-91000000D03*
X87000000Y-76000000D03*
X101000000Y-95500000D03*
X72500000Y-70000000D03*
X89500000Y-76000000D03*
X95000000Y-64500000D03*
X84000000Y-95500000D03*
X79500000Y-80500000D03*
X92500000Y-81000000D03*
X86000000Y-82500000D03*
X86040000Y-76000000D03*
X81350000Y-99000000D03*
X92500000Y-85350000D03*
X87000000Y-91000000D03*
X66500000Y-61000000D03*
X95000000Y-66000000D03*
X88500000Y-97500000D03*
X87500000Y-98500000D03*
X84140841Y-86721602D03*
X85500000Y-66500000D03*
X74000000Y-99000000D03*
X77000000Y-85460000D03*
X85500000Y-64500000D03*
X100500000Y-70000000D03*
X92500000Y-82000000D03*
%TO.N,+3V3*%
X101000000Y-102000000D03*
X81350000Y-97500000D03*
X98500000Y-64000000D03*
X89000000Y-68000000D03*
X101000000Y-104500000D03*
X98500000Y-62000000D03*
X72500000Y-86350000D03*
X78000000Y-77650000D03*
X82500000Y-94500000D03*
X82500000Y-101000000D03*
X99500000Y-73000000D03*
X71000000Y-95500000D03*
X81500000Y-68500000D03*
X102000000Y-98500000D03*
X85500000Y-68000000D03*
X87966983Y-86493171D03*
%TO.N,+1V1*%
X85500000Y-75000000D03*
X86000000Y-86650002D03*
X83349998Y-84000000D03*
X89000000Y-75000000D03*
%TO.N,/GPIO7*%
X83000000Y-85000000D03*
X75000000Y-83500000D03*
%TO.N,/GPIO14*%
X83057317Y-86959614D03*
X80709620Y-89209620D03*
%TO.N,/GPIO29*%
X95000000Y-79000000D03*
X87650002Y-83000000D03*
%TO.N,/GPIO22*%
X87966983Y-84493171D03*
X97500000Y-84000000D03*
%TO.N,/XOUT*%
X85010632Y-86952828D03*
X85000000Y-92500000D03*
%TO.N,/SQPI_SD1*%
X81000000Y-77000000D03*
X81500000Y-75000000D03*
%TO.N,/GPIO0*%
X80500000Y-78500000D03*
X82948268Y-82284263D03*
%TD*%
D37*
%TO.N,GND*%
X81300000Y-98950000D02*
X81350000Y-99000000D01*
D38*
X72075000Y-62075000D02*
X67925000Y-62075000D01*
D37*
X85000000Y-90980000D02*
X84020000Y-90980000D01*
X88500000Y-97000000D02*
X88500000Y-97500000D01*
X84200000Y-95300000D02*
X84000000Y-95500000D01*
X95425000Y-95575000D02*
X99575000Y-95575000D01*
X70900000Y-69905000D02*
X72405000Y-69905000D01*
D39*
X85700000Y-63155000D02*
X85700000Y-64300000D01*
D37*
X86000000Y-90980000D02*
X86980000Y-90980000D01*
X66500000Y-61000000D02*
X67575000Y-62075000D01*
X79582500Y-80582500D02*
X79500000Y-80500000D01*
D39*
X87095000Y-96480000D02*
X86875000Y-96700000D01*
D37*
X79582500Y-81500000D02*
X79582500Y-80582500D01*
D38*
X84500000Y-87937500D02*
X84500000Y-87361435D01*
D37*
X78020000Y-85500000D02*
X77040000Y-85500000D01*
X85500000Y-83000000D02*
X85500000Y-84500000D01*
X99575000Y-95575000D02*
X100925000Y-95575000D01*
X91542500Y-81900000D02*
X92400000Y-81900000D01*
X86480000Y-98500000D02*
X87500000Y-98500000D01*
D38*
X84360632Y-87222067D02*
X84360632Y-86941393D01*
X84360632Y-86941393D02*
X84140841Y-86721602D01*
X84500000Y-87361435D02*
X84360632Y-87222067D01*
D37*
X91500000Y-77225000D02*
X91500000Y-76000000D01*
X91542500Y-85400000D02*
X92450000Y-85400000D01*
X96200000Y-65150000D02*
X95650000Y-65150000D01*
X96200000Y-65150000D02*
X96200000Y-67250000D01*
X77040000Y-85500000D02*
X77000000Y-85460000D01*
X80297500Y-98950000D02*
X81300000Y-98950000D01*
X87000000Y-77020000D02*
X87000000Y-76000000D01*
X95850000Y-65150000D02*
X95000000Y-66000000D01*
X95650000Y-65150000D02*
X95000000Y-64500000D01*
X100925000Y-95575000D02*
X101000000Y-95500000D01*
X74150000Y-98850000D02*
X74000000Y-99000000D01*
X92400000Y-81900000D02*
X92500000Y-82000000D01*
X101000000Y-69500000D02*
X100500000Y-70000000D01*
X67575000Y-62075000D02*
X67925000Y-62075000D01*
X88500000Y-96480000D02*
X88500000Y-97000000D01*
X86875000Y-96700000D02*
X86875000Y-97375000D01*
X86000000Y-77020000D02*
X86000000Y-76040000D01*
X86000000Y-76040000D02*
X86040000Y-76000000D01*
X91542500Y-80900000D02*
X92400000Y-80900000D01*
X72405000Y-69905000D02*
X72500000Y-70000000D01*
X89500000Y-77225000D02*
X89500000Y-76000000D01*
X86980000Y-90980000D02*
X87000000Y-91000000D01*
X92450000Y-85400000D02*
X92500000Y-85350000D01*
X85125000Y-95300000D02*
X84200000Y-95300000D01*
X86000000Y-82500000D02*
X85500000Y-83000000D01*
X86875000Y-97375000D02*
X87000000Y-97500000D01*
D39*
X85700000Y-64300000D02*
X85500000Y-64500000D01*
D37*
X92400000Y-80900000D02*
X92500000Y-81000000D01*
X87000000Y-76000000D02*
X87000000Y-76500000D01*
X96200000Y-67250000D02*
X96450000Y-67500000D01*
X75000000Y-98850000D02*
X74150000Y-98850000D01*
X101000000Y-68775000D02*
X101000000Y-69500000D01*
D39*
X84480000Y-66500000D02*
X85500000Y-66500000D01*
D37*
X96200000Y-65150000D02*
X95850000Y-65150000D01*
X84020000Y-90980000D02*
X84000000Y-91000000D01*
D39*
%TO.N,VBUS*%
X64000000Y-61000000D02*
X64000000Y-62840000D01*
X79000000Y-58000000D02*
X67000000Y-58000000D01*
X80500000Y-61000000D02*
X79000000Y-59500000D01*
X88300000Y-63155000D02*
X90145000Y-65000000D01*
X88300000Y-63155000D02*
X88300000Y-62205000D01*
X100800000Y-63300000D02*
X100800000Y-65150000D01*
X67000000Y-58000000D02*
X64000000Y-61000000D01*
X90145000Y-65000000D02*
X93000000Y-65000000D01*
X79000000Y-59500000D02*
X79000000Y-58000000D01*
X95000000Y-63000000D02*
X100500000Y-63000000D01*
D37*
X100800000Y-65150000D02*
X100800000Y-67025000D01*
D39*
X100500000Y-63000000D02*
X100800000Y-63300000D01*
X87095000Y-61000000D02*
X80500000Y-61000000D01*
X88300000Y-62205000D02*
X87095000Y-61000000D01*
D37*
X100800000Y-67025000D02*
X101000000Y-67225000D01*
D39*
X101000000Y-65350000D02*
X100800000Y-65150000D01*
X93000000Y-65000000D02*
X95000000Y-63000000D01*
D37*
%TO.N,+3V3*%
X94000000Y-70000000D02*
X94000000Y-76275000D01*
X100000000Y-70800000D02*
X102200000Y-70800000D01*
X101000000Y-98500000D02*
X97500000Y-98500000D01*
X101000000Y-98500000D02*
X101000000Y-102000000D01*
D38*
X87966983Y-85936657D02*
X88403640Y-85500000D01*
X86100000Y-80100000D02*
X86000000Y-80000000D01*
X87700000Y-80365686D02*
X87700000Y-81062500D01*
D37*
X94000000Y-76275000D02*
X92887500Y-77387500D01*
X92000000Y-95000000D02*
X92000000Y-94010000D01*
X100000000Y-70800000D02*
X100000000Y-72500000D01*
D39*
X98275000Y-65375000D02*
X98500000Y-65150000D01*
D38*
X88065686Y-80000000D02*
X90275000Y-80000000D01*
D39*
X83520000Y-66500000D02*
X81500000Y-66500000D01*
D37*
X97500000Y-98500000D02*
X96000000Y-97000000D01*
D39*
X77900000Y-98950000D02*
X77800000Y-98850000D01*
D38*
X82062500Y-85500000D02*
X78980000Y-85500000D01*
D37*
X72890000Y-101390000D02*
X72890000Y-100500000D01*
X97500000Y-70000000D02*
X98300000Y-70800000D01*
D38*
X87700000Y-81596360D02*
X87700000Y-81062500D01*
D37*
X80542500Y-80192500D02*
X80542500Y-81500000D01*
D38*
X87296360Y-82000000D02*
X87700000Y-81596360D01*
X86000000Y-80000000D02*
X86000000Y-79802942D01*
D37*
X92887500Y-77387500D02*
X91500000Y-78775000D01*
X69000000Y-97500000D02*
X71000000Y-95500000D01*
D38*
X87000000Y-78802942D02*
X87000000Y-77980000D01*
D37*
X98500000Y-62000000D02*
X98500000Y-58850000D01*
D39*
X79500000Y-66500000D02*
X79095000Y-66095000D01*
D38*
X85700000Y-88800000D02*
X85000000Y-89500000D01*
D37*
X96000000Y-97000000D02*
X94000000Y-97000000D01*
X91500000Y-80000000D02*
X93000000Y-78500000D01*
D39*
X78010000Y-66005000D02*
X78100000Y-66095000D01*
D37*
X98000000Y-67500000D02*
X99000000Y-66500000D01*
X103000000Y-69500000D02*
X103500000Y-69000000D01*
X105160000Y-62340000D02*
X108000000Y-62340000D01*
X72890000Y-100500000D02*
X72890000Y-98860000D01*
X72890000Y-100500000D02*
X71000000Y-100500000D01*
X78439999Y-86350000D02*
X78980000Y-85809999D01*
X76000000Y-104500000D02*
X72890000Y-101390000D01*
D38*
X87700000Y-80365686D02*
X88065686Y-80000000D01*
D37*
X91000000Y-70000000D02*
X89000000Y-68000000D01*
X82500000Y-91180550D02*
X82500000Y-94500000D01*
D38*
X86000000Y-79802942D02*
X87000000Y-78802942D01*
X88403640Y-85500000D02*
X88937500Y-85500000D01*
D37*
X94000000Y-97000000D02*
X92000000Y-95000000D01*
X83520000Y-66809999D02*
X83520000Y-66500000D01*
X98000000Y-69500000D02*
X97500000Y-70000000D01*
X93500000Y-78500000D02*
X93500000Y-78000000D01*
D38*
X88262500Y-80900000D02*
X88100000Y-81062500D01*
D37*
X82500000Y-103500000D02*
X82500000Y-102500000D01*
X82500000Y-68500000D02*
X83855001Y-67144999D01*
X72500000Y-86350000D02*
X78439999Y-86350000D01*
X98000000Y-67500000D02*
X98000000Y-69500000D01*
X102000000Y-98500000D02*
X101000000Y-98500000D01*
X90582500Y-80900000D02*
X90582500Y-81900000D01*
D39*
X78100000Y-66095000D02*
X78100000Y-61090000D01*
D37*
X90582500Y-80711734D02*
X91294234Y-80000000D01*
X82500000Y-102500000D02*
X79337500Y-99337500D01*
X80707500Y-97500000D02*
X80357500Y-97850000D01*
X103000000Y-70000000D02*
X103000000Y-69500000D01*
X83855001Y-67144999D02*
X83520000Y-66809999D01*
D38*
X90582500Y-80900000D02*
X88262500Y-80900000D01*
D37*
X90582500Y-80900000D02*
X90582500Y-80711734D01*
X103500000Y-64000000D02*
X105160000Y-62340000D01*
X98500000Y-65150000D02*
X98500000Y-64000000D01*
D38*
X88937500Y-81900000D02*
X90582500Y-81900000D01*
D37*
X82500000Y-102500000D02*
X82500000Y-101000000D01*
D38*
X86503640Y-82000000D02*
X87296360Y-82000000D01*
D37*
X83660550Y-90020000D02*
X82500000Y-91180550D01*
D39*
X79095000Y-66095000D02*
X78100000Y-66095000D01*
D37*
X93500000Y-78000000D02*
X92887500Y-77387500D01*
D38*
X88937500Y-85500000D02*
X90482500Y-85500000D01*
D37*
X69000000Y-98500000D02*
X69000000Y-97500000D01*
D38*
X81662500Y-81500000D02*
X80542500Y-81500000D01*
D37*
X101000000Y-104500000D02*
X81500000Y-104500000D01*
X94000000Y-70000000D02*
X91000000Y-70000000D01*
D38*
X85700000Y-80300000D02*
X86000000Y-80000000D01*
D39*
X78100000Y-61090000D02*
X78010000Y-61000000D01*
D37*
X99000000Y-66500000D02*
X98500000Y-66000000D01*
D38*
X86100000Y-80100000D02*
X86100000Y-81062500D01*
D37*
X81500000Y-68500000D02*
X82500000Y-68500000D01*
X100000000Y-72500000D02*
X99500000Y-73000000D01*
X81500000Y-104500000D02*
X82500000Y-103500000D01*
X98500000Y-66000000D02*
X98500000Y-65150000D01*
X91294234Y-80000000D02*
X91500000Y-80000000D01*
X93000000Y-78500000D02*
X93500000Y-78500000D01*
D38*
X86100000Y-81062500D02*
X86100000Y-81596360D01*
X87966983Y-86493171D02*
X87966983Y-85936657D01*
X90482500Y-85500000D02*
X90582500Y-85400000D01*
X85700000Y-87937500D02*
X85700000Y-88800000D01*
X85000000Y-89500000D02*
X85000000Y-90020000D01*
D37*
X103500000Y-69000000D02*
X103500000Y-64000000D01*
D38*
X85700000Y-81062500D02*
X85700000Y-80300000D01*
D37*
X102200000Y-70800000D02*
X103000000Y-70000000D01*
X78000000Y-77650000D02*
X80542500Y-80192500D01*
D38*
X82062500Y-81900000D02*
X81662500Y-81500000D01*
D39*
X79337500Y-98950000D02*
X77900000Y-98950000D01*
D37*
X98300000Y-70800000D02*
X100000000Y-70800000D01*
X81500000Y-104500000D02*
X76000000Y-104500000D01*
D39*
X81500000Y-66500000D02*
X79500000Y-66500000D01*
D38*
X86100000Y-81596360D02*
X86503640Y-82000000D01*
D37*
X84710001Y-68000000D02*
X83855001Y-67144999D01*
X71000000Y-100500000D02*
X69000000Y-98500000D01*
X85500000Y-68000000D02*
X84710001Y-68000000D01*
X78980000Y-85809999D02*
X78980000Y-85500000D01*
X97500000Y-70000000D02*
X94000000Y-70000000D01*
D38*
X90275000Y-80000000D02*
X91500000Y-78775000D01*
D37*
X81350000Y-97500000D02*
X80707500Y-97500000D01*
X79337500Y-99337500D02*
X79337500Y-98950000D01*
X85000000Y-90020000D02*
X83660550Y-90020000D01*
D38*
%TO.N,+1V1*%
X86000000Y-79237256D02*
X86000000Y-77980000D01*
X86100000Y-86750002D02*
X86100000Y-87937500D01*
X86000000Y-86650002D02*
X86100000Y-86750002D01*
X85742744Y-77980000D02*
X85000000Y-77237256D01*
X88725000Y-78775000D02*
X89500000Y-78775000D01*
X85300000Y-81062500D02*
X85300000Y-80134314D01*
X89000000Y-75000000D02*
X89419239Y-75000000D01*
X85000000Y-75500000D02*
X85500000Y-75000000D01*
X86000000Y-89065685D02*
X86000000Y-90020000D01*
X83349998Y-83012502D02*
X83349998Y-84000000D01*
X87300000Y-80200000D02*
X88725000Y-78775000D01*
X85300000Y-81596360D02*
X85096360Y-81800000D01*
X86100000Y-87937500D02*
X86100000Y-88965685D01*
X87300000Y-81062500D02*
X87300000Y-80200000D01*
X90275000Y-75855761D02*
X90275000Y-78000000D01*
X86100000Y-88965685D02*
X86000000Y-89065685D01*
X85096360Y-81800000D02*
X84562500Y-81800000D01*
X85300000Y-81062500D02*
X85300000Y-81596360D01*
X84562500Y-81800000D02*
X83349998Y-83012502D01*
X85000000Y-77237256D02*
X85000000Y-75500000D01*
X85300000Y-80134314D02*
X85600000Y-79834314D01*
X89419239Y-75000000D02*
X90275000Y-75855761D01*
X85600000Y-79637256D02*
X86000000Y-79237256D01*
X86000000Y-77980000D02*
X85742744Y-77980000D01*
X90275000Y-78000000D02*
X89500000Y-78775000D01*
X85600000Y-79834314D02*
X85600000Y-79637256D01*
%TO.N,/XIN*%
X84462046Y-88675000D02*
X84062046Y-89075000D01*
D39*
X85125000Y-97125000D02*
X85520000Y-97520000D01*
D38*
X84900000Y-87937500D02*
X84900000Y-88471360D01*
X81500000Y-91131372D02*
X81500000Y-94500000D01*
X83102732Y-89800000D02*
X82831372Y-89800000D01*
X82831372Y-89800000D02*
X81500000Y-91131372D01*
X84696360Y-88675000D02*
X84462046Y-88675000D01*
X83700000Y-96700000D02*
X85125000Y-96700000D01*
D39*
X85125000Y-96700000D02*
X85125000Y-97125000D01*
D38*
X84900000Y-88471360D02*
X84696360Y-88675000D01*
X81500000Y-94500000D02*
X83700000Y-96700000D01*
X84062046Y-89075000D02*
X83827732Y-89075000D01*
D39*
X85520000Y-97520000D02*
X85520000Y-98500000D01*
D38*
X83827732Y-89075000D02*
X83102732Y-89800000D01*
D39*
%TO.N,Net-(C15-Pad1)*%
X86875000Y-95300000D02*
X88280000Y-95300000D01*
X86875000Y-95300000D02*
X86875000Y-94625000D01*
X86875000Y-94625000D02*
X87010000Y-94490000D01*
X87010000Y-94490000D02*
X87010000Y-92500000D01*
X88280000Y-95300000D02*
X88500000Y-95520000D01*
D38*
%TO.N,/USB_D-*%
X87650000Y-72140000D02*
X87650000Y-63155000D01*
X88000000Y-72490000D02*
X87650000Y-72140000D01*
%TO.N,/USB_D+*%
X87000000Y-71990000D02*
X87000000Y-63155000D01*
X86500000Y-72490000D02*
X87000000Y-71990000D01*
%TO.N,/GPIO9*%
X64000000Y-88240000D02*
X78760000Y-88240000D01*
X78760000Y-88240000D02*
X80700000Y-86300000D01*
X80700000Y-86300000D02*
X82062500Y-86300000D01*
%TO.N,/GPIO7*%
X82900000Y-85100000D02*
X83000000Y-85000000D01*
X74160000Y-83160000D02*
X64000000Y-83160000D01*
X75000000Y-83500000D02*
X74500000Y-83500000D01*
X74500000Y-83500000D02*
X74160000Y-83160000D01*
X82062500Y-85100000D02*
X82900000Y-85100000D01*
%TO.N,/GPIO4*%
X69500000Y-75500000D02*
X69460000Y-75540000D01*
X69460000Y-75540000D02*
X64000000Y-75540000D01*
X70500000Y-75500000D02*
X69500000Y-75500000D01*
X82062500Y-83900000D02*
X80400000Y-83900000D01*
X80000000Y-83500000D02*
X78500000Y-83500000D01*
X80400000Y-83900000D02*
X80000000Y-83500000D01*
X78500000Y-83500000D02*
X70500000Y-75500000D01*
%TO.N,/GPIO6*%
X77700000Y-84700000D02*
X73620000Y-80620000D01*
X82062500Y-84700000D02*
X77700000Y-84700000D01*
X73620000Y-80620000D02*
X64000000Y-80620000D01*
%TO.N,/GPIO11*%
X81500000Y-87500000D02*
X79000000Y-90000000D01*
X73000000Y-90000000D02*
X69680000Y-93320000D01*
X79000000Y-90000000D02*
X73000000Y-90000000D01*
X69680000Y-93320000D02*
X64000000Y-93320000D01*
X81662500Y-87500000D02*
X81500000Y-87500000D01*
X82062500Y-87100000D02*
X81662500Y-87500000D01*
%TO.N,/GPIO5*%
X82062500Y-84300000D02*
X78734314Y-84300000D01*
X78734314Y-84300000D02*
X77467157Y-83032843D01*
X77032843Y-83032843D02*
X72000000Y-78000000D01*
X77467157Y-83032843D02*
X77032843Y-83032843D01*
X72000000Y-78000000D02*
X71920000Y-78080000D01*
X71920000Y-78080000D02*
X64000000Y-78080000D01*
%TO.N,/GPIO8*%
X79434314Y-87000000D02*
X65300000Y-87000000D01*
X80534314Y-85900000D02*
X79434314Y-87000000D01*
X82062500Y-85900000D02*
X80534314Y-85900000D01*
X65300000Y-87000000D02*
X64000000Y-85700000D01*
%TO.N,/GPIO10*%
X70000000Y-89000000D02*
X68220000Y-90780000D01*
X82062500Y-86700000D02*
X81300000Y-86700000D01*
X81300000Y-86700000D02*
X79000000Y-89000000D01*
X68220000Y-90780000D02*
X64000000Y-90780000D01*
X79000000Y-89000000D02*
X70000000Y-89000000D01*
%TO.N,/GPIO14*%
X80709620Y-89209620D02*
X80709620Y-89290380D01*
X83700000Y-87200000D02*
X83700000Y-87937500D01*
X80709620Y-89290380D02*
X79000000Y-91000000D01*
X73940000Y-91000000D02*
X64000000Y-100940000D01*
X83057317Y-86959614D02*
X83459614Y-86959614D01*
X79000000Y-91000000D02*
X73940000Y-91000000D01*
X83459614Y-86959614D02*
X83700000Y-87200000D01*
%TO.N,/GPIO3*%
X80934314Y-83500000D02*
X80500000Y-83065686D01*
X80500000Y-83065686D02*
X80500000Y-83000000D01*
X77000000Y-81000000D02*
X69000000Y-73000000D01*
X69000000Y-73000000D02*
X64000000Y-73000000D01*
X78868628Y-83000000D02*
X77000000Y-81131372D01*
X82062500Y-83500000D02*
X80934314Y-83500000D01*
X77000000Y-81131372D02*
X77000000Y-81000000D01*
X80500000Y-83000000D02*
X78868628Y-83000000D01*
%TO.N,/GPIO2*%
X78944314Y-82510000D02*
X78000000Y-81565686D01*
X67460000Y-70460000D02*
X64000000Y-70460000D01*
X78000000Y-81565686D02*
X78000000Y-80500000D01*
X80772954Y-82510000D02*
X78944314Y-82510000D01*
X82062500Y-83100000D02*
X81100000Y-83100000D01*
X81000000Y-82737046D02*
X80772954Y-82510000D01*
X76000000Y-79000000D02*
X67460000Y-70460000D01*
X81000000Y-83000000D02*
X81000000Y-82737046D01*
X76500000Y-79000000D02*
X76000000Y-79000000D01*
X81100000Y-83100000D02*
X81000000Y-83000000D01*
X78000000Y-80500000D02*
X76500000Y-79000000D01*
%TO.N,/GPIO28*%
X108000000Y-67434314D02*
X108000000Y-67420000D01*
X88937500Y-82700000D02*
X92734314Y-82700000D01*
X92734314Y-82700000D02*
X108000000Y-67434314D01*
%TO.N,/GPIO21*%
X107800000Y-85000000D02*
X108000000Y-85200000D01*
X104500000Y-85000000D02*
X107800000Y-85000000D01*
X90146366Y-85900000D02*
X90256366Y-86010000D01*
X88937500Y-85900000D02*
X90146366Y-85900000D01*
X91990000Y-86010000D02*
X92000000Y-86000000D01*
X103500000Y-86000000D02*
X104500000Y-85000000D01*
X92000000Y-86000000D02*
X103500000Y-86000000D01*
X90256366Y-86010000D02*
X91990000Y-86010000D01*
%TO.N,/GPIO15*%
X82665686Y-89400000D02*
X80500000Y-91565686D01*
X84100000Y-87937500D02*
X84100000Y-88471360D01*
X82000000Y-96000000D02*
X82000000Y-99000000D01*
X84100000Y-88471360D02*
X83896360Y-88675000D01*
X83896360Y-88675000D02*
X83662046Y-88675000D01*
X106060000Y-100440000D02*
X108000000Y-100440000D01*
X103000000Y-103500000D02*
X106060000Y-100440000D01*
X82937046Y-89400000D02*
X82665686Y-89400000D01*
X80500000Y-94500000D02*
X82000000Y-96000000D01*
X82000000Y-99000000D02*
X86500000Y-103500000D01*
X83662046Y-88675000D02*
X82937046Y-89400000D01*
X80500000Y-91565686D02*
X80500000Y-94500000D01*
X86500000Y-103500000D02*
X103000000Y-103500000D01*
%TO.N,/GPIO27*%
X88937500Y-83100000D02*
X92900000Y-83100000D01*
X92900000Y-83100000D02*
X106040000Y-69960000D01*
X106040000Y-69960000D02*
X108000000Y-69960000D01*
%TO.N,/GPIO19*%
X89700000Y-86700000D02*
X90000000Y-87000000D01*
X88937500Y-86700000D02*
X89700000Y-86700000D01*
X98000000Y-87000000D02*
X100000000Y-89000000D01*
X106720000Y-89000000D02*
X108000000Y-90280000D01*
X90000000Y-87000000D02*
X98000000Y-87000000D01*
X100000000Y-89000000D02*
X106720000Y-89000000D01*
%TO.N,/GPIO29*%
X88350002Y-82300000D02*
X87650002Y-83000000D01*
X105500000Y-65500000D02*
X106120000Y-64880000D01*
X88937500Y-82300000D02*
X88350002Y-82300000D01*
X105500000Y-68500000D02*
X105500000Y-65500000D01*
X95000000Y-79000000D02*
X105500000Y-68500000D01*
X106120000Y-64880000D02*
X108000000Y-64880000D01*
%TO.N,/GPIO20*%
X88937500Y-86300000D02*
X89980680Y-86300000D01*
X89980680Y-86300000D02*
X90180680Y-86500000D01*
X106760000Y-86500000D02*
X108000000Y-87740000D01*
X90180680Y-86500000D02*
X106760000Y-86500000D01*
%TO.N,/GPIO18*%
X92000000Y-88000000D02*
X96500000Y-88000000D01*
X96500000Y-88000000D02*
X99000000Y-90500000D01*
X99000000Y-90500000D02*
X105680000Y-90500000D01*
X91500000Y-87500000D02*
X92000000Y-88000000D01*
X88937500Y-87100000D02*
X89337500Y-87500000D01*
X89337500Y-87500000D02*
X91500000Y-87500000D01*
X105680000Y-90500000D02*
X108000000Y-92820000D01*
%TO.N,/GPIO16*%
X88000000Y-89000000D02*
X91868628Y-89000000D01*
X96000000Y-90000000D02*
X98000000Y-92000000D01*
X106400000Y-97900000D02*
X108000000Y-97900000D01*
X87700000Y-88700000D02*
X88000000Y-89000000D01*
X92868628Y-90000000D02*
X96000000Y-90000000D01*
X100500000Y-92000000D02*
X106400000Y-97900000D01*
X98000000Y-92000000D02*
X100500000Y-92000000D01*
X87700000Y-87937500D02*
X87700000Y-88700000D01*
X91868628Y-89000000D02*
X92868628Y-90000000D01*
%TO.N,/GPIO17*%
X96500000Y-89000000D02*
X99000000Y-91500000D01*
X91371814Y-87937500D02*
X92434314Y-89000000D01*
X92434314Y-89000000D02*
X96500000Y-89000000D01*
X99000000Y-91500000D02*
X104140000Y-91500000D01*
X104140000Y-91500000D02*
X108000000Y-95360000D01*
X88100000Y-87937500D02*
X91371814Y-87937500D01*
%TO.N,/GPIO22*%
X98840000Y-82660000D02*
X108000000Y-82660000D01*
X88937500Y-85100000D02*
X88403640Y-85100000D01*
X87966983Y-84663343D02*
X87966983Y-84493171D01*
X97500000Y-84000000D02*
X98840000Y-82660000D01*
X88403640Y-85100000D02*
X87966983Y-84663343D01*
%TO.N,/GPIO23*%
X95300000Y-84700000D02*
X99880000Y-80120000D01*
X99880000Y-80120000D02*
X108000000Y-80120000D01*
X88937500Y-84700000D02*
X95300000Y-84700000D01*
%TO.N,/GPIO25*%
X102960000Y-75040000D02*
X108000000Y-75040000D01*
X88937500Y-83900000D02*
X94100000Y-83900000D01*
X94100000Y-83900000D02*
X102960000Y-75040000D01*
%TO.N,/GPIO24*%
X101420000Y-77580000D02*
X108000000Y-77580000D01*
X94700000Y-84300000D02*
X101420000Y-77580000D01*
X88937500Y-84300000D02*
X94700000Y-84300000D01*
%TO.N,/GPIO26*%
X93500000Y-83500000D02*
X104500000Y-72500000D01*
X88937500Y-83500000D02*
X93500000Y-83500000D01*
X104500000Y-72500000D02*
X108000000Y-72500000D01*
%TO.N,/SWDIO*%
X91000000Y-95500000D02*
X93500000Y-98000000D01*
X98062500Y-100562500D02*
X98062500Y-100900000D01*
X86900000Y-87937500D02*
X86900000Y-89031372D01*
X87668628Y-89800000D02*
X90800000Y-89800000D01*
X91000000Y-90000000D02*
X91000000Y-95500000D01*
X90800000Y-89800000D02*
X91000000Y-90000000D01*
X86900000Y-89031372D02*
X87668628Y-89800000D01*
X95500000Y-98000000D02*
X98062500Y-100562500D01*
X93500000Y-98000000D02*
X95500000Y-98000000D01*
%TO.N,/SWCLK*%
X86500000Y-89197058D02*
X90500000Y-93197058D01*
X90500000Y-98417500D02*
X92982500Y-100900000D01*
X90500000Y-93197058D02*
X90500000Y-98417500D01*
X86500000Y-87937500D02*
X86500000Y-89197058D01*
%TO.N,Net-(U1-USB_DP)*%
X88000000Y-76000000D02*
X86500000Y-74500000D01*
X88000000Y-78368628D02*
X88000000Y-76000000D01*
X86500000Y-81062500D02*
X86500000Y-79868628D01*
X86500000Y-79868628D02*
X88000000Y-78368628D01*
X86500000Y-74500000D02*
X86500000Y-73510000D01*
%TO.N,Net-(U1-USB_DM)*%
X86900000Y-81062500D02*
X86900000Y-80034314D01*
X88000000Y-75010000D02*
X88000000Y-73510000D01*
X86900000Y-80034314D02*
X88500000Y-78434314D01*
X88500000Y-78434314D02*
X88500000Y-75510000D01*
X88500000Y-75510000D02*
X88000000Y-75010000D01*
%TO.N,/USB_BOOT*%
X72075000Y-59925000D02*
X67925000Y-59925000D01*
D39*
X74500000Y-59990000D02*
X72140000Y-59990000D01*
X72140000Y-59990000D02*
X72075000Y-59925000D01*
D38*
%TO.N,/SQPI_SS_N*%
X68500000Y-66000000D02*
X68595000Y-66095000D01*
X79500000Y-76000000D02*
X75554448Y-76000000D01*
D39*
X70900000Y-65100000D02*
X74500000Y-61500000D01*
X74510000Y-61000000D02*
X74500000Y-61010000D01*
D38*
X82900000Y-81062500D02*
X82900000Y-79900000D01*
D39*
X70900000Y-66095000D02*
X70900000Y-65100000D01*
X74500000Y-61500000D02*
X74500000Y-61010000D01*
D38*
X68500000Y-68945552D02*
X68500000Y-66000000D01*
X80350000Y-77350000D02*
X80350000Y-76850000D01*
X82900000Y-79900000D02*
X80350000Y-77350000D01*
D39*
X76990000Y-61000000D02*
X74510000Y-61000000D01*
D38*
X68595000Y-66095000D02*
X70900000Y-66095000D01*
X75554448Y-76000000D02*
X68500000Y-68945552D01*
X80350000Y-76850000D02*
X79500000Y-76000000D01*
%TO.N,/SCL*%
X83300000Y-87937500D02*
X83300000Y-88471360D01*
X82771360Y-89000000D02*
X82500000Y-89000000D01*
X83300000Y-88471360D02*
X82771360Y-89000000D01*
D39*
X77800000Y-97900000D02*
X79287500Y-97900000D01*
D38*
X82500000Y-89000000D02*
X79337500Y-92162500D01*
X79337500Y-92162500D02*
X79337500Y-97850000D01*
D39*
X79287500Y-97900000D02*
X79337500Y-97850000D01*
%TO.N,/SDA*%
X74940000Y-97840000D02*
X75000000Y-97900000D01*
D38*
X75000000Y-91500000D02*
X79338479Y-91500000D01*
X72890000Y-93610000D02*
X75000000Y-91500000D01*
X79338479Y-91500000D02*
X82900000Y-87938479D01*
X82900000Y-87938479D02*
X82900000Y-87937500D01*
X72890000Y-97840000D02*
X72890000Y-93610000D01*
D39*
X72890000Y-97840000D02*
X74940000Y-97840000D01*
D38*
X75000000Y-97700000D02*
X75000000Y-97900000D01*
%TO.N,/XOUT*%
X85300000Y-87242196D02*
X85300000Y-87937500D01*
X85990000Y-92500000D02*
X85000000Y-92500000D01*
X85010632Y-86952828D02*
X85300000Y-87242196D01*
D39*
%TO.N,/RUN*%
X95425000Y-93425000D02*
X99575000Y-93425000D01*
D38*
X92000000Y-89697058D02*
X92000000Y-92990000D01*
X87834314Y-89400000D02*
X91702942Y-89400000D01*
X87300000Y-87937500D02*
X87300000Y-88865686D01*
X91702942Y-89400000D02*
X92000000Y-89697058D01*
D39*
X95425000Y-93425000D02*
X92435000Y-93425000D01*
D38*
X87300000Y-88865686D02*
X87834314Y-89400000D01*
D39*
X92435000Y-93425000D02*
X92000000Y-92990000D01*
D38*
%TO.N,/SQPI_SD2*%
X84000000Y-79171570D02*
X84000000Y-78500000D01*
X74135000Y-68635000D02*
X70900000Y-68635000D01*
X84000000Y-78500000D02*
X74135000Y-68635000D01*
X83700000Y-81062500D02*
X83700000Y-79471570D01*
X83700000Y-79471570D02*
X84000000Y-79171570D01*
%TO.N,/SQPI_SCLK*%
X78635000Y-68635000D02*
X78100000Y-68635000D01*
X82550000Y-75434925D02*
X82550000Y-72550000D01*
X84800000Y-78168628D02*
X82400000Y-75768628D01*
X82400000Y-75584925D02*
X82550000Y-75434925D01*
X84800000Y-79502942D02*
X84800000Y-78168628D01*
X82550000Y-72550000D02*
X78635000Y-68635000D01*
X82400000Y-75768628D02*
X82400000Y-75584925D01*
X84500000Y-81062500D02*
X84500000Y-79802942D01*
X84500000Y-79802942D02*
X84800000Y-79502942D01*
%TO.N,/SQPI_SD1*%
X83300000Y-79300000D02*
X81000000Y-77000000D01*
X70900000Y-67365000D02*
X73865000Y-67365000D01*
X73865000Y-67365000D02*
X81500000Y-75000000D01*
X83300000Y-81062500D02*
X83300000Y-79300000D01*
%TO.N,/SQPI_SD0*%
X82150000Y-74150000D02*
X82150000Y-75269239D01*
X78100000Y-69905000D02*
X78100000Y-70100000D01*
X82000000Y-75934314D02*
X84400000Y-78334314D01*
X84100000Y-79637256D02*
X84100000Y-81062500D01*
X78100000Y-70100000D02*
X82150000Y-74150000D01*
X84400000Y-79337256D02*
X84100000Y-79637256D01*
X84400000Y-78334314D02*
X84400000Y-79337256D01*
X82000000Y-75419239D02*
X82000000Y-75934314D01*
X82150000Y-75269239D02*
X82000000Y-75419239D01*
%TO.N,/SQPI_SD3*%
X83000000Y-72000000D02*
X78365000Y-67365000D01*
X85200000Y-79668628D02*
X85200000Y-78002942D01*
X85200000Y-78002942D02*
X83000000Y-75802942D01*
X83000000Y-75802942D02*
X83000000Y-72000000D01*
X84900000Y-81062500D02*
X84900000Y-79968628D01*
X84900000Y-79968628D02*
X85200000Y-79668628D01*
X78365000Y-67365000D02*
X78100000Y-67365000D01*
%TO.N,/GPIO0*%
X75620000Y-77000000D02*
X64000000Y-65380000D01*
X82932531Y-82300000D02*
X82948268Y-82284263D01*
X79000000Y-77000000D02*
X75620000Y-77000000D01*
X80500000Y-78500000D02*
X79000000Y-77000000D01*
X82062500Y-82300000D02*
X82932531Y-82300000D01*
%TO.N,/GPIO1*%
X76054315Y-78000000D02*
X65974315Y-67920000D01*
X82062500Y-82700000D02*
X81528640Y-82700000D01*
X80938640Y-82110000D02*
X79110000Y-82110000D01*
X79000000Y-82000000D02*
X79000000Y-81500000D01*
X79110000Y-82110000D02*
X79000000Y-82000000D01*
X81528640Y-82700000D02*
X80938640Y-82110000D01*
X78500000Y-81000000D02*
X78500000Y-80000000D01*
X79000000Y-81500000D02*
X78500000Y-81000000D01*
X65974315Y-67920000D02*
X64000000Y-67920000D01*
X78500000Y-80000000D02*
X76500000Y-78000000D01*
X76500000Y-78000000D02*
X76054315Y-78000000D01*
%TD*%
M02*
