M48
; DRILL file {KiCad 8.0.2-1} date 2024-06-04T19:54:43-0700
; FORMAT={-:-/ absolute / inch / decimal}
; #@! TF.CreationDate,2024-06-04T19:54:43-07:00
; #@! TF.GenerationSoftware,Kicad,Pcbnew,8.0.2-1
; #@! TF.FileFunction,Plated,1,2,PTH
FMAT,2
INCH
; #@! TA.AperFunction,Plated,PTH,ViaDrill
T1C0.0118
; #@! TA.AperFunction,Plated,PTH,ComponentDrill
T2C0.0217
; #@! TA.AperFunction,Plated,PTH,ComponentDrill
T3C0.0335
; #@! TA.AperFunction,Plated,PTH,ComponentDrill
T4C0.0394
%
G90
G05
T1
X2.6181Y-2.4016
X2.7953Y-3.7598
X2.8543Y-2.7559
X2.8543Y-3.3996
X2.9134Y-3.8976
X2.9528Y-3.2874
X3.0315Y-3.3646
X3.0709Y-3.0571
X3.1299Y-3.1693
X3.1693Y-3.0906
X3.1775Y-3.5122
X3.189Y-3.0315
X3.2028Y-3.8386
X3.2028Y-3.8976
X3.2087Y-2.6969
X3.2087Y-2.9528
X3.248Y-3.7205
X3.248Y-3.9764
X3.2657Y-3.2395
X3.2677Y-3.3465
X3.27Y-3.4236
X3.2815Y-3.3071
X3.3071Y-3.5827
X3.3071Y-3.7598
X3.3126Y-3.4142
X3.3465Y-3.6417
X3.3469Y-3.4233
X3.3661Y-2.5394
X3.3661Y-2.6181
X3.3661Y-2.6772
X3.3661Y-2.9528
X3.3858Y-3.248
X3.3858Y-3.4114
X3.3874Y-2.9921
X3.4252Y-2.9921
X3.4252Y-3.5827
X3.4252Y-3.8386
X3.4449Y-3.878
X3.4508Y-3.2677
X3.4633Y-3.3265
X3.4633Y-3.4052
X3.4843Y-3.8386
X3.5039Y-2.6772
X3.5039Y-2.9528
X3.5236Y-2.9921
X3.6024Y-2.9921
X3.6417Y-3.189
X3.6417Y-3.2283
X3.6417Y-3.3602
X3.7402Y-2.5394
X3.7402Y-2.5984
X3.7402Y-3.1102
X3.8386Y-3.3071
X3.878Y-2.4409
X3.878Y-2.5197
X3.9173Y-2.874
X3.9567Y-2.7559
X3.9764Y-3.7598
X3.9764Y-4.0157
X3.9764Y-4.1142
X4.0157Y-3.878
T4
X2.5197Y-2.474
X2.5197Y-2.574
X2.5197Y-2.674
X2.5197Y-2.774
X2.5197Y-2.874
X2.5197Y-2.974
X2.5197Y-3.074
X2.5197Y-3.174
X2.5197Y-3.274
X2.5197Y-3.374
X2.5197Y-3.474
X2.5197Y-3.574
X2.5197Y-3.674
X2.5197Y-3.774
X2.5197Y-3.874
X2.5197Y-3.974
X2.5197Y-4.074
X3.6607Y-3.9724
X3.7607Y-3.9724
X3.8607Y-3.9724
X4.2717Y-2.4543
X4.2717Y-2.5543
X4.2717Y-2.6543
X4.2717Y-2.7543
X4.2717Y-2.8543
X4.2717Y-2.9543
X4.2717Y-3.0543
X4.2717Y-3.1543
X4.2717Y-3.2543
X4.2717Y-3.3543
X4.2717Y-3.4543
X4.2717Y-3.5543
X4.2717Y-3.6543
X4.2717Y-3.7543
X4.2717Y-3.8543
X4.2717Y-3.9543
X4.2717Y-4.0543
T2
G00X3.2726Y-2.3476
M15
G01X3.2726Y-2.322
M16
G05
G00X3.5778Y-2.3476
M15
G01X3.5778Y-2.322
M16
G05
T3
G00X3.2785Y-2.4953
M15
G01X3.2785Y-2.4736
M16
G05
G00X3.5719Y-2.4953
M15
G01X3.5719Y-2.4736
M16
G05
M30
