%TF.GenerationSoftware,KiCad,Pcbnew,8.0.2-1*%
%TF.CreationDate,2024-06-04T19:54:43-07:00*%
%TF.ProjectId,pcb_design_1,7063625f-6465-4736-9967-6e5f312e6b69,rev?*%
%TF.SameCoordinates,Original*%
%TF.FileFunction,Copper,L2,Bot*%
%TF.FilePolarity,Positive*%
%FSLAX46Y46*%
G04 Gerber Fmt 4.6, Leading zero omitted, Abs format (unit mm)*
G04 Created by KiCad (PCBNEW 8.0.2-1) date 2024-06-04 19:54:43*
%MOMM*%
%LPD*%
G01*
G04 APERTURE LIST*
%TA.AperFunction,ComponentPad*%
%ADD10R,1.700000X1.700000*%
%TD*%
%TA.AperFunction,ComponentPad*%
%ADD11O,1.700000X1.700000*%
%TD*%
%TA.AperFunction,ComponentPad*%
%ADD12O,1.150000X1.800000*%
%TD*%
%TA.AperFunction,ComponentPad*%
%ADD13O,1.450000X2.000000*%
%TD*%
%TA.AperFunction,ViaPad*%
%ADD14C,0.700000*%
%TD*%
%TA.AperFunction,Conductor*%
%ADD15C,0.500000*%
%TD*%
%TA.AperFunction,Conductor*%
%ADD16C,0.200000*%
%TD*%
G04 APERTURE END LIST*
D10*
%TO.P,J2,1,Pin_1*%
%TO.N,VBUS*%
X64000000Y-62840000D03*
D11*
%TO.P,J2,2,Pin_2*%
%TO.N,/GPIO0*%
X64000000Y-65380000D03*
%TO.P,J2,3,Pin_3*%
%TO.N,/GPIO1*%
X64000000Y-67920000D03*
%TO.P,J2,4,Pin_4*%
%TO.N,/GPIO2*%
X64000000Y-70460000D03*
%TO.P,J2,5,Pin_5*%
%TO.N,/GPIO3*%
X64000000Y-73000000D03*
%TO.P,J2,6,Pin_6*%
%TO.N,/GPIO4*%
X64000000Y-75540000D03*
%TO.P,J2,7,Pin_7*%
%TO.N,/GPIO5*%
X64000000Y-78080000D03*
%TO.P,J2,8,Pin_8*%
%TO.N,/GPIO6*%
X64000000Y-80620000D03*
%TO.P,J2,9,Pin_9*%
%TO.N,/GPIO7*%
X64000000Y-83160000D03*
%TO.P,J2,10,Pin_10*%
%TO.N,/GPIO8*%
X64000000Y-85700000D03*
%TO.P,J2,11,Pin_11*%
%TO.N,/GPIO9*%
X64000000Y-88240000D03*
%TO.P,J2,12,Pin_12*%
%TO.N,/GPIO10*%
X64000000Y-90780000D03*
%TO.P,J2,13,Pin_13*%
%TO.N,/GPIO11*%
X64000000Y-93320000D03*
%TO.P,J2,14,Pin_14*%
%TO.N,GND*%
X64000000Y-95860000D03*
%TO.P,J2,15,Pin_15*%
X64000000Y-98400000D03*
%TO.P,J2,16,Pin_16*%
%TO.N,/GPIO14*%
X64000000Y-100940000D03*
%TO.P,J2,17,Pin_17*%
%TO.N,GND*%
X64000000Y-103480000D03*
%TD*%
D10*
%TO.P,J3,1,Pin_1*%
%TO.N,+3V3*%
X108500000Y-62340000D03*
D11*
%TO.P,J3,2,Pin_2*%
%TO.N,/GPIO29*%
X108500000Y-64880000D03*
%TO.P,J3,3,Pin_3*%
%TO.N,/GPIO28*%
X108500000Y-67420000D03*
%TO.P,J3,4,Pin_4*%
%TO.N,/GPIO27*%
X108500000Y-69960000D03*
%TO.P,J3,5,Pin_5*%
%TO.N,/GPIO26*%
X108500000Y-72500000D03*
%TO.P,J3,6,Pin_6*%
%TO.N,/GPIO25*%
X108500000Y-75040000D03*
%TO.P,J3,7,Pin_7*%
%TO.N,/GPIO24*%
X108500000Y-77580000D03*
%TO.P,J3,8,Pin_8*%
%TO.N,/GPIO23*%
X108500000Y-80120000D03*
%TO.P,J3,9,Pin_9*%
%TO.N,/GPIO22*%
X108500000Y-82660000D03*
%TO.P,J3,10,Pin_10*%
%TO.N,/GPIO21*%
X108500000Y-85200000D03*
%TO.P,J3,11,Pin_11*%
%TO.N,/GPIO20*%
X108500000Y-87740000D03*
%TO.P,J3,12,Pin_12*%
%TO.N,/GPIO19*%
X108500000Y-90280000D03*
%TO.P,J3,13,Pin_13*%
%TO.N,/GPIO18*%
X108500000Y-92820000D03*
%TO.P,J3,14,Pin_14*%
%TO.N,/GPIO17*%
X108500000Y-95360000D03*
%TO.P,J3,15,Pin_15*%
%TO.N,/GPIO16*%
X108500000Y-97900000D03*
%TO.P,J3,16,Pin_16*%
%TO.N,/GPIO15*%
X108500000Y-100440000D03*
%TO.P,J3,17,Pin_17*%
%TO.N,GND*%
X108500000Y-102980000D03*
%TD*%
D12*
%TO.P,J1,6,Shield*%
%TO.N,unconnected-(J1-Shield-Pad6)*%
X90875000Y-59305000D03*
D13*
%TO.N,unconnected-(J1-Shield-Pad6)_2*%
X90725000Y-63105000D03*
%TO.N,unconnected-(J1-Shield-Pad6)_1*%
X83275000Y-63105000D03*
D12*
%TO.N,unconnected-(J1-Shield-Pad6)_0*%
X83125000Y-59305000D03*
%TD*%
D10*
%TO.P,J4,1,Pin_1*%
%TO.N,/SWCLK*%
X92982500Y-100900000D03*
D11*
%TO.P,J4,2,Pin_2*%
%TO.N,GND*%
X95522500Y-100900000D03*
%TO.P,J4,3,Pin_3*%
%TO.N,/SWDIO*%
X98062500Y-100900000D03*
%TD*%
D14*
%TO.N,GND*%
X87000000Y-97500000D03*
X91500000Y-76000000D03*
X84000000Y-91000000D03*
X87000000Y-76000000D03*
X101000000Y-95500000D03*
X72500000Y-70000000D03*
X89500000Y-76000000D03*
X95000000Y-64500000D03*
X84000000Y-95500000D03*
X79500000Y-80500000D03*
X92500000Y-81000000D03*
X86000000Y-82500000D03*
X86040000Y-76000000D03*
X81350000Y-99000000D03*
X92500000Y-85350000D03*
X87000000Y-91000000D03*
X66500000Y-61000000D03*
X95000000Y-66000000D03*
X88500000Y-97500000D03*
X87500000Y-98500000D03*
X84140841Y-86721602D03*
X85500000Y-66500000D03*
X74000000Y-99000000D03*
X77000000Y-85460000D03*
X85500000Y-64500000D03*
X100500000Y-70000000D03*
X92500000Y-82000000D03*
%TO.N,+3V3*%
X101000000Y-102000000D03*
X81350000Y-97500000D03*
X98500000Y-64000000D03*
X89000000Y-68000000D03*
X101000000Y-104500000D03*
X98500000Y-62000000D03*
X72500000Y-86350000D03*
X78000000Y-77650000D03*
X82500000Y-94500000D03*
X82500000Y-101000000D03*
X99500000Y-73000000D03*
X71000000Y-95500000D03*
X81500000Y-68500000D03*
X102000000Y-98500000D03*
X85500000Y-68000000D03*
X87966983Y-86493171D03*
%TO.N,+1V1*%
X85500000Y-75000000D03*
X86000000Y-86650002D03*
X83349998Y-84000000D03*
X89000000Y-75000000D03*
%TO.N,/GPIO7*%
X83000000Y-85000000D03*
X75000000Y-83500000D03*
%TO.N,/GPIO14*%
X83057317Y-86959614D03*
X80709620Y-89209620D03*
%TO.N,/GPIO29*%
X95000000Y-79000000D03*
X87650002Y-83000000D03*
%TO.N,/GPIO22*%
X87966983Y-84493171D03*
X97500000Y-84000000D03*
%TO.N,/XOUT*%
X85010632Y-86952828D03*
X85000000Y-92500000D03*
%TO.N,/SQPI_SD1*%
X81000000Y-77000000D03*
X81500000Y-75000000D03*
%TO.N,/GPIO0*%
X80500000Y-78500000D03*
X82948268Y-82284263D03*
%TD*%
D15*
%TO.N,+3V3*%
X104000000Y-84000000D02*
X103000000Y-85000000D01*
X101000000Y-102000000D02*
X101000000Y-104500000D01*
X83000000Y-100000000D02*
X83500000Y-99500000D01*
X104000000Y-77500000D02*
X104000000Y-84000000D01*
X83000000Y-100500000D02*
X83000000Y-100000000D01*
X83000000Y-97000000D02*
X83000000Y-95000000D01*
X104000000Y-84000000D02*
X104000000Y-96500000D01*
X83000000Y-98000000D02*
X82500000Y-98000000D01*
X89000000Y-68000000D02*
X85500000Y-68000000D01*
X83000000Y-98000000D02*
X83000000Y-97000000D01*
X78000000Y-77500000D02*
X78000000Y-77650000D01*
X83000000Y-95000000D02*
X82500000Y-94500000D01*
X96138200Y-86493171D02*
X87966983Y-86493171D01*
X104000000Y-96500000D02*
X102000000Y-98500000D01*
X82000000Y-97500000D02*
X81350000Y-97500000D01*
X83500000Y-99500000D02*
X83500000Y-98500000D01*
X103000000Y-85000000D02*
X97631371Y-85000000D01*
X99500000Y-73000000D02*
X104000000Y-77500000D01*
X81500000Y-69500000D02*
X77000000Y-74000000D01*
X72500000Y-94000000D02*
X72500000Y-86350000D01*
X98500000Y-64000000D02*
X98500000Y-62000000D01*
X77000000Y-76500000D02*
X78000000Y-77500000D01*
X97631371Y-85000000D02*
X96138200Y-86493171D01*
X82500000Y-101000000D02*
X83000000Y-100500000D01*
X81500000Y-68500000D02*
X81500000Y-69500000D01*
X71000000Y-95500000D02*
X72500000Y-94000000D01*
X83500000Y-98500000D02*
X83000000Y-98000000D01*
X82500000Y-98000000D02*
X82000000Y-97500000D01*
X77000000Y-74000000D02*
X77000000Y-76500000D01*
D16*
%TO.N,+1V1*%
X83650000Y-84650000D02*
X83650000Y-85850000D01*
X85341527Y-85991529D02*
X86000000Y-86650002D01*
X83508471Y-85991529D02*
X85341527Y-85991529D01*
X83349998Y-84349998D02*
X83650000Y-84650000D01*
X85500000Y-75000000D02*
X89000000Y-75000000D01*
X83650000Y-85850000D02*
X83508471Y-85991529D01*
X83349998Y-84000000D02*
X83349998Y-84349998D01*
%TO.N,/GPIO7*%
X82500000Y-84500000D02*
X76500000Y-84500000D01*
X76500000Y-84500000D02*
X75500000Y-83500000D01*
X75500000Y-83500000D02*
X75000000Y-83500000D01*
X83000000Y-85000000D02*
X82500000Y-84500000D01*
%TO.N,/GPIO14*%
X80709620Y-89209620D02*
X80807311Y-89209620D01*
X80807311Y-89209620D02*
X83057317Y-86959614D01*
%TO.N,/GPIO29*%
X87650002Y-83000000D02*
X87650002Y-82349998D01*
X94000000Y-80000000D02*
X95000000Y-79000000D01*
X87650002Y-82349998D02*
X90000000Y-80000000D01*
X90000000Y-80000000D02*
X94000000Y-80000000D01*
%TO.N,/GPIO22*%
X107840000Y-82500000D02*
X108000000Y-82660000D01*
X88000000Y-84000000D02*
X88000000Y-84460154D01*
X88000000Y-84460154D02*
X87966983Y-84493171D01*
X88000000Y-84000000D02*
X97500000Y-84000000D01*
%TO.N,/XOUT*%
X85000000Y-92500000D02*
X85000000Y-86963460D01*
X85000000Y-86963460D02*
X85010632Y-86952828D01*
%TO.N,/SQPI_SD1*%
X81000000Y-75500000D02*
X81000000Y-77000000D01*
X81500000Y-75000000D02*
X81000000Y-75500000D01*
%TO.N,/GPIO0*%
X81500000Y-79835995D02*
X81500000Y-80835995D01*
X81500000Y-80835995D02*
X82948268Y-82284263D01*
X80500000Y-78500000D02*
X80500000Y-78835995D01*
X80500000Y-78835995D02*
X81500000Y-79835995D01*
%TD*%
%TA.AperFunction,Conductor*%
%TO.N,GND*%
G36*
X64250000Y-97966988D02*
G01*
X64192993Y-97934075D01*
X64065826Y-97900000D01*
X63934174Y-97900000D01*
X63807007Y-97934075D01*
X63750000Y-97966988D01*
X63750000Y-96293012D01*
X63807007Y-96325925D01*
X63934174Y-96360000D01*
X64065826Y-96360000D01*
X64192993Y-96325925D01*
X64250000Y-96293012D01*
X64250000Y-97966988D01*
G37*
%TD.AperFunction*%
%TA.AperFunction,Conductor*%
G36*
X110742539Y-57220185D02*
G01*
X110788294Y-57272989D01*
X110799500Y-57324500D01*
X110799500Y-106675500D01*
X110779815Y-106742539D01*
X110727011Y-106788294D01*
X110675500Y-106799500D01*
X61324500Y-106799500D01*
X61257461Y-106779815D01*
X61211706Y-106727011D01*
X61200500Y-106675500D01*
X61200500Y-95609999D01*
X62669364Y-95609999D01*
X62669364Y-95610000D01*
X63566988Y-95610000D01*
X63534075Y-95667007D01*
X63500000Y-95794174D01*
X63500000Y-95925826D01*
X63534075Y-96052993D01*
X63566988Y-96110000D01*
X62669364Y-96110000D01*
X62726567Y-96323486D01*
X62726570Y-96323492D01*
X62826399Y-96537578D01*
X62961894Y-96731082D01*
X63128917Y-96898105D01*
X63315031Y-97028425D01*
X63358656Y-97083003D01*
X63365848Y-97152501D01*
X63334326Y-97214856D01*
X63315031Y-97231575D01*
X63128922Y-97361890D01*
X63128920Y-97361891D01*
X62961891Y-97528920D01*
X62961886Y-97528926D01*
X62826400Y-97722420D01*
X62826399Y-97722422D01*
X62726570Y-97936507D01*
X62726567Y-97936513D01*
X62669364Y-98149999D01*
X62669364Y-98150000D01*
X63566988Y-98150000D01*
X63534075Y-98207007D01*
X63500000Y-98334174D01*
X63500000Y-98465826D01*
X63534075Y-98592993D01*
X63566988Y-98650000D01*
X62669364Y-98650000D01*
X62726567Y-98863486D01*
X62726570Y-98863492D01*
X62826399Y-99077578D01*
X62961894Y-99271082D01*
X63128917Y-99438105D01*
X63322421Y-99573600D01*
X63521573Y-99666466D01*
X63574012Y-99712638D01*
X63593164Y-99779832D01*
X63572948Y-99846713D01*
X63519783Y-99892048D01*
X63513968Y-99894472D01*
X63506771Y-99897260D01*
X63484982Y-99905701D01*
X63484980Y-99905702D01*
X63303699Y-100017947D01*
X63146127Y-100161593D01*
X63017632Y-100331746D01*
X62922596Y-100522605D01*
X62922596Y-100522607D01*
X62864244Y-100727689D01*
X62844571Y-100939999D01*
X62844571Y-100940000D01*
X62864244Y-101152310D01*
X62922596Y-101357392D01*
X62922596Y-101357394D01*
X63017632Y-101548253D01*
X63142447Y-101713533D01*
X63146128Y-101718407D01*
X63303698Y-101862052D01*
X63484981Y-101974298D01*
X63513961Y-101985525D01*
X63569362Y-102028095D01*
X63592954Y-102093861D01*
X63577244Y-102161942D01*
X63527222Y-102210722D01*
X63521573Y-102213533D01*
X63322422Y-102306399D01*
X63322420Y-102306400D01*
X63128926Y-102441886D01*
X63128920Y-102441891D01*
X62961891Y-102608920D01*
X62961886Y-102608926D01*
X62826400Y-102802420D01*
X62826399Y-102802422D01*
X62726570Y-103016507D01*
X62726567Y-103016513D01*
X62669364Y-103229999D01*
X62669364Y-103230000D01*
X63566988Y-103230000D01*
X63534075Y-103287007D01*
X63500000Y-103414174D01*
X63500000Y-103545826D01*
X63534075Y-103672993D01*
X63566988Y-103730000D01*
X62669364Y-103730000D01*
X62726567Y-103943486D01*
X62726570Y-103943492D01*
X62826399Y-104157578D01*
X62961894Y-104351082D01*
X63128917Y-104518105D01*
X63322421Y-104653600D01*
X63536507Y-104753429D01*
X63536516Y-104753433D01*
X63750000Y-104810634D01*
X63750000Y-103913012D01*
X63807007Y-103945925D01*
X63934174Y-103980000D01*
X64065826Y-103980000D01*
X64192993Y-103945925D01*
X64250000Y-103913012D01*
X64250000Y-104810633D01*
X64463483Y-104753433D01*
X64463492Y-104753429D01*
X64677578Y-104653600D01*
X64871082Y-104518105D01*
X65038105Y-104351082D01*
X65173600Y-104157578D01*
X65273429Y-103943492D01*
X65273432Y-103943486D01*
X65330636Y-103730000D01*
X64433012Y-103730000D01*
X64465925Y-103672993D01*
X64500000Y-103545826D01*
X64500000Y-103414174D01*
X64465925Y-103287007D01*
X64433012Y-103230000D01*
X65330636Y-103230000D01*
X65330635Y-103229999D01*
X65273432Y-103016513D01*
X65273429Y-103016507D01*
X65173600Y-102802422D01*
X65173599Y-102802420D01*
X65038113Y-102608926D01*
X65038108Y-102608920D01*
X64871082Y-102441894D01*
X64677578Y-102306399D01*
X64478426Y-102213533D01*
X64425987Y-102167360D01*
X64406835Y-102100167D01*
X64427051Y-102033286D01*
X64480216Y-101987951D01*
X64486005Y-101985537D01*
X64515019Y-101974298D01*
X64696302Y-101862052D01*
X64853872Y-101718407D01*
X64982366Y-101548255D01*
X64986833Y-101539284D01*
X65077403Y-101357394D01*
X65077403Y-101357393D01*
X65077405Y-101357389D01*
X65135756Y-101152310D01*
X65155429Y-100940000D01*
X65135756Y-100727690D01*
X65077405Y-100522611D01*
X65077403Y-100522606D01*
X65077403Y-100522605D01*
X64982367Y-100331746D01*
X64853872Y-100161593D01*
X64809994Y-100121593D01*
X64696302Y-100017948D01*
X64515019Y-99905702D01*
X64515014Y-99905700D01*
X64508129Y-99903032D01*
X64486037Y-99894474D01*
X64430636Y-99851903D01*
X64407045Y-99786136D01*
X64422756Y-99718056D01*
X64472779Y-99669276D01*
X64478426Y-99666466D01*
X64677578Y-99573599D01*
X64871082Y-99438105D01*
X65038105Y-99271082D01*
X65173600Y-99077578D01*
X65273429Y-98863492D01*
X65273432Y-98863486D01*
X65330636Y-98650000D01*
X64433012Y-98650000D01*
X64465925Y-98592993D01*
X64500000Y-98465826D01*
X64500000Y-98334174D01*
X64465925Y-98207007D01*
X64433012Y-98150000D01*
X65330636Y-98150000D01*
X65330635Y-98149999D01*
X65273432Y-97936513D01*
X65273429Y-97936507D01*
X65173600Y-97722422D01*
X65173599Y-97722420D01*
X65038113Y-97528926D01*
X65038108Y-97528920D01*
X65009187Y-97499999D01*
X80694722Y-97499999D01*
X80694722Y-97500000D01*
X80713762Y-97656818D01*
X80738643Y-97722422D01*
X80769780Y-97804523D01*
X80859517Y-97934530D01*
X80977760Y-98039283D01*
X80977762Y-98039284D01*
X81117634Y-98112696D01*
X81271014Y-98150500D01*
X81271015Y-98150500D01*
X81428985Y-98150500D01*
X81582365Y-98112696D01*
X81666712Y-98068426D01*
X81735217Y-98054701D01*
X81800270Y-98080192D01*
X81812017Y-98090542D01*
X82161985Y-98440510D01*
X82265026Y-98500000D01*
X82287515Y-98512984D01*
X82427525Y-98550500D01*
X82427526Y-98550500D01*
X82572474Y-98550500D01*
X82720613Y-98550500D01*
X82787652Y-98570185D01*
X82808294Y-98586819D01*
X82913181Y-98691706D01*
X82946666Y-98753029D01*
X82949500Y-98779387D01*
X82949500Y-99220613D01*
X82929815Y-99287652D01*
X82913181Y-99308294D01*
X82559491Y-99661983D01*
X82559489Y-99661985D01*
X82508965Y-99749499D01*
X82508963Y-99749501D01*
X82487018Y-99787509D01*
X82487017Y-99787510D01*
X82475986Y-99828679D01*
X82449500Y-99927525D01*
X82449500Y-99927527D01*
X82449500Y-100220611D01*
X82429815Y-100287650D01*
X82413180Y-100308294D01*
X82380375Y-100341098D01*
X82322372Y-100373811D01*
X82267637Y-100387302D01*
X82267634Y-100387303D01*
X82127762Y-100460715D01*
X82009516Y-100565471D01*
X81919781Y-100695475D01*
X81919780Y-100695476D01*
X81863762Y-100843181D01*
X81844722Y-100999999D01*
X81844722Y-101000000D01*
X81863762Y-101156818D01*
X81918102Y-101300099D01*
X81919780Y-101304523D01*
X82009517Y-101434530D01*
X82127760Y-101539283D01*
X82127762Y-101539284D01*
X82267634Y-101612696D01*
X82421014Y-101650500D01*
X82421015Y-101650500D01*
X82578985Y-101650500D01*
X82732365Y-101612696D01*
X82765167Y-101595480D01*
X82872240Y-101539283D01*
X82990483Y-101434530D01*
X83080220Y-101304523D01*
X83135676Y-101158295D01*
X83163932Y-101114591D01*
X83440510Y-100838015D01*
X83512984Y-100712485D01*
X83519628Y-100687689D01*
X83525306Y-100666502D01*
X83534527Y-100632085D01*
X83550500Y-100572475D01*
X83550500Y-100279387D01*
X83570185Y-100212348D01*
X83586819Y-100191706D01*
X83760578Y-100017947D01*
X83773394Y-100005131D01*
X91832000Y-100005131D01*
X91832000Y-101794856D01*
X91832002Y-101794882D01*
X91834913Y-101819987D01*
X91834915Y-101819991D01*
X91880293Y-101922764D01*
X91880294Y-101922765D01*
X91959735Y-102002206D01*
X92062509Y-102047585D01*
X92087635Y-102050500D01*
X93877364Y-102050499D01*
X93877379Y-102050497D01*
X93877382Y-102050497D01*
X93902487Y-102047586D01*
X93902488Y-102047585D01*
X93902491Y-102047585D01*
X94005265Y-102002206D01*
X94084706Y-101922765D01*
X94130085Y-101819991D01*
X94133000Y-101794865D01*
X94132999Y-101662516D01*
X94152683Y-101595480D01*
X94205487Y-101549725D01*
X94274645Y-101539781D01*
X94338201Y-101568805D01*
X94358573Y-101591395D01*
X94484390Y-101771078D01*
X94651417Y-101938105D01*
X94844921Y-102073600D01*
X95059007Y-102173429D01*
X95059016Y-102173433D01*
X95272500Y-102230634D01*
X95272500Y-101333012D01*
X95329507Y-101365925D01*
X95456674Y-101400000D01*
X95588326Y-101400000D01*
X95715493Y-101365925D01*
X95772500Y-101333012D01*
X95772500Y-102230633D01*
X95985983Y-102173433D01*
X95985992Y-102173429D01*
X96200078Y-102073600D01*
X96393582Y-101938105D01*
X96560605Y-101771082D01*
X96696100Y-101577578D01*
X96789794Y-101376651D01*
X96835966Y-101324212D01*
X96903160Y-101305060D01*
X96970041Y-101325276D01*
X97013176Y-101373785D01*
X97080132Y-101508253D01*
X97208627Y-101678406D01*
X97208628Y-101678407D01*
X97366198Y-101822052D01*
X97547481Y-101934298D01*
X97746302Y-102011321D01*
X97955890Y-102050500D01*
X97955892Y-102050500D01*
X98169108Y-102050500D01*
X98169110Y-102050500D01*
X98378698Y-102011321D01*
X98407924Y-101999999D01*
X100344722Y-101999999D01*
X100344722Y-102000000D01*
X100363762Y-102156818D01*
X100418982Y-102302420D01*
X100419780Y-102304523D01*
X100427548Y-102315777D01*
X100449433Y-102382130D01*
X100449500Y-102386219D01*
X100449500Y-104113780D01*
X100429815Y-104180819D01*
X100427552Y-104184217D01*
X100419780Y-104195476D01*
X100363762Y-104343181D01*
X100344722Y-104499999D01*
X100344722Y-104500000D01*
X100363762Y-104656818D01*
X100400404Y-104753433D01*
X100419780Y-104804523D01*
X100509517Y-104934530D01*
X100627760Y-105039283D01*
X100627762Y-105039284D01*
X100767634Y-105112696D01*
X100921014Y-105150500D01*
X100921015Y-105150500D01*
X101078985Y-105150500D01*
X101232365Y-105112696D01*
X101372240Y-105039283D01*
X101490483Y-104934530D01*
X101580220Y-104804523D01*
X101636237Y-104656818D01*
X101655278Y-104500000D01*
X101636237Y-104343182D01*
X101580220Y-104195477D01*
X101572448Y-104184217D01*
X101550567Y-104117862D01*
X101550500Y-104113780D01*
X101550500Y-102729999D01*
X107169364Y-102729999D01*
X107169364Y-102730000D01*
X108066988Y-102730000D01*
X108034075Y-102787007D01*
X108000000Y-102914174D01*
X108000000Y-103045826D01*
X108034075Y-103172993D01*
X108066988Y-103230000D01*
X107169364Y-103230000D01*
X107226567Y-103443486D01*
X107226570Y-103443492D01*
X107326399Y-103657578D01*
X107461894Y-103851082D01*
X107628917Y-104018105D01*
X107822421Y-104153600D01*
X108036507Y-104253429D01*
X108036516Y-104253433D01*
X108250000Y-104310634D01*
X108250000Y-103413012D01*
X108307007Y-103445925D01*
X108434174Y-103480000D01*
X108565826Y-103480000D01*
X108692993Y-103445925D01*
X108750000Y-103413012D01*
X108750000Y-104310633D01*
X108963483Y-104253433D01*
X108963492Y-104253429D01*
X109177578Y-104153600D01*
X109371082Y-104018105D01*
X109538105Y-103851082D01*
X109673600Y-103657578D01*
X109773429Y-103443492D01*
X109773432Y-103443486D01*
X109830636Y-103230000D01*
X108933012Y-103230000D01*
X108965925Y-103172993D01*
X109000000Y-103045826D01*
X109000000Y-102914174D01*
X108965925Y-102787007D01*
X108933012Y-102730000D01*
X109830636Y-102730000D01*
X109830635Y-102729999D01*
X109773432Y-102516513D01*
X109773429Y-102516507D01*
X109673600Y-102302422D01*
X109673599Y-102302420D01*
X109538113Y-102108926D01*
X109538108Y-102108920D01*
X109371082Y-101941894D01*
X109177578Y-101806399D01*
X108978426Y-101713533D01*
X108925987Y-101667360D01*
X108906835Y-101600167D01*
X108927051Y-101533286D01*
X108980216Y-101487951D01*
X108986005Y-101485537D01*
X109015019Y-101474298D01*
X109196302Y-101362052D01*
X109353872Y-101218407D01*
X109482366Y-101048255D01*
X109506394Y-101000000D01*
X109577403Y-100857394D01*
X109577403Y-100857393D01*
X109577405Y-100857389D01*
X109635756Y-100652310D01*
X109655429Y-100440000D01*
X109635756Y-100227690D01*
X109577405Y-100022611D01*
X109577403Y-100022606D01*
X109577403Y-100022605D01*
X109482367Y-99831746D01*
X109353872Y-99661593D01*
X109315454Y-99626570D01*
X109196302Y-99517948D01*
X109015019Y-99405702D01*
X109015017Y-99405701D01*
X108915608Y-99367190D01*
X108816198Y-99328679D01*
X108619385Y-99291888D01*
X108557106Y-99260221D01*
X108521833Y-99199908D01*
X108524767Y-99130100D01*
X108564976Y-99072960D01*
X108619384Y-99048111D01*
X108816198Y-99011321D01*
X109015019Y-98934298D01*
X109196302Y-98822052D01*
X109353872Y-98678407D01*
X109482366Y-98508255D01*
X109516100Y-98440508D01*
X109577403Y-98317394D01*
X109577403Y-98317393D01*
X109577405Y-98317389D01*
X109635756Y-98112310D01*
X109655429Y-97900000D01*
X109654252Y-97887303D01*
X109646582Y-97804523D01*
X109635756Y-97687690D01*
X109577405Y-97482611D01*
X109577403Y-97482606D01*
X109577403Y-97482605D01*
X109482367Y-97291746D01*
X109353872Y-97121593D01*
X109311541Y-97083003D01*
X109196302Y-96977948D01*
X109015019Y-96865702D01*
X109015017Y-96865701D01*
X108915608Y-96827190D01*
X108816198Y-96788679D01*
X108619385Y-96751888D01*
X108557106Y-96720221D01*
X108521833Y-96659908D01*
X108524767Y-96590100D01*
X108564976Y-96532960D01*
X108619384Y-96508111D01*
X108816198Y-96471321D01*
X109015019Y-96394298D01*
X109196302Y-96282052D01*
X109353872Y-96138407D01*
X109482366Y-95968255D01*
X109563894Y-95804523D01*
X109577403Y-95777394D01*
X109577403Y-95777393D01*
X109577405Y-95777389D01*
X109635756Y-95572310D01*
X109655429Y-95360000D01*
X109635756Y-95147690D01*
X109577405Y-94942611D01*
X109577403Y-94942606D01*
X109577403Y-94942605D01*
X109482367Y-94751746D01*
X109353872Y-94581593D01*
X109264368Y-94499999D01*
X109196302Y-94437948D01*
X109015019Y-94325702D01*
X109015017Y-94325701D01*
X108915608Y-94287190D01*
X108816198Y-94248679D01*
X108619385Y-94211888D01*
X108557106Y-94180221D01*
X108521833Y-94119908D01*
X108524767Y-94050100D01*
X108564976Y-93992960D01*
X108619384Y-93968111D01*
X108816198Y-93931321D01*
X109015019Y-93854298D01*
X109196302Y-93742052D01*
X109353872Y-93598407D01*
X109482366Y-93428255D01*
X109577405Y-93237389D01*
X109635756Y-93032310D01*
X109655429Y-92820000D01*
X109635756Y-92607690D01*
X109577405Y-92402611D01*
X109577403Y-92402606D01*
X109577403Y-92402605D01*
X109482367Y-92211746D01*
X109353872Y-92041593D01*
X109304937Y-91996983D01*
X109196302Y-91897948D01*
X109015019Y-91785702D01*
X109015017Y-91785701D01*
X108915608Y-91747190D01*
X108816198Y-91708679D01*
X108619385Y-91671888D01*
X108557106Y-91640221D01*
X108521833Y-91579908D01*
X108524767Y-91510100D01*
X108564976Y-91452960D01*
X108619384Y-91428111D01*
X108816198Y-91391321D01*
X109015019Y-91314298D01*
X109196302Y-91202052D01*
X109353872Y-91058407D01*
X109482366Y-90888255D01*
X109577405Y-90697389D01*
X109635756Y-90492310D01*
X109655429Y-90280000D01*
X109635756Y-90067690D01*
X109577405Y-89862611D01*
X109577403Y-89862606D01*
X109577403Y-89862605D01*
X109482367Y-89671746D01*
X109353872Y-89501593D01*
X109319326Y-89470100D01*
X109196302Y-89357948D01*
X109015019Y-89245702D01*
X109015017Y-89245701D01*
X108869647Y-89189385D01*
X108816198Y-89168679D01*
X108619385Y-89131888D01*
X108557106Y-89100221D01*
X108521833Y-89039908D01*
X108524767Y-88970100D01*
X108564976Y-88912960D01*
X108619384Y-88888111D01*
X108816198Y-88851321D01*
X109015019Y-88774298D01*
X109196302Y-88662052D01*
X109353872Y-88518407D01*
X109482366Y-88348255D01*
X109577405Y-88157389D01*
X109635756Y-87952310D01*
X109655429Y-87740000D01*
X109635756Y-87527690D01*
X109577405Y-87322611D01*
X109577403Y-87322606D01*
X109577403Y-87322605D01*
X109482367Y-87131746D01*
X109353872Y-86961593D01*
X109316692Y-86927699D01*
X109196302Y-86817948D01*
X109015019Y-86705702D01*
X109015017Y-86705701D01*
X108884373Y-86655090D01*
X108816198Y-86628679D01*
X108619385Y-86591888D01*
X108557106Y-86560221D01*
X108521833Y-86499908D01*
X108524767Y-86430100D01*
X108564976Y-86372960D01*
X108619384Y-86348111D01*
X108816198Y-86311321D01*
X109015019Y-86234298D01*
X109196302Y-86122052D01*
X109353872Y-85978407D01*
X109482366Y-85808255D01*
X109560918Y-85650500D01*
X109577403Y-85617394D01*
X109577403Y-85617393D01*
X109577405Y-85617389D01*
X109635756Y-85412310D01*
X109655429Y-85200000D01*
X109635756Y-84987690D01*
X109577405Y-84782611D01*
X109577403Y-84782606D01*
X109577403Y-84782605D01*
X109482367Y-84591746D01*
X109353872Y-84421593D01*
X109196302Y-84277948D01*
X109015019Y-84165702D01*
X109015017Y-84165701D01*
X108914582Y-84126793D01*
X108816198Y-84088679D01*
X108619385Y-84051888D01*
X108557106Y-84020221D01*
X108521833Y-83959908D01*
X108524767Y-83890100D01*
X108564976Y-83832960D01*
X108619384Y-83808111D01*
X108816198Y-83771321D01*
X109015019Y-83694298D01*
X109196302Y-83582052D01*
X109353872Y-83438407D01*
X109482366Y-83268255D01*
X109518606Y-83195475D01*
X109577403Y-83077394D01*
X109577403Y-83077393D01*
X109577405Y-83077389D01*
X109635756Y-82872310D01*
X109655429Y-82660000D01*
X109635756Y-82447690D01*
X109577405Y-82242611D01*
X109577403Y-82242606D01*
X109577403Y-82242605D01*
X109482367Y-82051746D01*
X109353872Y-81881593D01*
X109319326Y-81850100D01*
X109196302Y-81737948D01*
X109015019Y-81625702D01*
X109015017Y-81625701D01*
X108915608Y-81587190D01*
X108816198Y-81548679D01*
X108619385Y-81511888D01*
X108557106Y-81480221D01*
X108521833Y-81419908D01*
X108524767Y-81350100D01*
X108564976Y-81292960D01*
X108619384Y-81268111D01*
X108816198Y-81231321D01*
X109015019Y-81154298D01*
X109196302Y-81042052D01*
X109353872Y-80898407D01*
X109482366Y-80728255D01*
X109493238Y-80706421D01*
X109577403Y-80537394D01*
X109577403Y-80537393D01*
X109577405Y-80537389D01*
X109635756Y-80332310D01*
X109655429Y-80120000D01*
X109635756Y-79907690D01*
X109577405Y-79702611D01*
X109577403Y-79702606D01*
X109577403Y-79702605D01*
X109482367Y-79511746D01*
X109353872Y-79341593D01*
X109319326Y-79310100D01*
X109196302Y-79197948D01*
X109015019Y-79085702D01*
X109015017Y-79085701D01*
X108843686Y-79019328D01*
X108816198Y-79008679D01*
X108619385Y-78971888D01*
X108557106Y-78940221D01*
X108521833Y-78879908D01*
X108524767Y-78810100D01*
X108564976Y-78752960D01*
X108619384Y-78728111D01*
X108816198Y-78691321D01*
X109015019Y-78614298D01*
X109196302Y-78502052D01*
X109353872Y-78358407D01*
X109482366Y-78188255D01*
X109482367Y-78188253D01*
X109577403Y-77997394D01*
X109577403Y-77997393D01*
X109577405Y-77997389D01*
X109635756Y-77792310D01*
X109655429Y-77580000D01*
X109635756Y-77367690D01*
X109577405Y-77162611D01*
X109577403Y-77162606D01*
X109577403Y-77162605D01*
X109482367Y-76971746D01*
X109353872Y-76801593D01*
X109319326Y-76770100D01*
X109196302Y-76657948D01*
X109015019Y-76545702D01*
X109015017Y-76545701D01*
X108860269Y-76485752D01*
X108816198Y-76468679D01*
X108619385Y-76431888D01*
X108557106Y-76400221D01*
X108521833Y-76339908D01*
X108524767Y-76270100D01*
X108564976Y-76212960D01*
X108619384Y-76188111D01*
X108816198Y-76151321D01*
X109015019Y-76074298D01*
X109196302Y-75962052D01*
X109353872Y-75818407D01*
X109482366Y-75648255D01*
X109577405Y-75457389D01*
X109635756Y-75252310D01*
X109655429Y-75040000D01*
X109635756Y-74827690D01*
X109577405Y-74622611D01*
X109577403Y-74622606D01*
X109577403Y-74622605D01*
X109482367Y-74431746D01*
X109353872Y-74261593D01*
X109277210Y-74191706D01*
X109196302Y-74117948D01*
X109015019Y-74005702D01*
X109015017Y-74005701D01*
X108915608Y-73967190D01*
X108816198Y-73928679D01*
X108619385Y-73891888D01*
X108557106Y-73860221D01*
X108521833Y-73799908D01*
X108524767Y-73730100D01*
X108564976Y-73672960D01*
X108619384Y-73648111D01*
X108816198Y-73611321D01*
X109015019Y-73534298D01*
X109196302Y-73422052D01*
X109353872Y-73278407D01*
X109482366Y-73108255D01*
X109577405Y-72917389D01*
X109635756Y-72712310D01*
X109655429Y-72500000D01*
X109635756Y-72287690D01*
X109577405Y-72082611D01*
X109577403Y-72082606D01*
X109577403Y-72082605D01*
X109482367Y-71891746D01*
X109353872Y-71721593D01*
X109319326Y-71690100D01*
X109196302Y-71577948D01*
X109015019Y-71465702D01*
X109015017Y-71465701D01*
X108915608Y-71427190D01*
X108816198Y-71388679D01*
X108619385Y-71351888D01*
X108557106Y-71320221D01*
X108521833Y-71259908D01*
X108524767Y-71190100D01*
X108564976Y-71132960D01*
X108619384Y-71108111D01*
X108816198Y-71071321D01*
X109015019Y-70994298D01*
X109196302Y-70882052D01*
X109353872Y-70738407D01*
X109482366Y-70568255D01*
X109577405Y-70377389D01*
X109635756Y-70172310D01*
X109655429Y-69960000D01*
X109635756Y-69747690D01*
X109577405Y-69542611D01*
X109577403Y-69542606D01*
X109577403Y-69542605D01*
X109482367Y-69351746D01*
X109353872Y-69181593D01*
X109319326Y-69150100D01*
X109196302Y-69037948D01*
X109015019Y-68925702D01*
X109015017Y-68925701D01*
X108902546Y-68882130D01*
X108816198Y-68848679D01*
X108619385Y-68811888D01*
X108557106Y-68780221D01*
X108521833Y-68719908D01*
X108524767Y-68650100D01*
X108564976Y-68592960D01*
X108619384Y-68568111D01*
X108816198Y-68531321D01*
X109015019Y-68454298D01*
X109196302Y-68342052D01*
X109353872Y-68198407D01*
X109482366Y-68028255D01*
X109571375Y-67849500D01*
X109577403Y-67837394D01*
X109577403Y-67837393D01*
X109577405Y-67837389D01*
X109635756Y-67632310D01*
X109655429Y-67420000D01*
X109635756Y-67207690D01*
X109577405Y-67002611D01*
X109577403Y-67002606D01*
X109577403Y-67002605D01*
X109482367Y-66811746D01*
X109353872Y-66641593D01*
X109319326Y-66610100D01*
X109196302Y-66497948D01*
X109015019Y-66385702D01*
X109015017Y-66385701D01*
X108915608Y-66347190D01*
X108816198Y-66308679D01*
X108619385Y-66271888D01*
X108557106Y-66240221D01*
X108521833Y-66179908D01*
X108524767Y-66110100D01*
X108564976Y-66052960D01*
X108619384Y-66028111D01*
X108816198Y-65991321D01*
X109015019Y-65914298D01*
X109196302Y-65802052D01*
X109353872Y-65658407D01*
X109482366Y-65488255D01*
X109577405Y-65297389D01*
X109635756Y-65092310D01*
X109655429Y-64880000D01*
X109635756Y-64667690D01*
X109577405Y-64462611D01*
X109577403Y-64462606D01*
X109577403Y-64462605D01*
X109482367Y-64271746D01*
X109353872Y-64101593D01*
X109324261Y-64074599D01*
X109196302Y-63957948D01*
X109015019Y-63845702D01*
X109015017Y-63845701D01*
X108915608Y-63807190D01*
X108816198Y-63768679D01*
X108643456Y-63736387D01*
X108581176Y-63704719D01*
X108545903Y-63644407D01*
X108548837Y-63574599D01*
X108589046Y-63517459D01*
X108653764Y-63491128D01*
X108666233Y-63490499D01*
X109394864Y-63490499D01*
X109394879Y-63490497D01*
X109394882Y-63490497D01*
X109419987Y-63487586D01*
X109419988Y-63487585D01*
X109419991Y-63487585D01*
X109522765Y-63442206D01*
X109602206Y-63362765D01*
X109647585Y-63259991D01*
X109650500Y-63234865D01*
X109650499Y-61445136D01*
X109650497Y-61445117D01*
X109647586Y-61420012D01*
X109647585Y-61420010D01*
X109647585Y-61420009D01*
X109602206Y-61317235D01*
X109522765Y-61237794D01*
X109522763Y-61237793D01*
X109419992Y-61192415D01*
X109394865Y-61189500D01*
X107605143Y-61189500D01*
X107605117Y-61189502D01*
X107580012Y-61192413D01*
X107580008Y-61192415D01*
X107477235Y-61237793D01*
X107397794Y-61317234D01*
X107352415Y-61420006D01*
X107352415Y-61420008D01*
X107349500Y-61445131D01*
X107349500Y-63234856D01*
X107349502Y-63234882D01*
X107352413Y-63259987D01*
X107352415Y-63259991D01*
X107397793Y-63362764D01*
X107397794Y-63362765D01*
X107477235Y-63442206D01*
X107580009Y-63487585D01*
X107605135Y-63490500D01*
X108333758Y-63490499D01*
X108400795Y-63510183D01*
X108446550Y-63562987D01*
X108456494Y-63632146D01*
X108427469Y-63695702D01*
X108368691Y-63733476D01*
X108356542Y-63736388D01*
X108300116Y-63746935D01*
X108183802Y-63768679D01*
X108183800Y-63768679D01*
X108183798Y-63768680D01*
X107984982Y-63845701D01*
X107984980Y-63845702D01*
X107803699Y-63957947D01*
X107646127Y-64101593D01*
X107517632Y-64271746D01*
X107422596Y-64462605D01*
X107422596Y-64462607D01*
X107364244Y-64667689D01*
X107344571Y-64879999D01*
X107344571Y-64880000D01*
X107364244Y-65092310D01*
X107422596Y-65297392D01*
X107422596Y-65297394D01*
X107517632Y-65488253D01*
X107517634Y-65488255D01*
X107646128Y-65658407D01*
X107803698Y-65802052D01*
X107984981Y-65914298D01*
X108183802Y-65991321D01*
X108380613Y-66028111D01*
X108442893Y-66059779D01*
X108478166Y-66120092D01*
X108475232Y-66189900D01*
X108435023Y-66247040D01*
X108380613Y-66271888D01*
X108183802Y-66308679D01*
X108183799Y-66308679D01*
X108183799Y-66308680D01*
X107984982Y-66385701D01*
X107984980Y-66385702D01*
X107803699Y-66497947D01*
X107646127Y-66641593D01*
X107517632Y-66811746D01*
X107422596Y-67002605D01*
X107422596Y-67002607D01*
X107364244Y-67207689D01*
X107344571Y-67419999D01*
X107344571Y-67420000D01*
X107364244Y-67632310D01*
X107422596Y-67837392D01*
X107422596Y-67837394D01*
X107517632Y-68028253D01*
X107643915Y-68195477D01*
X107646128Y-68198407D01*
X107803698Y-68342052D01*
X107984981Y-68454298D01*
X108183802Y-68531321D01*
X108380613Y-68568111D01*
X108442893Y-68599779D01*
X108478166Y-68660092D01*
X108475232Y-68729900D01*
X108435023Y-68787040D01*
X108380613Y-68811888D01*
X108183802Y-68848679D01*
X108183799Y-68848679D01*
X108183799Y-68848680D01*
X107984982Y-68925701D01*
X107984980Y-68925702D01*
X107803699Y-69037947D01*
X107646127Y-69181593D01*
X107517632Y-69351746D01*
X107422596Y-69542605D01*
X107422596Y-69542607D01*
X107364244Y-69747689D01*
X107344571Y-69959999D01*
X107344571Y-69960000D01*
X107364244Y-70172310D01*
X107422596Y-70377392D01*
X107422596Y-70377394D01*
X107517632Y-70568253D01*
X107517634Y-70568255D01*
X107646128Y-70738407D01*
X107803698Y-70882052D01*
X107984981Y-70994298D01*
X108183802Y-71071321D01*
X108380613Y-71108111D01*
X108442893Y-71139779D01*
X108478166Y-71200092D01*
X108475232Y-71269900D01*
X108435023Y-71327040D01*
X108380613Y-71351888D01*
X108183802Y-71388679D01*
X108183799Y-71388679D01*
X108183799Y-71388680D01*
X107984982Y-71465701D01*
X107984980Y-71465702D01*
X107803699Y-71577947D01*
X107646127Y-71721593D01*
X107517632Y-71891746D01*
X107422596Y-72082605D01*
X107422596Y-72082607D01*
X107364244Y-72287689D01*
X107358517Y-72349500D01*
X107344571Y-72500000D01*
X107364244Y-72712310D01*
X107406186Y-72859720D01*
X107422596Y-72917392D01*
X107422596Y-72917394D01*
X107517632Y-73108253D01*
X107517634Y-73108255D01*
X107646128Y-73278407D01*
X107803698Y-73422052D01*
X107984981Y-73534298D01*
X108183802Y-73611321D01*
X108380613Y-73648111D01*
X108442893Y-73679779D01*
X108478166Y-73740092D01*
X108475232Y-73809900D01*
X108435023Y-73867040D01*
X108380613Y-73891888D01*
X108183802Y-73928679D01*
X108183799Y-73928679D01*
X108183799Y-73928680D01*
X107984982Y-74005701D01*
X107984980Y-74005702D01*
X107803699Y-74117947D01*
X107646127Y-74261593D01*
X107517632Y-74431746D01*
X107422596Y-74622605D01*
X107422596Y-74622607D01*
X107364244Y-74827689D01*
X107346487Y-75019328D01*
X107344571Y-75040000D01*
X107364244Y-75252310D01*
X107416090Y-75434528D01*
X107422596Y-75457392D01*
X107422596Y-75457394D01*
X107517632Y-75648253D01*
X107646127Y-75818406D01*
X107646128Y-75818407D01*
X107803698Y-75962052D01*
X107984981Y-76074298D01*
X108183802Y-76151321D01*
X108380613Y-76188111D01*
X108442893Y-76219779D01*
X108478166Y-76280092D01*
X108475232Y-76349900D01*
X108435023Y-76407040D01*
X108380613Y-76431888D01*
X108183802Y-76468679D01*
X108183799Y-76468679D01*
X108183799Y-76468680D01*
X107984982Y-76545701D01*
X107984980Y-76545702D01*
X107803699Y-76657947D01*
X107646127Y-76801593D01*
X107517632Y-76971746D01*
X107422596Y-77162605D01*
X107422596Y-77162607D01*
X107364244Y-77367689D01*
X107344571Y-77579999D01*
X107344571Y-77580000D01*
X107364244Y-77792310D01*
X107422596Y-77997392D01*
X107422596Y-77997394D01*
X107517632Y-78188253D01*
X107646127Y-78358406D01*
X107646128Y-78358407D01*
X107803698Y-78502052D01*
X107984981Y-78614298D01*
X108183802Y-78691321D01*
X108380613Y-78728111D01*
X108442893Y-78759779D01*
X108478166Y-78820092D01*
X108475232Y-78889900D01*
X108435023Y-78947040D01*
X108380613Y-78971888D01*
X108183802Y-79008679D01*
X108183799Y-79008679D01*
X108183799Y-79008680D01*
X107984982Y-79085701D01*
X107984980Y-79085702D01*
X107803699Y-79197947D01*
X107646127Y-79341593D01*
X107517632Y-79511746D01*
X107422596Y-79702605D01*
X107422596Y-79702607D01*
X107364244Y-79907689D01*
X107344571Y-80119999D01*
X107344571Y-80120000D01*
X107364244Y-80332310D01*
X107422596Y-80537392D01*
X107422596Y-80537394D01*
X107517632Y-80728253D01*
X107517634Y-80728255D01*
X107646128Y-80898407D01*
X107803698Y-81042052D01*
X107984981Y-81154298D01*
X108183802Y-81231321D01*
X108380613Y-81268111D01*
X108442893Y-81299779D01*
X108478166Y-81360092D01*
X108475232Y-81429900D01*
X108435023Y-81487040D01*
X108380613Y-81511888D01*
X108183802Y-81548679D01*
X108183799Y-81548679D01*
X108183799Y-81548680D01*
X107984982Y-81625701D01*
X107984980Y-81625702D01*
X107803699Y-81737947D01*
X107646127Y-81881593D01*
X107517632Y-82051746D01*
X107422596Y-82242605D01*
X107422596Y-82242607D01*
X107364244Y-82447689D01*
X107344571Y-82659999D01*
X107344571Y-82660000D01*
X107364244Y-82872310D01*
X107422596Y-83077392D01*
X107422596Y-83077394D01*
X107517632Y-83268253D01*
X107643200Y-83434530D01*
X107646128Y-83438407D01*
X107803698Y-83582052D01*
X107984981Y-83694298D01*
X108183802Y-83771321D01*
X108380613Y-83808111D01*
X108442893Y-83839779D01*
X108478166Y-83900092D01*
X108475232Y-83969900D01*
X108435023Y-84027040D01*
X108380613Y-84051888D01*
X108183802Y-84088679D01*
X108183799Y-84088679D01*
X108183799Y-84088680D01*
X107984982Y-84165701D01*
X107984980Y-84165702D01*
X107803699Y-84277947D01*
X107646127Y-84421593D01*
X107517632Y-84591746D01*
X107422596Y-84782605D01*
X107422596Y-84782607D01*
X107364244Y-84987689D01*
X107349791Y-85143671D01*
X107344571Y-85200000D01*
X107364244Y-85412310D01*
X107404369Y-85553334D01*
X107422596Y-85617392D01*
X107422596Y-85617394D01*
X107517632Y-85808253D01*
X107616219Y-85938802D01*
X107646128Y-85978407D01*
X107803698Y-86122052D01*
X107984981Y-86234298D01*
X108183802Y-86311321D01*
X108380613Y-86348111D01*
X108442893Y-86379779D01*
X108478166Y-86440092D01*
X108475232Y-86509900D01*
X108435023Y-86567040D01*
X108380613Y-86591888D01*
X108183802Y-86628679D01*
X108183799Y-86628679D01*
X108183799Y-86628680D01*
X107984982Y-86705701D01*
X107984980Y-86705702D01*
X107803699Y-86817947D01*
X107646127Y-86961593D01*
X107517632Y-87131746D01*
X107422596Y-87322605D01*
X107422596Y-87322607D01*
X107364244Y-87527689D01*
X107344571Y-87739999D01*
X107344571Y-87740000D01*
X107364244Y-87952310D01*
X107422596Y-88157392D01*
X107422596Y-88157394D01*
X107517632Y-88348253D01*
X107517634Y-88348255D01*
X107646128Y-88518407D01*
X107803698Y-88662052D01*
X107984981Y-88774298D01*
X108183802Y-88851321D01*
X108380613Y-88888111D01*
X108442893Y-88919779D01*
X108478166Y-88980092D01*
X108475232Y-89049900D01*
X108435023Y-89107040D01*
X108380613Y-89131888D01*
X108183802Y-89168679D01*
X108183799Y-89168679D01*
X108183799Y-89168680D01*
X107984982Y-89245701D01*
X107984980Y-89245702D01*
X107803699Y-89357947D01*
X107646127Y-89501593D01*
X107517632Y-89671746D01*
X107422596Y-89862605D01*
X107422596Y-89862607D01*
X107364244Y-90067689D01*
X107344571Y-90279999D01*
X107344571Y-90280000D01*
X107364244Y-90492310D01*
X107422596Y-90697392D01*
X107422596Y-90697394D01*
X107517632Y-90888253D01*
X107517634Y-90888255D01*
X107646128Y-91058407D01*
X107803698Y-91202052D01*
X107984981Y-91314298D01*
X108183802Y-91391321D01*
X108380613Y-91428111D01*
X108442893Y-91459779D01*
X108478166Y-91520092D01*
X108475232Y-91589900D01*
X108435023Y-91647040D01*
X108380613Y-91671888D01*
X108183802Y-91708679D01*
X108183799Y-91708679D01*
X108183799Y-91708680D01*
X107984982Y-91785701D01*
X107984980Y-91785702D01*
X107803699Y-91897947D01*
X107646127Y-92041593D01*
X107517632Y-92211746D01*
X107422596Y-92402605D01*
X107422596Y-92402607D01*
X107364244Y-92607689D01*
X107344571Y-92819999D01*
X107344571Y-92820000D01*
X107364244Y-93032310D01*
X107422596Y-93237392D01*
X107422596Y-93237394D01*
X107517632Y-93428253D01*
X107517634Y-93428255D01*
X107646128Y-93598407D01*
X107803698Y-93742052D01*
X107984981Y-93854298D01*
X108183802Y-93931321D01*
X108380613Y-93968111D01*
X108442893Y-93999779D01*
X108478166Y-94060092D01*
X108475232Y-94129900D01*
X108435023Y-94187040D01*
X108380613Y-94211888D01*
X108183802Y-94248679D01*
X108183799Y-94248679D01*
X108183799Y-94248680D01*
X107984982Y-94325701D01*
X107984980Y-94325702D01*
X107803699Y-94437947D01*
X107646127Y-94581593D01*
X107517632Y-94751746D01*
X107422596Y-94942605D01*
X107422596Y-94942607D01*
X107364244Y-95147689D01*
X107344571Y-95359999D01*
X107344571Y-95360000D01*
X107364244Y-95572310D01*
X107422596Y-95777392D01*
X107422596Y-95777394D01*
X107517632Y-95968253D01*
X107646127Y-96138406D01*
X107646128Y-96138407D01*
X107803698Y-96282052D01*
X107984981Y-96394298D01*
X108183802Y-96471321D01*
X108380613Y-96508111D01*
X108442893Y-96539779D01*
X108478166Y-96600092D01*
X108475232Y-96669900D01*
X108435023Y-96727040D01*
X108380613Y-96751888D01*
X108183802Y-96788679D01*
X108183799Y-96788679D01*
X108183799Y-96788680D01*
X107984982Y-96865701D01*
X107984980Y-96865702D01*
X107803699Y-96977947D01*
X107646127Y-97121593D01*
X107517632Y-97291746D01*
X107422596Y-97482605D01*
X107422596Y-97482607D01*
X107364244Y-97687689D01*
X107345748Y-97887303D01*
X107344571Y-97900000D01*
X107364244Y-98112310D01*
X107387907Y-98195477D01*
X107422596Y-98317392D01*
X107422596Y-98317394D01*
X107517632Y-98508253D01*
X107646127Y-98678406D01*
X107646128Y-98678407D01*
X107803698Y-98822052D01*
X107984981Y-98934298D01*
X108183802Y-99011321D01*
X108380613Y-99048111D01*
X108442893Y-99079779D01*
X108478166Y-99140092D01*
X108475232Y-99209900D01*
X108435023Y-99267040D01*
X108380613Y-99291888D01*
X108183802Y-99328679D01*
X108183799Y-99328679D01*
X108183799Y-99328680D01*
X107984982Y-99405701D01*
X107984980Y-99405702D01*
X107803699Y-99517947D01*
X107646127Y-99661593D01*
X107517632Y-99831746D01*
X107422596Y-100022605D01*
X107422596Y-100022607D01*
X107364244Y-100227689D01*
X107351471Y-100365540D01*
X107344571Y-100440000D01*
X107364244Y-100652310D01*
X107418552Y-100843181D01*
X107422596Y-100857392D01*
X107422596Y-100857394D01*
X107517632Y-101048253D01*
X107600735Y-101158298D01*
X107646128Y-101218407D01*
X107803698Y-101362052D01*
X107984981Y-101474298D01*
X108013961Y-101485525D01*
X108069362Y-101528095D01*
X108092954Y-101593861D01*
X108077244Y-101661942D01*
X108027222Y-101710722D01*
X108021573Y-101713533D01*
X107822422Y-101806399D01*
X107822420Y-101806400D01*
X107628926Y-101941886D01*
X107628920Y-101941891D01*
X107461891Y-102108920D01*
X107461886Y-102108926D01*
X107326400Y-102302420D01*
X107326399Y-102302422D01*
X107226570Y-102516507D01*
X107226567Y-102516513D01*
X107169364Y-102729999D01*
X101550500Y-102729999D01*
X101550500Y-102386219D01*
X101570185Y-102319180D01*
X101572434Y-102315802D01*
X101580220Y-102304523D01*
X101636237Y-102156818D01*
X101655278Y-102000000D01*
X101647301Y-101934298D01*
X101636237Y-101843181D01*
X101588916Y-101718407D01*
X101580220Y-101695477D01*
X101490483Y-101565470D01*
X101372240Y-101460717D01*
X101372238Y-101460716D01*
X101372237Y-101460715D01*
X101232365Y-101387303D01*
X101078986Y-101349500D01*
X101078985Y-101349500D01*
X100921015Y-101349500D01*
X100921014Y-101349500D01*
X100767634Y-101387303D01*
X100627762Y-101460715D01*
X100509516Y-101565471D01*
X100419781Y-101695475D01*
X100419780Y-101695476D01*
X100363762Y-101843181D01*
X100344722Y-101999999D01*
X98407924Y-101999999D01*
X98577519Y-101934298D01*
X98758802Y-101822052D01*
X98916372Y-101678407D01*
X99044866Y-101508255D01*
X99068538Y-101460715D01*
X99139903Y-101317394D01*
X99139903Y-101317393D01*
X99139905Y-101317389D01*
X99198256Y-101112310D01*
X99217929Y-100900000D01*
X99198256Y-100687690D01*
X99139905Y-100482611D01*
X99139903Y-100482606D01*
X99139903Y-100482605D01*
X99044867Y-100291746D01*
X98916372Y-100121593D01*
X98758802Y-99977948D01*
X98577519Y-99865702D01*
X98577517Y-99865701D01*
X98478108Y-99827190D01*
X98378698Y-99788679D01*
X98169110Y-99749500D01*
X97955890Y-99749500D01*
X97746302Y-99788679D01*
X97746299Y-99788679D01*
X97746299Y-99788680D01*
X97547482Y-99865701D01*
X97547480Y-99865702D01*
X97366199Y-99977947D01*
X97208627Y-100121593D01*
X97080134Y-100291744D01*
X97013176Y-100426215D01*
X96965673Y-100477452D01*
X96898010Y-100494873D01*
X96831670Y-100472947D01*
X96789794Y-100423348D01*
X96696100Y-100222422D01*
X96696099Y-100222420D01*
X96560613Y-100028926D01*
X96560608Y-100028920D01*
X96393582Y-99861894D01*
X96200078Y-99726399D01*
X95985992Y-99626570D01*
X95985986Y-99626567D01*
X95772500Y-99569364D01*
X95772500Y-100466988D01*
X95715493Y-100434075D01*
X95588326Y-100400000D01*
X95456674Y-100400000D01*
X95329507Y-100434075D01*
X95272500Y-100466988D01*
X95272500Y-99569364D01*
X95272499Y-99569364D01*
X95059013Y-99626567D01*
X95059007Y-99626570D01*
X94844922Y-99726399D01*
X94844920Y-99726400D01*
X94651426Y-99861886D01*
X94651420Y-99861891D01*
X94484391Y-100028920D01*
X94484390Y-100028922D01*
X94358574Y-100208606D01*
X94303997Y-100252230D01*
X94234498Y-100259423D01*
X94172144Y-100227901D01*
X94136730Y-100167671D01*
X94132999Y-100137482D01*
X94132999Y-100005143D01*
X94132999Y-100005136D01*
X94132997Y-100005117D01*
X94130086Y-99980012D01*
X94130085Y-99980010D01*
X94130085Y-99980009D01*
X94084706Y-99877235D01*
X94005265Y-99797794D01*
X93984624Y-99788680D01*
X93902492Y-99752415D01*
X93877365Y-99749500D01*
X92087643Y-99749500D01*
X92087617Y-99749502D01*
X92062512Y-99752413D01*
X92062508Y-99752415D01*
X91959735Y-99797793D01*
X91880294Y-99877234D01*
X91834915Y-99980006D01*
X91834915Y-99980008D01*
X91832000Y-100005131D01*
X83773394Y-100005131D01*
X83940510Y-99838015D01*
X84012984Y-99712485D01*
X84012985Y-99712482D01*
X84024297Y-99670265D01*
X84024297Y-99670263D01*
X84036005Y-99626570D01*
X84050500Y-99572475D01*
X84050500Y-98427525D01*
X84012984Y-98287515D01*
X83993598Y-98253937D01*
X83940510Y-98161985D01*
X83586819Y-97808294D01*
X83553334Y-97746971D01*
X83550500Y-97720613D01*
X83550500Y-94927527D01*
X83550500Y-94927525D01*
X83512984Y-94787515D01*
X83489052Y-94746063D01*
X83440510Y-94661985D01*
X83163937Y-94385412D01*
X83135676Y-94341702D01*
X83100397Y-94248679D01*
X83080220Y-94195477D01*
X82990483Y-94065470D01*
X82872240Y-93960717D01*
X82872238Y-93960716D01*
X82872237Y-93960715D01*
X82732365Y-93887303D01*
X82578986Y-93849500D01*
X82578985Y-93849500D01*
X82421015Y-93849500D01*
X82421014Y-93849500D01*
X82267634Y-93887303D01*
X82127762Y-93960715D01*
X82009516Y-94065471D01*
X81919781Y-94195475D01*
X81919780Y-94195476D01*
X81863762Y-94343181D01*
X81844722Y-94499999D01*
X81844722Y-94500000D01*
X81863762Y-94656818D01*
X81913329Y-94787513D01*
X81919780Y-94804523D01*
X82009517Y-94934530D01*
X82127760Y-95039283D01*
X82267635Y-95112696D01*
X82322369Y-95126186D01*
X82380377Y-95158902D01*
X82413181Y-95191706D01*
X82446666Y-95253029D01*
X82449500Y-95279387D01*
X82449500Y-96909082D01*
X82429815Y-96976121D01*
X82377011Y-97021876D01*
X82307853Y-97031820D01*
X82263501Y-97016470D01*
X82212485Y-96987016D01*
X82212480Y-96987014D01*
X82178644Y-96977947D01*
X82178644Y-96977948D01*
X82114329Y-96960715D01*
X82072475Y-96949500D01*
X82072474Y-96949500D01*
X81731431Y-96949500D01*
X81673805Y-96935296D01*
X81582365Y-96887304D01*
X81582364Y-96887303D01*
X81582363Y-96887303D01*
X81428986Y-96849500D01*
X81428985Y-96849500D01*
X81271015Y-96849500D01*
X81271014Y-96849500D01*
X81117634Y-96887303D01*
X80977762Y-96960715D01*
X80859516Y-97065471D01*
X80769781Y-97195475D01*
X80769780Y-97195476D01*
X80713762Y-97343181D01*
X80694722Y-97499999D01*
X65009187Y-97499999D01*
X64871082Y-97361894D01*
X64684968Y-97231575D01*
X64641344Y-97176998D01*
X64634151Y-97107499D01*
X64665673Y-97045145D01*
X64684968Y-97028425D01*
X64871082Y-96898105D01*
X65038105Y-96731082D01*
X65173600Y-96537578D01*
X65273429Y-96323492D01*
X65273432Y-96323486D01*
X65330636Y-96110000D01*
X64433012Y-96110000D01*
X64465925Y-96052993D01*
X64500000Y-95925826D01*
X64500000Y-95794174D01*
X64465925Y-95667007D01*
X64433012Y-95610000D01*
X65330636Y-95610000D01*
X65330635Y-95609999D01*
X65301161Y-95499999D01*
X70344722Y-95499999D01*
X70344722Y-95500000D01*
X70363762Y-95656818D01*
X70409491Y-95777394D01*
X70419780Y-95804523D01*
X70509517Y-95934530D01*
X70627760Y-96039283D01*
X70627762Y-96039284D01*
X70767634Y-96112696D01*
X70921014Y-96150500D01*
X70921015Y-96150500D01*
X71078985Y-96150500D01*
X71232365Y-96112696D01*
X71237502Y-96110000D01*
X71372240Y-96039283D01*
X71490483Y-95934530D01*
X71580220Y-95804523D01*
X71635677Y-95658294D01*
X71663935Y-95614588D01*
X72940510Y-94338015D01*
X73012984Y-94212485D01*
X73017540Y-94195480D01*
X73017542Y-94195477D01*
X73017541Y-94195477D01*
X73050500Y-94072475D01*
X73050500Y-86736219D01*
X73070185Y-86669180D01*
X73072434Y-86665802D01*
X73080220Y-86654523D01*
X73136237Y-86506818D01*
X73155278Y-86350000D01*
X73138944Y-86215472D01*
X73136237Y-86193181D01*
X73107494Y-86117392D01*
X73080220Y-86045477D01*
X72990483Y-85915470D01*
X72872240Y-85810717D01*
X72872238Y-85810716D01*
X72872237Y-85810715D01*
X72732365Y-85737303D01*
X72578986Y-85699500D01*
X72578985Y-85699500D01*
X72421015Y-85699500D01*
X72421014Y-85699500D01*
X72267634Y-85737303D01*
X72127762Y-85810715D01*
X72009516Y-85915471D01*
X71919781Y-86045475D01*
X71919780Y-86045476D01*
X71863762Y-86193181D01*
X71844722Y-86349999D01*
X71844722Y-86350000D01*
X71863762Y-86506818D01*
X71895120Y-86589500D01*
X71919780Y-86654523D01*
X71927548Y-86665777D01*
X71949433Y-86732130D01*
X71949500Y-86736219D01*
X71949500Y-93720612D01*
X71929815Y-93787651D01*
X71913181Y-93808293D01*
X70880377Y-94841096D01*
X70822372Y-94873811D01*
X70767638Y-94887302D01*
X70767634Y-94887303D01*
X70627762Y-94960715D01*
X70509516Y-95065471D01*
X70419781Y-95195475D01*
X70419780Y-95195476D01*
X70363762Y-95343181D01*
X70344722Y-95499999D01*
X65301161Y-95499999D01*
X65273432Y-95396513D01*
X65273429Y-95396507D01*
X65173600Y-95182422D01*
X65173599Y-95182420D01*
X65038113Y-94988926D01*
X65038108Y-94988920D01*
X64871082Y-94821894D01*
X64677578Y-94686399D01*
X64478426Y-94593533D01*
X64425987Y-94547360D01*
X64406835Y-94480167D01*
X64427051Y-94413286D01*
X64480216Y-94367951D01*
X64486005Y-94365537D01*
X64515019Y-94354298D01*
X64696302Y-94242052D01*
X64853872Y-94098407D01*
X64982366Y-93928255D01*
X65002757Y-93887304D01*
X65077403Y-93737394D01*
X65077403Y-93737393D01*
X65077405Y-93737389D01*
X65135756Y-93532310D01*
X65155429Y-93320000D01*
X65135756Y-93107690D01*
X65077405Y-92902611D01*
X65077403Y-92902606D01*
X65077403Y-92902605D01*
X64982367Y-92711746D01*
X64853872Y-92541593D01*
X64808246Y-92499999D01*
X64696302Y-92397948D01*
X64515019Y-92285702D01*
X64515017Y-92285701D01*
X64415608Y-92247190D01*
X64316198Y-92208679D01*
X64119385Y-92171888D01*
X64057106Y-92140221D01*
X64021833Y-92079908D01*
X64024767Y-92010100D01*
X64064976Y-91952960D01*
X64119384Y-91928111D01*
X64316198Y-91891321D01*
X64515019Y-91814298D01*
X64696302Y-91702052D01*
X64853872Y-91558407D01*
X64982366Y-91388255D01*
X65019192Y-91314298D01*
X65077403Y-91197394D01*
X65077403Y-91197393D01*
X65077405Y-91197389D01*
X65135756Y-90992310D01*
X65155429Y-90780000D01*
X65135756Y-90567690D01*
X65077405Y-90362611D01*
X65077403Y-90362606D01*
X65077403Y-90362605D01*
X64982367Y-90171746D01*
X64853872Y-90001593D01*
X64696302Y-89857948D01*
X64515019Y-89745702D01*
X64515017Y-89745701D01*
X64415608Y-89707190D01*
X64316198Y-89668679D01*
X64119385Y-89631888D01*
X64057106Y-89600221D01*
X64021833Y-89539908D01*
X64024767Y-89470100D01*
X64064976Y-89412960D01*
X64119384Y-89388111D01*
X64316198Y-89351321D01*
X64515019Y-89274298D01*
X64696302Y-89162052D01*
X64853872Y-89018407D01*
X64982366Y-88848255D01*
X65018797Y-88775091D01*
X65077403Y-88657394D01*
X65077403Y-88657393D01*
X65077405Y-88657389D01*
X65135756Y-88452310D01*
X65155429Y-88240000D01*
X65135756Y-88027690D01*
X65077405Y-87822611D01*
X65077403Y-87822606D01*
X65077403Y-87822605D01*
X64982367Y-87631746D01*
X64853872Y-87461593D01*
X64779882Y-87394142D01*
X64696302Y-87317948D01*
X64515019Y-87205702D01*
X64515017Y-87205701D01*
X64354897Y-87143671D01*
X64316198Y-87128679D01*
X64119385Y-87091888D01*
X64057106Y-87060221D01*
X64021833Y-86999908D01*
X64024767Y-86930100D01*
X64064976Y-86872960D01*
X64119384Y-86848111D01*
X64316198Y-86811321D01*
X64515019Y-86734298D01*
X64696302Y-86622052D01*
X64853872Y-86478407D01*
X64982366Y-86308255D01*
X64996070Y-86280733D01*
X65077403Y-86117394D01*
X65077403Y-86117393D01*
X65077405Y-86117389D01*
X65135756Y-85912310D01*
X65155429Y-85700000D01*
X65135756Y-85487690D01*
X65077405Y-85282611D01*
X65077403Y-85282606D01*
X65077403Y-85282605D01*
X64982367Y-85091746D01*
X64853872Y-84921593D01*
X64852934Y-84920738D01*
X64696302Y-84777948D01*
X64515019Y-84665702D01*
X64515017Y-84665701D01*
X64353774Y-84603236D01*
X64316198Y-84588679D01*
X64119385Y-84551888D01*
X64057106Y-84520221D01*
X64021833Y-84459908D01*
X64024767Y-84390100D01*
X64064976Y-84332960D01*
X64119384Y-84308111D01*
X64316198Y-84271321D01*
X64515019Y-84194298D01*
X64696302Y-84082052D01*
X64853872Y-83938407D01*
X64982366Y-83768255D01*
X65019192Y-83694298D01*
X65077403Y-83577394D01*
X65077403Y-83577393D01*
X65077405Y-83577389D01*
X65099425Y-83499999D01*
X74344722Y-83499999D01*
X74344722Y-83500000D01*
X74363762Y-83656818D01*
X74406025Y-83768255D01*
X74419780Y-83804523D01*
X74509517Y-83934530D01*
X74627760Y-84039283D01*
X74627762Y-84039284D01*
X74767634Y-84112696D01*
X74921014Y-84150500D01*
X74921015Y-84150500D01*
X75078985Y-84150500D01*
X75232365Y-84112696D01*
X75357457Y-84047042D01*
X75425965Y-84033316D01*
X75491018Y-84058808D01*
X75502764Y-84069157D01*
X76175179Y-84741571D01*
X76175189Y-84741582D01*
X76254088Y-84820481D01*
X76264883Y-84826713D01*
X76297271Y-84845412D01*
X76297272Y-84845413D01*
X76345407Y-84873204D01*
X76345410Y-84873206D01*
X76345412Y-84873206D01*
X76345413Y-84873207D01*
X76447273Y-84900501D01*
X76447275Y-84900501D01*
X76560323Y-84900501D01*
X76560339Y-84900500D01*
X82222786Y-84900500D01*
X82289825Y-84920185D01*
X82335580Y-84972989D01*
X82345882Y-85009554D01*
X82363762Y-85156818D01*
X82411468Y-85282607D01*
X82419780Y-85304523D01*
X82509517Y-85434530D01*
X82627760Y-85539283D01*
X82627762Y-85539284D01*
X82767634Y-85612696D01*
X82921014Y-85650500D01*
X83028131Y-85650500D01*
X83095170Y-85670185D01*
X83140925Y-85722989D01*
X83150869Y-85792147D01*
X83138017Y-85829278D01*
X83138376Y-85829427D01*
X83135881Y-85835450D01*
X83135518Y-85836500D01*
X83135265Y-85836937D01*
X83135264Y-85836941D01*
X83107971Y-85938802D01*
X83107971Y-86044256D01*
X83127567Y-86117389D01*
X83137114Y-86153021D01*
X83135451Y-86222871D01*
X83096288Y-86280733D01*
X83032059Y-86308237D01*
X83017339Y-86309114D01*
X82978331Y-86309114D01*
X82824951Y-86346917D01*
X82685079Y-86420329D01*
X82566833Y-86525085D01*
X82477098Y-86655089D01*
X82477097Y-86655090D01*
X82421079Y-86802795D01*
X82402039Y-86959613D01*
X82402039Y-86959616D01*
X82404385Y-86978942D01*
X82392923Y-87047865D01*
X82368970Y-87081566D01*
X80920539Y-88529997D01*
X80859216Y-88563482D01*
X80803185Y-88562713D01*
X80788608Y-88559120D01*
X80788605Y-88559120D01*
X80630635Y-88559120D01*
X80630634Y-88559120D01*
X80477254Y-88596923D01*
X80337382Y-88670335D01*
X80219136Y-88775091D01*
X80129401Y-88905095D01*
X80129400Y-88905096D01*
X80073382Y-89052801D01*
X80054342Y-89209619D01*
X80054342Y-89209620D01*
X80073382Y-89366438D01*
X80116486Y-89480092D01*
X80129400Y-89514143D01*
X80219137Y-89644150D01*
X80337380Y-89748903D01*
X80337382Y-89748904D01*
X80477254Y-89822316D01*
X80630634Y-89860120D01*
X80630635Y-89860120D01*
X80788605Y-89860120D01*
X80941985Y-89822316D01*
X81081860Y-89748903D01*
X81200103Y-89644150D01*
X81289840Y-89514143D01*
X81345857Y-89366438D01*
X81358522Y-89262119D01*
X81386143Y-89197943D01*
X81393926Y-89189396D01*
X82936890Y-87646433D01*
X82998213Y-87612948D01*
X83024571Y-87610114D01*
X83136302Y-87610114D01*
X83289682Y-87572310D01*
X83429557Y-87498897D01*
X83547800Y-87394144D01*
X83637537Y-87264137D01*
X83693554Y-87116432D01*
X83712595Y-86959614D01*
X83709012Y-86930100D01*
X83693554Y-86802795D01*
X83641589Y-86665776D01*
X83637537Y-86655091D01*
X83590171Y-86586469D01*
X83568288Y-86520114D01*
X83585754Y-86452463D01*
X83637021Y-86404993D01*
X83692221Y-86392029D01*
X84371044Y-86392029D01*
X84438083Y-86411714D01*
X84483838Y-86464518D01*
X84493782Y-86533676D01*
X84473094Y-86586469D01*
X84430413Y-86648303D01*
X84430412Y-86648304D01*
X84374394Y-86796009D01*
X84355354Y-86952827D01*
X84355354Y-86952828D01*
X84374394Y-87109646D01*
X84430412Y-87257351D01*
X84430413Y-87257352D01*
X84520149Y-87387359D01*
X84557726Y-87420648D01*
X84594853Y-87479837D01*
X84599500Y-87513464D01*
X84599500Y-91929944D01*
X84579815Y-91996983D01*
X84557727Y-92022759D01*
X84509521Y-92065465D01*
X84509515Y-92065472D01*
X84419781Y-92195475D01*
X84419780Y-92195476D01*
X84363762Y-92343181D01*
X84344722Y-92499999D01*
X84344722Y-92500000D01*
X84363762Y-92656818D01*
X84384594Y-92711746D01*
X84419780Y-92804523D01*
X84509517Y-92934530D01*
X84627760Y-93039283D01*
X84627762Y-93039284D01*
X84767634Y-93112696D01*
X84921014Y-93150500D01*
X84921015Y-93150500D01*
X85078985Y-93150500D01*
X85232365Y-93112696D01*
X85241905Y-93107689D01*
X85372240Y-93039283D01*
X85490483Y-92934530D01*
X85580220Y-92804523D01*
X85636237Y-92656818D01*
X85655278Y-92500000D01*
X85643453Y-92402607D01*
X85636237Y-92343181D01*
X85614437Y-92285701D01*
X85580220Y-92195477D01*
X85490483Y-92065470D01*
X85490480Y-92065467D01*
X85490478Y-92065465D01*
X85442273Y-92022759D01*
X85405146Y-91963570D01*
X85400500Y-91929944D01*
X85400500Y-87532302D01*
X85420185Y-87465263D01*
X85442274Y-87439486D01*
X85463538Y-87420648D01*
X85501115Y-87387358D01*
X85572750Y-87283575D01*
X85627032Y-87239585D01*
X85696481Y-87231925D01*
X85732426Y-87244218D01*
X85767635Y-87262698D01*
X85844325Y-87281600D01*
X85921014Y-87300502D01*
X85921015Y-87300502D01*
X86078985Y-87300502D01*
X86232365Y-87262698D01*
X86267573Y-87244219D01*
X86372240Y-87189285D01*
X86490483Y-87084532D01*
X86580220Y-86954525D01*
X86636237Y-86806820D01*
X86655278Y-86650002D01*
X86655277Y-86649989D01*
X86636237Y-86493183D01*
X86612312Y-86430100D01*
X86580220Y-86345479D01*
X86490483Y-86215472D01*
X86372240Y-86110719D01*
X86372238Y-86110718D01*
X86372237Y-86110717D01*
X86232365Y-86037305D01*
X86078986Y-85999502D01*
X86078985Y-85999502D01*
X85967255Y-85999502D01*
X85900216Y-85979817D01*
X85879574Y-85963183D01*
X85587442Y-85671051D01*
X85587440Y-85671049D01*
X85541777Y-85644685D01*
X85496116Y-85618322D01*
X85441551Y-85603702D01*
X85394254Y-85591029D01*
X85394253Y-85591029D01*
X84174500Y-85591029D01*
X84107461Y-85571344D01*
X84061706Y-85518540D01*
X84050500Y-85467029D01*
X84050500Y-84597273D01*
X84050499Y-84597269D01*
X84041979Y-84565471D01*
X84041979Y-84565470D01*
X84023207Y-84495412D01*
X83970480Y-84404087D01*
X83970475Y-84404082D01*
X83965533Y-84397641D01*
X83966577Y-84396839D01*
X83937117Y-84342886D01*
X83942101Y-84273194D01*
X83942341Y-84272557D01*
X83986235Y-84156818D01*
X84005276Y-84000000D01*
X84005276Y-83999999D01*
X83986235Y-83843181D01*
X83948886Y-83744701D01*
X83930218Y-83695477D01*
X83840481Y-83565470D01*
X83722238Y-83460717D01*
X83722236Y-83460716D01*
X83722235Y-83460715D01*
X83582363Y-83387303D01*
X83428984Y-83349500D01*
X83428983Y-83349500D01*
X83271013Y-83349500D01*
X83271012Y-83349500D01*
X83117632Y-83387303D01*
X82977760Y-83460715D01*
X82859514Y-83565471D01*
X82769779Y-83695475D01*
X82769778Y-83695476D01*
X82713761Y-83843180D01*
X82695692Y-83991993D01*
X82668070Y-84056171D01*
X82610136Y-84095227D01*
X82556409Y-84099985D01*
X82552728Y-84099500D01*
X82552727Y-84099500D01*
X82552725Y-84099500D01*
X76717254Y-84099500D01*
X76650215Y-84079815D01*
X76629573Y-84063181D01*
X76193185Y-83626793D01*
X75745913Y-83179520D01*
X75654588Y-83126793D01*
X75552727Y-83099500D01*
X75546644Y-83097870D01*
X75498043Y-83068246D01*
X75496097Y-83070444D01*
X75490483Y-83065471D01*
X75490483Y-83065470D01*
X75416581Y-82999999D01*
X86994724Y-82999999D01*
X86994724Y-83000000D01*
X87013764Y-83156818D01*
X87056027Y-83268255D01*
X87069782Y-83304523D01*
X87159519Y-83434530D01*
X87277762Y-83539283D01*
X87417637Y-83612696D01*
X87539640Y-83642766D01*
X87558139Y-83647326D01*
X87618519Y-83682482D01*
X87650308Y-83744701D01*
X87643412Y-83814230D01*
X87635852Y-83829721D01*
X87626795Y-83845408D01*
X87626793Y-83845411D01*
X87608304Y-83914416D01*
X87571939Y-83974076D01*
X87570756Y-83975137D01*
X87476501Y-84058639D01*
X87386764Y-84188646D01*
X87386763Y-84188647D01*
X87330745Y-84336352D01*
X87311705Y-84493170D01*
X87311705Y-84493171D01*
X87330745Y-84649989D01*
X87381041Y-84782607D01*
X87386763Y-84797694D01*
X87476500Y-84927701D01*
X87594743Y-85032454D01*
X87594745Y-85032455D01*
X87734617Y-85105867D01*
X87887997Y-85143671D01*
X87887998Y-85143671D01*
X88045968Y-85143671D01*
X88199348Y-85105867D01*
X88226255Y-85091745D01*
X88339223Y-85032454D01*
X88457466Y-84927701D01*
X88547203Y-84797694D01*
X88603220Y-84649989D01*
X88620272Y-84509553D01*
X88647894Y-84445375D01*
X88705828Y-84406319D01*
X88743368Y-84400500D01*
X96924078Y-84400500D01*
X96991117Y-84420185D01*
X97006305Y-84431684D01*
X97009516Y-84434528D01*
X97009517Y-84434530D01*
X97106243Y-84520221D01*
X97127681Y-84539213D01*
X97164808Y-84598403D01*
X97164040Y-84668268D01*
X97133135Y-84719710D01*
X95946494Y-85906352D01*
X95885171Y-85939837D01*
X95858813Y-85942671D01*
X88348414Y-85942671D01*
X88290788Y-85928467D01*
X88199348Y-85880475D01*
X88199347Y-85880474D01*
X88199346Y-85880474D01*
X88045969Y-85842671D01*
X88045968Y-85842671D01*
X87887998Y-85842671D01*
X87887997Y-85842671D01*
X87734617Y-85880474D01*
X87594745Y-85953886D01*
X87515914Y-86023723D01*
X87492738Y-86044256D01*
X87476499Y-86058642D01*
X87386764Y-86188646D01*
X87386763Y-86188647D01*
X87330745Y-86336352D01*
X87311705Y-86493170D01*
X87311705Y-86493171D01*
X87330745Y-86649989D01*
X87386124Y-86796009D01*
X87386763Y-86797694D01*
X87476500Y-86927701D01*
X87594743Y-87032454D01*
X87594745Y-87032455D01*
X87734617Y-87105867D01*
X87887997Y-87143671D01*
X87887998Y-87143671D01*
X88045968Y-87143671D01*
X88199348Y-87105867D01*
X88290788Y-87057874D01*
X88348414Y-87043671D01*
X96210672Y-87043671D01*
X96210674Y-87043671D01*
X96210675Y-87043671D01*
X96350685Y-87006155D01*
X96371792Y-86993969D01*
X96476215Y-86933681D01*
X97823076Y-85586818D01*
X97884399Y-85553334D01*
X97910757Y-85550500D01*
X103072472Y-85550500D01*
X103072474Y-85550500D01*
X103072475Y-85550500D01*
X103212485Y-85512984D01*
X103263503Y-85483529D01*
X103331399Y-85467057D01*
X103397426Y-85489909D01*
X103440617Y-85544830D01*
X103449500Y-85590917D01*
X103449500Y-96220612D01*
X103429815Y-96287651D01*
X103413181Y-96308293D01*
X101880377Y-97841096D01*
X101822372Y-97873811D01*
X101767638Y-97887302D01*
X101767634Y-97887303D01*
X101627762Y-97960715D01*
X101509516Y-98065471D01*
X101419781Y-98195475D01*
X101419780Y-98195476D01*
X101363762Y-98343181D01*
X101351945Y-98440510D01*
X101344722Y-98500000D01*
X101346299Y-98512984D01*
X101363762Y-98656818D01*
X101390768Y-98728025D01*
X101419780Y-98804523D01*
X101509517Y-98934530D01*
X101627760Y-99039283D01*
X101627762Y-99039284D01*
X101767634Y-99112696D01*
X101921014Y-99150500D01*
X101921015Y-99150500D01*
X102078985Y-99150500D01*
X102232365Y-99112696D01*
X102295082Y-99079779D01*
X102372240Y-99039283D01*
X102490483Y-98934530D01*
X102580220Y-98804523D01*
X102635677Y-98658294D01*
X102663935Y-98614588D01*
X104440510Y-96838015D01*
X104512984Y-96712485D01*
X104550500Y-96572475D01*
X104550500Y-83927525D01*
X104550500Y-77427525D01*
X104512984Y-77287515D01*
X104512982Y-77287512D01*
X104512982Y-77287510D01*
X104512981Y-77287509D01*
X104488966Y-77245914D01*
X104488964Y-77245912D01*
X104440510Y-77161985D01*
X100163937Y-72885412D01*
X100135676Y-72841702D01*
X100115191Y-72787689D01*
X100080220Y-72695477D01*
X99990483Y-72565470D01*
X99872240Y-72460717D01*
X99872238Y-72460716D01*
X99872237Y-72460715D01*
X99732365Y-72387303D01*
X99578986Y-72349500D01*
X99578985Y-72349500D01*
X99421015Y-72349500D01*
X99421014Y-72349500D01*
X99267634Y-72387303D01*
X99127762Y-72460715D01*
X99009516Y-72565471D01*
X98919781Y-72695475D01*
X98919780Y-72695476D01*
X98863762Y-72843181D01*
X98844722Y-72999999D01*
X98844722Y-73000000D01*
X98863762Y-73156818D01*
X98919780Y-73304523D01*
X99009517Y-73434530D01*
X99127760Y-73539283D01*
X99267635Y-73612696D01*
X99322369Y-73626186D01*
X99380377Y-73658902D01*
X103413181Y-77691706D01*
X103446666Y-77753029D01*
X103449500Y-77779387D01*
X103449500Y-83720613D01*
X103429815Y-83787652D01*
X103413181Y-83808294D01*
X102808294Y-84413181D01*
X102746971Y-84446666D01*
X102720613Y-84449500D01*
X98204882Y-84449500D01*
X98137843Y-84429815D01*
X98092088Y-84377011D01*
X98082144Y-84307853D01*
X98088938Y-84281534D01*
X98136237Y-84156818D01*
X98155278Y-84000000D01*
X98136237Y-83843182D01*
X98136236Y-83843180D01*
X98098888Y-83744701D01*
X98080220Y-83695477D01*
X97990483Y-83565470D01*
X97872240Y-83460717D01*
X97872238Y-83460716D01*
X97872237Y-83460715D01*
X97732365Y-83387303D01*
X97578986Y-83349500D01*
X97578985Y-83349500D01*
X97421015Y-83349500D01*
X97421014Y-83349500D01*
X97267634Y-83387303D01*
X97127762Y-83460715D01*
X97127760Y-83460717D01*
X97039076Y-83539284D01*
X97006305Y-83568316D01*
X96943071Y-83598037D01*
X96924078Y-83599500D01*
X88262877Y-83599500D01*
X88195838Y-83579815D01*
X88150083Y-83527011D01*
X88140139Y-83457853D01*
X88160827Y-83405060D01*
X88183432Y-83372310D01*
X88230222Y-83304523D01*
X88286239Y-83156818D01*
X88305280Y-83000000D01*
X88298929Y-82947690D01*
X88286239Y-82843181D01*
X88264994Y-82787164D01*
X88230222Y-82695477D01*
X88142194Y-82567946D01*
X88120312Y-82501594D01*
X88137777Y-82433942D01*
X88156560Y-82409831D01*
X90129574Y-80436819D01*
X90190897Y-80403334D01*
X90217255Y-80400500D01*
X94052725Y-80400500D01*
X94052727Y-80400500D01*
X94154588Y-80373207D01*
X94245913Y-80320480D01*
X94879573Y-79686818D01*
X94940896Y-79653334D01*
X94967254Y-79650500D01*
X95078985Y-79650500D01*
X95232365Y-79612696D01*
X95232369Y-79612694D01*
X95372240Y-79539283D01*
X95490483Y-79434530D01*
X95580220Y-79304523D01*
X95636237Y-79156818D01*
X95655278Y-79000000D01*
X95636237Y-78843182D01*
X95632274Y-78832733D01*
X95614992Y-78787164D01*
X95580220Y-78695477D01*
X95490483Y-78565470D01*
X95372240Y-78460717D01*
X95372238Y-78460716D01*
X95372237Y-78460715D01*
X95232365Y-78387303D01*
X95078986Y-78349500D01*
X95078985Y-78349500D01*
X94921015Y-78349500D01*
X94921014Y-78349500D01*
X94767634Y-78387303D01*
X94627762Y-78460715D01*
X94509516Y-78565471D01*
X94419781Y-78695475D01*
X94419780Y-78695476D01*
X94363762Y-78843181D01*
X94344722Y-78999999D01*
X94344722Y-79000003D01*
X94347068Y-79019328D01*
X94335606Y-79088251D01*
X94311653Y-79121953D01*
X93870426Y-79563181D01*
X93809103Y-79596666D01*
X93782745Y-79599500D01*
X89947273Y-79599500D01*
X89845410Y-79626793D01*
X89754087Y-79679520D01*
X89754084Y-79679522D01*
X87329524Y-82104082D01*
X87329520Y-82104088D01*
X87276794Y-82195410D01*
X87276795Y-82195411D01*
X87249502Y-82297271D01*
X87249502Y-82429944D01*
X87229817Y-82496983D01*
X87207729Y-82522759D01*
X87159523Y-82565465D01*
X87159517Y-82565472D01*
X87069783Y-82695475D01*
X87069782Y-82695476D01*
X87013764Y-82843181D01*
X86994724Y-82999999D01*
X75416581Y-82999999D01*
X75372240Y-82960717D01*
X75372238Y-82960716D01*
X75372237Y-82960715D01*
X75232365Y-82887303D01*
X75078986Y-82849500D01*
X75078985Y-82849500D01*
X74921015Y-82849500D01*
X74921014Y-82849500D01*
X74767634Y-82887303D01*
X74627762Y-82960715D01*
X74509516Y-83065471D01*
X74419781Y-83195475D01*
X74419780Y-83195476D01*
X74363762Y-83343181D01*
X74344722Y-83499999D01*
X65099425Y-83499999D01*
X65135756Y-83372310D01*
X65155429Y-83160000D01*
X65135756Y-82947690D01*
X65077405Y-82742611D01*
X65077403Y-82742606D01*
X65077403Y-82742605D01*
X64982367Y-82551746D01*
X64853872Y-82381593D01*
X64696302Y-82237948D01*
X64515019Y-82125702D01*
X64515017Y-82125701D01*
X64415608Y-82087190D01*
X64316198Y-82048679D01*
X64119385Y-82011888D01*
X64057106Y-81980221D01*
X64021833Y-81919908D01*
X64024767Y-81850100D01*
X64064976Y-81792960D01*
X64119384Y-81768111D01*
X64316198Y-81731321D01*
X64515019Y-81654298D01*
X64696302Y-81542052D01*
X64853872Y-81398407D01*
X64982366Y-81228255D01*
X65019192Y-81154298D01*
X65077403Y-81037394D01*
X65077403Y-81037393D01*
X65077405Y-81037389D01*
X65135756Y-80832310D01*
X65155429Y-80620000D01*
X65135756Y-80407690D01*
X65077405Y-80202611D01*
X65077403Y-80202606D01*
X65077403Y-80202605D01*
X64982367Y-80011746D01*
X64853872Y-79841593D01*
X64789893Y-79783268D01*
X64696302Y-79697948D01*
X64515019Y-79585702D01*
X64515017Y-79585701D01*
X64395197Y-79539283D01*
X64316198Y-79508679D01*
X64119385Y-79471888D01*
X64057106Y-79440221D01*
X64021833Y-79379908D01*
X64024767Y-79310100D01*
X64064976Y-79252960D01*
X64119384Y-79228111D01*
X64316198Y-79191321D01*
X64515019Y-79114298D01*
X64696302Y-79002052D01*
X64853872Y-78858407D01*
X64982366Y-78688255D01*
X65019192Y-78614298D01*
X65076106Y-78499999D01*
X79844722Y-78499999D01*
X79844722Y-78500000D01*
X79863762Y-78656818D01*
X79902811Y-78759779D01*
X79919780Y-78804523D01*
X80009517Y-78934530D01*
X80127760Y-79039283D01*
X80127762Y-79039284D01*
X80127765Y-79039286D01*
X80135508Y-79043350D01*
X80176264Y-79077665D01*
X80179521Y-79081910D01*
X81063181Y-79965568D01*
X81096666Y-80026891D01*
X81099500Y-80053249D01*
X81099500Y-80888721D01*
X81126793Y-80990584D01*
X81153156Y-81036245D01*
X81179520Y-81081908D01*
X81179522Y-81081910D01*
X82259921Y-82162309D01*
X82293406Y-82223632D01*
X82295336Y-82264932D01*
X82292990Y-82284258D01*
X82292990Y-82284263D01*
X82312030Y-82441081D01*
X82359205Y-82565470D01*
X82368048Y-82588786D01*
X82457785Y-82718793D01*
X82576028Y-82823546D01*
X82576030Y-82823547D01*
X82715902Y-82896959D01*
X82869282Y-82934763D01*
X82869283Y-82934763D01*
X83027253Y-82934763D01*
X83180633Y-82896959D01*
X83271057Y-82849500D01*
X83320508Y-82823546D01*
X83438751Y-82718793D01*
X83528488Y-82588786D01*
X83584505Y-82441081D01*
X83603546Y-82284263D01*
X83603546Y-82284258D01*
X83584505Y-82127444D01*
X83539774Y-82009500D01*
X83528488Y-81979740D01*
X83438751Y-81849733D01*
X83320508Y-81744980D01*
X83320506Y-81744979D01*
X83320505Y-81744978D01*
X83180633Y-81671566D01*
X83027254Y-81633763D01*
X83027253Y-81633763D01*
X82915523Y-81633763D01*
X82848484Y-81614078D01*
X82827842Y-81597444D01*
X81936819Y-80706421D01*
X81903334Y-80645098D01*
X81900500Y-80618740D01*
X81900500Y-79898724D01*
X81900501Y-79898711D01*
X81900501Y-79783269D01*
X81878887Y-79702607D01*
X81873207Y-79681408D01*
X81833536Y-79612696D01*
X81833535Y-79612694D01*
X81820482Y-79590085D01*
X81820481Y-79590084D01*
X81820480Y-79590082D01*
X81745913Y-79515515D01*
X81745912Y-79515514D01*
X81741582Y-79511184D01*
X81741571Y-79511174D01*
X81124454Y-78894056D01*
X81090969Y-78832733D01*
X81095953Y-78763041D01*
X81096073Y-78762720D01*
X81136237Y-78656818D01*
X81155278Y-78500000D01*
X81136237Y-78343182D01*
X81080220Y-78195477D01*
X80990483Y-78065470D01*
X80872240Y-77960717D01*
X80872238Y-77960716D01*
X80872237Y-77960715D01*
X80732365Y-77887303D01*
X80578986Y-77849500D01*
X80578985Y-77849500D01*
X80421015Y-77849500D01*
X80421014Y-77849500D01*
X80267634Y-77887303D01*
X80127762Y-77960715D01*
X80009516Y-78065471D01*
X79919781Y-78195475D01*
X79919780Y-78195476D01*
X79863762Y-78343181D01*
X79844722Y-78499999D01*
X65076106Y-78499999D01*
X65077403Y-78497394D01*
X65077403Y-78497393D01*
X65077405Y-78497389D01*
X65135756Y-78292310D01*
X65155429Y-78080000D01*
X65135756Y-77867690D01*
X65077405Y-77662611D01*
X65077403Y-77662606D01*
X65077403Y-77662605D01*
X64982367Y-77471746D01*
X64853872Y-77301593D01*
X64759400Y-77215470D01*
X64696302Y-77157948D01*
X64515019Y-77045702D01*
X64515017Y-77045701D01*
X64415608Y-77007190D01*
X64316198Y-76968679D01*
X64119385Y-76931888D01*
X64057106Y-76900221D01*
X64021833Y-76839908D01*
X64024767Y-76770100D01*
X64064976Y-76712960D01*
X64119384Y-76688111D01*
X64316198Y-76651321D01*
X64515019Y-76574298D01*
X64696302Y-76462052D01*
X64853872Y-76318407D01*
X64982366Y-76148255D01*
X65019192Y-76074298D01*
X65077403Y-75957394D01*
X65077403Y-75957393D01*
X65077405Y-75957389D01*
X65135756Y-75752310D01*
X65155429Y-75540000D01*
X65135756Y-75327690D01*
X65077405Y-75122611D01*
X65077403Y-75122606D01*
X65077403Y-75122605D01*
X64982367Y-74931746D01*
X64853872Y-74761593D01*
X64696302Y-74617948D01*
X64515019Y-74505702D01*
X64515017Y-74505701D01*
X64398893Y-74460715D01*
X64316198Y-74428679D01*
X64119385Y-74391888D01*
X64057106Y-74360221D01*
X64021833Y-74299908D01*
X64024767Y-74230100D01*
X64064976Y-74172960D01*
X64119384Y-74148111D01*
X64316198Y-74111321D01*
X64515019Y-74034298D01*
X64687463Y-73927525D01*
X76449500Y-73927525D01*
X76449500Y-76572475D01*
X76453123Y-76585996D01*
X76487016Y-76712485D01*
X76526048Y-76780092D01*
X76559489Y-76838013D01*
X76559491Y-76838016D01*
X77310767Y-77589292D01*
X77344252Y-77650615D01*
X77346182Y-77662026D01*
X77363763Y-77806819D01*
X77394287Y-77887303D01*
X77419780Y-77954523D01*
X77509517Y-78084530D01*
X77627760Y-78189283D01*
X77627762Y-78189284D01*
X77767634Y-78262696D01*
X77921014Y-78300500D01*
X77921015Y-78300500D01*
X78078985Y-78300500D01*
X78232365Y-78262696D01*
X78372240Y-78189283D01*
X78490483Y-78084530D01*
X78580220Y-77954523D01*
X78636237Y-77806818D01*
X78655278Y-77650000D01*
X78646779Y-77579999D01*
X78636237Y-77493181D01*
X78588644Y-77367690D01*
X78580220Y-77345477D01*
X78490483Y-77215470D01*
X78466480Y-77194205D01*
X78441321Y-77163390D01*
X78440512Y-77161989D01*
X78440508Y-77161984D01*
X78278523Y-76999999D01*
X80344722Y-76999999D01*
X80344722Y-77000000D01*
X80363762Y-77156818D01*
X80413327Y-77287509D01*
X80419780Y-77304523D01*
X80509517Y-77434530D01*
X80627760Y-77539283D01*
X80627762Y-77539284D01*
X80767634Y-77612696D01*
X80921014Y-77650500D01*
X80921015Y-77650500D01*
X81078985Y-77650500D01*
X81232365Y-77612696D01*
X81294663Y-77579999D01*
X81372240Y-77539283D01*
X81490483Y-77434530D01*
X81580220Y-77304523D01*
X81636237Y-77156818D01*
X81655278Y-77000000D01*
X81636237Y-76843182D01*
X81634995Y-76839908D01*
X81608521Y-76770100D01*
X81580220Y-76695477D01*
X81490483Y-76565470D01*
X81490480Y-76565467D01*
X81490478Y-76565465D01*
X81442273Y-76522759D01*
X81405146Y-76463570D01*
X81400500Y-76429944D01*
X81400500Y-75774500D01*
X81420185Y-75707461D01*
X81472989Y-75661706D01*
X81524500Y-75650500D01*
X81578985Y-75650500D01*
X81732365Y-75612696D01*
X81872240Y-75539283D01*
X81990483Y-75434530D01*
X82080220Y-75304523D01*
X82136237Y-75156818D01*
X82155278Y-75000000D01*
X82155278Y-74999999D01*
X84844722Y-74999999D01*
X84844722Y-75000000D01*
X84863762Y-75156818D01*
X84900653Y-75254090D01*
X84919780Y-75304523D01*
X85009517Y-75434530D01*
X85127760Y-75539283D01*
X85127762Y-75539284D01*
X85267634Y-75612696D01*
X85421014Y-75650500D01*
X85421015Y-75650500D01*
X85578985Y-75650500D01*
X85732365Y-75612696D01*
X85872240Y-75539283D01*
X85990483Y-75434530D01*
X85990483Y-75434528D01*
X85993695Y-75431684D01*
X86056929Y-75401963D01*
X86075922Y-75400500D01*
X88424078Y-75400500D01*
X88491117Y-75420185D01*
X88506305Y-75431684D01*
X88509516Y-75434528D01*
X88509517Y-75434530D01*
X88627760Y-75539283D01*
X88627762Y-75539284D01*
X88767634Y-75612696D01*
X88921014Y-75650500D01*
X88921015Y-75650500D01*
X89078985Y-75650500D01*
X89232365Y-75612696D01*
X89372240Y-75539283D01*
X89490483Y-75434530D01*
X89580220Y-75304523D01*
X89636237Y-75156818D01*
X89655278Y-75000000D01*
X89646991Y-74931745D01*
X89636237Y-74843181D01*
X89605294Y-74761593D01*
X89580220Y-74695477D01*
X89490483Y-74565470D01*
X89372240Y-74460717D01*
X89372238Y-74460716D01*
X89372237Y-74460715D01*
X89232365Y-74387303D01*
X89078986Y-74349500D01*
X89078985Y-74349500D01*
X88921015Y-74349500D01*
X88921014Y-74349500D01*
X88767634Y-74387303D01*
X88627762Y-74460715D01*
X88506305Y-74568316D01*
X88443071Y-74598037D01*
X88424078Y-74599500D01*
X86075922Y-74599500D01*
X86008883Y-74579815D01*
X85993695Y-74568316D01*
X85990483Y-74565471D01*
X85990483Y-74565470D01*
X85872240Y-74460717D01*
X85872238Y-74460716D01*
X85872237Y-74460715D01*
X85732365Y-74387303D01*
X85578986Y-74349500D01*
X85578985Y-74349500D01*
X85421015Y-74349500D01*
X85421014Y-74349500D01*
X85267634Y-74387303D01*
X85127762Y-74460715D01*
X85009516Y-74565471D01*
X84919781Y-74695475D01*
X84919780Y-74695476D01*
X84863762Y-74843181D01*
X84844722Y-74999999D01*
X82155278Y-74999999D01*
X82146991Y-74931745D01*
X82136237Y-74843181D01*
X82105294Y-74761593D01*
X82080220Y-74695477D01*
X81990483Y-74565470D01*
X81872240Y-74460717D01*
X81872238Y-74460716D01*
X81872237Y-74460715D01*
X81732365Y-74387303D01*
X81578986Y-74349500D01*
X81578985Y-74349500D01*
X81421015Y-74349500D01*
X81421014Y-74349500D01*
X81267634Y-74387303D01*
X81127762Y-74460715D01*
X81009516Y-74565471D01*
X80919781Y-74695475D01*
X80919780Y-74695476D01*
X80863762Y-74843181D01*
X80844722Y-74999999D01*
X80844722Y-75000002D01*
X80847068Y-75019328D01*
X80835606Y-75088251D01*
X80811654Y-75121952D01*
X80679519Y-75254088D01*
X80679518Y-75254090D01*
X80626792Y-75345412D01*
X80626793Y-75345413D01*
X80599500Y-75447273D01*
X80599500Y-76429944D01*
X80579815Y-76496983D01*
X80557727Y-76522759D01*
X80509521Y-76565465D01*
X80509515Y-76565472D01*
X80419781Y-76695475D01*
X80419780Y-76695476D01*
X80363762Y-76843181D01*
X80344722Y-76999999D01*
X78278523Y-76999999D01*
X77586819Y-76308294D01*
X77553334Y-76246971D01*
X77550500Y-76220613D01*
X77550500Y-74279387D01*
X77570185Y-74212348D01*
X77586819Y-74191706D01*
X79700578Y-72077947D01*
X81940510Y-69838015D01*
X82012984Y-69712485D01*
X82027181Y-69659500D01*
X82050500Y-69572475D01*
X82050500Y-68886219D01*
X82070185Y-68819180D01*
X82072434Y-68815802D01*
X82080220Y-68804523D01*
X82136237Y-68656818D01*
X82155278Y-68500000D01*
X82136237Y-68343182D01*
X82135808Y-68342052D01*
X82081331Y-68198407D01*
X82080220Y-68195477D01*
X81990483Y-68065470D01*
X81916581Y-67999999D01*
X84844722Y-67999999D01*
X84844722Y-68000000D01*
X84863762Y-68156818D01*
X84919780Y-68304523D01*
X85009517Y-68434530D01*
X85127760Y-68539283D01*
X85127762Y-68539284D01*
X85267634Y-68612696D01*
X85421014Y-68650500D01*
X85421015Y-68650500D01*
X85578985Y-68650500D01*
X85732365Y-68612696D01*
X85823805Y-68564703D01*
X85881431Y-68550500D01*
X88618569Y-68550500D01*
X88676194Y-68564703D01*
X88767635Y-68612696D01*
X88844325Y-68631598D01*
X88921014Y-68650500D01*
X88921015Y-68650500D01*
X89078985Y-68650500D01*
X89232365Y-68612696D01*
X89269968Y-68592960D01*
X89372240Y-68539283D01*
X89490483Y-68434530D01*
X89580220Y-68304523D01*
X89636237Y-68156818D01*
X89655278Y-68000000D01*
X89636237Y-67843182D01*
X89580220Y-67695477D01*
X89490483Y-67565470D01*
X89372240Y-67460717D01*
X89372238Y-67460716D01*
X89372237Y-67460715D01*
X89232365Y-67387303D01*
X89078986Y-67349500D01*
X89078985Y-67349500D01*
X88921015Y-67349500D01*
X88921014Y-67349500D01*
X88767636Y-67387303D01*
X88721763Y-67411379D01*
X88676194Y-67435296D01*
X88618569Y-67449500D01*
X85881431Y-67449500D01*
X85823805Y-67435296D01*
X85732365Y-67387304D01*
X85732364Y-67387303D01*
X85732363Y-67387303D01*
X85578986Y-67349500D01*
X85578985Y-67349500D01*
X85421015Y-67349500D01*
X85421014Y-67349500D01*
X85267634Y-67387303D01*
X85127762Y-67460715D01*
X85009516Y-67565471D01*
X84919781Y-67695475D01*
X84919780Y-67695476D01*
X84863762Y-67843181D01*
X84844722Y-67999999D01*
X81916581Y-67999999D01*
X81872240Y-67960717D01*
X81872238Y-67960716D01*
X81872237Y-67960715D01*
X81732365Y-67887303D01*
X81578986Y-67849500D01*
X81578985Y-67849500D01*
X81421015Y-67849500D01*
X81421014Y-67849500D01*
X81267634Y-67887303D01*
X81127762Y-67960715D01*
X81009516Y-68065471D01*
X80919781Y-68195475D01*
X80919780Y-68195476D01*
X80863762Y-68343181D01*
X80844722Y-68499999D01*
X80844722Y-68500000D01*
X80863762Y-68656818D01*
X80919780Y-68804523D01*
X80927548Y-68815777D01*
X80949433Y-68882130D01*
X80949500Y-68886219D01*
X80949500Y-69220613D01*
X80929815Y-69287652D01*
X80913181Y-69308294D01*
X76559491Y-73661983D01*
X76559489Y-73661986D01*
X76487016Y-73787514D01*
X76487016Y-73787515D01*
X76449500Y-73927525D01*
X64687463Y-73927525D01*
X64696302Y-73922052D01*
X64853872Y-73778407D01*
X64982366Y-73608255D01*
X65019192Y-73534298D01*
X65077403Y-73417394D01*
X65077403Y-73417393D01*
X65077405Y-73417389D01*
X65135756Y-73212310D01*
X65155429Y-73000000D01*
X65135756Y-72787690D01*
X65077405Y-72582611D01*
X65077403Y-72582606D01*
X65077403Y-72582605D01*
X64982367Y-72391746D01*
X64853872Y-72221593D01*
X64696302Y-72077948D01*
X64515019Y-71965702D01*
X64515017Y-71965701D01*
X64415608Y-71927190D01*
X64316198Y-71888679D01*
X64119385Y-71851888D01*
X64057106Y-71820221D01*
X64021833Y-71759908D01*
X64024767Y-71690100D01*
X64064976Y-71632960D01*
X64119384Y-71608111D01*
X64316198Y-71571321D01*
X64515019Y-71494298D01*
X64696302Y-71382052D01*
X64853872Y-71238407D01*
X64982366Y-71068255D01*
X65019192Y-70994298D01*
X65077403Y-70877394D01*
X65077403Y-70877393D01*
X65077405Y-70877389D01*
X65135756Y-70672310D01*
X65155429Y-70460000D01*
X65135756Y-70247690D01*
X65077405Y-70042611D01*
X65077403Y-70042606D01*
X65077403Y-70042605D01*
X64982367Y-69851746D01*
X64853872Y-69681593D01*
X64829636Y-69659499D01*
X64696302Y-69537948D01*
X64515019Y-69425702D01*
X64515017Y-69425701D01*
X64415608Y-69387190D01*
X64316198Y-69348679D01*
X64119385Y-69311888D01*
X64057106Y-69280221D01*
X64021833Y-69219908D01*
X64024767Y-69150100D01*
X64064976Y-69092960D01*
X64119384Y-69068111D01*
X64316198Y-69031321D01*
X64515019Y-68954298D01*
X64696302Y-68842052D01*
X64853872Y-68698407D01*
X64982366Y-68528255D01*
X65019192Y-68454298D01*
X65077403Y-68337394D01*
X65077403Y-68337393D01*
X65077405Y-68337389D01*
X65135756Y-68132310D01*
X65155429Y-67920000D01*
X65135756Y-67707690D01*
X65077405Y-67502611D01*
X65077403Y-67502606D01*
X65077403Y-67502605D01*
X64982367Y-67311746D01*
X64853872Y-67141593D01*
X64696302Y-66997948D01*
X64515019Y-66885702D01*
X64515017Y-66885701D01*
X64415608Y-66847190D01*
X64316198Y-66808679D01*
X64119385Y-66771888D01*
X64057106Y-66740221D01*
X64021833Y-66679908D01*
X64024767Y-66610100D01*
X64064976Y-66552960D01*
X64119384Y-66528111D01*
X64316198Y-66491321D01*
X64515019Y-66414298D01*
X64696302Y-66302052D01*
X64853872Y-66158407D01*
X64982366Y-65988255D01*
X65019192Y-65914298D01*
X65077403Y-65797394D01*
X65077403Y-65797393D01*
X65077405Y-65797389D01*
X65135756Y-65592310D01*
X65155429Y-65380000D01*
X65135756Y-65167690D01*
X65077405Y-64962611D01*
X65077403Y-64962606D01*
X65077403Y-64962605D01*
X64982367Y-64771746D01*
X64853872Y-64601593D01*
X64696302Y-64457948D01*
X64515019Y-64345702D01*
X64515017Y-64345701D01*
X64368103Y-64288787D01*
X64316198Y-64268679D01*
X64143456Y-64236387D01*
X64081176Y-64204719D01*
X64045903Y-64144407D01*
X64048837Y-64074599D01*
X64089046Y-64017459D01*
X64153764Y-63991128D01*
X64166233Y-63990499D01*
X64894864Y-63990499D01*
X64894879Y-63990497D01*
X64894882Y-63990497D01*
X64919987Y-63987586D01*
X64919988Y-63987585D01*
X64919991Y-63987585D01*
X65022765Y-63942206D01*
X65102206Y-63862765D01*
X65147585Y-63759991D01*
X65150500Y-63734865D01*
X65150499Y-62728992D01*
X82249500Y-62728992D01*
X82249500Y-63481007D01*
X82288907Y-63679119D01*
X82288909Y-63679127D01*
X82366212Y-63865752D01*
X82366217Y-63865762D01*
X82478441Y-64033718D01*
X82621281Y-64176558D01*
X82789237Y-64288782D01*
X82789241Y-64288784D01*
X82789244Y-64288786D01*
X82975873Y-64366091D01*
X83173992Y-64405499D01*
X83173996Y-64405500D01*
X83173997Y-64405500D01*
X83376004Y-64405500D01*
X83376005Y-64405499D01*
X83574127Y-64366091D01*
X83760756Y-64288786D01*
X83928718Y-64176558D01*
X84071558Y-64033718D01*
X84183786Y-63865756D01*
X84261091Y-63679127D01*
X84300500Y-63481003D01*
X84300500Y-62879500D01*
X84320185Y-62812461D01*
X84372989Y-62766706D01*
X84424500Y-62755500D01*
X84585056Y-62755500D01*
X84750225Y-62714790D01*
X84829692Y-62673081D01*
X84900849Y-62635736D01*
X84900850Y-62635734D01*
X84900852Y-62635734D01*
X85028183Y-62522929D01*
X85124818Y-62382930D01*
X85185140Y-62223872D01*
X85205645Y-62055000D01*
X88794355Y-62055000D01*
X88814859Y-62223869D01*
X88814860Y-62223874D01*
X88875182Y-62382931D01*
X88877452Y-62386219D01*
X88971817Y-62522929D01*
X89077505Y-62616560D01*
X89099150Y-62635736D01*
X89249773Y-62714789D01*
X89249775Y-62714790D01*
X89414944Y-62755500D01*
X89575500Y-62755500D01*
X89642539Y-62775185D01*
X89688294Y-62827989D01*
X89699500Y-62879500D01*
X89699500Y-63481007D01*
X89738907Y-63679119D01*
X89738909Y-63679127D01*
X89816212Y-63865752D01*
X89816217Y-63865762D01*
X89928441Y-64033718D01*
X90071281Y-64176558D01*
X90239237Y-64288782D01*
X90239241Y-64288784D01*
X90239244Y-64288786D01*
X90425873Y-64366091D01*
X90623992Y-64405499D01*
X90623996Y-64405500D01*
X90623997Y-64405500D01*
X90826004Y-64405500D01*
X90826005Y-64405499D01*
X91024127Y-64366091D01*
X91210756Y-64288786D01*
X91378718Y-64176558D01*
X91521558Y-64033718D01*
X91633786Y-63865756D01*
X91711091Y-63679127D01*
X91750500Y-63481003D01*
X91750500Y-62728997D01*
X91711091Y-62530873D01*
X91633786Y-62344244D01*
X91633784Y-62344241D01*
X91633782Y-62344237D01*
X91521558Y-62176281D01*
X91378718Y-62033441D01*
X91328668Y-61999999D01*
X97844722Y-61999999D01*
X97844722Y-62000000D01*
X97863762Y-62156818D01*
X97919780Y-62304523D01*
X97927548Y-62315777D01*
X97949433Y-62382130D01*
X97949500Y-62386219D01*
X97949500Y-63613780D01*
X97929815Y-63680819D01*
X97927552Y-63684217D01*
X97919780Y-63695476D01*
X97863762Y-63843181D01*
X97844722Y-63999999D01*
X97844722Y-64000000D01*
X97863762Y-64156818D01*
X97907349Y-64271745D01*
X97919780Y-64304523D01*
X98009517Y-64434530D01*
X98127760Y-64539283D01*
X98127762Y-64539284D01*
X98267634Y-64612696D01*
X98421014Y-64650500D01*
X98421015Y-64650500D01*
X98578985Y-64650500D01*
X98732365Y-64612696D01*
X98753520Y-64601593D01*
X98872240Y-64539283D01*
X98990483Y-64434530D01*
X99080220Y-64304523D01*
X99136237Y-64156818D01*
X99155278Y-64000000D01*
X99154125Y-63990499D01*
X99136237Y-63843181D01*
X99107982Y-63768679D01*
X99080220Y-63695477D01*
X99072448Y-63684217D01*
X99050567Y-63617862D01*
X99050500Y-63613780D01*
X99050500Y-62386219D01*
X99070185Y-62319180D01*
X99072434Y-62315802D01*
X99080220Y-62304523D01*
X99136237Y-62156818D01*
X99155278Y-62000000D01*
X99145712Y-61921212D01*
X99136237Y-61843181D01*
X99114992Y-61787164D01*
X99080220Y-61695477D01*
X98990483Y-61565470D01*
X98872240Y-61460717D01*
X98872238Y-61460716D01*
X98872237Y-61460715D01*
X98732365Y-61387303D01*
X98578986Y-61349500D01*
X98578985Y-61349500D01*
X98421015Y-61349500D01*
X98421014Y-61349500D01*
X98267634Y-61387303D01*
X98127762Y-61460715D01*
X98009516Y-61565471D01*
X97919781Y-61695475D01*
X97919780Y-61695476D01*
X97863762Y-61843181D01*
X97844722Y-61999999D01*
X91328668Y-61999999D01*
X91210762Y-61921217D01*
X91210752Y-61921212D01*
X91024127Y-61843909D01*
X91024119Y-61843907D01*
X90826007Y-61804500D01*
X90826003Y-61804500D01*
X90623997Y-61804500D01*
X90623992Y-61804500D01*
X90425880Y-61843907D01*
X90425868Y-61843910D01*
X90322059Y-61886909D01*
X90252590Y-61894378D01*
X90190111Y-61863102D01*
X90158665Y-61816319D01*
X90128884Y-61737793D01*
X90124818Y-61727070D01*
X90103009Y-61695475D01*
X90090476Y-61677318D01*
X90028183Y-61587071D01*
X89900852Y-61474266D01*
X89900849Y-61474263D01*
X89750226Y-61395210D01*
X89585056Y-61354500D01*
X89414944Y-61354500D01*
X89249773Y-61395210D01*
X89099150Y-61474263D01*
X88971816Y-61587072D01*
X88875182Y-61727068D01*
X88814860Y-61886125D01*
X88814859Y-61886130D01*
X88794355Y-62055000D01*
X85205645Y-62055000D01*
X85185140Y-61886128D01*
X85176407Y-61863102D01*
X85128885Y-61737794D01*
X85124818Y-61727070D01*
X85103009Y-61695475D01*
X85090476Y-61677318D01*
X85028183Y-61587071D01*
X84900852Y-61474266D01*
X84900849Y-61474263D01*
X84750226Y-61395210D01*
X84585056Y-61354500D01*
X84414944Y-61354500D01*
X84249773Y-61395210D01*
X84099150Y-61474263D01*
X83971816Y-61587072D01*
X83875183Y-61727067D01*
X83841334Y-61816320D01*
X83799156Y-61872022D01*
X83733558Y-61896079D01*
X83677940Y-61886909D01*
X83574131Y-61843910D01*
X83574119Y-61843907D01*
X83376007Y-61804500D01*
X83376003Y-61804500D01*
X83173997Y-61804500D01*
X83173992Y-61804500D01*
X82975880Y-61843907D01*
X82975872Y-61843909D01*
X82789247Y-61921212D01*
X82789237Y-61921217D01*
X82621281Y-62033441D01*
X82478441Y-62176281D01*
X82366217Y-62344237D01*
X82366212Y-62344247D01*
X82288909Y-62530872D01*
X82288907Y-62530880D01*
X82249500Y-62728992D01*
X65150499Y-62728992D01*
X65150499Y-61945136D01*
X65150497Y-61945117D01*
X65147586Y-61920012D01*
X65147585Y-61920010D01*
X65147585Y-61920009D01*
X65102206Y-61817235D01*
X65022765Y-61737794D01*
X65022763Y-61737793D01*
X64919992Y-61692415D01*
X64894865Y-61689500D01*
X63105143Y-61689500D01*
X63105117Y-61689502D01*
X63080012Y-61692413D01*
X63080008Y-61692415D01*
X62977235Y-61737793D01*
X62897794Y-61817234D01*
X62852415Y-61920006D01*
X62852415Y-61920008D01*
X62849500Y-61945131D01*
X62849500Y-63734856D01*
X62849502Y-63734882D01*
X62852413Y-63759987D01*
X62852415Y-63759991D01*
X62897793Y-63862764D01*
X62897794Y-63862765D01*
X62977235Y-63942206D01*
X63080009Y-63987585D01*
X63105135Y-63990500D01*
X63833758Y-63990499D01*
X63900795Y-64010183D01*
X63946550Y-64062987D01*
X63956494Y-64132146D01*
X63927469Y-64195702D01*
X63868691Y-64233476D01*
X63856542Y-64236388D01*
X63800116Y-64246935D01*
X63683802Y-64268679D01*
X63683800Y-64268679D01*
X63683798Y-64268680D01*
X63484982Y-64345701D01*
X63484980Y-64345702D01*
X63303699Y-64457947D01*
X63146127Y-64601593D01*
X63017632Y-64771746D01*
X62922596Y-64962605D01*
X62922596Y-64962607D01*
X62864244Y-65167689D01*
X62844571Y-65379999D01*
X62844571Y-65380000D01*
X62864244Y-65592310D01*
X62922596Y-65797392D01*
X62922596Y-65797394D01*
X63017632Y-65988253D01*
X63146127Y-66158406D01*
X63146128Y-66158407D01*
X63303698Y-66302052D01*
X63484981Y-66414298D01*
X63683802Y-66491321D01*
X63880613Y-66528111D01*
X63942893Y-66559779D01*
X63978166Y-66620092D01*
X63975232Y-66689900D01*
X63935023Y-66747040D01*
X63880613Y-66771888D01*
X63683802Y-66808679D01*
X63683799Y-66808679D01*
X63683799Y-66808680D01*
X63484982Y-66885701D01*
X63484980Y-66885702D01*
X63303699Y-66997947D01*
X63146127Y-67141593D01*
X63017632Y-67311746D01*
X62922596Y-67502605D01*
X62922596Y-67502607D01*
X62864244Y-67707689D01*
X62844571Y-67919999D01*
X62844571Y-67920000D01*
X62864244Y-68132310D01*
X62922596Y-68337392D01*
X62922596Y-68337394D01*
X63017632Y-68528253D01*
X63146127Y-68698406D01*
X63146128Y-68698407D01*
X63303698Y-68842052D01*
X63484981Y-68954298D01*
X63683802Y-69031321D01*
X63880613Y-69068111D01*
X63942893Y-69099779D01*
X63978166Y-69160092D01*
X63975232Y-69229900D01*
X63935023Y-69287040D01*
X63880613Y-69311888D01*
X63683802Y-69348679D01*
X63683799Y-69348679D01*
X63683799Y-69348680D01*
X63484982Y-69425701D01*
X63484980Y-69425702D01*
X63303699Y-69537947D01*
X63146127Y-69681593D01*
X63017632Y-69851746D01*
X62922596Y-70042605D01*
X62922596Y-70042607D01*
X62864244Y-70247689D01*
X62844571Y-70459999D01*
X62844571Y-70460000D01*
X62864244Y-70672310D01*
X62922596Y-70877392D01*
X62922596Y-70877394D01*
X63017632Y-71068253D01*
X63146127Y-71238406D01*
X63146128Y-71238407D01*
X63303698Y-71382052D01*
X63484981Y-71494298D01*
X63683802Y-71571321D01*
X63880613Y-71608111D01*
X63942893Y-71639779D01*
X63978166Y-71700092D01*
X63975232Y-71769900D01*
X63935023Y-71827040D01*
X63880613Y-71851888D01*
X63683802Y-71888679D01*
X63683799Y-71888679D01*
X63683799Y-71888680D01*
X63484982Y-71965701D01*
X63484980Y-71965702D01*
X63303699Y-72077947D01*
X63146127Y-72221593D01*
X63017632Y-72391746D01*
X62922596Y-72582605D01*
X62922596Y-72582607D01*
X62864244Y-72787689D01*
X62844571Y-72999999D01*
X62844571Y-73000000D01*
X62864244Y-73212310D01*
X62922596Y-73417392D01*
X62922596Y-73417394D01*
X63017632Y-73608253D01*
X63146127Y-73778406D01*
X63146128Y-73778407D01*
X63303698Y-73922052D01*
X63484981Y-74034298D01*
X63683802Y-74111321D01*
X63880613Y-74148111D01*
X63942893Y-74179779D01*
X63978166Y-74240092D01*
X63975232Y-74309900D01*
X63935023Y-74367040D01*
X63880613Y-74391888D01*
X63683802Y-74428679D01*
X63683799Y-74428679D01*
X63683799Y-74428680D01*
X63484982Y-74505701D01*
X63484980Y-74505702D01*
X63303699Y-74617947D01*
X63146127Y-74761593D01*
X63017632Y-74931746D01*
X62922596Y-75122605D01*
X62922596Y-75122607D01*
X62864244Y-75327689D01*
X62844571Y-75539999D01*
X62844571Y-75540000D01*
X62864244Y-75752310D01*
X62922596Y-75957392D01*
X62922596Y-75957394D01*
X63017632Y-76148253D01*
X63138491Y-76308294D01*
X63146128Y-76318407D01*
X63303698Y-76462052D01*
X63484981Y-76574298D01*
X63683802Y-76651321D01*
X63880613Y-76688111D01*
X63942893Y-76719779D01*
X63978166Y-76780092D01*
X63975232Y-76849900D01*
X63935023Y-76907040D01*
X63880613Y-76931888D01*
X63683802Y-76968679D01*
X63683799Y-76968679D01*
X63683799Y-76968680D01*
X63484982Y-77045701D01*
X63484980Y-77045702D01*
X63303699Y-77157947D01*
X63146127Y-77301593D01*
X63017632Y-77471746D01*
X62922596Y-77662605D01*
X62922596Y-77662607D01*
X62864244Y-77867689D01*
X62844571Y-78079999D01*
X62844571Y-78080000D01*
X62864244Y-78292310D01*
X62922596Y-78497392D01*
X62922596Y-78497394D01*
X63017632Y-78688253D01*
X63146127Y-78858406D01*
X63146128Y-78858407D01*
X63303698Y-79002052D01*
X63484981Y-79114298D01*
X63683802Y-79191321D01*
X63880613Y-79228111D01*
X63942893Y-79259779D01*
X63978166Y-79320092D01*
X63975232Y-79389900D01*
X63935023Y-79447040D01*
X63880613Y-79471888D01*
X63683802Y-79508679D01*
X63683799Y-79508679D01*
X63683799Y-79508680D01*
X63484982Y-79585701D01*
X63484980Y-79585702D01*
X63303699Y-79697947D01*
X63146127Y-79841593D01*
X63017632Y-80011746D01*
X62922596Y-80202605D01*
X62922596Y-80202607D01*
X62864244Y-80407689D01*
X62844571Y-80619999D01*
X62844571Y-80620000D01*
X62864244Y-80832310D01*
X62922596Y-81037392D01*
X62922596Y-81037394D01*
X63017632Y-81228253D01*
X63146127Y-81398406D01*
X63146128Y-81398407D01*
X63303698Y-81542052D01*
X63484981Y-81654298D01*
X63683802Y-81731321D01*
X63880613Y-81768111D01*
X63942893Y-81799779D01*
X63978166Y-81860092D01*
X63975232Y-81929900D01*
X63935023Y-81987040D01*
X63880613Y-82011888D01*
X63683802Y-82048679D01*
X63683799Y-82048679D01*
X63683799Y-82048680D01*
X63484982Y-82125701D01*
X63484980Y-82125702D01*
X63303699Y-82237947D01*
X63146127Y-82381593D01*
X63017632Y-82551746D01*
X62922596Y-82742605D01*
X62922596Y-82742607D01*
X62881426Y-82887304D01*
X62864244Y-82947690D01*
X62844571Y-83160000D01*
X62864244Y-83372310D01*
X62920013Y-83568316D01*
X62922596Y-83577392D01*
X62922596Y-83577394D01*
X63017632Y-83768253D01*
X63143200Y-83934530D01*
X63146128Y-83938407D01*
X63303698Y-84082052D01*
X63484981Y-84194298D01*
X63683802Y-84271321D01*
X63880613Y-84308111D01*
X63942893Y-84339779D01*
X63978166Y-84400092D01*
X63975232Y-84469900D01*
X63935023Y-84527040D01*
X63880613Y-84551888D01*
X63683802Y-84588679D01*
X63683799Y-84588679D01*
X63683799Y-84588680D01*
X63484982Y-84665701D01*
X63484980Y-84665702D01*
X63303699Y-84777947D01*
X63146127Y-84921593D01*
X63017632Y-85091746D01*
X62922596Y-85282605D01*
X62922596Y-85282607D01*
X62864244Y-85487689D01*
X62855059Y-85586819D01*
X62844571Y-85700000D01*
X62864244Y-85912310D01*
X62905879Y-86058641D01*
X62922596Y-86117392D01*
X62922596Y-86117394D01*
X63017632Y-86308253D01*
X63126536Y-86452463D01*
X63146128Y-86478407D01*
X63303698Y-86622052D01*
X63484981Y-86734298D01*
X63683802Y-86811321D01*
X63880613Y-86848111D01*
X63942893Y-86879779D01*
X63978166Y-86940092D01*
X63975232Y-87009900D01*
X63935023Y-87067040D01*
X63880613Y-87091888D01*
X63683802Y-87128679D01*
X63683799Y-87128679D01*
X63683799Y-87128680D01*
X63484982Y-87205701D01*
X63484980Y-87205702D01*
X63303699Y-87317947D01*
X63146127Y-87461593D01*
X63017632Y-87631746D01*
X62922596Y-87822605D01*
X62922596Y-87822607D01*
X62864244Y-88027689D01*
X62844571Y-88239999D01*
X62844571Y-88240000D01*
X62864244Y-88452310D01*
X62922596Y-88657392D01*
X62922596Y-88657394D01*
X63017632Y-88848253D01*
X63146127Y-89018406D01*
X63146128Y-89018407D01*
X63303698Y-89162052D01*
X63484981Y-89274298D01*
X63683802Y-89351321D01*
X63880613Y-89388111D01*
X63942893Y-89419779D01*
X63978166Y-89480092D01*
X63975232Y-89549900D01*
X63935023Y-89607040D01*
X63880613Y-89631888D01*
X63683802Y-89668679D01*
X63683799Y-89668679D01*
X63683799Y-89668680D01*
X63484982Y-89745701D01*
X63484980Y-89745702D01*
X63303699Y-89857947D01*
X63146127Y-90001593D01*
X63017632Y-90171746D01*
X62922596Y-90362605D01*
X62922596Y-90362607D01*
X62864244Y-90567689D01*
X62844571Y-90779999D01*
X62844571Y-90780000D01*
X62864244Y-90992310D01*
X62922596Y-91197392D01*
X62922596Y-91197394D01*
X63017632Y-91388253D01*
X63146127Y-91558406D01*
X63146128Y-91558407D01*
X63303698Y-91702052D01*
X63484981Y-91814298D01*
X63683802Y-91891321D01*
X63880613Y-91928111D01*
X63942893Y-91959779D01*
X63978166Y-92020092D01*
X63975232Y-92089900D01*
X63935023Y-92147040D01*
X63880613Y-92171888D01*
X63683802Y-92208679D01*
X63683799Y-92208679D01*
X63683799Y-92208680D01*
X63484982Y-92285701D01*
X63484980Y-92285702D01*
X63303699Y-92397947D01*
X63146127Y-92541593D01*
X63017632Y-92711746D01*
X62922596Y-92902605D01*
X62922596Y-92902607D01*
X62883708Y-93039284D01*
X62864244Y-93107690D01*
X62844571Y-93320000D01*
X62864244Y-93532310D01*
X62917821Y-93720612D01*
X62922596Y-93737392D01*
X62922596Y-93737394D01*
X63017632Y-93928253D01*
X63126543Y-94072473D01*
X63146128Y-94098407D01*
X63303698Y-94242052D01*
X63484981Y-94354298D01*
X63513961Y-94365525D01*
X63569362Y-94408095D01*
X63592954Y-94473861D01*
X63577244Y-94541942D01*
X63527222Y-94590722D01*
X63521573Y-94593533D01*
X63322422Y-94686399D01*
X63322420Y-94686400D01*
X63128926Y-94821886D01*
X63128920Y-94821891D01*
X62961891Y-94988920D01*
X62961886Y-94988926D01*
X62826400Y-95182420D01*
X62826399Y-95182422D01*
X62726570Y-95396507D01*
X62726567Y-95396513D01*
X62669364Y-95609999D01*
X61200500Y-95609999D01*
X61200500Y-58893766D01*
X82249500Y-58893766D01*
X82249500Y-59716233D01*
X82283143Y-59885366D01*
X82283146Y-59885378D01*
X82349138Y-60044698D01*
X82349145Y-60044711D01*
X82444954Y-60188098D01*
X82444957Y-60188102D01*
X82566897Y-60310042D01*
X82566901Y-60310045D01*
X82710288Y-60405854D01*
X82710301Y-60405861D01*
X82869621Y-60471853D01*
X82869626Y-60471855D01*
X83038766Y-60505499D01*
X83038769Y-60505500D01*
X83038771Y-60505500D01*
X83211231Y-60505500D01*
X83211232Y-60505499D01*
X83380374Y-60471855D01*
X83539705Y-60405858D01*
X83683099Y-60310045D01*
X83805045Y-60188099D01*
X83900858Y-60044705D01*
X83966855Y-59885374D01*
X84000500Y-59716229D01*
X84000500Y-58893771D01*
X84000500Y-58893768D01*
X84000499Y-58893766D01*
X89999500Y-58893766D01*
X89999500Y-59716233D01*
X90033143Y-59885366D01*
X90033146Y-59885378D01*
X90099138Y-60044698D01*
X90099145Y-60044711D01*
X90194954Y-60188098D01*
X90194957Y-60188102D01*
X90316897Y-60310042D01*
X90316901Y-60310045D01*
X90460288Y-60405854D01*
X90460301Y-60405861D01*
X90619621Y-60471853D01*
X90619626Y-60471855D01*
X90788766Y-60505499D01*
X90788769Y-60505500D01*
X90788771Y-60505500D01*
X90961231Y-60505500D01*
X90961232Y-60505499D01*
X91130374Y-60471855D01*
X91289705Y-60405858D01*
X91433099Y-60310045D01*
X91555045Y-60188099D01*
X91650858Y-60044705D01*
X91716855Y-59885374D01*
X91750500Y-59716229D01*
X91750500Y-58893771D01*
X91750500Y-58893768D01*
X91750499Y-58893766D01*
X91716856Y-58724633D01*
X91716855Y-58724626D01*
X91716853Y-58724621D01*
X91650861Y-58565301D01*
X91650854Y-58565288D01*
X91555045Y-58421901D01*
X91555042Y-58421897D01*
X91433102Y-58299957D01*
X91433098Y-58299954D01*
X91289711Y-58204145D01*
X91289698Y-58204138D01*
X91130378Y-58138146D01*
X91130366Y-58138143D01*
X90961232Y-58104500D01*
X90961229Y-58104500D01*
X90788771Y-58104500D01*
X90788768Y-58104500D01*
X90619633Y-58138143D01*
X90619621Y-58138146D01*
X90460301Y-58204138D01*
X90460288Y-58204145D01*
X90316901Y-58299954D01*
X90316897Y-58299957D01*
X90194957Y-58421897D01*
X90194954Y-58421901D01*
X90099145Y-58565288D01*
X90099138Y-58565301D01*
X90033146Y-58724621D01*
X90033143Y-58724633D01*
X89999500Y-58893766D01*
X84000499Y-58893766D01*
X83966856Y-58724633D01*
X83966855Y-58724626D01*
X83966853Y-58724621D01*
X83900861Y-58565301D01*
X83900854Y-58565288D01*
X83805045Y-58421901D01*
X83805042Y-58421897D01*
X83683102Y-58299957D01*
X83683098Y-58299954D01*
X83539711Y-58204145D01*
X83539698Y-58204138D01*
X83380378Y-58138146D01*
X83380366Y-58138143D01*
X83211232Y-58104500D01*
X83211229Y-58104500D01*
X83038771Y-58104500D01*
X83038768Y-58104500D01*
X82869633Y-58138143D01*
X82869621Y-58138146D01*
X82710301Y-58204138D01*
X82710288Y-58204145D01*
X82566901Y-58299954D01*
X82566897Y-58299957D01*
X82444957Y-58421897D01*
X82444954Y-58421901D01*
X82349145Y-58565288D01*
X82349138Y-58565301D01*
X82283146Y-58724621D01*
X82283143Y-58724633D01*
X82249500Y-58893766D01*
X61200500Y-58893766D01*
X61200500Y-57324500D01*
X61220185Y-57257461D01*
X61272989Y-57211706D01*
X61324500Y-57200500D01*
X110675500Y-57200500D01*
X110742539Y-57220185D01*
G37*
%TD.AperFunction*%
%TD*%
M02*
